<svg xmlns="http://www.w3.org/2000/svg" xmlns:xlink="http://www.w3.org/1999/xlink" viewBox="0 0 512 512"><defs><filter id="7"><feGaussianBlur stdDeviation="3.7725"/></filter><linearGradient id="8" y1="19.564" x2="0" y2="504.02" gradientUnits="userSpaceOnUse"><stop stop-color="#f3f3f3"/><stop offset=".5" stop-color="#eee"/><stop offset="1" stop-color="#ebebeb"/></linearGradient><linearGradient xlink:href="#0" id="5" gradientUnits="userSpaceOnUse" gradientTransform="matrix(1.02835 0 0 1.46193 209.19-118.25)" x1="257" x2="362"/><linearGradient xlink:href="#0" id="6" gradientUnits="userSpaceOnUse" gradientTransform="matrix(1.0381 0 0 1.46193-337.29-118.25)" x1="257" x2="362"/><linearGradient xlink:href="#0" id="4" gradientUnits="userSpaceOnUse" gradientTransform="matrix(1.02835 0 0 1.46193 101.22-118.25)" x1="257" x2="362"/><linearGradient xlink:href="#0" id="3" gradientUnits="userSpaceOnUse" gradientTransform="matrix(1.0381 0 0 1.46193-10.289-118.25)" x1="257" x2="362"/><linearGradient id="0"><stop/><stop offset="1" stop-color="#fff"/></linearGradient><linearGradient xlink:href="#0" id="2" gradientUnits="userSpaceOnUse" gradientTransform="matrix(1.0381 0 0 1.46193-119.29-118.25)" x1="257" x2="362"/><linearGradient xlink:href="#0" id="1" gradientUnits="userSpaceOnUse" gradientTransform="matrix(1.0381 0 0 1.46193-228.29-118.25)" x1="257" x2="362"/></defs><path d="m78.66 6c-.929 0-1.861.028-2.781.063-.073.003-.146-.003-.219 0-.668.027-1.337.08-2 .125-.376.025-.751.063-1.125.094-.645.053-1.297.086-1.938.156-.965.106-1.922.232-2.875.375-.052.008-.104.023-.156.031-1.082.165-2.154.351-3.219.563-.459.091-.919.182-1.375.281-.39.085-.769.19-1.156.281-.647.152-1.297.299-1.938.469-.898.238-1.804.479-2.688.75-.211.065-.414.152-.625.219-.991.314-1.966.645-2.938 1-.817.298-1.635.611-2.438.938-.29.118-.587.222-.875.344-.136.057-.27.129-.406.188-.082.035-.169.058-.25.094-.717.311-1.42.636-2.125.969-.147.069-.291.148-.438.219-.947.455-1.889.943-2.813 1.438-.271.145-.544.289-.813.438-.414.228-.81.483-1.219.719-.52.3-1.051.594-1.563.906-.738.452-1.467.898-2.188 1.375-.031.021-.062.042-.094.063-.456.303-.895.625-1.344.938-.123.086-.252.163-.375.25-.524.37-1.049.742-1.563 1.125-1.835 1.371-3.618 2.84-5.313 4.375-.017.015-.046.016-.063.031-.526.477-1.02.977-1.531 1.469-.524.505-1.054 1.011-1.563 1.531-.512.523-1 1.055-1.5 1.594-.941 1.022-1.837 2.05-2.719 3.125-.631.769-1.244 1.58-1.844 2.375-.111.148-.233.289-.344.438-.526.71-1.031 1.427-1.531 2.156-.11.16-.235.308-.344.469-.013.019-.018.043-.031.063-.084.125-.167.249-.25.375-.47.708-.929 1.431-1.375 2.156-.071.116-.148.227-.219.344-.575.948-1.124 1.899-1.656 2.875-.152.278-.289.564-.438.844-.18.341-.356.687-.531 1.031-.243.479-.486.952-.719 1.438-.426.885-.828 1.783-1.219 2.688-.24.556-.461 1.124-.688 1.688-.038.095-.087.186-.125.281-.246.621-.489 1.245-.719 1.875-.332.909-.641 1.825-.938 2.75-.11.345-.238.684-.344 1.031-.301.99-.585 1.992-.844 3-.008.032-.023.062-.031.094-.267 1.046-.497 2.092-.719 3.156-.034.166-.06.334-.094.5-.426 2.117-.762 4.257-1 6.438-.035.323-.063.645-.094.969-.09.938-.165 1.895-.219 2.844-.017.29-.018.584-.031.875-.051 1.119-.094 2.243-.094 3.375v354.69 6c0 40.24 32.411 72.66 72.66 72.66h354.69c40.24 0 72.66-32.411 72.66-72.66v-354.69-6c0-1.259-.031-2.507-.094-3.75-.016-.323-.042-.647-.063-.969-.058-.917-.127-1.843-.219-2.75-.02-.2-.041-.394-.063-.594-.246-2.245-.587-4.447-1.031-6.625-.021-.104-.041-.209-.063-.313-.227-1.087-.476-2.15-.75-3.219-.011-.042-.02-.083-.031-.125-.19-.732-.413-1.464-.625-2.188-.212-.724-.423-1.442-.656-2.156-.258-.789-.529-1.567-.813-2.344-.23-.63-.472-1.254-.719-1.875-.038-.096-.087-.186-.125-.281-.239-.594-.465-1.195-.719-1.781-.378-.871-.777-1.741-1.188-2.594-.233-.485-.475-.958-.719-1.438-.287-.564-.574-1.132-.875-1.688-.051-.094-.105-.188-.156-.281-.513-.936-1.041-1.871-1.594-2.781-.212-.35-.438-.685-.656-1.031-.405-.642-.795-1.278-1.219-1.906-.809-1.199-1.685-2.354-2.563-3.5-.262-.341-.514-.695-.781-1.031-.189-.238-.371-.483-.563-.719-.093-.114-.188-.231-.281-.344-2.71-3.286-5.696-6.301-8.938-9.06-.293-.249-.578-.505-.875-.75-.268-.221-.541-.439-.813-.656-.636-.509-1.284-1.012-1.938-1.5-3.17-2.368-6.55-4.481-10.09-6.313-.617-.319-1.248-.636-1.875-.938-.155-.074-.313-.145-.469-.219-.785-.371-1.575-.719-2.375-1.063-.488-.209-.975-.426-1.469-.625-.735-.296-1.472-.571-2.219-.844-.392-.143-.793-.27-1.188-.406-.718-.248-1.459-.524-2.188-.75-.114-.035-.23-.059-.344-.094-.488-.149-.977-.267-1.469-.406-.357-.1-.703-.217-1.063-.313-.019-.005-.043.005-.063 0-.837-.221-1.683-.433-2.531-.625-.032-.007-.062-.024-.094-.031-.651-.146-1.311-.278-1.969-.406-1-.197-2.01-.376-3.03-.531-.063-.01-.125-.022-.188-.031-.952-.143-1.88-.269-2.844-.375-.836-.091-1.687-.156-2.531-.219-.176-.013-.355-.019-.531-.031-.735-.049-1.478-.097-2.219-.125-.92-.034-1.853-.063-2.781-.063h-285.84-68.844" filter="url(#7)" fill-opacity=".176"/><rect width="500" height="500" x="6" y="12" rx="72.64" opacity=".15"/><rect rx="72.64" y="6" x="6" height="500" width="500" fill="url(#8)"/><rect width="435" height="435" x="38.5" y="38.5" rx="63.2" fill="#cd1d31"/><path d="m101.69 38.5c-35.01 0-63.19 28.17-63.19 63.19v15c0-35.01 28.17-63.19 63.19-63.19h308.63c35.01 0 63.19 28.17 63.19 63.19v-15c0-35.01-28.17-63.19-63.19-63.19h-308.62" opacity=".2"/><path d="m78.66 6c-40.24 0-72.66 32.411-72.66 72.66v7c0-40.24 32.411-72.66 72.66-72.66h354.69c40.24 0 72.66 32.411 72.66 72.66v-7c0-40.24-32.411-72.66-72.66-72.66h-354.69" fill="#fff"/><g transform="translate(525.19 50.12)"><path d="m-323.38 45.964c-16.333-.286-30.432 15.96-26.976 32.19 2.324 24.801 18.316 44.927 30.795 65.41 1.403 7.624-2.619 15.05-2.888 22.621-8.136 44.45-20.549 88.66-39.645 129.45-23.629 10.878-50.39 21.621-64.21 45.07-8.772 16.267 3.579 38.22 21.708 39.937 16.82 2.301 29.3-12.11 38.498-24.19 9.6-12.99 15.917-28.458 23.905-42.42 48.34-19.468 99.19-33.07 151.11-38.24 20.99 15.02 43.23 32.747 70.15 33.818 15.646-.233 28.31-15.42 26.588-30.846-1.01-14.04-13.485-23.894-26.411-26.53-20.847-6.28-43.18-2.841-64.38-2.688-40.808-32.607-78.48-70.12-108.15-113.06 2.203-26.1 6.624-54.965-6.965-78.71-5.159-7.488-13.904-12.618-23.12-11.815m.778 23.701c4.595.885 4.901 7.729 6.187 11.39 1.211 7.459 1.079 15.07.99 22.604-5.472-10.228-12.58-20.913-11.314-33.04 1.443-.056 2.72-.787 4.137-.955m25.315 101.77c24.322 30.24 51.34 58.09 80.82 83.34-38.876 5.929-77.5 15.861-114.48 29.25 14.186-37.08 24.986-75.38 32.1-114.47.519.625 1.037 1.25 1.556 1.875m151.71 101.66c9.43.91 20.316.363 27.86 6.863.709 5.866-6.467 6.722-10.289 4.599-7.973-2.661-15.859-6.01-22.628-11.11 1.686-.105 3.366-.321 5.056-.354m-235.65 61.692c-4.484 8.34-11.01 16.203-17.819 22.11-2.265 3.668-8.482-3.113-5.622-5.978 5.907-9.245 16.218-14.15 25.35-19.668-.636 1.179-1.273 2.358-1.909 3.537" opacity=".2"/><path d="m-338.38 30.964c-16.333-.286-30.432 15.96-26.976 32.19 2.324 24.801 18.316 44.927 30.795 65.41 1.403 7.624-2.619 15.05-2.888 22.621-8.136 44.45-20.549 88.66-39.645 129.45-23.629 10.878-50.39 21.621-64.21 45.07-8.772 16.267 3.579 38.22 21.708 39.937 16.82 2.301 29.3-12.11 38.498-24.19 9.6-12.99 15.917-28.458 23.905-42.42 48.34-19.468 99.19-33.07 151.11-38.24 20.99 15.02 43.23 32.747 70.15 33.818 15.646-.233 28.31-15.42 26.588-30.846-1.01-14.04-13.485-23.894-26.411-26.53-20.847-6.28-43.18-2.841-64.38-2.688-40.808-32.607-78.48-70.12-108.15-113.06 2.203-26.1 6.624-54.965-6.965-78.71-5.159-7.488-13.904-12.618-23.12-11.815m.778 23.701c4.595.885 4.901 7.729 6.187 11.39 1.211 7.459 1.079 15.07.99 22.604-5.472-10.228-12.58-20.913-11.314-33.04 1.443-.056 2.72-.787 4.137-.955m25.315 101.77c24.322 30.24 51.34 58.09 80.82 83.34-38.876 5.929-77.5 15.861-114.48 29.25 14.186-37.08 24.986-75.38 32.1-114.47.519.625 1.037 1.25 1.556 1.875m151.71 101.66c9.43.91 20.316.363 27.86 6.863.709 5.866-6.467 6.722-10.289 4.599-7.973-2.661-15.859-6.01-22.628-11.11 1.686-.105 3.366-.321 5.056-.354m-235.65 61.692c-4.484 8.34-11.01 16.203-17.819 22.11-2.265 3.668-8.482-3.113-5.622-5.978 5.907-9.245 16.218-14.15 25.35-19.668-.636 1.179-1.273 2.358-1.909 3.537" fill="#dcdbdb"/></g><path d="m78.66 6c-14.863 0-28.67 4.43-40.16 12.03v475.94c11.486 7.602 25.293 12.03 40.16 12.03h68.844v-500h-68.844" opacity=".05" fill="url(#1)"/><path d="m147.5 6v500h109v-500h-109" opacity=".05" fill="url(#2)"/><path d="m256.5 6v500h109v-500h-109" opacity=".05" fill="url(#3)"/><path d="m365.5 6v500h67.844c14.854 0 28.643-4.438 40.13-12.03v-475.94c-11.482-7.593-25.27-12.03-40.12-12.03h-67.844" opacity=".05" fill="url(#4)"/><path d="m38.5 18.03c-19.614 12.981-32.5 35.24-32.5 60.63v354.69c0 25.381 12.886 47.644 32.5 60.63v-475.94" opacity=".05" fill="url(#6)"/><path d="m473.47 18.03v475.94c19.627-12.979 32.531-35.23 32.531-60.62v-354.69c0-25.391-12.905-47.646-32.531-60.62" opacity=".05" fill="url(#5)"/></svg>