<?xml version="1.0" encoding="UTF-8" standalone="no"?>
<!-- Created with Inkscape (http://www.inkscape.org/) -->

<svg
   xmlns:dc="http://purl.org/dc/elements/1.1/"
   xmlns:cc="http://creativecommons.org/ns#"
   xmlns:rdf="http://www.w3.org/1999/02/22-rdf-syntax-ns#"
   xmlns:svg="http://www.w3.org/2000/svg"
   xmlns="http://www.w3.org/2000/svg"
   xmlns:xlink="http://www.w3.org/1999/xlink"
   xmlns:inkscape="http://www.inkscape.org/namespaces/inkscape"
   version="1.1"
   width="100%"
   height="100%"
   viewBox="0 0 512 512"
   id="svg2">
  <metadata
     id="metadata59">
    <rdf:RDF>
      <cc:Work
         rdf:about="">
        <dc:format>image/svg+xml</dc:format>
        <dc:type
           rdf:resource="http://purl.org/dc/dcmitype/StillImage" />
      </cc:Work>
    </rdf:RDF>
  </metadata>
  <defs
     id="defs4">
    <filter
       color-interpolation-filters="sRGB"
       id="7">
      <feGaussianBlur
         id="feGaussianBlur7"
         stdDeviation="3.7725" />
    </filter>
    <linearGradient
       y1="19.563999"
       x2="0"
       y2="504.01999"
       id="8"
       gradientUnits="userSpaceOnUse">
      <stop
         id="stop10"
         style="stop-color:#f3f3f3;stop-opacity:1"
         offset="0" />
      <stop
         id="stop12"
         style="stop-color:#eeeeee;stop-opacity:1"
         offset="0.5" />
      <stop
         id="stop14"
         style="stop-color:#ebebeb;stop-opacity:1"
         offset="1" />
    </linearGradient>
    <linearGradient
       x1="257"
       x2="362"
       id="5"
       xlink:href="#0"
       gradientUnits="userSpaceOnUse"
       gradientTransform="matrix(1.02835,0,0,1.46193,209.19,-118.25)" />
    <linearGradient
       x1="257"
       x2="362"
       id="6"
       xlink:href="#0"
       gradientUnits="userSpaceOnUse"
       gradientTransform="matrix(1.0381,0,0,1.46193,-337.29,-118.25)" />
    <linearGradient
       x1="257"
       x2="362"
       id="4"
       xlink:href="#0"
       gradientUnits="userSpaceOnUse"
       gradientTransform="matrix(1.02835,0,0,1.46193,101.22,-118.25)" />
    <linearGradient
       x1="257"
       x2="362"
       id="3"
       xlink:href="#0"
       gradientUnits="userSpaceOnUse"
       gradientTransform="matrix(1.0381,0,0,1.46193,-10.289,-118.25)" />
    <linearGradient
       id="0">
      <stop
         id="stop21"
         style="stop-color:#000000;stop-opacity:1"
         offset="0" />
      <stop
         id="stop23"
         style="stop-color:#ffffff;stop-opacity:1"
         offset="1" />
    </linearGradient>
    <linearGradient
       x1="257"
       x2="362"
       id="2"
       xlink:href="#0"
       gradientUnits="userSpaceOnUse"
       gradientTransform="matrix(1.0381,0,0,1.46193,-119.29,-118.25)" />
    <linearGradient
       x1="257"
       x2="362"
       id="1"
       xlink:href="#0"
       gradientUnits="userSpaceOnUse"
       gradientTransform="matrix(1.0381,0,0,1.46193,-228.29,-118.25)" />
  </defs>
  <path
     d="m 78.66,6 c -0.929,0 -1.861,0.028 -2.781,0.063 -0.073,0.003 -0.146,-0.003 -0.219,0 -0.668,0.027 -1.337,0.08 -2,0.125 -0.376,0.025 -0.751,0.063 -1.125,0.094 -0.645,0.053 -1.297,0.086 -1.938,0.156 -0.965,0.106 -1.922,0.232 -2.875,0.375 -0.052,0.008 -0.104,0.023 -0.156,0.031 -1.082,0.165 -2.154,0.351 -3.219,0.563 -0.459,0.091 -0.919,0.182 -1.375,0.281 -0.39,0.085 -0.769,0.19 -1.156,0.281 -0.647,0.152 -1.297,0.299 -1.938,0.469 -0.898,0.238 -1.804,0.479 -2.688,0.75 -0.211,0.065 -0.414,0.152 -0.625,0.219 -0.991,0.314 -1.966,0.645 -2.938,1 -0.817,0.298 -1.635,0.611 -2.438,0.938 -0.29,0.118 -0.587,0.222 -0.875,0.344 -0.136,0.057 -0.27,0.129 -0.406,0.188 -0.082,0.035 -0.169,0.058 -0.25,0.094 -0.717,0.311 -1.42,0.636 -2.125,0.969 -0.147,0.069 -0.291,0.148 -0.438,0.219 -0.947,0.455 -1.889,0.943 -2.813,1.438 -0.271,0.145 -0.544,0.289 -0.813,0.438 -0.414,0.228 -0.81,0.483 -1.219,0.719 -0.52,0.3 -1.051,0.594 -1.563,0.906 -0.738,0.452 -1.467,0.898 -2.188,1.375 -0.031,0.021 -0.062,0.042 -0.094,0.063 -0.456,0.303 -0.895,0.625 -1.344,0.938 -0.123,0.086 -0.252,0.163 -0.375,0.25 -0.524,0.37 -1.049,0.742 -1.563,1.125 -1.835,1.371 -3.618,2.84 -5.313,4.375 -0.017,0.015 -0.046,0.016 -0.063,0.031 -0.526,0.477 -1.02,0.977 -1.531,1.469 -0.524,0.505 -1.054,1.011 -1.563,1.531 -0.512,0.523 -1,1.055 -1.5,1.594 -0.941,1.022 -1.837,2.05 -2.719,3.125 -0.631,0.769 -1.244,1.58 -1.844,2.375 -0.111,0.148 -0.233,0.289 -0.344,0.438 -0.526,0.71 -1.031,1.427 -1.531,2.156 -0.11,0.16 -0.235,0.308 -0.344,0.469 -0.013,0.019 -0.018,0.043 -0.031,0.063 -0.084,0.125 -0.167,0.249 -0.25,0.375 -0.47,0.708 -0.929,1.431 -1.375,2.156 -0.071,0.116 -0.148,0.227 -0.219,0.344 -0.575,0.948 -1.124,1.899 -1.656,2.875 -0.152,0.278 -0.289,0.564 -0.438,0.844 -0.18,0.341 -0.356,0.687 -0.531,1.031 -0.243,0.479 -0.486,0.952 -0.719,1.438 -0.426,0.885 -0.828,1.783 -1.219,2.688 -0.24,0.556 -0.461,1.124 -0.688,1.688 -0.038,0.095 -0.087,0.186 -0.125,0.281 -0.246,0.621 -0.489,1.245 -0.719,1.875 -0.332,0.909 -0.641,1.825 -0.938,2.75 -0.11,0.345 -0.238,0.684 -0.344,1.031 -0.301,0.99 -0.585,1.992 -0.844,3 -0.008,0.032 -0.023,0.062 -0.031,0.094 -0.267,1.046 -0.497,2.092 -0.719,3.156 -0.034,0.166 -0.06,0.334 -0.094,0.5 -0.426,2.117 -0.762,4.257 -1,6.438 -0.035,0.323 -0.063,0.645 -0.094,0.969 -0.09,0.938 -0.165,1.895 -0.219,2.844 -0.017,0.29 -0.018,0.584 -0.031,0.875 -0.051,1.119 -0.094,2.243 -0.094,3.375 v 354.69 6 c 0,40.24 32.411,72.66 72.66,72.66 h 354.69 c 40.24,0 72.66,-32.411 72.66,-72.66 v -354.69 -6 c 0,-1.259 -0.031,-2.507 -0.094,-3.75 -0.016,-0.323 -0.042,-0.647 -0.063,-0.969 -0.058,-0.917 -0.127,-1.843 -0.219,-2.75 -0.02,-0.2 -0.041,-0.394 -0.063,-0.594 -0.246,-2.245 -0.587,-4.447 -1.031,-6.625 -0.021,-0.104 -0.041,-0.209 -0.063,-0.313 -0.227,-1.087 -0.476,-2.15 -0.75,-3.219 -0.011,-0.042 -0.02,-0.083 -0.031,-0.125 -0.19,-0.732 -0.413,-1.464 -0.625,-2.188 -0.212,-0.724 -0.423,-1.442 -0.656,-2.156 -0.258,-0.789 -0.529,-1.567 -0.813,-2.344 -0.23,-0.63 -0.472,-1.254 -0.719,-1.875 -0.038,-0.096 -0.087,-0.186 -0.125,-0.281 -0.239,-0.594 -0.465,-1.195 -0.719,-1.781 -0.378,-0.871 -0.777,-1.741 -1.188,-2.594 -0.233,-0.485 -0.475,-0.958 -0.719,-1.438 -0.287,-0.564 -0.574,-1.132 -0.875,-1.688 -0.051,-0.094 -0.105,-0.188 -0.156,-0.281 -0.513,-0.936 -1.041,-1.871 -1.594,-2.781 -0.212,-0.35 -0.438,-0.685 -0.656,-1.031 -0.405,-0.642 -0.795,-1.278 -1.219,-1.906 -0.809,-1.199 -1.685,-2.354 -2.563,-3.5 -0.262,-0.341 -0.514,-0.695 -0.781,-1.031 -0.189,-0.238 -0.371,-0.483 -0.563,-0.719 -0.093,-0.114 -0.188,-0.231 -0.281,-0.344 -2.71,-3.286 -5.696,-6.301 -8.938,-9.06 -0.293,-0.249 -0.578,-0.505 -0.875,-0.75 -0.268,-0.221 -0.541,-0.439 -0.813,-0.656 -0.636,-0.509 -1.284,-1.012 -1.938,-1.5 -3.17,-2.368 -6.55,-4.481 -10.09,-6.313 -0.617,-0.319 -1.248,-0.636 -1.875,-0.938 -0.155,-0.074 -0.313,-0.145 -0.469,-0.219 -0.785,-0.371 -1.575,-0.719 -2.375,-1.063 -0.488,-0.209 -0.975,-0.426 -1.469,-0.625 -0.735,-0.296 -1.472,-0.571 -2.219,-0.844 -0.392,-0.143 -0.793,-0.27 -1.188,-0.406 -0.718,-0.248 -1.459,-0.524 -2.188,-0.75 -0.114,-0.035 -0.23,-0.059 -0.344,-0.094 -0.488,-0.149 -0.977,-0.267 -1.469,-0.406 -0.357,-0.1 -0.703,-0.217 -1.063,-0.313 -0.019,-0.005 -0.043,0.005 -0.063,0 -0.837,-0.221 -1.683,-0.433 -2.531,-0.625 -0.032,-0.007 -0.062,-0.024 -0.094,-0.031 -0.651,-0.146 -1.311,-0.278 -1.969,-0.406 -1,-0.197 -2.01,-0.376 -3.03,-0.531 -0.063,-0.01 -0.125,-0.022 -0.188,-0.031 -0.952,-0.143 -1.88,-0.269 -2.844,-0.375 -0.836,-0.091 -1.687,-0.156 -2.531,-0.219 -0.176,-0.013 -0.355,-0.019 -0.531,-0.031 -0.735,-0.049 -1.478,-0.097 -2.219,-0.125 -0.92,-0.034 -1.853,-0.063 -2.781,-0.063 H 147.503 78.659"
     inkscape:connector-curvature="0"
     id="path27"
     style="fill-opacity:0.17600002;filter:url(#7)" />
  <rect
     width="500"
     height="500"
     rx="72.639999"
     x="6"
     y="12"
     id="rect29"
     style="opacity:0.15" />
  <rect
     width="500"
     height="500"
     rx="72.639999"
     x="6"
     y="6"
     id="rect31"
     style="fill:url(#8)" />
  <rect
     width="435"
     height="435"
     rx="63.200001"
     x="38.5"
     y="38.5"
     id="rect33"
     style="fill:#4a789c" />
  <path
     d="M 101.69,38.5 C 66.68,38.5 38.5,66.67 38.5,101.69 v 15 C 38.5,81.68 66.67,53.5 101.69,53.5 h 308.63 c 35.01,0 63.19,28.17 63.19,63.19 v -15 C 473.51,66.68 445.34,38.5 410.32,38.5 H 101.7"
     inkscape:connector-curvature="0"
     id="path35"
     style="opacity:0.2" />
  <path
     d="M 78.66,6 C 38.42,6 6,38.411 6,78.66 v 7 C 6,45.42 38.411,13 78.66,13 h 354.69 c 40.24,0 72.66,32.411 72.66,72.66 v -7 C 506.01,38.42 473.599,6 433.35,6 H 78.66"
     inkscape:connector-curvature="0"
     id="path37"
     style="fill:#ffffff" />
  <g
     transform="translate(1224.34,582.78)"
     id="g39">
    <path
       d="m -962.63,-464.52 c -7.66,0.017 -15.243,0.636 -22.607,1.833 -49.717,8.08 -97.7,40.3 -123.55,83.01 -2.736,4.519 -2.989,5.89 -1.571,8.161 1.428,2.287 0.92,4.55 -3.186,14.14 -10.237,23.911 -14.809,45.998 -14.795,71.23 0.021,35.565 9.822,68.38 29.07,97.11 0.979,1.462 21.373,6.811 27.1,7.114 0.573,0.03 -2.098,-3.835 -5.936,-8.598 -3.837,-4.762 -6.983,-9.231 -6.983,-9.951 0,-0.72 2.985,1.442 6.634,4.844 11.858,11.06 27.554,18.262 44.43,20.425 10.709,1.373 15.368,1.245 15.01,-0.436 -0.156,-0.739 -10.1,-23.978 -22.08,-51.63 -11.981,-27.652 -25.934,-59.951 -31.03,-71.793 l -9.296,-21.516 -5.979,6.634 c -10.817,11.948 -19.851,34.545 -20.12,50.32 -0.096,5.628 -0.35,6.326 -1.222,3.448 -2.302,-7.593 -3.02,-27.67 -1.484,-41.636 7.03,-63.905 51.68,-116.68 113.12,-133.64 18.856,-5.204 44.43,-6.144 62.847,-2.313 66.03,13.741 114.81,67.36 122.9,135.08 1.623,13.595 0.906,34.659 -1.44,42.42 -0.915,3.03 -1.124,2.409 -1.222,-3.361 -0.269,-15.764 -9.322,-38.39 -20.12,-50.32 l -5.979,-6.59 -22.825,52.939 c -12.556,29.11 -26.753,61.891 -31.554,72.841 -4.801,10.95 -8.236,20.19 -7.638,20.556 0.598,0.37 6.265,0.048 12.569,-0.742 18.961,-2.378 35.02,-9.672 47.13,-21.342 8.02,-7.722 7.533,-4.833 -1,5.761 -3.838,4.762 -6.508,8.628 -5.936,8.598 5.729,-0.303 26.08,-5.652 27.06,-7.114 20.931,-31.25 30.375,-65.57 28.805,-104.92 -0.876,-21.949 -4.593,-39.16 -12.569,-58.31 -5.717,-13.725 -6.125,-15.546 -4.626,-20.251 2.412,-7.573 -31.967,-46.974 -53.38,-61.19 -30.19,-20.04 -65.35,-30.885 -98.55,-30.812 m -94.1,127.83 c -2.067,0.185 -13.847,6.545 -15.406,8.423 -1.175,1.416 5.907,19.08 29.765,74.46 17.207,39.941 31.862,74 32.602,75.68 1.215,2.756 1.88,2.946 6.678,1.702 8.02,-2.079 12.962,-4.252 12.962,-5.63 0,-0.68 -8.706,-21.495 -19.378,-46.26 -10.672,-24.767 -25.506,-59.18 -32.951,-76.46 -7.445,-17.283 -13.724,-31.616 -13.966,-31.86 -0.045,-0.046 -0.168,-0.056 -0.305,-0.044 m 191.86,0 c -0.138,-0.012 -0.216,-0.002 -0.262,0.044 -0.866,0.871 -66.34,153.52 -66.34,154.67 0,1.298 5.092,3.5 12.569,5.455 3.368,0.881 5.268,0.777 6.066,-0.305 0.638,-0.864 15.514,-34.88 33.04,-75.59 24.04,-55.842 31.471,-74.45 30.332,-75.852 -1.52,-1.868 -13.334,-8.241 -15.406,-8.423"
       inkscape:connector-curvature="0"
       id="path41"
       style="opacity:0.2" />
    <path
       d="m -977.63,-479.52 c -7.66,0.017 -15.243,0.636 -22.607,1.833 -49.717,8.08 -97.7,40.3 -123.55,83.01 -2.736,4.519 -2.989,5.89 -1.571,8.161 1.428,2.287 0.92,4.55 -3.186,14.14 -10.237,23.911 -14.809,45.998 -14.795,71.23 0.021,35.565 9.822,68.38 29.07,97.11 0.979,1.462 21.373,6.811 27.1,7.114 0.573,0.03 -2.098,-3.835 -5.936,-8.598 -3.837,-4.762 -6.983,-9.231 -6.983,-9.951 0,-0.72 2.985,1.442 6.634,4.844 11.858,11.06 27.554,18.262 44.43,20.425 10.709,1.373 15.368,1.245 15.01,-0.436 -0.156,-0.739 -10.1,-23.978 -22.08,-51.63 -11.981,-27.652 -25.934,-59.951 -31.03,-71.793 l -9.296,-21.516 -5.979,6.634 c -10.817,11.948 -19.851,34.545 -20.12,50.32 -0.096,5.628 -0.35,6.326 -1.222,3.448 -2.302,-7.593 -3.02,-27.67 -1.484,-41.636 7.03,-63.905 51.68,-116.68 113.12,-133.64 18.856,-5.204 44.43,-6.144 62.847,-2.313 66.03,13.741 114.81,67.36 122.9,135.08 1.623,13.595 0.906,34.659 -1.44,42.42 -0.915,3.03 -1.124,2.409 -1.222,-3.361 -0.269,-15.764 -9.322,-38.39 -20.12,-50.32 l -5.979,-6.59 -22.825,52.939 c -12.556,29.11 -26.753,61.891 -31.554,72.841 -4.801,10.95 -8.236,20.19 -7.638,20.556 0.598,0.37 6.265,0.048 12.569,-0.742 18.961,-2.378 35.02,-9.672 47.13,-21.342 8.02,-7.722 7.533,-4.833 -1,5.761 -3.838,4.762 -6.508,8.628 -5.936,8.598 5.729,-0.303 26.08,-5.652 27.06,-7.114 20.931,-31.25 30.375,-65.57 28.805,-104.92 -0.876,-21.949 -4.593,-39.16 -12.569,-58.31 -5.717,-13.725 -6.125,-15.546 -4.626,-20.251 2.412,-7.573 -31.967,-46.974 -53.38,-61.19 -30.19,-20.04 -65.35,-30.885 -98.55,-30.812 m -94.1,127.83 c -2.067,0.185 -13.847,6.545 -15.406,8.423 -1.175,1.416 5.907,19.08 29.765,74.46 17.207,39.941 31.862,74 32.602,75.68 1.215,2.756 1.88,2.946 6.678,1.702 8.02,-2.079 12.962,-4.252 12.962,-5.63 0,-0.68 -8.706,-21.495 -19.378,-46.26 -10.672,-24.767 -25.506,-59.18 -32.951,-76.46 -7.445,-17.283 -13.724,-31.616 -13.966,-31.86 -0.045,-0.046 -0.168,-0.056 -0.305,-0.044 m 191.86,0 c -0.138,-0.012 -0.216,-0.002 -0.262,0.044 -0.866,0.871 -66.34,153.52 -66.34,154.67 0,1.298 5.092,3.5 12.569,5.455 3.368,0.881 5.268,0.777 6.066,-0.305 0.638,-0.864 15.514,-34.88 33.04,-75.59 24.04,-55.842 31.471,-74.45 30.332,-75.852 -1.52,-1.868 -13.334,-8.241 -15.406,-8.423"
       inkscape:connector-curvature="0"
       id="path43"
       style="fill:#dcdbdb" />
  </g>
  <path
     d="M 78.66,6 C 63.797,6 49.99,10.43 38.5,18.03 V 493.97 C 49.986,501.572 63.793,506 78.66,506 h 68.844 V 6 H 78.66"
     inkscape:connector-curvature="0"
     id="path45"
     style="opacity:0.05;fill:url(#1)" />
  <path
     d="m 147.5,6 v 500 h 109 V 6 h -109"
     inkscape:connector-curvature="0"
     id="path47"
     style="opacity:0.05;fill:url(#2)" />
  <path
     d="m 256.5,6 v 500 h 109 V 6 h -109"
     inkscape:connector-curvature="0"
     id="path49"
     style="opacity:0.05;fill:url(#3)" />
  <path
     d="m 365.5,6 v 500 h 67.844 c 14.854,0 28.643,-4.438 40.13,-12.03 V 18.03 C 461.992,10.437 448.204,6 433.354,6 H 365.51"
     inkscape:connector-curvature="0"
     id="path51"
     style="opacity:0.05;fill:url(#4)" />
  <path
     d="M 38.5,18.03 C 18.886,31.011 6,53.27 6,78.66 v 354.69 c 0,25.381 12.886,47.644 32.5,60.63 V 18.04"
     inkscape:connector-curvature="0"
     id="path53"
     style="opacity:0.05;fill:url(#6)" />
  <path
     d="m 473.47,18.03 v 475.94 c 19.627,-12.979 32.531,-35.23 32.531,-60.62 V 78.66 c 0,-25.391 -12.905,-47.646 -32.531,-60.62"
     inkscape:connector-curvature="0"
     id="path55"
     style="opacity:0.05;fill:url(#5)" />
</svg>
