<?xml version="1.0" encoding="UTF-8" standalone="no"?>
<!-- Created with Inkscape (http://www.inkscape.org/) -->

<svg
   xmlns:dc="http://purl.org/dc/elements/1.1/"
   xmlns:cc="http://creativecommons.org/ns#"
   xmlns:rdf="http://www.w3.org/1999/02/22-rdf-syntax-ns#"
   xmlns:svg="http://www.w3.org/2000/svg"
   xmlns="http://www.w3.org/2000/svg"
   xmlns:xlink="http://www.w3.org/1999/xlink"
   xmlns:inkscape="http://www.inkscape.org/namespaces/inkscape"
   version="1.1"
   width="100%"
   height="100%"
   viewBox="0 0 512 512"
   id="svg2">
  <metadata
     id="metadata59">
    <rdf:RDF>
      <cc:Work
         rdf:about="">
        <dc:format>image/svg+xml</dc:format>
        <dc:type
           rdf:resource="http://purl.org/dc/dcmitype/StillImage" />
      </cc:Work>
    </rdf:RDF>
  </metadata>
  <defs
     id="defs4">
    <filter
       color-interpolation-filters="sRGB"
       id="7">
      <feGaussianBlur
         id="feGaussianBlur7"
         stdDeviation="3.7725" />
    </filter>
    <linearGradient
       y1="19.563999"
       x2="0"
       y2="504.01999"
       id="8"
       gradientUnits="userSpaceOnUse">
      <stop
         id="stop10"
         style="stop-color:#f3f3f3;stop-opacity:1"
         offset="0" />
      <stop
         id="stop12"
         style="stop-color:#eeeeee;stop-opacity:1"
         offset="0.5" />
      <stop
         id="stop14"
         style="stop-color:#ebebeb;stop-opacity:1"
         offset="1" />
    </linearGradient>
    <linearGradient
       x1="257"
       x2="362"
       id="5"
       xlink:href="#0"
       gradientUnits="userSpaceOnUse"
       gradientTransform="matrix(1.02835,0,0,1.46193,209.19,-118.25)" />
    <linearGradient
       x1="257"
       x2="362"
       id="6"
       xlink:href="#0"
       gradientUnits="userSpaceOnUse"
       gradientTransform="matrix(1.0381,0,0,1.46193,-337.29,-118.25)" />
    <linearGradient
       x1="257"
       x2="362"
       id="4"
       xlink:href="#0"
       gradientUnits="userSpaceOnUse"
       gradientTransform="matrix(1.02835,0,0,1.46193,101.22,-118.25)" />
    <linearGradient
       x1="257"
       x2="362"
       id="3"
       xlink:href="#0"
       gradientUnits="userSpaceOnUse"
       gradientTransform="matrix(1.0381,0,0,1.46193,-10.289,-118.25)" />
    <linearGradient
       id="0">
      <stop
         id="stop21"
         style="stop-color:#000000;stop-opacity:1"
         offset="0" />
      <stop
         id="stop23"
         style="stop-color:#ffffff;stop-opacity:1"
         offset="1" />
    </linearGradient>
    <linearGradient
       x1="257"
       x2="362"
       id="2"
       xlink:href="#0"
       gradientUnits="userSpaceOnUse"
       gradientTransform="matrix(1.0381,0,0,1.46193,-119.29,-118.25)" />
    <linearGradient
       x1="257"
       x2="362"
       id="1"
       xlink:href="#0"
       gradientUnits="userSpaceOnUse"
       gradientTransform="matrix(1.0381,0,0,1.46193,-228.29,-118.25)" />
  </defs>
  <path
     d="m 78.66,6 c -0.929,0 -1.861,0.028 -2.781,0.063 -0.073,0.003 -0.146,-0.003 -0.219,0 -0.668,0.027 -1.337,0.08 -2,0.125 -0.376,0.025 -0.751,0.063 -1.125,0.094 -0.645,0.053 -1.297,0.086 -1.938,0.156 -0.965,0.106 -1.922,0.232 -2.875,0.375 -0.052,0.008 -0.104,0.023 -0.156,0.031 -1.082,0.165 -2.154,0.351 -3.219,0.563 -0.459,0.091 -0.919,0.182 -1.375,0.281 -0.39,0.085 -0.769,0.19 -1.156,0.281 -0.647,0.152 -1.297,0.299 -1.938,0.469 -0.898,0.238 -1.804,0.479 -2.688,0.75 -0.211,0.065 -0.414,0.152 -0.625,0.219 -0.991,0.314 -1.966,0.645 -2.938,1 -0.817,0.298 -1.635,0.611 -2.438,0.938 -0.29,0.118 -0.587,0.222 -0.875,0.344 -0.136,0.057 -0.27,0.129 -0.406,0.188 -0.082,0.035 -0.169,0.058 -0.25,0.094 -0.717,0.311 -1.42,0.636 -2.125,0.969 -0.147,0.069 -0.291,0.148 -0.438,0.219 -0.947,0.455 -1.889,0.943 -2.813,1.438 -0.271,0.145 -0.544,0.289 -0.813,0.438 -0.414,0.228 -0.81,0.483 -1.219,0.719 -0.52,0.3 -1.051,0.594 -1.563,0.906 -0.738,0.452 -1.467,0.898 -2.188,1.375 -0.031,0.021 -0.062,0.042 -0.094,0.063 -0.456,0.303 -0.895,0.625 -1.344,0.938 -0.123,0.086 -0.252,0.163 -0.375,0.25 -0.524,0.37 -1.049,0.742 -1.563,1.125 -1.835,1.371 -3.618,2.84 -5.313,4.375 -0.017,0.015 -0.046,0.016 -0.063,0.031 -0.526,0.477 -1.02,0.977 -1.531,1.469 -0.524,0.505 -1.054,1.011 -1.563,1.531 -0.512,0.523 -1,1.055 -1.5,1.594 -0.941,1.022 -1.837,2.05 -2.719,3.125 -0.631,0.769 -1.244,1.58 -1.844,2.375 -0.111,0.148 -0.233,0.289 -0.344,0.438 -0.526,0.71 -1.031,1.427 -1.531,2.156 -0.11,0.16 -0.235,0.308 -0.344,0.469 -0.013,0.019 -0.018,0.043 -0.031,0.063 -0.084,0.125 -0.167,0.249 -0.25,0.375 -0.47,0.708 -0.929,1.431 -1.375,2.156 -0.071,0.116 -0.148,0.227 -0.219,0.344 -0.575,0.948 -1.124,1.899 -1.656,2.875 -0.152,0.278 -0.289,0.564 -0.438,0.844 -0.18,0.341 -0.356,0.687 -0.531,1.031 -0.243,0.479 -0.486,0.952 -0.719,1.438 -0.426,0.885 -0.828,1.783 -1.219,2.688 -0.24,0.556 -0.461,1.124 -0.688,1.688 -0.038,0.095 -0.087,0.186 -0.125,0.281 -0.246,0.621 -0.489,1.245 -0.719,1.875 -0.332,0.909 -0.641,1.825 -0.938,2.75 -0.11,0.345 -0.238,0.684 -0.344,1.031 -0.301,0.99 -0.585,1.992 -0.844,3 -0.008,0.032 -0.023,0.062 -0.031,0.094 -0.267,1.046 -0.497,2.092 -0.719,3.156 -0.034,0.166 -0.06,0.334 -0.094,0.5 -0.426,2.117 -0.762,4.257 -1,6.438 -0.035,0.323 -0.063,0.645 -0.094,0.969 -0.09,0.938 -0.165,1.895 -0.219,2.844 -0.017,0.29 -0.018,0.584 -0.031,0.875 -0.051,1.119 -0.094,2.243 -0.094,3.375 v 354.69 6 c 0,40.24 32.411,72.66 72.66,72.66 h 354.69 c 40.24,0 72.66,-32.411 72.66,-72.66 v -354.69 -6 c 0,-1.259 -0.031,-2.507 -0.094,-3.75 -0.016,-0.323 -0.042,-0.647 -0.063,-0.969 -0.058,-0.917 -0.127,-1.843 -0.219,-2.75 -0.02,-0.2 -0.041,-0.394 -0.063,-0.594 -0.246,-2.245 -0.587,-4.447 -1.031,-6.625 -0.021,-0.104 -0.041,-0.209 -0.063,-0.313 -0.227,-1.087 -0.476,-2.15 -0.75,-3.219 -0.011,-0.042 -0.02,-0.083 -0.031,-0.125 -0.19,-0.732 -0.413,-1.464 -0.625,-2.188 -0.212,-0.724 -0.423,-1.442 -0.656,-2.156 -0.258,-0.789 -0.529,-1.567 -0.813,-2.344 -0.23,-0.63 -0.472,-1.254 -0.719,-1.875 -0.038,-0.096 -0.087,-0.186 -0.125,-0.281 -0.239,-0.594 -0.465,-1.195 -0.719,-1.781 -0.378,-0.871 -0.777,-1.741 -1.188,-2.594 -0.233,-0.485 -0.475,-0.958 -0.719,-1.438 -0.287,-0.564 -0.574,-1.132 -0.875,-1.688 -0.051,-0.094 -0.105,-0.188 -0.156,-0.281 -0.513,-0.936 -1.041,-1.871 -1.594,-2.781 -0.212,-0.35 -0.438,-0.685 -0.656,-1.031 -0.405,-0.642 -0.795,-1.278 -1.219,-1.906 -0.809,-1.199 -1.685,-2.354 -2.563,-3.5 -0.262,-0.341 -0.514,-0.695 -0.781,-1.031 -0.189,-0.238 -0.371,-0.483 -0.563,-0.719 -0.093,-0.114 -0.188,-0.231 -0.281,-0.344 -2.71,-3.286 -5.696,-6.301 -8.938,-9.06 -0.293,-0.249 -0.578,-0.505 -0.875,-0.75 -0.268,-0.221 -0.541,-0.439 -0.813,-0.656 -0.636,-0.509 -1.284,-1.012 -1.938,-1.5 -3.17,-2.368 -6.55,-4.481 -10.09,-6.313 -0.617,-0.319 -1.248,-0.636 -1.875,-0.938 -0.155,-0.074 -0.313,-0.145 -0.469,-0.219 -0.785,-0.371 -1.575,-0.719 -2.375,-1.063 -0.488,-0.209 -0.975,-0.426 -1.469,-0.625 -0.735,-0.296 -1.472,-0.571 -2.219,-0.844 -0.392,-0.143 -0.793,-0.27 -1.188,-0.406 -0.718,-0.248 -1.459,-0.524 -2.188,-0.75 -0.114,-0.035 -0.23,-0.059 -0.344,-0.094 -0.488,-0.149 -0.977,-0.267 -1.469,-0.406 -0.357,-0.1 -0.703,-0.217 -1.063,-0.313 -0.019,-0.005 -0.043,0.005 -0.063,0 -0.837,-0.221 -1.683,-0.433 -2.531,-0.625 -0.032,-0.007 -0.062,-0.024 -0.094,-0.031 -0.651,-0.146 -1.311,-0.278 -1.969,-0.406 -1,-0.197 -2.01,-0.376 -3.03,-0.531 -0.063,-0.01 -0.125,-0.022 -0.188,-0.031 -0.952,-0.143 -1.88,-0.269 -2.844,-0.375 -0.836,-0.091 -1.687,-0.156 -2.531,-0.219 -0.176,-0.013 -0.355,-0.019 -0.531,-0.031 -0.735,-0.049 -1.478,-0.097 -2.219,-0.125 -0.92,-0.034 -1.853,-0.063 -2.781,-0.063 H 147.503 78.659"
     inkscape:connector-curvature="0"
     id="path27"
     style="fill-opacity:0.17600002;filter:url(#7)" />
  <rect
     width="500"
     height="500"
     rx="72.639999"
     x="6"
     y="12"
     id="rect29"
     style="opacity:0.15" />
  <rect
     width="500"
     height="500"
     rx="72.639999"
     x="6"
     y="6"
     id="rect31"
     style="fill:url(#8)" />
  <rect
     width="435"
     height="435"
     rx="63.200001"
     x="38.5"
     y="38.5"
     id="rect33"
     style="fill:#dba557" />
  <path
     d="M 101.69,38.5 C 66.68,38.5 38.5,66.67 38.5,101.69 v 15 C 38.5,81.68 66.67,53.5 101.69,53.5 h 308.63 c 35.01,0 63.19,28.17 63.19,63.19 v -15 C 473.51,66.68 445.34,38.5 410.32,38.5 H 101.7"
     inkscape:connector-curvature="0"
     id="path35"
     style="opacity:0.2" />
  <path
     d="M 78.66,6 C 38.42,6 6,38.411 6,78.66 v 7 C 6,45.42 38.411,13 78.66,13 h 354.69 c 40.24,0 72.66,32.411 72.66,72.66 v -7 C 506.01,38.42 473.599,6 433.35,6 H 78.66"
     inkscape:connector-curvature="0"
     id="path37"
     style="fill:#ffffff" />
  <g
     transform="translate(-1081.77,-334.14)"
     id="g39">
    <path
       d="m 1443.53,430.7 c -4.562,0.009 -9.184,0.743 -13.601,2.231 -16.372,5.516 -27.11,17.934 -30.354,35.06 -3.668,19.339 -19.05,33.596 -35.702,33.12 -3.74,-0.108 -18.831,-0.322 -33.506,-0.496 -23.603,-0.279 -27.02,-0.541 -29.823,-2.373 -4.286,-2.806 -6.376,-8.343 -6.376,-16.895 0,-8.439 -2.286,-13.439 -8.394,-18.382 -5.371,-4.347 -15.977,-5.366 -22.14,-2.125 -6.715,3.533 -10.634,9.598 -11.192,17.32 -0.665,9.197 3.03,15.65 11.759,20.578 7.208,4.068 10.704,8.467 11.511,14.486 0.69,5.143 0.124,6.258 -8.182,16.541 -7.336,9.08 -13.902,21.376 -17.568,32.869 -2.01,6.305 -2.599,11.09 -2.833,23.377 -0.359,18.801 -1.33,21.03 -11.263,25.998 -6.377,3.187 -7.406,3.355 -20.19,3.259 -12.389,-0.093 -13.999,0.118 -19.622,2.869 -8.276,4.049 -13.629,10.601 -16.541,20.19 -2.086,6.867 -2.199,8.349 -0.921,13.07 3.451,12.74 11.432,21.528 22.42,24.722 14.922,4.338 27.591,-1.419 38,-17.284 2.078,-3.166 5.902,-6.894 9.138,-8.89 5.02,-3.097 6.517,-3.436 14.841,-3.436 9.1,0 9.334,0.065 15.372,4.675 8.646,6.601 17.18,11.139 27.698,14.699 8.03,2.717 11.405,3.154 29.469,3.79 19.868,0.699 20.595,0.804 28.09,4.321 16.07,7.546 27.307,22.718 30.28,40.909 3.752,22.938 21.986,42.51 45.09,48.38 9.211,2.341 23.711,1.429 33.29,-2.054 19.516,-7.095 32.05,-20.571 37.934,-40.803 3.411,-11.735 3.398,-19.361 -0.106,-30.85 -7.02,-23 -23.551,-37.679 -48.03,-42.68 -5.859,-1.197 -13.741,-3.753 -17.532,-5.667 -12.961,-6.543 -24.358,-21.708 -26.67,-35.525 -0.522,-3.117 -0.885,-17.653 -0.815,-32.3 0.145,-30.01 0.668,-32.45 9.174,-41.865 6.075,-6.724 12.455,-10.03 25.15,-13.176 17.243,-4.27 28.357,-13.549 33.896,-28.26 3.111,-8.265 2.887,-24.19 -0.425,-31.488 -5.866,-12.922 -14.943,-21.265 -27.946,-25.714 -4.3,-1.471 -8.826,-2.205 -13.388,-2.196 m -112.53,96.8 c 12.283,0.014 14.315,0.334 20.968,3.152 18.464,7.822 32.476,25.703 35.35,45.05 4.245,28.601 -14.186,56.796 -41.759,63.896 -10.116,2.605 -23.15,2.293 -32.12,-0.779 -15.386,-5.265 -26.19,-14.27 -33.05,-27.556 -5.806,-11.256 -6.949,-16.636 -6.446,-30.14 0.395,-10.62 0.78,-12.457 4.498,-20.19 5.679,-11.811 9.901,-17.12 18.205,-22.952 12.193,-8.563 18.531,-10.502 34.36,-10.484 m 0.248,21.04 c -3.793,-0.07 -7.69,0.462 -11.582,1.594 -8.662,2.518 -19.596,12.963 -22.491,21.499 -2.39,7.05 -2.411,17.926 -0.071,24.793 2.114,6.204 10.34,15.824 16.187,18.914 5.854,3.094 14.629,2.965 19.41,-0.283 3.997,-2.717 8.581,-10.207 7.402,-12.11 -0.389,-0.63 -3.633,-1.103 -7.19,-1.063 -8.167,0.092 -11.371,-1.162 -15.761,-6.163 -7.865,-8.958 -5.314,-21.899 5.419,-27.45 5.097,-2.636 13.446,-2.136 18.206,1.098 6.774,4.603 7.792,8.233 7.792,27.733 v 17.11 h 2.656 c 3.575,0 9.775,-4.314 12.22,-8.501 1.514,-2.593 2.068,-6.486 2.302,-16.434 0.289,-12.264 0.11,-13.44 -2.94,-20.12 -5.814,-12.733 -18.01,-20.362 -31.558,-20.614"
       inkscape:connector-curvature="0"
       id="path41"
       style="opacity:0.2" />
    <path
       d="m 1428.53,415.7 c -4.562,0.009 -9.184,0.743 -13.601,2.231 -16.372,5.516 -27.11,17.934 -30.354,35.06 -3.668,19.339 -19.05,33.596 -35.702,33.12 -3.74,-0.108 -18.831,-0.322 -33.506,-0.496 -23.603,-0.279 -27.02,-0.541 -29.823,-2.373 -4.286,-2.806 -6.376,-8.343 -6.376,-16.895 0,-8.439 -2.286,-13.439 -8.394,-18.382 -5.371,-4.347 -15.977,-5.366 -22.14,-2.125 -6.715,3.533 -10.634,9.598 -11.192,17.32 -0.665,9.197 3.03,15.65 11.759,20.578 7.208,4.068 10.704,8.467 11.511,14.486 0.69,5.143 0.124,6.258 -8.182,16.541 -7.336,9.08 -13.902,21.376 -17.568,32.869 -2.01,6.305 -2.599,11.09 -2.833,23.377 -0.359,18.801 -1.33,21.03 -11.263,25.998 -6.377,3.187 -7.406,3.355 -20.19,3.259 -12.389,-0.093 -13.999,0.118 -19.622,2.869 -8.276,4.049 -13.629,10.601 -16.541,20.19 -2.086,6.867 -2.199,8.349 -0.921,13.07 3.451,12.74 11.432,21.528 22.42,24.722 14.922,4.338 27.591,-1.419 38,-17.284 2.078,-3.166 5.902,-6.894 9.138,-8.89 5.02,-3.097 6.517,-3.436 14.841,-3.436 9.1,0 9.334,0.065 15.372,4.675 8.646,6.601 17.18,11.139 27.698,14.699 8.03,2.717 11.405,3.154 29.469,3.79 19.868,0.699 20.595,0.804 28.09,4.321 16.07,7.546 27.307,22.718 30.28,40.909 3.752,22.938 21.986,42.51 45.09,48.38 9.211,2.341 23.711,1.429 33.29,-2.054 19.516,-7.095 32.05,-20.571 37.934,-40.803 3.411,-11.735 3.398,-19.361 -0.106,-30.85 -7.02,-23 -23.551,-37.679 -48.03,-42.68 -5.859,-1.197 -13.741,-3.753 -17.532,-5.667 -12.961,-6.543 -24.358,-21.708 -26.67,-35.525 -0.522,-3.117 -0.885,-17.653 -0.815,-32.3 0.145,-30.01 0.668,-32.45 9.174,-41.865 6.075,-6.724 12.455,-10.03 25.15,-13.176 17.243,-4.27 28.357,-13.549 33.896,-28.26 3.111,-8.265 2.887,-24.19 -0.425,-31.488 -5.866,-12.922 -14.943,-21.265 -27.946,-25.714 -4.3,-1.471 -8.826,-2.205 -13.388,-2.196 m -112.53,96.8 c 12.283,0.014 14.315,0.334 20.968,3.152 18.464,7.822 32.476,25.703 35.35,45.05 4.245,28.601 -14.186,56.796 -41.759,63.896 -10.116,2.605 -23.15,2.293 -32.12,-0.779 -15.386,-5.265 -26.19,-14.27 -33.05,-27.556 -5.806,-11.256 -6.949,-16.636 -6.446,-30.14 0.395,-10.62 0.78,-12.457 4.498,-20.19 5.679,-11.811 9.901,-17.12 18.205,-22.952 12.193,-8.563 18.531,-10.502 34.36,-10.484 m 0.248,21.04 c -3.793,-0.07 -7.69,0.462 -11.582,1.594 -8.662,2.518 -19.596,12.963 -22.491,21.499 -2.39,7.05 -2.411,17.926 -0.071,24.793 2.114,6.204 10.34,15.824 16.187,18.914 5.854,3.094 14.629,2.965 19.41,-0.283 3.997,-2.717 8.581,-10.207 7.402,-12.11 -0.389,-0.63 -3.633,-1.103 -7.19,-1.063 -8.167,0.092 -11.371,-1.162 -15.761,-6.163 -7.865,-8.958 -5.314,-21.899 5.419,-27.45 5.097,-2.636 13.446,-2.136 18.206,1.098 6.774,4.603 7.792,8.233 7.792,27.733 v 17.11 h 2.656 c 3.575,0 9.775,-4.314 12.22,-8.501 1.514,-2.593 2.068,-6.486 2.302,-16.434 0.289,-12.264 0.11,-13.44 -2.94,-20.12 -5.814,-12.733 -18.01,-20.362 -31.558,-20.614"
       inkscape:connector-curvature="0"
       id="path43"
       style="fill:#dcdbdb" />
  </g>
  <path
     d="M 78.66,6 C 63.797,6 49.99,10.43 38.5,18.03 V 493.97 C 49.986,501.572 63.793,506 78.66,506 h 68.844 V 6 H 78.66"
     inkscape:connector-curvature="0"
     id="path45"
     style="opacity:0.05;fill:url(#1)" />
  <path
     d="m 147.5,6 v 500 h 109 V 6 h -109"
     inkscape:connector-curvature="0"
     id="path47"
     style="opacity:0.05;fill:url(#2)" />
  <path
     d="m 256.5,6 v 500 h 109 V 6 h -109"
     inkscape:connector-curvature="0"
     id="path49"
     style="opacity:0.05;fill:url(#3)" />
  <path
     d="m 365.5,6 v 500 h 67.844 c 14.854,0 28.643,-4.438 40.13,-12.03 V 18.03 C 461.992,10.437 448.204,6 433.354,6 H 365.51"
     inkscape:connector-curvature="0"
     id="path51"
     style="opacity:0.05;fill:url(#4)" />
  <path
     d="M 38.5,18.03 C 18.886,31.011 6,53.27 6,78.66 v 354.69 c 0,25.381 12.886,47.644 32.5,60.63 V 18.04"
     inkscape:connector-curvature="0"
     id="path53"
     style="opacity:0.05;fill:url(#6)" />
  <path
     d="m 473.47,18.03 v 475.94 c 19.627,-12.979 32.531,-35.23 32.531,-60.62 V 78.66 c 0,-25.391 -12.905,-47.646 -32.531,-60.62"
     inkscape:connector-curvature="0"
     id="path55"
     style="opacity:0.05;fill:url(#5)" />
</svg>
