<svg xmlns="http://www.w3.org/2000/svg" xmlns:xlink="http://www.w3.org/1999/xlink" viewBox="0 0 512 512"><defs><filter id="7"><feGaussianBlur stdDeviation="3.7725"/></filter><linearGradient id="8" y1="19.564" x2="0" y2="504.02" gradientUnits="userSpaceOnUse"><stop stop-color="#f3f3f3"/><stop offset=".5" stop-color="#eee"/><stop offset="1" stop-color="#ebebeb"/></linearGradient><linearGradient xlink:href="#0" id="5" gradientUnits="userSpaceOnUse" gradientTransform="matrix(1.02835 0 0 1.46193 209.19-118.25)" x1="257" x2="362"/><linearGradient xlink:href="#0" id="6" gradientUnits="userSpaceOnUse" gradientTransform="matrix(1.0381 0 0 1.46193-337.29-118.25)" x1="257" x2="362"/><linearGradient xlink:href="#0" id="4" gradientUnits="userSpaceOnUse" gradientTransform="matrix(1.02835 0 0 1.46193 101.22-118.25)" x1="257" x2="362"/><linearGradient xlink:href="#0" id="3" gradientUnits="userSpaceOnUse" gradientTransform="matrix(1.0381 0 0 1.46193-10.289-118.25)" x1="257" x2="362"/><linearGradient id="0"><stop/><stop offset="1" stop-color="#fff"/></linearGradient><linearGradient xlink:href="#0" id="2" gradientUnits="userSpaceOnUse" gradientTransform="matrix(1.0381 0 0 1.46193-119.29-118.25)" x1="257" x2="362"/><linearGradient xlink:href="#0" id="1" gradientUnits="userSpaceOnUse" gradientTransform="matrix(1.0381 0 0 1.46193-228.29-118.25)" x1="257" x2="362"/></defs><path d="m78.66 6c-.929 0-1.861.028-2.781.063-.073.003-.146-.003-.219 0-.668.027-1.337.08-2 .125-.376.025-.751.063-1.125.094-.645.053-1.297.086-1.938.156-.965.106-1.922.232-2.875.375-.052.008-.104.023-.156.031-1.082.165-2.154.351-3.219.563-.459.091-.919.182-1.375.281-.39.085-.769.19-1.156.281-.647.152-1.297.299-1.938.469-.898.238-1.804.479-2.688.75-.211.065-.414.152-.625.219-.991.314-1.966.645-2.938 1-.817.298-1.635.611-2.438.938-.29.118-.587.222-.875.344-.136.057-.27.129-.406.188-.082.035-.169.058-.25.094-.717.311-1.42.636-2.125.969-.147.069-.291.148-.438.219-.947.455-1.889.943-2.813 1.438-.271.145-.544.289-.813.438-.414.228-.81.483-1.219.719-.52.3-1.051.594-1.563.906-.738.452-1.467.898-2.188 1.375-.031.021-.062.042-.094.063-.456.303-.895.625-1.344.938-.123.086-.252.163-.375.25-.524.37-1.049.742-1.563 1.125-1.835 1.371-3.618 2.84-5.313 4.375-.017.015-.046.016-.063.031-.526.477-1.02.977-1.531 1.469-.524.505-1.054 1.011-1.563 1.531-.512.523-1 1.055-1.5 1.594-.941 1.022-1.837 2.05-2.719 3.125-.631.769-1.244 1.58-1.844 2.375-.111.148-.233.289-.344.438-.526.71-1.031 1.427-1.531 2.156-.11.16-.235.308-.344.469-.013.019-.018.043-.031.063-.084.125-.167.249-.25.375-.47.708-.929 1.431-1.375 2.156-.071.116-.148.227-.219.344-.575.948-1.124 1.899-1.656 2.875-.152.278-.289.564-.438.844-.18.341-.356.687-.531 1.031-.243.479-.486.952-.719 1.438-.426.885-.828 1.783-1.219 2.688-.24.556-.461 1.124-.688 1.688-.038.095-.087.186-.125.281-.246.621-.489 1.245-.719 1.875-.332.909-.641 1.825-.938 2.75-.11.345-.238.684-.344 1.031-.301.99-.585 1.992-.844 3-.008.032-.023.062-.031.094-.267 1.046-.497 2.092-.719 3.156-.034.166-.06.334-.094.5-.426 2.117-.762 4.257-1 6.438-.035.323-.063.645-.094.969-.09.938-.165 1.895-.219 2.844-.017.29-.018.584-.031.875-.051 1.119-.094 2.243-.094 3.375v354.69 6c0 40.24 32.411 72.66 72.66 72.66h354.69c40.24 0 72.66-32.411 72.66-72.66v-354.69-6c0-1.259-.031-2.507-.094-3.75-.016-.323-.042-.647-.063-.969-.058-.917-.127-1.843-.219-2.75-.02-.2-.041-.394-.063-.594-.246-2.245-.587-4.447-1.031-6.625-.021-.104-.041-.209-.063-.313-.227-1.087-.476-2.15-.75-3.219-.011-.042-.02-.083-.031-.125-.19-.732-.413-1.464-.625-2.188-.212-.724-.423-1.442-.656-2.156-.258-.789-.529-1.567-.813-2.344-.23-.63-.472-1.254-.719-1.875-.038-.096-.087-.186-.125-.281-.239-.594-.465-1.195-.719-1.781-.378-.871-.777-1.741-1.188-2.594-.233-.485-.475-.958-.719-1.438-.287-.564-.574-1.132-.875-1.688-.051-.094-.105-.188-.156-.281-.513-.936-1.041-1.871-1.594-2.781-.212-.35-.438-.685-.656-1.031-.405-.642-.795-1.278-1.219-1.906-.809-1.199-1.685-2.354-2.563-3.5-.262-.341-.514-.695-.781-1.031-.189-.238-.371-.483-.563-.719-.093-.114-.188-.231-.281-.344-2.71-3.286-5.696-6.301-8.938-9.06-.293-.249-.578-.505-.875-.75-.268-.221-.541-.439-.813-.656-.636-.509-1.284-1.012-1.938-1.5-3.17-2.368-6.55-4.481-10.09-6.313-.617-.319-1.248-.636-1.875-.938-.155-.074-.313-.145-.469-.219-.785-.371-1.575-.719-2.375-1.063-.488-.209-.975-.426-1.469-.625-.735-.296-1.472-.571-2.219-.844-.392-.143-.793-.27-1.188-.406-.718-.248-1.459-.524-2.188-.75-.114-.035-.23-.059-.344-.094-.488-.149-.977-.267-1.469-.406-.357-.1-.703-.217-1.063-.313-.019-.005-.043.005-.063 0-.837-.221-1.683-.433-2.531-.625-.032-.007-.062-.024-.094-.031-.651-.146-1.311-.278-1.969-.406-1-.197-2.01-.376-3.03-.531-.063-.01-.125-.022-.188-.031-.952-.143-1.88-.269-2.844-.375-.836-.091-1.687-.156-2.531-.219-.176-.013-.355-.019-.531-.031-.735-.049-1.478-.097-2.219-.125-.92-.034-1.853-.063-2.781-.063h-285.84-68.844" filter="url(#7)" fill-opacity=".176"/><rect width="500" height="500" x="6" y="12" rx="72.64" opacity=".15"/><rect rx="72.64" y="6" x="6" height="500" width="500" fill="url(#8)"/><rect width="435" height="435" x="38.5" y="38.5" rx="63.2" fill="#56a8d6"/><path d="m101.69 38.5c-35.01 0-63.19 28.17-63.19 63.19v15c0-35.01 28.17-63.19 63.19-63.19h308.63c35.01 0 63.19 28.17 63.19 63.19v-15c0-35.01-28.17-63.19-63.19-63.19h-308.62" opacity=".2"/><g fill="#fff"><path d="m78.66 6c-40.24 0-72.66 32.411-72.66 72.66v7c0-40.24 32.411-72.66 72.66-72.66h354.69c40.24 0 72.66 32.411 72.66 72.66v-7c0-40.24-32.411-72.66-72.66-72.66h-354.69"/><path d="m270.53 39.656c-2.069.022-3.961.214-5.375.531h-75.12c9.272 11.812.64 31.54 14.625 31.344 6.81 9.134-13.591 2.71 1.125 9.75 8.463 6.323-8.918 9.951 1.563 15.625-12.08 5.913 1.966 30.927 10.938 37.19 14.767 11.793 6.523-24.963 23-26.875 8.953-9.697 24.645-15.933 35.813-25.688-10.914-.841-17.274-7.289-6.938-11.281 19.02 18.493 4.78-8.748-5.75-13.06 10.189-3.075 20.1-.836 18.688-8.813 8.749-6.072-3.598-8.814-12.563-8.719m-172.37 9.313c-7.936 11.805 1.148 21.274 7.75 6.875 4.673-6.01-3.468-6.655-7.75-6.875m19.813 2.656c-15.333 6.742-3.786 22.472-3.406 25.969 16.15 5.301 25.11-3.453 31.22 11.531 14.559 7.96 1.284 21.458-5.063 26.09 10.614-5.949 29.2 23.529 24.13 7.188-6.247-4.327 16.818 6.939 4.875-7.125-10.991-16.8.866-7.515 5.5-3.594 15.761-13.408-17.823-15.05-9.438-28.844-7.348-5.646-16.988-22.75-30-19.406-8.711 10.687-1.22-23.282-14-6.281-.662 9.503-.244 21.558-3.969 5.094-2.495-2.882 4.296-9.581.156-10.625m22.75 63.59c-.342.192-.675.419-1 .688.304-.2.647-.43 1-.688m-54-63.47c-10.292 3.255-9.749 16.461 2.906 17.875 4.335-4.687 1.732-16.987-2.906-17.875m-21.438 4.844c-3.778.662 1.415 19.978-5.531 2.781-1.386 2.922-4.255 3.209-6.969 2.25-3.531 4.31-6.512 9.09-8.813 14.25 6.447 1.309 15.184 2.287 3.219 3.719-17.311 6.559 16.644 14.277 22.22 6.5 21.377 4.96.783-16.23-1.094-27.719-1.133-1.153-1.979-1.693-2.625-1.781-.141-.019-.284-.021-.406 0m31.469 10.844c-12.891 11.493 16.369 20.97-3.719 29.531-3.01-10.673-8.164 5.338-19.656-3.281-14.156 5.592-23.396 1.088-33.563-4.906-.86 4.17-1.313 8.474-1.313 12.906v130.91c.106.052.205.105.313.156 3.582 6.304 18.619 33.16 19.313 25.13-7.536-7.487-15.283-29.944-2.531-9.938 11.422 19.02 26.835 31.35 49.34 35.875 12.306 3.971 22.397 17.628 33.22 14.625 6.119 15.304-18.14 30.01.813 44.28 9.893 14.451 26.554 23.931 17.563 44.22-6.288 19.814-3.624 41.38-9.06 59.844-1.688 11.237 16.514 39.776 14.938 16.938 5.313-15.871 5.174-33.32 17.688-44.563 17.12.129 3.255-17.486 20.25-15.188 10.371-12.896 13.374-28.29 30.875-33.406 2.091-15.654 29.09-39.624 1.188-45.719-7.583-3.546-27.12-4.813-25.625-6.563 3.02-15.533-25.22-19.958-37.25-26.313-15.794-10.635-39.498 17.669-45.06-6.719-3.32-7.673-15.485-7.785-9.906-19.625-10.05 9.487-29.711 6.602-24.563-11.719 7.819-15.43 37.852-16.184 42.969 2.375-7.104-20.469 13.745-36.406 25.313-50.969 2.355-6.96 16.316-12.938 11.5-3.688 8.205-.281 20.638-14.327 6.06-7.844-.206-12.81-12.739-9.163-16.813-7.344 7.551-11.369 46.3-5.135 30.06-23.719-12.583-4.837-11.523-33.07-24.25-17.344 1.071-9.688-25.901-28.653-25.313-12.406 3.293 14.538.601 31.28-6.406 40.813-1.462-21.302-39.767-16.612-34.844-39.31 7.133-10.819 15.487-25.752 16.281-24.406 12.784-4.63 23.07-18.11 8.25-26.969-.792 7.717-11.145 23.632-9.688 4.375-9.585 10.781-7.398-17.13-16.375-20.03m306.84 7.094c-.421.022-.708.155-.875.375-22.453 5.211-31.393 25.555-42.5 42.41-16.373 7-15.729 37.07 2.563 27.469 4.896 8.112-3.448 20.888 10.813 10.281 11.502-14.44 2.051-37.801 21.625-46.906 1.426 7.08-18.07 33.533 4.688 29.19 20.574.736-14.944 1.938-4.938 14.406-10.397-5.852-4.992 15.988-18.563 10.906-11.757 6.067-19.506-2.83-16.813-12.563-9.249 5.119 2.93 19.57-13.12 20.438-3.596 12.12-33.19 10.288-16.375 22.625 7.467 18.36-27.831 1.155-17.813 23.19 8.572 21.786 26.524-7.209 33.813-12.813 13.622-10.02 33.643 15.922 23.375 18.5 12.928-2.316 9.877-14.582-1.188-19.406-6.14-15.11 19.418 7.426 18 15 9.02 16.03 5.317-16.426 14.5-2.063-1.072 15.15 36.961 3.564 18.813 22.875-15.603 2.982-31-3.791-44.44.563-12.503-.105-11.823-12.795-16.375-15.969-15.904 1.226-35.603 1.092-46.25 13.281-11.514 14.986-28.11 35.927-15.563 55.06 12.558 28.357 43.724 1.472 61.63 18.219 5.321 6.983-4.647 15.28 7.25 22.844 4.477 16.11-5.058 31.411 5.938 46.813 5.685 14.485 9.214 36.17 30.375 22.938 22.396-12.786 16.458-36.35 34.938-49.41-14.622-26.847 17.888-38.612 26-60.41-17.722 2.461-33.531-14.316-37.813-31.19-7.445-8.195-5.504-20.27 2.813-4.875 11.431 10.508 11.668 41.665 32.813 25.625 3.164-1.255 8.095-3.684 12.594-6.594v-17.344c-12.791 3.919-24.946-27.739-6.219-7.469 2.179.877 4.256 1.674 6.219 2.375v-151.22c0-3.337-.256-6.586-.75-9.781-1.013-.27-1.958-.745-2.781-1.5-10.06 1.329-23.349 19.92-20.19 1.969-8.745-.55-1.549 16.1-13.563 16.563-1.21 8.557-12.1 1.561-8 9.688-8.432-5.674-15.614-23.589 1-12.344 24.673-7.02-16.277-22.859-19.438-26.688 4.649-1.057-3.24-5.219-6.188-5.063m-204.56 5.063c-8.212 6.492 15.613 7.714 0 0m-109.66 3.5c-9.185 9.115 14.628 8.379 0 0m53.22 9.03c-6.956 10.81 10.277 3.991 0 0m152.31 12.781c-8.143 8.894-18.887-2.332-19.06 5.313 1.476 2.31 7.362 18.791 20.313 6.625 6.951-2.78 4.235-9.792-1.25-11.938m-173.37 5.313c-15.446 12.797 26.24 13.977 3.281 1.469l-3.281-1.469m203.56 35.563c-10.717 6.931 5.511 21.398-.031 28.22-6.968 11.518 25.896-.811 8.344-10-1.203-7.594-9.616-16.795-8.313-18.219m-7.313 13.75c-15.494 4.156-3.55 25.614 1.938 5.406.308-1.172.76-5.445-1.938-5.406m-124.06 15.531c-14.414 9.324-2.251 18.633 8.313 14.438-2.169-5.626-8.215-9.172-8.313-14.438m272.25 15.688c7.192 3.443-13.15 9.315-.25 15.375 7.507 8.375 4.639 26.349-7.563 13.625 2.267-14.206-16.533-24.801 7.813-29m-36.938.125c-.976 9.127 20.738 23.286-2.688 18.656-12.389 1.379-30.982-.355-15.375-15 4.932-2.809 17.926 9.714 11.188-1.969 2.389-.144 4.625-1 6.875-1.688m-71.56 19.75c-9.04 5.523 6.248 9.758 0 0m-226.91 51.47c-1.523 4.822 28.553 9.725 7.781 2l-3.063-1.031-4.719-.969m23.344 6.875c-9.13 8.794 18.812 2.627 0 0m305.38 80.66c-19.839.485-17.205 49.04-3.375 20.313 1.312-6.234 6.571-14.467 3.375-20.313" opacity=".47"/></g><path d="m78.66 6c-14.863 0-28.67 4.43-40.16 12.03v475.94c11.486 7.602 25.293 12.03 40.16 12.03h68.844v-500h-68.844" opacity=".05" fill="url(#1)"/><path d="m147.5 6v500h109v-500h-109" opacity=".05" fill="url(#2)"/><path d="m256.5 6v500h109v-500h-109" opacity=".05" fill="url(#3)"/><path d="m365.5 6v500h67.844c14.854 0 28.643-4.438 40.13-12.03v-475.94c-11.482-7.593-25.27-12.03-40.12-12.03h-67.844" opacity=".05" fill="url(#4)"/><path d="m38.5 18.03c-19.614 12.981-32.5 35.24-32.5 60.63v354.69c0 25.381 12.886 47.644 32.5 60.63v-475.94" opacity=".05" fill="url(#6)"/><path d="m473.47 18.03v475.94c19.627-12.979 32.531-35.23 32.531-60.62v-354.69c0-25.391-12.905-47.646-32.531-60.62" opacity=".05" fill="url(#5)"/></svg>