<?xml version="1.0" encoding="UTF-8" standalone="no"?>
<!-- Created with Inkscape (http://www.inkscape.org/) -->

<svg
   xmlns:dc="http://purl.org/dc/elements/1.1/"
   xmlns:cc="http://creativecommons.org/ns#"
   xmlns:rdf="http://www.w3.org/1999/02/22-rdf-syntax-ns#"
   xmlns:svg="http://www.w3.org/2000/svg"
   xmlns="http://www.w3.org/2000/svg"
   xmlns:xlink="http://www.w3.org/1999/xlink"
   xmlns:inkscape="http://www.inkscape.org/namespaces/inkscape"
   version="1.1"
   width="100%"
   height="100%"
   viewBox="0 0 512 512"
   id="svg2">
  <metadata
     id="metadata57">
    <rdf:RDF>
      <cc:Work
         rdf:about="">
        <dc:format>image/svg+xml</dc:format>
        <dc:type
           rdf:resource="http://purl.org/dc/dcmitype/StillImage" />
      </cc:Work>
    </rdf:RDF>
  </metadata>
  <defs
     id="defs4">
    <filter
       color-interpolation-filters="sRGB"
       id="7">
      <feGaussianBlur
         id="feGaussianBlur7"
         stdDeviation="3.7725" />
    </filter>
    <linearGradient
       y1="19.563999"
       x2="0"
       y2="504.01999"
       id="8"
       gradientUnits="userSpaceOnUse">
      <stop
         id="stop10"
         style="stop-color:#f3f3f3;stop-opacity:1"
         offset="0" />
      <stop
         id="stop12"
         style="stop-color:#eeeeee;stop-opacity:1"
         offset="0.5" />
      <stop
         id="stop14"
         style="stop-color:#ebebeb;stop-opacity:1"
         offset="1" />
    </linearGradient>
    <linearGradient
       x1="257"
       x2="362"
       id="5"
       xlink:href="#0"
       gradientUnits="userSpaceOnUse"
       gradientTransform="matrix(1.02835,0,0,1.46193,209.19,-118.25)" />
    <linearGradient
       x1="257"
       x2="362"
       id="6"
       xlink:href="#0"
       gradientUnits="userSpaceOnUse"
       gradientTransform="matrix(1.0381,0,0,1.46193,-337.29,-118.25)" />
    <linearGradient
       x1="257"
       x2="362"
       id="4"
       xlink:href="#0"
       gradientUnits="userSpaceOnUse"
       gradientTransform="matrix(1.02835,0,0,1.46193,101.22,-118.25)" />
    <linearGradient
       x1="257"
       x2="362"
       id="3"
       xlink:href="#0"
       gradientUnits="userSpaceOnUse"
       gradientTransform="matrix(1.0381,0,0,1.46193,-10.289,-118.25)" />
    <linearGradient
       id="0">
      <stop
         id="stop21"
         style="stop-color:#000000;stop-opacity:1"
         offset="0" />
      <stop
         id="stop23"
         style="stop-color:#ffffff;stop-opacity:1"
         offset="1" />
    </linearGradient>
    <linearGradient
       x1="257"
       x2="362"
       id="2"
       xlink:href="#0"
       gradientUnits="userSpaceOnUse"
       gradientTransform="matrix(1.0381,0,0,1.46193,-119.29,-118.25)" />
    <linearGradient
       x1="257"
       x2="362"
       id="1"
       xlink:href="#0"
       gradientUnits="userSpaceOnUse"
       gradientTransform="matrix(1.0381,0,0,1.46193,-228.29,-118.25)" />
  </defs>
  <path
     d="m 78.66,6 c -0.929,0 -1.861,0.028 -2.781,0.063 -0.073,0.003 -0.146,-0.003 -0.219,0 -0.668,0.027 -1.337,0.08 -2,0.125 -0.376,0.025 -0.751,0.063 -1.125,0.094 -0.645,0.053 -1.297,0.086 -1.938,0.156 -0.965,0.106 -1.922,0.232 -2.875,0.375 -0.052,0.008 -0.104,0.023 -0.156,0.031 -1.082,0.165 -2.154,0.351 -3.219,0.563 -0.459,0.091 -0.919,0.182 -1.375,0.281 -0.39,0.085 -0.769,0.19 -1.156,0.281 -0.647,0.152 -1.297,0.299 -1.938,0.469 -0.898,0.238 -1.804,0.479 -2.688,0.75 -0.211,0.065 -0.414,0.152 -0.625,0.219 -0.991,0.314 -1.966,0.645 -2.938,1 -0.817,0.298 -1.635,0.611 -2.438,0.938 -0.29,0.118 -0.587,0.222 -0.875,0.344 -0.136,0.057 -0.27,0.129 -0.406,0.188 -0.082,0.035 -0.169,0.058 -0.25,0.094 -0.717,0.311 -1.42,0.636 -2.125,0.969 -0.147,0.069 -0.291,0.148 -0.438,0.219 -0.947,0.455 -1.889,0.943 -2.813,1.438 -0.271,0.145 -0.544,0.289 -0.813,0.438 -0.414,0.228 -0.81,0.483 -1.219,0.719 -0.52,0.3 -1.051,0.594 -1.563,0.906 -0.738,0.452 -1.467,0.898 -2.188,1.375 -0.031,0.021 -0.062,0.042 -0.094,0.063 -0.456,0.303 -0.895,0.625 -1.344,0.938 -0.123,0.086 -0.252,0.163 -0.375,0.25 -0.524,0.37 -1.049,0.742 -1.563,1.125 -1.835,1.371 -3.618,2.84 -5.313,4.375 -0.017,0.015 -0.046,0.016 -0.063,0.031 -0.526,0.477 -1.02,0.977 -1.531,1.469 -0.524,0.505 -1.054,1.011 -1.563,1.531 -0.512,0.523 -1,1.055 -1.5,1.594 -0.941,1.022 -1.837,2.05 -2.719,3.125 -0.631,0.769 -1.244,1.58 -1.844,2.375 -0.111,0.148 -0.233,0.289 -0.344,0.438 -0.526,0.71 -1.031,1.427 -1.531,2.156 -0.11,0.16 -0.235,0.308 -0.344,0.469 -0.013,0.019 -0.018,0.043 -0.031,0.063 -0.084,0.125 -0.167,0.249 -0.25,0.375 -0.47,0.708 -0.929,1.431 -1.375,2.156 -0.071,0.116 -0.148,0.227 -0.219,0.344 -0.575,0.948 -1.124,1.899 -1.656,2.875 -0.152,0.278 -0.289,0.564 -0.438,0.844 -0.18,0.341 -0.356,0.687 -0.531,1.031 -0.243,0.479 -0.486,0.952 -0.719,1.438 -0.426,0.885 -0.828,1.783 -1.219,2.688 -0.24,0.556 -0.461,1.124 -0.688,1.688 -0.038,0.095 -0.087,0.186 -0.125,0.281 -0.246,0.621 -0.489,1.245 -0.719,1.875 -0.332,0.909 -0.641,1.825 -0.938,2.75 -0.11,0.345 -0.238,0.684 -0.344,1.031 -0.301,0.99 -0.585,1.992 -0.844,3 -0.008,0.032 -0.023,0.062 -0.031,0.094 -0.267,1.046 -0.497,2.092 -0.719,3.156 -0.034,0.166 -0.06,0.334 -0.094,0.5 -0.426,2.117 -0.762,4.257 -1,6.438 -0.035,0.323 -0.063,0.645 -0.094,0.969 -0.09,0.938 -0.165,1.895 -0.219,2.844 -0.017,0.29 -0.018,0.584 -0.031,0.875 -0.051,1.119 -0.094,2.243 -0.094,3.375 v 354.69 6 c 0,40.24 32.411,72.66 72.66,72.66 h 354.69 c 40.24,0 72.66,-32.411 72.66,-72.66 v -354.69 -6 c 0,-1.259 -0.031,-2.507 -0.094,-3.75 -0.016,-0.323 -0.042,-0.647 -0.063,-0.969 -0.058,-0.917 -0.127,-1.843 -0.219,-2.75 -0.02,-0.2 -0.041,-0.394 -0.063,-0.594 -0.246,-2.245 -0.587,-4.447 -1.031,-6.625 -0.021,-0.104 -0.041,-0.209 -0.063,-0.313 -0.227,-1.087 -0.476,-2.15 -0.75,-3.219 -0.011,-0.042 -0.02,-0.083 -0.031,-0.125 -0.19,-0.732 -0.413,-1.464 -0.625,-2.188 -0.212,-0.724 -0.423,-1.442 -0.656,-2.156 -0.258,-0.789 -0.529,-1.567 -0.813,-2.344 -0.23,-0.63 -0.472,-1.254 -0.719,-1.875 -0.038,-0.096 -0.087,-0.186 -0.125,-0.281 -0.239,-0.594 -0.465,-1.195 -0.719,-1.781 -0.378,-0.871 -0.777,-1.741 -1.188,-2.594 -0.233,-0.485 -0.475,-0.958 -0.719,-1.438 -0.287,-0.564 -0.574,-1.132 -0.875,-1.688 -0.051,-0.094 -0.105,-0.188 -0.156,-0.281 -0.513,-0.936 -1.041,-1.871 -1.594,-2.781 -0.212,-0.35 -0.438,-0.685 -0.656,-1.031 -0.405,-0.642 -0.795,-1.278 -1.219,-1.906 -0.809,-1.199 -1.685,-2.354 -2.563,-3.5 -0.262,-0.341 -0.514,-0.695 -0.781,-1.031 -0.189,-0.238 -0.371,-0.483 -0.563,-0.719 -0.093,-0.114 -0.188,-0.231 -0.281,-0.344 -2.71,-3.286 -5.696,-6.301 -8.938,-9.06 -0.293,-0.249 -0.578,-0.505 -0.875,-0.75 -0.268,-0.221 -0.541,-0.439 -0.813,-0.656 -0.636,-0.509 -1.284,-1.012 -1.938,-1.5 -3.17,-2.368 -6.55,-4.481 -10.09,-6.313 -0.617,-0.319 -1.248,-0.636 -1.875,-0.938 -0.155,-0.074 -0.313,-0.145 -0.469,-0.219 -0.785,-0.371 -1.575,-0.719 -2.375,-1.063 -0.488,-0.209 -0.975,-0.426 -1.469,-0.625 -0.735,-0.296 -1.472,-0.571 -2.219,-0.844 -0.392,-0.143 -0.793,-0.27 -1.188,-0.406 -0.718,-0.248 -1.459,-0.524 -2.188,-0.75 -0.114,-0.035 -0.23,-0.059 -0.344,-0.094 -0.488,-0.149 -0.977,-0.267 -1.469,-0.406 -0.357,-0.1 -0.703,-0.217 -1.063,-0.313 -0.019,-0.005 -0.043,0.005 -0.063,0 -0.837,-0.221 -1.683,-0.433 -2.531,-0.625 -0.032,-0.007 -0.062,-0.024 -0.094,-0.031 -0.651,-0.146 -1.311,-0.278 -1.969,-0.406 -1,-0.197 -2.01,-0.376 -3.03,-0.531 -0.063,-0.01 -0.125,-0.022 -0.188,-0.031 -0.952,-0.143 -1.88,-0.269 -2.844,-0.375 -0.836,-0.091 -1.687,-0.156 -2.531,-0.219 -0.176,-0.013 -0.355,-0.019 -0.531,-0.031 -0.735,-0.049 -1.478,-0.097 -2.219,-0.125 -0.92,-0.034 -1.853,-0.063 -2.781,-0.063 H 147.503 78.659"
     inkscape:connector-curvature="0"
     id="path27"
     style="fill-opacity:0.17600002;filter:url(#7)" />
  <rect
     width="500"
     height="500"
     rx="72.639999"
     x="6"
     y="12"
     id="rect29"
     style="opacity:0.15" />
  <rect
     width="500"
     height="500"
     rx="72.639999"
     x="6"
     y="6"
     id="rect31"
     style="fill:url(#8)" />
  <rect
     width="435"
     height="435"
     rx="63.200001"
     x="38.5"
     y="38.5"
     id="rect33"
     style="fill:#56a8d6" />
  <path
     d="M 101.69,38.5 C 66.68,38.5 38.5,66.67 38.5,101.69 v 15 C 38.5,81.68 66.67,53.5 101.69,53.5 h 308.63 c 35.01,0 63.19,28.17 63.19,63.19 v -15 C 473.51,66.68 445.34,38.5 410.32,38.5 H 101.7"
     inkscape:connector-curvature="0"
     id="path35"
     style="opacity:0.2" />
  <g
     id="g37"
     style="fill:#ffffff">
    <path
       d="M 78.66,6 C 38.42,6 6,38.411 6,78.66 v 7 C 6,45.42 38.411,13 78.66,13 h 354.69 c 40.24,0 72.66,32.411 72.66,72.66 v -7 C 506.01,38.42 473.599,6 433.35,6 H 78.66"
       inkscape:connector-curvature="0"
       id="path39" />
    <path
       d="m 270.53,39.656 c -2.069,0.022 -3.961,0.214 -5.375,0.531 h -75.12 c 9.272,11.812 0.64,31.54 14.625,31.344 6.81,9.134 -13.591,2.71 1.125,9.75 8.463,6.323 -8.918,9.951 1.563,15.625 -12.08,5.913 1.966,30.927 10.938,37.19 14.767,11.793 6.523,-24.963 23,-26.875 8.953,-9.697 24.645,-15.933 35.813,-25.688 -10.914,-0.841 -17.274,-7.289 -6.938,-11.281 19.02,18.493 4.78,-8.748 -5.75,-13.06 10.189,-3.075 20.1,-0.836 18.688,-8.813 8.749,-6.072 -3.598,-8.814 -12.563,-8.719 m -172.37,9.313 c -7.936,11.805 1.148,21.274 7.75,6.875 4.673,-6.01 -3.468,-6.655 -7.75,-6.875 m 19.813,2.656 c -15.333,6.742 -3.786,22.472 -3.406,25.969 16.15,5.301 25.11,-3.453 31.22,11.531 14.559,7.96 1.284,21.458 -5.063,26.09 10.614,-5.949 29.2,23.529 24.13,7.188 -6.247,-4.327 16.818,6.939 4.875,-7.125 -10.991,-16.8 0.866,-7.515 5.5,-3.594 15.761,-13.408 -17.823,-15.05 -9.438,-28.844 -7.348,-5.646 -16.988,-22.75 -30,-19.406 -8.711,10.687 -1.22,-23.282 -14,-6.281 -0.662,9.503 -0.244,21.558 -3.969,5.094 -2.495,-2.882 4.296,-9.581 0.156,-10.625 m 22.75,63.59 c -0.342,0.192 -0.675,0.419 -1,0.688 0.304,-0.2 0.647,-0.43 1,-0.688 m -54,-63.47 C 76.442,55.001 76.985,68.207 89.64,69.621 93.975,64.934 91.372,52.634 86.734,51.746 M 65.296,56.59 c -3.778,0.662 1.415,19.978 -5.531,2.781 -1.386,2.922 -4.255,3.209 -6.969,2.25 -3.531,4.31 -6.512,9.09 -8.813,14.25 6.447,1.309 15.184,2.287 3.219,3.719 -17.311,6.559 16.644,14.277 22.22,6.5 21.377,4.96 0.783,-16.23 -1.094,-27.719 -1.133,-1.153 -1.979,-1.693 -2.625,-1.781 -0.141,-0.019 -0.284,-0.021 -0.406,0 m 31.469,10.844 c -12.891,11.493 16.369,20.97 -3.719,29.531 -3.01,-10.673 -8.164,5.338 -19.656,-3.281 -14.156,5.592 -23.396,1.088 -33.563,-4.906 -0.86,4.17 -1.313,8.474 -1.313,12.906 v 130.91 c 0.106,0.052 0.205,0.105 0.313,0.156 3.582,6.304 18.619,33.16 19.313,25.13 -7.536,-7.487 -15.283,-29.944 -2.531,-9.938 11.422,19.02 26.835,31.35 49.34,35.875 12.306,3.971 22.397,17.628 33.22,14.625 6.119,15.304 -18.14,30.01 0.813,44.28 9.893,14.451 26.554,23.931 17.563,44.22 -6.288,19.814 -3.624,41.38 -9.06,59.844 -1.688,11.237 16.514,39.776 14.938,16.938 5.313,-15.871 5.174,-33.32 17.688,-44.563 17.12,0.129 3.255,-17.486 20.25,-15.188 10.371,-12.896 13.374,-28.29 30.875,-33.406 2.091,-15.654 29.09,-39.624 1.188,-45.719 -7.583,-3.546 -27.12,-4.813 -25.625,-6.563 3.02,-15.533 -25.22,-19.958 -37.25,-26.313 -15.794,-10.635 -39.498,17.669 -45.06,-6.719 -3.32,-7.673 -15.485,-7.785 -9.906,-19.625 -10.05,9.487 -29.711,6.602 -24.563,-11.719 7.819,-15.43 37.852,-16.184 42.969,2.375 -7.104,-20.469 13.745,-36.406 25.313,-50.969 2.355,-6.96 16.316,-12.938 11.5,-3.688 8.205,-0.281 20.638,-14.327 6.06,-7.844 -0.206,-12.81 -12.739,-9.163 -16.813,-7.344 7.551,-11.369 46.3,-5.135 30.06,-23.719 -12.583,-4.837 -11.523,-33.07 -24.25,-17.344 1.071,-9.688 -25.901,-28.653 -25.313,-12.406 3.293,14.538 0.601,31.28 -6.406,40.813 -1.462,-21.302 -39.767,-16.612 -34.844,-39.31 7.133,-10.819 15.487,-25.752 16.281,-24.406 12.784,-4.63 23.07,-18.11 8.25,-26.969 -0.792,7.717 -11.145,23.632 -9.688,4.375 -9.585,10.781 -7.398,-17.13 -16.375,-20.03 m 306.84,7.094 c -0.421,0.022 -0.708,0.155 -0.875,0.375 -22.453,5.211 -31.393,25.555 -42.5,42.41 -16.373,7 -15.729,37.07 2.563,27.469 4.896,8.112 -3.448,20.888 10.813,10.281 11.502,-14.44 2.051,-37.801 21.625,-46.906 1.426,7.08 -18.07,33.533 4.688,29.19 20.574,0.736 -14.944,1.938 -4.938,14.406 -10.397,-5.852 -4.992,15.988 -18.563,10.906 -11.757,6.067 -19.506,-2.83 -16.813,-12.563 -9.249,5.119 2.93,19.57 -13.12,20.438 -3.596,12.12 -33.19,10.288 -16.375,22.625 7.467,18.36 -27.831,1.155 -17.813,23.19 8.572,21.786 26.524,-7.209 33.813,-12.813 13.622,-10.02 33.643,15.922 23.375,18.5 12.928,-2.316 9.877,-14.582 -1.188,-19.406 -6.14,-15.11 19.418,7.426 18,15 9.02,16.03 5.317,-16.426 14.5,-2.063 -1.072,15.15 36.961,3.564 18.813,22.875 -15.603,2.982 -31,-3.791 -44.44,0.563 -12.503,-0.105 -11.823,-12.795 -16.375,-15.969 -15.904,1.226 -35.603,1.092 -46.25,13.281 -11.514,14.986 -28.11,35.927 -15.563,55.06 12.558,28.357 43.724,1.472 61.63,18.219 5.321,6.983 -4.647,15.28 7.25,22.844 4.477,16.11 -5.058,31.411 5.938,46.813 5.685,14.485 9.214,36.17 30.375,22.938 22.396,-12.786 16.458,-36.35 34.938,-49.41 -14.622,-26.847 17.888,-38.612 26,-60.41 -17.722,2.461 -33.531,-14.316 -37.813,-31.19 -7.445,-8.195 -5.504,-20.27 2.813,-4.875 11.431,10.508 11.668,41.665 32.813,25.625 3.164,-1.255 8.095,-3.684 12.594,-6.594 v -17.344 c -12.791,3.919 -24.946,-27.739 -6.219,-7.469 2.179,0.877 4.256,1.674 6.219,2.375 v -151.22 c 0,-3.337 -0.256,-6.586 -0.75,-9.781 -1.013,-0.27 -1.958,-0.745 -2.781,-1.5 -10.06,1.329 -23.349,19.92 -20.19,1.969 -8.745,-0.55 -1.549,16.1 -13.563,16.563 -1.21,8.557 -12.1,1.561 -8,9.688 -8.432,-5.674 -15.614,-23.589 1,-12.344 24.673,-7.02 -16.277,-22.859 -19.438,-26.688 4.649,-1.057 -3.24,-5.219 -6.188,-5.063 m -204.56,5.063 c -8.212,6.492 15.613,7.714 0,0 m -109.66,3.5 c -9.185,9.115 14.628,8.379 0,0 m 53.22,9.03 c -6.956,10.81 10.277,3.991 0,0 m 152.31,12.781 c -8.143,8.894 -18.887,-2.332 -19.06,5.313 1.476,2.31 7.362,18.791 20.313,6.625 6.951,-2.78 4.235,-9.792 -1.25,-11.938 m -173.37,5.313 c -15.446,12.797 26.24,13.977 3.281,1.469 l -3.281,-1.469 m 203.56,35.563 c -10.717,6.931 5.511,21.398 -0.031,28.22 -6.968,11.518 25.896,-0.811 8.344,-10 -1.203,-7.594 -9.616,-16.795 -8.313,-18.219 m -7.313,13.75 c -15.494,4.156 -3.55,25.614 1.938,5.406 0.308,-1.172 0.76,-5.445 -1.938,-5.406 m -124.06,15.531 c -14.414,9.324 -2.251,18.633 8.313,14.438 -2.169,-5.626 -8.215,-9.172 -8.313,-14.438 m 272.25,15.688 c 7.192,3.443 -13.15,9.315 -0.25,15.375 7.507,8.375 4.639,26.349 -7.563,13.625 2.267,-14.206 -16.533,-24.801 7.813,-29 m -36.938,0.125 c -0.976,9.127 20.738,23.286 -2.688,18.656 -12.389,1.379 -30.982,-0.355 -15.375,-15 4.932,-2.809 17.926,9.714 11.188,-1.969 2.389,-0.144 4.625,-1 6.875,-1.688 m -71.56,19.75 c -9.04,5.523 6.248,9.758 0,0 m -226.91,51.47 c -1.523,4.822 28.553,9.725 7.781,2 l -3.063,-1.031 -4.719,-0.969 m 23.344,6.875 c -9.13,8.794 18.812,2.627 0,0 m 305.38,80.66 c -19.839,0.485 -17.205,49.04 -3.375,20.313 1.312,-6.234 6.571,-14.467 3.375,-20.313"
       inkscape:connector-curvature="0"
       id="path41"
       style="opacity:0.47000002" />
  </g>
  <path
     d="M 78.66,6 C 63.797,6 49.99,10.43 38.5,18.03 V 493.97 C 49.986,501.572 63.793,506 78.66,506 h 68.844 V 6 H 78.66"
     inkscape:connector-curvature="0"
     id="path43"
     style="opacity:0.05;fill:url(#1)" />
  <path
     d="m 147.5,6 v 500 h 109 V 6 h -109"
     inkscape:connector-curvature="0"
     id="path45"
     style="opacity:0.05;fill:url(#2)" />
  <path
     d="m 256.5,6 v 500 h 109 V 6 h -109"
     inkscape:connector-curvature="0"
     id="path47"
     style="opacity:0.05;fill:url(#3)" />
  <path
     d="m 365.5,6 v 500 h 67.844 c 14.854,0 28.643,-4.438 40.13,-12.03 V 18.03 C 461.992,10.437 448.204,6 433.354,6 H 365.51"
     inkscape:connector-curvature="0"
     id="path49"
     style="opacity:0.05;fill:url(#4)" />
  <path
     d="M 38.5,18.03 C 18.886,31.011 6,53.27 6,78.66 v 354.69 c 0,25.381 12.886,47.644 32.5,60.63 V 18.04"
     inkscape:connector-curvature="0"
     id="path51"
     style="opacity:0.05;fill:url(#6)" />
  <path
     d="m 473.47,18.03 v 475.94 c 19.627,-12.979 32.531,-35.23 32.531,-60.62 V 78.66 c 0,-25.391 -12.905,-47.646 -32.531,-60.62"
     inkscape:connector-curvature="0"
     id="path53"
     style="opacity:0.05;fill:url(#5)" />
</svg>
