<svg xmlns="http://www.w3.org/2000/svg" xmlns:xlink="http://www.w3.org/1999/xlink" viewBox="0 0 512 512"><defs><filter id="7"><feGaussianBlur stdDeviation="3.7725"/></filter><linearGradient id="8" y1="19.564" x2="0" y2="504.02" gradientUnits="userSpaceOnUse"><stop stop-color="#f3f3f3"/><stop offset=".5" stop-color="#eee"/><stop offset="1" stop-color="#ebebeb"/></linearGradient><linearGradient xlink:href="#0" id="5" gradientUnits="userSpaceOnUse" gradientTransform="matrix(1.02835 0 0 1.46193 209.19-118.25)" x1="257" x2="362"/><linearGradient xlink:href="#0" id="6" gradientUnits="userSpaceOnUse" gradientTransform="matrix(1.0381 0 0 1.46193-337.29-118.25)" x1="257" x2="362"/><linearGradient xlink:href="#0" id="4" gradientUnits="userSpaceOnUse" gradientTransform="matrix(1.02835 0 0 1.46193 101.22-118.25)" x1="257" x2="362"/><linearGradient xlink:href="#0" id="3" gradientUnits="userSpaceOnUse" gradientTransform="matrix(1.0381 0 0 1.46193-10.289-118.25)" x1="257" x2="362"/><linearGradient id="0"><stop/><stop offset="1" stop-color="#fff"/></linearGradient><linearGradient xlink:href="#0" id="2" gradientUnits="userSpaceOnUse" gradientTransform="matrix(1.0381 0 0 1.46193-119.29-118.25)" x1="257" x2="362"/><linearGradient xlink:href="#0" id="1" gradientUnits="userSpaceOnUse" gradientTransform="matrix(1.0381 0 0 1.46193-228.29-118.25)" x1="257" x2="362"/></defs><path d="m78.66 6c-.929 0-1.861.028-2.781.063-.073.003-.146-.003-.219 0-.668.027-1.337.08-2 .125-.376.025-.751.063-1.125.094-.645.053-1.297.086-1.938.156-.965.106-1.922.232-2.875.375-.052.008-.104.023-.156.031-1.082.165-2.154.351-3.219.563-.459.091-.919.182-1.375.281-.39.085-.769.19-1.156.281-.647.152-1.297.299-1.938.469-.898.238-1.804.479-2.688.75-.211.065-.414.152-.625.219-.991.314-1.966.645-2.938 1-.817.298-1.635.611-2.438.938-.29.118-.587.222-.875.344-.136.057-.27.129-.406.188-.082.035-.169.058-.25.094-.717.311-1.42.636-2.125.969-.147.069-.291.148-.438.219-.947.455-1.889.943-2.813 1.438-.271.145-.544.289-.813.438-.414.228-.81.483-1.219.719-.52.3-1.051.594-1.563.906-.738.452-1.467.898-2.188 1.375-.031.021-.062.042-.094.063-.456.303-.895.625-1.344.938-.123.086-.252.163-.375.25-.524.37-1.049.742-1.563 1.125-1.835 1.371-3.618 2.84-5.313 4.375-.017.015-.046.016-.063.031-.526.477-1.02.977-1.531 1.469-.524.505-1.054 1.011-1.563 1.531-.512.523-1 1.055-1.5 1.594-.941 1.022-1.837 2.05-2.719 3.125-.631.769-1.244 1.58-1.844 2.375-.111.148-.233.289-.344.438-.526.71-1.031 1.427-1.531 2.156-.11.16-.235.308-.344.469-.013.019-.018.043-.031.063-.084.125-.167.249-.25.375-.47.708-.929 1.431-1.375 2.156-.071.116-.148.227-.219.344-.575.948-1.124 1.899-1.656 2.875-.152.278-.289.564-.438.844-.18.341-.356.687-.531 1.031-.243.479-.486.952-.719 1.438-.426.885-.828 1.783-1.219 2.688-.24.556-.461 1.124-.688 1.688-.038.095-.087.186-.125.281-.246.621-.489 1.245-.719 1.875-.332.909-.641 1.825-.938 2.75-.11.345-.238.684-.344 1.031-.301.99-.585 1.992-.844 3-.008.032-.023.062-.031.094-.267 1.046-.497 2.092-.719 3.156-.034.166-.06.334-.094.5-.426 2.117-.762 4.257-1 6.438-.035.323-.063.645-.094.969-.09.938-.165 1.895-.219 2.844-.017.29-.018.584-.031.875-.051 1.119-.094 2.243-.094 3.375v354.69 6c0 40.24 32.411 72.66 72.66 72.66h354.69c40.24 0 72.66-32.411 72.66-72.66v-354.69-6c0-1.259-.031-2.507-.094-3.75-.016-.323-.042-.647-.063-.969-.058-.917-.127-1.843-.219-2.75-.02-.2-.041-.394-.063-.594-.246-2.245-.587-4.447-1.031-6.625-.021-.104-.041-.209-.063-.313-.227-1.087-.476-2.15-.75-3.219-.011-.042-.02-.083-.031-.125-.19-.732-.413-1.464-.625-2.188-.212-.724-.423-1.442-.656-2.156-.258-.789-.529-1.567-.813-2.344-.23-.63-.472-1.254-.719-1.875-.038-.096-.087-.186-.125-.281-.239-.594-.465-1.195-.719-1.781-.378-.871-.777-1.741-1.188-2.594-.233-.485-.475-.958-.719-1.438-.287-.564-.574-1.132-.875-1.688-.051-.094-.105-.188-.156-.281-.513-.936-1.041-1.871-1.594-2.781-.212-.35-.438-.685-.656-1.031-.405-.642-.795-1.278-1.219-1.906-.809-1.199-1.685-2.354-2.563-3.5-.262-.341-.514-.695-.781-1.031-.189-.238-.371-.483-.563-.719-.093-.114-.188-.231-.281-.344-2.71-3.286-5.696-6.301-8.938-9.06-.293-.249-.578-.505-.875-.75-.268-.221-.541-.439-.813-.656-.636-.509-1.284-1.012-1.938-1.5-3.17-2.368-6.55-4.481-10.09-6.313-.617-.319-1.248-.636-1.875-.938-.155-.074-.313-.145-.469-.219-.785-.371-1.575-.719-2.375-1.063-.488-.209-.975-.426-1.469-.625-.735-.296-1.472-.571-2.219-.844-.392-.143-.793-.27-1.188-.406-.718-.248-1.459-.524-2.188-.75-.114-.035-.23-.059-.344-.094-.488-.149-.977-.267-1.469-.406-.357-.1-.703-.217-1.063-.313-.019-.005-.043.005-.063 0-.837-.221-1.683-.433-2.531-.625-.032-.007-.062-.024-.094-.031-.651-.146-1.311-.278-1.969-.406-1-.197-2.01-.376-3.03-.531-.063-.01-.125-.022-.188-.031-.952-.143-1.88-.269-2.844-.375-.836-.091-1.687-.156-2.531-.219-.176-.013-.355-.019-.531-.031-.735-.049-1.478-.097-2.219-.125-.92-.034-1.853-.063-2.781-.063h-285.84-68.844" filter="url(#7)" fill-opacity=".176"/><rect width="500" height="500" x="6" y="12" rx="72.64" opacity=".15"/><rect rx="72.64" y="6" x="6" height="500" width="500" fill="url(#8)"/><rect width="435" height="435" x="38.5" y="38.5" rx="63.2" fill="#4565ab"/><path d="m101.69 38.5c-35.01 0-63.19 28.17-63.19 63.19v15c0-35.01 28.17-63.19 63.19-63.19h308.63c35.01 0 63.19 28.17 63.19 63.19v-15c0-35.01-28.17-63.19-63.19-63.19h-308.62" opacity=".2"/><path d="m78.66 6c-40.24 0-72.66 32.411-72.66 72.66v7c0-40.24 32.411-72.66 72.66-72.66h354.69c40.24 0 72.66 32.411 72.66 72.66v-7c0-40.24-32.411-72.66-72.66-72.66h-354.69" fill="#fff"/><text y="133.19" x="1292.96" word-spacing="0" line-height="125%" letter-spacing="0" font-size="129.23" font-family="Gentium Book Basic"><tspan y="133.19" x="1292.96"/></text><text transform="scale(4.0128.2492)" font-size="46.954" y="185.31" x="519.29" font-family="Arial" text-anchor="middle"/><text y="53.19" x="1874.23" word-spacing="0" line-height="125%" letter-spacing="0" font-size="129.23" font-family="Gentium Book Basic"><tspan y="53.19" x="1874.23"/></text><text transform="scale(4.0128.2492)" font-size="46.954" y="-135.72" x="664.14" font-family="Arial" text-anchor="middle"/><text y="-128.07" x="802.65" word-spacing="0" line-height="125%" letter-spacing="0" font-size="129.23" font-family="Gentium Book Basic"><tspan y="-128.07" x="802.65"/></text><text transform="scale(4.0128.2492)" font-size="46.954" y="-863.07" x="397.1" font-family="Arial" text-anchor="middle"/><text y="-344.54" x="1900.7" word-spacing="0" line-height="125%" letter-spacing="0" font-size="129.23" font-family="Gentium Book Basic"><tspan y="-344.54" x="1900.7"/></text><text transform="scale(4.0128.2492)" font-size="46.954" y="-1731.75" x="670.74" font-family="Arial" text-anchor="middle"/><text y="-424.54" x="2481.97" word-spacing="0" line-height="125%" letter-spacing="0" font-size="129.23" font-family="Gentium Book Basic"><tspan y="-424.54" x="2481.97"/></text><text transform="scale(4.0128.2492)" font-size="46.954" y="-2052.78" x="815.59" font-family="Arial" text-anchor="middle"/><text y="-896.94" x="2092.85" word-spacing="0" line-height="125%" letter-spacing="0" font-size="129.23" font-family="Gentium Book Basic"><tspan y="-896.94" x="2092.85"/></text><text transform="scale(4.0128.2492)" font-size="46.954" y="-3948.43" x="718.62" font-family="Arial" text-anchor="middle"/><text y="-976.95" x="2674.11" word-spacing="0" line-height="125%" letter-spacing="0" font-size="129.23" font-family="Gentium Book Basic"><tspan y="-976.95" x="2674.11"/></text><text transform="scale(4.0128.2492)" font-size="46.954" y="-4269.46" x="863.47" font-family="Arial" text-anchor="middle"/><text y="437.77" x="841.31" word-spacing="0" line-height="125%" letter-spacing="0" font-size="208.33" font-family="Gentium Book Basic"><tspan y="437.77" x="841.31"/></text><g transform="translate(786.42-46.752)"><path d="m-600.03 142.75c-2.903-.037-5.842.991-8.344 3.188-4.543 3.988-4.491 3.869-4.719 26.625-.133 13.196.038 21.721.5 23.875.901 4.2 3.334 7.467 6.813 9.09 6.137 2.87 13.89.25 16.719-5.594 1.377-2.846 1.402-3.472 1.219-26.09l-.188-23.19-1.875-2.469c-2.698-3.531-6.392-5.389-10.125-5.438m154.25 0c-3.733.048-7.427 1.901-10.125 5.438l-1.875 2.469v24 23.969l1.719 2.656c1.023 1.545 2.934 3.209 4.594 4.03 5.384 2.665 12.406 1.196 15.844-3.313 2.807-3.681 3.162-7.19 2.938-29.438-.229-22.756-.21-22.605-4.75-26.594-2.502-2.197-5.44-3.225-8.344-3.188zm-196.09 26c-11.925 0-16.497.257-19.469 1.031-12.637 3.291-22.974 13.04-27.344 25.813l-1.469 4.25-.188 120.91c-.196 134.81-.478 125.84 4.406 135.75 4.932 10.01 15.08 17.789 26.25 20.19 6.535 1.404 266.55 1.433 273.25.031 11.443-2.394 21.534-10.08 26.531-20.22 4.884-9.907 4.602-.943 4.406-135.75l-.156-120.91-1.469-4.25c-4.369-12.772-14.707-22.517-27.344-25.813-2.97-.774-7.544-1.031-19.469-1.031h-15.563v12.625c-.002 6.93-.283 14.279-.625 16.375-1.66 10.135-8.54 18.205-18.06 21.09-4.254 1.29-11.03 1.216-15.03-.125-8.02-2.687-14.19-8.781-16.906-16.844-.888-2.633-1.063-5.959-1.063-18.16v-14.969h-51.719-51.719v14.969c0 12.197-.205 15.522-1.094 18.16-6.366 18.873-30 24.22-43.31 9.781-3.377-3.664-5.813-8.754-6.656-13.906-.344-2.096-.653-9.444-.656-16.375v-12.625zm-23.06 89.66h142.03 142.03v90.84c-.002 64.51-.234 91.57-.75 93.44-.948 3.416-5.335 7.801-8.75 8.75-1.878.521-39.4.768-132.87.75-110.58-.021-130.63-.182-132.84-.969-3.312-1.172-7.24-5.297-8.156-8.594-.488-1.755-.685-30.552-.688-93.37v-90.81zm92.13 30.469c-19.323.254-38.03 15.78-39.34 35.469 4.7 11.132 26.503 7.73 27.22 1.094.828-14.62 25.962-18.13 30.28-3.563 2.792 13.537-9.255 23.595-18.688 30.906-15.547 13.14-33.19 26.567-39.19 46.906-.225 5.646-1.485 14.718 5.969 16.188 27.367-.927 54.751-.131 82.13-.438-4.947-23.319.104.37-5-23.688-16.796-1.129-33.674-.393-50.47-.375 16.01-18.903 42.35-30.19 50.781-55.06 6.583-18.925-5.358-42.752-25.781-45.906-5.231-1.257-10.642-1.689-16.03-1.5-.624-.024-1.252-.039-1.875-.031m93.72 0c-1.272-.005-2.554.006-3.813.031-19.328.477-38.14 16.13-38.438 36.13 4.542 10.132 24.788 6.131 26.531 1.281-.163-10.778 13.04-15.938 22.19-13.156 11.349 2.258 13.02 21.01 1.656 24.781-6.964 4.04-16.08-1.094-22.563 3.656-7.229 9.363-2.406 25.917 10.406 22.719 8.695-.538 21.15 1.569 22.813 11.844 1.651 8.7-5.842 17.651-14.719 17-8.846 1.371-20.854-3.452-20.813-13.719-3.483-8.408-27.388-6.595-27.2 1.484.119 3.233.717 6.373 1.719 9.363 5 14.932 20.09 26.11 36.07 26.341 18.647 2.798 41.39-3.535 49.03-22.19 6.741-14.996 2.025-35.617-12.594-43.625 18.482-13.443 15.916-45.814-4.563-56.28-7.705-4.65-16.815-5.622-25.719-5.656" opacity=".2"/><path d="m-615.03 127.75c-2.903-.037-5.842.991-8.344 3.188-4.543 3.988-4.491 3.869-4.719 26.625-.133 13.196.038 21.721.5 23.875.901 4.2 3.334 7.467 6.813 9.09 6.137 2.87 13.89.25 16.719-5.594 1.377-2.846 1.402-3.472 1.219-26.09l-.188-23.19-1.875-2.469c-2.698-3.531-6.392-5.389-10.125-5.438m154.25 0c-3.733.048-7.427 1.901-10.125 5.438l-1.875 2.469v24 23.969l1.719 2.656c1.023 1.545 2.934 3.209 4.594 4.03 5.384 2.665 12.406 1.196 15.844-3.313 2.807-3.681 3.162-7.19 2.938-29.438-.229-22.756-.21-22.605-4.75-26.594-2.502-2.197-5.44-3.225-8.344-3.188zm-196.09 26c-11.925 0-16.497.257-19.469 1.031-12.637 3.291-22.974 13.04-27.344 25.813l-1.469 4.25-.188 120.91c-.196 134.81-.478 125.84 4.406 135.75 4.932 10.01 15.08 17.789 26.25 20.19 6.535 1.404 266.55 1.433 273.25.031 11.443-2.394 21.534-10.08 26.531-20.22 4.884-9.907 4.602-.943 4.406-135.75l-.156-120.91-1.469-4.25c-4.369-12.772-14.707-22.517-27.344-25.813-2.97-.774-7.544-1.031-19.469-1.031h-15.563v12.625c-.002 6.93-.283 14.279-.625 16.375-1.66 10.135-8.54 18.205-18.06 21.09-4.254 1.29-11.03 1.216-15.03-.125-8.02-2.687-14.19-8.781-16.906-16.844-.888-2.633-1.063-5.959-1.063-18.16v-14.969h-51.719-51.719v14.969c0 12.197-.205 15.522-1.094 18.16-6.366 18.873-30 24.22-43.31 9.781-3.377-3.664-5.813-8.754-6.656-13.906-.344-2.096-.653-9.444-.656-16.375v-12.625zm-23.06 89.66h142.03 142.03v90.84c-.002 64.51-.234 91.57-.75 93.44-.948 3.416-5.335 7.801-8.75 8.75-1.878.521-39.4.768-132.87.75-110.58-.021-130.63-.182-132.84-.969-3.312-1.172-7.24-5.297-8.156-8.594-.488-1.755-.685-30.552-.688-93.37v-90.81zm92.13 30.469c-19.323.254-38.03 15.78-39.34 35.469 4.7 11.132 26.503 7.73 27.22 1.094.828-14.62 25.962-18.13 30.28-3.563 2.792 13.537-9.255 23.595-18.688 30.906-15.547 13.14-33.19 26.567-39.19 46.906-.225 5.646-1.485 14.718 5.969 16.188 27.367-.927 54.751-.131 82.13-.438-4.947-23.319.104.37-5-23.688-16.796-1.129-33.674-.393-50.47-.375 16.01-18.903 42.35-30.19 50.781-55.06 6.583-18.925-5.358-42.752-25.781-45.906-5.231-1.257-10.642-1.689-16.03-1.5-.624-.024-1.252-.039-1.875-.031m93.72 0c-1.272-.005-2.554.006-3.813.031-19.328.477-38.14 16.13-38.438 36.13 4.542 10.132 24.788 6.131 26.531 1.281-.163-10.778 13.04-15.938 22.19-13.156 11.349 2.258 13.02 21.01 1.656 24.781-6.964 4.04-16.08-1.094-22.563 3.656-7.229 9.363-2.406 25.917 10.406 22.719 8.695-.538 21.15 1.569 22.813 11.844 1.651 8.7-5.842 17.651-14.719 17-8.846 1.371-20.854-3.452-20.813-13.719-3.483-8.408-27.388-6.595-27.2 1.484.119 3.233.717 6.373 1.719 9.363 5 14.932 20.09 26.11 36.07 26.341 18.647 2.798 41.39-3.535 49.03-22.19 6.741-14.996 2.025-35.617-12.594-43.625 18.482-13.443 15.916-45.814-4.563-56.28-7.705-4.65-16.815-5.622-25.719-5.656" fill="#dcdbdb"/></g><path d="m78.66 6c-14.863 0-28.67 4.43-40.16 12.03v475.94c11.486 7.602 25.293 12.03 40.16 12.03h68.844v-500h-68.844" opacity=".05" fill="url(#1)"/><path d="m147.5 6v500h109v-500h-109" opacity=".05" fill="url(#2)"/><path d="m256.5 6v500h109v-500h-109" opacity=".05" fill="url(#3)"/><path d="m365.5 6v500h67.844c14.854 0 28.643-4.438 40.13-12.03v-475.94c-11.482-7.593-25.27-12.03-40.12-12.03h-67.844" opacity=".05" fill="url(#4)"/><path d="m38.5 18.03c-19.614 12.981-32.5 35.24-32.5 60.63v354.69c0 25.381 12.886 47.644 32.5 60.63v-475.94" opacity=".05" fill="url(#6)"/><path d="m473.47 18.03v475.94c19.627-12.979 32.531-35.23 32.531-60.62v-354.69c0-25.391-12.905-47.646-32.531-60.62" opacity=".05" fill="url(#5)"/></svg>