<svg xmlns="http://www.w3.org/2000/svg" xmlns:xlink="http://www.w3.org/1999/xlink" viewBox="0 0 512 512"><defs><filter id="7"><feGaussianBlur stdDeviation="3.7725"/></filter><linearGradient id="8" y1="19.564" x2="0" y2="504.02" gradientUnits="userSpaceOnUse"><stop stop-color="#f3f3f3"/><stop offset=".5" stop-color="#eee"/><stop offset="1" stop-color="#ebebeb"/></linearGradient><linearGradient xlink:href="#0" id="5" gradientUnits="userSpaceOnUse" gradientTransform="matrix(1.02835 0 0 1.46193 209.19-118.25)" x1="257" x2="362"/><linearGradient xlink:href="#0" id="6" gradientUnits="userSpaceOnUse" gradientTransform="matrix(1.0381 0 0 1.46193-337.29-118.25)" x1="257" x2="362"/><linearGradient xlink:href="#0" id="4" gradientUnits="userSpaceOnUse" gradientTransform="matrix(1.02835 0 0 1.46193 101.22-118.25)" x1="257" x2="362"/><linearGradient xlink:href="#0" id="3" gradientUnits="userSpaceOnUse" gradientTransform="matrix(1.0381 0 0 1.46193-10.289-118.25)" x1="257" x2="362"/><linearGradient id="0"><stop/><stop offset="1" stop-color="#fff"/></linearGradient><linearGradient xlink:href="#0" id="2" gradientUnits="userSpaceOnUse" gradientTransform="matrix(1.0381 0 0 1.46193-119.29-118.25)" x1="257" x2="362"/><linearGradient xlink:href="#0" id="1" gradientUnits="userSpaceOnUse" gradientTransform="matrix(1.0381 0 0 1.46193-228.29-118.25)" x1="257" x2="362"/></defs><path d="m78.66 6c-.929 0-1.861.028-2.781.063-.073.003-.146-.003-.219 0-.668.027-1.337.08-2 .125-.376.025-.751.063-1.125.094-.645.053-1.297.086-1.938.156-.965.106-1.922.232-2.875.375-.052.008-.104.023-.156.031-1.082.165-2.154.351-3.219.563-.459.091-.919.182-1.375.281-.39.085-.769.19-1.156.281-.647.152-1.297.299-1.938.469-.898.238-1.804.479-2.688.75-.211.065-.414.152-.625.219-.991.314-1.966.645-2.938 1-.817.298-1.635.611-2.438.938-.29.118-.587.222-.875.344-.136.057-.27.129-.406.188-.082.035-.169.058-.25.094-.717.311-1.42.636-2.125.969-.147.069-.291.148-.438.219-.947.455-1.889.943-2.813 1.438-.271.145-.544.289-.813.438-.414.228-.81.483-1.219.719-.52.3-1.051.594-1.563.906-.738.452-1.467.898-2.188 1.375-.031.021-.062.042-.094.063-.456.303-.895.625-1.344.938-.123.086-.252.163-.375.25-.524.37-1.049.742-1.563 1.125-1.835 1.371-3.618 2.84-5.313 4.375-.017.015-.046.016-.063.031-.526.477-1.02.977-1.531 1.469-.524.505-1.054 1.011-1.563 1.531-.512.523-1 1.055-1.5 1.594-.941 1.022-1.837 2.05-2.719 3.125-.631.769-1.244 1.58-1.844 2.375-.111.148-.233.289-.344.438-.526.71-1.031 1.427-1.531 2.156-.11.16-.235.308-.344.469-.013.019-.018.043-.031.063-.084.125-.167.249-.25.375-.47.708-.929 1.431-1.375 2.156-.071.116-.148.227-.219.344-.575.948-1.124 1.899-1.656 2.875-.152.278-.289.564-.438.844-.18.341-.356.687-.531 1.031-.243.479-.486.952-.719 1.438-.426.885-.828 1.783-1.219 2.688-.24.556-.461 1.124-.688 1.688-.038.095-.087.186-.125.281-.246.621-.489 1.245-.719 1.875-.332.909-.641 1.825-.938 2.75-.11.345-.238.684-.344 1.031-.301.99-.585 1.992-.844 3-.008.032-.023.062-.031.094-.267 1.046-.497 2.092-.719 3.156-.034.166-.06.334-.094.5-.426 2.117-.762 4.257-1 6.438-.035.323-.063.645-.094.969-.09.938-.165 1.895-.219 2.844-.017.29-.018.584-.031.875-.051 1.119-.094 2.243-.094 3.375v354.69 6c0 40.24 32.411 72.66 72.66 72.66h354.69c40.24 0 72.66-32.411 72.66-72.66v-354.69-6c0-1.259-.031-2.507-.094-3.75-.016-.323-.042-.647-.063-.969-.058-.917-.127-1.843-.219-2.75-.02-.2-.041-.394-.063-.594-.246-2.245-.587-4.447-1.031-6.625-.021-.104-.041-.209-.063-.313-.227-1.087-.476-2.15-.75-3.219-.011-.042-.02-.083-.031-.125-.19-.732-.413-1.464-.625-2.188-.212-.724-.423-1.442-.656-2.156-.258-.789-.529-1.567-.813-2.344-.23-.63-.472-1.254-.719-1.875-.038-.096-.087-.186-.125-.281-.239-.594-.465-1.195-.719-1.781-.378-.871-.777-1.741-1.188-2.594-.233-.485-.475-.958-.719-1.438-.287-.564-.574-1.132-.875-1.688-.051-.094-.105-.188-.156-.281-.513-.936-1.041-1.871-1.594-2.781-.212-.35-.438-.685-.656-1.031-.405-.642-.795-1.278-1.219-1.906-.809-1.199-1.685-2.354-2.563-3.5-.262-.341-.514-.695-.781-1.031-.189-.238-.371-.483-.563-.719-.093-.114-.188-.231-.281-.344-2.71-3.286-5.696-6.301-8.938-9.06-.293-.249-.578-.505-.875-.75-.268-.221-.541-.439-.813-.656-.636-.509-1.284-1.012-1.938-1.5-3.17-2.368-6.55-4.481-10.09-6.313-.617-.319-1.248-.636-1.875-.938-.155-.074-.313-.145-.469-.219-.785-.371-1.575-.719-2.375-1.063-.488-.209-.975-.426-1.469-.625-.735-.296-1.472-.571-2.219-.844-.392-.143-.793-.27-1.188-.406-.718-.248-1.459-.524-2.188-.75-.114-.035-.23-.059-.344-.094-.488-.149-.977-.267-1.469-.406-.357-.1-.703-.217-1.063-.313-.019-.005-.043.005-.063 0-.837-.221-1.683-.433-2.531-.625-.032-.007-.062-.024-.094-.031-.651-.146-1.311-.278-1.969-.406-1-.197-2.01-.376-3.03-.531-.063-.01-.125-.022-.188-.031-.952-.143-1.88-.269-2.844-.375-.836-.091-1.687-.156-2.531-.219-.176-.013-.355-.019-.531-.031-.735-.049-1.478-.097-2.219-.125-.92-.034-1.853-.063-2.781-.063h-285.84-68.844" filter="url(#7)" fill-opacity=".176"/><rect width="500" height="500" x="6" y="12" rx="72.64" opacity=".15"/><rect rx="72.64" y="6" x="6" height="500" width="500" fill="url(#8)"/><rect width="435" height="435" x="38.5" y="38.5" rx="63.2" fill="#d23638"/><path d="m101.69 38.5c-35.01 0-63.19 28.17-63.19 63.19v15c0-35.01 28.17-63.19 63.19-63.19h308.63c35.01 0 63.19 28.17 63.19 63.19v-15c0-35.01-28.17-63.19-63.19-63.19h-308.62" opacity=".2"/><path d="m78.66 6c-40.24 0-72.66 32.411-72.66 72.66v7c0-40.24 32.411-72.66 72.66-72.66h354.69c40.24 0 72.66 32.411 72.66 72.66v-7c0-40.24-32.411-72.66-72.66-72.66h-354.69" fill="#fff"/><g transform="matrix(1.11753 0 0 1.11753-936.73 30.718)"><path d="m1118.27 287.23c-10.125-3.039-16.13-10.111-34.439-40.532-10.07-16.74-18.832-30.447-19.466-30.461-.634-.013-1.395 12.1-1.692 26.923-.486 24.272-.893 27.422-4.1 31.717-7.435 9.961-12.572 11.481-40.936 12.11-42.21.94-62.01-3.252-80.68-17.09-36.14-26.777-39.965-85.91-7.585-117.32 16.753-16.251 29.677-20.999 60.45-22.21l22.414-.879v9.324 9.324l-21.568.721c-17.567.587-23.11 1.415-29.891 4.461-13.434 6.04-22.18 14.345-28.385 26.953-5.192 10.555-5.581 12.533-5.571 28.29.008 13.755.697 18.43 3.655 24.851 5.157 11.192 16.247 22.531 27.389 28 9.359 4.596 10.224 4.697 44.796 5.234 31.509.489 35.596.237 38.484-2.377 3.047-2.757 3.231-5.892 3.231-55 0-53.855.517-57.819 6.677-51.21 1.624 1.741 17.242 26.21 34.708 54.38 17.465 28.17 33.27 52.28 35.13 53.58 1.857 1.301 4.622 1.936 6.143 1.411 6.74-2.326 6.995-4.447 6.995-58.22 0-52.49.576-57.49 5.987-51.993 1.254 1.273 16.492 25.15 33.862 53.06 17.37 27.911 32.756 52.08 34.19 53.708 3.544 4.02 11.641 3.842 13.865-.312 1.12-2.093 1.751-26.775 1.751-68.51v-65.24h9.304 9.304v69.52c0 61.44-.329 70.22-2.825 75.48-7.175 15.12-29.31 18.01-43.29 5.645-3.01-2.662-13.468-18.206-23.24-34.542-9.769-16.335-18.333-29.73-19.03-29.766-.698-.036-1.269 11.936-1.269 26.604 0 31.392-1.503 36.06-13.593 42.26-7.756 3.977-12.788 4.482-20.771 2.086m-148.19-28.03c-24.495-6.586-38.3-25.629-37.997-52.43.244-21.845 12.948-40.823 32.13-48 7.331-2.743 13.243-3.457 28.629-3.457h19.39v9.304 9.304h-16.97c-11.5 0-18.998.846-23.26 2.623-22.308 9.304-28.75 37.732-12.43 54.85 8.05 8.445 19.636 11.891 39.857 11.857 8.437-.013 16.225-.589 17.307-1.277 1.392-.885 2.134-14.609 2.537-46.916.559-44.751.651-45.795 4.622-52.18 5.586-8.986 12.649-12.922 23.2-12.929 6.5-.005 10.233 1.072 15.05 4.338 8.895 6.04 10.329 8.03 29.06 40.43l16.599 28.708.931-27.12c.844-24.586 1.301-27.715 4.898-33.534 5.383-8.71 12.624-12.822 22.59-12.83 16.08-.012 22.662 6.607 44.961 45.24 8.726 15.12 16.528 27.488 17.339 27.488.811 0 1.474-16.366 1.474-36.37v-36.37h9.304 9.304l-.025 63.858c-.017 35.12-.69 64.907-1.503 66.19-.812 1.282-2.246 1.855-3.187 1.274-.941-.582-15.986-24.09-33.434-52.23-17.448-28.15-33.26-52.889-35.14-54.982-3.708-4.128-11.07-5.04-14.333-1.776-1.489 1.489-2.037 15.799-2.056 53.708-.017 28.423-.69 52.727-1.502 54.01-.812 1.282-2.264 1.845-3.226 1.25-.962-.594-16.842-25.437-35.29-55.21-32.26-52.07-36.18-57.19-42.845-56.01-6.344 1.122-6.766 4.591-6.766 55.626 0 31.02-.658 50.92-1.751 52.962-1.628 3.042-3.74 3.264-30.03 3.161-19.12-.075-31.24-.91-37.441-2.576" opacity=".2"/><path d="m1103.27 272.23c-10.125-3.039-16.13-10.111-34.439-40.532-10.07-16.74-18.832-30.447-19.466-30.461-.634-.013-1.395 12.1-1.692 26.923-.486 24.272-.893 27.422-4.1 31.717-7.435 9.961-12.572 11.481-40.936 12.11-42.21.94-62.01-3.252-80.68-17.09-36.14-26.777-39.965-85.91-7.585-117.32 16.753-16.251 29.677-20.999 60.45-22.21l22.414-.879v9.324 9.324l-21.568.721c-17.567.587-23.11 1.415-29.891 4.461-13.434 6.04-22.18 14.345-28.385 26.953-5.192 10.555-5.581 12.533-5.571 28.29.008 13.755.697 18.43 3.655 24.851 5.157 11.192 16.247 22.531 27.389 28 9.359 4.596 10.224 4.697 44.796 5.234 31.509.489 35.596.237 38.484-2.377 3.047-2.757 3.231-5.892 3.231-55 0-53.855.517-57.819 6.677-51.21 1.624 1.741 17.242 26.21 34.708 54.38 17.465 28.17 33.27 52.28 35.13 53.58 1.857 1.301 4.622 1.936 6.143 1.411 6.74-2.326 6.995-4.447 6.995-58.22 0-52.49.576-57.49 5.987-51.993 1.254 1.273 16.492 25.15 33.862 53.06 17.37 27.911 32.756 52.08 34.19 53.708 3.544 4.02 11.641 3.842 13.865-.312 1.12-2.093 1.751-26.775 1.751-68.51v-65.24h9.304 9.304v69.52c0 61.44-.329 70.22-2.825 75.48-7.175 15.12-29.31 18.01-43.29 5.645-3.01-2.662-13.468-18.206-23.24-34.542-9.769-16.335-18.333-29.73-19.03-29.766-.698-.036-1.269 11.936-1.269 26.604 0 31.392-1.503 36.06-13.593 42.26-7.756 3.977-12.788 4.482-20.771 2.086m-148.19-28.03c-24.495-6.586-38.3-25.629-37.997-52.43.244-21.845 12.948-40.823 32.13-48 7.331-2.743 13.243-3.457 28.629-3.457h19.39v9.304 9.304h-16.97c-11.5 0-18.998.846-23.26 2.623-22.308 9.304-28.75 37.732-12.43 54.85 8.05 8.445 19.636 11.891 39.857 11.857 8.437-.013 16.225-.589 17.307-1.277 1.392-.885 2.134-14.609 2.537-46.916.559-44.751.651-45.795 4.622-52.18 5.586-8.986 12.649-12.922 23.2-12.929 6.5-.005 10.233 1.072 15.05 4.338 8.895 6.04 10.329 8.03 29.06 40.43l16.599 28.708.931-27.12c.844-24.586 1.301-27.715 4.898-33.534 5.383-8.71 12.624-12.822 22.59-12.83 16.08-.012 22.662 6.607 44.961 45.24 8.726 15.12 16.528 27.488 17.339 27.488.811 0 1.474-16.366 1.474-36.37v-36.37h9.304 9.304l-.025 63.858c-.017 35.12-.69 64.907-1.503 66.19-.812 1.282-2.246 1.855-3.187 1.274-.941-.582-15.986-24.09-33.434-52.23-17.448-28.15-33.26-52.889-35.14-54.982-3.708-4.128-11.07-5.04-14.333-1.776-1.489 1.489-2.037 15.799-2.056 53.708-.017 28.423-.69 52.727-1.502 54.01-.812 1.282-2.264 1.845-3.226 1.25-.962-.594-16.842-25.437-35.29-55.21-32.26-52.07-36.18-57.19-42.845-56.01-6.344 1.122-6.766 4.591-6.766 55.626 0 31.02-.658 50.92-1.751 52.962-1.628 3.042-3.74 3.264-30.03 3.161-19.12-.075-31.24-.91-37.441-2.576" fill="#dcdbdb"/></g><path d="m78.66 6c-14.863 0-28.67 4.43-40.16 12.03v475.94c11.486 7.602 25.293 12.03 40.16 12.03h68.844v-500h-68.844" opacity=".05" fill="url(#1)"/><path d="m147.5 6v500h109v-500h-109" opacity=".05" fill="url(#2)"/><path d="m256.5 6v500h109v-500h-109" opacity=".05" fill="url(#3)"/><path d="m365.5 6v500h67.844c14.854 0 28.643-4.438 40.13-12.03v-475.94c-11.482-7.593-25.27-12.03-40.12-12.03h-67.844" opacity=".05" fill="url(#4)"/><path d="m38.5 18.03c-19.614 12.981-32.5 35.24-32.5 60.63v354.69c0 25.381 12.886 47.644 32.5 60.63v-475.94" opacity=".05" fill="url(#6)"/><path d="m473.47 18.03v475.94c19.627-12.979 32.531-35.23 32.531-60.62v-354.69c0-25.391-12.905-47.646-32.531-60.62" opacity=".05" fill="url(#5)"/></svg>