<?xml version="1.0" encoding="UTF-8" standalone="no"?>
<svg
   xmlns:dc="http://purl.org/dc/elements/1.1/"
   xmlns:cc="http://creativecommons.org/ns#"
   xmlns:rdf="http://www.w3.org/1999/02/22-rdf-syntax-ns#"
   xmlns:svg="http://www.w3.org/2000/svg"
   xmlns="http://www.w3.org/2000/svg"
   xmlns:xlink="http://www.w3.org/1999/xlink"
   xmlns:sodipodi="http://sodipodi.sourceforge.net/DTD/sodipodi-0.dtd"
   xmlns:inkscape="http://www.inkscape.org/namespaces/inkscape"
   viewBox="0 0 512 512"
   id="svg2"
   version="1.1"
   inkscape:version="0.48.4 r9939"
   width="100%"
   height="100%"
   sodipodi:docname="0 base.svg">
  <sodipodi:namedview
     pagecolor="#444444"
     bordercolor="#666666"
     borderopacity="1"
     objecttolerance="10"
     gridtolerance="10"
     guidetolerance="10"
     inkscape:pageopacity="0"
     inkscape:pageshadow="2"
     inkscape:window-width="1310"
     inkscape:window-height="718"
     id="namedview6"
     showgrid="false"
     showguides="true"
     inkscape:guide-bbox="true"
     inkscape:zoom="0.5181105"
     inkscape:cx="441.01603"
     inkscape:cy="1.7543477"
     inkscape:window-x="54"
     inkscape:window-y="27"
     inkscape:window-maximized="1"
     inkscape:current-layer="svg2"
     inkscape:snap-midpoints="true"
     inkscape:snap-global="false">
    <sodipodi:guide
       id="guide2989"
       position="768.17591,433.35594"
       orientation="0,1" />
    <sodipodi:guide
       id="guide2995"
       position="473.05444,254.912"
       orientation="1,0" />
  </sodipodi:namedview>
  <metadata
     id="metadata10">
    <rdf:RDF>
      <cc:Work
         rdf:about="">
        <dc:format>image/svg+xml</dc:format>
        <dc:type
           rdf:resource="http://purl.org/dc/dcmitype/StillImage" />
        <dc:title></dc:title>
      </cc:Work>
    </rdf:RDF>
  </metadata>
  <defs
     id="defs8">
    <linearGradient
       id="linearGradient4379">
      <stop
         style="stop-color:#f3f3f3;stop-opacity:1;"
         offset="0"
         id="stop4381" />
      <stop
         id="stop4387"
         offset="0.5"
         style="stop-color:#eeeeee;stop-opacity:1;" />
      <stop
         style="stop-color:#ebebeb;stop-opacity:1;"
         offset="1"
         id="stop4383" />
    </linearGradient>
    <linearGradient
       id="linearGradient4996">
      <stop
         style="stop-color:#000000;stop-opacity:1;"
         offset="0"
         id="stop4998" />
      <stop
         style="stop-color:#ffffff;stop-opacity:1;"
         offset="1"
         id="stop5000" />
    </linearGradient>
    <linearGradient
       inkscape:collect="always"
       xlink:href="#linearGradient4996"
       id="linearGradient3108"
       gradientUnits="userSpaceOnUse"
       gradientTransform="matrix(1.0380952,0,0,1.4619252,-228.28943,-118.25286)"
       x1="257"
       y1="256"
       x2="362"
       y2="256" />
    <linearGradient
       inkscape:collect="always"
       xlink:href="#linearGradient4996"
       id="linearGradient3137"
       gradientUnits="userSpaceOnUse"
       gradientTransform="matrix(1.0380952,0,0,1.4619252,-119.28943,-118.25286)"
       x1="257"
       y1="256"
       x2="362"
       y2="256" />
    <linearGradient
       inkscape:collect="always"
       xlink:href="#linearGradient4996"
       id="linearGradient3141"
       gradientUnits="userSpaceOnUse"
       gradientTransform="matrix(1.0380952,0,0,1.4619252,-10.28943,-118.25286)"
       x1="257"
       y1="256"
       x2="362"
       y2="256" />
    <linearGradient
       inkscape:collect="always"
       xlink:href="#linearGradient4996"
       id="linearGradient3145"
       gradientUnits="userSpaceOnUse"
       gradientTransform="matrix(1.0283468,0,0,1.4619252,101.21591,-118.25286)"
       x1="257"
       y1="256"
       x2="362"
       y2="256" />
    <linearGradient
       inkscape:collect="always"
       xlink:href="#linearGradient4996"
       id="linearGradient3149"
       gradientUnits="userSpaceOnUse"
       gradientTransform="matrix(1.0283468,0,0,1.4619252,209.19233,-118.25286)"
       x1="257"
       y1="256"
       x2="362"
       y2="256" />
    <linearGradient
       inkscape:collect="always"
       xlink:href="#linearGradient4996"
       id="linearGradient3153"
       gradientUnits="userSpaceOnUse"
       gradientTransform="matrix(1.0380952,0,0,1.4619252,-337.28943,-118.25286)"
       x1="257"
       y1="256"
       x2="362"
       y2="256" />
    <filter
       inkscape:collect="always"
       id="filter4375">
      <feGaussianBlur
         inkscape:collect="always"
         stdDeviation="3.7725"
         id="feGaussianBlur4377" />
    </filter>
    <linearGradient
       inkscape:collect="always"
       xlink:href="#linearGradient4379"
       id="linearGradient4385"
       x1="243.40109"
       y1="19.563948"
       x2="243.40109"
       y2="504.01736"
       gradientUnits="userSpaceOnUse" />
    <linearGradient
       y2="256"
       x2="362"
       y1="256"
       x1="257"
       gradientTransform="matrix(1.0380952,0,0,1.4619252,-337.28943,-118.25286)"
       gradientUnits="userSpaceOnUse"
       id="linearGradient3153-4"
       xlink:href="#linearGradient4996-9"
       inkscape:collect="always" />
    <linearGradient
       y2="256"
       x2="362"
       y1="256"
       x1="257"
       gradientTransform="matrix(1.0283468,0,0,1.4619252,209.19233,-118.25286)"
       gradientUnits="userSpaceOnUse"
       id="linearGradient3149-3"
       xlink:href="#linearGradient4996-9"
       inkscape:collect="always" />
    <linearGradient
       y2="256"
       x2="362"
       y1="256"
       x1="257"
       gradientTransform="matrix(1.0283468,0,0,1.4619252,101.21591,-118.25286)"
       gradientUnits="userSpaceOnUse"
       id="linearGradient3145-4"
       xlink:href="#linearGradient4996-9"
       inkscape:collect="always" />
    <linearGradient
       y2="256"
       x2="362"
       y1="256"
       x1="257"
       gradientTransform="matrix(1.0380952,0,0,1.4619252,-10.28943,-118.25286)"
       gradientUnits="userSpaceOnUse"
       id="linearGradient3141-5"
       xlink:href="#linearGradient4996-9"
       inkscape:collect="always" />
    <linearGradient
       y2="256"
       x2="362"
       y1="256"
       x1="257"
       gradientTransform="matrix(1.0380952,0,0,1.4619252,-119.28943,-118.25286)"
       gradientUnits="userSpaceOnUse"
       id="linearGradient3137-0"
       xlink:href="#linearGradient4996-9"
       inkscape:collect="always" />
    <linearGradient
       y2="256"
       x2="362"
       y1="256"
       x1="257"
       gradientTransform="matrix(1.0380952,0,0,1.4619252,-228.28943,-118.25286)"
       gradientUnits="userSpaceOnUse"
       id="linearGradient3108-3"
       xlink:href="#linearGradient4996-9"
       inkscape:collect="always" />
    <linearGradient
       id="linearGradient4996-9">
      <stop
         id="stop4998-6"
         offset="0"
         style="stop-color:#000000;stop-opacity:1;" />
      <stop
         id="stop5000-9"
         offset="1"
         style="stop-color:#ffffff;stop-opacity:1;" />
    </linearGradient>
  </defs>
  <path
     style="opacity:1;fill:#000000;fill-opacity:0.17647059000000001;stroke:none;filter:url(#filter4375)"
     d="M 78.65625 6 C 77.727284 6 76.7954 6.028201 75.875 6.0625 C 75.802369 6.0652118 75.728825 6.059577 75.65625 6.0625 C 74.988725 6.0893847 74.318909 6.1428818 73.65625 6.1875 C 73.280206 6.2128391 72.905683 6.2502503 72.53125 6.28125 C 71.885867 6.3345848 71.234134 6.3675421 70.59375 6.4375 C 69.628992 6.5431372 68.67162 6.6697176 67.71875 6.8125 C 67.666309 6.8203518 67.614904 6.835787 67.5625 6.84375 C 66.480857 7.0082531 65.408958 7.1949037 64.34375 7.40625 C 63.884894 7.4971842 63.424398 7.5880194 62.96875 7.6875 C 62.579098 7.7726525 62.199755 7.8774077 61.8125 7.96875 C 61.165363 8.1211825 60.515221 8.2679802 59.875 8.4375 C 58.977088 8.6758086 58.071221 8.9162011 57.1875 9.1875 C 56.976031 9.2523648 56.773131 9.3395193 56.5625 9.40625 C 55.571868 9.72038 54.596482 10.051502 53.625 10.40625 C 52.80836 10.704455 51.989948 11.0175 51.1875 11.34375 C 50.897854 11.461445 50.600246 11.566197 50.3125 11.6875 C 50.176196 11.744981 50.042123 11.816716 49.90625 11.875 C 49.824668 11.909989 49.737675 11.933472 49.65625 11.96875 C 48.938842 12.279643 48.236264 12.604441 47.53125 12.9375 C 47.384379 13.006849 47.240073 13.085948 47.09375 13.15625 C 46.146324 13.611669 45.205003 14.099116 44.28125 14.59375 C 44.010496 14.738777 43.737417 14.882905 43.46875 15.03125 C 43.054856 15.259696 42.65884 15.513784 42.25 15.75 C 41.730466 16.0502 41.198724 16.34365 40.6875 16.65625 C 39.949085 17.107771 39.220561 17.554376 38.5 18.03125 C 38.468637 18.052007 38.437579 18.072946 38.40625 18.09375 C 37.950536 18.396369 37.510847 18.718679 37.0625 19.03125 C 36.93921 19.117203 36.810226 19.194551 36.6875 19.28125 C 36.163693 19.651283 35.638368 20.022798 35.125 20.40625 C 33.290177 21.777117 31.50659 23.24624 29.8125 24.78125 C 29.795638 24.79654 29.766847 24.797194 29.75 24.8125 C 29.224497 25.289542 28.729955 25.789121 28.21875 26.28125 C 27.694886 26.785782 27.164727 27.292488 26.65625 27.8125 C 26.144503 28.335837 25.652037 28.867606 25.15625 29.40625 C 24.215559 30.427897 23.318806 31.456477 22.4375 32.53125 C 21.806506 33.300601 21.193184 34.110796 20.59375 34.90625 C 20.48231 35.054221 20.360329 35.194896 20.25 35.34375 C 19.723598 36.053613 19.21948 36.770435 18.71875 37.5 C 18.60915 37.659719 18.48335 37.808107 18.375 37.96875 C 18.362086 37.987892 18.356646 38.012094 18.34375 38.03125 C 18.259632 38.156225 18.177108 38.280721 18.09375 38.40625 C 17.623298 39.114511 17.164683 39.836916 16.71875 40.5625 C 16.647328 40.678799 16.570784 40.789515 16.5 40.90625 C 15.924756 41.854127 15.376169 42.805321 14.84375 43.78125 C 14.692065 44.059253 14.554393 44.344787 14.40625 44.625 C 14.225983 44.96599 14.049974 45.312036 13.875 45.65625 C 13.63151 46.13532 13.389361 46.608561 13.15625 47.09375 C 12.730634 47.978942 12.32789 48.876356 11.9375 49.78125 C 11.697576 50.33769 11.476337 50.90513 11.25 51.46875 C 11.211649 51.564217 11.162958 51.654331 11.125 51.75 C 10.878581 52.371259 10.635931 52.995354 10.40625 53.625 C 10.074634 54.533596 9.7648227 55.449625 9.46875 56.375 C 9.3582604 56.72046 9.2304578 57.058529 9.125 57.40625 C 8.8244173 58.396667 8.5403511 59.398152 8.28125 60.40625 C 8.2731511 60.437819 8.2580577 60.468414 8.25 60.5 C 7.9825799 61.546421 7.7529168 62.591906 7.53125 63.65625 C 7.4967817 63.821826 7.4708457 63.990255 7.4375 64.15625 C 7.011883 66.273722 6.6758491 68.412789 6.4375 70.59375 C 6.4022606 70.916326 6.3747851 71.238642 6.34375 71.5625 C 6.2537906 72.500662 6.1792302 73.457785 6.125 74.40625 C 6.1084109 74.696568 6.1069502 74.990008 6.09375 75.28125 C 6.0430557 76.400053 6 77.5245 6 78.65625 L 6 433.34375 L 6 439.34375 C 6 479.58856 38.411442 512 78.65625 512 L 433.34375 512 C 473.58856 512 506 479.58856 506 439.34375 L 506 84.65625 L 506 78.65625 C 506 77.397481 505.96893 76.148858 505.90625 74.90625 C 505.88997 74.583084 505.8642 74.259513 505.84375 73.9375 C 505.7854 73.020381 505.7168 72.094823 505.625 71.1875 C 505.60482 70.987629 505.58428 70.793129 505.5625 70.59375 C 505.31685 68.348594 504.97537 66.146302 504.53125 63.96875 C 504.51005 63.864628 504.49039 63.760207 504.46875 63.65625 C 504.24208 62.56918 503.99317 61.505818 503.71875 60.4375 C 503.70802 60.395586 503.69831 60.354385 503.6875 60.3125 C 503.49794 59.580022 503.27406 58.848167 503.0625 58.125 C 502.85099 57.400787 502.63943 56.683269 502.40625 55.96875 C 502.14838 55.179706 501.87757 54.401717 501.59375 53.625 C 501.36407 52.995354 501.12142 52.371259 500.875 51.75 C 500.837 51.654331 500.7884 51.564216 500.75 51.46875 C 500.51143 50.874675 500.28491 50.273592 500.03125 49.6875 C 499.6536 48.816464 499.2541 47.946468 498.84375 47.09375 C 498.61064 46.608561 498.36849 46.13532 498.125 45.65625 C 497.83796 45.092248 497.55122 44.524042 497.25 43.96875 C 497.19912 43.874852 497.14503 43.781145 497.09375 43.6875 C 496.58077 42.751755 496.05244 41.816114 495.5 40.90625 C 495.28765 40.556046 495.06183 40.221258 494.84375 39.875 C 494.43899 39.233117 494.04913 38.596743 493.625 37.96875 C 492.81616 36.769544 491.93973 35.615178 491.0625 34.46875 C 490.80093 34.127365 490.54872 33.774036 490.28125 33.4375 C 490.09255 33.199768 489.91036 32.954032 489.71875 32.71875 C 489.62597 32.604964 489.53096 32.488208 489.4375 32.375 C 486.72765 29.088725 483.7416 26.073745 480.5 23.3125 C 480.20738 23.063287 479.92162 22.807113 479.625 22.5625 C 479.35716 22.341642 479.08356 22.123311 478.8125 21.90625 C 478.17676 21.397149 477.52808 20.89412 476.875 20.40625 C 473.70458 18.038152 470.32509 15.925311 466.78125 14.09375 C 466.16445 13.77467 465.53332 13.458103 464.90625 13.15625 C 464.75142 13.08186 464.59295 13.010824 464.4375 12.9375 C 463.65263 12.56654 462.86266 12.218496 462.0625 11.875 C 461.57467 11.666006 461.08708 11.448572 460.59375 11.25 C 459.85871 10.953561 459.12187 10.67922 458.375 10.40625 C 457.98321 10.263334 457.58245 10.13635 457.1875 10 C 456.46909 9.7515393 455.72856 9.4764502 455 9.25 C 454.8864 9.2148134 454.77009 9.1908956 454.65625 9.15625 C 454.16839 9.007218 453.67972 8.8890238 453.1875 8.75 C 452.83049 8.6495592 452.48425 8.5326228 452.125 8.4375 C 452.10552 8.4323219 452.08198 8.4426624 452.0625 8.4375 C 451.22583 8.2167138 450.37964 8.0040441 449.53125 7.8125 C 449.49951 7.8053012 449.46926 7.7884074 449.4375 7.78125 C 448.78627 7.6351458 448.12658 7.5035858 447.46875 7.375 C 446.46573 7.1778899 445.45509 6.9992871 444.4375 6.84375 C 444.37488 6.8342345 444.31267 6.8218566 444.25 6.8125 C 443.29794 6.6695311 442.37023 6.5432958 441.40625 6.4375 C 440.57048 6.3461977 439.71923 6.2816821 438.875 6.21875 C 438.69908 6.2055933 438.52002 6.1994068 438.34375 6.1875 C 437.60905 6.1380308 436.86567 6.0901545 436.125 6.0625 C 435.20525 6.0281378 434.27212 6 433.34375 6 L 147.5 6 L 78.65625 6 z "
     id="path3492" />
  <rect
     style="opacity:0.15;fill:#000000;fill-opacity:1;stroke:none"
     id="rect5028"
     width="500"
     height="500"
     x="6"
     y="12"
     rx="72.644058"
     ry="72.644058" />
  <rect
     ry="72.644058"
     rx="72.644058"
     y="6"
     x="6"
     height="500"
     width="500"
     id="rect4979"
     style="fill:url(#linearGradient4385);fill-opacity:1;stroke:none" />
  <rect
     style="fill:#e75177;fill-opacity:1;stroke:none"
     id="rect4981"
     width="434.99997"
     height="434.99997"
     x="38.500011"
     y="38.500011"
     rx="63.200329"
     ry="63.200329" />
  <path
     style="fill:#000000;fill-opacity:1;stroke:none;opacity:0.2"
     d="M 101.6875 38.5 C 66.674518 38.5 38.5 66.674518 38.5 101.6875 L 38.5 116.6875 C 38.5 81.674518 66.674518 53.5 101.6875 53.5 L 410.3125 53.5 C 445.32548 53.5 473.5 81.674518 473.5 116.6875 L 473.5 101.6875 C 473.5 66.674518 445.32548 38.5 410.3125 38.5 L 101.6875 38.5 z "
     id="rect3187" />
  <path
     style="fill:#ffffff;fill-opacity:1;stroke:none"
     d="M 78.65625 6 C 38.411442 6 6 38.411442 6 78.65625 L 6 85.65625 C 6 45.411442 38.411442 13 78.65625 13 L 433.34375 13 C 473.58856 13 506 45.411442 506 85.65625 L 506 78.65625 C 506 38.411442 473.58856 6 433.34375 6 L 78.65625 6 z "
     id="rect4349" />
  <g
     id="g3090"
     transform="translate(1048.5,466.12186)">
    <path
       style="opacity:0.2;fill:#000000;fill-opacity:1;stroke:none"
       d="m -786.30826,-371.45693 c -17.47014,0.14229 -35.02331,3.04812 -52.08108,8.79983 -36.00984,12.14216 -67.68794,37.41634 -88.73678,70.78841 -4.13091,6.54935 -12.17589,23.13527 -15.05613,31.05582 -4.51885,12.42661 -7.48405,25.30542 -8.96393,38.31722 -7.7e-4,0.007 7.7e-4,0.0138 0,0.0205 -0.0916,0.80649 -0.18656,1.61302 -0.26666,2.42046 -0.69735,6.20454 -1.08716,12.50113 -1.08716,18.89195 0,54.84026 26.38174,103.5197 67.1372,134.048756 0.0898,0.06732 0.17666,0.137988 0.26666,0.205125 13.53782,10.416097 28.62311,18.547377 45.06581,23.896984 17.20437,5.973521 35.67363,9.230595 54.91179,9.230595 84.20799,0 153.89186,-62.18327 165.63789,-143.13576 0.0601,-0.38981 0.12718,-0.77861 0.18461,-1.16921 0.0864,-0.58784 0.14537,-1.17696 0.22564,-1.76406 2.93875,-21.49397 1.76646,-42.51197 -3.6307,-64.55263 -9.56981,-39.08083 -34.9906,-75.413 -68.67563,-98.19302 -28.56031,-19.31435 -61.57947,-29.13265 -94.93153,-28.86099 z m 3.71274,37.47621 c 5.37374,-0.0231 10.26653,0.15251 13.14848,0.53333 20.77867,2.74566 39.9265,9.92288 56.96302,21.35344 9.96189,6.68387 9.72185,6.02984 4.43069,11.91772 -12.06206,13.42237 -28.64228,25.6053 -48.69652,35.79419 -5.2176,2.65091 -9.82457,4.82043 -10.23571,4.82043 -0.41114,0 -3.0208,-4.22676 -5.80502,-9.39469 -10.14564,-18.83194 -22.84571,-39.08218 -34.15319,-54.46051 -3.02633,-4.11585 -5.38258,-7.62112 -5.23068,-7.77421 0.15192,-0.1531 2.74294,-0.75552 5.764,-1.33331 4.56372,-0.87286 14.8587,-1.41788 23.81493,-1.45639 z m -59.81425,13.45616 1.59997,1.96919 c 3.67116,4.46494 12.87415,16.94213 17.47659,23.71238 12.68542,18.66041 27.90662,45.12096 26.44052,45.94784 -2.72108,1.53473 -26.97021,7.06632 -40.98383,9.35367 -13.06416,2.13239 -19.02422,2.82492 -35.01473,4.04096 -7.19684,0.54731 -18.86432,0.98417 -25.94823,0.98459 l -12.8818,0 1.29228,-4.71786 c 4.19059,-15.24069 13.33828,-32.81209 23.95852,-46.05041 10.49612,-13.08355 27.73216,-27.28163 40.9223,-33.70193 l 3.13841,-1.53843 z m 160.34569,36.69674 2.89225,3.9589 c 13.30072,18.20934 22.74966,43.53271 24.26621,65.06544 0.24304,3.45079 0.1536,5.97693 -0.18462,5.92809 -0.32376,-0.0467 -4.1125,-0.77979 -8.43061,-1.62048 -16.1217,-3.13874 -24.39694,-3.8567 -44.16326,-3.87685 -14.4413,-0.0147 -20.5712,0.25103 -27.15847,1.16921 -4.67794,0.65205 -9.0593,1.23952 -9.7434,1.31279 -1.01153,0.10835 -2.00229,-1.66019 -5.35374,-9.43571 -2.26659,-5.2586 -4.14604,-9.87833 -4.16402,-10.27673 -0.018,-0.39842 2.96018,-2.10209 6.60499,-3.79481 20.65135,-9.59088 40.77536,-23.71159 57.04508,-40.01975 l 8.38959,-8.4101 z m -100.77759,62.52189 c 0.37791,-0.004 6.71674,14.32902 7.22038,16.3279 0.13892,0.55139 -2.66968,1.97125 -7.95883,4.02044 -16.07574,6.22825 -35.28292,16.92137 -48.96317,27.26102 -17.71885,13.39207 -35.54293,31.89042 -48.18371,49.96829 -2.02682,2.89863 -3.89842,5.25867 -4.14351,5.25118 -0.58242,-0.0176 -7.76825,-9.75242 -10.91261,-14.78946 -7.57644,-12.13705 -14.20528,-28.82103 -17.02533,-42.87099 -1.65854,-8.2631 -3.17632,-22.35919 -2.8102,-26.00976 l 0.20513,-2.11278 17.66121,-0.22564 c 39.4622,-0.53047 76.1587,-5.58427 107.62873,-14.80997 3.77834,-1.10766 7.05377,-2.00825 7.28191,-2.01023 z m 72.90119,36.65573 c 10.38774,-0.0262 21.40761,0.63262 30.72763,1.94868 9.16734,1.29451 21.4318,3.63929 22.09188,4.22556 1.39546,1.23939 -4.79295,21.08987 -10.03057,32.184 -8.57547,18.1642 -21.89362,34.95804 -37.35314,47.11706 -3.11037,2.44632 -5.81622,4.4512 -6.01015,4.4512 -0.47566,0 -0.74974,-1.01971 -2.74866,-10.21519 -4.53854,-20.87822 -10.98409,-44.6222 -18.17402,-67.01412 l -3.50762,-10.97415 2.99481,-0.41025 c 6.22322,-0.86228 13.93048,-1.29244 22.00984,-1.31279 z m -54.72717,8.82034 c 0.66125,0 8.55545,24.08877 12.5331,38.23517 3.67039,13.05368 7.92898,30.45753 10.728,43.8761 1.28602,6.16525 2.47577,11.826009 2.64611,12.594638 0.25466,1.149189 -0.18234,1.59028 -2.4615,2.440979 -8.99855,3.358734 -20.00028,5.86549 -30.70712,7.01525 -0.72132,0.07746 -1.47058,0.162898 -2.21533,0.225637 -0.74476,0.06274 -1.49152,0.115939 -2.25637,0.164099 -10.70796,0.674252 -23.22652,-0.08652 -32.96348,-2.051247 -17.56383,-3.544022 -36.68991,-11.704936 -49.90675,-21.291896 l -3.40507,-2.4615 3.97942,-5.90758 c 6.85112,-10.21211 13.46357,-18.08248 24.34825,-29.00458 15.15261,-15.20468 28.89883,-25.28358 46.8504,-34.35832 7.20878,-3.64414 21.24076,-9.47675 22.83034,-9.47675 z"
       id="path3088"
       inkscape:connector-curvature="0" />
    <path
       inkscape:connector-curvature="0"
       id="path3082"
       d="m -801.30826,-386.45693 c -17.47014,0.14229 -35.02331,3.04812 -52.08108,8.79983 -36.00984,12.14216 -67.68794,37.41634 -88.73678,70.78841 -4.13091,6.54935 -12.17589,23.13527 -15.05613,31.05582 -4.51885,12.42661 -7.48405,25.30542 -8.96393,38.31722 -7.7e-4,0.007 7.7e-4,0.0138 0,0.0205 -0.0916,0.80649 -0.18656,1.61302 -0.26666,2.42046 -0.69735,6.20454 -1.08716,12.50113 -1.08716,18.89195 0,54.84026 26.38174,103.5197 67.1372,134.048756 0.0898,0.06732 0.17666,0.137988 0.26666,0.205125 13.53782,10.416097 28.62311,18.547377 45.06581,23.896984 17.20437,5.973521 35.67363,9.230595 54.91179,9.230595 84.20799,0 153.89186,-62.18327 165.63789,-143.13576 0.0601,-0.38981 0.12718,-0.77861 0.18461,-1.16921 0.0864,-0.58784 0.14537,-1.17696 0.22564,-1.76406 2.93875,-21.49397 1.76646,-42.51197 -3.6307,-64.55263 -9.56981,-39.08083 -34.9906,-75.413 -68.67563,-98.19302 -28.56031,-19.31435 -61.57947,-29.13265 -94.93153,-28.86099 z m 3.71274,37.47621 c 5.37374,-0.0231 10.26653,0.15251 13.14848,0.53333 20.77867,2.74566 39.9265,9.92288 56.96302,21.35344 9.96189,6.68387 9.72185,6.02984 4.43069,11.91772 -12.06206,13.42237 -28.64228,25.6053 -48.69652,35.79419 -5.2176,2.65091 -9.82457,4.82043 -10.23571,4.82043 -0.41114,0 -3.0208,-4.22676 -5.80502,-9.39469 -10.14564,-18.83194 -22.84571,-39.08218 -34.15319,-54.46051 -3.02633,-4.11585 -5.38258,-7.62112 -5.23068,-7.77421 0.15192,-0.1531 2.74294,-0.75552 5.764,-1.33331 4.56372,-0.87286 14.8587,-1.41788 23.81493,-1.45639 z m -59.81425,13.45616 1.59997,1.96919 c 3.67116,4.46494 12.87415,16.94213 17.47659,23.71238 12.68542,18.66041 27.90662,45.12096 26.44052,45.94784 -2.72108,1.53473 -26.97021,7.06632 -40.98383,9.35367 -13.06416,2.13239 -19.02422,2.82492 -35.01473,4.04096 -7.19684,0.54731 -18.86432,0.98417 -25.94823,0.98459 l -12.8818,0 1.29228,-4.71786 c 4.19059,-15.24069 13.33828,-32.81209 23.95852,-46.05041 10.49612,-13.08355 27.73216,-27.28163 40.9223,-33.70193 l 3.13841,-1.53843 z m 160.34569,36.69674 2.89225,3.9589 c 13.30072,18.20934 22.74966,43.53271 24.26621,65.06544 0.24304,3.45079 0.1536,5.97693 -0.18462,5.92809 -0.32376,-0.0467 -4.1125,-0.77979 -8.43061,-1.62048 -16.1217,-3.13874 -24.39694,-3.8567 -44.16326,-3.87685 -14.4413,-0.0147 -20.5712,0.25103 -27.15847,1.16921 -4.67794,0.65205 -9.0593,1.23952 -9.7434,1.31279 -1.01153,0.10835 -2.00229,-1.66019 -5.35374,-9.43571 -2.26659,-5.2586 -4.14604,-9.87833 -4.16402,-10.27673 -0.018,-0.39842 2.96018,-2.10209 6.60499,-3.79481 20.65135,-9.59088 40.77536,-23.71159 57.04508,-40.01975 l 8.38959,-8.4101 z m -100.77759,62.52189 c 0.37791,-0.004 6.71674,14.32902 7.22038,16.3279 0.13892,0.55139 -2.66968,1.97125 -7.95883,4.02044 -16.07574,6.22825 -35.28292,16.92137 -48.96317,27.26102 -17.71885,13.39207 -35.54293,31.89042 -48.18371,49.96829 -2.02682,2.89863 -3.89842,5.25867 -4.14351,5.25118 -0.58242,-0.0176 -7.76825,-9.75242 -10.91261,-14.78946 -7.57644,-12.13705 -14.20528,-28.82103 -17.02533,-42.87099 -1.65854,-8.2631 -3.17632,-22.35919 -2.8102,-26.00976 l 0.20513,-2.11278 17.66121,-0.22564 c 39.4622,-0.53047 76.1587,-5.58427 107.62873,-14.80997 3.77834,-1.10766 7.05377,-2.00825 7.28191,-2.01023 z m 72.90119,36.65573 c 10.38774,-0.0262 21.40761,0.63262 30.72763,1.94868 9.16734,1.29451 21.4318,3.63929 22.09188,4.22556 1.39546,1.23939 -4.79295,21.08987 -10.03057,32.184 -8.57547,18.1642 -21.89362,34.95804 -37.35314,47.11706 -3.11037,2.44632 -5.81622,4.4512 -6.01015,4.4512 -0.47566,0 -0.74974,-1.01971 -2.74866,-10.21519 -4.53854,-20.87822 -10.98409,-44.6222 -18.17402,-67.01412 l -3.50762,-10.97415 2.99481,-0.41025 c 6.22322,-0.86228 13.93048,-1.29244 22.00984,-1.31279 z m -54.72717,8.82034 c 0.66125,0 8.55545,24.08877 12.5331,38.23517 3.67039,13.05368 7.92898,30.45753 10.728,43.8761 1.28602,6.16525 2.47577,11.826009 2.64611,12.594638 0.25466,1.149189 -0.18234,1.59028 -2.4615,2.440979 -8.99855,3.358734 -20.00028,5.86549 -30.70712,7.01525 -0.72132,0.07746 -1.47058,0.162898 -2.21533,0.225637 -0.74476,0.06274 -1.49152,0.115939 -2.25637,0.164099 -10.70796,0.674252 -23.22652,-0.08652 -32.96348,-2.051247 -17.56383,-3.544022 -36.68991,-11.704936 -49.90675,-21.291896 l -3.40507,-2.4615 3.97942,-5.90758 c 6.85112,-10.21211 13.46357,-18.08248 24.34825,-29.00458 15.15261,-15.20468 28.89883,-25.28358 46.8504,-34.35832 7.20878,-3.64414 21.24076,-9.47675 22.83034,-9.47675 z"
       style="fill:#dcdbdb;fill-opacity:1;stroke:none" />
  </g>
  <g
     id="g3167">
    <path
       id="rect3068"
       d="M 78.65625 6 C 63.792798 6 49.986224 10.429561 38.5 18.03125 L 38.5 493.96875 C 49.986224 501.57044 63.792798 506 78.65625 506 L 147.5 506 L 147.5 6 L 78.65625 6 z "
       style="opacity:0.05000000000000000;fill:url(#linearGradient3108);fill-opacity:1;stroke:none" />
    <path
       inkscape:connector-curvature="0"
       style="opacity:0.05;fill:url(#linearGradient3137);fill-opacity:1;stroke:none"
       d="m 147.50001,6 0,500 109,0 0,-500 -109,0 z"
       id="path3135" />
    <path
       id="path3139"
       d="m 256.50001,6 0,500 109,0 0,-500 -109,0 z"
       style="opacity:0.05;fill:url(#linearGradient3141);fill-opacity:1;stroke:none"
       inkscape:connector-curvature="0" />
    <path
       id="path3143"
       d="M 365.5 6 L 365.5 506 L 433.34375 506 C 448.1977 506 461.98692 501.56151 473.46875 493.96875 L 473.46875 18.03125 C 461.98692 10.438491 448.1977 6 433.34375 6 L 365.5 6 z "
       style="opacity:0.05000000000000000;fill:url(#linearGradient3145);fill-opacity:1;stroke:none" />
    <path
       id="path3151"
       d="M 38.5 18.03125 C 18.885717 31.012164 6 53.274894 6 78.65625 L 6 433.34375 C 6 458.72511 18.885717 480.98784 38.5 493.96875 L 38.5 18.03125 z "
       style="opacity:0.05000000000000000;fill:url(#linearGradient3153);fill-opacity:1;stroke:none" />
    <path
       id="path3147"
       d="M 473.46875 18.03125 L 473.46875 493.96875 C 493.09542 480.98993 506 458.73461 506 433.34375 L 506 78.65625 C 506 53.265388 493.09542 31.010071 473.46875 18.03125 z "
       style="opacity:0.05000000000000000;fill:url(#linearGradient3149);fill-opacity:1;stroke:none" />
  </g>
</svg>
