<?xml version="1.0" encoding="UTF-8" standalone="no"?>
<!-- Created with Inkscape (http://www.inkscape.org/) -->

<svg
   xmlns:dc="http://purl.org/dc/elements/1.1/"
   xmlns:cc="http://creativecommons.org/ns#"
   xmlns:rdf="http://www.w3.org/1999/02/22-rdf-syntax-ns#"
   xmlns:svg="http://www.w3.org/2000/svg"
   xmlns="http://www.w3.org/2000/svg"
   xmlns:xlink="http://www.w3.org/1999/xlink"
   xmlns:inkscape="http://www.inkscape.org/namespaces/inkscape"
   version="1.1"
   width="100%"
   height="100%"
   viewBox="0 0 512 512"
   id="svg2">
  <metadata
     id="metadata10">
    <rdf:RDF>
      <cc:Work
         rdf:about="">
        <dc:format>image/svg+xml</dc:format>
        <dc:type
           rdf:resource="http://purl.org/dc/dcmitype/StillImage" />
        <dc:title />
      </cc:Work>
    </rdf:RDF>
  </metadata>
  <defs
     id="defs8">
    <linearGradient
       id="linearGradient4379">
      <stop
         id="stop4381"
         style="stop-color:#f3f3f3;stop-opacity:1"
         offset="0" />
      <stop
         id="stop4387"
         style="stop-color:#eeeeee;stop-opacity:1"
         offset="0.5" />
      <stop
         id="stop4383"
         style="stop-color:#ebebeb;stop-opacity:1"
         offset="1" />
    </linearGradient>
    <linearGradient
       id="linearGradient4996">
      <stop
         id="stop4998"
         style="stop-color:#000000;stop-opacity:1"
         offset="0" />
      <stop
         id="stop5000"
         style="stop-color:#ffffff;stop-opacity:1"
         offset="1" />
    </linearGradient>
    <linearGradient
       x1="257"
       y1="256"
       x2="362"
       y2="256"
       id="linearGradient3108"
       xlink:href="#linearGradient4996"
       gradientUnits="userSpaceOnUse"
       gradientTransform="matrix(1.0380952,0,0,1.4619252,-228.28943,-118.25286)" />
    <linearGradient
       x1="257"
       y1="256"
       x2="362"
       y2="256"
       id="linearGradient3137"
       xlink:href="#linearGradient4996"
       gradientUnits="userSpaceOnUse"
       gradientTransform="matrix(1.0380952,0,0,1.4619252,-119.28943,-118.25286)" />
    <linearGradient
       x1="257"
       y1="256"
       x2="362"
       y2="256"
       id="linearGradient3141"
       xlink:href="#linearGradient4996"
       gradientUnits="userSpaceOnUse"
       gradientTransform="matrix(1.0380952,0,0,1.4619252,-10.28943,-118.25286)" />
    <linearGradient
       x1="257"
       y1="256"
       x2="362"
       y2="256"
       id="linearGradient3145"
       xlink:href="#linearGradient4996"
       gradientUnits="userSpaceOnUse"
       gradientTransform="matrix(1.0283468,0,0,1.4619252,101.21591,-118.25286)" />
    <linearGradient
       x1="257"
       y1="256"
       x2="362"
       y2="256"
       id="linearGradient3149"
       xlink:href="#linearGradient4996"
       gradientUnits="userSpaceOnUse"
       gradientTransform="matrix(1.0283468,0,0,1.4619252,209.19233,-118.25286)" />
    <linearGradient
       x1="257"
       y1="256"
       x2="362"
       y2="256"
       id="linearGradient3153"
       xlink:href="#linearGradient4996"
       gradientUnits="userSpaceOnUse"
       gradientTransform="matrix(1.0380952,0,0,1.4619252,-337.28943,-118.25286)" />
    <filter
       color-interpolation-filters="sRGB"
       id="filter4375">
      <feGaussianBlur
         id="feGaussianBlur4377"
         stdDeviation="3.7725" />
    </filter>
    <linearGradient
       x1="243.40109"
       y1="19.563948"
       x2="243.40109"
       y2="504.01736"
       id="linearGradient4385"
       xlink:href="#linearGradient4379"
       gradientUnits="userSpaceOnUse" />
  </defs>
  <path
     d="M 78.65625,6 C 77.727284,6 76.7954,6.028201 75.875,6.0625 c -0.07263,0.00271 -0.146175,-0.00292 -0.21875,0 -0.667525,0.026885 -1.337341,0.080382 -2,0.125 -0.376044,0.025339 -0.750567,0.06275 -1.125,0.09375 -0.645383,0.053335 -1.297116,0.086292 -1.9375,0.15625 -0.964758,0.1056372 -1.92213,0.2322176 -2.875,0.375 -0.05244,0.00785 -0.103846,0.023287 -0.15625,0.03125 -1.081643,0.1645031 -2.153542,0.3511537 -3.21875,0.5625 -0.458856,0.090934 -0.919352,0.1817694 -1.375,0.28125 -0.389652,0.085153 -0.768995,0.1899077 -1.15625,0.28125 -0.647137,0.1524325 -1.297279,0.2992302 -1.9375,0.46875 -0.897912,0.2383086 -1.803779,0.4787011 -2.6875,0.75 -0.211469,0.064865 -0.414369,0.1520193 -0.625,0.21875 -0.990632,0.31413 -1.966018,0.645252 -2.9375,1 -0.81664,0.298205 -1.635052,0.61125 -2.4375,0.9375 -0.289646,0.117695 -0.587254,0.222447 -0.875,0.34375 -0.136304,0.05748 -0.270377,0.129216 -0.40625,0.1875 -0.08158,0.03499 -0.168575,0.05847 -0.25,0.09375 -0.717408,0.310893 -1.419986,0.635691 -2.125,0.96875 -0.146871,0.06935 -0.291177,0.148448 -0.4375,0.21875 -0.947426,0.455419 -1.888747,0.942866 -2.8125,1.4375 -0.270754,0.145027 -0.543833,0.289155 -0.8125,0.4375 -0.413894,0.228446 -0.80991,0.482534 -1.21875,0.71875 -0.519534,0.3002 -1.051276,0.59365 -1.5625,0.90625 -0.738415,0.451521 -1.466939,0.898126 -2.1875,1.375 -0.03136,0.02076 -0.06242,0.0417 -0.09375,0.0625 -0.455714,0.302619 -0.895403,0.624929 -1.34375,0.9375 -0.12329,0.08595 -0.252274,0.163301 -0.375,0.25 -0.523807,0.370033 -1.049132,0.741548 -1.5625,1.125 -1.834823,1.370867 -3.61841,2.83999 -5.3125,4.375 -0.01686,0.01529 -0.04565,0.01594 -0.0625,0.03125 -0.525503,0.477042 -1.020045,0.976621 -1.53125,1.46875 -0.523864,0.504532 -1.054023,1.011238 -1.5625,1.53125 -0.511747,0.523337 -1.004213,1.055106 -1.5,1.59375 -0.940691,1.021647 -1.837444,2.050227 -2.71875,3.125 -0.630994,0.769351 -1.244316,1.579546 -1.84375,2.375 -0.11144,0.147971 -0.233421,0.288646 -0.34375,0.4375 -0.526402,0.709863 -1.03052,1.426685 -1.53125,2.15625 -0.1096,0.159719 -0.2354,0.308107 -0.34375,0.46875 -0.01291,0.01914 -0.01835,0.04334 -0.03125,0.0625 -0.08412,0.124975 -0.166642,0.249471 -0.25,0.375 -0.470452,0.708261 -0.929067,1.430666 -1.375,2.15625 -0.07142,0.116299 -0.147966,0.227015 -0.21875,0.34375 -0.575244,0.947877 -1.123831,1.899071 -1.65625,2.875 -0.151685,0.278003 -0.289357,0.563537 -0.4375,0.84375 -0.180267,0.34099 -0.356276,0.687036 -0.53125,1.03125 -0.24349,0.47907 -0.485639,0.952311 -0.71875,1.4375 -0.425616,0.885192 -0.82836,1.782606 -1.21875,2.6875 -0.239924,0.55644 -0.461163,1.12388 -0.6875,1.6875 -0.03835,0.09547 -0.08704,0.185581 -0.125,0.28125 -0.246419,0.621259 -0.489069,1.245354 -0.71875,1.875 -0.331616,0.908596 -0.6414273,1.824625 -0.9375,2.75 -0.1104896,0.34546 -0.2382922,0.683529 -0.34375,1.03125 -0.3005827,0.990417 -0.5846489,1.991902 -0.84375,3 -0.0081,0.03157 -0.023192,0.06216 -0.03125,0.09375 -0.2674201,1.046421 -0.4970832,2.091906 -0.71875,3.15625 -0.034468,0.165576 -0.060404,0.334005 -0.09375,0.5 -0.425617,2.117472 -0.7616509,4.256539 -1,6.4375 -0.035239,0.322576 -0.062715,0.644892 -0.09375,0.96875 -0.089959,0.938162 -0.1645198,1.895285 -0.21875,2.84375 -0.016589,0.290318 -0.01805,0.583758 -0.03125,0.875 C 6.0430557,76.400053 6,77.5245 6,78.65625 l 0,354.6875 0,6 C 6,479.58856 38.411442,512 78.65625,512 l 354.6875,0 C 473.58856,512 506,479.58856 506,439.34375 l 0,-354.6875 0,-6 c 0,-1.258769 -0.0311,-2.507392 -0.0937,-3.75 -0.0163,-0.323166 -0.0421,-0.646737 -0.0625,-0.96875 -0.0584,-0.917119 -0.12695,-1.842677 -0.21875,-2.75 -0.0202,-0.199871 -0.0407,-0.394371 -0.0625,-0.59375 -0.24565,-2.245156 -0.58713,-4.447448 -1.03125,-6.625 -0.0212,-0.104122 -0.0409,-0.208543 -0.0625,-0.3125 -0.22667,-1.08707 -0.47558,-2.150432 -0.75,-3.21875 -0.0107,-0.04191 -0.0204,-0.08311 -0.0312,-0.125 -0.18956,-0.732478 -0.41344,-1.464333 -0.625,-2.1875 -0.21151,-0.724213 -0.42307,-1.441731 -0.65625,-2.15625 -0.25787,-0.789044 -0.52868,-1.567033 -0.8125,-2.34375 -0.22968,-0.629646 -0.47233,-1.253741 -0.71875,-1.875 -0.038,-0.09567 -0.0866,-0.185784 -0.125,-0.28125 -0.23857,-0.594075 -0.46509,-1.195158 -0.71875,-1.78125 -0.37765,-0.871036 -0.77715,-1.741032 -1.1875,-2.59375 -0.23311,-0.485189 -0.47526,-0.95843 -0.71875,-1.4375 -0.28704,-0.564002 -0.57378,-1.132208 -0.875,-1.6875 -0.0509,-0.0939 -0.10497,-0.187605 -0.15625,-0.28125 -0.51298,-0.935745 -1.04131,-1.871386 -1.59375,-2.78125 -0.21235,-0.350204 -0.43817,-0.684992 -0.65625,-1.03125 -0.40476,-0.641883 -0.79462,-1.278257 -1.21875,-1.90625 -0.80884,-1.199206 -1.68527,-2.353572 -2.5625,-3.5 -0.26157,-0.341385 -0.51378,-0.694714 -0.78125,-1.03125 -0.1887,-0.237732 -0.37089,-0.483468 -0.5625,-0.71875 -0.0928,-0.113786 -0.18779,-0.230542 -0.28125,-0.34375 -2.70985,-3.286275 -5.6959,-6.301255 -8.9375,-9.0625 -0.29262,-0.249213 -0.57838,-0.505387 -0.875,-0.75 -0.26784,-0.220858 -0.54144,-0.439189 -0.8125,-0.65625 -0.63574,-0.509101 -1.28442,-1.01213 -1.9375,-1.5 -3.17042,-2.368098 -6.54991,-4.480939 -10.09375,-6.3125 -0.6168,-0.31908 -1.24793,-0.635647 -1.875,-0.9375 -0.15483,-0.07439 -0.3133,-0.145426 -0.46875,-0.21875 -0.78487,-0.37096 -1.57484,-0.719004 -2.375,-1.0625 -0.48783,-0.208994 -0.97542,-0.426428 -1.46875,-0.625 -0.73504,-0.296439 -1.47188,-0.57078 -2.21875,-0.84375 C 457.98321,10.263334 457.58245,10.13635 457.1875,10 456.46909,9.7515393 455.72856,9.4764502 455,9.25 454.8864,9.2148134 454.77009,9.1908956 454.65625,9.15625 454.16839,9.007218 453.67972,8.8890238 453.1875,8.75 452.83049,8.6495592 452.48425,8.5326228 452.125,8.4375 c -0.0195,-0.00518 -0.043,0.00516 -0.0625,0 -0.83667,-0.2207862 -1.68286,-0.4334559 -2.53125,-0.625 -0.0317,-0.0072 -0.062,-0.024093 -0.0937,-0.03125 -0.65123,-0.1461042 -1.31092,-0.2776642 -1.96875,-0.40625 -1.00302,-0.1971101 -2.01366,-0.3757129 -3.03125,-0.53125 -0.0626,-0.00952 -0.12483,-0.021893 -0.1875,-0.03125 -0.95206,-0.1429689 -1.87977,-0.2692042 -2.84375,-0.375 -0.83577,-0.091302 -1.68702,-0.1558179 -2.53125,-0.21875 -0.17592,-0.013157 -0.35498,-0.019343 -0.53125,-0.03125 -0.7347,-0.049469 -1.47808,-0.097346 -2.21875,-0.125 C 435.20525,6.0281378 434.27212,6 433.34375,6 L 147.5,6 78.65625,6 z"
     inkscape:connector-curvature="0"
     id="path3492"
     style="fill:#000000;fill-opacity:0.17647059;stroke:none;filter:url(#filter4375)" />
  <rect
     width="500"
     height="500"
     rx="72.644058"
     ry="72.644058"
     x="6"
     y="12"
     id="rect5028"
     style="opacity:0.15;fill:#000000;fill-opacity:1;stroke:none" />
  <rect
     width="500"
     height="500"
     rx="72.644058"
     ry="72.644058"
     x="6"
     y="6"
     id="rect4979"
     style="fill:url(#linearGradient4385);fill-opacity:1;stroke:none" />
  <rect
     width="434.99997"
     height="434.99997"
     rx="63.200329"
     ry="63.200329"
     x="38.500011"
     y="38.500011"
     id="rect4981"
     style="fill:#b5dd5e;fill-opacity:1;stroke:none" />
  <path
     d="M 101.6875,38.5 C 66.674518,38.5 38.5,66.674518 38.5,101.6875 l 0,308.625 c 0,35.01298 28.174518,63.1875 63.1875,63.1875 l 45.8125,0 0,-435 -45.8125,0 z"
     inkscape:connector-curvature="0"
     id="path3094"
     style="fill:#da6161;fill-opacity:1;stroke:none" />
  <path
     d="m 256.5,38.5 0,435 109,0 0,-435 -109,0 z"
     inkscape:connector-curvature="0"
     id="path3098"
     style="fill:#e2ae76;fill-opacity:1;stroke:none" />
  <path
     d="m 147.5,38.5 0,435 109,0 0,-435 -109,0 z"
     inkscape:connector-curvature="0"
     id="path3096"
     style="fill:#79abe3;fill-opacity:1;stroke:none" />
  <path
     d="M 101.6875,38.5 C 66.674518,38.5 38.5,66.674518 38.5,101.6875 l 0,15 C 38.5,81.674518 66.674518,53.5 101.6875,53.5 l 308.625,0 c 35.01298,0 63.1875,28.174518 63.1875,63.1875 l 0,-15 C 473.5,66.674518 445.32548,38.5 410.3125,38.5 l -308.625,0 z"
     inkscape:connector-curvature="0"
     id="rect3187"
     style="opacity:0.2;fill:#000000;fill-opacity:1;stroke:none" />
  <path
     d="M 78.65625,6 C 38.411442,6 6,38.411442 6,78.65625 l 0,7 C 6,45.411442 38.411442,13 78.65625,13 l 354.6875,0 C 473.58856,13 506,45.411442 506,85.65625 l 0,-7 C 506,38.411442 473.58856,6 433.34375,6 L 78.65625,6 z"
     inkscape:connector-curvature="0"
     id="rect4349"
     style="fill:#ffffff;fill-opacity:1;stroke:none" />
  <g
     transform="matrix(1.2333596,0,0,1.2333596,-40.018431,500.87299)"
     id="g3058">
    <path
       d="m 172.38553,-258.10638 -0.024,32.69228 c -0.024,28.60171 -0.069,32.33774 -0.3707,29.85507 -2.2078,-18.19345 -12.6463,-29.16236 -30.8143,-32.40211 -3.7773,-0.67357 -12.2289,-0.93487 -16.6363,-0.50779 -11.1152,1.07708 -20.356,4.91682 -26.139296,10.85712 -6.7397,6.92253 -10.0538,15.4179 -10.5186,26.9534 -0.4339,10.76813 1.9999,19.73748 7.2703,26.75995 5.851496,7.79659 15.780196,12.75148 28.283296,14.11346 3.2195,0.35065 11.3695,0.35021 14.5971,0 12.149,-1.31823 22.0507,-6.05188 27.2033,-13.00115 2.2344,-3.01366 3.7882,-6.31126 4.5379,-9.64809 l 0.2418,-1.07201 -8.6808,0.008 -8.6809,0.008 -0.7577,1.69265 c -1.652,3.69698 -4.4603,6.48946 -8.5277,8.47936 -9.0412,4.42326 -21.61,3.3437 -29.2264,-2.51479 -5.0639,-3.89514 -8.6169,-10.85317 -9.1242,-17.86146 l -0.072,-1.03171 33.7562,-0.0645 33.7643,-0.0645 -0.1692,13.21877 c -0.093,7.27086 -0.2411,14.64664 -0.3305,16.38644 l -0.1612,3.15961 8.2214,-0.0645 8.2214,-0.0725 0.1693,-1.67653 c 0.089,-0.92209 0.2439,-3.15853 0.3466,-4.97316 l 0.1854,-3.29663 1.8458,1.85385 c 4.6281,4.66296 11.0224,8.10166 18.0871,9.72063 3.9382,0.9025 6.9875,1.15272 12.1871,1.00753 5.1072,-0.14261 7.6839,-0.54609 12.0097,-1.88609 3.1355,-0.97125 8.5,-3.70436 11.0667,-5.64216 5.8941,-4.44974 10.2865,-10.42008 12.7351,-17.28918 l 0.8303,-2.32135 0.01,3.48202 c 0.01,2.98243 0.1062,3.81791 0.6851,5.7953 1.009,3.44587 2.4274,5.94731 4.8039,8.48742 4.77,5.09827 10.679,7.88334 19.2801,9.08387 4.3001,0.60021 13.9121,0.38968 18.0871,-0.39495 7.8286,-1.47122 13.4293,-4.38867 18.7804,-9.80123 l 2.3133,-2.34553 0.1853,3.4256 c 0.1034,1.88239 0.2648,4.17197 0.3547,5.09406 l 0.1612,1.67653 7.8345,0.0725 7.8265,0.0645 -0.1692,-1.22515 c -0.092,-0.67594 -0.2586,-12.60781 -0.3708,-26.51009 -0.1945,-24.10268 -0.2237,-25.3847 -0.7254,-27.59821 -0.2894,-1.27674 -0.7189,-2.76706 -0.9511,-3.32081 -0.2323,-0.55376 -0.392,-1.03643 -0.3547,-1.07201 0.062,-0.0594 15.2582,28.48918 26.8244,50.40059 l 4.8281,9.15642 -1.6362,3.11124 c -0.9031,1.71283 -3.88,7.34771 -6.6094,12.5256 -2.7294,5.17788 -5.3676,10.14606 -5.8598,11.03444 l -0.8947,1.61205 9.4627,-0.0645 9.4627,-0.0725 0.9592,-1.80549 c 0.5303,-0.99302 3.7905,-7.37672 7.2381,-14.186 3.4476,-6.80928 6.8729,-13.54118 7.6169,-14.95978 0.744,-1.4186 3.9355,-7.68623 7.093,-13.92807 6.1818,-12.2203 11.5531,-22.76854 15.3547,-30.17749 5.0396,-9.82153 13.5332,-26.6207 13.5332,-26.75995 0,-0.0803 -0.2032,-0.10394 -0.4514,-0.0564 -0.2483,0.0475 -4.2505,0.0939 -8.8985,0.10478 l -8.4552,0.0161 -14.2666,28.69441 -14.2666,28.6944 -14.3552,-28.6944 -14.3634,-28.69441 -9.2209,-0.0161 c -5.0713,-0.0105 -9.482,-0.0695 -9.8012,-0.12896 -0.3192,-0.0595 -0.5803,-0.0349 -0.5803,0.0564 0,0.20545 4.0634,7.98433 4.6185,8.84207 0.2216,0.34258 -0.8167,-0.58595 -2.3053,-2.06342 -4.7959,-4.76033 -10.0561,-7.19878 -18.9657,-8.78565 -2.9782,-0.53045 -4.1564,-0.5908 -10.9458,-0.59645 -6.7202,-0.006 -8.0373,0.063 -11.3165,0.58839 -11.0888,1.77669 -18.5673,5.74962 -22.7379,12.09034 -1.2284,1.86776 -2.6039,5.24059 -2.9259,7.16554 -0.095,0.56744 -0.237,1.3509 -0.3143,1.74101 l -0.1451,0.7093 8.8904,0 8.8824,0 0.1773,-1.08007 c 0.2062,-1.28927 1.1595,-3.26345 2.2327,-4.61851 1.0053,-1.26923 3.8578,-3.15652 5.9646,-3.94951 6.6759,-2.51279 17.206,-2.10816 23.1892,0.89469 5.1547,2.58701 7.6774,6.87912 8.1247,13.7991 l 0.1774,2.69212 -8.3585,0.008 c -21.4258,0.0108 -31.3815,1.08393 -39.7369,4.27192 -6.4793,2.47219 -11.0897,6.53045 -13.2752,11.69539 l -0.6126,1.43472 0.1935,-1.67653 c 0.3816,-3.31137 0.2229,-11.29558 -0.2821,-14.186 -0.9219,-5.27477 -3.1532,-10.95744 -6.0291,-15.33055 -1.6649,-2.53144 -6.9144,-7.697 -9.6158,-9.47076 -4.4995,-2.95441 -9.6804,-5.10339 -14.9195,-6.1822 -3.6775,-0.75724 -10.7773,-0.92979 -15.1694,-0.37077 -9.1454,1.16405 -15.9042,4.26252 -21.5611,9.88184 l -2.2568,2.24074 0,-20.94852 0,-20.94853 -8.3827,0 -8.3826,0 z m -42.2517,40.55906 c 5.8219,-0.0574 11.6877,1.34226 15.8706,4.17519 4.707,3.18795 8.0057,9.17483 8.5035,15.42728 l 0.1612,1.99893 -24.6965,0 -24.6965,0 0.1854,-1.35412 c 0.9378,-6.92807 4.9655,-13.28963 10.5427,-16.66048 3.889,-2.35054 8.9926,-3.53617 14.1296,-3.5868 z m 84.987,0.2821 c 8.7236,-0.10678 16.9985,3.87534 21.5208,10.53472 4.7533,6.99944 6.2916,17.2522 3.9657,26.42142 -2.7254,10.74369 -10.6143,17.76243 -21.5611,19.18334 -1.0504,0.13633 -2.7808,0.23124 -3.8448,0.21762 -16.1213,-0.2062 -26.7474,-12.38292 -25.962,-29.75029 0.675,-14.92324 9.4419,-24.92465 23.1651,-26.43754 0.9084,-0.10014 1.8139,-0.15822 2.7163,-0.16927 z m 105.4439,29.95986 -0.064,2.95811 c -0.2943,12.40668 -6.7915,20.51723 -18.6191,23.26181 -2.9819,0.69195 -10.8498,0.89093 -13.7266,0.34659 -8.3665,-1.58314 -13.2803,-6.99295 -12.7754,-14.05703 0.2954,-4.13381 2.4145,-7.16158 6.3676,-9.08388 5.0558,-2.45857 11.5686,-3.19858 29.4037,-3.34499 l 9.4143,-0.0806 z"
       inkscape:connector-curvature="0"
       id="path3056"
       style="opacity:0.2;fill:#000000;fill-opacity:1" />
    <path
       d="m 157.38553,-273.10638 -0.024,32.69228 c -0.024,28.60171 -0.069,32.33774 -0.3707,29.85507 -2.2078,-18.19345 -12.6463,-29.16236 -30.8143,-32.40211 -3.7773,-0.67357 -12.2289,-0.93487 -16.6363,-0.50779 -11.115196,1.07708 -20.355996,4.91682 -26.139296,10.85712 -6.7397,6.92253 -10.0538,15.4179 -10.5186,26.9534 -0.4339,10.76813 1.9999,19.73748 7.2703,26.75995 5.8515,7.79659 15.7802,12.75148 28.283296,14.11346 3.2195,0.35065 11.3695,0.35021 14.5971,0 12.149,-1.31823 22.0507,-6.05188 27.2033,-13.00115 2.2344,-3.01366 3.7882,-6.31126 4.5379,-9.64809 l 0.2418,-1.07201 -8.6808,0.008 -8.6809,0.008 -0.7577,1.69265 c -1.652,3.69698 -4.4603,6.48946 -8.5277,8.47936 -9.0412,4.42326 -21.61,3.3437 -29.226396,-2.51479 -5.0639,-3.89514 -8.6169,-10.85317 -9.1242,-17.86146 l -0.072,-1.03171 33.756196,-0.0645 33.7643,-0.0645 -0.1692,13.21877 c -0.093,7.27086 -0.2411,14.64664 -0.3305,16.38644 l -0.1612,3.15961 8.2214,-0.0645 8.2214,-0.0725 0.1693,-1.67653 c 0.089,-0.92209 0.2439,-3.15853 0.3466,-4.97316 l 0.1854,-3.29663 1.8458,1.85385 c 4.6281,4.66296 11.0224,8.10166 18.0871,9.72063 3.9382,0.9025 6.9875,1.15272 12.1871,1.00753 5.1072,-0.14261 7.6839,-0.54609 12.0097,-1.88609 3.1355,-0.97125 8.5,-3.70436 11.0667,-5.64216 5.8941,-4.44974 10.2865,-10.42008 12.7351,-17.28918 l 0.8303,-2.32135 0.01,3.48202 c 0.01,2.98243 0.1062,3.81791 0.6851,5.7953 1.009,3.44587 2.4274,5.94731 4.8039,8.48742 4.77,5.09827 10.679,7.88334 19.2801,9.08387 4.3001,0.60021 13.9121,0.38968 18.0871,-0.39495 7.8286,-1.47122 13.4293,-4.38867 18.7804,-9.80123 l 2.3133,-2.34553 0.1853,3.4256 c 0.1034,1.88239 0.2648,4.17197 0.3547,5.09406 l 0.1612,1.67653 7.8345,0.0725 7.8265,0.0645 -0.1692,-1.22515 c -0.092,-0.67594 -0.2586,-12.60781 -0.3708,-26.51009 -0.1945,-24.10268 -0.2237,-25.3847 -0.7254,-27.59821 -0.2894,-1.27674 -0.7189,-2.76706 -0.9511,-3.32081 -0.2323,-0.55376 -0.392,-1.03643 -0.3547,-1.07201 0.062,-0.0594 15.2582,28.48918 26.8244,50.40059 l 4.8281,9.15642 -1.6362,3.11124 c -0.9031,1.71283 -3.88,7.34771 -6.6094,12.5256 -2.7294,5.17788 -5.3676,10.14606 -5.8598,11.03444 l -0.8947,1.61205 9.4627,-0.0645 9.4627,-0.0725 0.9592,-1.80549 c 0.5303,-0.99302 3.7905,-7.37672 7.2381,-14.186 3.4476,-6.80928 6.8729,-13.54118 7.6169,-14.95978 0.744,-1.4186 3.9355,-7.68623 7.093,-13.92807 6.1818,-12.2203 11.5531,-22.76854 15.3547,-30.17749 5.0396,-9.82153 13.5332,-26.6207 13.5332,-26.75995 0,-0.0803 -0.2032,-0.10394 -0.4514,-0.0564 -0.2483,0.0475 -4.2505,0.0939 -8.8985,0.10478 l -8.4552,0.0161 -14.2666,28.69441 -14.2666,28.6944 -14.3552,-28.6944 -14.3634,-28.69441 -9.2209,-0.0161 c -5.0713,-0.0105 -9.482,-0.0695 -9.8012,-0.12896 -0.3192,-0.0595 -0.5803,-0.0349 -0.5803,0.0564 0,0.20545 4.0634,7.98433 4.6185,8.84207 0.2216,0.34258 -0.8167,-0.58595 -2.3053,-2.06342 -4.7959,-4.76033 -10.0561,-7.19878 -18.9657,-8.78565 -2.9782,-0.53045 -4.1564,-0.5908 -10.9458,-0.59645 -6.7202,-0.006 -8.0373,0.063 -11.3165,0.58839 -11.0888,1.77669 -18.5673,5.74962 -22.7379,12.09034 -1.2284,1.86776 -2.6039,5.24059 -2.9259,7.16554 -0.095,0.56744 -0.237,1.3509 -0.3143,1.74101 l -0.1451,0.7093 8.8904,0 8.8824,0 0.1773,-1.08007 c 0.2062,-1.28927 1.1595,-3.26345 2.2327,-4.61851 1.0053,-1.26923 3.8578,-3.15652 5.9646,-3.94951 6.6759,-2.51279 17.206,-2.10816 23.1892,0.89469 5.1547,2.58701 7.6774,6.87912 8.1247,13.7991 l 0.1774,2.69212 -8.3585,0.008 c -21.4258,0.0108 -31.3815,1.08393 -39.7369,4.27192 -6.4793,2.47219 -11.0897,6.53045 -13.2752,11.69539 l -0.6126,1.43472 0.1935,-1.67653 c 0.3816,-3.31137 0.2229,-11.29558 -0.2821,-14.186 -0.9219,-5.27477 -3.1532,-10.95744 -6.0291,-15.33055 -1.6649,-2.53144 -6.9144,-7.697 -9.6158,-9.47076 -4.4995,-2.95441 -9.6804,-5.10339 -14.9195,-6.1822 -3.6775,-0.75724 -10.7773,-0.92979 -15.1694,-0.37077 -9.1454,1.16405 -15.9042,4.26252 -21.5611,9.88184 l -2.2568,2.24074 0,-20.94852 0,-20.94853 -8.3827,0 -8.3826,0 z m -42.2517,40.55906 c 5.8219,-0.0574 11.6877,1.34226 15.8706,4.17519 4.707,3.18795 8.0057,9.17483 8.5035,15.42728 l 0.1612,1.99893 -24.6965,0 -24.696496,0 0.1854,-1.35412 c 0.9378,-6.92807 4.9655,-13.28963 10.542696,-16.66048 3.889,-2.35054 8.9926,-3.53617 14.1296,-3.5868 z m 84.987,0.2821 c 8.7236,-0.10678 16.9985,3.87534 21.5208,10.53472 4.7533,6.99944 6.2916,17.2522 3.9657,26.42142 -2.7254,10.74369 -10.6143,17.76243 -21.5611,19.18334 -1.0504,0.13633 -2.7808,0.23124 -3.8448,0.21762 -16.1213,-0.2062 -26.7474,-12.38292 -25.962,-29.75029 0.675,-14.92324 9.4419,-24.92465 23.1651,-26.43754 0.9084,-0.10014 1.8139,-0.15822 2.7163,-0.16927 z m 105.4439,29.95986 -0.064,2.95811 c -0.2943,12.40668 -6.7915,20.51723 -18.6191,23.26181 -2.9819,0.69195 -10.8498,0.89093 -13.7266,0.34659 -8.3665,-1.58314 -13.2803,-6.99295 -12.7754,-14.05703 0.2954,-4.13381 2.4145,-7.16158 6.3676,-9.08388 5.0558,-2.45857 11.5686,-3.19858 29.4037,-3.34499 l 9.4143,-0.0806 z"
       inkscape:connector-curvature="0"
       id="path3050"
       style="fill:#dcdbdb;fill-opacity:1" />
  </g>
  <g
     id="g3167">
    <path
       d="M 78.65625,6 C 63.792798,6 49.986224,10.429561 38.5,18.03125 l 0,475.9375 C 49.986224,501.57044 63.792798,506 78.65625,506 L 147.5,506 147.5,6 78.65625,6 z"
       inkscape:connector-curvature="0"
       id="rect3068"
       style="opacity:0.05;fill:url(#linearGradient3108);fill-opacity:1;stroke:none" />
    <path
       d="m 147.50001,6 0,500 109,0 0,-500 -109,0 z"
       inkscape:connector-curvature="0"
       id="path3135"
       style="opacity:0.05;fill:url(#linearGradient3137);fill-opacity:1;stroke:none" />
    <path
       d="m 256.50001,6 0,500 109,0 0,-500 -109,0 z"
       inkscape:connector-curvature="0"
       id="path3139"
       style="opacity:0.05;fill:url(#linearGradient3141);fill-opacity:1;stroke:none" />
    <path
       d="m 365.5,6 0,500 67.84375,0 c 14.85395,0 28.64317,-4.43849 40.125,-12.03125 l 0,-475.9375 C 461.98692,10.438491 448.1977,6 433.34375,6 L 365.5,6 z"
       inkscape:connector-curvature="0"
       id="path3143"
       style="opacity:0.05;fill:url(#linearGradient3145);fill-opacity:1;stroke:none" />
    <path
       d="M 38.5,18.03125 C 18.885717,31.012164 6,53.274894 6,78.65625 l 0,354.6875 c 0,25.38136 12.885717,47.64409 32.5,60.625 l 0,-475.9375 z"
       inkscape:connector-curvature="0"
       id="path3151"
       style="opacity:0.05;fill:url(#linearGradient3153);fill-opacity:1;stroke:none" />
    <path
       d="m 473.46875,18.03125 0,475.9375 C 493.09542,480.98993 506,458.73461 506,433.34375 l 0,-354.6875 c 0,-25.390862 -12.90458,-47.646179 -32.53125,-60.625 z"
       inkscape:connector-curvature="0"
       id="path3147"
       style="opacity:0.05;fill:url(#linearGradient3149);fill-opacity:1;stroke:none" />
  </g>
</svg>
