<?xml version="1.0" encoding="UTF-8" standalone="no"?>
<svg
   xmlns:dc="http://purl.org/dc/elements/1.1/"
   xmlns:cc="http://creativecommons.org/ns#"
   xmlns:rdf="http://www.w3.org/1999/02/22-rdf-syntax-ns#"
   xmlns:svg="http://www.w3.org/2000/svg"
   xmlns="http://www.w3.org/2000/svg"
   xmlns:xlink="http://www.w3.org/1999/xlink"
   xmlns:sodipodi="http://sodipodi.sourceforge.net/DTD/sodipodi-0.dtd"
   xmlns:inkscape="http://www.inkscape.org/namespaces/inkscape"
   viewBox="0 0 512 512"
   id="svg2"
   version="1.1"
   inkscape:version="0.48.4 r9939"
   width="100%"
   height="100%"
   sodipodi:docname="base.svg">
  <sodipodi:namedview
     pagecolor="#444444"
     bordercolor="#666666"
     borderopacity="1"
     objecttolerance="10"
     gridtolerance="10"
     guidetolerance="10"
     inkscape:pageopacity="0"
     inkscape:pageshadow="2"
     inkscape:window-width="1310"
     inkscape:window-height="718"
     id="namedview6"
     showgrid="false"
     showguides="true"
     inkscape:guide-bbox="true"
     inkscape:zoom="0.36635945"
     inkscape:cx="350.52322"
     inkscape:cy="62.052879"
     inkscape:window-x="54"
     inkscape:window-y="27"
     inkscape:window-maximized="1"
     inkscape:current-layer="svg2"
     inkscape:snap-midpoints="true"
     inkscape:snap-global="false">
    <sodipodi:guide
       id="guide2989"
       position="522.57628,433.35594"
       orientation="0,1" />
    <sodipodi:guide
       id="guide2995"
       position="473.05444,254.912"
       orientation="1,0" />
  </sodipodi:namedview>
  <metadata
     id="metadata10">
    <rdf:RDF>
      <cc:Work
         rdf:about="">
        <dc:format>image/svg+xml</dc:format>
        <dc:type
           rdf:resource="http://purl.org/dc/dcmitype/StillImage" />
        <dc:title></dc:title>
      </cc:Work>
    </rdf:RDF>
  </metadata>
  <defs
     id="defs8">
    <linearGradient
       id="linearGradient4996">
      <stop
         style="stop-color:#000000;stop-opacity:1;"
         offset="0"
         id="stop4998" />
      <stop
         style="stop-color:#ffffff;stop-opacity:1;"
         offset="1"
         id="stop5000" />
    </linearGradient>
    <linearGradient
       inkscape:collect="always"
       xlink:href="#linearGradient4996"
       id="linearGradient3108"
       gradientUnits="userSpaceOnUse"
       gradientTransform="matrix(1.0380952,0,0,1.4619252,-228.28943,-118.25286)"
       x1="257"
       y1="256"
       x2="362"
       y2="256" />
    <linearGradient
       inkscape:collect="always"
       xlink:href="#linearGradient4996"
       id="linearGradient3137"
       gradientUnits="userSpaceOnUse"
       gradientTransform="matrix(1.0380952,0,0,1.4619252,-119.28943,-118.25286)"
       x1="257"
       y1="256"
       x2="362"
       y2="256" />
    <linearGradient
       inkscape:collect="always"
       xlink:href="#linearGradient4996"
       id="linearGradient3141"
       gradientUnits="userSpaceOnUse"
       gradientTransform="matrix(1.0380952,0,0,1.4619252,-10.28943,-118.25286)"
       x1="257"
       y1="256"
       x2="362"
       y2="256" />
    <linearGradient
       inkscape:collect="always"
       xlink:href="#linearGradient4996"
       id="linearGradient3145"
       gradientUnits="userSpaceOnUse"
       gradientTransform="matrix(1.0283468,0,0,1.4619252,101.21591,-118.25286)"
       x1="257"
       y1="256"
       x2="362"
       y2="256" />
    <linearGradient
       inkscape:collect="always"
       xlink:href="#linearGradient4996"
       id="linearGradient3149"
       gradientUnits="userSpaceOnUse"
       gradientTransform="matrix(1.0283468,0,0,1.4619252,209.19233,-118.25286)"
       x1="257"
       y1="256"
       x2="362"
       y2="256" />
    <linearGradient
       inkscape:collect="always"
       xlink:href="#linearGradient4996"
       id="linearGradient3153"
       gradientUnits="userSpaceOnUse"
       gradientTransform="matrix(1.0380952,0,0,1.4619252,-337.28943,-118.25286)"
       x1="257"
       y1="256"
       x2="362"
       y2="256" />
  </defs>
  <rect
     style="opacity:0.2;fill:#000000;fill-opacity:1;stroke:none"
     id="rect5028"
     width="500"
     height="500"
     x="6"
     y="12"
     rx="72.644058"
     ry="72.644058" />
  <rect
     ry="72.644058"
     rx="72.644058"
     y="6"
     x="6"
     height="500"
     width="500"
     id="rect4979"
     style="fill:#f3f3f3;fill-opacity:1;stroke:none" />
  <rect
     style="fill:#68af4c;fill-opacity:1;stroke:none"
     id="rect4981"
     width="434.99997"
     height="434.99997"
     x="38.500011"
     y="38.500011"
     rx="63.200329"
     ry="63.200329" />
  <path
     style="fill:#000000;fill-opacity:1;stroke:none;opacity:0.2"
     d="M 101.6875 38.5 C 66.674518 38.5 38.5 66.674518 38.5 101.6875 L 38.5 116.6875 C 38.5 81.674518 66.674518 53.5 101.6875 53.5 L 410.3125 53.5 C 445.32548 53.5 473.5 81.674518 473.5 116.6875 L 473.5 101.6875 C 473.5 66.674518 445.32548 38.5 410.3125 38.5 L 101.6875 38.5 z "
     id="rect3187" />
  <text
     style="font-size:129.22999573px;line-height:125%;letter-spacing:0;word-spacing:0;font-family:Gentium Book Basic"
     sodipodi:linespacing="125%"
     font-size="129.23"
     letter-spacing="0"
     line-height="125%"
     word-spacing="0"
     x="230.7092"
     y="144.80025"
     id="text3051">
    <tspan
       x="230.7092"
       y="144.80025"
       id="tspan3053" />
  </text>
  <text
     style="font-size:46.95375824px;text-anchor:middle;font-family:Arial"
     x="254.57387"
     y="231.89828"
     font-size="46.954"
     transform="scale(4.0128205,0.24920128)"
     id="text3055" />
  <text
     style="font-size:129.22999573px;line-height:125%;letter-spacing:0;word-spacing:0;font-family:Gentium Book Basic"
     sodipodi:linespacing="125%"
     font-size="129.23"
     letter-spacing="0"
     line-height="125%"
     word-spacing="0"
     x="811.97919"
     y="64.800247"
     id="text3057">
    <tspan
       x="811.97919"
       y="64.800247"
       id="tspan3059" />
  </text>
  <text
     style="font-size:46.95375824px;text-anchor:middle;font-family:Arial"
     x="399.42313"
     y="-89.130066"
     font-size="46.954"
     transform="scale(4.0128205,0.24920128)"
     id="text3061" />
  <text
     style="font-size:129.22999573px;line-height:125%;letter-spacing:0;word-spacing:0;font-family:Gentium Book Basic"
     sodipodi:linespacing="125%"
     font-size="129.23"
     letter-spacing="0"
     line-height="125%"
     word-spacing="0"
     x="-259.60083"
     y="-116.46075"
     id="text3063">
    <tspan
       x="-259.60083"
       y="-116.46075"
       id="tspan3065" />
  </text>
  <text
     style="font-size:46.95375824px;text-anchor:middle;font-family:Arial"
     x="132.38449"
     y="-816.48633"
     font-size="46.954"
     transform="scale(4.0128205,0.24920128)"
     id="text3067" />
  <text
     style="font-size:129.22999573px;line-height:125%;letter-spacing:0;word-spacing:0;font-family:Gentium Book Basic"
     sodipodi:linespacing="125%"
     font-size="129.23"
     letter-spacing="0"
     line-height="125%"
     word-spacing="0"
     x="838.44916"
     y="-332.92975"
     id="text3069">
    <tspan
       x="838.44916"
       y="-332.92975"
       id="tspan3071" />
  </text>
  <text
     style="font-size:46.95375824px;text-anchor:middle;font-family:Arial"
     x="406.02307"
     y="-1685.152"
     font-size="46.954"
     transform="scale(4.0128205,0.24920128)"
     id="text3073" />
  <text
     style="font-size:129.22999573px;line-height:125%;letter-spacing:0;word-spacing:0;font-family:Gentium Book Basic"
     sodipodi:linespacing="125%"
     font-size="129.23"
     letter-spacing="0"
     line-height="125%"
     word-spacing="0"
     x="1419.7192"
     y="-412.93976"
     id="text3075">
    <tspan
       x="1419.7192"
       y="-412.93976"
       id="tspan3077" />
  </text>
  <text
     style="font-size:46.95375824px;text-anchor:middle;font-family:Arial"
     x="550.87238"
     y="-2006.1902"
     font-size="46.954"
     transform="scale(4.0128205,0.24920128)"
     id="text3079" />
  <text
     style="font-size:129.22999573px;line-height:125%;letter-spacing:0;word-spacing:0;font-family:Gentium Book Basic"
     sodipodi:linespacing="125%"
     font-size="129.23"
     letter-spacing="0"
     line-height="125%"
     word-spacing="0"
     x="1030.5992"
     y="-885.33978"
     id="text3081">
    <tspan
       x="1030.5992"
       y="-885.33978"
       id="tspan3083" />
  </text>
  <text
     style="font-size:46.95375824px;text-anchor:middle;font-family:Arial"
     x="453.90283"
     y="-3901.8406"
     font-size="46.954"
     transform="scale(4.0128205,0.24920128)"
     id="text3085" />
  <text
     style="font-size:129.22999573px;line-height:125%;letter-spacing:0;word-spacing:0;font-family:Gentium Book Basic"
     sodipodi:linespacing="125%"
     font-size="129.23"
     letter-spacing="0"
     line-height="125%"
     word-spacing="0"
     x="1611.8593"
     y="-965.33978"
     id="text3087">
    <tspan
       x="1611.8593"
       y="-965.33978"
       id="tspan3089" />
  </text>
  <text
     style="font-size:46.95375824px;text-anchor:middle;font-family:Arial"
     x="598.75214"
     y="-4222.8691"
     font-size="46.954"
     transform="scale(4.0128205,0.24920128)"
     id="text3091" />
  <text
     style="font-size:208.33000183px;line-height:125%;letter-spacing:0;word-spacing:0;font-family:Gentium Book Basic"
     sodipodi:linespacing="125%"
     font-size="208.33"
     letter-spacing="0"
     line-height="125%"
     word-spacing="0"
     x="-220.94083"
     y="449.38025"
     id="text3093">
    <tspan
       x="-220.94083"
       y="449.38025"
       id="tspan3095" />
  </text>
  <g
     id="g3173"
     transform="translate(484.78799,103.05057)">
    <path
       style="opacity:0.2;fill:#000000;fill-opacity:1"
       inkscape:connector-curvature="0"
       d="m -338.85566,62.796257 c 0,0 0,0 0.0212,-9.18e-4 l 31.89811,-1.492414 c 1.82787,-0.08591 3.22849,-1.636977 3.14715,-3.44337 3.6e-4,-0.01205 -1.66004,-27.216994 -2.01623,-34.793968 l -0.003,-0.08981 c -0.29109,-6.219098 0.76567,-11.702433 2.83535,-16.353102 l 0.99539,-2.0913163 c -0.12109,0.02528 -0.24092,0.09085 -0.35609,0.218487 l -59.1126,64.1129013 c -0.11668,0.104153 -0.1861,0.237466 -0.21464,0.371771 1.25214,-0.69159 2.96419,-1.63785 3.20687,-1.75784 5.2811,-2.676875 11.76565,-4.314032 19.6003,-4.680722 m 247.89354,-18.28059 c -3.16604,-13.390019 -11.54142,-19.67022 -18.95412,-21.947377 -7.99788,-2.46329 -24.08085,-4.651708 -44.23637,-6.065532 -16.21115,-1.137215 -35.15404,-0.09903 -46.5809,0.788078 -1.81286,-9.3075952 -8.81347,-17.5609083 -16.33691,-20.1800033 -20.04596,-6.967176 -50.3599,-3.638496 -58.06638,-1.094401 -6.1212,2.016561 -12.82367,5.87726 -16.3873,11.5077551 -2.39261,3.7621592 -3.83165,8.5055282 -3.53999,15.0255832 0.17237,3.689054 0.68246,12.375476 1.13815,20.091879 0.45639,7.74131 0.88251,14.665059 0.88443,14.712341 0.31954,6.896146 -5.02591,12.771071 -11.98367,13.105933 l -31.8984,1.491299 c -6.80573,0.318026 -11.95099,1.700279 -15.83721,3.683162 -3.89401,1.984976 -6.59749,4.542338 -8.60391,7.511569 -3.99394,5.897544 -4.40481,12.961918 -4.05147,20.135788 0,0 0.33712,5.86024 2.28677,17.14099 1.59003,8.72566 14.02234,69.62119 23.97442,87.84607 3.86027,7.09331 6.34726,10.00683 13.41362,12.88222 15.71873,5.85039 51.26283,11.51228 67.86096,12.83617 16.56713,1.3286 27.11048,5.25587 32.66752,-7.8965 0.0185,-0.0336 1.08409,-3.25859 2.5349,-7.98481 4.59236,-16.39133 4.66692,-30.74884 4.18182,-41.11243 -0.0494,-1.05381 1.5013,-1.17537 1.55288,-0.0732 0.34257,7.31655 0.15046,33.27572 20.11336,39.29969 7.87771,2.37599 24.0777,4.06466 40.50646,5.20689 14.85408,1.00018 25.84841,6.28947 27.614,44.04104 1.07542,22.97047 -3.62167,26.3464 -28.94538,27.5314 -20.5277,0.96097 -28.3238,1.85504 -29.09087,-14.38594 -0.61422,-13.12863 12.4864,-12.3624 22.1478,-12.81469 4.3157,-0.20167 1.03326,-3.25214 0.65539,-11.35146 -0.37714,-8.05649 4.46378,-12.95144 -0.32667,-12.84481 -33.45073,0.64783 -53.06845,2.44516 -51.12196,44.06035 1.76709,37.77507 16.61217,44.11526 64.0282,41.89536 37.17668,-1.73939 50.22556,-3.56536 63.35482,-51.72339 2.60029,-9.5067 8.609882,-38.42866 10.810486,-86.62291 C -75.80451,158.73922 -85.54997,67.419873 -90.96312,44.506428 M -151.0321,148.76116 c -4.59981,0.0555 -9.00406,0.55098 -13.09296,1.40285 0.72354,-9.38023 4.05169,-21.00454 17.76522,-21.16608 15.18037,-0.19014 17.97064,13.97808 18.4778,23.63912 -6.52345,-2.53933 -14.51891,-3.97685 -23.15006,-3.87589"
       id="path3171" />
    <path
       id="path3097"
       d="m -353.85566,47.796257 c 0,0 0,0 0.0212,-9.18e-4 l 31.89811,-1.492414 c 1.82787,-0.08591 3.22849,-1.636977 3.14715,-3.44337 3.6e-4,-0.01205 -1.66004,-27.216994 -2.01623,-34.7939679 l -0.003,-0.089807 c -0.29109,-6.2190983 0.76567,-11.7024328 2.83535,-16.3531021 l 0.99539,-2.091316 c -0.12109,0.02528 -0.24092,0.09085 -0.35609,0.218487 l -59.1126,64.112901 c -0.11668,0.104153 -0.1861,0.237466 -0.21464,0.371771 1.25214,-0.69159 2.96419,-1.63785 3.20687,-1.75784 5.2811,-2.676875 11.76565,-4.314032 19.6003,-4.680722 m 247.89354,-18.28059 C -109.12635,16.12535 -117.50173,9.8451488 -124.91443,7.5679925 -132.91231,5.1047017 -148.99528,2.9162845 -169.1508,1.50246 c -16.21115,-1.13721511 -35.15404,-0.099029 -46.5809,0.7880781 -1.81286,-9.3075953 -8.81347,-17.5609081 -16.33691,-20.1800031 -20.04596,-6.967176 -50.3599,-3.638496 -58.06638,-1.094401 -6.1212,2.016561 -12.82367,5.87726 -16.3873,11.5077548 -2.39261,3.762159 -3.83165,8.5055285 -3.53999,15.0255837 0.17237,3.6890535 0.68246,12.3754755 1.13815,20.0918785 0.45639,7.74131 0.88251,14.665059 0.88443,14.712341 0.31954,6.896146 -5.02591,12.771071 -11.98367,13.105933 l -31.8984,1.491299 c -6.80573,0.318026 -11.95099,1.700279 -15.83721,3.683162 -3.89401,1.984976 -6.59749,4.542338 -8.60391,7.511569 -3.99394,5.897544 -4.40481,12.961918 -4.05147,20.135788 0,0 0.33712,5.86024 2.28677,17.140987 1.59003,8.72566 14.02234,69.62119 23.97442,87.84607 3.86027,7.09331 6.34726,10.00683 13.41362,12.88222 15.71873,5.85039 51.26283,11.51228 67.86096,12.83617 16.56713,1.3286 27.11048,5.25587 32.66752,-7.8965 0.0185,-0.0336 1.08409,-3.25859 2.5349,-7.98481 4.59236,-16.39133 4.66692,-30.74884 4.18182,-41.11243 -0.0494,-1.05381 1.5013,-1.17537 1.55288,-0.0732 0.34257,7.31655 0.15046,33.27572 20.11336,39.29969 7.87771,2.37599 24.0777,4.06466 40.50646,5.20689 14.85408,1.00018 25.84841,6.28947 27.614,44.04104 1.07542,22.97047 -3.62167,26.3464 -28.94538,27.5314 -20.5277,0.96097 -28.3238,1.85504 -29.09087,-14.38594 -0.61422,-13.12863 12.4864,-12.3624 22.1478,-12.81469 4.3157,-0.20167 1.03326,-3.25214 0.65539,-11.35146 -0.37714,-8.05649 4.46378,-12.95144 -0.32667,-12.84481 -33.45073,0.64783 -53.06845,2.44516 -51.12196,44.06035 1.76709,37.77507 16.61217,44.11526 64.0282,41.89536 37.17668,-1.73939 50.22556,-3.56536 63.35482,-51.72339 2.60029,-9.5067 8.609882,-38.42866 10.810486,-86.62291 C -90.80451,143.73922 -100.54997,52.419873 -105.96312,29.506428 M -166.0321,133.76116 c -4.59981,0.0555 -9.00406,0.55098 -13.09296,1.40285 0.72354,-9.38023 4.05169,-21.00454 17.76522,-21.16608 15.18037,-0.19014 17.97064,13.97808 18.4778,23.63912 -6.52345,-2.53933 -14.51891,-3.97685 -23.15006,-3.87589"
       inkscape:connector-curvature="0"
       style="fill:#dcdbdb;fill-opacity:1" />
  </g>
  <g
     id="g3167">
    <path
       id="rect3068"
       d="M 78.65625 6 C 63.792798 6 49.986224 10.429561 38.5 18.03125 L 38.5 493.96875 C 49.986224 501.57044 63.792798 506 78.65625 506 L 147.5 506 L 147.5 6 L 78.65625 6 z "
       style="opacity:0.05000000000000000;fill:url(#linearGradient3108);fill-opacity:1;stroke:none" />
    <path
       inkscape:connector-curvature="0"
       style="opacity:0.05;fill:url(#linearGradient3137);fill-opacity:1;stroke:none"
       d="m 147.50001,6 0,500 109,0 0,-500 -109,0 z"
       id="path3135" />
    <path
       id="path3139"
       d="m 256.50001,6 0,500 109,0 0,-500 -109,0 z"
       style="opacity:0.05;fill:url(#linearGradient3141);fill-opacity:1;stroke:none"
       inkscape:connector-curvature="0" />
    <path
       id="path3143"
       d="M 365.5 6 L 365.5 506 L 433.34375 506 C 448.1977 506 461.98692 501.56151 473.46875 493.96875 L 473.46875 18.03125 C 461.98692 10.438491 448.1977 6 433.34375 6 L 365.5 6 z "
       style="opacity:0.05000000000000000;fill:url(#linearGradient3145);fill-opacity:1;stroke:none" />
    <path
       id="path3151"
       d="M 38.5 18.03125 C 18.885717 31.012164 6 53.274894 6 78.65625 L 6 433.34375 C 6 458.72511 18.885717 480.98784 38.5 493.96875 L 38.5 18.03125 z "
       style="opacity:0.05000000000000000;fill:url(#linearGradient3153);fill-opacity:1;stroke:none" />
    <path
       id="path3147"
       d="M 473.46875 18.03125 L 473.46875 493.96875 C 493.09542 480.98993 506 458.73461 506 433.34375 L 506 78.65625 C 506 53.265388 493.09542 31.010071 473.46875 18.03125 z "
       style="opacity:0.05000000000000000;fill:url(#linearGradient3149);fill-opacity:1;stroke:none" />
  </g>
</svg>
