<svg xmlns="http://www.w3.org/2000/svg" xmlns:xlink="http://www.w3.org/1999/xlink" viewBox="0 0 512 512"><defs><filter id="7"><feGaussianBlur stdDeviation="3.7725"/></filter><linearGradient id="8" y1="19.564" x2="0" y2="504.02" gradientUnits="userSpaceOnUse"><stop stop-color="#f3f3f3"/><stop offset=".5" stop-color="#eee"/><stop offset="1" stop-color="#ebebeb"/></linearGradient><linearGradient xlink:href="#0" id="5" gradientUnits="userSpaceOnUse" gradientTransform="matrix(1.02835 0 0 1.46193 209.19-118.25)" x1="257" x2="362"/><linearGradient xlink:href="#0" id="6" gradientUnits="userSpaceOnUse" gradientTransform="matrix(1.0381 0 0 1.46193-337.29-118.25)" x1="257" x2="362"/><linearGradient xlink:href="#0" id="4" gradientUnits="userSpaceOnUse" gradientTransform="matrix(1.02835 0 0 1.46193 101.22-118.25)" x1="257" x2="362"/><linearGradient xlink:href="#0" id="3" gradientUnits="userSpaceOnUse" gradientTransform="matrix(1.0381 0 0 1.46193-10.289-118.25)" x1="257" x2="362"/><linearGradient id="0"><stop/><stop offset="1" stop-color="#fff"/></linearGradient><linearGradient xlink:href="#0" id="2" gradientUnits="userSpaceOnUse" gradientTransform="matrix(1.0381 0 0 1.46193-119.29-118.25)" x1="257" x2="362"/><linearGradient xlink:href="#0" id="1" gradientUnits="userSpaceOnUse" gradientTransform="matrix(1.0381 0 0 1.46193-228.29-118.25)" x1="257" x2="362"/></defs><path d="m78.66 6c-.929 0-1.861.028-2.781.063-.073.003-.146-.003-.219 0-.668.027-1.337.08-2 .125-.376.025-.751.063-1.125.094-.645.053-1.297.086-1.938.156-.965.106-1.922.232-2.875.375-.052.008-.104.023-.156.031-1.082.165-2.154.351-3.219.563-.459.091-.919.182-1.375.281-.39.085-.769.19-1.156.281-.647.152-1.297.299-1.938.469-.898.238-1.804.479-2.688.75-.211.065-.414.152-.625.219-.991.314-1.966.645-2.938 1-.817.298-1.635.611-2.438.938-.29.118-.587.222-.875.344-.136.057-.27.129-.406.188-.082.035-.169.058-.25.094-.717.311-1.42.636-2.125.969-.147.069-.291.148-.438.219-.947.455-1.889.943-2.813 1.438-.271.145-.544.289-.813.438-.414.228-.81.483-1.219.719-.52.3-1.051.594-1.563.906-.738.452-1.467.898-2.188 1.375-.031.021-.062.042-.094.063-.456.303-.895.625-1.344.938-.123.086-.252.163-.375.25-.524.37-1.049.742-1.563 1.125-1.835 1.371-3.618 2.84-5.313 4.375-.017.015-.046.016-.063.031-.526.477-1.02.977-1.531 1.469-.524.505-1.054 1.011-1.563 1.531-.512.523-1 1.055-1.5 1.594-.941 1.022-1.837 2.05-2.719 3.125-.631.769-1.244 1.58-1.844 2.375-.111.148-.233.289-.344.438-.526.71-1.031 1.427-1.531 2.156-.11.16-.235.308-.344.469-.013.019-.018.043-.031.063-.084.125-.167.249-.25.375-.47.708-.929 1.431-1.375 2.156-.071.116-.148.227-.219.344-.575.948-1.124 1.899-1.656 2.875-.152.278-.289.564-.438.844-.18.341-.356.687-.531 1.031-.243.479-.486.952-.719 1.438-.426.885-.828 1.783-1.219 2.688-.24.556-.461 1.124-.688 1.688-.038.095-.087.186-.125.281-.246.621-.489 1.245-.719 1.875-.332.909-.641 1.825-.938 2.75-.11.345-.238.684-.344 1.031-.301.99-.585 1.992-.844 3-.008.032-.023.062-.031.094-.267 1.046-.497 2.092-.719 3.156-.034.166-.06.334-.094.5-.426 2.117-.762 4.257-1 6.438-.035.323-.063.645-.094.969-.09.938-.165 1.895-.219 2.844-.017.29-.018.584-.031.875-.051 1.119-.094 2.243-.094 3.375v354.69 6c0 40.24 32.411 72.66 72.66 72.66h354.69c40.24 0 72.66-32.411 72.66-72.66v-354.69-6c0-1.259-.031-2.507-.094-3.75-.016-.323-.042-.647-.063-.969-.058-.917-.127-1.843-.219-2.75-.02-.2-.041-.394-.063-.594-.246-2.245-.587-4.447-1.031-6.625-.021-.104-.041-.209-.063-.313-.227-1.087-.476-2.15-.75-3.219-.011-.042-.02-.083-.031-.125-.19-.732-.413-1.464-.625-2.188-.212-.724-.423-1.442-.656-2.156-.258-.789-.529-1.567-.813-2.344-.23-.63-.472-1.254-.719-1.875-.038-.096-.087-.186-.125-.281-.239-.594-.465-1.195-.719-1.781-.378-.871-.777-1.741-1.188-2.594-.233-.485-.475-.958-.719-1.438-.287-.564-.574-1.132-.875-1.688-.051-.094-.105-.188-.156-.281-.513-.936-1.041-1.871-1.594-2.781-.212-.35-.438-.685-.656-1.031-.405-.642-.795-1.278-1.219-1.906-.809-1.199-1.685-2.354-2.563-3.5-.262-.341-.514-.695-.781-1.031-.189-.238-.371-.483-.563-.719-.093-.114-.188-.231-.281-.344-2.71-3.286-5.696-6.301-8.938-9.06-.293-.249-.578-.505-.875-.75-.268-.221-.541-.439-.813-.656-.636-.509-1.284-1.012-1.938-1.5-3.17-2.368-6.55-4.481-10.09-6.313-.617-.319-1.248-.636-1.875-.938-.155-.074-.313-.145-.469-.219-.785-.371-1.575-.719-2.375-1.063-.488-.209-.975-.426-1.469-.625-.735-.296-1.472-.571-2.219-.844-.392-.143-.793-.27-1.188-.406-.718-.248-1.459-.524-2.188-.75-.114-.035-.23-.059-.344-.094-.488-.149-.977-.267-1.469-.406-.357-.1-.703-.217-1.063-.313-.019-.005-.043.005-.063 0-.837-.221-1.683-.433-2.531-.625-.032-.007-.062-.024-.094-.031-.651-.146-1.311-.278-1.969-.406-1-.197-2.01-.376-3.03-.531-.063-.01-.125-.022-.188-.031-.952-.143-1.88-.269-2.844-.375-.836-.091-1.687-.156-2.531-.219-.176-.013-.355-.019-.531-.031-.735-.049-1.478-.097-2.219-.125-.92-.034-1.853-.063-2.781-.063h-285.84-68.844" filter="url(#7)" fill-opacity=".176"/><rect width="500" height="500" x="6" y="12" rx="72.64" opacity=".15"/><rect rx="72.64" y="6" x="6" height="500" width="500" fill="url(#8)"/><rect width="435" height="435" x="38.5" y="38.5" rx="63.2" fill="#f38725"/><path d="m101.69 38.5c-35.01 0-63.19 28.17-63.19 63.19v15c0-35.01 28.17-63.19 63.19-63.19h308.63c35.01 0 63.19 28.17 63.19 63.19v-15c0-35.01-28.17-63.19-63.19-63.19h-308.62" opacity=".2"/><path d="m78.66 6c-40.24 0-72.66 32.411-72.66 72.66v7c0-40.24 32.411-72.66 72.66-72.66h354.69c40.24 0 72.66 32.411 72.66 72.66v-7c0-40.24-32.411-72.66-72.66-72.66h-354.69" fill="#fff"/><text font-size="208.33" letter-spacing="0" line-height="125%" word-spacing="0" y="530.48" x="-1815.03" font-family="Gentium Book Basic"><tspan y="530.48" x="-1815.03"/></text><text transform="scale(4.0128.2492)" font-size="75.7" y="1565.84" x="-134.58" font-family="Arial" text-anchor="middle"/><text font-size="129.23" letter-spacing="0" line-height="125%" word-spacing="0" x="75.09" y="212.32" font-family="Gentium Book Basic"><tspan x="75.09" y="212.32"/></text><text x="215.79" y="502.86" font-size="46.954" transform="scale(4.0128.2492)" font-family="Arial" text-anchor="middle"/><text font-size="129.23" letter-spacing="0" line-height="125%" word-spacing="0" x="656.36" y="132.32" font-family="Gentium Book Basic"><tspan x="656.36" y="132.32"/></text><text x="360.64" y="181.82" font-size="46.954" transform="scale(4.0128.2492)" font-family="Arial" text-anchor="middle"/><text font-size="129.23" letter-spacing="0" line-height="125%" word-spacing="0" x="-415.22" y="-48.938" font-family="Gentium Book Basic"><tspan x="-415.22" y="-48.938"/></text><text x="93.6" y="-545.52" font-size="46.954" transform="scale(4.0128.2492)" font-family="Arial" text-anchor="middle"/><text font-size="129.23" letter-spacing="0" line-height="125%" word-spacing="0" x="682.83" y="-265.41" font-family="Gentium Book Basic"><tspan x="682.83" y="-265.41"/></text><text x="367.24" y="-1414.19" font-size="46.954" transform="scale(4.0128.2492)" font-family="Arial" text-anchor="middle"/><text font-size="129.23" letter-spacing="0" line-height="125%" word-spacing="0" x="1264.1" y="-345.41" font-family="Gentium Book Basic"><tspan x="1264.1" y="-345.41"/></text><text x="512.09" y="-1735.22" font-size="46.954" transform="scale(4.0128.2492)" font-family="Arial" text-anchor="middle"/><text font-size="129.23" letter-spacing="0" line-height="125%" word-spacing="0" x="874.98" y="-817.81" font-family="Gentium Book Basic"><tspan x="874.98" y="-817.81"/></text><text x="415.12" y="-3630.86" font-size="46.954" transform="scale(4.0128.2492)" font-family="Arial" text-anchor="middle"/><text font-size="129.23" letter-spacing="0" line-height="125%" word-spacing="0" x="1456.24" y="-897.82" font-family="Gentium Book Basic"><tspan x="1456.24" y="-897.82"/></text><text x="559.97" y="-3951.9" font-size="46.954" transform="scale(4.0128.2492)" font-family="Arial" text-anchor="middle"/><text font-size="208.33" letter-spacing="0" line-height="125%" word-spacing="0" x="-376.56" y="516.9" font-family="Gentium Book Basic"><tspan x="-376.56" y="516.9"/></text><g transform="translate(645.28 13.28)"><path d="m-384.37 87.3c-45.11 0-85.9 18.532-115.2 48.36 1.364 1.657 2.996 3.245 4.959 4.738h.032c.305-.31.577-.64.884-.948 14.202-14.202 30.743-25.322 49.15-33.1 19.05-8.06 39.3-12.161 60.17-12.161 19.703 0 38.842 3.648 56.952 10.834 10.579 1.828 24.702 5.356 36.452 12.03-26.361-18.723-58.6-29.755-93.4-29.755m58.4 21.985c33.669 19.235 50.16 49.5 50.16 49.5-17.18-16.49-30.924-15.13-30.924-15.13 10.306 7.558 15.11 15.807 24.733 30.924 9.62 15.12 8.939 50.824 8.939 50.824-4.809-11.681-14.435-16.488-14.435-16.488 0 0 2.068 20.633 3.443 32.31 1.375 11.681-4.801 33.672-4.801 33.672 0-8.245-4.801-10.329-4.801-10.329 0 0 1.375 4.83-5.496 26.817-6.871 21.987-19.924 29.526-21.985 28.839-2.061-.687 0-4.106 0-4.106 0 0-3.435-2.756-8.244 4.801-4.053 6.374-11.05 9.819-13.14 10.74 2.241-1.272 2.811-5.938 2.811-5.938 0 0-4.798 2.755-26.786 6.191-21.987 3.436-32.28-6.191-32.28-6.191 2.061-2.061 11.656 0 11.656 0 0-2.061-10.991-5.48-21.985-6.854-8.939-1.117-13.278-5.267-15.351-8.592-4.122-2.769-7.555-5.808-10.424-9.03-3.287-3.695-5.804-7.642-7.676-11.624-3.746-7.978-4.958-16.15-4.959-23.374.001-6.822 1.088-12.825 2.148-17.15 1.061-4.326 2.1-6.984 2.148-7.107l.158.063c1.291-3.97 3.825-7.164 6.823-8.465-.941-.642-1.909-1.243-2.906-1.769-4.487-2.4-9.56-3.387-14.562-2.559-5.01.793-9.825 3.28-14.09 6.539-4.091 3.12-7.34 7.571-9.476 12.477-2.151 4.921-3.223 10.338-3.222 15.794-.005 5.462 1.081 10.941 3.064 16.11 1.975 5.175 4.844 10.04 8.307 14.435 3.47 4.402 7.504 8.353 11.908 11.877-4.593-3.275-8.873-7.01-12.635-11.277-3.76-4.257-6.97-9.06-9.318-14.309-2.351-5.243-3.816-10.92-4.138-16.741-.323-5.814.494-11.757 2.559-17.31 2.068-5.538 5.332-10.704 10.01-14.72 2.261-1.893 4.75-3.631 7.423-5.05 2.668-1.424 5.57-2.533 8.623-3.159 3.053-.627 6.236-.751 9.35-.316 3.118.425 6.139 1.386 8.939 2.716 2.802 1.329 5.4 3.01 7.77 4.928 1.185.961 2.299 1.981 3.38 3.064.541.54 1.065 1.1 1.579 1.674.429.482.834.941 1.263 1.485 2.448-6.347.718-16.946.316-19.17-1.296-1.835-3.14-4.152-5.212-7.455-1.562-2.493-3.231-5.554-4.959-9.445-2.705-6.085-3.633-12.223-3.633-17.752.002-6.459 1.246-12.142 2.495-16.236.386-1.262.785-2.378 1.137-3.317 3.882-16.889 22.458-33.482 22.458-33.482-26.11-3.436-43.969 20.595-43.969 20.595-.072-.044-.148-.083-.221-.126-1.852 2.052-8.132 9.407-8.718 15.257 0 0 .214-10.529 2.843-17.878-9.962-3.174-21.686-1.5-27.702-.253l.063.19c-6.162 1.106-11.805 3.492-16.804 6.475-4.998 2.983-9.368 6.564-12.951 10.04-7.156 6.946-11.173 13.446-11.213 13.519l-.221-.126c-12.646 18.326-20.595 57.43-20.595 57.43 1.375-6.184 7.581-13.74 7.581-13.74-6.871 10.306-5.496 57.71-5.496 57.71 0-7.558 4.106-16.488 4.106-16.488 1.375 15.803 8.249 66.65 52.908 105.12 44.657 38.481 82.44 41.916 82.44 41.916-8.932-2.748-10.992-6.886-10.992-6.886 28.858 11.681 46.717 9.634 46.717 9.634-4.809-2.748-5.496-4.833-5.496-4.833 30.919 1.375 72.16-9.618 81.78-16.488 9.62-6.871 17.847-20.595 17.847-20.595 24.735-11.681 41.911-35.742 46.717-48.11 4.809-12.368 0-25.428 0-25.428 0 0 .007-.676 11.687-26.786 11.595-25.919.199-62.58.032-63.11-.055 5.579-5.062 13.329-6.03 14.783.203-.519.537-2.168.537-7.328 0-7.558 2.038-26.776-7.581-48.08-9.62-21.297-24.04-31.619-24.04-31.619v4.801c-1.257-4.191-8.882-10.641-14.656-15.07-3.693-2.831-6.633-4.864-6.633-4.864v6.886c34.35 31.607 37.778 53.603 37.778 53.603-6.184-19.926-24.05-35.07-39.17-49.5-15.12-14.429-46.717-21.985-46.717-21.985m106.51 98.36c0-.031 0-.064 0-.095h-.032c0 0 .03.091.032.095m-291.36-88.73c-13.231 12.78-16.442 34.34-17.12 47.38.187-.219.373-.44.569-.663 4.478-5.15 10.992-11.538 19.394-16.583 2.898-1.739 6.04-3.316 9.381-4.612-13.231-11.01-12.224-25.522-12.224-25.522m83.52 52.28c-.917 3.42-1.739 7.73-1.737 12.445.001 4.771.821 9.924 3.064 14.972 1.8 4.053 3.477 6.997 5.02 9.381 1.087 1.675 2.12 3.071 3.064 4.359 1.935-1.78 4.184-3.569 6.03-4.801 4.123-2.748 19.924-10.289 21.985-12.351 2.061-2.061 6.184-13.05 2.748-16.488-3.436-3.436-25.41-1.374-32.28-2.748-2.881-.576-5.662-2.611-7.897-4.77m4.517 67.12l-.095.063c.021.055.032.095.032.095.026-.053.037-.104.063-.158m-17.404 20.532c-.276 2.306-.443 4.786-.442 7.391-.001 4.851.617 10.1 2.274 15.288 1.661 5.196 4.34 10.341 8.592 15.13 2.837 3.189 6.382 6.215 10.803 8.971l-.253.411c8.307.151 21.802-.024 28.649-2.306 10.306-3.436 26.817-16.488 26.817-16.488 4.123-4.123 8.923-2.053 13.05-2.053 4.123 0 5.497-6.167 0-12.351-5.497-6.184-24.739-12.399-39.17-2.78-14.429 9.62-35.05 2.062-47.41-8.244-1.124-.937-2.087-1.925-2.906-2.969" opacity=".2"/><path d="m-399.37 72.3c-45.11 0-85.9 18.532-115.2 48.36 1.364 1.657 2.996 3.245 4.959 4.738h.032c.305-.31.577-.64.884-.948 14.202-14.202 30.743-25.322 49.15-33.1 19.05-8.06 39.3-12.161 60.17-12.161 19.703 0 38.842 3.648 56.952 10.834 10.579 1.828 24.702 5.356 36.452 12.03-26.361-18.723-58.6-29.755-93.4-29.755m58.4 21.985c33.669 19.235 50.16 49.5 50.16 49.5-17.18-16.49-30.924-15.13-30.924-15.13 10.306 7.558 15.11 15.807 24.733 30.924 9.62 15.12 8.939 50.824 8.939 50.824-4.809-11.681-14.435-16.488-14.435-16.488 0 0 2.068 20.633 3.443 32.31 1.375 11.681-4.801 33.672-4.801 33.672 0-8.245-4.801-10.329-4.801-10.329 0 0 1.375 4.83-5.496 26.817-6.871 21.987-19.924 29.526-21.985 28.839-2.061-.687 0-4.106 0-4.106 0 0-3.435-2.756-8.244 4.801-4.053 6.374-11.05 9.819-13.14 10.74 2.241-1.272 2.811-5.938 2.811-5.938 0 0-4.798 2.755-26.786 6.191-21.987 3.436-32.28-6.191-32.28-6.191 2.061-2.061 11.656 0 11.656 0 0-2.061-10.991-5.48-21.985-6.854-8.939-1.117-13.278-5.267-15.351-8.592-4.122-2.769-7.555-5.808-10.424-9.03-3.287-3.695-5.804-7.642-7.676-11.624-3.746-7.978-4.958-16.15-4.959-23.374.001-6.822 1.088-12.825 2.148-17.15 1.061-4.326 2.1-6.984 2.148-7.107l.158.063c1.291-3.97 3.825-7.164 6.823-8.465-.941-.642-1.909-1.243-2.906-1.769-4.487-2.4-9.56-3.387-14.562-2.559-5.01.793-9.825 3.28-14.09 6.539-4.091 3.12-7.34 7.571-9.476 12.477-2.151 4.921-3.223 10.338-3.222 15.794-.005 5.462 1.081 10.941 3.064 16.11 1.975 5.175 4.844 10.04 8.307 14.435 3.47 4.402 7.504 8.353 11.908 11.877-4.593-3.275-8.873-7.01-12.635-11.277-3.76-4.257-6.97-9.06-9.318-14.309-2.351-5.243-3.816-10.92-4.138-16.741-.323-5.814.494-11.757 2.559-17.31 2.068-5.538 5.332-10.704 10.01-14.72 2.261-1.893 4.75-3.631 7.423-5.05 2.668-1.424 5.57-2.533 8.623-3.159 3.053-.627 6.236-.751 9.35-.316 3.118.425 6.139 1.386 8.939 2.716 2.802 1.329 5.4 3.01 7.77 4.928 1.185.961 2.299 1.981 3.38 3.064.541.54 1.065 1.1 1.579 1.674.429.482.834.941 1.263 1.485 2.448-6.347.718-16.946.316-19.17-1.296-1.835-3.14-4.152-5.212-7.455-1.562-2.493-3.231-5.554-4.959-9.445-2.705-6.085-3.633-12.223-3.633-17.752.002-6.459 1.246-12.142 2.495-16.236.386-1.262.785-2.378 1.137-3.317 3.882-16.889 22.458-33.482 22.458-33.482-26.11-3.436-43.969 20.595-43.969 20.595-.072-.044-.148-.083-.221-.126-1.852 2.052-8.132 9.407-8.718 15.257 0 0 .214-10.529 2.843-17.878-9.962-3.174-21.686-1.5-27.702-.253l.063.19c-6.162 1.106-11.805 3.492-16.804 6.475-4.998 2.983-9.368 6.564-12.951 10.04-7.156 6.946-11.173 13.447-11.213 13.519l-.221-.126c-12.646 18.326-20.595 57.43-20.595 57.43 1.375-6.184 7.581-13.74 7.581-13.74-6.871 10.306-5.496 57.71-5.496 57.71 0-7.558 4.106-16.488 4.106-16.488 1.375 15.803 8.249 66.65 52.908 105.12 44.657 38.481 82.44 41.916 82.44 41.916-8.932-2.748-10.992-6.886-10.992-6.886 28.858 11.681 46.717 9.634 46.717 9.634-4.809-2.748-5.496-4.833-5.496-4.833 30.919 1.375 72.16-9.618 81.78-16.488 9.62-6.871 17.847-20.595 17.847-20.595 24.735-11.681 41.911-35.742 46.717-48.11 4.809-12.368 0-25.428 0-25.428 0 0 .007-.676 11.687-26.786 11.595-25.919.199-62.58.032-63.11-.055 5.579-5.062 13.329-6.03 14.783.203-.519.537-2.168.537-7.328 0-7.558 2.038-26.776-7.581-48.08-9.62-21.297-24.04-31.619-24.04-31.619v4.801c-1.257-4.191-8.882-10.641-14.656-15.07-3.693-2.831-6.633-4.864-6.633-4.864v6.886c34.35 31.607 37.778 53.603 37.778 53.603-6.184-19.926-24.05-35.07-39.17-49.5-15.12-14.429-46.717-21.985-46.717-21.985m106.51 98.36c0-.031 0-.064 0-.095h-.032c0 0 .03.091.032.095m-291.36-88.73c-13.231 12.78-16.442 34.34-17.12 47.38.187-.219.373-.44.569-.663 4.478-5.15 10.992-11.538 19.394-16.583 2.898-1.739 6.04-3.316 9.381-4.612-13.231-11.01-12.224-25.522-12.224-25.522m83.52 52.28c-.917 3.42-1.739 7.73-1.737 12.445.001 4.771.821 9.924 3.064 14.972 1.8 4.053 3.477 6.997 5.02 9.381 1.087 1.675 2.12 3.071 3.064 4.359 1.935-1.78 4.184-3.569 6.03-4.801 4.123-2.748 19.924-10.289 21.985-12.351 2.061-2.061 6.184-13.05 2.748-16.488-3.436-3.436-25.41-1.374-32.28-2.748-2.881-.576-5.662-2.611-7.897-4.77m4.517 67.12l-.095.063c.021.055.032.095.032.095.026-.053.037-.104.063-.158m-17.404 20.532c-.276 2.306-.443 4.786-.442 7.391-.001 4.851.617 10.1 2.274 15.288 1.661 5.196 4.34 10.341 8.592 15.13 2.837 3.189 6.382 6.215 10.803 8.971l-.253.411c8.307.151 21.802-.024 28.649-2.306 10.306-3.436 26.817-16.488 26.817-16.488 4.123-4.123 8.923-2.053 13.05-2.053 4.123 0 5.497-6.167 0-12.351-5.497-6.184-24.739-12.399-39.17-2.78-14.429 9.62-35.05 2.062-47.41-8.244-1.124-.937-2.087-1.925-2.906-2.969" fill="#dcdbdb"/></g><path d="m78.66 6c-14.863 0-28.67 4.43-40.16 12.03v475.94c11.486 7.602 25.293 12.03 40.16 12.03h68.844v-500h-68.844" opacity=".05" fill="url(#1)"/><path d="m147.5 6v500h109v-500h-109" opacity=".05" fill="url(#2)"/><path d="m256.5 6v500h109v-500h-109" opacity=".05" fill="url(#3)"/><path d="m365.5 6v500h67.844c14.854 0 28.643-4.438 40.13-12.03v-475.94c-11.482-7.593-25.27-12.03-40.12-12.03h-67.844" opacity=".05" fill="url(#4)"/><path d="m38.5 18.03c-19.614 12.981-32.5 35.24-32.5 60.63v354.69c0 25.381 12.886 47.644 32.5 60.63v-475.94" opacity=".05" fill="url(#6)"/><path d="m473.47 18.03v475.94c19.627-12.979 32.531-35.23 32.531-60.62v-354.69c0-25.391-12.905-47.646-32.531-60.62" opacity=".05" fill="url(#5)"/></svg>