<?xml version="1.0" encoding="UTF-8" standalone="no"?>
<!-- Created with Inkscape (http://www.inkscape.org/) -->

<svg
   xmlns:dc="http://purl.org/dc/elements/1.1/"
   xmlns:cc="http://creativecommons.org/ns#"
   xmlns:rdf="http://www.w3.org/1999/02/22-rdf-syntax-ns#"
   xmlns:svg="http://www.w3.org/2000/svg"
   xmlns="http://www.w3.org/2000/svg"
   xmlns:xlink="http://www.w3.org/1999/xlink"
   xmlns:inkscape="http://www.inkscape.org/namespaces/inkscape"
   version="1.1"
   width="100%"
   height="100%"
   viewBox="0 0 512 512"
   id="svg2">
  <metadata
     id="metadata111">
    <rdf:RDF>
      <cc:Work
         rdf:about="">
        <dc:format>image/svg+xml</dc:format>
        <dc:type
           rdf:resource="http://purl.org/dc/dcmitype/StillImage" />
      </cc:Work>
    </rdf:RDF>
  </metadata>
  <defs
     id="defs4">
    <filter
       color-interpolation-filters="sRGB"
       id="7">
      <feGaussianBlur
         id="feGaussianBlur7"
         stdDeviation="3.7725" />
    </filter>
    <linearGradient
       y1="19.563999"
       x2="0"
       y2="504.01999"
       id="8"
       gradientUnits="userSpaceOnUse">
      <stop
         id="stop10"
         style="stop-color:#f3f3f3;stop-opacity:1"
         offset="0" />
      <stop
         id="stop12"
         style="stop-color:#eeeeee;stop-opacity:1"
         offset="0.5" />
      <stop
         id="stop14"
         style="stop-color:#ebebeb;stop-opacity:1"
         offset="1" />
    </linearGradient>
    <linearGradient
       x1="257"
       x2="362"
       id="5"
       xlink:href="#0"
       gradientUnits="userSpaceOnUse"
       gradientTransform="matrix(1.02835,0,0,1.46193,209.19,-118.25)" />
    <linearGradient
       x1="257"
       x2="362"
       id="6"
       xlink:href="#0"
       gradientUnits="userSpaceOnUse"
       gradientTransform="matrix(1.0381,0,0,1.46193,-337.29,-118.25)" />
    <linearGradient
       x1="257"
       x2="362"
       id="4"
       xlink:href="#0"
       gradientUnits="userSpaceOnUse"
       gradientTransform="matrix(1.02835,0,0,1.46193,101.22,-118.25)" />
    <linearGradient
       x1="257"
       x2="362"
       id="3"
       xlink:href="#0"
       gradientUnits="userSpaceOnUse"
       gradientTransform="matrix(1.0381,0,0,1.46193,-10.289,-118.25)" />
    <linearGradient
       id="0">
      <stop
         id="stop21"
         style="stop-color:#000000;stop-opacity:1"
         offset="0" />
      <stop
         id="stop23"
         style="stop-color:#ffffff;stop-opacity:1"
         offset="1" />
    </linearGradient>
    <linearGradient
       x1="257"
       x2="362"
       id="2"
       xlink:href="#0"
       gradientUnits="userSpaceOnUse"
       gradientTransform="matrix(1.0381,0,0,1.46193,-119.29,-118.25)" />
    <linearGradient
       x1="257"
       x2="362"
       id="1"
       xlink:href="#0"
       gradientUnits="userSpaceOnUse"
       gradientTransform="matrix(1.0381,0,0,1.46193,-228.29,-118.25)" />
  </defs>
  <path
     d="m 78.66,6 c -0.929,0 -1.861,0.028 -2.781,0.063 -0.073,0.003 -0.146,-0.003 -0.219,0 -0.668,0.027 -1.337,0.08 -2,0.125 -0.376,0.025 -0.751,0.063 -1.125,0.094 -0.645,0.053 -1.297,0.086 -1.938,0.156 -0.965,0.106 -1.922,0.232 -2.875,0.375 -0.052,0.008 -0.104,0.023 -0.156,0.031 -1.082,0.165 -2.154,0.351 -3.219,0.563 -0.459,0.091 -0.919,0.182 -1.375,0.281 -0.39,0.085 -0.769,0.19 -1.156,0.281 -0.647,0.152 -1.297,0.299 -1.938,0.469 -0.898,0.238 -1.804,0.479 -2.688,0.75 -0.211,0.065 -0.414,0.152 -0.625,0.219 -0.991,0.314 -1.966,0.645 -2.938,1 -0.817,0.298 -1.635,0.611 -2.438,0.938 -0.29,0.118 -0.587,0.222 -0.875,0.344 -0.136,0.057 -0.27,0.129 -0.406,0.188 -0.082,0.035 -0.169,0.058 -0.25,0.094 -0.717,0.311 -1.42,0.636 -2.125,0.969 -0.147,0.069 -0.291,0.148 -0.438,0.219 -0.947,0.455 -1.889,0.943 -2.813,1.438 -0.271,0.145 -0.544,0.289 -0.813,0.438 -0.414,0.228 -0.81,0.483 -1.219,0.719 -0.52,0.3 -1.051,0.594 -1.563,0.906 -0.738,0.452 -1.467,0.898 -2.188,1.375 -0.031,0.021 -0.062,0.042 -0.094,0.063 -0.456,0.303 -0.895,0.625 -1.344,0.938 -0.123,0.086 -0.252,0.163 -0.375,0.25 -0.524,0.37 -1.049,0.742 -1.563,1.125 -1.835,1.371 -3.618,2.84 -5.313,4.375 -0.017,0.015 -0.046,0.016 -0.063,0.031 -0.526,0.477 -1.02,0.977 -1.531,1.469 -0.524,0.505 -1.054,1.011 -1.563,1.531 -0.512,0.523 -1,1.055 -1.5,1.594 -0.941,1.022 -1.837,2.05 -2.719,3.125 -0.631,0.769 -1.244,1.58 -1.844,2.375 -0.111,0.148 -0.233,0.289 -0.344,0.438 -0.526,0.71 -1.031,1.427 -1.531,2.156 -0.11,0.16 -0.235,0.308 -0.344,0.469 -0.013,0.019 -0.018,0.043 -0.031,0.063 -0.084,0.125 -0.167,0.249 -0.25,0.375 -0.47,0.708 -0.929,1.431 -1.375,2.156 -0.071,0.116 -0.148,0.227 -0.219,0.344 -0.575,0.948 -1.124,1.899 -1.656,2.875 -0.152,0.278 -0.289,0.564 -0.438,0.844 -0.18,0.341 -0.356,0.687 -0.531,1.031 -0.243,0.479 -0.486,0.952 -0.719,1.438 -0.426,0.885 -0.828,1.783 -1.219,2.688 -0.24,0.556 -0.461,1.124 -0.688,1.688 -0.038,0.095 -0.087,0.186 -0.125,0.281 -0.246,0.621 -0.489,1.245 -0.719,1.875 -0.332,0.909 -0.641,1.825 -0.938,2.75 -0.11,0.345 -0.238,0.684 -0.344,1.031 -0.301,0.99 -0.585,1.992 -0.844,3 -0.008,0.032 -0.023,0.062 -0.031,0.094 -0.267,1.046 -0.497,2.092 -0.719,3.156 -0.034,0.166 -0.06,0.334 -0.094,0.5 -0.426,2.117 -0.762,4.257 -1,6.438 -0.035,0.323 -0.063,0.645 -0.094,0.969 -0.09,0.938 -0.165,1.895 -0.219,2.844 -0.017,0.29 -0.018,0.584 -0.031,0.875 -0.051,1.119 -0.094,2.243 -0.094,3.375 v 354.69 6 c 0,40.24 32.411,72.66 72.66,72.66 h 354.69 c 40.24,0 72.66,-32.411 72.66,-72.66 v -354.69 -6 c 0,-1.259 -0.031,-2.507 -0.094,-3.75 -0.016,-0.323 -0.042,-0.647 -0.063,-0.969 -0.058,-0.917 -0.127,-1.843 -0.219,-2.75 -0.02,-0.2 -0.041,-0.394 -0.063,-0.594 -0.246,-2.245 -0.587,-4.447 -1.031,-6.625 -0.021,-0.104 -0.041,-0.209 -0.063,-0.313 -0.227,-1.087 -0.476,-2.15 -0.75,-3.219 -0.011,-0.042 -0.02,-0.083 -0.031,-0.125 -0.19,-0.732 -0.413,-1.464 -0.625,-2.188 -0.212,-0.724 -0.423,-1.442 -0.656,-2.156 -0.258,-0.789 -0.529,-1.567 -0.813,-2.344 -0.23,-0.63 -0.472,-1.254 -0.719,-1.875 -0.038,-0.096 -0.087,-0.186 -0.125,-0.281 -0.239,-0.594 -0.465,-1.195 -0.719,-1.781 -0.378,-0.871 -0.777,-1.741 -1.188,-2.594 -0.233,-0.485 -0.475,-0.958 -0.719,-1.438 -0.287,-0.564 -0.574,-1.132 -0.875,-1.688 -0.051,-0.094 -0.105,-0.188 -0.156,-0.281 -0.513,-0.936 -1.041,-1.871 -1.594,-2.781 -0.212,-0.35 -0.438,-0.685 -0.656,-1.031 -0.405,-0.642 -0.795,-1.278 -1.219,-1.906 -0.809,-1.199 -1.685,-2.354 -2.563,-3.5 -0.262,-0.341 -0.514,-0.695 -0.781,-1.031 -0.189,-0.238 -0.371,-0.483 -0.563,-0.719 -0.093,-0.114 -0.188,-0.231 -0.281,-0.344 -2.71,-3.286 -5.696,-6.301 -8.938,-9.06 -0.293,-0.249 -0.578,-0.505 -0.875,-0.75 -0.268,-0.221 -0.541,-0.439 -0.813,-0.656 -0.636,-0.509 -1.284,-1.012 -1.938,-1.5 -3.17,-2.368 -6.55,-4.481 -10.09,-6.313 -0.617,-0.319 -1.248,-0.636 -1.875,-0.938 -0.155,-0.074 -0.313,-0.145 -0.469,-0.219 -0.785,-0.371 -1.575,-0.719 -2.375,-1.063 -0.488,-0.209 -0.975,-0.426 -1.469,-0.625 -0.735,-0.296 -1.472,-0.571 -2.219,-0.844 -0.392,-0.143 -0.793,-0.27 -1.188,-0.406 -0.718,-0.248 -1.459,-0.524 -2.188,-0.75 -0.114,-0.035 -0.23,-0.059 -0.344,-0.094 -0.488,-0.149 -0.977,-0.267 -1.469,-0.406 -0.357,-0.1 -0.703,-0.217 -1.063,-0.313 -0.019,-0.005 -0.043,0.005 -0.063,0 -0.837,-0.221 -1.683,-0.433 -2.531,-0.625 -0.032,-0.007 -0.062,-0.024 -0.094,-0.031 -0.651,-0.146 -1.311,-0.278 -1.969,-0.406 -1,-0.197 -2.01,-0.376 -3.03,-0.531 -0.063,-0.01 -0.125,-0.022 -0.188,-0.031 -0.952,-0.143 -1.88,-0.269 -2.844,-0.375 -0.836,-0.091 -1.687,-0.156 -2.531,-0.219 -0.176,-0.013 -0.355,-0.019 -0.531,-0.031 -0.735,-0.049 -1.478,-0.097 -2.219,-0.125 -0.92,-0.034 -1.853,-0.063 -2.781,-0.063 H 147.503 78.659"
     inkscape:connector-curvature="0"
     id="path27"
     style="fill-opacity:0.17600002;filter:url(#7)" />
  <rect
     width="500"
     height="500"
     rx="72.639999"
     x="6"
     y="12"
     id="rect29"
     style="opacity:0.15" />
  <rect
     width="500"
     height="500"
     rx="72.639999"
     x="6"
     y="6"
     id="rect31"
     style="fill:url(#8)" />
  <rect
     width="435"
     height="435"
     rx="63.200001"
     x="38.5"
     y="38.5"
     id="rect33"
     style="fill:#f38725" />
  <path
     d="M 101.69,38.5 C 66.68,38.5 38.5,66.67 38.5,101.69 v 15 C 38.5,81.68 66.67,53.5 101.69,53.5 h 308.63 c 35.01,0 63.19,28.17 63.19,63.19 v -15 C 473.51,66.68 445.34,38.5 410.32,38.5 H 101.7"
     inkscape:connector-curvature="0"
     id="path35"
     style="opacity:0.2" />
  <path
     d="M 78.66,6 C 38.42,6 6,38.411 6,78.66 v 7 C 6,45.42 38.411,13 78.66,13 h 354.69 c 40.24,0 72.66,32.411 72.66,72.66 v -7 C 506.01,38.42 473.599,6 433.35,6 H 78.66"
     inkscape:connector-curvature="0"
     id="path37"
     style="fill:#ffffff" />
  <text
     x="-1815.03"
     y="530.47998"
     id="text39"
     style="font-size:208.33000183px;line-height:125%;letter-spacing:0;word-spacing:0;font-family:Gentium Book Basic">
    <tspan
       x="-1815.03"
       y="530.47998"
       id="tspan41" />
  </text>
  <text
     x="-134.58"
     y="1565.84"
     transform="scale(4.0128,0.2492)"
     id="text43"
     style="font-size:75.69999695px;text-anchor:middle;font-family:Arial" />
  <text
     x="75.089996"
     y="212.32001"
     id="text45"
     style="font-size:129.22999573px;line-height:125%;letter-spacing:0;word-spacing:0;font-family:Gentium Book Basic">
    <tspan
       x="75.089996"
       y="212.32001"
       id="tspan47" />
  </text>
  <text
     x="215.78999"
     y="502.85999"
     transform="scale(4.0128,0.2492)"
     id="text49"
     style="font-size:46.95399857px;text-anchor:middle;font-family:Arial" />
  <text
     x="656.35999"
     y="132.32001"
     id="text51"
     style="font-size:129.22999573px;line-height:125%;letter-spacing:0;word-spacing:0;font-family:Gentium Book Basic">
    <tspan
       x="656.35999"
       y="132.32001"
       id="tspan53" />
  </text>
  <text
     x="360.64001"
     y="181.82001"
     transform="scale(4.0128,0.2492)"
     id="text55"
     style="font-size:46.95399857px;text-anchor:middle;font-family:Arial" />
  <text
     x="-415.22"
     y="-48.938"
     id="text57"
     style="font-size:129.22999573px;line-height:125%;letter-spacing:0;word-spacing:0;font-family:Gentium Book Basic">
    <tspan
       x="-415.22"
       y="-48.938"
       id="tspan59" />
  </text>
  <text
     x="93.599998"
     y="-545.52002"
     transform="scale(4.0128,0.2492)"
     id="text61"
     style="font-size:46.95399857px;text-anchor:middle;font-family:Arial" />
  <text
     x="682.83002"
     y="-265.41"
     id="text63"
     style="font-size:129.22999573px;line-height:125%;letter-spacing:0;word-spacing:0;font-family:Gentium Book Basic">
    <tspan
       x="682.83002"
       y="-265.41"
       id="tspan65" />
  </text>
  <text
     x="367.23999"
     y="-1414.1899"
     transform="scale(4.0128,0.2492)"
     id="text67"
     style="font-size:46.95399857px;text-anchor:middle;font-family:Arial" />
  <text
     x="1264.1"
     y="-345.41"
     id="text69"
     style="font-size:129.22999573px;line-height:125%;letter-spacing:0;word-spacing:0;font-family:Gentium Book Basic">
    <tspan
       x="1264.1"
       y="-345.41"
       id="tspan71" />
  </text>
  <text
     x="512.09003"
     y="-1735.22"
     transform="scale(4.0128,0.2492)"
     id="text73"
     style="font-size:46.95399857px;text-anchor:middle;font-family:Arial" />
  <text
     x="874.97998"
     y="-817.81"
     id="text75"
     style="font-size:129.22999573px;line-height:125%;letter-spacing:0;word-spacing:0;font-family:Gentium Book Basic">
    <tspan
       x="874.97998"
       y="-817.81"
       id="tspan77" />
  </text>
  <text
     x="415.12"
     y="-3630.8601"
     transform="scale(4.0128,0.2492)"
     id="text79"
     style="font-size:46.95399857px;text-anchor:middle;font-family:Arial" />
  <text
     x="1456.24"
     y="-897.82001"
     id="text81"
     style="font-size:129.22999573px;line-height:125%;letter-spacing:0;word-spacing:0;font-family:Gentium Book Basic">
    <tspan
       x="1456.24"
       y="-897.82001"
       id="tspan83" />
  </text>
  <text
     x="559.96997"
     y="-3951.8999"
     transform="scale(4.0128,0.2492)"
     id="text85"
     style="font-size:46.95399857px;text-anchor:middle;font-family:Arial" />
  <text
     x="-376.56"
     y="516.90002"
     id="text87"
     style="font-size:208.33000183px;line-height:125%;letter-spacing:0;word-spacing:0;font-family:Gentium Book Basic">
    <tspan
       x="-376.56"
       y="516.90002"
       id="tspan89" />
  </text>
  <g
     transform="translate(645.28,13.28)"
     id="g91">
    <path
       d="m -384.37,87.3 c -45.11,0 -85.9,18.532 -115.2,48.36 1.364,1.657 2.996,3.245 4.959,4.738 h 0.032 c 0.305,-0.31 0.577,-0.64 0.884,-0.948 14.202,-14.202 30.743,-25.322 49.15,-33.1 19.05,-8.06 39.3,-12.161 60.17,-12.161 19.703,0 38.842,3.648 56.952,10.834 10.579,1.828 24.702,5.356 36.452,12.03 -26.361,-18.723 -58.6,-29.755 -93.4,-29.755 m 58.4,21.985 c 33.669,19.235 50.16,49.5 50.16,49.5 -17.18,-16.49 -30.924,-15.13 -30.924,-15.13 10.306,7.558 15.11,15.807 24.733,30.924 9.62,15.12 8.939,50.824 8.939,50.824 -4.809,-11.681 -14.435,-16.488 -14.435,-16.488 0,0 2.068,20.633 3.443,32.31 1.375,11.681 -4.801,33.672 -4.801,33.672 0,-8.245 -4.801,-10.329 -4.801,-10.329 0,0 1.375,4.83 -5.496,26.817 -6.871,21.987 -19.924,29.526 -21.985,28.839 -2.061,-0.687 0,-4.106 0,-4.106 0,0 -3.435,-2.756 -8.244,4.801 -4.053,6.374 -11.05,9.819 -13.14,10.74 2.241,-1.272 2.811,-5.938 2.811,-5.938 0,0 -4.798,2.755 -26.786,6.191 -21.987,3.436 -32.28,-6.191 -32.28,-6.191 2.061,-2.061 11.656,0 11.656,0 0,-2.061 -10.991,-5.48 -21.985,-6.854 -8.939,-1.117 -13.278,-5.267 -15.351,-8.592 -4.122,-2.769 -7.555,-5.808 -10.424,-9.03 -3.287,-3.695 -5.804,-7.642 -7.676,-11.624 -3.746,-7.978 -4.958,-16.15 -4.959,-23.374 0.001,-6.822 1.088,-12.825 2.148,-17.15 1.061,-4.326 2.1,-6.984 2.148,-7.107 l 0.158,0.063 c 1.291,-3.97 3.825,-7.164 6.823,-8.465 -0.941,-0.642 -1.909,-1.243 -2.906,-1.769 -4.487,-2.4 -9.56,-3.387 -14.562,-2.559 -5.01,0.793 -9.825,3.28 -14.09,6.539 -4.091,3.12 -7.34,7.571 -9.476,12.477 -2.151,4.921 -3.223,10.338 -3.222,15.794 -0.005,5.462 1.081,10.941 3.064,16.11 1.975,5.175 4.844,10.04 8.307,14.435 3.47,4.402 7.504,8.353 11.908,11.877 -4.593,-3.275 -8.873,-7.01 -12.635,-11.277 -3.76,-4.257 -6.97,-9.06 -9.318,-14.309 -2.351,-5.243 -3.816,-10.92 -4.138,-16.741 -0.323,-5.814 0.494,-11.757 2.559,-17.31 2.068,-5.538 5.332,-10.704 10.01,-14.72 2.261,-1.893 4.75,-3.631 7.423,-5.05 2.668,-1.424 5.57,-2.533 8.623,-3.159 3.053,-0.627 6.236,-0.751 9.35,-0.316 3.118,0.425 6.139,1.386 8.939,2.716 2.802,1.329 5.4,3.01 7.77,4.928 1.185,0.961 2.299,1.981 3.38,3.064 0.541,0.54 1.065,1.1 1.579,1.674 0.429,0.482 0.834,0.941 1.263,1.485 2.448,-6.347 0.718,-16.946 0.316,-19.17 -1.296,-1.835 -3.14,-4.152 -5.212,-7.455 -1.562,-2.493 -3.231,-5.554 -4.959,-9.445 -2.705,-6.085 -3.633,-12.223 -3.633,-17.752 0.002,-6.459 1.246,-12.142 2.495,-16.236 0.386,-1.262 0.785,-2.378 1.137,-3.317 3.882,-16.889 22.458,-33.482 22.458,-33.482 -26.11,-3.436 -43.969,20.595 -43.969,20.595 -0.072,-0.044 -0.148,-0.083 -0.221,-0.126 -1.852,2.052 -8.132,9.407 -8.718,15.257 0,0 0.214,-10.529 2.843,-17.878 -9.962,-3.174 -21.686,-1.5 -27.702,-0.253 l 0.063,0.19 c -6.162,1.106 -11.805,3.492 -16.804,6.475 -4.998,2.983 -9.368,6.564 -12.951,10.04 -7.156,6.946 -11.173,13.446 -11.213,13.519 l -0.221,-0.126 c -12.646,18.326 -20.595,57.43 -20.595,57.43 1.375,-6.184 7.581,-13.74 7.581,-13.74 -6.871,10.306 -5.496,57.71 -5.496,57.71 0,-7.558 4.106,-16.488 4.106,-16.488 1.375,15.803 8.249,66.65 52.908,105.12 44.657,38.481 82.44,41.916 82.44,41.916 -8.932,-2.748 -10.992,-6.886 -10.992,-6.886 28.858,11.681 46.717,9.634 46.717,9.634 -4.809,-2.748 -5.496,-4.833 -5.496,-4.833 30.919,1.375 72.16,-9.618 81.78,-16.488 9.62,-6.871 17.847,-20.595 17.847,-20.595 24.735,-11.681 41.911,-35.742 46.717,-48.11 4.809,-12.368 0,-25.428 0,-25.428 0,0 0.007,-0.676 11.687,-26.786 11.595,-25.919 0.199,-62.58 0.032,-63.11 -0.055,5.579 -5.062,13.329 -6.03,14.783 0.203,-0.519 0.537,-2.168 0.537,-7.328 0,-7.558 2.038,-26.776 -7.581,-48.08 -9.62,-21.297 -24.04,-31.619 -24.04,-31.619 v 4.801 c -1.257,-4.191 -8.882,-10.641 -14.656,-15.07 -3.693,-2.831 -6.633,-4.864 -6.633,-4.864 v 6.886 c 34.35,31.607 37.778,53.603 37.778,53.603 -6.184,-19.926 -24.05,-35.07 -39.17,-49.5 -15.12,-14.429 -46.717,-21.985 -46.717,-21.985 m 106.51,98.36 c 0,-0.031 0,-0.064 0,-0.095 h -0.032 c 0,0 0.03,0.091 0.032,0.095 m -291.36,-88.73 c -13.231,12.78 -16.442,34.34 -17.12,47.38 0.187,-0.219 0.373,-0.44 0.569,-0.663 4.478,-5.15 10.992,-11.538 19.394,-16.583 2.898,-1.739 6.04,-3.316 9.381,-4.612 -13.231,-11.01 -12.224,-25.522 -12.224,-25.522 m 83.52,52.28 c -0.917,3.42 -1.739,7.73 -1.737,12.445 0.001,4.771 0.821,9.924 3.064,14.972 1.8,4.053 3.477,6.997 5.02,9.381 1.087,1.675 2.12,3.071 3.064,4.359 1.935,-1.78 4.184,-3.569 6.03,-4.801 4.123,-2.748 19.924,-10.289 21.985,-12.351 2.061,-2.061 6.184,-13.05 2.748,-16.488 -3.436,-3.436 -25.41,-1.374 -32.28,-2.748 -2.881,-0.576 -5.662,-2.611 -7.897,-4.77 m 4.517,67.12 -0.095,0.063 c 0.021,0.055 0.032,0.095 0.032,0.095 0.026,-0.053 0.037,-0.104 0.063,-0.158 m -17.404,20.532 c -0.276,2.306 -0.443,4.786 -0.442,7.391 -0.001,4.851 0.617,10.1 2.274,15.288 1.661,5.196 4.34,10.341 8.592,15.13 2.837,3.189 6.382,6.215 10.803,8.971 l -0.253,0.411 c 8.307,0.151 21.802,-0.024 28.649,-2.306 10.306,-3.436 26.817,-16.488 26.817,-16.488 4.123,-4.123 8.923,-2.053 13.05,-2.053 4.123,0 5.497,-6.167 0,-12.351 -5.497,-6.184 -24.739,-12.399 -39.17,-2.78 -14.429,9.62 -35.05,2.062 -47.41,-8.244 -1.124,-0.937 -2.087,-1.925 -2.906,-2.969"
       inkscape:connector-curvature="0"
       id="path93"
       style="opacity:0.2" />
    <path
       d="m -399.37,72.3 c -45.11,0 -85.9,18.532 -115.2,48.36 1.364,1.657 2.996,3.245 4.959,4.738 h 0.032 c 0.305,-0.31 0.577,-0.64 0.884,-0.948 14.202,-14.202 30.743,-25.322 49.15,-33.1 19.05,-8.06 39.3,-12.161 60.17,-12.161 19.703,0 38.842,3.648 56.952,10.834 10.579,1.828 24.702,5.356 36.452,12.03 -26.361,-18.723 -58.6,-29.755 -93.4,-29.755 m 58.4,21.985 c 33.669,19.235 50.16,49.5 50.16,49.5 -17.18,-16.49 -30.924,-15.13 -30.924,-15.13 10.306,7.558 15.11,15.807 24.733,30.924 9.62,15.12 8.939,50.824 8.939,50.824 -4.809,-11.681 -14.435,-16.488 -14.435,-16.488 0,0 2.068,20.633 3.443,32.31 1.375,11.681 -4.801,33.672 -4.801,33.672 0,-8.245 -4.801,-10.329 -4.801,-10.329 0,0 1.375,4.83 -5.496,26.817 -6.871,21.987 -19.924,29.526 -21.985,28.839 -2.061,-0.687 0,-4.106 0,-4.106 0,0 -3.435,-2.756 -8.244,4.801 -4.053,6.374 -11.05,9.819 -13.14,10.74 2.241,-1.272 2.811,-5.938 2.811,-5.938 0,0 -4.798,2.755 -26.786,6.191 -21.987,3.436 -32.28,-6.191 -32.28,-6.191 2.061,-2.061 11.656,0 11.656,0 0,-2.061 -10.991,-5.48 -21.985,-6.854 -8.939,-1.117 -13.278,-5.267 -15.351,-8.592 -4.122,-2.769 -7.555,-5.808 -10.424,-9.03 -3.287,-3.695 -5.804,-7.642 -7.676,-11.624 -3.746,-7.978 -4.958,-16.15 -4.959,-23.374 0.001,-6.822 1.088,-12.825 2.148,-17.15 1.061,-4.326 2.1,-6.984 2.148,-7.107 l 0.158,0.063 c 1.291,-3.97 3.825,-7.164 6.823,-8.465 -0.941,-0.642 -1.909,-1.243 -2.906,-1.769 -4.487,-2.4 -9.56,-3.387 -14.562,-2.559 -5.01,0.793 -9.825,3.28 -14.09,6.539 -4.091,3.12 -7.34,7.571 -9.476,12.477 -2.151,4.921 -3.223,10.338 -3.222,15.794 -0.005,5.462 1.081,10.941 3.064,16.11 1.975,5.175 4.844,10.04 8.307,14.435 3.47,4.402 7.504,8.353 11.908,11.877 -4.593,-3.275 -8.873,-7.01 -12.635,-11.277 -3.76,-4.257 -6.97,-9.06 -9.318,-14.309 -2.351,-5.243 -3.816,-10.92 -4.138,-16.741 -0.323,-5.814 0.494,-11.757 2.559,-17.31 2.068,-5.538 5.332,-10.704 10.01,-14.72 2.261,-1.893 4.75,-3.631 7.423,-5.05 2.668,-1.424 5.57,-2.533 8.623,-3.159 3.053,-0.627 6.236,-0.751 9.35,-0.316 3.118,0.425 6.139,1.386 8.939,2.716 2.802,1.329 5.4,3.01 7.77,4.928 1.185,0.961 2.299,1.981 3.38,3.064 0.541,0.54 1.065,1.1 1.579,1.674 0.429,0.482 0.834,0.941 1.263,1.485 2.448,-6.347 0.718,-16.946 0.316,-19.17 -1.296,-1.835 -3.14,-4.152 -5.212,-7.455 -1.562,-2.493 -3.231,-5.554 -4.959,-9.445 -2.705,-6.085 -3.633,-12.223 -3.633,-17.752 0.002,-6.459 1.246,-12.142 2.495,-16.236 0.386,-1.262 0.785,-2.378 1.137,-3.317 3.882,-16.889 22.458,-33.482 22.458,-33.482 -26.11,-3.436 -43.969,20.595 -43.969,20.595 -0.072,-0.044 -0.148,-0.083 -0.221,-0.126 -1.852,2.052 -8.132,9.407 -8.718,15.257 0,0 0.214,-10.529 2.843,-17.878 -9.962,-3.174 -21.686,-1.5 -27.702,-0.253 l 0.063,0.19 c -6.162,1.106 -11.805,3.492 -16.804,6.475 -4.998,2.983 -9.368,6.564 -12.951,10.04 -7.156,6.946 -11.173,13.447 -11.213,13.519 l -0.221,-0.126 c -12.646,18.326 -20.595,57.43 -20.595,57.43 1.375,-6.184 7.581,-13.74 7.581,-13.74 -6.871,10.306 -5.496,57.71 -5.496,57.71 0,-7.558 4.106,-16.488 4.106,-16.488 1.375,15.803 8.249,66.65 52.908,105.12 44.657,38.481 82.44,41.916 82.44,41.916 -8.932,-2.748 -10.992,-6.886 -10.992,-6.886 28.858,11.681 46.717,9.634 46.717,9.634 -4.809,-2.748 -5.496,-4.833 -5.496,-4.833 30.919,1.375 72.16,-9.618 81.78,-16.488 9.62,-6.871 17.847,-20.595 17.847,-20.595 24.735,-11.681 41.911,-35.742 46.717,-48.11 4.809,-12.368 0,-25.428 0,-25.428 0,0 0.007,-0.676 11.687,-26.786 11.595,-25.919 0.199,-62.58 0.032,-63.11 -0.055,5.579 -5.062,13.329 -6.03,14.783 0.203,-0.519 0.537,-2.168 0.537,-7.328 0,-7.558 2.038,-26.776 -7.581,-48.08 -9.62,-21.297 -24.04,-31.619 -24.04,-31.619 v 4.801 c -1.257,-4.191 -8.882,-10.641 -14.656,-15.07 -3.693,-2.831 -6.633,-4.864 -6.633,-4.864 v 6.886 c 34.35,31.607 37.778,53.603 37.778,53.603 -6.184,-19.926 -24.05,-35.07 -39.17,-49.5 -15.12,-14.429 -46.717,-21.985 -46.717,-21.985 m 106.51,98.36 c 0,-0.031 0,-0.064 0,-0.095 h -0.032 c 0,0 0.03,0.091 0.032,0.095 m -291.36,-88.73 c -13.231,12.78 -16.442,34.34 -17.12,47.38 0.187,-0.219 0.373,-0.44 0.569,-0.663 4.478,-5.15 10.992,-11.538 19.394,-16.583 2.898,-1.739 6.04,-3.316 9.381,-4.612 -13.231,-11.01 -12.224,-25.522 -12.224,-25.522 m 83.52,52.28 c -0.917,3.42 -1.739,7.73 -1.737,12.445 0.001,4.771 0.821,9.924 3.064,14.972 1.8,4.053 3.477,6.997 5.02,9.381 1.087,1.675 2.12,3.071 3.064,4.359 1.935,-1.78 4.184,-3.569 6.03,-4.801 4.123,-2.748 19.924,-10.289 21.985,-12.351 2.061,-2.061 6.184,-13.05 2.748,-16.488 -3.436,-3.436 -25.41,-1.374 -32.28,-2.748 -2.881,-0.576 -5.662,-2.611 -7.897,-4.77 m 4.517,67.12 -0.095,0.063 c 0.021,0.055 0.032,0.095 0.032,0.095 0.026,-0.053 0.037,-0.104 0.063,-0.158 m -17.404,20.532 c -0.276,2.306 -0.443,4.786 -0.442,7.391 -0.001,4.851 0.617,10.1 2.274,15.288 1.661,5.196 4.34,10.341 8.592,15.13 2.837,3.189 6.382,6.215 10.803,8.971 l -0.253,0.411 c 8.307,0.151 21.802,-0.024 28.649,-2.306 10.306,-3.436 26.817,-16.488 26.817,-16.488 4.123,-4.123 8.923,-2.053 13.05,-2.053 4.123,0 5.497,-6.167 0,-12.351 -5.497,-6.184 -24.739,-12.399 -39.17,-2.78 -14.429,9.62 -35.05,2.062 -47.41,-8.244 -1.124,-0.937 -2.087,-1.925 -2.906,-2.969"
       inkscape:connector-curvature="0"
       id="path95"
       style="fill:#dcdbdb" />
  </g>
  <path
     d="M 78.66,6 C 63.797,6 49.99,10.43 38.5,18.03 V 493.97 C 49.986,501.572 63.793,506 78.66,506 h 68.844 V 6 H 78.66"
     inkscape:connector-curvature="0"
     id="path97"
     style="opacity:0.05;fill:url(#1)" />
  <path
     d="m 147.5,6 v 500 h 109 V 6 h -109"
     inkscape:connector-curvature="0"
     id="path99"
     style="opacity:0.05;fill:url(#2)" />
  <path
     d="m 256.5,6 v 500 h 109 V 6 h -109"
     inkscape:connector-curvature="0"
     id="path101"
     style="opacity:0.05;fill:url(#3)" />
  <path
     d="m 365.5,6 v 500 h 67.844 c 14.854,0 28.643,-4.438 40.13,-12.03 V 18.03 C 461.992,10.437 448.204,6 433.354,6 H 365.51"
     inkscape:connector-curvature="0"
     id="path103"
     style="opacity:0.05;fill:url(#4)" />
  <path
     d="M 38.5,18.03 C 18.886,31.011 6,53.27 6,78.66 v 354.69 c 0,25.381 12.886,47.644 32.5,60.63 V 18.04"
     inkscape:connector-curvature="0"
     id="path105"
     style="opacity:0.05;fill:url(#6)" />
  <path
     d="m 473.47,18.03 v 475.94 c 19.627,-12.979 32.531,-35.23 32.531,-60.62 V 78.66 c 0,-25.391 -12.905,-47.646 -32.531,-60.62"
     inkscape:connector-curvature="0"
     id="path107"
     style="opacity:0.05;fill:url(#5)" />
</svg>
