<svg xmlns="http://www.w3.org/2000/svg" xmlns:xlink="http://www.w3.org/1999/xlink" viewBox="0 0 512 512"><defs><filter id="7"><feGaussianBlur stdDeviation="3.7725"/></filter><linearGradient id="8" y1="19.564" x2="0" y2="504.02" gradientUnits="userSpaceOnUse"><stop stop-color="#f3f3f3"/><stop offset=".5" stop-color="#eee"/><stop offset="1" stop-color="#ebebeb"/></linearGradient><linearGradient xlink:href="#0" id="5" gradientUnits="userSpaceOnUse" gradientTransform="matrix(1.02835 0 0 1.46193 209.19-118.25)" x1="257" x2="362"/><linearGradient xlink:href="#0" id="6" gradientUnits="userSpaceOnUse" gradientTransform="matrix(1.0381 0 0 1.46193-337.29-118.25)" x1="257" x2="362"/><linearGradient xlink:href="#0" id="4" gradientUnits="userSpaceOnUse" gradientTransform="matrix(1.02835 0 0 1.46193 101.22-118.25)" x1="257" x2="362"/><linearGradient xlink:href="#0" id="3" gradientUnits="userSpaceOnUse" gradientTransform="matrix(1.0381 0 0 1.46193-10.289-118.25)" x1="257" x2="362"/><linearGradient id="0"><stop/><stop offset="1" stop-color="#fff"/></linearGradient><linearGradient xlink:href="#0" id="2" gradientUnits="userSpaceOnUse" gradientTransform="matrix(1.0381 0 0 1.46193-119.29-118.25)" x1="257" x2="362"/><linearGradient xlink:href="#0" id="1" gradientUnits="userSpaceOnUse" gradientTransform="matrix(1.0381 0 0 1.46193-228.29-118.25)" x1="257" x2="362"/></defs><path d="m78.66 6c-.929 0-1.861.028-2.781.063-.073.003-.146-.003-.219 0-.668.027-1.337.08-2 .125-.376.025-.751.063-1.125.094-.645.053-1.297.086-1.938.156-.965.106-1.922.232-2.875.375-.052.008-.104.023-.156.031-1.082.165-2.154.351-3.219.563-.459.091-.919.182-1.375.281-.39.085-.769.19-1.156.281-.647.152-1.297.299-1.938.469-.898.238-1.804.479-2.688.75-.211.065-.414.152-.625.219-.991.314-1.966.645-2.938 1-.817.298-1.635.611-2.438.938-.29.118-.587.222-.875.344-.136.057-.27.129-.406.188-.082.035-.169.058-.25.094-.717.311-1.42.636-2.125.969-.147.069-.291.148-.438.219-.947.455-1.889.943-2.813 1.438-.271.145-.544.289-.813.438-.414.228-.81.483-1.219.719-.52.3-1.051.594-1.563.906-.738.452-1.467.898-2.188 1.375-.031.021-.062.042-.094.063-.456.303-.895.625-1.344.938-.123.086-.252.163-.375.25-.524.37-1.049.742-1.563 1.125-1.835 1.371-3.618 2.84-5.313 4.375-.017.015-.046.016-.063.031-.526.477-1.02.977-1.531 1.469-.524.505-1.054 1.011-1.563 1.531-.512.523-1 1.055-1.5 1.594-.941 1.022-1.837 2.05-2.719 3.125-.631.769-1.244 1.58-1.844 2.375-.111.148-.233.289-.344.438-.526.71-1.031 1.427-1.531 2.156-.11.16-.235.308-.344.469-.013.019-.018.043-.031.063-.084.125-.167.249-.25.375-.47.708-.929 1.431-1.375 2.156-.071.116-.148.227-.219.344-.575.948-1.124 1.899-1.656 2.875-.152.278-.289.564-.438.844-.18.341-.356.687-.531 1.031-.243.479-.486.952-.719 1.438-.426.885-.828 1.783-1.219 2.688-.24.556-.461 1.124-.688 1.688-.038.095-.087.186-.125.281-.246.621-.489 1.245-.719 1.875-.332.909-.641 1.825-.938 2.75-.11.345-.238.684-.344 1.031-.301.99-.585 1.992-.844 3-.008.032-.023.062-.031.094-.267 1.046-.497 2.092-.719 3.156-.034.166-.06.334-.094.5-.426 2.117-.762 4.257-1 6.438-.035.323-.063.645-.094.969-.09.938-.165 1.895-.219 2.844-.017.29-.018.584-.031.875-.051 1.119-.094 2.243-.094 3.375v354.69 6c0 40.24 32.411 72.66 72.66 72.66h354.69c40.24 0 72.66-32.411 72.66-72.66v-354.69-6c0-1.259-.031-2.507-.094-3.75-.016-.323-.042-.647-.063-.969-.058-.917-.127-1.843-.219-2.75-.02-.2-.041-.394-.063-.594-.246-2.245-.587-4.447-1.031-6.625-.021-.104-.041-.209-.063-.313-.227-1.087-.476-2.15-.75-3.219-.011-.042-.02-.083-.031-.125-.19-.732-.413-1.464-.625-2.188-.212-.724-.423-1.442-.656-2.156-.258-.789-.529-1.567-.813-2.344-.23-.63-.472-1.254-.719-1.875-.038-.096-.087-.186-.125-.281-.239-.594-.465-1.195-.719-1.781-.378-.871-.777-1.741-1.188-2.594-.233-.485-.475-.958-.719-1.438-.287-.564-.574-1.132-.875-1.688-.051-.094-.105-.188-.156-.281-.513-.936-1.041-1.871-1.594-2.781-.212-.35-.438-.685-.656-1.031-.405-.642-.795-1.278-1.219-1.906-.809-1.199-1.685-2.354-2.563-3.5-.262-.341-.514-.695-.781-1.031-.189-.238-.371-.483-.563-.719-.093-.114-.188-.231-.281-.344-2.71-3.286-5.696-6.301-8.938-9.06-.293-.249-.578-.505-.875-.75-.268-.221-.541-.439-.813-.656-.636-.509-1.284-1.012-1.938-1.5-3.17-2.368-6.55-4.481-10.09-6.313-.617-.319-1.248-.636-1.875-.938-.155-.074-.313-.145-.469-.219-.785-.371-1.575-.719-2.375-1.063-.488-.209-.975-.426-1.469-.625-.735-.296-1.472-.571-2.219-.844-.392-.143-.793-.27-1.188-.406-.718-.248-1.459-.524-2.188-.75-.114-.035-.23-.059-.344-.094-.488-.149-.977-.267-1.469-.406-.357-.1-.703-.217-1.063-.313-.019-.005-.043.005-.063 0-.837-.221-1.683-.433-2.531-.625-.032-.007-.062-.024-.094-.031-.651-.146-1.311-.278-1.969-.406-1-.197-2.01-.376-3.03-.531-.063-.01-.125-.022-.188-.031-.952-.143-1.88-.269-2.844-.375-.836-.091-1.687-.156-2.531-.219-.176-.013-.355-.019-.531-.031-.735-.049-1.478-.097-2.219-.125-.92-.034-1.853-.063-2.781-.063h-285.84-68.844" filter="url(#7)" fill-opacity=".176"/><rect width="500" height="500" x="6" y="12" rx="72.64" opacity=".15"/><rect rx="72.64" y="6" x="6" height="500" width="500" fill="url(#8)"/><rect width="435" height="435" x="38.5" y="38.5" rx="63.2" fill="#7895a2"/><path d="m101.69 38.5c-35.01 0-63.19 28.17-63.19 63.19v15c0-35.01 28.17-63.19 63.19-63.19h308.63c35.01 0 63.19 28.17 63.19 63.19v-15c0-35.01-28.17-63.19-63.19-63.19h-308.62" opacity=".2"/><path d="m78.66 6c-40.24 0-72.66 32.411-72.66 72.66v7c0-40.24 32.411-72.66 72.66-72.66h354.69c40.24 0 72.66 32.411 72.66 72.66v-7c0-40.24-32.411-72.66-72.66-72.66h-354.69" fill="#fff"/><g transform="translate(357.43 103.31)"><g transform="matrix(11.16778 0 0 11.16778-7886.02-13883.87)" opacity=".2"><path d="m703.39 1245.34c1.209.119 2.357.445 3.371.963.361.186.785.199 1.16.041.373-.16.656-.477.771-.865.199-.662-.127-1.355-.738-1.637-1.672-.844-3.607-1.289-5.6-1.289-2.73 0-5.311.828-7.266 2.332-.803.619-1.465 1.32-1.975 2.084 2.102-1.244 4.643-1.918 7.305-1.918 1.01 0 2.01.097 2.972.289" id="9"/><path d="m700.43 1248.32c1.857 0 3.646.414 5.172 1.197.021.01.043.02.064.029 1.045.551 1.777 1.313 2.096 2.143 1.113.99 1.893 2.184 2.26 3.48.43-.803.654-1.668.654-2.555 0-2.236-1.43-4.305-3.824-5.533-.025-.014-.051-.025-.074-.037-1.895-.955-4.088-1.459-6.348-1.459-3.094 0-6.02.939-8.232 2.643-.984.756-1.779 1.625-2.369 2.57 2.35-1.426 5.205-2.211 8.205-2.242.771-.154 1.575-.236 2.396-.236" id="A"/><path d="m709.62 1262.99c-.617-.434-1.471-.287-1.906.33-.584.828-1.203 1.457-1.896 1.924-.836.564-2.158 1.432-2.172 1.441-.385.252-.617.682-.617 1.143l.002 1.285-3.363-1.436c-.195-.082-.404-.119-.613-.107-.27.014-.541.021-.811.021-3.98 0-7.609-1.635-9.467-4.268-.043-.061-.092-.111-.141-.162-.74-1.094-1.121-2.271-1.121-3.5 0-4.354 4.787-7.895 10.672-7.895 2.145 0 4.215.473 5.984 1.369.02.01.039.018.059.027 1.756.9 2.801 2.299 2.801 3.75 0 1.174-.67 2.307-1.887 3.191-1.35.979-3.166 1.52-5.115 1.52-.494 0-.988-.035-1.467-.105-.004 0-.008 0-.014 0-1.371-.209-2.682-.662-3.791-1.311 0 0-.002 0-.002 0-2.172-1.285-3.418-3.178-3.418-5.205 0-.295.029-.59.082-.879-1.117.727-2.01 1.631-2.604 2.652.559 2.316 2.193 4.416 4.609 5.826.02.012.041.016.061.025 1.387.791 2.998 1.346 4.674 1.6.01 0 .018 0 .027 0 .604.086 1.223.131 1.842.131 2.521 0 4.908-.725 6.721-2.041 1.945-1.412 3.02-3.332 3.02-5.404 0-2.521-1.631-4.848-4.361-6.221-.02-.01-.041-.02-.061-.029-2.137-1.068-4.611-1.631-7.156-1.631-3.516 0-6.836 1.064-9.348 2.996-2.617 2.01-4.059 4.725-4.059 7.633 0 1.826.59 3.625 1.703 5.203.057.078.121.145.189.209 2.395 3.244 6.801 5.252 11.57 5.252.211 0 .424 0 .637-.012l4.977 2.127c.172.072.355.109.537.109.264 0 .525-.076.752-.227.385-.252.615-.682.615-1.141l.002-2.619c.465-.305 1.102-.727 1.582-1.051.961-.648 1.836-1.527 2.605-2.617.437-.614.288-1.467-.329-1.903" id="B"/><path d="m700.4 1259.14h.01c.531.076 1.078.115 1.625.115 1.443 0 2.834-.273 4.064-.773.322-.502.494-1.037.494-1.58 0-.516-.158-1.027-.451-1.51-1.098.713-2.568 1.129-4.107 1.129-.416 0-.832-.029-1.23-.088-2.795-.418-4.992-1.92-5.822-3.824-.922.225-1.783.543-2.566.938 1.167 2.825 4.171 5.02 7.983 5.591z" id="C"/></g><g transform="matrix(11.16778 0 0 11.16778-7901.02-13898.87)" fill="#dcdbdb"><use xlink:href="#9"/><use xlink:href="#A"/><use xlink:href="#B"/><use xlink:href="#C"/></g></g><path d="m78.66 6c-14.863 0-28.67 4.43-40.16 12.03v475.94c11.486 7.602 25.293 12.03 40.16 12.03h68.844v-500h-68.844" opacity=".05" fill="url(#1)"/><path d="m147.5 6v500h109v-500h-109" opacity=".05" fill="url(#2)"/><path d="m256.5 6v500h109v-500h-109" opacity=".05" fill="url(#3)"/><path d="m365.5 6v500h67.844c14.854 0 28.643-4.438 40.13-12.03v-475.94c-11.482-7.593-25.27-12.03-40.12-12.03h-67.844" opacity=".05" fill="url(#4)"/><path d="m38.5 18.03c-19.614 12.981-32.5 35.24-32.5 60.63v354.69c0 25.381 12.886 47.644 32.5 60.63v-475.94" opacity=".05" fill="url(#6)"/><path d="m473.47 18.03v475.94c19.627-12.979 32.531-35.23 32.531-60.62v-354.69c0-25.391-12.905-47.646-32.531-60.62" opacity=".05" fill="url(#5)"/></svg>