<?xml version="1.0" encoding="UTF-8" standalone="no"?>
<!-- Created with Inkscape (http://www.inkscape.org/) -->

<svg
   xmlns:dc="http://purl.org/dc/elements/1.1/"
   xmlns:cc="http://creativecommons.org/ns#"
   xmlns:rdf="http://www.w3.org/1999/02/22-rdf-syntax-ns#"
   xmlns:svg="http://www.w3.org/2000/svg"
   xmlns="http://www.w3.org/2000/svg"
   xmlns:xlink="http://www.w3.org/1999/xlink"
   xmlns:inkscape="http://www.inkscape.org/namespaces/inkscape"
   version="1.1"
   width="100%"
   height="100%"
   viewBox="0 0 512 512"
   id="svg2">
  <metadata
     id="metadata65">
    <rdf:RDF>
      <cc:Work
         rdf:about="">
        <dc:format>image/svg+xml</dc:format>
        <dc:type
           rdf:resource="http://purl.org/dc/dcmitype/StillImage" />
      </cc:Work>
    </rdf:RDF>
  </metadata>
  <defs
     id="defs4">
    <filter
       color-interpolation-filters="sRGB"
       id="0">
      <feGaussianBlur
         id="feGaussianBlur7"
         stdDeviation="3.7725" />
    </filter>
    <linearGradient
       x1="257"
       x2="362"
       id="5"
       xlink:href="#2"
       gradientUnits="userSpaceOnUse"
       gradientTransform="matrix(1.02835,0,0,1.46193,209.19,-118.25)" />
    <linearGradient
       x1="257"
       x2="362"
       id="6"
       xlink:href="#2"
       gradientUnits="userSpaceOnUse"
       gradientTransform="matrix(1.0381,0,0,1.46193,-119.29,-118.25)" />
    <linearGradient
       x1="257"
       x2="362"
       id="7"
       xlink:href="#2"
       gradientUnits="userSpaceOnUse"
       gradientTransform="matrix(1.02835,0,0,1.46193,101.22,-118.25)" />
    <linearGradient
       x1="257"
       x2="362"
       id="4"
       xlink:href="#2"
       gradientUnits="userSpaceOnUse"
       gradientTransform="matrix(1.0381,0,0,1.46193,-228.29,-118.25)" />
    <linearGradient
       x1="257"
       x2="362"
       id="8"
       xlink:href="#2"
       gradientUnits="userSpaceOnUse"
       gradientTransform="matrix(1.0381,0,0,1.46193,-10.289,-118.25)" />
    <linearGradient
       y1="19.563999"
       x2="0"
       y2="504.01999"
       id="1"
       gradientUnits="userSpaceOnUse">
      <stop
         id="stop15"
         style="stop-color:#f3f3f3;stop-opacity:1"
         offset="0" />
      <stop
         id="stop17"
         style="stop-color:#eeeeee;stop-opacity:1"
         offset="0.5" />
      <stop
         id="stop19"
         style="stop-color:#ebebeb;stop-opacity:1"
         offset="1" />
    </linearGradient>
    <linearGradient
       x1="257"
       x2="362"
       id="3"
       xlink:href="#2"
       gradientUnits="userSpaceOnUse"
       gradientTransform="matrix(1.0381,0,0,1.46193,-337.29,-118.25)" />
    <linearGradient
       id="2">
      <stop
         id="stop23"
         style="stop-color:#000000;stop-opacity:1"
         offset="0" />
      <stop
         id="stop25"
         style="stop-color:#ffffff;stop-opacity:1"
         offset="1" />
    </linearGradient>
  </defs>
  <path
     d="m 78.66,6 c -0.929,0 -1.861,0.028 -2.781,0.063 -0.073,0.003 -0.146,-0.003 -0.219,0 -0.668,0.027 -1.337,0.08 -2,0.125 -0.376,0.025 -0.751,0.063 -1.125,0.094 -0.645,0.053 -1.297,0.086 -1.938,0.156 -0.965,0.106 -1.922,0.232 -2.875,0.375 -0.052,0.008 -0.104,0.023 -0.156,0.031 -1.082,0.165 -2.154,0.351 -3.219,0.563 -0.459,0.091 -0.919,0.182 -1.375,0.281 -0.39,0.085 -0.769,0.19 -1.156,0.281 -0.647,0.152 -1.297,0.299 -1.938,0.469 -0.898,0.238 -1.804,0.479 -2.688,0.75 -0.211,0.065 -0.414,0.152 -0.625,0.219 -0.991,0.314 -1.966,0.645 -2.938,1 -0.817,0.298 -1.635,0.611 -2.438,0.938 -0.29,0.118 -0.587,0.222 -0.875,0.344 -0.136,0.057 -0.27,0.129 -0.406,0.188 -0.082,0.035 -0.169,0.058 -0.25,0.094 -0.717,0.311 -1.42,0.636 -2.125,0.969 -0.147,0.069 -0.291,0.148 -0.438,0.219 -0.947,0.455 -1.889,0.943 -2.813,1.438 -0.271,0.145 -0.544,0.289 -0.813,0.438 -0.414,0.228 -0.81,0.483 -1.219,0.719 -0.52,0.3 -1.051,0.594 -1.563,0.906 -0.738,0.452 -1.467,0.898 -2.188,1.375 -0.031,0.021 -0.062,0.042 -0.094,0.063 -0.456,0.303 -0.895,0.625 -1.344,0.938 -0.123,0.086 -0.252,0.163 -0.375,0.25 -0.524,0.37 -1.049,0.742 -1.563,1.125 -1.835,1.371 -3.618,2.84 -5.313,4.375 -0.017,0.015 -0.046,0.016 -0.063,0.031 -0.526,0.477 -1.02,0.977 -1.531,1.469 -0.524,0.505 -1.054,1.01 -1.563,1.531 -0.512,0.523 -1,1.055 -1.5,1.594 -0.941,1.022 -1.837,2.05 -2.719,3.125 -0.631,0.769 -1.244,1.58 -1.844,2.375 -0.111,0.148 -0.233,0.289 -0.344,0.438 -0.526,0.71 -1.031,1.427 -1.531,2.156 -0.11,0.16 -0.235,0.308 -0.344,0.469 -0.013,0.019 -0.018,0.043 -0.031,0.063 -0.084,0.125 -0.167,0.249 -0.25,0.375 -0.47,0.708 -0.929,1.431 -1.375,2.156 -0.071,0.116 -0.148,0.227 -0.219,0.344 -0.575,0.948 -1.124,1.899 -1.656,2.875 -0.152,0.278 -0.289,0.564 -0.438,0.844 -0.18,0.341 -0.356,0.687 -0.531,1.031 -0.243,0.479 -0.486,0.952 -0.719,1.438 -0.426,0.885 -0.828,1.783 -1.219,2.688 -0.24,0.556 -0.461,1.124 -0.688,1.688 -0.038,0.095 -0.087,0.186 -0.125,0.281 -0.246,0.621 -0.489,1.245 -0.719,1.875 -0.332,0.909 -0.641,1.825 -0.938,2.75 -0.11,0.345 -0.238,0.684 -0.344,1.031 -0.301,0.99 -0.585,1.992 -0.844,3 -0.008,0.032 -0.023,0.062 -0.031,0.094 -0.267,1.046 -0.497,2.092 -0.719,3.156 -0.034,0.166 -0.06,0.334 -0.094,0.5 -0.426,2.117 -0.762,4.257 -1,6.438 -0.035,0.323 -0.063,0.645 -0.094,0.969 -0.09,0.938 -0.165,1.895 -0.219,2.844 -0.017,0.29 -0.018,0.584 -0.031,0.875 -0.051,1.119 -0.094,2.243 -0.094,3.375 v 354.69 6 c 0,40.24 32.411,72.66 72.66,72.66 h 354.69 c 40.24,0 72.66,-32.411 72.66,-72.66 v -354.69 -6 c 0,-1.259 -0.031,-2.507 -0.094,-3.75 -0.016,-0.323 -0.042,-0.647 -0.063,-0.969 -0.058,-0.917 -0.127,-1.843 -0.219,-2.75 -0.02,-0.2 -0.041,-0.394 -0.063,-0.594 -0.246,-2.245 -0.587,-4.447 -1.031,-6.625 -0.021,-0.104 -0.041,-0.209 -0.063,-0.313 -0.227,-1.087 -0.476,-2.15 -0.75,-3.219 -0.011,-0.042 -0.02,-0.083 -0.031,-0.125 -0.19,-0.732 -0.413,-1.464 -0.625,-2.188 -0.212,-0.724 -0.423,-1.442 -0.656,-2.156 -0.258,-0.789 -0.529,-1.567 -0.813,-2.344 -0.23,-0.63 -0.472,-1.254 -0.719,-1.875 -0.038,-0.096 -0.087,-0.186 -0.125,-0.281 -0.239,-0.594 -0.465,-1.195 -0.719,-1.781 -0.378,-0.871 -0.777,-1.741 -1.188,-2.594 -0.233,-0.485 -0.475,-0.958 -0.719,-1.438 -0.287,-0.564 -0.574,-1.132 -0.875,-1.688 -0.051,-0.094 -0.105,-0.188 -0.156,-0.281 -0.513,-0.936 -1.041,-1.871 -1.594,-2.781 -0.212,-0.35 -0.438,-0.685 -0.656,-1.031 -0.405,-0.642 -0.795,-1.278 -1.219,-1.906 -0.809,-1.199 -1.685,-2.354 -2.563,-3.5 -0.262,-0.341 -0.514,-0.695 -0.781,-1.031 -0.189,-0.238 -0.371,-0.483 -0.563,-0.719 -0.093,-0.114 -0.188,-0.231 -0.281,-0.344 -2.71,-3.286 -5.696,-6.301 -8.938,-9.06 -0.293,-0.249 -0.578,-0.505 -0.875,-0.75 -0.268,-0.221 -0.541,-0.439 -0.813,-0.656 -0.636,-0.509 -1.284,-1.012 -1.938,-1.5 -3.17,-2.368 -6.55,-4.481 -10.09,-6.313 -0.617,-0.319 -1.248,-0.636 -1.875,-0.938 -0.155,-0.074 -0.313,-0.145 -0.469,-0.219 -0.785,-0.371 -1.575,-0.719 -2.375,-1.063 -0.488,-0.209 -0.975,-0.426 -1.469,-0.625 -0.735,-0.296 -1.472,-0.571 -2.219,-0.844 -0.392,-0.143 -0.793,-0.27 -1.188,-0.406 -0.718,-0.248 -1.459,-0.524 -2.188,-0.75 -0.114,-0.035 -0.23,-0.059 -0.344,-0.094 -0.488,-0.149 -0.977,-0.267 -1.469,-0.406 -0.357,-0.1 -0.703,-0.217 -1.063,-0.313 -0.019,-0.005 -0.043,0.005 -0.063,0 -0.837,-0.221 -1.683,-0.433 -2.531,-0.625 -0.032,-0.007 -0.062,-0.024 -0.094,-0.031 -0.651,-0.146 -1.311,-0.278 -1.969,-0.406 -1,-0.197 -2.01,-0.376 -3.03,-0.531 -0.063,-0.01 -0.125,-0.022 -0.188,-0.031 -0.952,-0.143 -1.88,-0.269 -2.844,-0.375 -0.836,-0.091 -1.687,-0.156 -2.531,-0.219 -0.176,-0.013 -0.355,-0.019 -0.531,-0.031 -0.735,-0.049 -1.478,-0.097 -2.219,-0.125 -0.92,-0.034 -1.853,-0.063 -2.781,-0.063 H 147.503 78.659"
     inkscape:connector-curvature="0"
     id="path27"
     style="fill-opacity:0.17600002;filter:url(#0)" />
  <rect
     width="500"
     height="500"
     rx="72.639999"
     x="6"
     y="12"
     id="rect29"
     style="opacity:0.15" />
  <rect
     width="500"
     height="500"
     rx="72.639999"
     x="6"
     y="6"
     id="rect31"
     style="fill:url(#1)" />
  <rect
     width="435"
     height="435"
     rx="63.200001"
     x="38.5"
     y="38.5"
     id="rect33"
     style="fill:#51b0cd" />
  <path
     d="M 273.84,248.97 74.43,467.38 c 8.245,3.928 17.477,6.125 27.25,6.125 h 308.63 c 20.854,0 39.25,-10.01 50.75,-25.5 L 273.84,248.975"
     inkscape:connector-curvature="0"
     id="path35"
     style="fill:#bd446f" />
  <path
     d="M 78.66,6 C 38.42,6 6,38.411 6,78.66 v 7 C 6,45.42 38.411,13 78.66,13 h 354.69 c 40.24,0 72.66,32.411 72.66,72.66 v -7 C 506.01,38.42 473.599,6 433.35,6 H 78.66"
     inkscape:connector-curvature="0"
     id="path37"
     style="fill:#ffffff" />
  <path
     d="m 101.69,38.5 c -12.329,0 -23.796,3.505 -33.5,9.563 115.46,117.54 112.78,128.47 195.88,211.48 61.01,-65.63 162.69,-110.63 206.52,-176.86 -8.04,-25.66 -31.903,-44.19 -60.28,-44.19 z"
     inkscape:connector-curvature="0"
     id="path39"
     style="fill:#71c67a" />
  <path
     d="m 452.22,54.34 -178.38,194.62 187.1,199.22 c 7.888,-10.545 12.563,-23.635 12.563,-37.875 v -308.62 c 0,-18.896 -8.219,-35.782 -21.281,-47.34"
     inkscape:connector-curvature="0"
     id="path41"
     style="fill:#f6bd7b" />
  <g
     transform="translate(-764.19,-44.57)"
     id="g43">
    <path
       d="m 876.89,473.94 c -1.31,-1.031 -3.261,-3.518 -4.335,-5.526 l -1.953,-3.652 v -156.02 -156.02 l 2.235,-4.344 c 1.341,-2.606 3.421,-5.04 5.2,-6.075 l 2.964,-1.731 3.589,3.953 c 1.974,2.174 35.622,39.1 74.77,82.06 39.15,42.96 71.868,78.975 72.7,80.03 1.502,1.907 0.777,2.738 -74.44,85.3 -41.777,45.857 -76.5,83.49 -77.16,83.63 -0.658,0.139 -2.269,-0.59 -3.58,-1.621 m 48.676,-25.48 c 9.929,-10.852 40.525,-44.38 67.989,-74.51 27.465,-30.13 50.26,-54.45 50.65,-54.05 3.449,3.552 44.663,49.04 44.526,49.14 -0.098,0.074 -33.992,18.633 -75.32,41.24 -41.33,22.609 -78.11,42.767 -81.73,44.795 -3.625,2.028 -10.546,5.808 -15.38,8.401 l -8.788,4.714 18.05,-19.73 m 151.69,-113.39 -24.26,-26.529 8.55,-9.339 c 4.703,-5.136 15.646,-17.13 24.318,-26.659 l 15.768,-17.32 2.688,1.626 c 1.478,0.894 16.529,9.223 33.447,18.507 46.01,25.25 47.02,25.966 47.02,33.36 0,4.422 -1.498,6.85 -6.378,10.341 -3.333,2.384 -72.56,40.884 -75.64,42.06 -0.823,0.316 -9.534,-8.579 -25.512,-26.05 m -97.74,-107.29 c -34.769,-38.28 -64.979,-71.56 -67.13,-73.952 l -3.915,-4.347 3.476,1.778 c 7.116,3.641 174.87,96.13 175.53,96.77 0.631,0.622 -42.27,48.536 -43.964,49.1 -0.425,0.142 -29.22,-31.06 -63.989,-69.35"
       inkscape:connector-curvature="0"
       id="path45"
       style="opacity:0.2" />
    <path
       d="m 861.89,458.94 c -1.31,-1.031 -3.261,-3.518 -4.335,-5.526 l -1.953,-3.652 v -156.02 -156.02 l 2.235,-4.344 c 1.341,-2.606 3.421,-5.04 5.2,-6.075 l 2.964,-1.731 3.589,3.953 c 1.974,2.174 35.622,39.1 74.77,82.06 39.15,42.96 71.868,78.975 72.7,80.03 1.502,1.907 0.777,2.738 -74.44,85.3 -41.777,45.857 -76.5,83.49 -77.16,83.63 -0.658,0.139 -2.269,-0.59 -3.58,-1.621 m 48.676,-25.48 c 9.929,-10.852 40.525,-44.38 67.989,-74.51 27.465,-30.13 50.26,-54.45 50.65,-54.05 3.449,3.552 44.663,49.04 44.526,49.14 -0.098,0.074 -33.992,18.633 -75.32,41.24 -41.33,22.609 -78.11,42.767 -81.73,44.795 -3.625,2.028 -10.546,5.808 -15.38,8.401 l -8.788,4.714 18.05,-19.73 m 151.69,-113.39 -24.26,-26.529 8.55,-9.339 c 4.703,-5.136 15.646,-17.13 24.318,-26.659 l 15.768,-17.32 2.688,1.626 c 1.478,0.894 16.529,9.223 33.447,18.507 46.01,25.25 47.02,25.966 47.02,33.36 0,4.422 -1.498,6.85 -6.378,10.341 -3.333,2.384 -72.56,40.884 -75.64,42.06 -0.823,0.316 -9.534,-8.579 -25.512,-26.05 m -97.74,-107.29 c -34.769,-38.28 -64.979,-71.56 -67.13,-73.952 l -3.915,-4.347 3.476,1.778 c 7.116,3.641 174.87,96.13 175.53,96.77 0.631,0.622 -42.27,48.536 -43.964,49.1 -0.425,0.142 -29.22,-31.06 -63.989,-69.35"
       inkscape:connector-curvature="0"
       id="path47"
       style="fill:#dcdbdb" />
  </g>
  <path
     d="M 101.69,38.5 C 66.68,38.5 38.5,66.67 38.5,101.69 v 15 C 38.5,81.68 66.67,53.5 101.69,53.5 h 308.63 c 35.01,0 63.19,28.17 63.19,63.19 v -15 C 473.51,66.68 445.34,38.5 410.32,38.5 H 101.7"
     inkscape:connector-curvature="0"
     id="path49"
     style="opacity:0.2" />
  <path
     d="M 78.66,6 C 63.797,6 49.99,10.43 38.5,18.03 V 493.97 C 49.986,501.572 63.793,506 78.66,506 h 68.844 V 6 H 78.66"
     inkscape:connector-curvature="0"
     id="path51"
     style="opacity:0.05;fill:url(#4)" />
  <path
     d="m 147.5,6 v 500 h 109 V 6 h -109"
     inkscape:connector-curvature="0"
     id="path53"
     style="opacity:0.05;fill:url(#6)" />
  <path
     d="m 256.5,6 v 500 h 109 V 6 h -109"
     inkscape:connector-curvature="0"
     id="path55"
     style="opacity:0.05;fill:url(#8)" />
  <path
     d="m 365.5,6 v 500 h 67.844 c 14.854,0 28.643,-4.438 40.13,-12.03 V 18.03 C 461.992,10.437 448.204,6 433.354,6 H 365.51"
     inkscape:connector-curvature="0"
     id="path57"
     style="opacity:0.05;fill:url(#7)" />
  <path
     d="M 38.5,18.03 C 18.886,31.011 6,53.27 6,78.66 v 354.69 c 0,25.381 12.886,47.644 32.5,60.63 V 18.04"
     inkscape:connector-curvature="0"
     id="path59"
     style="opacity:0.05;fill:url(#3)" />
  <path
     d="m 473.47,18.03 v 475.94 c 19.627,-12.979 32.531,-35.23 32.531,-60.62 V 78.66 c 0,-25.391 -12.905,-47.646 -32.531,-60.62"
     inkscape:connector-curvature="0"
     id="path61"
     style="opacity:0.05;fill:url(#5)" />
</svg>
