<svg xmlns="http://www.w3.org/2000/svg" xmlns:xlink="http://www.w3.org/1999/xlink" viewBox="0 0 512 512"><defs><filter id="7"><feGaussianBlur stdDeviation="3.7725"/></filter><linearGradient id="8" y1="19.564" x2="0" y2="504.02" gradientUnits="userSpaceOnUse"><stop stop-color="#f3f3f3"/><stop offset=".5" stop-color="#eee"/><stop offset="1" stop-color="#ebebeb"/></linearGradient><linearGradient xlink:href="#0" id="5" gradientUnits="userSpaceOnUse" gradientTransform="matrix(1.02835 0 0 1.46193 209.19-118.25)" x1="257" x2="362"/><linearGradient xlink:href="#0" id="6" gradientUnits="userSpaceOnUse" gradientTransform="matrix(1.0381 0 0 1.46193-337.29-118.25)" x1="257" x2="362"/><linearGradient xlink:href="#0" id="4" gradientUnits="userSpaceOnUse" gradientTransform="matrix(1.02835 0 0 1.46193 101.22-118.25)" x1="257" x2="362"/><linearGradient xlink:href="#0" id="3" gradientUnits="userSpaceOnUse" gradientTransform="matrix(1.0381 0 0 1.46193-10.289-118.25)" x1="257" x2="362"/><linearGradient id="0"><stop/><stop offset="1" stop-color="#fff"/></linearGradient><linearGradient xlink:href="#0" id="2" gradientUnits="userSpaceOnUse" gradientTransform="matrix(1.0381 0 0 1.46193-119.29-118.25)" x1="257" x2="362"/><linearGradient xlink:href="#0" id="1" gradientUnits="userSpaceOnUse" gradientTransform="matrix(1.0381 0 0 1.46193-228.29-118.25)" x1="257" x2="362"/></defs><path d="m78.66 6c-.929 0-1.861.028-2.781.063-.073.003-.146-.003-.219 0-.668.027-1.337.08-2 .125-.376.025-.751.063-1.125.094-.645.053-1.297.086-1.938.156-.965.106-1.922.232-2.875.375-.052.008-.104.023-.156.031-1.082.165-2.154.351-3.219.563-.459.091-.919.182-1.375.281-.39.085-.769.19-1.156.281-.647.152-1.297.299-1.938.469-.898.238-1.804.479-2.688.75-.211.065-.414.152-.625.219-.991.314-1.966.645-2.938 1-.817.298-1.635.611-2.438.938-.29.118-.587.222-.875.344-.136.057-.27.129-.406.188-.082.035-.169.058-.25.094-.717.311-1.42.636-2.125.969-.147.069-.291.148-.438.219-.947.455-1.889.943-2.813 1.438-.271.145-.544.289-.813.438-.414.228-.81.483-1.219.719-.52.3-1.051.594-1.563.906-.738.452-1.467.898-2.188 1.375-.031.021-.062.042-.094.063-.456.303-.895.625-1.344.938-.123.086-.252.163-.375.25-.524.37-1.049.742-1.563 1.125-1.835 1.371-3.618 2.84-5.313 4.375-.017.015-.046.016-.063.031-.526.477-1.02.977-1.531 1.469-.524.505-1.054 1.011-1.563 1.531-.512.523-1 1.055-1.5 1.594-.941 1.022-1.837 2.05-2.719 3.125-.631.769-1.244 1.58-1.844 2.375-.111.148-.233.289-.344.438-.526.71-1.031 1.427-1.531 2.156-.11.16-.235.308-.344.469-.013.019-.018.043-.031.063-.084.125-.167.249-.25.375-.47.708-.929 1.431-1.375 2.156-.071.116-.148.227-.219.344-.575.948-1.124 1.899-1.656 2.875-.152.278-.289.564-.438.844-.18.341-.356.687-.531 1.031-.243.479-.486.952-.719 1.438-.426.885-.828 1.783-1.219 2.688-.24.556-.461 1.124-.688 1.688-.038.095-.087.186-.125.281-.246.621-.489 1.245-.719 1.875-.332.909-.641 1.825-.938 2.75-.11.345-.238.684-.344 1.031-.301.99-.585 1.992-.844 3-.008.032-.023.062-.031.094-.267 1.046-.497 2.092-.719 3.156-.034.166-.06.334-.094.5-.426 2.117-.762 4.257-1 6.438-.035.323-.063.645-.094.969-.09.938-.165 1.895-.219 2.844-.017.29-.018.584-.031.875-.051 1.119-.094 2.243-.094 3.375v354.69 6c0 40.24 32.411 72.66 72.66 72.66h354.69c40.24 0 72.66-32.411 72.66-72.66v-354.69-6c0-1.259-.031-2.507-.094-3.75-.016-.323-.042-.647-.063-.969-.058-.917-.127-1.843-.219-2.75-.02-.2-.041-.394-.063-.594-.246-2.245-.587-4.447-1.031-6.625-.021-.104-.041-.209-.063-.313-.227-1.087-.476-2.15-.75-3.219-.011-.042-.02-.083-.031-.125-.19-.732-.413-1.464-.625-2.188-.212-.724-.423-1.442-.656-2.156-.258-.789-.529-1.567-.813-2.344-.23-.63-.472-1.254-.719-1.875-.038-.096-.087-.186-.125-.281-.239-.594-.465-1.195-.719-1.781-.378-.871-.777-1.741-1.188-2.594-.233-.485-.475-.958-.719-1.438-.287-.564-.574-1.132-.875-1.688-.051-.094-.105-.188-.156-.281-.513-.936-1.041-1.871-1.594-2.781-.212-.35-.438-.685-.656-1.031-.405-.642-.795-1.278-1.219-1.906-.809-1.199-1.685-2.354-2.563-3.5-.262-.341-.514-.695-.781-1.031-.189-.238-.371-.483-.563-.719-.093-.114-.188-.231-.281-.344-2.71-3.286-5.696-6.301-8.938-9.06-.293-.249-.578-.505-.875-.75-.268-.221-.541-.439-.813-.656-.636-.509-1.284-1.012-1.938-1.5-3.17-2.368-6.55-4.481-10.09-6.313-.617-.319-1.248-.636-1.875-.938-.155-.074-.313-.145-.469-.219-.785-.371-1.575-.719-2.375-1.063-.488-.209-.975-.426-1.469-.625-.735-.296-1.472-.571-2.219-.844-.392-.143-.793-.27-1.188-.406-.718-.248-1.459-.524-2.188-.75-.114-.035-.23-.059-.344-.094-.488-.149-.977-.267-1.469-.406-.357-.1-.703-.217-1.063-.313-.019-.005-.043.005-.063 0-.837-.221-1.683-.433-2.531-.625-.032-.007-.062-.024-.094-.031-.651-.146-1.311-.278-1.969-.406-1-.197-2.01-.376-3.03-.531-.063-.01-.125-.022-.188-.031-.952-.143-1.88-.269-2.844-.375-.836-.091-1.687-.156-2.531-.219-.176-.013-.355-.019-.531-.031-.735-.049-1.478-.097-2.219-.125-.92-.034-1.853-.063-2.781-.063h-285.84-68.844" filter="url(#7)" fill-opacity=".176"/><rect width="500" height="500" x="6" y="12" rx="72.64" opacity=".15"/><rect rx="72.64" y="6" x="6" height="500" width="500" fill="url(#8)"/><rect width="435" height="435" x="38.5" y="38.5" rx="63.2" fill="#2d74ec"/><path d="m101.69 38.5c-35.01 0-63.19 28.17-63.19 63.19v15c0-35.01 28.17-63.19 63.19-63.19h308.63c35.01 0 63.19 28.17 63.19 63.19v-15c0-35.01-28.17-63.19-63.19-63.19h-308.62" opacity=".2"/><path d="m78.66 6c-40.24 0-72.66 32.411-72.66 72.66v7c0-40.24 32.411-72.66 72.66-72.66h354.69c40.24 0 72.66 32.411 72.66 72.66v-7c0-40.24-32.411-72.66-72.66-72.66h-354.69" fill="#fff"/><g transform="translate(775.56 81.84)" color="#000"><path d="m-650.31 21.656c-12.05 0-21.75 9.697-21.75 21.75v156.5c0 12.05 9.697 21.75 21.75 21.75h4.094l-.719.719h15v39.5c6.484 6.615 12.958 13.156 19.25 19.5.497.502 1.01 1.032 1.5 1.531 6.228 6.406 12.636 12.986 19.25 19.469h39.875v17.531c0 12.05 9.697 21.75 21.75 21.75h156.5c12.05 0 21.75-9.697 21.75-21.75v-156.5c0-12.05-9.697-21.75-21.75-21.75h-98.25v-98.25c0-12.05-9.697-21.75-21.75-21.75h-156.5m68.906 22.406h9.594 9.594v8.5 8.531l28.563.281 28.531.281v9.06 9.06l-11.344.313-11.344.281-3.438 10.906c-5.859 18.596-12.715 31.998-23.406 45.688l-2.188 2.813 5.938 3.938c2.481 1.222 4.53 2.317 6.25 3.313-.054.048-.102.108-.156.156-.04.035-.086.058-.125.094-.188.171-.38.354-.563.531-.265.258-.53.542-.781.813-.157.169-.318.326-.469.5-.097.112-.186.23-.281.344-.024.029-.038.064-.063.094-.216.262-.421.509-.625.781-.218.29-.422.574-.625.875-.013.019-.019.043-.031.063-.182.271-.393.564-.563.844-.024.039-.039.086-.063.125-.155.26-.293.515-.438.781-.129.239-.254.475-.375.719-.066.134-.124.271-.188.406-.016.034-.047.06-.063.094-.105.226-.184.457-.281.688-.108.257-.214.519-.313.781-.025.066-.069.121-.094.188-.06.164-.1.334-.156.5-.114.337-.215.687-.313 1.031-.015.054-.048.103-.063.156-.034.125-.062.249-.094.375-.057.224-.106.461-.156.688-.057.259-.108.519-.156.781-.023.127-.073.248-.094.375-.015.091-.017.189-.031.281-.055.361-.088.727-.125 1.094-.034.336-.075.66-.094 1-.022.403-.031.81-.031 1.219v.063l-9.969-4.563-9.656-6.25-15.781 10.313c-16.262 10.595-30.467 18.16-36.25 19.313-3.045.609-3.694.155-8.75-6.094-3.01-3.717-5.469-7.28-5.469-7.906 0-.626 3.972-2.739 8.813-4.688 10.709-4.312 21.903-10.275 33.531-17.875l8.718-5.719-7.03-10.375c-6.88-10.147-17.375-30.08-17.375-33 0-1.161 2.053-1.399 9.75-1.156l9.719.313 5.469 10.438c5.213 9.938 13.272 22.08 14.656 22.09.357.003 3.361-3.419 6.688-7.594 6.863-8.614 13.717-22.14 15.594-30.813.698-3.227 1.47-6.698 1.75-7.719.476-1.738-2.363-1.864-45.16-2.125l-45.656-.281-.313-6.906c-.178-3.795-.055-7.974.281-9.313l.594-2.438h28.25 28.25v-8.531-8.531m117.22 144h24.5l42.5 108.5h-21.5l-9.5-25h-47l-9.5 25h-21.5l42-108.5m12.25 17.5l-19.25 50.5h38.5l-19.25-50.5m-125.22 16.09h25.09v40.22h-39.875v-39.5h15.5l-.719-.719" opacity=".2"/><path d="m-665.31 6.656c-12.05 0-21.75 9.697-21.75 21.75v156.5c0 12.05 9.697 21.75 21.75 21.75h4.094l-.719.719h15v39.5c6.484 6.615 12.958 13.156 19.25 19.5.497.502 1.01 1.032 1.5 1.531 6.228 6.406 12.636 12.986 19.25 19.469h39.875v17.531c0 12.05 9.697 21.75 21.75 21.75h156.5c12.05 0 21.75-9.697 21.75-21.75v-156.5c0-12.05-9.697-21.75-21.75-21.75h-98.25v-98.25c0-12.05-9.697-21.75-21.75-21.75h-156.5m68.906 22.406h9.594 9.594v8.5 8.531l28.563.281 28.531.281v9.06 9.06l-11.344.313-11.344.281-3.438 10.906c-5.859 18.596-12.715 31.998-23.406 45.688l-2.188 2.813 5.938 3.938c2.481 1.222 4.53 2.317 6.25 3.313-.054.048-.102.108-.156.156-.04.035-.086.058-.125.094-.188.171-.38.354-.563.531-.265.258-.53.542-.781.813-.157.169-.318.326-.469.5-.097.112-.186.23-.281.344-.024.029-.038.064-.063.094-.216.262-.421.509-.625.781-.218.29-.422.574-.625.875-.013.019-.019.043-.031.063-.182.271-.393.564-.563.844-.024.039-.039.086-.063.125-.155.26-.293.515-.438.781-.129.239-.254.475-.375.719-.066.134-.124.271-.188.406-.016.034-.047.06-.063.094-.105.226-.184.457-.281.688-.108.257-.214.519-.313.781-.025.066-.069.121-.094.188-.06.164-.1.334-.156.5-.114.337-.215.687-.313 1.031-.015.054-.048.103-.063.156-.034.125-.062.249-.094.375-.057.224-.106.461-.156.688-.057.259-.108.519-.156.781-.023.127-.073.248-.094.375-.015.091-.017.189-.031.281-.055.361-.088.727-.125 1.094-.034.336-.075.66-.094 1-.022.403-.031.81-.031 1.219v.063l-9.969-4.563-9.656-6.25-15.781 10.313c-16.262 10.595-30.467 18.16-36.25 19.313-3.045.609-3.694.155-8.75-6.094-3.01-3.717-5.469-7.28-5.469-7.906 0-.626 3.972-2.739 8.813-4.688 10.709-4.312 21.903-10.275 33.531-17.875l8.718-5.719-7.03-10.375c-6.88-10.147-17.375-30.08-17.375-33 0-1.161 2.053-1.399 9.75-1.156l9.719.313 5.469 10.438c5.213 9.938 13.272 22.08 14.656 22.09.357.003 3.361-3.419 6.688-7.594 6.863-8.614 13.717-22.14 15.594-30.813.698-3.227 1.47-6.698 1.75-7.719.476-1.738-2.363-1.864-45.16-2.125l-45.656-.281-.313-6.906c-.178-3.795-.055-7.974.281-9.313l.594-2.438h28.25 28.25v-8.531-8.531m117.22 144h24.5l42.5 108.5h-21.5l-9.5-25h-47l-9.5 25h-21.5l42-108.5m12.25 17.5l-19.25 50.5h38.5l-19.25-50.5m-125.22 16.09h25.09v40.22h-39.875v-39.5h15.5l-.719-.719" fill="#dcdbdb"/></g><path d="m78.66 6c-14.863 0-28.67 4.43-40.16 12.03v475.94c11.486 7.602 25.293 12.03 40.16 12.03h68.844v-500h-68.844" opacity=".05" fill="url(#1)"/><path d="m147.5 6v500h109v-500h-109" opacity=".05" fill="url(#2)"/><path d="m256.5 6v500h109v-500h-109" opacity=".05" fill="url(#3)"/><path d="m365.5 6v500h67.844c14.854 0 28.643-4.438 40.13-12.03v-475.94c-11.482-7.593-25.27-12.03-40.12-12.03h-67.844" opacity=".05" fill="url(#4)"/><path d="m38.5 18.03c-19.614 12.981-32.5 35.24-32.5 60.63v354.69c0 25.381 12.886 47.644 32.5 60.63v-475.94" opacity=".05" fill="url(#6)"/><path d="m473.47 18.03v475.94c19.627-12.979 32.531-35.23 32.531-60.62v-354.69c0-25.391-12.905-47.646-32.531-60.62" opacity=".05" fill="url(#5)"/></svg>