<?xml version="1.0" encoding="UTF-8" standalone="no"?>
<svg
   xmlns:dc="http://purl.org/dc/elements/1.1/"
   xmlns:cc="http://creativecommons.org/ns#"
   xmlns:rdf="http://www.w3.org/1999/02/22-rdf-syntax-ns#"
   xmlns:svg="http://www.w3.org/2000/svg"
   xmlns="http://www.w3.org/2000/svg"
   xmlns:xlink="http://www.w3.org/1999/xlink"
   xmlns:sodipodi="http://sodipodi.sourceforge.net/DTD/sodipodi-0.dtd"
   xmlns:inkscape="http://www.inkscape.org/namespaces/inkscape"
   viewBox="0 0 512 512"
   id="svg2"
   version="1.1"
   inkscape:version="0.48.4 r9939"
   width="100%"
   height="100%"
   sodipodi:docname="google-earth.svg">
  <metadata
     id="metadata105">
    <rdf:RDF>
      <cc:Work
         rdf:about="">
        <dc:format>image/svg+xml</dc:format>
        <dc:type
           rdf:resource="http://purl.org/dc/dcmitype/StillImage" />
      </cc:Work>
    </rdf:RDF>
  </metadata>
  <sodipodi:namedview
     pagecolor="#ffffff"
     bordercolor="#666666"
     borderopacity="1"
     objecttolerance="10"
     gridtolerance="10"
     guidetolerance="10"
     inkscape:pageopacity="0"
     inkscape:pageshadow="2"
     inkscape:window-width="1310"
     inkscape:window-height="718"
     id="namedview103"
     showgrid="false"
     inkscape:zoom="1.84375"
     inkscape:cx="245.61141"
     inkscape:cy="398.15957"
     inkscape:window-x="54"
     inkscape:window-y="27"
     inkscape:window-maximized="1"
     inkscape:current-layer="svg2" />
  <defs
     id="defs4">
    <filter
       id="7">
      <feGaussianBlur
         stdDeviation="3.7725"
         id="feGaussianBlur7" />
    </filter>
    <linearGradient
       id="8"
       y1="19.564"
       x2="0"
       y2="504.02"
       gradientUnits="userSpaceOnUse">
      <stop
         stop-color="#f3f3f3"
         id="stop10" />
      <stop
         offset=".5"
         stop-color="#eee"
         id="stop12" />
      <stop
         offset="1"
         stop-color="#ebebeb"
         id="stop14" />
    </linearGradient>
    <linearGradient
       xlink:href="#0"
       id="5"
       gradientUnits="userSpaceOnUse"
       gradientTransform="matrix(1.02835 0 0 1.46193 209.19-118.25)"
       x1="257"
       x2="362" />
    <linearGradient
       xlink:href="#0"
       id="6"
       gradientUnits="userSpaceOnUse"
       gradientTransform="matrix(1.0381 0 0 1.46193-337.29-118.25)"
       x1="257"
       x2="362" />
    <linearGradient
       xlink:href="#0"
       id="4"
       gradientUnits="userSpaceOnUse"
       gradientTransform="matrix(1.02835 0 0 1.46193 101.22-118.25)"
       x1="257"
       x2="362" />
    <linearGradient
       xlink:href="#0"
       id="3"
       gradientUnits="userSpaceOnUse"
       gradientTransform="matrix(1.0381 0 0 1.46193-10.289-118.25)"
       x1="257"
       x2="362" />
    <linearGradient
       id="0">
      <stop
         id="stop21" />
      <stop
         offset="1"
         stop-color="#fff"
         id="stop23" />
    </linearGradient>
    <linearGradient
       xlink:href="#0"
       id="2"
       gradientUnits="userSpaceOnUse"
       gradientTransform="matrix(1.0381 0 0 1.46193-119.29-118.25)"
       x1="257"
       x2="362" />
    <linearGradient
       xlink:href="#0"
       id="1"
       gradientUnits="userSpaceOnUse"
       gradientTransform="matrix(1.0381 0 0 1.46193-228.29-118.25)"
       x1="257"
       x2="362" />
  </defs>
  <path
     d="m78.66 6c-.929 0-1.861.028-2.781.063-.073.003-.146-.003-.219 0-.668.027-1.337.08-2 .125-.376.025-.751.063-1.125.094-.645.053-1.297.086-1.938.156-.965.106-1.922.232-2.875.375-.052.008-.104.023-.156.031-1.082.165-2.154.351-3.219.563-.459.091-.919.182-1.375.281-.39.085-.769.19-1.156.281-.647.152-1.297.299-1.938.469-.898.238-1.804.479-2.688.75-.211.065-.414.152-.625.219-.991.314-1.966.645-2.938 1-.817.298-1.635.611-2.438.938-.29.118-.587.222-.875.344-.136.057-.27.129-.406.188-.082.035-.169.058-.25.094-.717.311-1.42.636-2.125.969-.147.069-.291.148-.438.219-.947.455-1.889.943-2.813 1.438-.271.145-.544.289-.813.438-.414.228-.81.483-1.219.719-.52.3-1.051.594-1.563.906-.738.452-1.467.898-2.188 1.375-.031.021-.062.042-.094.063-.456.303-.895.625-1.344.938-.123.086-.252.163-.375.25-.524.37-1.049.742-1.563 1.125-1.835 1.371-3.618 2.84-5.313 4.375-.017.015-.046.016-.063.031-.526.477-1.02.977-1.531 1.469-.524.505-1.054 1.011-1.563 1.531-.512.523-1 1.055-1.5 1.594-.941 1.022-1.837 2.05-2.719 3.125-.631.769-1.244 1.58-1.844 2.375-.111.148-.233.289-.344.438-.526.71-1.031 1.427-1.531 2.156-.11.16-.235.308-.344.469-.013.019-.018.043-.031.063-.084.125-.167.249-.25.375-.47.708-.929 1.431-1.375 2.156-.071.116-.148.227-.219.344-.575.948-1.124 1.899-1.656 2.875-.152.278-.289.564-.438.844-.18.341-.356.687-.531 1.031-.243.479-.486.952-.719 1.438-.426.885-.828 1.783-1.219 2.688-.24.556-.461 1.124-.688 1.688-.038.095-.087.186-.125.281-.246.621-.489 1.245-.719 1.875-.332.909-.641 1.825-.938 2.75-.11.345-.238.684-.344 1.031-.301.99-.585 1.992-.844 3-.008.032-.023.062-.031.094-.267 1.046-.497 2.092-.719 3.156-.034.166-.06.334-.094.5-.426 2.117-.762 4.257-1 6.438-.035.323-.063.645-.094.969-.09.938-.165 1.895-.219 2.844-.017.29-.018.584-.031.875-.051 1.119-.094 2.243-.094 3.375v354.69 6c0 40.24 32.411 72.66 72.66 72.66h354.69c40.24 0 72.66-32.411 72.66-72.66v-354.69-6c0-1.259-.031-2.507-.094-3.75-.016-.323-.042-.647-.063-.969-.058-.917-.127-1.843-.219-2.75-.02-.2-.041-.394-.063-.594-.246-2.245-.587-4.447-1.031-6.625-.021-.104-.041-.209-.063-.313-.227-1.087-.476-2.15-.75-3.219-.011-.042-.02-.083-.031-.125-.19-.732-.413-1.464-.625-2.188-.212-.724-.423-1.442-.656-2.156-.258-.789-.529-1.567-.813-2.344-.23-.63-.472-1.254-.719-1.875-.038-.096-.087-.186-.125-.281-.239-.594-.465-1.195-.719-1.781-.378-.871-.777-1.741-1.188-2.594-.233-.485-.475-.958-.719-1.438-.287-.564-.574-1.132-.875-1.688-.051-.094-.105-.188-.156-.281-.513-.936-1.041-1.871-1.594-2.781-.212-.35-.438-.685-.656-1.031-.405-.642-.795-1.278-1.219-1.906-.809-1.199-1.685-2.354-2.563-3.5-.262-.341-.514-.695-.781-1.031-.189-.238-.371-.483-.563-.719-.093-.114-.188-.231-.281-.344-2.71-3.286-5.696-6.301-8.938-9.06-.293-.249-.578-.505-.875-.75-.268-.221-.541-.439-.813-.656-.636-.509-1.284-1.012-1.938-1.5-3.17-2.368-6.55-4.481-10.09-6.313-.617-.319-1.248-.636-1.875-.938-.155-.074-.313-.145-.469-.219-.785-.371-1.575-.719-2.375-1.063-.488-.209-.975-.426-1.469-.625-.735-.296-1.472-.571-2.219-.844-.392-.143-.793-.27-1.188-.406-.718-.248-1.459-.524-2.188-.75-.114-.035-.23-.059-.344-.094-.488-.149-.977-.267-1.469-.406-.357-.1-.703-.217-1.063-.313-.019-.005-.043.005-.063 0-.837-.221-1.683-.433-2.531-.625-.032-.007-.062-.024-.094-.031-.651-.146-1.311-.278-1.969-.406-1-.197-2.01-.376-3.03-.531-.063-.01-.125-.022-.188-.031-.952-.143-1.88-.269-2.844-.375-.836-.091-1.687-.156-2.531-.219-.176-.013-.355-.019-.531-.031-.735-.049-1.478-.097-2.219-.125-.92-.034-1.853-.063-2.781-.063h-285.84-68.844"
     filter="url(#7)"
     fill-opacity=".176"
     id="path27" />
  <rect
     width="500"
     height="500"
     x="6"
     y="12"
     rx="72.64"
     opacity=".15"
     id="rect29" />
  <rect
     rx="72.64"
     y="6"
     x="6"
     height="500"
     width="500"
     fill="url(#8)"
     id="rect31" />
  <rect
     width="435"
     height="435"
     x="38.5"
     y="38.5"
     rx="63.2"
     fill="#3a6b87"
     id="rect45" />
  <path
     d="m101.69 38.5c-35.01 0-63.19 28.17-63.19 63.19v15c0-35.01 28.17-63.19 63.19-63.19h308.63c35.01 0 63.19 28.17 63.19 63.19v-15c0-35.01-28.17-63.19-63.19-63.19h-308.62"
     opacity=".2"
     id="path47" />
  <path
     d="m78.66 6c-40.24 0-72.66 32.411-72.66 72.66v7c0-40.24 32.411-72.66 72.66-72.66h354.69c40.24 0 72.66 32.411 72.66 72.66v-7c0-40.24-32.411-72.66-72.66-72.66h-354.69"
     fill="#fff"
     id="path49" />
  <text
     font-size="129.23"
     letter-spacing="0"
     line-height="125%"
     word-spacing="0"
     x="174.48"
     y="221.01"
     font-family="Gentium Book Basic"
     id="text51">
    <tspan
       x="174.48"
       y="221.01"
       id="tspan53" />
  </text>
  <text
     x="240.56"
     y="537.7"
     font-size="46.954"
     transform="scale(4.0128.2492)"
     font-family="Arial"
     text-anchor="middle"
     id="text55" />
  <text
     font-size="129.23"
     letter-spacing="0"
     line-height="125%"
     word-spacing="0"
     x="755.75"
     y="141.01"
     font-family="Gentium Book Basic"
     id="text57">
    <tspan
       x="755.75"
       y="141.01"
       id="tspan59" />
  </text>
  <text
     x="385.41"
     y="216.68"
     font-size="46.954"
     transform="scale(4.0128.2492)"
     font-family="Arial"
     text-anchor="middle"
     id="text61" />
  <text
     font-size="129.23"
     letter-spacing="0"
     line-height="125%"
     word-spacing="0"
     x="-315.83"
     y="-40.25"
     font-family="Gentium Book Basic"
     id="text63">
    <tspan
       x="-315.83"
       y="-40.25"
       id="tspan65" />
  </text>
  <text
     x="118.37"
     y="-510.68"
     font-size="46.954"
     transform="scale(4.0128.2492)"
     font-family="Arial"
     text-anchor="middle"
     id="text67" />
  <text
     font-size="129.23"
     letter-spacing="0"
     line-height="125%"
     word-spacing="0"
     x="782.22"
     y="-256.72"
     font-family="Gentium Book Basic"
     id="text69">
    <tspan
       x="782.22"
       y="-256.72"
       id="tspan71" />
  </text>
  <text
     x="392.01"
     y="-1379.35"
     font-size="46.954"
     transform="scale(4.0128.2492)"
     font-family="Arial"
     text-anchor="middle"
     id="text73" />
  <text
     font-size="129.23"
     letter-spacing="0"
     line-height="125%"
     word-spacing="0"
     x="1363.49"
     y="-336.73"
     font-family="Gentium Book Basic"
     id="text75">
    <tspan
       x="1363.49"
       y="-336.73"
       id="tspan77" />
  </text>
  <text
     x="536.86"
     y="-1700.38"
     font-size="46.954"
     transform="scale(4.0128.2492)"
     font-family="Arial"
     text-anchor="middle"
     id="text79" />
  <text
     font-size="129.23"
     letter-spacing="0"
     line-height="125%"
     word-spacing="0"
     x="974.37"
     y="-809.13"
     font-family="Gentium Book Basic"
     id="text81">
    <tspan
       x="974.37"
       y="-809.13"
       id="tspan83" />
  </text>
  <text
     x="439.89"
     y="-3596.03"
     font-size="46.954"
     transform="scale(4.0128.2492)"
     font-family="Arial"
     text-anchor="middle"
     id="text85" />
  <text
     font-size="129.23"
     letter-spacing="0"
     line-height="125%"
     word-spacing="0"
     x="1555.63"
     y="-889.13"
     font-family="Gentium Book Basic"
     id="text87">
    <tspan
       x="1555.63"
       y="-889.13"
       id="tspan89" />
  </text>
  <text
     x="584.74"
     y="-3917.06"
     font-size="46.954"
     transform="scale(4.0128.2492)"
     font-family="Arial"
     text-anchor="middle"
     id="text91" />
  <text
     font-size="208.33"
     letter-spacing="0"
     line-height="125%"
     word-spacing="0"
     x="-277.17"
     y="525.59"
     font-family="Gentium Book Basic"
     id="text93">
    <tspan
       x="-277.17"
       y="525.59"
       id="tspan95" />
  </text>
  <g
     transform="translate(547.67 2.858)"
     fill-rule="evenodd"
     color="#000"
     id="g97">
    <path
       d="m-285.08 108.6c-20.01 0-39.1 3.707-56.774 10.303 48.638.84 76.09 5.813 100.99 19.232 2.075 1.118 4.142 2.282 6.192 3.52 6.15 3.714 12.266 7.998 18.576 12.878 27.2 21.04 29.575 46.635 52.675 66.19 14.06 11.908 12.16 10.904 18.663 10.904 7.117 0 10.741-6.333 12.471-13.222-20.71-63.66-81.28-109.81-152.79-109.81m-64.36 29.02c-3.401 0-6.79.361-10.116 1.03-1.109.223-2.216.483-3.314.773-30.75 8.11-57.06 41.505-65.67 56.836-.547.975-1.168 2.121-1.744 3.177-4.57 9.554-8.25 19.567-10.814 30.05 2.462-3.101 4.858-6.01 7.238-8.757 16.662-19.217 31.909-29.62 53.808-29.62 39.07 0 44.04 17.14 115.64 63.1 35.24 22.622 88.71 53.819 132.82 58.47 1.809-5.84 3.243-11.839 4.361-17.944-16.502-1.173-31.367-7.366-47.44-17.858-2.296-1.499-4.623-3.048-6.977-4.722-18.828-13.391-39.754-32.32-66.977-55.806-20.728-17.88-72.862-78.73-100.81-78.73m-55.989 180.38c-12.389 0-21.634 6.182-22.675 20.09 17.369 33.569 46.539 60.2 82.15 74.61-.472-.65-.92-1.335-1.395-2.061-3.326-5.077-6.541-11.944-6.541-19.833 0-9.177 6.03-12.792 12.82-12.792 9.04 0 38.899 13.994 88.87 13.994 24.993 0 56.17-3.604 79.01-12.277 9.02-8.646 16.957-18.327 23.721-28.847-14.598 5.826-41.592 14.252-76.74 14.252-67.91 0-129.84-28.536-147.73-37.691-4.746-2.428-16.912-9.444-31.483-9.444"
       opacity=".2"
       id="path99" />
    <path
       d="m-300.08 93.6c-20.01 0-39.1 3.707-56.774 10.303 48.638.84 76.09 5.813 100.99 19.232 2.075 1.118 4.142 2.282 6.192 3.52 6.15 3.714 12.266 7.998 18.576 12.878 27.2 21.04 29.575 46.635 52.675 66.19 14.06 11.908 12.16 10.904 18.663 10.904 7.117 0 10.741-6.333 12.471-13.222-20.71-63.66-81.28-109.81-152.79-109.81m-64.36 29.02c-3.401 0-6.79.361-10.116 1.03-1.109.223-2.216.483-3.314.773-30.75 8.11-57.06 41.505-65.67 56.836-.547.975-1.168 2.121-1.744 3.177-4.57 9.554-8.25 19.567-10.814 30.05 2.462-3.101 4.858-6.01 7.238-8.757 16.662-19.217 31.909-29.62 53.808-29.62 39.07 0 44.04 17.14 115.64 63.1 35.24 22.622 88.71 53.819 132.82 58.47 1.809-5.84 3.243-11.839 4.361-17.944-16.502-1.173-31.367-7.366-47.44-17.858-2.296-1.499-4.623-3.048-6.977-4.722-18.828-13.391-39.754-32.32-66.977-55.806-20.728-17.88-72.862-78.73-100.81-78.73m-55.989 180.38c-12.389 0-21.634 6.182-22.675 20.09 17.369 33.569 46.539 60.2 82.15 74.61-.472-.65-.92-1.335-1.395-2.061-3.326-5.077-6.541-11.944-6.541-19.833 0-9.177 6.03-12.792 12.82-12.792 9.04 0 38.899 13.994 88.87 13.994 24.993 0 56.17-3.604 79.01-12.277 9.02-8.646 16.957-18.327 23.721-28.847-14.598 5.826-41.592 14.252-76.74 14.252-67.91 0-129.84-28.536-147.73-37.691-4.746-2.428-16.912-9.444-31.483-9.444"
       fill="#dcdbdb"
       id="path101" />
  </g>
  <path
     d="m78.66 6c-14.863 0-28.67 4.43-40.16 12.03v475.94c11.486 7.602 25.293 12.03 40.16 12.03h68.844v-500h-68.844"
     opacity=".05"
     fill="url(#1)"
     id="path33" />
  <path
     d="m147.5 6v500h109v-500h-109"
     opacity=".05"
     fill="url(#2)"
     id="path35" />
  <path
     d="m256.5 6v500h109v-500h-109"
     opacity=".05"
     fill="url(#3)"
     id="path37" />
  <path
     d="m365.5 6v500h67.844c14.854 0 28.643-4.438 40.13-12.03v-475.94c-11.482-7.593-25.27-12.03-40.12-12.03h-67.844"
     opacity=".05"
     fill="url(#4)"
     id="path39" />
  <path
     d="m38.5 18.03c-19.614 12.981-32.5 35.24-32.5 60.63v354.69c0 25.381 12.886 47.644 32.5 60.63v-475.94"
     opacity=".05"
     fill="url(#6)"
     id="path41" />
  <path
     d="m473.47 18.03v475.94c19.627-12.979 32.531-35.23 32.531-60.62v-354.69c0-25.391-12.905-47.646-32.531-60.62"
     opacity=".05"
     fill="url(#5)"
     id="path43" />
</svg>
