<?xml version="1.0" encoding="UTF-8" standalone="no"?>
<!-- Created with Inkscape (http://www.inkscape.org/) -->

<svg
   xmlns:dc="http://purl.org/dc/elements/1.1/"
   xmlns:cc="http://creativecommons.org/ns#"
   xmlns:rdf="http://www.w3.org/1999/02/22-rdf-syntax-ns#"
   xmlns:svg="http://www.w3.org/2000/svg"
   xmlns="http://www.w3.org/2000/svg"
   xmlns:xlink="http://www.w3.org/1999/xlink"
   xmlns:inkscape="http://www.inkscape.org/namespaces/inkscape"
   version="1.1"
   width="100%"
   height="100%"
   viewBox="0 0 512 512"
   id="svg2">
  <metadata
     id="metadata105">
    <rdf:RDF>
      <cc:Work
         rdf:about="">
        <dc:format>image/svg+xml</dc:format>
        <dc:type
           rdf:resource="http://purl.org/dc/dcmitype/StillImage" />
      </cc:Work>
    </rdf:RDF>
  </metadata>
  <defs
     id="defs4">
    <filter
       color-interpolation-filters="sRGB"
       id="7">
      <feGaussianBlur
         id="feGaussianBlur7"
         stdDeviation="3.7725" />
    </filter>
    <linearGradient
       y1="19.563999"
       x2="0"
       y2="504.01999"
       id="8"
       gradientUnits="userSpaceOnUse">
      <stop
         id="stop10"
         style="stop-color:#f3f3f3;stop-opacity:1"
         offset="0" />
      <stop
         id="stop12"
         style="stop-color:#eeeeee;stop-opacity:1"
         offset="0.5" />
      <stop
         id="stop14"
         style="stop-color:#ebebeb;stop-opacity:1"
         offset="1" />
    </linearGradient>
    <linearGradient
       x1="257"
       x2="362"
       id="5"
       xlink:href="#0"
       gradientUnits="userSpaceOnUse"
       gradientTransform="matrix(1.02835,0,0,1.46193,209.19,-118.25)" />
    <linearGradient
       x1="257"
       x2="362"
       id="6"
       xlink:href="#0"
       gradientUnits="userSpaceOnUse"
       gradientTransform="matrix(1.0381,0,0,1.46193,-337.29,-118.25)" />
    <linearGradient
       x1="257"
       x2="362"
       id="4"
       xlink:href="#0"
       gradientUnits="userSpaceOnUse"
       gradientTransform="matrix(1.02835,0,0,1.46193,101.22,-118.25)" />
    <linearGradient
       x1="257"
       x2="362"
       id="3"
       xlink:href="#0"
       gradientUnits="userSpaceOnUse"
       gradientTransform="matrix(1.0381,0,0,1.46193,-10.289,-118.25)" />
    <linearGradient
       id="0">
      <stop
         id="stop21"
         style="stop-color:#000000;stop-opacity:1"
         offset="0" />
      <stop
         id="stop23"
         style="stop-color:#ffffff;stop-opacity:1"
         offset="1" />
    </linearGradient>
    <linearGradient
       x1="257"
       x2="362"
       id="2"
       xlink:href="#0"
       gradientUnits="userSpaceOnUse"
       gradientTransform="matrix(1.0381,0,0,1.46193,-119.29,-118.25)" />
    <linearGradient
       x1="257"
       x2="362"
       id="1"
       xlink:href="#0"
       gradientUnits="userSpaceOnUse"
       gradientTransform="matrix(1.0381,0,0,1.46193,-228.29,-118.25)" />
  </defs>
  <path
     d="m 78.66,6 c -0.929,0 -1.861,0.028 -2.781,0.063 -0.073,0.003 -0.146,-0.003 -0.219,0 -0.668,0.027 -1.337,0.08 -2,0.125 -0.376,0.025 -0.751,0.063 -1.125,0.094 -0.645,0.053 -1.297,0.086 -1.938,0.156 -0.965,0.106 -1.922,0.232 -2.875,0.375 -0.052,0.008 -0.104,0.023 -0.156,0.031 -1.082,0.165 -2.154,0.351 -3.219,0.563 -0.459,0.091 -0.919,0.182 -1.375,0.281 -0.39,0.085 -0.769,0.19 -1.156,0.281 -0.647,0.152 -1.297,0.299 -1.938,0.469 -0.898,0.238 -1.804,0.479 -2.688,0.75 -0.211,0.065 -0.414,0.152 -0.625,0.219 -0.991,0.314 -1.966,0.645 -2.938,1 -0.817,0.298 -1.635,0.611 -2.438,0.938 -0.29,0.118 -0.587,0.222 -0.875,0.344 -0.136,0.057 -0.27,0.129 -0.406,0.188 -0.082,0.035 -0.169,0.058 -0.25,0.094 -0.717,0.311 -1.42,0.636 -2.125,0.969 -0.147,0.069 -0.291,0.148 -0.438,0.219 -0.947,0.455 -1.889,0.943 -2.813,1.438 -0.271,0.145 -0.544,0.289 -0.813,0.438 -0.414,0.228 -0.81,0.483 -1.219,0.719 -0.52,0.3 -1.051,0.594 -1.563,0.906 -0.738,0.452 -1.467,0.898 -2.188,1.375 -0.031,0.021 -0.062,0.042 -0.094,0.063 -0.456,0.303 -0.895,0.625 -1.344,0.938 -0.123,0.086 -0.252,0.163 -0.375,0.25 -0.524,0.37 -1.049,0.742 -1.563,1.125 -1.835,1.371 -3.618,2.84 -5.313,4.375 -0.017,0.015 -0.046,0.016 -0.063,0.031 -0.526,0.477 -1.02,0.977 -1.531,1.469 -0.524,0.505 -1.054,1.011 -1.563,1.531 -0.512,0.523 -1,1.055 -1.5,1.594 -0.941,1.022 -1.837,2.05 -2.719,3.125 -0.631,0.769 -1.244,1.58 -1.844,2.375 -0.111,0.148 -0.233,0.289 -0.344,0.438 -0.526,0.71 -1.031,1.427 -1.531,2.156 -0.11,0.16 -0.235,0.308 -0.344,0.469 -0.013,0.019 -0.018,0.043 -0.031,0.063 -0.084,0.125 -0.167,0.249 -0.25,0.375 -0.47,0.708 -0.929,1.431 -1.375,2.156 -0.071,0.116 -0.148,0.227 -0.219,0.344 -0.575,0.948 -1.124,1.899 -1.656,2.875 -0.152,0.278 -0.289,0.564 -0.438,0.844 -0.18,0.341 -0.356,0.687 -0.531,1.031 -0.243,0.479 -0.486,0.952 -0.719,1.438 -0.426,0.885 -0.828,1.783 -1.219,2.688 -0.24,0.556 -0.461,1.124 -0.688,1.688 -0.038,0.095 -0.087,0.186 -0.125,0.281 -0.246,0.621 -0.489,1.245 -0.719,1.875 -0.332,0.909 -0.641,1.825 -0.938,2.75 -0.11,0.345 -0.238,0.684 -0.344,1.031 -0.301,0.99 -0.585,1.992 -0.844,3 -0.008,0.032 -0.023,0.062 -0.031,0.094 -0.267,1.046 -0.497,2.092 -0.719,3.156 -0.034,0.166 -0.06,0.334 -0.094,0.5 -0.426,2.117 -0.762,4.257 -1,6.438 -0.035,0.323 -0.063,0.645 -0.094,0.969 -0.09,0.938 -0.165,1.895 -0.219,2.844 -0.017,0.29 -0.018,0.584 -0.031,0.875 -0.051,1.119 -0.094,2.243 -0.094,3.375 v 354.69 6 c 0,40.24 32.411,72.66 72.66,72.66 h 354.69 c 40.24,0 72.66,-32.411 72.66,-72.66 v -354.69 -6 c 0,-1.259 -0.031,-2.507 -0.094,-3.75 -0.016,-0.323 -0.042,-0.647 -0.063,-0.969 -0.058,-0.917 -0.127,-1.843 -0.219,-2.75 -0.02,-0.2 -0.041,-0.394 -0.063,-0.594 -0.246,-2.245 -0.587,-4.447 -1.031,-6.625 -0.021,-0.104 -0.041,-0.209 -0.063,-0.313 -0.227,-1.087 -0.476,-2.15 -0.75,-3.219 -0.011,-0.042 -0.02,-0.083 -0.031,-0.125 -0.19,-0.732 -0.413,-1.464 -0.625,-2.188 -0.212,-0.724 -0.423,-1.442 -0.656,-2.156 -0.258,-0.789 -0.529,-1.567 -0.813,-2.344 -0.23,-0.63 -0.472,-1.254 -0.719,-1.875 -0.038,-0.096 -0.087,-0.186 -0.125,-0.281 -0.239,-0.594 -0.465,-1.195 -0.719,-1.781 -0.378,-0.871 -0.777,-1.741 -1.188,-2.594 -0.233,-0.485 -0.475,-0.958 -0.719,-1.438 -0.287,-0.564 -0.574,-1.132 -0.875,-1.688 -0.051,-0.094 -0.105,-0.188 -0.156,-0.281 -0.513,-0.936 -1.041,-1.871 -1.594,-2.781 -0.212,-0.35 -0.438,-0.685 -0.656,-1.031 -0.405,-0.642 -0.795,-1.278 -1.219,-1.906 -0.809,-1.199 -1.685,-2.354 -2.563,-3.5 -0.262,-0.341 -0.514,-0.695 -0.781,-1.031 -0.189,-0.238 -0.371,-0.483 -0.563,-0.719 -0.093,-0.114 -0.188,-0.231 -0.281,-0.344 -2.71,-3.286 -5.696,-6.301 -8.938,-9.06 -0.293,-0.249 -0.578,-0.505 -0.875,-0.75 -0.268,-0.221 -0.541,-0.439 -0.813,-0.656 -0.636,-0.509 -1.284,-1.012 -1.938,-1.5 -3.17,-2.368 -6.55,-4.481 -10.09,-6.313 -0.617,-0.319 -1.248,-0.636 -1.875,-0.938 -0.155,-0.074 -0.313,-0.145 -0.469,-0.219 -0.785,-0.371 -1.575,-0.719 -2.375,-1.063 -0.488,-0.209 -0.975,-0.426 -1.469,-0.625 -0.735,-0.296 -1.472,-0.571 -2.219,-0.844 -0.392,-0.143 -0.793,-0.27 -1.188,-0.406 -0.718,-0.248 -1.459,-0.524 -2.188,-0.75 -0.114,-0.035 -0.23,-0.059 -0.344,-0.094 -0.488,-0.149 -0.977,-0.267 -1.469,-0.406 -0.357,-0.1 -0.703,-0.217 -1.063,-0.313 -0.019,-0.005 -0.043,0.005 -0.063,0 -0.837,-0.221 -1.683,-0.433 -2.531,-0.625 -0.032,-0.007 -0.062,-0.024 -0.094,-0.031 -0.651,-0.146 -1.311,-0.278 -1.969,-0.406 -1,-0.197 -2.01,-0.376 -3.03,-0.531 -0.063,-0.01 -0.125,-0.022 -0.188,-0.031 -0.952,-0.143 -1.88,-0.269 -2.844,-0.375 -0.836,-0.091 -1.687,-0.156 -2.531,-0.219 -0.176,-0.013 -0.355,-0.019 -0.531,-0.031 -0.735,-0.049 -1.478,-0.097 -2.219,-0.125 -0.92,-0.034 -1.853,-0.063 -2.781,-0.063 H 147.503 78.659"
     inkscape:connector-curvature="0"
     id="path27"
     style="fill-opacity:0.17600002;filter:url(#7)" />
  <rect
     width="500"
     height="500"
     rx="72.639999"
     x="6"
     y="12"
     id="rect29"
     style="opacity:0.15" />
  <rect
     width="500"
     height="500"
     rx="72.639999"
     x="6"
     y="6"
     id="rect31"
     style="fill:url(#8)" />
  <rect
     width="435"
     height="435"
     rx="63.200001"
     x="38.5"
     y="38.5"
     id="rect33"
     style="fill:#ec704c" />
  <path
     d="M 101.69,38.5 C 66.68,38.5 38.5,66.67 38.5,101.69 v 15 C 38.5,81.68 66.67,53.5 101.69,53.5 h 308.63 c 35.01,0 63.19,28.17 63.19,63.19 v -15 C 473.51,66.68 445.34,38.5 410.32,38.5 H 101.7"
     inkscape:connector-curvature="0"
     id="path35"
     style="opacity:0.2" />
  <path
     d="M 78.66,6 C 38.42,6 6,38.411 6,78.66 v 7 C 6,45.42 38.411,13 78.66,13 h 354.69 c 40.24,0 72.66,32.411 72.66,72.66 v -7 C 506.01,38.42 473.599,6 433.35,6 H 78.66"
     inkscape:connector-curvature="0"
     id="path37"
     style="fill:#ffffff" />
  <text
     x="-345.25"
     y="46.706001"
     id="text39"
     style="font-size:129.22999573px;line-height:125%;letter-spacing:0;word-spacing:0;font-family:Gentium Book Basic">
    <tspan
       x="-345.25"
       y="46.706001"
       id="tspan41" />
  </text>
  <text
     x="111.05"
     y="-161.74001"
     transform="scale(4.0128,0.2492)"
     id="text43"
     style="font-size:46.95399857px;text-anchor:middle;font-family:Arial" />
  <text
     x="236.02"
     y="-33.290001"
     id="text45"
     style="font-size:129.22999573px;line-height:125%;letter-spacing:0;word-spacing:0;font-family:Gentium Book Basic">
    <tspan
       x="236.02"
       y="-33.290001"
       id="tspan47" />
  </text>
  <text
     x="255.89"
     y="-482.76001"
     transform="scale(4.0128,0.2492)"
     id="text49"
     style="font-size:46.95399857px;text-anchor:middle;font-family:Arial" />
  <text
     x="-835.56"
     y="-214.55"
     id="text51"
     style="font-size:129.22999573px;line-height:125%;letter-spacing:0;word-spacing:0;font-family:Gentium Book Basic">
    <tspan
       x="-835.56"
       y="-214.55"
       id="tspan53" />
  </text>
  <text
     x="-11.144"
     y="-1210.12"
     transform="scale(4.0128,0.2492)"
     id="text55"
     style="font-size:46.95399857px;text-anchor:middle;font-family:Arial" />
  <text
     x="262.48999"
     y="-431.01999"
     id="text57"
     style="font-size:129.22999573px;line-height:125%;letter-spacing:0;word-spacing:0;font-family:Gentium Book Basic">
    <tspan
       x="262.48999"
       y="-431.01999"
       id="tspan59" />
  </text>
  <text
     x="262.48999"
     y="-2078.79"
     transform="scale(4.0128,0.2492)"
     id="text61"
     style="font-size:46.95399857px;text-anchor:middle;font-family:Arial" />
  <text
     x="843.76001"
     y="-511.03"
     id="text63"
     style="font-size:129.22999573px;line-height:125%;letter-spacing:0;word-spacing:0;font-family:Gentium Book Basic">
    <tspan
       x="843.76001"
       y="-511.03"
       id="tspan65" />
  </text>
  <text
     x="407.34"
     y="-2399.8201"
     transform="scale(4.0128,0.2492)"
     id="text67"
     style="font-size:46.95399857px;text-anchor:middle;font-family:Arial" />
  <text
     x="454.64001"
     y="-983.42999"
     id="text69"
     style="font-size:129.22999573px;line-height:125%;letter-spacing:0;word-spacing:0;font-family:Gentium Book Basic">
    <tspan
       x="454.64001"
       y="-983.42999"
       id="tspan71" />
  </text>
  <text
     x="310.37"
     y="-4295.48"
     transform="scale(4.0128,0.2492)"
     id="text73"
     style="font-size:46.95399857px;text-anchor:middle;font-family:Arial" />
  <text
     x="1035.9"
     y="-1063.4301"
     id="text75"
     style="font-size:129.22999573px;line-height:125%;letter-spacing:0;word-spacing:0;font-family:Gentium Book Basic">
    <tspan
       x="1035.9"
       y="-1063.4301"
       id="tspan77" />
  </text>
  <text
     x="455.22"
     y="-4616.5"
     transform="scale(4.0128,0.2492)"
     id="text79"
     style="font-size:46.95399857px;text-anchor:middle;font-family:Arial" />
  <text
     x="-796.90002"
     y="351.29001"
     id="text81"
     style="font-size:208.33000183px;line-height:125%;letter-spacing:0;word-spacing:0;font-family:Gentium Book Basic">
    <tspan
       x="-796.90002"
       y="351.29001"
       id="tspan83" />
  </text>
  <g
     transform="translate(-7.5,-7.5)"
     id="g85">
    <path
       d="m 209.07,133.66 c -9.847,0 -20.558,1.209 -32.09,3.612 -11.288,2.403 -22.07,7.815 -32.399,16.225 -7.686,6.73 -13.482,14.426 -17.325,23.08 -3.842,8.412 -5.757,16.817 -5.757,25.23 0,6.969 1.336,13.915 3.978,20.884 2.641,6.729 6.471,12.771 11.516,18.06 5.04,5.287 11.293,9.616 18.739,12.98 7.445,3.125 15.988,4.658 25.596,4.658 1.922,0 3.836,0 5.757,0 1.922,-0.241 3.836,-0.492 5.757,-0.733 -0.96,2.163 -1.791,4.328 -2.512,6.49 -0.721,1.923 -1.099,4.466 -1.099,7.589 0,5.53 1.084,10.182 3.245,14.03 2.402,3.605 4.947,7.104 7.589,10.468 -4.083,0.241 -8.918,0.618 -14.448,1.099 -5.519,0.48 -11.394,1.311 -17.639,2.512 -6.244,1.202 -12.62,2.788 -19.11,4.711 -6.244,2.163 -12.11,4.905 -17.639,8.269 -10.567,6.248 -17.771,13.446 -21.617,21.617 -4.083,8.411 -6.124,15.861 -6.124,22.35 0,6.729 1.588,13.1 4.711,19.11 3.123,6.248 7.91,11.786 14.393,16.59 6.485,4.807 14.522,8.631 24.13,11.516 9.847,2.884 21.262,4.344 34.23,4.344 15.371,0 28.952,-2.039 40.721,-6.124 12.01,-3.846 21.962,-9 29.89,-15.497 7.925,-6.248 13.923,-13.446 18.01,-21.617 4.083,-8.171 6.124,-16.503 6.124,-24.914 0,-6.248 -0.831,-11.733 -2.512,-16.54 -1.681,-4.807 -3.975,-9.136 -6.857,-12.98 -2.642,-3.846 -5.893,-7.47 -9.735,-10.835 -3.603,-3.364 -7.306,-6.737 -11.148,-10.1 l -12.98,-10.1 c -1.922,-1.682 -3.963,-3.595 -6.124,-5.757 -2.161,-2.403 -3.245,-5.65 -3.245,-9.735 0,-4.085 1.084,-7.458 3.245,-10.1 2.161,-2.644 4.459,-5.134 6.857,-7.538 3.842,-2.884 7.546,-5.879 11.148,-9 3.603,-3.364 6.853,-6.989 9.735,-10.835 2.882,-4.085 5.176,-8.667 6.857,-13.713 1.681,-5.05 2.512,-10.91 2.512,-17.639 0,-6.729 -0.958,-12.771 -2.879,-18.06 -1.922,-5.287 -4.215,-9.816 -6.857,-13.661 -2.642,-4.085 -5.389,-7.458 -8.269,-10.1 -2.882,-2.884 -5.428,-5.174 -7.589,-6.857 h 22.35 l 23.08,-12.98 h -74.22 m -22.717,11.881 c 7.445,0 13.947,2.29 19.47,6.857 5.764,4.326 10.551,9.863 14.393,16.59 3.842,6.729 6.715,13.927 8.636,21.617 1.922,7.69 2.879,14.815 2.879,21.303 0,3.364 -0.453,7.567 -1.413,12.614 -0.96,5.05 -3.507,9.575 -7.589,13.661 -2.882,2.884 -6.585,5.3 -11.148,7.223 -4.323,1.923 -8.784,2.879 -13.345,2.879 -7.686,0 -14.382,-2.164 -20.15,-6.49 -5.519,-4.566 -10.237,-10.1 -14.08,-16.59 -3.603,-6.489 -6.349,-13.434 -8.269,-20.884 -1.681,-7.449 -2.512,-14.196 -2.512,-20.2 0,-4.806 0.504,-9.461 1.466,-14.03 1.201,-4.566 3.311,-8.769 6.438,-12.614 2.882,-3.605 6.634,-6.525 11.201,-8.689 4.563,-2.162 9.224,-3.245 14.03,-3.245 m 172.15,42.19 v 55.01 h -54.854 v 25.7 h 54.854 v 54.54 h 25.7 v -54.54 h 54.28 v -25.7 h -54.28 v -55.01 h -25.7 m -159.54,118.61 h 5.02 4.344 c 1.201,0 2.536,0.126 3.978,0.366 6.724,4.807 12.595,9.136 17.639,12.98 5.04,3.846 9.126,7.544 12.252,11.148 3.123,3.605 5.415,7.23 6.857,10.835 1.681,3.846 2.512,8.05 2.512,12.614 0,11.295 -4.587,20.531 -13.713,27.738 -8.885,7.45 -21.964,11.201 -39.26,11.201 -19.454,0 -34.951,-4.077 -46.48,-12.252 -11.288,-8.171 -16.906,-18.742 -16.906,-31.719 0,-6.489 1.21,-11.9 3.612,-16.225 2.641,-4.326 5.64,-7.95 9,-10.835 3.362,-2.884 6.689,-5.174 10.05,-6.857 3.603,-1.442 6.401,-2.524 8.322,-3.245 3.842,-1.202 7.804,-2.284 11.881,-3.245 4.083,-0.721 7.913,-1.299 11.516,-1.779 3.603,-0.241 6.727,-0.492 9.369,-0.733"
       inkscape:connector-curvature="0"
       id="path87"
       style="opacity:0.2" />
    <path
       d="m 194.07,118.66 c -9.847,0 -20.558,1.209 -32.09,3.612 -11.288,2.403 -22.07,7.815 -32.399,16.225 -7.686,6.73 -13.482,14.426 -17.325,23.08 -3.842,8.412 -5.757,16.817 -5.757,25.23 0,6.969 1.336,13.915 3.978,20.884 2.641,6.729 6.471,12.771 11.516,18.06 5.04,5.287 11.293,9.616 18.739,12.98 7.445,3.125 15.988,4.658 25.596,4.658 1.922,0 3.836,0 5.757,0 1.922,-0.241 3.836,-0.492 5.757,-0.733 -0.96,2.163 -1.791,4.328 -2.512,6.49 -0.721,1.923 -1.099,4.466 -1.099,7.589 0,5.53 1.084,10.182 3.245,14.03 2.402,3.605 4.947,7.104 7.589,10.468 -4.083,0.241 -8.918,0.618 -14.448,1.099 -5.519,0.48 -11.394,1.311 -17.639,2.512 -6.244,1.202 -12.62,2.788 -19.11,4.711 -6.244,2.163 -12.11,4.905 -17.639,8.269 -10.567,6.248 -17.771,13.446 -21.617,21.617 -4.083,8.411 -6.124,15.861 -6.124,22.35 0,6.729 1.588,13.1 4.711,19.11 3.123,6.248 7.91,11.786 14.393,16.59 6.485,4.807 14.522,8.631 24.13,11.516 9.847,2.884 21.262,4.344 34.23,4.344 15.371,0 28.952,-2.039 40.721,-6.124 12.01,-3.846 21.962,-9 29.89,-15.497 7.925,-6.248 13.923,-13.446 18.01,-21.617 4.083,-8.171 6.124,-16.503 6.124,-24.914 0,-6.248 -0.831,-11.733 -2.512,-16.54 -1.681,-4.807 -3.975,-9.136 -6.857,-12.98 -2.642,-3.846 -5.893,-7.47 -9.735,-10.835 -3.603,-3.364 -7.306,-6.737 -11.148,-10.1 l -12.98,-10.1 c -1.922,-1.682 -3.963,-3.595 -6.124,-5.757 -2.161,-2.403 -3.245,-5.65 -3.245,-9.735 0,-4.085 1.084,-7.458 3.245,-10.1 2.161,-2.644 4.459,-5.134 6.857,-7.538 3.842,-2.884 7.546,-5.879 11.148,-9 3.603,-3.364 6.853,-6.989 9.735,-10.835 2.882,-4.085 5.176,-8.667 6.857,-13.713 1.681,-5.05 2.512,-10.91 2.512,-17.639 0,-6.729 -0.958,-12.771 -2.879,-18.06 -1.922,-5.287 -4.215,-9.816 -6.857,-13.661 -2.642,-4.085 -5.389,-7.458 -8.269,-10.1 -2.882,-2.884 -5.428,-5.174 -7.589,-6.857 h 22.35 l 23.08,-12.98 h -74.22 m -22.717,11.881 c 7.445,0 13.947,2.29 19.47,6.857 5.764,4.326 10.551,9.863 14.393,16.59 3.842,6.729 6.715,13.927 8.636,21.617 1.922,7.69 2.879,14.815 2.879,21.303 0,3.364 -0.453,7.567 -1.413,12.614 -0.96,5.05 -3.507,9.575 -7.589,13.661 -2.882,2.884 -6.585,5.3 -11.148,7.223 -4.323,1.923 -8.784,2.879 -13.345,2.879 -7.686,0 -14.382,-2.164 -20.15,-6.49 -5.519,-4.566 -10.237,-10.1 -14.08,-16.59 -3.603,-6.489 -6.349,-13.434 -8.269,-20.884 -1.681,-7.449 -2.512,-14.196 -2.512,-20.2 0,-4.806 0.504,-9.461 1.466,-14.03 1.201,-4.566 3.311,-8.769 6.438,-12.614 2.882,-3.605 6.634,-6.525 11.201,-8.689 4.563,-2.162 9.224,-3.245 14.03,-3.245 m 172.15,42.19 v 55.01 h -54.854 v 25.7 h 54.854 v 54.54 h 25.7 v -54.54 h 54.28 v -25.7 h -54.28 v -55.01 h -25.7 m -159.54,118.61 h 5.02 4.344 c 1.201,0 2.536,0.126 3.978,0.366 6.724,4.807 12.595,9.136 17.639,12.98 5.04,3.846 9.126,7.544 12.252,11.148 3.123,3.605 5.415,7.23 6.857,10.835 1.681,3.846 2.512,8.05 2.512,12.614 0,11.295 -4.587,20.531 -13.713,27.738 -8.885,7.45 -21.964,11.201 -39.26,11.201 -19.454,0 -34.951,-4.077 -46.48,-12.252 -11.288,-8.171 -16.906,-18.742 -16.906,-31.719 0,-6.489 1.21,-11.9 3.612,-16.225 2.641,-4.326 5.64,-7.95 9,-10.835 3.362,-2.884 6.689,-5.174 10.05,-6.857 3.603,-1.442 6.401,-2.524 8.322,-3.245 3.842,-1.202 7.804,-2.284 11.881,-3.245 4.083,-0.721 7.913,-1.299 11.516,-1.779 3.603,-0.241 6.727,-0.492 9.369,-0.733"
       inkscape:connector-curvature="0"
       id="path89"
       style="fill:#dcdbdb" />
  </g>
  <path
     d="M 78.66,6 C 63.797,6 49.99,10.43 38.5,18.03 V 493.97 C 49.986,501.572 63.793,506 78.66,506 h 68.844 V 6 H 78.66"
     inkscape:connector-curvature="0"
     id="path91"
     style="opacity:0.05;fill:url(#1)" />
  <path
     d="m 147.5,6 v 500 h 109 V 6 h -109"
     inkscape:connector-curvature="0"
     id="path93"
     style="opacity:0.05;fill:url(#2)" />
  <path
     d="m 256.5,6 v 500 h 109 V 6 h -109"
     inkscape:connector-curvature="0"
     id="path95"
     style="opacity:0.05;fill:url(#3)" />
  <path
     d="m 365.5,6 v 500 h 67.844 c 14.854,0 28.643,-4.438 40.13,-12.03 V 18.03 C 461.992,10.437 448.204,6 433.354,6 H 365.51"
     inkscape:connector-curvature="0"
     id="path97"
     style="opacity:0.05;fill:url(#4)" />
  <path
     d="M 38.5,18.03 C 18.886,31.011 6,53.27 6,78.66 v 354.69 c 0,25.381 12.886,47.644 32.5,60.63 V 18.04"
     inkscape:connector-curvature="0"
     id="path99"
     style="opacity:0.05;fill:url(#6)" />
  <path
     d="m 473.47,18.03 v 475.94 c 19.627,-12.979 32.531,-35.23 32.531,-60.62 V 78.66 c 0,-25.391 -12.905,-47.646 -32.531,-60.62"
     inkscape:connector-curvature="0"
     id="path101"
     style="opacity:0.05;fill:url(#5)" />
</svg>
