<?xml version="1.0" encoding="UTF-8" standalone="no"?>
<!-- Created with Inkscape (http://www.inkscape.org/) -->

<svg
   xmlns:dc="http://purl.org/dc/elements/1.1/"
   xmlns:cc="http://creativecommons.org/ns#"
   xmlns:rdf="http://www.w3.org/1999/02/22-rdf-syntax-ns#"
   xmlns:svg="http://www.w3.org/2000/svg"
   xmlns="http://www.w3.org/2000/svg"
   xmlns:xlink="http://www.w3.org/1999/xlink"
   xmlns:inkscape="http://www.inkscape.org/namespaces/inkscape"
   version="1.1"
   width="100%"
   height="100%"
   viewBox="0 0 512 512"
   id="svg2">
  <metadata
     id="metadata183">
    <rdf:RDF>
      <cc:Work
         rdf:about="">
        <dc:format>image/svg+xml</dc:format>
        <dc:type
           rdf:resource="http://purl.org/dc/dcmitype/StillImage" />
      </cc:Work>
    </rdf:RDF>
  </metadata>
  <defs
     id="defs4">
    <filter
       color-interpolation-filters="sRGB"
       id="0">
      <feGaussianBlur
         id="feGaussianBlur7"
         stdDeviation="3.7725" />
    </filter>
    <linearGradient
       x1="257"
       x2="362"
       id="5"
       xlink:href="#6"
       gradientUnits="userSpaceOnUse"
       gradientTransform="matrix(1.0381,0,0,1.46193,-10.289,-118.25)" />
    <linearGradient
       id="6">
      <stop
         id="stop11"
         style="stop-color:#000000;stop-opacity:1"
         offset="0" />
      <stop
         id="stop13"
         style="stop-color:#ffffff;stop-opacity:1"
         offset="1" />
    </linearGradient>
    <linearGradient
       x1="257"
       x2="362"
       id="7"
       xlink:href="#6"
       gradientUnits="userSpaceOnUse"
       gradientTransform="matrix(1.0381,0,0,1.46193,-119.29,-118.25)" />
    <linearGradient
       x1="257"
       x2="362"
       id="4"
       xlink:href="#6"
       gradientUnits="userSpaceOnUse"
       gradientTransform="matrix(1.02835,0,0,1.46193,101.22,-118.25)" />
    <linearGradient
       x1="257"
       x2="362"
       id="8"
       xlink:href="#6"
       gradientUnits="userSpaceOnUse"
       gradientTransform="matrix(1.0381,0,0,1.46193,-228.29,-118.25)" />
    <linearGradient
       y1="19.563999"
       x2="0"
       y2="504.01999"
       id="1"
       gradientUnits="userSpaceOnUse">
      <stop
         id="stop19"
         style="stop-color:#f3f3f3;stop-opacity:1"
         offset="0" />
      <stop
         id="stop21"
         style="stop-color:#eeeeee;stop-opacity:1"
         offset="0.5" />
      <stop
         id="stop23"
         style="stop-color:#ebebeb;stop-opacity:1"
         offset="1" />
    </linearGradient>
    <linearGradient
       x1="257"
       x2="362"
       id="3"
       xlink:href="#6"
       gradientUnits="userSpaceOnUse"
       gradientTransform="matrix(1.0381,0,0,1.46193,-337.29,-118.25)" />
    <linearGradient
       x1="257"
       x2="362"
       id="2"
       xlink:href="#6"
       gradientUnits="userSpaceOnUse"
       gradientTransform="matrix(1.02835,0,0,1.46193,209.19,-118.25)" />
  </defs>
  <path
     d="m 78.66,6 c -0.929,0 -1.861,0.028 -2.781,0.063 -0.073,0.003 -0.146,-0.003 -0.219,0 -0.668,0.027 -1.337,0.08 -2,0.125 -0.376,0.025 -0.751,0.063 -1.125,0.094 -0.645,0.053 -1.297,0.086 -1.938,0.156 -0.965,0.106 -1.922,0.232 -2.875,0.375 -0.052,0.008 -0.104,0.023 -0.156,0.031 -1.082,0.165 -2.154,0.351 -3.219,0.563 -0.459,0.091 -0.919,0.182 -1.375,0.281 -0.39,0.085 -0.769,0.19 -1.156,0.281 -0.647,0.152 -1.297,0.299 -1.938,0.469 -0.898,0.238 -1.804,0.479 -2.688,0.75 -0.211,0.065 -0.414,0.152 -0.625,0.219 -0.991,0.314 -1.966,0.645 -2.938,1 -0.817,0.298 -1.635,0.611 -2.438,0.938 -0.29,0.118 -0.587,0.222 -0.875,0.344 -0.136,0.057 -0.27,0.129 -0.406,0.188 -0.082,0.035 -0.169,0.058 -0.25,0.094 -0.717,0.311 -1.42,0.636 -2.125,0.969 -0.147,0.069 -0.291,0.148 -0.438,0.219 -0.947,0.455 -1.889,0.943 -2.813,1.438 -0.271,0.145 -0.544,0.289 -0.813,0.438 -0.414,0.228 -0.81,0.483 -1.219,0.719 -0.52,0.3 -1.051,0.594 -1.563,0.906 -0.738,0.452 -1.467,0.898 -2.188,1.375 -0.031,0.021 -0.062,0.042 -0.094,0.063 -0.456,0.303 -0.895,0.625 -1.344,0.938 -0.123,0.086 -0.252,0.163 -0.375,0.25 -0.524,0.37 -1.049,0.742 -1.563,1.125 -1.835,1.371 -3.618,2.84 -5.313,4.375 -0.017,0.015 -0.046,0.016 -0.063,0.031 -0.526,0.477 -1.02,0.977 -1.531,1.469 -0.524,0.505 -1.054,1.01 -1.563,1.531 -0.512,0.523 -1,1.055 -1.5,1.594 -0.941,1.022 -1.837,2.05 -2.719,3.125 -0.631,0.769 -1.244,1.58 -1.844,2.375 -0.111,0.148 -0.233,0.289 -0.344,0.438 -0.526,0.71 -1.031,1.427 -1.531,2.156 -0.11,0.16 -0.235,0.308 -0.344,0.469 -0.013,0.019 -0.018,0.043 -0.031,0.063 -0.084,0.125 -0.167,0.249 -0.25,0.375 -0.47,0.708 -0.929,1.431 -1.375,2.156 -0.071,0.116 -0.148,0.227 -0.219,0.344 -0.575,0.948 -1.124,1.899 -1.656,2.875 -0.152,0.278 -0.289,0.564 -0.438,0.844 -0.18,0.341 -0.356,0.687 -0.531,1.031 -0.243,0.479 -0.486,0.952 -0.719,1.438 -0.426,0.885 -0.828,1.783 -1.219,2.688 -0.24,0.556 -0.461,1.124 -0.688,1.688 -0.038,0.095 -0.087,0.186 -0.125,0.281 -0.246,0.621 -0.489,1.245 -0.719,1.875 -0.332,0.909 -0.641,1.825 -0.938,2.75 -0.11,0.345 -0.238,0.684 -0.344,1.031 -0.301,0.99 -0.585,1.992 -0.844,3 -0.008,0.032 -0.023,0.062 -0.031,0.094 -0.267,1.046 -0.497,2.092 -0.719,3.156 -0.034,0.166 -0.06,0.334 -0.094,0.5 -0.426,2.117 -0.762,4.257 -1,6.438 -0.035,0.323 -0.063,0.645 -0.094,0.969 -0.09,0.938 -0.165,1.895 -0.219,2.844 -0.017,0.29 -0.018,0.584 -0.031,0.875 -0.051,1.119 -0.094,2.243 -0.094,3.375 v 354.69 6 c 0,40.24 32.411,72.66 72.66,72.66 h 354.69 c 40.24,0 72.66,-32.411 72.66,-72.66 v -354.69 -6 c 0,-1.259 -0.031,-2.507 -0.094,-3.75 -0.016,-0.323 -0.042,-0.647 -0.063,-0.969 -0.058,-0.917 -0.127,-1.843 -0.219,-2.75 -0.02,-0.2 -0.041,-0.394 -0.063,-0.594 -0.246,-2.245 -0.587,-4.447 -1.031,-6.625 -0.021,-0.104 -0.041,-0.209 -0.063,-0.313 -0.227,-1.087 -0.476,-2.15 -0.75,-3.219 -0.011,-0.042 -0.02,-0.083 -0.031,-0.125 -0.19,-0.732 -0.413,-1.464 -0.625,-2.188 -0.212,-0.724 -0.423,-1.442 -0.656,-2.156 -0.258,-0.789 -0.529,-1.567 -0.813,-2.344 -0.23,-0.63 -0.472,-1.254 -0.719,-1.875 -0.038,-0.096 -0.087,-0.186 -0.125,-0.281 -0.239,-0.594 -0.465,-1.195 -0.719,-1.781 -0.378,-0.871 -0.777,-1.741 -1.188,-2.594 -0.233,-0.485 -0.475,-0.958 -0.719,-1.438 -0.287,-0.564 -0.574,-1.132 -0.875,-1.688 -0.051,-0.094 -0.105,-0.188 -0.156,-0.281 -0.513,-0.936 -1.041,-1.871 -1.594,-2.781 -0.212,-0.35 -0.438,-0.685 -0.656,-1.031 -0.405,-0.642 -0.795,-1.278 -1.219,-1.906 -0.809,-1.199 -1.685,-2.354 -2.563,-3.5 -0.262,-0.341 -0.514,-0.695 -0.781,-1.031 -0.189,-0.238 -0.371,-0.483 -0.563,-0.719 -0.093,-0.114 -0.188,-0.231 -0.281,-0.344 -2.71,-3.286 -5.696,-6.301 -8.938,-9.06 -0.293,-0.249 -0.578,-0.505 -0.875,-0.75 -0.268,-0.221 -0.541,-0.439 -0.813,-0.656 -0.636,-0.509 -1.284,-1.012 -1.938,-1.5 -3.17,-2.368 -6.55,-4.481 -10.09,-6.313 -0.617,-0.319 -1.248,-0.636 -1.875,-0.938 -0.155,-0.074 -0.313,-0.145 -0.469,-0.219 -0.785,-0.371 -1.575,-0.719 -2.375,-1.063 -0.488,-0.209 -0.975,-0.426 -1.469,-0.625 -0.735,-0.296 -1.472,-0.571 -2.219,-0.844 -0.392,-0.143 -0.793,-0.27 -1.188,-0.406 -0.718,-0.248 -1.459,-0.524 -2.188,-0.75 -0.114,-0.035 -0.23,-0.059 -0.344,-0.094 -0.488,-0.149 -0.977,-0.267 -1.469,-0.406 -0.357,-0.1 -0.703,-0.217 -1.063,-0.313 -0.019,-0.005 -0.043,0.005 -0.063,0 -0.837,-0.221 -1.683,-0.433 -2.531,-0.625 -0.032,-0.007 -0.062,-0.024 -0.094,-0.031 -0.651,-0.146 -1.311,-0.278 -1.969,-0.406 -1,-0.197 -2.01,-0.376 -3.03,-0.531 -0.063,-0.01 -0.125,-0.022 -0.188,-0.031 -0.952,-0.143 -1.88,-0.269 -2.844,-0.375 -0.836,-0.091 -1.687,-0.156 -2.531,-0.219 -0.176,-0.013 -0.355,-0.019 -0.531,-0.031 -0.735,-0.049 -1.478,-0.097 -2.219,-0.125 -0.92,-0.034 -1.853,-0.063 -2.781,-0.063 H 147.503 78.659"
     inkscape:connector-curvature="0"
     id="path27"
     style="fill-opacity:0.17600002;filter:url(#0)" />
  <rect
     width="500"
     height="500"
     rx="72.639999"
     x="6"
     y="12"
     id="rect29"
     style="opacity:0.15" />
  <rect
     width="500"
     height="500"
     rx="72.639999"
     x="6"
     y="6"
     id="rect31"
     style="fill:url(#1)" />
  <rect
     width="435"
     height="435"
     rx="63.200001"
     x="38.5"
     y="38.5"
     id="rect33"
     style="fill:#818181" />
  <path
     d="M 101.69,38.5 C 66.68,38.5 38.5,66.67 38.5,101.69 v 15 C 38.5,81.68 66.67,53.5 101.69,53.5 h 308.63 c 35.01,0 63.19,28.17 63.19,63.19 v -15 C 473.51,66.68 445.34,38.5 410.32,38.5 H 101.7"
     inkscape:connector-curvature="0"
     id="path35"
     style="opacity:0.2" />
  <path
     d="M 78.66,6 C 38.42,6 6,38.411 6,78.66 v 7 C 6,45.42 38.411,13 78.66,13 h 354.69 c 40.24,0 72.66,32.411 72.66,72.66 v -7 C 506.01,38.42 473.599,6 433.35,6 H 78.66"
     inkscape:connector-curvature="0"
     id="path37"
     style="fill:#ffffff" />
  <text
     x="-324.67999"
     y="572.78003"
     id="text39"
     style="font-size:129.22999573px;line-height:125%;letter-spacing:0;word-spacing:0;font-family:Gentium Book Basic">
    <tspan
       x="-324.67999"
       y="572.78003"
       id="tspan41" />
  </text>
  <text
     x="116.17"
     y="1949.3"
     transform="scale(4.0128,0.2492)"
     id="text43"
     style="font-size:46.95399857px;text-anchor:middle;font-family:Arial" />
  <text
     x="256.59"
     y="492.78"
     id="text45"
     style="font-size:129.22999573px;line-height:125%;letter-spacing:0;word-spacing:0;font-family:Gentium Book Basic">
    <tspan
       x="256.59"
       y="492.78"
       id="tspan47" />
  </text>
  <text
     x="261.01999"
     y="1628.28"
     transform="scale(4.0128,0.2492)"
     id="text49"
     style="font-size:46.95399857px;text-anchor:middle;font-family:Arial" />
  <text
     x="-814.98999"
     y="311.51999"
     id="text51"
     style="font-size:129.22999573px;line-height:125%;letter-spacing:0;word-spacing:0;font-family:Gentium Book Basic">
    <tspan
       x="-814.98999"
       y="311.51999"
       id="tspan53" />
  </text>
  <text
     x="-6.02"
     y="900.91998"
     transform="scale(4.0128,0.2492)"
     id="text55"
     style="font-size:46.95399857px;text-anchor:middle;font-family:Arial" />
  <text
     x="283.06"
     y="95.050003"
     id="text57"
     style="font-size:129.22999573px;line-height:125%;letter-spacing:0;word-spacing:0;font-family:Gentium Book Basic">
    <tspan
       x="283.06"
       y="95.050003"
       id="tspan59" />
  </text>
  <text
     x="267.62"
     y="32.25"
     transform="scale(4.0128,0.2492)"
     id="text61"
     style="font-size:46.95399857px;text-anchor:middle;font-family:Arial" />
  <text
     x="864.33002"
     y="15.04"
     id="text63"
     style="font-size:129.22999573px;line-height:125%;letter-spacing:0;word-spacing:0;font-family:Gentium Book Basic">
    <tspan
       x="864.33002"
       y="15.04"
       id="tspan65" />
  </text>
  <text
     x="412.47"
     y="-288.78"
     transform="scale(4.0128,0.2492)"
     id="text67"
     style="font-size:46.95399857px;text-anchor:middle;font-family:Arial" />
  <text
     x="475.20999"
     y="-457.35999"
     id="text69"
     style="font-size:129.22999573px;line-height:125%;letter-spacing:0;word-spacing:0;font-family:Gentium Book Basic">
    <tspan
       x="475.20999"
       y="-457.35999"
       id="tspan71" />
  </text>
  <text
     x="315.5"
     y="-2184.4299"
     transform="scale(4.0128,0.2492)"
     id="text73"
     style="font-size:46.95399857px;text-anchor:middle;font-family:Arial" />
  <text
     x="1056.47"
     y="-537.35999"
     id="text75"
     style="font-size:129.22999573px;line-height:125%;letter-spacing:0;word-spacing:0;font-family:Gentium Book Basic">
    <tspan
       x="1056.47"
       y="-537.35999"
       id="tspan77" />
  </text>
  <text
     x="460.35001"
     y="-2505.46"
     transform="scale(4.0128,0.2492)"
     id="text79"
     style="font-size:46.95399857px;text-anchor:middle;font-family:Arial" />
  <text
     x="-776.33002"
     y="877.35999"
     id="text81"
     style="font-size:208.33000183px;line-height:125%;letter-spacing:0;word-spacing:0;font-family:Gentium Book Basic">
    <tspan
       x="-776.33002"
       y="877.35999"
       id="tspan83" />
  </text>
  <g
     transform="translate(641.11,112)"
     id="g85">
    <path
       d="m -436.05,-2.156 c -4.412,0.142 -11.1,0.601 -18.727,1.988 -24.05,4.351 -57.33,20.284 -66.747,53.36 -14.552,51.15 22.912,71.45 22.912,71.45 0,0 13.207,7.698 18.622,9.206 16.288,4.547 33.583,2.406 33.583,2.406 0,0 -6.948,22.859 6.905,39.02 3.307,3.858 0.942,4.08 0.942,4.08 0,0 -60.59,-1.649 -89.24,28.77 -28.659,30.43 -13.08,58.48 -13.08,58.48 0,0 15.01,36.649 79.82,38.5 65.1,1.858 105.39,-36.697 108.91,-65.805 1.769,-14.63 -0.202,-28.397 -7.533,-40.38 -7.128,-11.658 -19.423,-21.712 -31.386,-31.49 -7.43,-6.079 -12.572,-9.165 -15.902,-12.659 -3.146,-3.302 -3.67,-7.585 -3.557,-10.776 0.164,-4.457 2.438,-9.884 10.253,-18.936 14.257,-16.513 17.855,-14.422 26.469,-26.783 2.581,-3.706 4.568,-9.104 7.219,-17.16 1.598,-4.852 1.255,-9.971 1.255,-14.647 0,-10.11 -2.445,-19.707 -6.486,-27.829 -7.506,-15.09 -20.371,-24.89 -20.61,-25.632 h 22.598 l 25.632,-14.961 -86.31,-0.209 h -1.883 c -0.909,0 -2.191,-0.047 -3.662,0 m 157.56,11.822 c -8.44,0 -9.303,0.604 -11.404,7.114 -1.913,5.928 -3.43,7.3 -10.776,10.148 -6.676,2.588 -8.661,2.582 -11.927,0 -3.962,-3.131 -8.915,-2.043 -13.81,2.929 -5.518,5.606 -5.929,7.469 -2.825,13.391 2.781,5.302 2.711,7.519 -0.628,14.856 -2.529,5.557 -3.735,6.787 -8.893,8.474 -5.873,1.922 -6.905,3.711 -6.905,11.717 0,8 0.892,9.519 6.591,10.985 5.99,1.541 7.148,2.713 10.148,9.939 3.273,7.883 3.22,7.382 0.418,12.659 -3.44,6.479 -3.086,7.972 2.929,14.02 6.01,6.04 7.481,6.273 13.705,2.825 5.089,-2.82 6.203,-2.78 13.287,0.105 6.314,2.571 9.102,5.05 9.102,7.951 0,2.214 1.096,4.431 3.243,6.8 1.392,1.536 2.191,1.779 8.788,1.779 8.583,0 10.141,-0.886 11.299,-6.068 1.54,-6.889 2.336,-7.779 9.625,-10.776 7.955,-3.27 8.647,-3.396 12.24,-0.942 5.546,3.788 8.725,3.515 13.81,-1.36 5.971,-5.723 7.219,-9.1 4.603,-13.08 -3.843,-5.848 -4.02,-7.5 -1.046,-14.647 2.896,-6.954 4.558,-8.399 10.88,-9.416 4.696,-0.755 5.562,-2.381 5.859,-10.462 0.354,-9.647 -0.424,-11.148 -7.219,-13.182 -6.123,-1.833 -6.943,-2.567 -9.939,-9.834 -2.827,-6.858 -2.874,-9.08 -0.628,-12.136 3.387,-4.607 2.955,-8.867 -1.255,-13.391 -6.2,-6.662 -8.435,-7.217 -14.961,-3.766 -4.883,2.581 -6.5,2.737 -10.567,1.046 -8.421,-3.501 -10.644,-4.819 -11.09,-6.486 -2.807,-10.494 -3.553,-11.194 -12.659,-11.194 m -172.52,2.197 c 13.164,0.098 33.04,6.919 44.882,42.475 20.339,61.01 -22.284,70.3 -22.284,70.3 0,0 -48.788,7.492 -57.75,-46.765 -9.138,-55.27 13.05,-58.25 21.761,-63.713 0,0 5.495,-2.354 13.391,-2.302 m 173.56,43.522 c 5.283,0.137 10.579,2.202 14.751,6.486 10.804,11.09 7.751,28.74 -6.173,35.36 -17.545,8.345 -36.414,-9.137 -29.607,-27.41 3.52,-9.446 12.224,-14.666 21.03,-14.437 m -146.57,136.21 c 0,0 38.815,23.764 42.475,41.22 4.093,19.556 4.452,33.88 -25.21,49.48 -8.757,4.605 -24.11,5.087 -33.792,5.126 -23.787,0.098 -41.755,-9.01 -50.636,-13.601 -4.614,-2.387 -30.28,-31.17 -11.299,-56.913 4.774,-6.477 10.05,-9.358 14.961,-12.659 10.459,-7.02 20.71,-10.346 40.07,-12.03 6.44,-0.562 15.01,-0.059 23.435,-0.628"
       inkscape:connector-curvature="0"
       id="path87"
       style="opacity:0.2" />
    <path
       d="m -451.05,-17.16 c -4.412,0.142 -11.1,0.601 -18.727,1.988 -24.05,4.351 -57.33,20.284 -66.747,53.36 -14.552,51.15 22.912,71.45 22.912,71.45 0,0 13.207,7.698 18.622,9.206 16.288,4.547 33.583,2.406 33.583,2.406 0,0 -6.948,22.859 6.905,39.02 3.307,3.858 0.942,4.08 0.942,4.08 0,0 -60.59,-1.649 -89.24,28.77 -28.659,30.43 -13.08,58.48 -13.08,58.48 0,0 15.01,36.649 79.82,38.5 65.1,1.858 105.39,-36.697 108.91,-65.805 1.769,-14.63 -0.202,-28.397 -7.533,-40.38 -7.128,-11.658 -19.423,-21.712 -31.386,-31.49 -7.43,-6.079 -12.572,-9.165 -15.902,-12.659 -3.146,-3.302 -3.67,-7.585 -3.557,-10.776 0.164,-4.457 2.438,-9.884 10.253,-18.936 14.257,-16.513 17.855,-14.422 26.469,-26.783 2.581,-3.706 4.568,-9.104 7.219,-17.16 1.598,-4.852 1.255,-9.971 1.255,-14.647 0,-10.11 -2.445,-19.707 -6.486,-27.829 -7.506,-15.09 -20.371,-24.89 -20.61,-25.632 h 22.598 l 25.632,-14.961 -86.31,-0.209 h -1.883 c -0.909,0 -2.191,-0.047 -3.662,0 m 157.56,11.822 c -8.44,0 -9.303,0.604 -11.404,7.114 -1.913,5.928 -3.43,7.3 -10.776,10.148 -6.676,2.588 -8.661,2.582 -11.927,0 -3.962,-3.131 -8.915,-2.043 -13.81,2.929 -5.518,5.606 -5.929,7.469 -2.825,13.391 2.781,5.302 2.711,7.519 -0.628,14.856 -2.529,5.557 -3.735,6.787 -8.893,8.474 -5.873,1.922 -6.905,3.711 -6.905,11.717 0,8 0.892,9.519 6.591,10.985 5.99,1.541 7.148,2.713 10.148,9.939 3.273,7.883 3.22,7.382 0.418,12.659 -3.44,6.479 -3.086,7.972 2.929,14.02 6.01,6.04 7.481,6.273 13.705,2.825 5.089,-2.82 6.203,-2.78 13.287,0.105 6.314,2.571 9.102,5.05 9.102,7.951 0,2.214 1.096,4.431 3.243,6.8 1.392,1.536 2.191,1.779 8.788,1.779 8.583,0 10.141,-0.886 11.299,-6.068 1.54,-6.889 2.336,-7.779 9.625,-10.776 7.955,-3.27 8.647,-3.396 12.24,-0.942 5.546,3.788 8.725,3.515 13.81,-1.36 5.971,-5.723 7.219,-9.1 4.603,-13.08 -3.843,-5.848 -4.02,-7.5 -1.046,-14.647 2.896,-6.954 4.558,-8.399 10.88,-9.416 4.696,-0.755 5.562,-2.381 5.859,-10.462 0.354,-9.647 -0.424,-11.148 -7.219,-13.182 -6.123,-1.833 -6.943,-2.567 -9.939,-9.834 -2.827,-6.858 -2.874,-9.08 -0.628,-12.136 3.387,-4.607 2.955,-8.867 -1.255,-13.391 -6.2,-6.662 -8.435,-7.217 -14.961,-3.766 -4.883,2.581 -6.5,2.737 -10.567,1.046 -8.421,-3.501 -10.644,-4.819 -11.09,-6.486 -2.807,-10.494 -3.553,-11.194 -12.659,-11.194 m -172.52,2.197 c 13.164,0.098 33.04,6.919 44.882,42.475 20.339,61.01 -22.284,70.3 -22.284,70.3 0,0 -48.788,7.492 -57.75,-46.765 -9.138,-55.27 13.05,-58.25 21.761,-63.713 0,0 5.495,-2.354 13.391,-2.302 m 173.56,43.522 c 5.283,0.137 10.579,2.202 14.751,6.486 10.804,11.09 7.751,28.74 -6.173,35.36 -17.545,8.345 -36.414,-9.137 -29.607,-27.41 3.52,-9.446 12.224,-14.666 21.03,-14.437 m -146.57,136.21 c 0,0 38.815,23.764 42.475,41.22 4.093,19.556 4.452,33.88 -25.21,49.48 -8.757,4.605 -24.11,5.087 -33.792,5.126 -23.787,0.098 -41.755,-9.01 -50.636,-13.601 -4.614,-2.387 -30.28,-31.17 -11.299,-56.913 4.774,-6.477 10.05,-9.358 14.961,-12.659 10.459,-7.02 20.71,-10.346 40.07,-12.03 6.44,-0.562 15.01,-0.059 23.435,-0.628"
       inkscape:connector-curvature="0"
       id="path89"
       style="fill:#dcdbdb" />
  </g>
  <g
     id="g91"
     style="fill:#654641">
    <text
       x="-468.95999"
       y="353.48999"
       transform="scale(1.05082,0.95163)"
       id="text93"
       style="font-size:84.76999664px;line-height:125%;letter-spacing:0;word-spacing:0;font-family:Gentium Book Basic">
      <tspan
         x="-468.95999"
         y="353.48999"
         id="tspan95" />
    </text>
    <text
       x="12.412"
       y="1189.47"
       transform="scale(4.21677,0.23715)"
       id="text97"
       style="font-size:30.79999924px;text-anchor:middle;font-family:Arial" />
    <text
       x="-201.14999"
       y="329.98999"
       transform="scale(1.05082,0.95163)"
       id="text99"
       style="font-size:45.38000107px;line-height:125%;letter-spacing:0;word-spacing:0;font-family:Gentium Book Basic">
      <tspan
         x="-201.14999"
         y="329.98999"
         id="tspan101" />
    </text>
    <text
       x="19.08"
       y="1201.61"
       transform="scale(4.21677,0.23715)"
       id="text103"
       style="font-size:16.48800087px;text-anchor:middle;font-family:Arial" />
    <text
       x="-1233.7"
       y="415.89001"
       id="text105"
       style="font-size:132.57000732px;line-height:125%;letter-spacing:0;word-spacing:0;font-family:Gentium Book Basic">
      <tspan
         x="-1233.7"
         y="415.89001"
         id="tspan107" />
    </text>
    <text
       x="-105.26"
       y="1310.67"
       transform="scale(4.0128,0.2492)"
       id="text109"
       style="font-size:48.16999817px;text-anchor:middle;font-family:Arial" />
  </g>
  <g
     id="g111"
     style="line-height:125%;letter-spacing:0;word-spacing:0;font-family:Gentium Book Basic">
    <g
       id="g113"
       style="font-size:208.33000183px">
      <text
         x="-971.46002"
         y="396.01001"
         id="text115">
        <tspan
           x="-971.46002"
           y="396.01001"
           id="tspan117" />
      </text>
      <text
         x="-1264.53"
         y="238.17"
         id="text119">
        <tspan
           x="-1264.53"
           y="238.17"
           id="tspan121" />
      </text>
    </g>
    <text
       x="-556.94"
       y="194.85001"
       id="text123"
       style="font-size:129.22999573px">
      <tspan
         x="-556.94"
         y="194.85001"
         id="tspan125" />
    </text>
  </g>
  <text
     x="58.290001"
     y="432.73001"
     transform="scale(4.0128,0.2492)"
     id="text127"
     style="font-size:46.95399857px;text-anchor:middle;font-family:Arial" />
  <text
     x="24.333"
     y="114.85"
     id="text129"
     style="font-size:129.22999573px;line-height:125%;letter-spacing:0;word-spacing:0;font-family:Gentium Book Basic">
    <tspan
       x="24.333"
       y="114.85"
       id="tspan131" />
  </text>
  <text
     x="203.14"
     y="111.7"
     transform="scale(4.0128,0.2492)"
     id="text133"
     style="font-size:46.95399857px;text-anchor:middle;font-family:Arial" />
  <text
     x="-1047.25"
     y="-66.410004"
     id="text135"
     style="font-size:129.22999573px;line-height:125%;letter-spacing:0;word-spacing:0;font-family:Gentium Book Basic">
    <tspan
       x="-1047.25"
       y="-66.410004"
       id="tspan137" />
  </text>
  <text
     x="-63.897999"
     y="-615.65997"
     transform="scale(4.0128,0.2492)"
     id="text139"
     style="font-size:46.95399857px;text-anchor:middle;font-family:Arial" />
  <text
     x="50.803001"
     y="-282.88"
     id="text141"
     style="font-size:129.22999573px;line-height:125%;letter-spacing:0;word-spacing:0;font-family:Gentium Book Basic">
    <tspan
       x="50.803001"
       y="-282.88"
       id="tspan143" />
  </text>
  <text
     x="209.74001"
     y="-1484.3199"
     transform="scale(4.0128,0.2492)"
     id="text145"
     style="font-size:46.95399857px;text-anchor:middle;font-family:Arial" />
  <text
     x="632.07001"
     y="-362.89001"
     id="text147"
     style="font-size:129.22999573px;line-height:125%;letter-spacing:0;word-spacing:0;font-family:Gentium Book Basic">
    <tspan
       x="632.07001"
       y="-362.89001"
       id="tspan149" />
  </text>
  <text
     x="354.59"
     y="-1805.36"
     transform="scale(4.0128,0.2492)"
     id="text151"
     style="font-size:46.95399857px;text-anchor:middle;font-family:Arial" />
  <text
     x="242.95"
     y="-835.28998"
     id="text153"
     style="font-size:129.22999573px;line-height:125%;letter-spacing:0;word-spacing:0;font-family:Gentium Book Basic">
    <tspan
       x="242.95"
       y="-835.28998"
       id="tspan155" />
  </text>
  <text
     x="257.62"
     y="-3701.01"
     transform="scale(4.0128,0.2492)"
     id="text157"
     style="font-size:46.95399857px;text-anchor:middle;font-family:Arial" />
  <text
     x="824.21002"
     y="-915.28998"
     id="text159"
     style="font-size:129.22999573px;line-height:125%;letter-spacing:0;word-spacing:0;font-family:Gentium Book Basic">
    <tspan
       x="824.21002"
       y="-915.28998"
       id="tspan161" />
  </text>
  <text
     x="402.47"
     y="-4022.04"
     transform="scale(4.0128,0.2492)"
     id="text163"
     style="font-size:46.95399857px;text-anchor:middle;font-family:Arial" />
  <text
     x="-1008.59"
     y="499.42999"
     id="text165"
     style="font-size:208.33000183px;line-height:125%;letter-spacing:0;word-spacing:0;font-family:Gentium Book Basic">
    <tspan
       x="-1008.59"
       y="499.42999"
       id="tspan167" />
  </text>
  <path
     d="M 78.66,6 C 63.797,6 49.99,10.43 38.5,18.03 V 493.97 C 49.986,501.572 63.793,506 78.66,506 h 68.844 V 6 H 78.66"
     inkscape:connector-curvature="0"
     id="path169"
     style="opacity:0.05;fill:url(#8)" />
  <path
     d="m 147.5,6 v 500 h 109 V 6 h -109"
     inkscape:connector-curvature="0"
     id="path171"
     style="opacity:0.05;fill:url(#7)" />
  <path
     d="m 256.5,6 v 500 h 109 V 6 h -109"
     inkscape:connector-curvature="0"
     id="path173"
     style="opacity:0.05;fill:url(#5)" />
  <path
     d="m 365.5,6 v 500 h 67.844 c 14.854,0 28.643,-4.438 40.13,-12.03 V 18.03 C 461.992,10.437 448.204,6 433.354,6 H 365.51"
     inkscape:connector-curvature="0"
     id="path175"
     style="opacity:0.05;fill:url(#4)" />
  <path
     d="M 38.5,18.03 C 18.886,31.011 6,53.27 6,78.66 v 354.69 c 0,25.381 12.886,47.644 32.5,60.63 V 18.04"
     inkscape:connector-curvature="0"
     id="path177"
     style="opacity:0.05;fill:url(#3)" />
  <path
     d="m 473.47,18.03 v 475.94 c 19.627,-12.979 32.531,-35.23 32.531,-60.62 V 78.66 c 0,-25.391 -12.905,-47.646 -32.531,-60.62"
     inkscape:connector-curvature="0"
     id="path179"
     style="opacity:0.05;fill:url(#2)" />
</svg>
