<svg xmlns="http://www.w3.org/2000/svg" xmlns:xlink="http://www.w3.org/1999/xlink" viewBox="0 0 512 512"><defs><filter id="0"><feGaussianBlur stdDeviation="3.7725"/></filter><linearGradient xlink:href="#6" id="5" gradientUnits="userSpaceOnUse" gradientTransform="matrix(1.0381 0 0 1.46193-10.289-118.25)" x1="257" x2="362"/><linearGradient id="6"><stop/><stop offset="1" stop-color="#fff"/></linearGradient><linearGradient xlink:href="#6" id="7" gradientUnits="userSpaceOnUse" gradientTransform="matrix(1.0381 0 0 1.46193-119.29-118.25)" x1="257" x2="362"/><linearGradient xlink:href="#6" id="4" gradientUnits="userSpaceOnUse" gradientTransform="matrix(1.02835 0 0 1.46193 101.22-118.25)" x1="257" x2="362"/><linearGradient xlink:href="#6" id="8" gradientUnits="userSpaceOnUse" gradientTransform="matrix(1.0381 0 0 1.46193-228.29-118.25)" x1="257" x2="362"/><linearGradient id="1" y1="19.564" x2="0" y2="504.02" gradientUnits="userSpaceOnUse"><stop stop-color="#f3f3f3"/><stop offset=".5" stop-color="#eee"/><stop offset="1" stop-color="#ebebeb"/></linearGradient><linearGradient xlink:href="#6" id="3" gradientUnits="userSpaceOnUse" gradientTransform="matrix(1.0381 0 0 1.46193-337.29-118.25)" x1="257" x2="362"/><linearGradient xlink:href="#6" id="2" gradientUnits="userSpaceOnUse" gradientTransform="matrix(1.02835 0 0 1.46193 209.19-118.25)" x1="257" x2="362"/></defs><path d="m78.66 6c-.929 0-1.861.028-2.781.063-.073.003-.146-.003-.219 0-.668.027-1.337.08-2 .125-.376.025-.751.063-1.125.094-.645.053-1.297.086-1.938.156-.965.106-1.922.232-2.875.375-.052.008-.104.023-.156.031-1.082.165-2.154.351-3.219.563-.459.091-.919.182-1.375.281-.39.085-.769.19-1.156.281-.647.152-1.297.299-1.938.469-.898.238-1.804.479-2.688.75-.211.065-.414.152-.625.219-.991.314-1.966.645-2.938 1-.817.298-1.635.611-2.438.938-.29.118-.587.222-.875.344-.136.057-.27.129-.406.188-.082.035-.169.058-.25.094-.717.311-1.42.636-2.125.969-.147.069-.291.148-.438.219-.947.455-1.889.943-2.813 1.438-.271.145-.544.289-.813.438-.414.228-.81.483-1.219.719-.52.3-1.051.594-1.563.906-.738.452-1.467.898-2.188 1.375-.031.021-.062.042-.094.063-.456.303-.895.625-1.344.938-.123.086-.252.163-.375.25-.524.37-1.049.742-1.563 1.125-1.835 1.371-3.618 2.84-5.313 4.375-.017.015-.046.016-.063.031-.526.477-1.02.977-1.531 1.469-.524.505-1.054 1.01-1.563 1.531-.512.523-1 1.055-1.5 1.594-.941 1.022-1.837 2.05-2.719 3.125-.631.769-1.244 1.58-1.844 2.375-.111.148-.233.289-.344.438-.526.71-1.031 1.427-1.531 2.156-.11.16-.235.308-.344.469-.013.019-.018.043-.031.063-.084.125-.167.249-.25.375-.47.708-.929 1.431-1.375 2.156-.071.116-.148.227-.219.344-.575.948-1.124 1.899-1.656 2.875-.152.278-.289.564-.438.844-.18.341-.356.687-.531 1.031-.243.479-.486.952-.719 1.438-.426.885-.828 1.783-1.219 2.688-.24.556-.461 1.124-.688 1.688-.038.095-.087.186-.125.281-.246.621-.489 1.245-.719 1.875-.332.909-.641 1.825-.938 2.75-.11.345-.238.684-.344 1.031-.301.99-.585 1.992-.844 3-.008.032-.023.062-.031.094-.267 1.046-.497 2.092-.719 3.156-.034.166-.06.334-.094.5-.426 2.117-.762 4.257-1 6.438-.035.323-.063.645-.094.969-.09.938-.165 1.895-.219 2.844-.017.29-.018.584-.031.875-.051 1.119-.094 2.243-.094 3.375v354.69 6c0 40.24 32.411 72.66 72.66 72.66h354.69c40.24 0 72.66-32.411 72.66-72.66v-354.69-6c0-1.259-.031-2.507-.094-3.75-.016-.323-.042-.647-.063-.969-.058-.917-.127-1.843-.219-2.75-.02-.2-.041-.394-.063-.594-.246-2.245-.587-4.447-1.031-6.625-.021-.104-.041-.209-.063-.313-.227-1.087-.476-2.15-.75-3.219-.011-.042-.02-.083-.031-.125-.19-.732-.413-1.464-.625-2.188-.212-.724-.423-1.442-.656-2.156-.258-.789-.529-1.567-.813-2.344-.23-.63-.472-1.254-.719-1.875-.038-.096-.087-.186-.125-.281-.239-.594-.465-1.195-.719-1.781-.378-.871-.777-1.741-1.188-2.594-.233-.485-.475-.958-.719-1.438-.287-.564-.574-1.132-.875-1.688-.051-.094-.105-.188-.156-.281-.513-.936-1.041-1.871-1.594-2.781-.212-.35-.438-.685-.656-1.031-.405-.642-.795-1.278-1.219-1.906-.809-1.199-1.685-2.354-2.563-3.5-.262-.341-.514-.695-.781-1.031-.189-.238-.371-.483-.563-.719-.093-.114-.188-.231-.281-.344-2.71-3.286-5.696-6.301-8.938-9.06-.293-.249-.578-.505-.875-.75-.268-.221-.541-.439-.813-.656-.636-.509-1.284-1.012-1.938-1.5-3.17-2.368-6.55-4.481-10.09-6.313-.617-.319-1.248-.636-1.875-.938-.155-.074-.313-.145-.469-.219-.785-.371-1.575-.719-2.375-1.063-.488-.209-.975-.426-1.469-.625-.735-.296-1.472-.571-2.219-.844-.392-.143-.793-.27-1.188-.406-.718-.248-1.459-.524-2.188-.75-.114-.035-.23-.059-.344-.094-.488-.149-.977-.267-1.469-.406-.357-.1-.703-.217-1.063-.313-.019-.005-.043.005-.063 0-.837-.221-1.683-.433-2.531-.625-.032-.007-.062-.024-.094-.031-.651-.146-1.311-.278-1.969-.406-1-.197-2.01-.376-3.03-.531-.063-.01-.125-.022-.188-.031-.952-.143-1.88-.269-2.844-.375-.836-.091-1.687-.156-2.531-.219-.176-.013-.355-.019-.531-.031-.735-.049-1.478-.097-2.219-.125-.92-.034-1.853-.063-2.781-.063h-285.84-68.844" filter="url(#0)" fill-opacity=".176"/><rect width="500" height="500" x="6" y="12" rx="72.64" opacity=".15"/><rect rx="72.64" y="6" x="6" height="500" width="500" fill="url(#1)"/><rect width="435" height="435" x="38.5" y="38.5" rx="63.2" fill="#818181"/><path d="m101.69 38.5c-35.01 0-63.19 28.17-63.19 63.19v15c0-35.01 28.17-63.19 63.19-63.19h308.63c35.01 0 63.19 28.17 63.19 63.19v-15c0-35.01-28.17-63.19-63.19-63.19h-308.62" opacity=".2"/><path d="m78.66 6c-40.24 0-72.66 32.411-72.66 72.66v7c0-40.24 32.411-72.66 72.66-72.66h354.69c40.24 0 72.66 32.411 72.66 72.66v-7c0-40.24-32.411-72.66-72.66-72.66h-354.69" fill="#fff"/><text font-size="129.23" letter-spacing="0" line-height="125%" word-spacing="0" x="-324.68" y="572.78" font-family="Gentium Book Basic"><tspan x="-324.68" y="572.78"/></text><text x="116.17" y="1949.3" font-size="46.954" transform="scale(4.0128.2492)" font-family="Arial" text-anchor="middle"/><text font-size="129.23" letter-spacing="0" line-height="125%" word-spacing="0" x="256.59" y="492.78" font-family="Gentium Book Basic"><tspan x="256.59" y="492.78"/></text><text x="261.02" y="1628.28" font-size="46.954" transform="scale(4.0128.2492)" font-family="Arial" text-anchor="middle"/><text font-size="129.23" letter-spacing="0" line-height="125%" word-spacing="0" x="-814.99" y="311.52" font-family="Gentium Book Basic"><tspan x="-814.99" y="311.52"/></text><text x="-6.02" y="900.92" font-size="46.954" transform="scale(4.0128.2492)" font-family="Arial" text-anchor="middle"/><text font-size="129.23" letter-spacing="0" line-height="125%" word-spacing="0" x="283.06" y="95.05" font-family="Gentium Book Basic"><tspan x="283.06" y="95.05"/></text><text x="267.62" y="32.25" font-size="46.954" transform="scale(4.0128.2492)" font-family="Arial" text-anchor="middle"/><text font-size="129.23" letter-spacing="0" line-height="125%" word-spacing="0" x="864.33" y="15.04" font-family="Gentium Book Basic"><tspan x="864.33" y="15.04"/></text><text x="412.47" y="-288.78" font-size="46.954" transform="scale(4.0128.2492)" font-family="Arial" text-anchor="middle"/><text font-size="129.23" letter-spacing="0" line-height="125%" word-spacing="0" x="475.21" y="-457.36" font-family="Gentium Book Basic"><tspan x="475.21" y="-457.36"/></text><text x="315.5" y="-2184.43" font-size="46.954" transform="scale(4.0128.2492)" font-family="Arial" text-anchor="middle"/><text font-size="129.23" letter-spacing="0" line-height="125%" word-spacing="0" x="1056.47" y="-537.36" font-family="Gentium Book Basic"><tspan x="1056.47" y="-537.36"/></text><text x="460.35" y="-2505.46" font-size="46.954" transform="scale(4.0128.2492)" font-family="Arial" text-anchor="middle"/><text font-size="208.33" letter-spacing="0" line-height="125%" word-spacing="0" x="-776.33" y="877.36" font-family="Gentium Book Basic"><tspan x="-776.33" y="877.36"/></text><g transform="translate(641.11 112)"><path d="m-436.05-2.156c-4.412.142-11.1.601-18.727 1.988-24.05 4.351-57.33 20.284-66.747 53.36-14.552 51.15 22.912 71.45 22.912 71.45 0 0 13.207 7.698 18.622 9.206 16.288 4.547 33.583 2.406 33.583 2.406 0 0-6.948 22.859 6.905 39.02 3.307 3.858.942 4.08.942 4.08 0 0-60.59-1.649-89.24 28.77-28.659 30.43-13.08 58.48-13.08 58.48 0 0 15.01 36.649 79.82 38.5 65.1 1.858 105.39-36.697 108.91-65.805 1.769-14.63-.202-28.397-7.533-40.38-7.128-11.658-19.423-21.712-31.386-31.49-7.43-6.079-12.572-9.165-15.902-12.659-3.146-3.302-3.67-7.585-3.557-10.776.164-4.457 2.438-9.884 10.253-18.936 14.257-16.513 17.855-14.422 26.469-26.783 2.581-3.706 4.568-9.104 7.219-17.16 1.598-4.852 1.255-9.971 1.255-14.647 0-10.11-2.445-19.707-6.486-27.829-7.506-15.09-20.371-24.89-20.61-25.632h22.598l25.632-14.961-86.31-.209h-1.883c-.909 0-2.191-.047-3.662 0m157.56 11.822c-8.44 0-9.303.604-11.404 7.114-1.913 5.928-3.43 7.3-10.776 10.148-6.676 2.588-8.661 2.582-11.927 0-3.962-3.131-8.915-2.043-13.81 2.929-5.518 5.606-5.929 7.469-2.825 13.391 2.781 5.302 2.711 7.519-.628 14.856-2.529 5.557-3.735 6.787-8.893 8.474-5.873 1.922-6.905 3.711-6.905 11.717 0 8 .892 9.519 6.591 10.985 5.99 1.541 7.148 2.713 10.148 9.939 3.273 7.883 3.22 7.382.418 12.659-3.44 6.479-3.086 7.972 2.929 14.02 6.01 6.04 7.481 6.273 13.705 2.825 5.089-2.82 6.203-2.78 13.287.105 6.314 2.571 9.102 5.05 9.102 7.951 0 2.214 1.096 4.431 3.243 6.8 1.392 1.536 2.191 1.779 8.788 1.779 8.583 0 10.141-.886 11.299-6.068 1.54-6.889 2.336-7.779 9.625-10.776 7.955-3.27 8.647-3.396 12.24-.942 5.546 3.788 8.725 3.515 13.81-1.36 5.971-5.723 7.219-9.1 4.603-13.08-3.843-5.848-4.02-7.5-1.046-14.647 2.896-6.954 4.558-8.399 10.88-9.416 4.696-.755 5.562-2.381 5.859-10.462.354-9.647-.424-11.148-7.219-13.182-6.123-1.833-6.943-2.567-9.939-9.834-2.827-6.858-2.874-9.08-.628-12.136 3.387-4.607 2.955-8.867-1.255-13.391-6.2-6.662-8.435-7.217-14.961-3.766-4.883 2.581-6.5 2.737-10.567 1.046-8.421-3.501-10.644-4.819-11.09-6.486-2.807-10.494-3.553-11.194-12.659-11.194m-172.52 2.197c13.164.098 33.04 6.919 44.882 42.475 20.339 61.01-22.284 70.3-22.284 70.3 0 0-48.788 7.492-57.75-46.765-9.138-55.27 13.05-58.25 21.761-63.713 0 0 5.495-2.354 13.391-2.302m173.56 43.522c5.283.137 10.579 2.202 14.751 6.486 10.804 11.09 7.751 28.74-6.173 35.36-17.545 8.345-36.414-9.137-29.607-27.41 3.52-9.446 12.224-14.666 21.03-14.437m-146.57 136.21c0 0 38.815 23.764 42.475 41.22 4.093 19.556 4.452 33.88-25.21 49.48-8.757 4.605-24.11 5.087-33.792 5.126-23.787.098-41.755-9.01-50.636-13.601-4.614-2.387-30.28-31.17-11.299-56.913 4.774-6.477 10.05-9.358 14.961-12.659 10.459-7.02 20.71-10.346 40.07-12.03 6.44-.562 15.01-.059 23.435-.628" opacity=".2"/><path d="m-451.05-17.16c-4.412.142-11.1.601-18.727 1.988-24.05 4.351-57.33 20.284-66.747 53.36-14.552 51.15 22.912 71.45 22.912 71.45 0 0 13.207 7.698 18.622 9.206 16.288 4.547 33.583 2.406 33.583 2.406 0 0-6.948 22.859 6.905 39.02 3.307 3.858.942 4.08.942 4.08 0 0-60.59-1.649-89.24 28.77-28.659 30.43-13.08 58.48-13.08 58.48 0 0 15.01 36.649 79.82 38.5 65.1 1.858 105.39-36.697 108.91-65.805 1.769-14.63-.202-28.397-7.533-40.38-7.128-11.658-19.423-21.712-31.386-31.49-7.43-6.079-12.572-9.165-15.902-12.659-3.146-3.302-3.67-7.585-3.557-10.776.164-4.457 2.438-9.884 10.253-18.936 14.257-16.513 17.855-14.422 26.469-26.783 2.581-3.706 4.568-9.104 7.219-17.16 1.598-4.852 1.255-9.971 1.255-14.647 0-10.11-2.445-19.707-6.486-27.829-7.506-15.09-20.371-24.89-20.61-25.632h22.598l25.632-14.961-86.31-.209h-1.883c-.909 0-2.191-.047-3.662 0m157.56 11.822c-8.44 0-9.303.604-11.404 7.114-1.913 5.928-3.43 7.3-10.776 10.148-6.676 2.588-8.661 2.582-11.927 0-3.962-3.131-8.915-2.043-13.81 2.929-5.518 5.606-5.929 7.469-2.825 13.391 2.781 5.302 2.711 7.519-.628 14.856-2.529 5.557-3.735 6.787-8.893 8.474-5.873 1.922-6.905 3.711-6.905 11.717 0 8 .892 9.519 6.591 10.985 5.99 1.541 7.148 2.713 10.148 9.939 3.273 7.883 3.22 7.382.418 12.659-3.44 6.479-3.086 7.972 2.929 14.02 6.01 6.04 7.481 6.273 13.705 2.825 5.089-2.82 6.203-2.78 13.287.105 6.314 2.571 9.102 5.05 9.102 7.951 0 2.214 1.096 4.431 3.243 6.8 1.392 1.536 2.191 1.779 8.788 1.779 8.583 0 10.141-.886 11.299-6.068 1.54-6.889 2.336-7.779 9.625-10.776 7.955-3.27 8.647-3.396 12.24-.942 5.546 3.788 8.725 3.515 13.81-1.36 5.971-5.723 7.219-9.1 4.603-13.08-3.843-5.848-4.02-7.5-1.046-14.647 2.896-6.954 4.558-8.399 10.88-9.416 4.696-.755 5.562-2.381 5.859-10.462.354-9.647-.424-11.148-7.219-13.182-6.123-1.833-6.943-2.567-9.939-9.834-2.827-6.858-2.874-9.08-.628-12.136 3.387-4.607 2.955-8.867-1.255-13.391-6.2-6.662-8.435-7.217-14.961-3.766-4.883 2.581-6.5 2.737-10.567 1.046-8.421-3.501-10.644-4.819-11.09-6.486-2.807-10.494-3.553-11.194-12.659-11.194m-172.52 2.197c13.164.098 33.04 6.919 44.882 42.475 20.339 61.01-22.284 70.3-22.284 70.3 0 0-48.788 7.492-57.75-46.765-9.138-55.27 13.05-58.25 21.761-63.713 0 0 5.495-2.354 13.391-2.302m173.56 43.522c5.283.137 10.579 2.202 14.751 6.486 10.804 11.09 7.751 28.74-6.173 35.36-17.545 8.345-36.414-9.137-29.607-27.41 3.52-9.446 12.224-14.666 21.03-14.437m-146.57 136.21c0 0 38.815 23.764 42.475 41.22 4.093 19.556 4.452 33.88-25.21 49.48-8.757 4.605-24.11 5.087-33.792 5.126-23.787.098-41.755-9.01-50.636-13.601-4.614-2.387-30.28-31.17-11.299-56.913 4.774-6.477 10.05-9.358 14.961-12.659 10.459-7.02 20.71-10.346 40.07-12.03 6.44-.562 15.01-.059 23.435-.628" fill="#dcdbdb"/></g><g fill="#654641"><text font-size="84.77" letter-spacing="0" line-height="125%" word-spacing="0" transform="scale(1.05082.95163)" x="-468.96" y="353.49" font-family="Gentium Book Basic"><tspan x="-468.96" y="353.49"/></text><text x="12.412" y="1189.47" font-size="30.8" transform="scale(4.21677.23715)" font-family="Arial" text-anchor="middle"/><text font-size="45.38" letter-spacing="0" line-height="125%" word-spacing="0" transform="scale(1.05082.95163)" x="-201.15" y="329.99" font-family="Gentium Book Basic"><tspan x="-201.15" y="329.99"/></text><text x="19.08" y="1201.61" font-size="16.488" transform="scale(4.21677.23715)" font-family="Arial" text-anchor="middle"/><text font-size="132.57" letter-spacing="0" line-height="125%" word-spacing="0" x="-1233.7" y="415.89" font-family="Gentium Book Basic"><tspan x="-1233.7" y="415.89"/></text><text x="-105.26" y="1310.67" font-size="48.17" transform="scale(4.0128.2492)" font-family="Arial" text-anchor="middle"/></g><g font-family="Gentium Book Basic" word-spacing="0" line-height="125%" letter-spacing="0"><g font-size="208.33"><text y="396.01" x="-971.46"><tspan y="396.01" x="-971.46"/></text><text x="-1264.53" y="238.17"><tspan x="-1264.53" y="238.17"/></text></g><text y="194.85" x="-556.94" font-size="129.23"><tspan y="194.85" x="-556.94"/></text></g><text transform="scale(4.0128.2492)" font-size="46.954" y="432.73" x="58.29" font-family="Arial" text-anchor="middle"/><text y="114.85" x="24.333" word-spacing="0" line-height="125%" letter-spacing="0" font-size="129.23" font-family="Gentium Book Basic"><tspan y="114.85" x="24.333"/></text><text transform="scale(4.0128.2492)" font-size="46.954" y="111.7" x="203.14" font-family="Arial" text-anchor="middle"/><text y="-66.41" x="-1047.25" word-spacing="0" line-height="125%" letter-spacing="0" font-size="129.23" font-family="Gentium Book Basic"><tspan y="-66.41" x="-1047.25"/></text><text transform="scale(4.0128.2492)" font-size="46.954" y="-615.66" x="-63.898" font-family="Arial" text-anchor="middle"/><text y="-282.88" x="50.803" word-spacing="0" line-height="125%" letter-spacing="0" font-size="129.23" font-family="Gentium Book Basic"><tspan y="-282.88" x="50.803"/></text><text transform="scale(4.0128.2492)" font-size="46.954" y="-1484.32" x="209.74" font-family="Arial" text-anchor="middle"/><text y="-362.89" x="632.07" word-spacing="0" line-height="125%" letter-spacing="0" font-size="129.23" font-family="Gentium Book Basic"><tspan y="-362.89" x="632.07"/></text><text transform="scale(4.0128.2492)" font-size="46.954" y="-1805.36" x="354.59" font-family="Arial" text-anchor="middle"/><text y="-835.29" x="242.95" word-spacing="0" line-height="125%" letter-spacing="0" font-size="129.23" font-family="Gentium Book Basic"><tspan y="-835.29" x="242.95"/></text><text transform="scale(4.0128.2492)" font-size="46.954" y="-3701.01" x="257.62" font-family="Arial" text-anchor="middle"/><text y="-915.29" x="824.21" word-spacing="0" line-height="125%" letter-spacing="0" font-size="129.23" font-family="Gentium Book Basic"><tspan y="-915.29" x="824.21"/></text><text transform="scale(4.0128.2492)" font-size="46.954" y="-4022.04" x="402.47" font-family="Arial" text-anchor="middle"/><text y="499.43" x="-1008.59" word-spacing="0" line-height="125%" letter-spacing="0" font-size="208.33" font-family="Gentium Book Basic"><tspan y="499.43" x="-1008.59"/></text><path fill="url(#8)" opacity=".05" d="m78.66 6c-14.863 0-28.67 4.43-40.16 12.03v475.94c11.486 7.602 25.293 12.03 40.16 12.03h68.844v-500h-68.844"/><path fill="url(#7)" opacity=".05" d="m147.5 6v500h109v-500h-109"/><path fill="url(#5)" opacity=".05" d="m256.5 6v500h109v-500h-109"/><path fill="url(#4)" opacity=".05" d="m365.5 6v500h67.844c14.854 0 28.643-4.438 40.13-12.03v-475.94c-11.482-7.593-25.27-12.03-40.12-12.03h-67.844"/><path fill="url(#3)" opacity=".05" d="m38.5 18.03c-19.614 12.981-32.5 35.24-32.5 60.63v354.69c0 25.381 12.886 47.644 32.5 60.63v-475.94"/><path fill="url(#2)" opacity=".05" d="m473.47 18.03v475.94c19.627-12.979 32.531-35.23 32.531-60.62v-354.69c0-25.391-12.905-47.646-32.531-60.62"/></svg>