<?xml version="1.0" encoding="UTF-8" standalone="no"?>
<!-- Created with Inkscape (http://www.inkscape.org/) -->

<svg
   xmlns:dc="http://purl.org/dc/elements/1.1/"
   xmlns:cc="http://creativecommons.org/ns#"
   xmlns:rdf="http://www.w3.org/1999/02/22-rdf-syntax-ns#"
   xmlns:svg="http://www.w3.org/2000/svg"
   xmlns="http://www.w3.org/2000/svg"
   xmlns:xlink="http://www.w3.org/1999/xlink"
   xmlns:inkscape="http://www.inkscape.org/namespaces/inkscape"
   version="1.1"
   width="100%"
   height="100%"
   viewBox="0 0 512 512"
   id="svg2">
  <metadata
     id="metadata59">
    <rdf:RDF>
      <cc:Work
         rdf:about="">
        <dc:format>image/svg+xml</dc:format>
        <dc:type
           rdf:resource="http://purl.org/dc/dcmitype/StillImage" />
      </cc:Work>
    </rdf:RDF>
  </metadata>
  <defs
     id="defs4">
    <filter
       color-interpolation-filters="sRGB"
       id="7">
      <feGaussianBlur
         id="feGaussianBlur7"
         stdDeviation="3.7725" />
    </filter>
    <linearGradient
       y1="19.563999"
       x2="0"
       y2="504.01999"
       id="8"
       gradientUnits="userSpaceOnUse">
      <stop
         id="stop10"
         style="stop-color:#f3f3f3;stop-opacity:1"
         offset="0" />
      <stop
         id="stop12"
         style="stop-color:#eeeeee;stop-opacity:1"
         offset="0.5" />
      <stop
         id="stop14"
         style="stop-color:#ebebeb;stop-opacity:1"
         offset="1" />
    </linearGradient>
    <linearGradient
       x1="257"
       x2="362"
       id="5"
       xlink:href="#0"
       gradientUnits="userSpaceOnUse"
       gradientTransform="matrix(1.02835,0,0,1.46193,209.19,-118.25)" />
    <linearGradient
       x1="257"
       x2="362"
       id="6"
       xlink:href="#0"
       gradientUnits="userSpaceOnUse"
       gradientTransform="matrix(1.0381,0,0,1.46193,-337.29,-118.25)" />
    <linearGradient
       x1="257"
       x2="362"
       id="4"
       xlink:href="#0"
       gradientUnits="userSpaceOnUse"
       gradientTransform="matrix(1.02835,0,0,1.46193,101.22,-118.25)" />
    <linearGradient
       x1="257"
       x2="362"
       id="3"
       xlink:href="#0"
       gradientUnits="userSpaceOnUse"
       gradientTransform="matrix(1.0381,0,0,1.46193,-10.289,-118.25)" />
    <linearGradient
       id="0">
      <stop
         id="stop21"
         style="stop-color:#000000;stop-opacity:1"
         offset="0" />
      <stop
         id="stop23"
         style="stop-color:#ffffff;stop-opacity:1"
         offset="1" />
    </linearGradient>
    <linearGradient
       x1="257"
       x2="362"
       id="2"
       xlink:href="#0"
       gradientUnits="userSpaceOnUse"
       gradientTransform="matrix(1.0381,0,0,1.46193,-119.29,-118.25)" />
    <linearGradient
       x1="257"
       x2="362"
       id="1"
       xlink:href="#0"
       gradientUnits="userSpaceOnUse"
       gradientTransform="matrix(1.0381,0,0,1.46193,-228.29,-118.25)" />
  </defs>
  <path
     d="m 78.66,6 c -0.929,0 -1.861,0.028 -2.781,0.063 -0.073,0.003 -0.146,-0.003 -0.219,0 -0.668,0.027 -1.337,0.08 -2,0.125 -0.376,0.025 -0.751,0.063 -1.125,0.094 -0.645,0.053 -1.297,0.086 -1.938,0.156 -0.965,0.106 -1.922,0.232 -2.875,0.375 -0.052,0.008 -0.104,0.023 -0.156,0.031 -1.082,0.165 -2.154,0.351 -3.219,0.563 -0.459,0.091 -0.919,0.182 -1.375,0.281 -0.39,0.085 -0.769,0.19 -1.156,0.281 -0.647,0.152 -1.297,0.299 -1.938,0.469 -0.898,0.238 -1.804,0.479 -2.688,0.75 -0.211,0.065 -0.414,0.152 -0.625,0.219 -0.991,0.314 -1.966,0.645 -2.938,1 -0.817,0.298 -1.635,0.611 -2.438,0.938 -0.29,0.118 -0.587,0.222 -0.875,0.344 -0.136,0.057 -0.27,0.129 -0.406,0.188 -0.082,0.035 -0.169,0.058 -0.25,0.094 -0.717,0.311 -1.42,0.636 -2.125,0.969 -0.147,0.069 -0.291,0.148 -0.438,0.219 -0.947,0.455 -1.889,0.943 -2.813,1.438 -0.271,0.145 -0.544,0.289 -0.813,0.438 -0.414,0.228 -0.81,0.483 -1.219,0.719 -0.52,0.3 -1.051,0.594 -1.563,0.906 -0.738,0.452 -1.467,0.898 -2.188,1.375 -0.031,0.021 -0.062,0.042 -0.094,0.063 -0.456,0.303 -0.895,0.625 -1.344,0.938 -0.123,0.086 -0.252,0.163 -0.375,0.25 -0.524,0.37 -1.049,0.742 -1.563,1.125 -1.835,1.371 -3.618,2.84 -5.313,4.375 -0.017,0.015 -0.046,0.016 -0.063,0.031 -0.526,0.477 -1.02,0.977 -1.531,1.469 -0.524,0.505 -1.054,1.011 -1.563,1.531 -0.512,0.523 -1,1.055 -1.5,1.594 -0.941,1.022 -1.837,2.05 -2.719,3.125 -0.631,0.769 -1.244,1.58 -1.844,2.375 -0.111,0.148 -0.233,0.289 -0.344,0.438 -0.526,0.71 -1.031,1.427 -1.531,2.156 -0.11,0.16 -0.235,0.308 -0.344,0.469 -0.013,0.019 -0.018,0.043 -0.031,0.063 -0.084,0.125 -0.167,0.249 -0.25,0.375 -0.47,0.708 -0.929,1.431 -1.375,2.156 -0.071,0.116 -0.148,0.227 -0.219,0.344 -0.575,0.948 -1.124,1.899 -1.656,2.875 -0.152,0.278 -0.289,0.564 -0.438,0.844 -0.18,0.341 -0.356,0.687 -0.531,1.031 -0.243,0.479 -0.486,0.952 -0.719,1.438 -0.426,0.885 -0.828,1.783 -1.219,2.688 -0.24,0.556 -0.461,1.124 -0.688,1.688 -0.038,0.095 -0.087,0.186 -0.125,0.281 -0.246,0.621 -0.489,1.245 -0.719,1.875 -0.332,0.909 -0.641,1.825 -0.938,2.75 -0.11,0.345 -0.238,0.684 -0.344,1.031 -0.301,0.99 -0.585,1.992 -0.844,3 -0.008,0.032 -0.023,0.062 -0.031,0.094 -0.267,1.046 -0.497,2.092 -0.719,3.156 -0.034,0.166 -0.06,0.334 -0.094,0.5 -0.426,2.117 -0.762,4.257 -1,6.438 -0.035,0.323 -0.063,0.645 -0.094,0.969 -0.09,0.938 -0.165,1.895 -0.219,2.844 -0.017,0.29 -0.018,0.584 -0.031,0.875 -0.051,1.119 -0.094,2.243 -0.094,3.375 v 354.69 6 c 0,40.24 32.411,72.66 72.66,72.66 h 354.69 c 40.24,0 72.66,-32.411 72.66,-72.66 v -354.69 -6 c 0,-1.259 -0.031,-2.507 -0.094,-3.75 -0.016,-0.323 -0.042,-0.647 -0.063,-0.969 -0.058,-0.917 -0.127,-1.843 -0.219,-2.75 -0.02,-0.2 -0.041,-0.394 -0.063,-0.594 -0.246,-2.245 -0.587,-4.447 -1.031,-6.625 -0.021,-0.104 -0.041,-0.209 -0.063,-0.313 -0.227,-1.087 -0.476,-2.15 -0.75,-3.219 -0.011,-0.042 -0.02,-0.083 -0.031,-0.125 -0.19,-0.732 -0.413,-1.464 -0.625,-2.188 -0.212,-0.724 -0.423,-1.442 -0.656,-2.156 -0.258,-0.789 -0.529,-1.567 -0.813,-2.344 -0.23,-0.63 -0.472,-1.254 -0.719,-1.875 -0.038,-0.096 -0.087,-0.186 -0.125,-0.281 -0.239,-0.594 -0.465,-1.195 -0.719,-1.781 -0.378,-0.871 -0.777,-1.741 -1.188,-2.594 -0.233,-0.485 -0.475,-0.958 -0.719,-1.438 -0.287,-0.564 -0.574,-1.132 -0.875,-1.688 -0.051,-0.094 -0.105,-0.188 -0.156,-0.281 -0.513,-0.936 -1.041,-1.871 -1.594,-2.781 -0.212,-0.35 -0.438,-0.685 -0.656,-1.031 -0.405,-0.642 -0.795,-1.278 -1.219,-1.906 -0.809,-1.199 -1.685,-2.354 -2.563,-3.5 -0.262,-0.341 -0.514,-0.695 -0.781,-1.031 -0.189,-0.238 -0.371,-0.483 -0.563,-0.719 -0.093,-0.114 -0.188,-0.231 -0.281,-0.344 -2.71,-3.286 -5.696,-6.301 -8.938,-9.06 -0.293,-0.249 -0.578,-0.505 -0.875,-0.75 -0.268,-0.221 -0.541,-0.439 -0.813,-0.656 -0.636,-0.509 -1.284,-1.012 -1.938,-1.5 -3.17,-2.368 -6.55,-4.481 -10.09,-6.313 -0.617,-0.319 -1.248,-0.636 -1.875,-0.938 -0.155,-0.074 -0.313,-0.145 -0.469,-0.219 -0.785,-0.371 -1.575,-0.719 -2.375,-1.063 -0.488,-0.209 -0.975,-0.426 -1.469,-0.625 -0.735,-0.296 -1.472,-0.571 -2.219,-0.844 -0.392,-0.143 -0.793,-0.27 -1.188,-0.406 -0.718,-0.248 -1.459,-0.524 -2.188,-0.75 -0.114,-0.035 -0.23,-0.059 -0.344,-0.094 -0.488,-0.149 -0.977,-0.267 -1.469,-0.406 -0.357,-0.1 -0.703,-0.217 -1.063,-0.313 -0.019,-0.005 -0.043,0.005 -0.063,0 -0.837,-0.221 -1.683,-0.433 -2.531,-0.625 -0.032,-0.007 -0.062,-0.024 -0.094,-0.031 -0.651,-0.146 -1.311,-0.278 -1.969,-0.406 -1,-0.197 -2.01,-0.376 -3.03,-0.531 -0.063,-0.01 -0.125,-0.022 -0.188,-0.031 -0.952,-0.143 -1.88,-0.269 -2.844,-0.375 -0.836,-0.091 -1.687,-0.156 -2.531,-0.219 -0.176,-0.013 -0.355,-0.019 -0.531,-0.031 -0.735,-0.049 -1.478,-0.097 -2.219,-0.125 -0.92,-0.034 -1.853,-0.063 -2.781,-0.063 H 147.503 78.659"
     inkscape:connector-curvature="0"
     id="path27"
     style="fill-opacity:0.17600002;filter:url(#7)" />
  <rect
     width="500"
     height="500"
     rx="72.639999"
     x="6"
     y="12"
     id="rect29"
     style="opacity:0.15" />
  <rect
     width="500"
     height="500"
     rx="72.639999"
     x="6"
     y="6"
     id="rect31"
     style="fill:url(#8)" />
  <rect
     width="435"
     height="435"
     rx="63.200001"
     x="38.5"
     y="38.5"
     id="rect33"
     style="fill:#b1cc3a" />
  <path
     d="M 101.69,38.5 C 66.68,38.5 38.5,66.67 38.5,101.69 v 15 C 38.5,81.68 66.67,53.5 101.69,53.5 h 308.63 c 35.01,0 63.19,28.17 63.19,63.19 v -15 C 473.51,66.68 445.34,38.5 410.32,38.5 H 101.7"
     inkscape:connector-curvature="0"
     id="path35"
     style="opacity:0.2" />
  <path
     d="M 78.66,6 C 38.42,6 6,38.411 6,78.66 v 7 C 6,45.42 38.411,13 78.66,13 h 354.69 c 40.24,0 72.66,32.411 72.66,72.66 v -7 C 506.01,38.42 473.599,6 433.35,6 H 78.66"
     inkscape:connector-curvature="0"
     id="path37"
     style="fill:#ffffff" />
  <g
     transform="translate(691.15,26.38)"
     id="g39">
    <path
       d="m -569.07,354.7 c -12.237,-3.248 -20.706,-12.08 -24.05,-25.1 -1.763,-6.853 -2.475,-18.697 -1.743,-28.982 1.547,-21.717 10.617,-116.06 11.535,-119.99 3.632,-15.551 11.09,-28.653 22.593,-39.703 12.12,-11.645 25.548,-18.19 43.25,-21.07 7.948,-1.297 10.958,-1.342 89.84,-1.342 78.879,0 81.89,0.045 89.84,1.342 17.684,2.885 30.812,9.242 42.931,20.789 12.871,12.262 21.537,28.622 23.81,44.944 0.875,6.285 9.657,101.2 10.626,114.85 0.744,10.481 0.045,22.269 -1.731,29.17 -3.386,13.159 -11.889,21.934 -24.358,25.14 -7.932,2.037 -15.201,0.968 -24.553,-3.609 -11.847,-5.798 -18.94,-12.309 -48.39,-44.42 l -24.12,-26.3 h -44.05 -44.05 l -24.12,26.3 c -29.447,32.11 -36.54,38.618 -48.39,44.42 -9.307,4.555 -16.987,5.658 -24.857,3.568 m 74.01,-113.58 c 15.435,-4.15 28.16,-17.1 32.16,-32.739 1.462,-5.712 1.436,-16.17 -0.055,-21.808 -4.24,-16.03 -16.824,-28.47 -33.07,-32.682 -5.132,-1.33 -16.07,-1.33 -21.2,0 -16.249,4.212 -28.84,16.656 -33.07,32.682 -1.508,5.713 -1.543,16.15 -0.074,21.808 3.317,12.769 12.218,23.797 23.632,29.28 3.428,1.647 7.869,3.313 9.868,3.702 1.999,0.389 4.229,0.844 4.956,1.012 2.369,0.547 13.13,-0.255 16.851,-1.256 m -20.824,-11.739 c -0.171,-0.465 -0.388,-5.603 -0.482,-11.418 l -0.171,-10.573 -11.234,-0.33 -11.234,-0.33 -0.185,-8.87 c -0.139,-6.653 0.027,-9 0.661,-9.407 0.465,-0.295 5.678,-0.541 11.585,-0.547 l 10.739,-0.01 V 177.13 c 0,-7.497 0.241,-11.01 0.793,-11.565 1.096,-1.096 16.482,-1.096 17.578,0 0.552,0.552 0.793,4.068 0.793,11.565 v 10.772 l 10.739,0.01 c 5.906,0.005 11.12,0.252 11.585,0.547 0.635,0.403 0.8,2.754 0.661,9.407 l -0.185,8.87 -11.234,0.33 -11.234,0.33 -0.33,11.234 -0.33,11.234 -9.1,0.184 c -6.92,0.14 -9.175,-0.018 -9.411,-0.661 m 173.34,7.32 c 8.821,-4.27 9.148,-17.65 0.554,-22.686 -3.97,-2.327 -9.426,-2.327 -13.396,0 -8.568,5.02 -8.275,18.326 0.5,22.67 3.78,1.871 8.498,1.877 12.342,0.016 m -30.429,-26.449 c 6.509,-1.639 11.169,-9.264 9.477,-15.505 -1.669,-6.156 -6.734,-10.157 -12.859,-10.157 -9.625,0 -15.848,10.169 -11.597,18.951 1.493,3.084 4.04,5.226 7.797,6.571 3,1.074 3.439,1.082 7.181,0.14 m 58.928,-1.729 c 4.24,-2.604 6.175,-6.519 5.855,-11.848 -0.203,-3.379 -0.603,-4.548 -2.262,-6.608 -2.864,-3.556 -6.486,-5.452 -10.437,-5.466 -11.886,-0.04 -17.691,13.766 -9.312,22.15 4.606,4.606 10.493,5.254 16.16,1.776 m -27.383,-27.748 c 3.638,-2.557 5.603,-6.235 5.616,-10.515 0.019,-5.885 -2.405,-9.772 -7.589,-12.172 -5.4,-2.5 -11.806,-0.787 -15.792,4.224 -2.702,3.397 -3.211,9.469 -1.135,13.539 1.498,2.937 4.828,5.833 7.798,6.783 3.191,1.021 8.198,0.183 11.1,-1.858"
       inkscape:connector-curvature="0"
       id="path41"
       style="opacity:0.2" />
    <path
       d="m -584.07,339.7 c -12.237,-3.248 -20.706,-12.08 -24.05,-25.1 -1.763,-6.853 -2.475,-18.697 -1.743,-28.982 1.547,-21.717 10.617,-116.06 11.535,-119.99 3.632,-15.551 11.09,-28.653 22.593,-39.703 12.12,-11.645 25.548,-18.19 43.25,-21.07 7.948,-1.297 10.958,-1.342 89.84,-1.342 78.879,0 81.89,0.045 89.84,1.342 17.684,2.885 30.812,9.242 42.931,20.789 12.871,12.262 21.537,28.622 23.81,44.944 0.875,6.285 9.657,101.2 10.626,114.85 0.744,10.481 0.045,22.269 -1.731,29.17 -3.386,13.159 -11.889,21.934 -24.358,25.14 -7.932,2.037 -15.201,0.968 -24.553,-3.609 -11.847,-5.798 -18.94,-12.309 -48.39,-44.42 l -24.12,-26.3 h -44.05 -44.05 l -24.12,26.3 c -29.447,32.11 -36.54,38.618 -48.39,44.42 -9.307,4.555 -16.987,5.658 -24.857,3.568 m 74.01,-113.58 c 15.435,-4.15 28.16,-17.1 32.16,-32.739 1.462,-5.712 1.436,-16.17 -0.055,-21.808 -4.24,-16.03 -16.824,-28.47 -33.07,-32.682 -5.132,-1.33 -16.07,-1.33 -21.2,0 -16.249,4.212 -28.84,16.656 -33.07,32.682 -1.508,5.713 -1.543,16.15 -0.074,21.808 3.317,12.769 12.218,23.797 23.632,29.28 3.428,1.647 7.869,3.313 9.868,3.702 1.999,0.389 4.229,0.844 4.956,1.012 2.369,0.547 13.13,-0.255 16.851,-1.256 m -20.824,-11.739 c -0.171,-0.465 -0.388,-5.603 -0.482,-11.418 l -0.171,-10.573 -11.234,-0.33 -11.234,-0.33 -0.185,-8.87 c -0.139,-6.653 0.027,-9 0.661,-9.407 0.465,-0.295 5.678,-0.541 11.585,-0.547 l 10.739,-0.01 V 162.13 c 0,-7.497 0.241,-11.01 0.793,-11.565 1.096,-1.096 16.482,-1.096 17.578,0 0.552,0.552 0.793,4.068 0.793,11.565 v 10.772 l 10.739,0.01 c 5.906,0.005 11.12,0.252 11.585,0.547 0.635,0.403 0.8,2.754 0.661,9.407 l -0.185,8.87 -11.234,0.33 -11.234,0.33 -0.33,11.234 -0.33,11.234 -9.1,0.184 c -6.92,0.14 -9.175,-0.018 -9.411,-0.661 m 173.34,7.32 c 8.821,-4.27 9.148,-17.65 0.554,-22.686 -3.97,-2.327 -9.426,-2.327 -13.396,0 -8.568,5.02 -8.275,18.326 0.5,22.67 3.78,1.871 8.498,1.877 12.342,0.016 m -30.429,-26.449 c 6.509,-1.639 11.169,-9.264 9.477,-15.505 -1.669,-6.156 -6.734,-10.157 -12.859,-10.157 -9.625,0 -15.848,10.169 -11.597,18.951 1.493,3.084 4.04,5.226 7.797,6.571 3,1.074 3.439,1.082 7.181,0.14 m 58.928,-1.729 c 4.24,-2.604 6.175,-6.519 5.855,-11.848 -0.203,-3.379 -0.603,-4.548 -2.262,-6.608 -2.864,-3.556 -6.486,-5.452 -10.437,-5.466 -11.886,-0.04 -17.691,13.766 -9.312,22.15 4.606,4.606 10.493,5.254 16.16,1.776 m -27.383,-27.748 c 3.638,-2.557 5.603,-6.235 5.616,-10.515 0.019,-5.885 -2.405,-9.772 -7.589,-12.172 -5.4,-2.5 -11.806,-0.787 -15.792,4.224 -2.702,3.397 -3.211,9.469 -1.135,13.539 1.498,2.937 4.828,5.833 7.798,6.783 3.191,1.021 8.198,0.183 11.1,-1.858"
       inkscape:connector-curvature="0"
       id="path43"
       style="fill:#dcdbdb" />
  </g>
  <path
     d="M 78.66,6 C 63.797,6 49.99,10.43 38.5,18.03 V 493.97 C 49.986,501.572 63.793,506 78.66,506 h 68.844 V 6 H 78.66"
     inkscape:connector-curvature="0"
     id="path45"
     style="opacity:0.05;fill:url(#1)" />
  <path
     d="m 147.5,6 v 500 h 109 V 6 h -109"
     inkscape:connector-curvature="0"
     id="path47"
     style="opacity:0.05;fill:url(#2)" />
  <path
     d="m 256.5,6 v 500 h 109 V 6 h -109"
     inkscape:connector-curvature="0"
     id="path49"
     style="opacity:0.05;fill:url(#3)" />
  <path
     d="m 365.5,6 v 500 h 67.844 c 14.854,0 28.643,-4.438 40.13,-12.03 V 18.03 C 461.992,10.437 448.204,6 433.354,6 H 365.51"
     inkscape:connector-curvature="0"
     id="path51"
     style="opacity:0.05;fill:url(#4)" />
  <path
     d="M 38.5,18.03 C 18.886,31.011 6,53.27 6,78.66 v 354.69 c 0,25.381 12.886,47.644 32.5,60.63 V 18.04"
     inkscape:connector-curvature="0"
     id="path53"
     style="opacity:0.05;fill:url(#6)" />
  <path
     d="m 473.47,18.03 v 475.94 c 19.627,-12.979 32.531,-35.23 32.531,-60.62 V 78.66 c 0,-25.391 -12.905,-47.646 -32.531,-60.62"
     inkscape:connector-curvature="0"
     id="path55"
     style="opacity:0.05;fill:url(#5)" />
</svg>
