<?xml version="1.0" encoding="UTF-8" standalone="no"?>
<!-- Created with Inkscape (http://www.inkscape.org/) -->

<svg
   xmlns:dc="http://purl.org/dc/elements/1.1/"
   xmlns:cc="http://creativecommons.org/ns#"
   xmlns:rdf="http://www.w3.org/1999/02/22-rdf-syntax-ns#"
   xmlns:svg="http://www.w3.org/2000/svg"
   xmlns="http://www.w3.org/2000/svg"
   xmlns:xlink="http://www.w3.org/1999/xlink"
   xmlns:inkscape="http://www.inkscape.org/namespaces/inkscape"
   version="1.1"
   width="100%"
   height="100%"
   viewBox="0 0 512 512"
   id="svg2">
  <metadata
     id="metadata59">
    <rdf:RDF>
      <cc:Work
         rdf:about="">
        <dc:format>image/svg+xml</dc:format>
        <dc:type
           rdf:resource="http://purl.org/dc/dcmitype/StillImage" />
      </cc:Work>
    </rdf:RDF>
  </metadata>
  <defs
     id="defs4">
    <filter
       color-interpolation-filters="sRGB"
       id="7">
      <feGaussianBlur
         id="feGaussianBlur7"
         stdDeviation="3.7725" />
    </filter>
    <linearGradient
       y1="19.563999"
       x2="0"
       y2="504.01999"
       id="8"
       gradientUnits="userSpaceOnUse">
      <stop
         id="stop10"
         style="stop-color:#f3f3f3;stop-opacity:1"
         offset="0" />
      <stop
         id="stop12"
         style="stop-color:#eeeeee;stop-opacity:1"
         offset="0.5" />
      <stop
         id="stop14"
         style="stop-color:#ebebeb;stop-opacity:1"
         offset="1" />
    </linearGradient>
    <linearGradient
       x1="257"
       x2="362"
       id="5"
       xlink:href="#0"
       gradientUnits="userSpaceOnUse"
       gradientTransform="matrix(1.02835,0,0,1.46193,209.19,-118.25)" />
    <linearGradient
       x1="257"
       x2="362"
       id="6"
       xlink:href="#0"
       gradientUnits="userSpaceOnUse"
       gradientTransform="matrix(1.0381,0,0,1.46193,-337.29,-118.25)" />
    <linearGradient
       x1="257"
       x2="362"
       id="4"
       xlink:href="#0"
       gradientUnits="userSpaceOnUse"
       gradientTransform="matrix(1.02835,0,0,1.46193,101.22,-118.25)" />
    <linearGradient
       x1="257"
       x2="362"
       id="3"
       xlink:href="#0"
       gradientUnits="userSpaceOnUse"
       gradientTransform="matrix(1.0381,0,0,1.46193,-10.289,-118.25)" />
    <linearGradient
       id="0">
      <stop
         id="stop21"
         style="stop-color:#000000;stop-opacity:1"
         offset="0" />
      <stop
         id="stop23"
         style="stop-color:#ffffff;stop-opacity:1"
         offset="1" />
    </linearGradient>
    <linearGradient
       x1="257"
       x2="362"
       id="2"
       xlink:href="#0"
       gradientUnits="userSpaceOnUse"
       gradientTransform="matrix(1.0381,0,0,1.46193,-119.29,-118.25)" />
    <linearGradient
       x1="257"
       x2="362"
       id="1"
       xlink:href="#0"
       gradientUnits="userSpaceOnUse"
       gradientTransform="matrix(1.0381,0,0,1.46193,-228.29,-118.25)" />
  </defs>
  <path
     d="m 78.66,6 c -0.929,0 -1.861,0.028 -2.781,0.063 -0.073,0.003 -0.146,-0.003 -0.219,0 -0.668,0.027 -1.337,0.08 -2,0.125 -0.376,0.025 -0.751,0.063 -1.125,0.094 -0.645,0.053 -1.297,0.086 -1.938,0.156 -0.965,0.106 -1.922,0.232 -2.875,0.375 -0.052,0.008 -0.104,0.023 -0.156,0.031 -1.082,0.165 -2.154,0.351 -3.219,0.563 -0.459,0.091 -0.919,0.182 -1.375,0.281 -0.39,0.085 -0.769,0.19 -1.156,0.281 -0.647,0.152 -1.297,0.299 -1.938,0.469 -0.898,0.238 -1.804,0.479 -2.688,0.75 -0.211,0.065 -0.414,0.152 -0.625,0.219 -0.991,0.314 -1.966,0.645 -2.938,1 -0.817,0.298 -1.635,0.611 -2.438,0.938 -0.29,0.118 -0.587,0.222 -0.875,0.344 -0.136,0.057 -0.27,0.129 -0.406,0.188 -0.082,0.035 -0.169,0.058 -0.25,0.094 -0.717,0.311 -1.42,0.636 -2.125,0.969 -0.147,0.069 -0.291,0.148 -0.438,0.219 -0.947,0.455 -1.889,0.943 -2.813,1.438 -0.271,0.145 -0.544,0.289 -0.813,0.438 -0.414,0.228 -0.81,0.483 -1.219,0.719 -0.52,0.3 -1.051,0.594 -1.563,0.906 -0.738,0.452 -1.467,0.898 -2.188,1.375 -0.031,0.021 -0.062,0.042 -0.094,0.063 -0.456,0.303 -0.895,0.625 -1.344,0.938 -0.123,0.086 -0.252,0.163 -0.375,0.25 -0.524,0.37 -1.049,0.742 -1.563,1.125 -1.835,1.371 -3.618,2.84 -5.313,4.375 -0.017,0.015 -0.046,0.016 -0.063,0.031 -0.526,0.477 -1.02,0.977 -1.531,1.469 -0.524,0.505 -1.054,1.011 -1.563,1.531 -0.512,0.523 -1,1.055 -1.5,1.594 -0.941,1.022 -1.837,2.05 -2.719,3.125 -0.631,0.769 -1.244,1.58 -1.844,2.375 -0.111,0.148 -0.233,0.289 -0.344,0.438 -0.526,0.71 -1.031,1.427 -1.531,2.156 -0.11,0.16 -0.235,0.308 -0.344,0.469 -0.013,0.019 -0.018,0.043 -0.031,0.063 -0.084,0.125 -0.167,0.249 -0.25,0.375 -0.47,0.708 -0.929,1.431 -1.375,2.156 -0.071,0.116 -0.148,0.227 -0.219,0.344 -0.575,0.948 -1.124,1.899 -1.656,2.875 -0.152,0.278 -0.289,0.564 -0.438,0.844 -0.18,0.341 -0.356,0.687 -0.531,1.031 -0.243,0.479 -0.486,0.952 -0.719,1.438 -0.426,0.885 -0.828,1.783 -1.219,2.688 -0.24,0.556 -0.461,1.124 -0.688,1.688 -0.038,0.095 -0.087,0.186 -0.125,0.281 -0.246,0.621 -0.489,1.245 -0.719,1.875 -0.332,0.909 -0.641,1.825 -0.938,2.75 -0.11,0.345 -0.238,0.684 -0.344,1.031 -0.301,0.99 -0.585,1.992 -0.844,3 -0.008,0.032 -0.023,0.062 -0.031,0.094 -0.267,1.046 -0.497,2.092 -0.719,3.156 -0.034,0.166 -0.06,0.334 -0.094,0.5 -0.426,2.117 -0.762,4.257 -1,6.438 -0.035,0.323 -0.063,0.645 -0.094,0.969 -0.09,0.938 -0.165,1.895 -0.219,2.844 -0.017,0.29 -0.018,0.584 -0.031,0.875 -0.051,1.119 -0.094,2.243 -0.094,3.375 v 354.69 6 c 0,40.24 32.411,72.66 72.66,72.66 h 354.69 c 40.24,0 72.66,-32.411 72.66,-72.66 v -354.69 -6 c 0,-1.259 -0.031,-2.507 -0.094,-3.75 -0.016,-0.323 -0.042,-0.647 -0.063,-0.969 -0.058,-0.917 -0.127,-1.843 -0.219,-2.75 -0.02,-0.2 -0.041,-0.394 -0.063,-0.594 -0.246,-2.245 -0.587,-4.447 -1.031,-6.625 -0.021,-0.104 -0.041,-0.209 -0.063,-0.313 -0.227,-1.087 -0.476,-2.15 -0.75,-3.219 -0.011,-0.042 -0.02,-0.083 -0.031,-0.125 -0.19,-0.732 -0.413,-1.464 -0.625,-2.188 -0.212,-0.724 -0.423,-1.442 -0.656,-2.156 -0.258,-0.789 -0.529,-1.567 -0.813,-2.344 -0.23,-0.63 -0.472,-1.254 -0.719,-1.875 -0.038,-0.096 -0.087,-0.186 -0.125,-0.281 -0.239,-0.594 -0.465,-1.195 -0.719,-1.781 -0.378,-0.871 -0.777,-1.741 -1.188,-2.594 -0.233,-0.485 -0.475,-0.958 -0.719,-1.438 -0.287,-0.564 -0.574,-1.132 -0.875,-1.688 -0.051,-0.094 -0.105,-0.188 -0.156,-0.281 -0.513,-0.936 -1.041,-1.871 -1.594,-2.781 -0.212,-0.35 -0.438,-0.685 -0.656,-1.031 -0.405,-0.642 -0.795,-1.278 -1.219,-1.906 -0.809,-1.199 -1.685,-2.354 -2.563,-3.5 -0.262,-0.341 -0.514,-0.695 -0.781,-1.031 -0.189,-0.238 -0.371,-0.483 -0.563,-0.719 -0.093,-0.114 -0.188,-0.231 -0.281,-0.344 -2.71,-3.286 -5.696,-6.301 -8.938,-9.06 -0.293,-0.249 -0.578,-0.505 -0.875,-0.75 -0.268,-0.221 -0.541,-0.439 -0.813,-0.656 -0.636,-0.509 -1.284,-1.012 -1.938,-1.5 -3.17,-2.368 -6.55,-4.481 -10.09,-6.313 -0.617,-0.319 -1.248,-0.636 -1.875,-0.938 -0.155,-0.074 -0.313,-0.145 -0.469,-0.219 -0.785,-0.371 -1.575,-0.719 -2.375,-1.063 -0.488,-0.209 -0.975,-0.426 -1.469,-0.625 -0.735,-0.296 -1.472,-0.571 -2.219,-0.844 -0.392,-0.143 -0.793,-0.27 -1.188,-0.406 -0.718,-0.248 -1.459,-0.524 -2.188,-0.75 -0.114,-0.035 -0.23,-0.059 -0.344,-0.094 -0.488,-0.149 -0.977,-0.267 -1.469,-0.406 -0.357,-0.1 -0.703,-0.217 -1.063,-0.313 -0.019,-0.005 -0.043,0.005 -0.063,0 -0.837,-0.221 -1.683,-0.433 -2.531,-0.625 -0.032,-0.007 -0.062,-0.024 -0.094,-0.031 -0.651,-0.146 -1.311,-0.278 -1.969,-0.406 -1,-0.197 -2.01,-0.376 -3.03,-0.531 -0.063,-0.01 -0.125,-0.022 -0.188,-0.031 -0.952,-0.143 -1.88,-0.269 -2.844,-0.375 -0.836,-0.091 -1.687,-0.156 -2.531,-0.219 -0.176,-0.013 -0.355,-0.019 -0.531,-0.031 -0.735,-0.049 -1.478,-0.097 -2.219,-0.125 -0.92,-0.034 -1.853,-0.063 -2.781,-0.063 H 147.503 78.659"
     inkscape:connector-curvature="0"
     id="path27"
     style="fill-opacity:0.17600002;filter:url(#7)" />
  <rect
     width="500"
     height="500"
     rx="72.639999"
     x="6"
     y="12"
     id="rect29"
     style="opacity:0.15" />
  <rect
     width="500"
     height="500"
     rx="72.639999"
     x="6"
     y="6"
     id="rect31"
     style="fill:url(#8)" />
  <rect
     width="435"
     height="435"
     rx="63.200001"
     x="38.5"
     y="38.5"
     id="rect33"
     style="fill:#8db173" />
  <path
     d="M 101.69,38.5 C 66.68,38.5 38.5,66.67 38.5,101.69 v 15 C 38.5,81.68 66.67,53.5 101.69,53.5 h 308.63 c 35.01,0 63.19,28.17 63.19,63.19 v -15 C 473.51,66.68 445.34,38.5 410.32,38.5 H 101.7"
     inkscape:connector-curvature="0"
     id="path35"
     style="opacity:0.2" />
  <path
     d="M 78.66,6 C 38.42,6 6,38.411 6,78.66 v 7 C 6,45.42 38.411,13 78.66,13 h 354.69 c 40.24,0 72.66,32.411 72.66,72.66 v -7 C 506.01,38.42 473.599,6 433.35,6 H 78.66"
     inkscape:connector-curvature="0"
     id="path37"
     style="fill:#ffffff" />
  <g
     transform="translate(725.3,60.914)"
     id="g39">
    <path
       d="m -532.19,52.02 c -2.183,0 -2.519,1.846 -0.559,3.057 2.432,1.503 -1.481,25.84 -5.704,35.454 -1.955,4.449 -2.067,4.491 -7.158,3.728 -7.04,-1.055 -6.802,0.781 1.417,11.669 5.961,7.896 6.542,9.222 6.263,14.09 l -0.336,5.368 -9.246,-0.298 c -7.273,-0.223 -9.246,0.1 -9.246,1.417 0,0.921 3.892,5.887 8.649,11.07 11.22,12.232 15.349,19.821 16.14,29.713 0.482,6.01 0.26,7.598 -1.044,7.568 -2.273,-0.052 -5.149,-2.417 -6.86,-5.629 -0.786,-1.476 -2.153,-2.684 -3.02,-2.684 -0.866,0 -5.098,-3.221 -9.395,-7.158 -4.296,-3.937 -8.313,-7.158 -8.947,-7.158 -0.634,0 -1.858,2.416 -2.684,5.368 -1.129,4.03 -2.079,5.368 -3.84,5.368 -2.77,0 -9.283,-3.638 -9.283,-5.182 0,-0.591 -1.01,-0.779 -2.274,-0.447 -1.452,0.38 -3.309,-0.479 -4.996,-2.274 -2.569,-2.735 -5.836,-3.809 -5.853,-1.939 -0.005,0.492 -1.852,2.159 -4.101,3.691 l -4.064,2.759 -11.11,-2.945 c -6.112,-1.634 -12.842,-3.696 -14.95,-4.548 -2.107,-0.852 -4.238,-1.168 -4.697,-0.708 -1.052,1.052 1.901,10.592 3.765,12.191 0.765,0.656 2.85,3.539 4.66,6.412 2.767,4.394 3.178,6.04 2.535,10.327 -0.71,4.735 -0.517,5.262 2.982,7.754 4.736,3.372 7.359,9.146 5.629,12.377 -0.68,1.27 -2.775,3.596 -4.66,5.182 -4.385,3.69 -4.447,6.266 -0.149,6.3 5.066,0.04 12.471,3.9 16.739,8.761 2.127,2.422 3.84,4.88 3.84,5.48 0,2.02 -7.487,8.122 -13.309,10.849 -7.887,3.694 -7.522,5.652 1.081,5.667 4.818,0.008 10.588,1.314 19.386,4.399 6.889,2.416 14.942,4.826 17.895,5.368 7.567,1.389 9.155,2.172 11.445,5.667 1.908,2.912 1.887,3.171 -0.149,4.66 -1.185,0.866 -4.066,1.927 -6.412,2.349 -2.347,0.422 -9.656,3.31 -16.217,6.45 -6.561,3.139 -16.646,7.516 -22.406,9.693 -13.587,5.135 -13.63,7.224 -0.186,7.419 8.532,0.123 10.605,0.65 18.566,4.586 9.913,4.901 17.953,10.758 19.16,13.98 0.433,1.154 -0.257,4.392 -1.529,7.232 -3.397,7.588 -1.259,8.527 5.853,2.572 9.02,-7.552 12.525,-8.316 21.921,-4.772 1.757,0.663 3.467,1.921 3.803,2.796 0.873,2.274 -1.34,9.598 -3.43,11.333 -1.769,1.468 -2.502,5.965 -0.969,5.965 0.447,0 5.949,-2.631 12.228,-5.853 10.86,-5.572 24.397,-10.849 27.849,-10.849 0.88,0 2.518,0.671 3.616,1.491 1.847,1.379 1.829,1.895 0.075,6.86 -5.093,14.412 -7.724,25.386 -6.412,26.693 1.498,1.493 4.448,-1.614 8.314,-8.798 2.356,-4.377 8.05,-10.118 19.349,-19.535 5.401,-4.501 8.33,-8.499 14.689,-19.908 4.372,-7.844 8.382,-14.241 8.91,-14.241 0.528,0 1.643,1.745 2.498,3.877 0.854,2.132 4.206,8.641 7.456,14.465 11.01,19.729 36.39,42.522 51.3,46.12 4.477,1.079 13.879,0.186 16.03,-1.529 1.864,-1.486 1.907,-4.671 0.112,-8.612 -1.476,-3.24 -6.977,-5.394 -13.757,-5.406 -5.22,-0.01 -15.848,-6.532 -26.32,-16.14 -10.124,-9.291 -17.12,-18.09 -23.86,-30.01 l -4.846,-8.575 7.344,4.03 c 12.08,6.59 39.04,14.988 51.48,16.03 7.866,0.659 12.471,1.742 17.224,4.064 6.481,3.167 10.811,4.02 10.811,2.162 0,-0.542 -3.355,-3.731 -7.456,-7.121 -4.101,-3.389 -10.878,-9.277 -15.06,-13.09 l -7.605,-6.934 4.175,-4.436 c 2.733,-2.898 5.233,-4.399 7.27,-4.399 1.708,0 7.542,-1.674 12.974,-3.728 8.07,-3.053 11.567,-3.741 19.12,-3.691 5.695,0.038 9.246,-0.422 9.246,-1.193 0,-0.688 -1.879,-3.311 -4.175,-5.853 -2.296,-2.542 -4.175,-5.182 -4.175,-5.853 0,-0.671 3.221,-4.678 7.158,-8.91 3.937,-4.232 7.158,-8.223 7.158,-8.873 0,-2.789 8.02,-9.884 19.684,-17.41 8.501,-5.483 12.526,-8.792 12.526,-10.289 0,-2.685 -0.292,-2.688 -9.618,-0.298 -9.869,2.528 -26.03,1.969 -29,-1.01 -2.674,-2.676 -3.785,-2.627 -6.711,0.298 -1.985,1.985 -3.972,2.386 -11.855,2.386 -5.21,0 -9.807,-0.532 -10.215,-1.193 -0.888,-1.436 2.089,-5.736 12.04,-17.447 4.084,-4.806 10.24,-13.97 13.682,-20.355 3.776,-7 8.549,-13.859 12.04,-17.261 3.184,-3.101 5.778,-6.198 5.778,-6.897 0,-1.607 0.08,-1.611 -5.965,0.522 -2.79,0.984 -8.962,1.789 -13.757,1.789 -7.701,0 -8.83,-0.292 -9.507,-2.423 -1.968,-6.201 3.49,-17.561 10.252,-21.362 3.157,-1.774 4.364,-3.13 3.877,-4.399 -0.484,-1.261 -1.517,-1.566 -3.243,-1.01 -6.125,1.986 -9.813,1.944 -11.52,-0.112 -1.802,-2.171 -2.07,-10.151 -0.559,-16.814 0.69,-3.041 0.403,-4 -1.454,-4.996 -1.659,-0.888 -2.733,-3.558 -3.803,-9.544 -1.286,-7.193 -1.216,-8.822 0.41,-11.967 2.232,-4.317 2.409,-7.307 0.447,-7.307 -0.78,0 -6.282,3.667 -12.228,8.164 -5.946,4.498 -12.337,9.181 -14.241,10.401 -3.425,2.195 -3.484,2.203 -5.219,-0.41 -2.614,-3.937 -4.194,-3.263 -6.748,2.945 -2.462,5.986 -9.547,14.689 -11.967,14.689 -2.32,0 -5.348,-3.998 -6.189,-8.202 -0.535,-2.673 -1.348,-3.75 -2.684,-3.504 -2.047,0.377 -4.328,6.903 -7.829,22.443 -1.109,4.921 -3.826,12.705 -6.04,17.298 -2.214,4.593 -4.321,9.693 -4.697,11.333 -0.376,1.64 -2.034,4.593 -3.691,6.561 -2.969,3.528 -3.057,3.545 -4.921,1.193 -2.706,-3.415 -11.516,-22.12 -16.03,-34 -3.193,-8.406 -3.854,-11.824 -3.877,-19.982 -0.019,-6.818 -0.467,-9.842 -1.454,-9.842 -0.784,0 -3.747,3.467 -6.561,7.717 l -5.107,7.717 -2.349,-3.84 c -1.295,-2.117 -2.979,-8.106 -3.728,-13.309 -0.757,-5.261 -1.99,-9.685 -2.796,-9.954 -0.797,-0.266 -3.092,0.914 -5.107,2.61 -2.02,1.696 -4.534,3.094 -5.592,3.094 -2.747,0 -11.04,-9.544 -11.04,-12.713 0,-3.589 -2.01,-4.577 -5.48,-2.721 -3.605,1.93 -6.186,0.658 -15.248,-7.419 -3.566,-3.179 -7.345,-5.778 -8.388,-5.778"
       inkscape:connector-curvature="0"
       id="path41"
       style="opacity:0.2" />
    <path
       d="m -547.19,37.02 c -2.183,0 -2.519,1.846 -0.559,3.057 2.432,1.503 -1.481,25.84 -5.704,35.454 -1.955,4.449 -2.067,4.491 -7.158,3.728 -7.04,-1.055 -6.802,0.781 1.417,11.669 5.961,7.896 6.542,9.222 6.263,14.09 l -0.336,5.368 -9.246,-0.298 c -7.273,-0.223 -9.246,0.1 -9.246,1.417 0,0.921 3.892,5.887 8.649,11.07 11.22,12.232 15.349,19.821 16.14,29.713 0.482,6.01 0.26,7.598 -1.044,7.568 -2.273,-0.052 -5.149,-2.417 -6.86,-5.629 -0.786,-1.476 -2.153,-2.684 -3.02,-2.684 -0.866,0 -5.098,-3.221 -9.395,-7.158 -4.296,-3.937 -8.313,-7.158 -8.947,-7.158 -0.634,0 -1.858,2.416 -2.684,5.368 -1.129,4.03 -2.079,5.368 -3.84,5.368 -2.77,0 -9.283,-3.638 -9.283,-5.182 0,-0.591 -1.01,-0.779 -2.274,-0.447 -1.452,0.38 -3.309,-0.479 -4.996,-2.274 -2.569,-2.735 -5.836,-3.809 -5.853,-1.939 -0.005,0.492 -1.852,2.159 -4.101,3.691 l -4.064,2.759 -11.11,-2.945 c -6.112,-1.634 -12.842,-3.696 -14.95,-4.548 -2.107,-0.852 -4.238,-1.168 -4.697,-0.708 -1.052,1.052 1.901,10.592 3.765,12.191 0.765,0.656 2.85,3.539 4.66,6.412 2.767,4.394 3.178,6.04 2.535,10.327 -0.71,4.735 -0.517,5.262 2.982,7.754 4.736,3.372 7.359,9.146 5.629,12.377 -0.68,1.27 -2.775,3.596 -4.66,5.182 -4.385,3.69 -4.447,6.266 -0.149,6.3 5.066,0.04 12.471,3.9 16.739,8.761 2.127,2.422 3.84,4.88 3.84,5.48 0,2.02 -7.487,8.122 -13.309,10.849 -7.887,3.694 -7.522,5.652 1.081,5.667 4.818,0.008 10.588,1.314 19.386,4.399 6.889,2.416 14.942,4.826 17.895,5.368 7.567,1.389 9.155,2.172 11.445,5.667 1.908,2.912 1.887,3.171 -0.149,4.66 -1.185,0.867 -4.066,1.927 -6.412,2.349 -2.347,0.422 -9.656,3.31 -16.217,6.45 -6.561,3.139 -16.646,7.516 -22.406,9.693 -13.587,5.135 -13.63,7.224 -0.186,7.419 8.532,0.123 10.605,0.65 18.566,4.586 9.913,4.901 17.953,10.758 19.16,13.98 0.433,1.154 -0.257,4.392 -1.529,7.232 -3.397,7.588 -1.259,8.527 5.853,2.572 9.02,-7.552 12.525,-8.316 21.921,-4.772 1.757,0.663 3.467,1.921 3.803,2.796 0.873,2.274 -1.34,9.598 -3.43,11.333 -1.769,1.468 -2.502,5.965 -0.969,5.965 0.447,0 5.949,-2.631 12.228,-5.853 10.86,-5.572 24.397,-10.849 27.849,-10.849 0.88,0 2.518,0.671 3.616,1.491 1.847,1.379 1.829,1.895 0.075,6.86 -5.093,14.412 -7.724,25.386 -6.412,26.693 1.498,1.493 4.448,-1.614 8.314,-8.798 2.356,-4.377 8.05,-10.118 19.349,-19.535 5.401,-4.501 8.33,-8.499 14.689,-19.908 4.372,-7.844 8.382,-14.241 8.91,-14.241 0.528,0 1.643,1.745 2.498,3.877 0.854,2.132 4.206,8.641 7.456,14.465 11.01,19.729 36.39,42.522 51.3,46.12 4.477,1.079 13.879,0.186 16.03,-1.529 1.864,-1.486 1.907,-4.671 0.112,-8.612 -1.476,-3.24 -6.977,-5.394 -13.757,-5.406 -5.22,-0.01 -15.848,-6.532 -26.32,-16.14 -10.124,-9.291 -17.12,-18.09 -23.86,-30.01 l -4.846,-8.575 7.344,4.03 c 12.08,6.59 39.04,14.988 51.48,16.03 7.866,0.659 12.471,1.742 17.224,4.064 6.481,3.167 10.811,4.02 10.811,2.162 0,-0.542 -3.355,-3.731 -7.456,-7.121 -4.101,-3.389 -10.878,-9.277 -15.06,-13.09 l -7.605,-6.934 4.175,-4.436 c 2.733,-2.898 5.233,-4.399 7.27,-4.399 1.708,0 7.542,-1.674 12.974,-3.728 8.07,-3.053 11.567,-3.741 19.12,-3.691 5.695,0.038 9.246,-0.422 9.246,-1.193 0,-0.688 -1.879,-3.311 -4.175,-5.853 -2.296,-2.542 -4.175,-5.182 -4.175,-5.853 0,-0.671 3.221,-4.678 7.158,-8.91 3.937,-4.232 7.158,-8.223 7.158,-8.873 0,-2.789 8.02,-9.884 19.684,-17.41 8.501,-5.483 12.526,-8.792 12.526,-10.289 0,-2.685 -0.292,-2.688 -9.618,-0.298 -9.869,2.528 -26.03,1.969 -29,-1.01 -2.674,-2.676 -3.785,-2.627 -6.711,0.298 -1.985,1.985 -3.972,2.386 -11.855,2.386 -5.21,0 -9.807,-0.532 -10.215,-1.193 -0.888,-1.436 2.089,-5.736 12.04,-17.447 4.084,-4.806 10.24,-13.97 13.682,-20.355 3.776,-7 8.549,-13.859 12.04,-17.261 3.184,-3.101 5.778,-6.198 5.778,-6.897 0,-1.607 0.08,-1.611 -5.965,0.522 -2.79,0.984 -8.962,1.789 -13.757,1.789 -7.701,0 -8.83,-0.292 -9.507,-2.423 -1.968,-6.201 3.49,-17.561 10.252,-21.362 3.157,-1.774 4.364,-3.13 3.877,-4.399 -0.484,-1.261 -1.517,-1.566 -3.243,-1.01 -6.125,1.986 -9.813,1.944 -11.52,-0.112 -1.802,-2.171 -2.07,-10.151 -0.559,-16.814 0.69,-3.041 0.403,-4 -1.454,-4.996 -1.659,-0.888 -2.733,-3.558 -3.803,-9.544 -1.286,-7.193 -1.216,-8.822 0.41,-11.967 2.232,-4.317 2.409,-7.307 0.447,-7.307 -0.78,0 -6.282,3.667 -12.228,8.164 -5.946,4.498 -12.337,9.181 -14.241,10.401 -3.425,2.195 -3.484,2.203 -5.219,-0.41 -2.614,-3.937 -4.194,-3.263 -6.748,2.945 -2.462,5.986 -9.547,14.689 -11.967,14.689 -2.32,0 -5.348,-3.998 -6.189,-8.202 -0.535,-2.673 -1.348,-3.75 -2.684,-3.504 -2.047,0.377 -4.328,6.903 -7.829,22.443 -1.109,4.921 -3.826,12.705 -6.04,17.298 -2.214,4.593 -4.321,9.693 -4.697,11.333 -0.376,1.64 -2.034,4.593 -3.691,6.561 -2.969,3.528 -3.057,3.545 -4.921,1.193 -2.706,-3.415 -11.516,-22.12 -16.03,-34 -3.193,-8.406 -3.854,-11.824 -3.877,-19.982 -0.019,-6.818 -0.467,-9.842 -1.454,-9.842 -0.784,0 -3.747,3.467 -6.561,7.717 l -5.107,7.717 -2.349,-3.84 c -1.295,-2.117 -2.979,-8.106 -3.728,-13.309 -0.757,-5.261 -1.99,-9.685 -2.796,-9.954 -0.797,-0.266 -3.092,0.914 -5.107,2.61 -2.02,1.696 -4.534,3.094 -5.592,3.094 -2.747,0 -11.04,-9.544 -11.04,-12.713 0,-3.589 -2.01,-4.577 -5.48,-2.721 -3.605,1.93 -6.186,0.658 -15.248,-7.419 -3.566,-3.179 -7.345,-5.778 -8.388,-5.778"
       inkscape:connector-curvature="0"
       id="path43"
       style="fill:#dcdbdb" />
  </g>
  <path
     d="M 78.66,6 C 63.797,6 49.99,10.43 38.5,18.03 V 493.97 C 49.986,501.572 63.793,506 78.66,506 h 68.844 V 6 H 78.66"
     inkscape:connector-curvature="0"
     id="path45"
     style="opacity:0.05;fill:url(#1)" />
  <path
     d="m 147.5,6 v 500 h 109 V 6 h -109"
     inkscape:connector-curvature="0"
     id="path47"
     style="opacity:0.05;fill:url(#2)" />
  <path
     d="m 256.5,6 v 500 h 109 V 6 h -109"
     inkscape:connector-curvature="0"
     id="path49"
     style="opacity:0.05;fill:url(#3)" />
  <path
     d="m 365.5,6 v 500 h 67.844 c 14.854,0 28.643,-4.438 40.13,-12.03 V 18.03 C 461.992,10.437 448.204,6 433.354,6 H 365.51"
     inkscape:connector-curvature="0"
     id="path51"
     style="opacity:0.05;fill:url(#4)" />
  <path
     d="M 38.5,18.03 C 18.886,31.011 6,53.27 6,78.66 v 354.69 c 0,25.381 12.886,47.644 32.5,60.63 V 18.04"
     inkscape:connector-curvature="0"
     id="path53"
     style="opacity:0.05;fill:url(#6)" />
  <path
     d="m 473.47,18.03 v 475.94 c 19.627,-12.979 32.531,-35.23 32.531,-60.62 V 78.66 c 0,-25.391 -12.905,-47.646 -32.531,-60.62"
     inkscape:connector-curvature="0"
     id="path55"
     style="opacity:0.05;fill:url(#5)" />
</svg>
