<svg xmlns="http://www.w3.org/2000/svg" xmlns:xlink="http://www.w3.org/1999/xlink" viewBox="0 0 512 512"><defs><filter id="7"><feGaussianBlur stdDeviation="3.7725"/></filter><linearGradient id="8" y1="19.564" x2="0" y2="504.02" gradientUnits="userSpaceOnUse"><stop stop-color="#f3f3f3"/><stop offset=".5" stop-color="#eee"/><stop offset="1" stop-color="#ebebeb"/></linearGradient><linearGradient xlink:href="#0" id="5" gradientUnits="userSpaceOnUse" gradientTransform="matrix(1.02835 0 0 1.46193 209.19-118.25)" x1="257" x2="362"/><linearGradient xlink:href="#0" id="6" gradientUnits="userSpaceOnUse" gradientTransform="matrix(1.0381 0 0 1.46193-337.29-118.25)" x1="257" x2="362"/><linearGradient xlink:href="#0" id="4" gradientUnits="userSpaceOnUse" gradientTransform="matrix(1.02835 0 0 1.46193 101.22-118.25)" x1="257" x2="362"/><linearGradient xlink:href="#0" id="3" gradientUnits="userSpaceOnUse" gradientTransform="matrix(1.0381 0 0 1.46193-10.289-118.25)" x1="257" x2="362"/><linearGradient id="0"><stop/><stop offset="1" stop-color="#fff"/></linearGradient><linearGradient xlink:href="#0" id="2" gradientUnits="userSpaceOnUse" gradientTransform="matrix(1.0381 0 0 1.46193-119.29-118.25)" x1="257" x2="362"/><linearGradient xlink:href="#0" id="1" gradientUnits="userSpaceOnUse" gradientTransform="matrix(1.0381 0 0 1.46193-228.29-118.25)" x1="257" x2="362"/></defs><path d="m78.66 6c-.929 0-1.861.028-2.781.063-.073.003-.146-.003-.219 0-.668.027-1.337.08-2 .125-.376.025-.751.063-1.125.094-.645.053-1.297.086-1.938.156-.965.106-1.922.232-2.875.375-.052.008-.104.023-.156.031-1.082.165-2.154.351-3.219.563-.459.091-.919.182-1.375.281-.39.085-.769.19-1.156.281-.647.152-1.297.299-1.938.469-.898.238-1.804.479-2.688.75-.211.065-.414.152-.625.219-.991.314-1.966.645-2.938 1-.817.298-1.635.611-2.438.938-.29.118-.587.222-.875.344-.136.057-.27.129-.406.188-.082.035-.169.058-.25.094-.717.311-1.42.636-2.125.969-.147.069-.291.148-.438.219-.947.455-1.889.943-2.813 1.438-.271.145-.544.289-.813.438-.414.228-.81.483-1.219.719-.52.3-1.051.594-1.563.906-.738.452-1.467.898-2.188 1.375-.031.021-.062.042-.094.063-.456.303-.895.625-1.344.938-.123.086-.252.163-.375.25-.524.37-1.049.742-1.563 1.125-1.835 1.371-3.618 2.84-5.313 4.375-.017.015-.046.016-.063.031-.526.477-1.02.977-1.531 1.469-.524.505-1.054 1.011-1.563 1.531-.512.523-1 1.055-1.5 1.594-.941 1.022-1.837 2.05-2.719 3.125-.631.769-1.244 1.58-1.844 2.375-.111.148-.233.289-.344.438-.526.71-1.031 1.427-1.531 2.156-.11.16-.235.308-.344.469-.013.019-.018.043-.031.063-.084.125-.167.249-.25.375-.47.708-.929 1.431-1.375 2.156-.071.116-.148.227-.219.344-.575.948-1.124 1.899-1.656 2.875-.152.278-.289.564-.438.844-.18.341-.356.687-.531 1.031-.243.479-.486.952-.719 1.438-.426.885-.828 1.783-1.219 2.688-.24.556-.461 1.124-.688 1.688-.038.095-.087.186-.125.281-.246.621-.489 1.245-.719 1.875-.332.909-.641 1.825-.938 2.75-.11.345-.238.684-.344 1.031-.301.99-.585 1.992-.844 3-.008.032-.023.062-.031.094-.267 1.046-.497 2.092-.719 3.156-.034.166-.06.334-.094.5-.426 2.117-.762 4.257-1 6.438-.035.323-.063.645-.094.969-.09.938-.165 1.895-.219 2.844-.017.29-.018.584-.031.875-.051 1.119-.094 2.243-.094 3.375v354.69 6c0 40.24 32.411 72.66 72.66 72.66h354.69c40.24 0 72.66-32.411 72.66-72.66v-354.69-6c0-1.259-.031-2.507-.094-3.75-.016-.323-.042-.647-.063-.969-.058-.917-.127-1.843-.219-2.75-.02-.2-.041-.394-.063-.594-.246-2.245-.587-4.447-1.031-6.625-.021-.104-.041-.209-.063-.313-.227-1.087-.476-2.15-.75-3.219-.011-.042-.02-.083-.031-.125-.19-.732-.413-1.464-.625-2.188-.212-.724-.423-1.442-.656-2.156-.258-.789-.529-1.567-.813-2.344-.23-.63-.472-1.254-.719-1.875-.038-.096-.087-.186-.125-.281-.239-.594-.465-1.195-.719-1.781-.378-.871-.777-1.741-1.188-2.594-.233-.485-.475-.958-.719-1.438-.287-.564-.574-1.132-.875-1.688-.051-.094-.105-.188-.156-.281-.513-.936-1.041-1.871-1.594-2.781-.212-.35-.438-.685-.656-1.031-.405-.642-.795-1.278-1.219-1.906-.809-1.199-1.685-2.354-2.563-3.5-.262-.341-.514-.695-.781-1.031-.189-.238-.371-.483-.563-.719-.093-.114-.188-.231-.281-.344-2.71-3.286-5.696-6.301-8.938-9.06-.293-.249-.578-.505-.875-.75-.268-.221-.541-.439-.813-.656-.636-.509-1.284-1.012-1.938-1.5-3.17-2.368-6.55-4.481-10.09-6.313-.617-.319-1.248-.636-1.875-.938-.155-.074-.313-.145-.469-.219-.785-.371-1.575-.719-2.375-1.063-.488-.209-.975-.426-1.469-.625-.735-.296-1.472-.571-2.219-.844-.392-.143-.793-.27-1.188-.406-.718-.248-1.459-.524-2.188-.75-.114-.035-.23-.059-.344-.094-.488-.149-.977-.267-1.469-.406-.357-.1-.703-.217-1.063-.313-.019-.005-.043.005-.063 0-.837-.221-1.683-.433-2.531-.625-.032-.007-.062-.024-.094-.031-.651-.146-1.311-.278-1.969-.406-1-.197-2.01-.376-3.03-.531-.063-.01-.125-.022-.188-.031-.952-.143-1.88-.269-2.844-.375-.836-.091-1.687-.156-2.531-.219-.176-.013-.355-.019-.531-.031-.735-.049-1.478-.097-2.219-.125-.92-.034-1.853-.063-2.781-.063h-285.84-68.844" filter="url(#7)" fill-opacity=".176"/><rect width="500" height="500" x="6" y="12" rx="72.64" opacity=".15"/><rect rx="72.64" y="6" x="6" height="500" width="500" fill="url(#8)"/><rect width="435" height="435" x="38.5" y="38.5" rx="63.2" fill="#8db173"/><path d="m101.69 38.5c-35.01 0-63.19 28.17-63.19 63.19v15c0-35.01 28.17-63.19 63.19-63.19h308.63c35.01 0 63.19 28.17 63.19 63.19v-15c0-35.01-28.17-63.19-63.19-63.19h-308.62" opacity=".2"/><path d="m78.66 6c-40.24 0-72.66 32.411-72.66 72.66v7c0-40.24 32.411-72.66 72.66-72.66h354.69c40.24 0 72.66 32.411 72.66 72.66v-7c0-40.24-32.411-72.66-72.66-72.66h-354.69" fill="#fff"/><g transform="translate(725.3 60.914)"><path d="m-532.19 52.02c-2.183 0-2.519 1.846-.559 3.057 2.432 1.503-1.481 25.84-5.704 35.454-1.955 4.449-2.067 4.491-7.158 3.728-7.04-1.055-6.802.781 1.417 11.669 5.961 7.896 6.542 9.222 6.263 14.09l-.336 5.368-9.246-.298c-7.273-.223-9.246.1-9.246 1.417 0 .921 3.892 5.887 8.649 11.07 11.22 12.232 15.349 19.821 16.14 29.713.482 6.01.26 7.598-1.044 7.568-2.273-.052-5.149-2.417-6.86-5.629-.786-1.476-2.153-2.684-3.02-2.684-.866 0-5.098-3.221-9.395-7.158-4.296-3.937-8.313-7.158-8.947-7.158-.634 0-1.858 2.416-2.684 5.368-1.129 4.03-2.079 5.368-3.84 5.368-2.77 0-9.283-3.638-9.283-5.182 0-.591-1.01-.779-2.274-.447-1.452.38-3.309-.479-4.996-2.274-2.569-2.735-5.836-3.809-5.853-1.939-.005.492-1.852 2.159-4.101 3.691l-4.064 2.759-11.11-2.945c-6.112-1.634-12.842-3.696-14.95-4.548-2.107-.852-4.238-1.168-4.697-.708-1.052 1.052 1.901 10.592 3.765 12.191.765.656 2.85 3.539 4.66 6.412 2.767 4.394 3.178 6.04 2.535 10.327-.71 4.735-.517 5.262 2.982 7.754 4.736 3.372 7.359 9.146 5.629 12.377-.68 1.27-2.775 3.596-4.66 5.182-4.385 3.69-4.447 6.266-.149 6.3 5.066.04 12.471 3.9 16.739 8.761 2.127 2.422 3.84 4.88 3.84 5.48 0 2.02-7.487 8.122-13.309 10.849-7.887 3.694-7.522 5.652 1.081 5.667 4.818.008 10.588 1.314 19.386 4.399 6.889 2.416 14.942 4.826 17.895 5.368 7.567 1.389 9.155 2.172 11.445 5.667 1.908 2.912 1.887 3.171-.149 4.66-1.185.866-4.066 1.927-6.412 2.349-2.347.422-9.656 3.31-16.217 6.45-6.561 3.139-16.646 7.516-22.406 9.693-13.587 5.135-13.63 7.224-.186 7.419 8.532.123 10.605.65 18.566 4.586 9.913 4.901 17.953 10.758 19.16 13.98.433 1.154-.257 4.392-1.529 7.232-3.397 7.588-1.259 8.527 5.853 2.572 9.02-7.552 12.525-8.316 21.921-4.772 1.757.663 3.467 1.921 3.803 2.796.873 2.274-1.34 9.598-3.43 11.333-1.769 1.468-2.502 5.965-.969 5.965.447 0 5.949-2.631 12.228-5.853 10.86-5.572 24.397-10.849 27.849-10.849.88 0 2.518.671 3.616 1.491 1.847 1.379 1.829 1.895.075 6.86-5.093 14.412-7.724 25.386-6.412 26.693 1.498 1.493 4.448-1.614 8.314-8.798 2.356-4.377 8.05-10.118 19.349-19.535 5.401-4.501 8.33-8.499 14.689-19.908 4.372-7.844 8.382-14.241 8.91-14.241.528 0 1.643 1.745 2.498 3.877.854 2.132 4.206 8.641 7.456 14.465 11.01 19.729 36.39 42.522 51.3 46.12 4.477 1.079 13.879.186 16.03-1.529 1.864-1.486 1.907-4.671.112-8.612-1.476-3.24-6.977-5.394-13.757-5.406-5.22-.01-15.848-6.532-26.32-16.14-10.124-9.291-17.12-18.09-23.86-30.01l-4.846-8.575 7.344 4.03c12.08 6.59 39.04 14.988 51.48 16.03 7.866.659 12.471 1.742 17.224 4.064 6.481 3.167 10.811 4.02 10.811 2.162 0-.542-3.355-3.731-7.456-7.121-4.101-3.389-10.878-9.277-15.06-13.09l-7.605-6.934 4.175-4.436c2.733-2.898 5.233-4.399 7.27-4.399 1.708 0 7.542-1.674 12.974-3.728 8.07-3.053 11.567-3.741 19.12-3.691 5.695.038 9.246-.422 9.246-1.193 0-.688-1.879-3.311-4.175-5.853-2.296-2.542-4.175-5.182-4.175-5.853 0-.671 3.221-4.678 7.158-8.91 3.937-4.232 7.158-8.223 7.158-8.873 0-2.789 8.02-9.884 19.684-17.41 8.501-5.483 12.526-8.792 12.526-10.289 0-2.685-.292-2.688-9.618-.298-9.869 2.528-26.03 1.969-29-1.01-2.674-2.676-3.785-2.627-6.711.298-1.985 1.985-3.972 2.386-11.855 2.386-5.21 0-9.807-.532-10.215-1.193-.888-1.436 2.089-5.736 12.04-17.447 4.084-4.806 10.24-13.97 13.682-20.355 3.776-7 8.549-13.859 12.04-17.261 3.184-3.101 5.778-6.198 5.778-6.897 0-1.607.08-1.611-5.965.522-2.79.984-8.962 1.789-13.757 1.789-7.701 0-8.83-.292-9.507-2.423-1.968-6.201 3.49-17.561 10.252-21.362 3.157-1.774 4.364-3.13 3.877-4.399-.484-1.261-1.517-1.566-3.243-1.01-6.125 1.986-9.813 1.944-11.52-.112-1.802-2.171-2.07-10.151-.559-16.814.69-3.041.403-4-1.454-4.996-1.659-.888-2.733-3.558-3.803-9.544-1.286-7.193-1.216-8.822.41-11.967 2.232-4.317 2.409-7.307.447-7.307-.78 0-6.282 3.667-12.228 8.164-5.946 4.498-12.337 9.181-14.241 10.401-3.425 2.195-3.484 2.203-5.219-.41-2.614-3.937-4.194-3.263-6.748 2.945-2.462 5.986-9.547 14.689-11.967 14.689-2.32 0-5.348-3.998-6.189-8.202-.535-2.673-1.348-3.75-2.684-3.504-2.047.377-4.328 6.903-7.829 22.443-1.109 4.921-3.826 12.705-6.04 17.298-2.214 4.593-4.321 9.693-4.697 11.333-.376 1.64-2.034 4.593-3.691 6.561-2.969 3.528-3.057 3.545-4.921 1.193-2.706-3.415-11.516-22.12-16.03-34-3.193-8.406-3.854-11.824-3.877-19.982-.019-6.818-.467-9.842-1.454-9.842-.784 0-3.747 3.467-6.561 7.717l-5.107 7.717-2.349-3.84c-1.295-2.117-2.979-8.106-3.728-13.309-.757-5.261-1.99-9.685-2.796-9.954-.797-.266-3.092.914-5.107 2.61-2.02 1.696-4.534 3.094-5.592 3.094-2.747 0-11.04-9.544-11.04-12.713 0-3.589-2.01-4.577-5.48-2.721-3.605 1.93-6.186.658-15.248-7.419-3.566-3.179-7.345-5.778-8.388-5.778" opacity=".2"/><path d="m-547.19 37.02c-2.183 0-2.519 1.846-.559 3.057 2.432 1.503-1.481 25.84-5.704 35.454-1.955 4.449-2.067 4.491-7.158 3.728-7.04-1.055-6.802.781 1.417 11.669 5.961 7.896 6.542 9.222 6.263 14.09l-.336 5.368-9.246-.298c-7.273-.223-9.246.1-9.246 1.417 0 .921 3.892 5.887 8.649 11.07 11.22 12.232 15.349 19.821 16.14 29.713.482 6.01.26 7.598-1.044 7.568-2.273-.052-5.149-2.417-6.86-5.629-.786-1.476-2.153-2.684-3.02-2.684-.866 0-5.098-3.221-9.395-7.158-4.296-3.937-8.313-7.158-8.947-7.158-.634 0-1.858 2.416-2.684 5.368-1.129 4.03-2.079 5.368-3.84 5.368-2.77 0-9.283-3.638-9.283-5.182 0-.591-1.01-.779-2.274-.447-1.452.38-3.309-.479-4.996-2.274-2.569-2.735-5.836-3.809-5.853-1.939-.005.492-1.852 2.159-4.101 3.691l-4.064 2.759-11.11-2.945c-6.112-1.634-12.842-3.696-14.95-4.548-2.107-.852-4.238-1.168-4.697-.708-1.052 1.052 1.901 10.592 3.765 12.191.765.656 2.85 3.539 4.66 6.412 2.767 4.394 3.178 6.04 2.535 10.327-.71 4.735-.517 5.262 2.982 7.754 4.736 3.372 7.359 9.146 5.629 12.377-.68 1.27-2.775 3.596-4.66 5.182-4.385 3.69-4.447 6.266-.149 6.3 5.066.04 12.471 3.9 16.739 8.761 2.127 2.422 3.84 4.88 3.84 5.48 0 2.02-7.487 8.122-13.309 10.849-7.887 3.694-7.522 5.652 1.081 5.667 4.818.008 10.588 1.314 19.386 4.399 6.889 2.416 14.942 4.826 17.895 5.368 7.567 1.389 9.155 2.172 11.445 5.667 1.908 2.912 1.887 3.171-.149 4.66-1.185.867-4.066 1.927-6.412 2.349-2.347.422-9.656 3.31-16.217 6.45-6.561 3.139-16.646 7.516-22.406 9.693-13.587 5.135-13.63 7.224-.186 7.419 8.532.123 10.605.65 18.566 4.586 9.913 4.901 17.953 10.758 19.16 13.98.433 1.154-.257 4.392-1.529 7.232-3.397 7.588-1.259 8.527 5.853 2.572 9.02-7.552 12.525-8.316 21.921-4.772 1.757.663 3.467 1.921 3.803 2.796.873 2.274-1.34 9.598-3.43 11.333-1.769 1.468-2.502 5.965-.969 5.965.447 0 5.949-2.631 12.228-5.853 10.86-5.572 24.397-10.849 27.849-10.849.88 0 2.518.671 3.616 1.491 1.847 1.379 1.829 1.895.075 6.86-5.093 14.412-7.724 25.386-6.412 26.693 1.498 1.493 4.448-1.614 8.314-8.798 2.356-4.377 8.05-10.118 19.349-19.535 5.401-4.501 8.33-8.499 14.689-19.908 4.372-7.844 8.382-14.241 8.91-14.241.528 0 1.643 1.745 2.498 3.877.854 2.132 4.206 8.641 7.456 14.465 11.01 19.729 36.39 42.522 51.3 46.12 4.477 1.079 13.879.186 16.03-1.529 1.864-1.486 1.907-4.671.112-8.612-1.476-3.24-6.977-5.394-13.757-5.406-5.22-.01-15.848-6.532-26.32-16.14-10.124-9.291-17.12-18.09-23.86-30.01l-4.846-8.575 7.344 4.03c12.08 6.59 39.04 14.988 51.48 16.03 7.866.659 12.471 1.742 17.224 4.064 6.481 3.167 10.811 4.02 10.811 2.162 0-.542-3.355-3.731-7.456-7.121-4.101-3.389-10.878-9.277-15.06-13.09l-7.605-6.934 4.175-4.436c2.733-2.898 5.233-4.399 7.27-4.399 1.708 0 7.542-1.674 12.974-3.728 8.07-3.053 11.567-3.741 19.12-3.691 5.695.038 9.246-.422 9.246-1.193 0-.688-1.879-3.311-4.175-5.853-2.296-2.542-4.175-5.182-4.175-5.853 0-.671 3.221-4.678 7.158-8.91 3.937-4.232 7.158-8.223 7.158-8.873 0-2.789 8.02-9.884 19.684-17.41 8.501-5.483 12.526-8.792 12.526-10.289 0-2.685-.292-2.688-9.618-.298-9.869 2.528-26.03 1.969-29-1.01-2.674-2.676-3.785-2.627-6.711.298-1.985 1.985-3.972 2.386-11.855 2.386-5.21 0-9.807-.532-10.215-1.193-.888-1.436 2.089-5.736 12.04-17.447 4.084-4.806 10.24-13.97 13.682-20.355 3.776-7 8.549-13.859 12.04-17.261 3.184-3.101 5.778-6.198 5.778-6.897 0-1.607.08-1.611-5.965.522-2.79.984-8.962 1.789-13.757 1.789-7.701 0-8.83-.292-9.507-2.423-1.968-6.201 3.49-17.561 10.252-21.362 3.157-1.774 4.364-3.13 3.877-4.399-.484-1.261-1.517-1.566-3.243-1.01-6.125 1.986-9.813 1.944-11.52-.112-1.802-2.171-2.07-10.151-.559-16.814.69-3.041.403-4-1.454-4.996-1.659-.888-2.733-3.558-3.803-9.544-1.286-7.193-1.216-8.822.41-11.967 2.232-4.317 2.409-7.307.447-7.307-.78 0-6.282 3.667-12.228 8.164-5.946 4.498-12.337 9.181-14.241 10.401-3.425 2.195-3.484 2.203-5.219-.41-2.614-3.937-4.194-3.263-6.748 2.945-2.462 5.986-9.547 14.689-11.967 14.689-2.32 0-5.348-3.998-6.189-8.202-.535-2.673-1.348-3.75-2.684-3.504-2.047.377-4.328 6.903-7.829 22.443-1.109 4.921-3.826 12.705-6.04 17.298-2.214 4.593-4.321 9.693-4.697 11.333-.376 1.64-2.034 4.593-3.691 6.561-2.969 3.528-3.057 3.545-4.921 1.193-2.706-3.415-11.516-22.12-16.03-34-3.193-8.406-3.854-11.824-3.877-19.982-.019-6.818-.467-9.842-1.454-9.842-.784 0-3.747 3.467-6.561 7.717l-5.107 7.717-2.349-3.84c-1.295-2.117-2.979-8.106-3.728-13.309-.757-5.261-1.99-9.685-2.796-9.954-.797-.266-3.092.914-5.107 2.61-2.02 1.696-4.534 3.094-5.592 3.094-2.747 0-11.04-9.544-11.04-12.713 0-3.589-2.01-4.577-5.48-2.721-3.605 1.93-6.186.658-15.248-7.419-3.566-3.179-7.345-5.778-8.388-5.778" fill="#dcdbdb"/></g><path d="m78.66 6c-14.863 0-28.67 4.43-40.16 12.03v475.94c11.486 7.602 25.293 12.03 40.16 12.03h68.844v-500h-68.844" opacity=".05" fill="url(#1)"/><path d="m147.5 6v500h109v-500h-109" opacity=".05" fill="url(#2)"/><path d="m256.5 6v500h109v-500h-109" opacity=".05" fill="url(#3)"/><path d="m365.5 6v500h67.844c14.854 0 28.643-4.438 40.13-12.03v-475.94c-11.482-7.593-25.27-12.03-40.12-12.03h-67.844" opacity=".05" fill="url(#4)"/><path d="m38.5 18.03c-19.614 12.981-32.5 35.24-32.5 60.63v354.69c0 25.381 12.886 47.644 32.5 60.63v-475.94" opacity=".05" fill="url(#6)"/><path d="m473.47 18.03v475.94c19.627-12.979 32.531-35.23 32.531-60.62v-354.69c0-25.391-12.905-47.646-32.531-60.62" opacity=".05" fill="url(#5)"/></svg>