<svg xmlns="http://www.w3.org/2000/svg" xmlns:xlink="http://www.w3.org/1999/xlink" viewBox="0 0 512 512"><defs><filter id="7"><feGaussianBlur stdDeviation="3.7725"/></filter><linearGradient id="8" y1="19.564" x2="0" y2="504.02" gradientUnits="userSpaceOnUse"><stop stop-color="#f3f3f3"/><stop offset=".5" stop-color="#eee"/><stop offset="1" stop-color="#ebebeb"/></linearGradient><linearGradient xlink:href="#0" id="5" gradientUnits="userSpaceOnUse" gradientTransform="matrix(1.02835 0 0 1.46193 209.19-118.25)" x1="257" x2="362"/><linearGradient xlink:href="#0" id="6" gradientUnits="userSpaceOnUse" gradientTransform="matrix(1.0381 0 0 1.46193-337.29-118.25)" x1="257" x2="362"/><linearGradient xlink:href="#0" id="4" gradientUnits="userSpaceOnUse" gradientTransform="matrix(1.02835 0 0 1.46193 101.22-118.25)" x1="257" x2="362"/><linearGradient xlink:href="#0" id="3" gradientUnits="userSpaceOnUse" gradientTransform="matrix(1.0381 0 0 1.46193-10.289-118.25)" x1="257" x2="362"/><linearGradient id="0"><stop/><stop offset="1" stop-color="#fff"/></linearGradient><linearGradient xlink:href="#0" id="2" gradientUnits="userSpaceOnUse" gradientTransform="matrix(1.0381 0 0 1.46193-119.29-118.25)" x1="257" x2="362"/><linearGradient xlink:href="#0" id="1" gradientUnits="userSpaceOnUse" gradientTransform="matrix(1.0381 0 0 1.46193-228.29-118.25)" x1="257" x2="362"/></defs><path d="m78.66 6c-.929 0-1.861.028-2.781.063-.073.003-.146-.003-.219 0-.668.027-1.337.08-2 .125-.376.025-.751.063-1.125.094-.645.053-1.297.086-1.938.156-.965.106-1.922.232-2.875.375-.052.008-.104.023-.156.031-1.082.165-2.154.351-3.219.563-.459.091-.919.182-1.375.281-.39.085-.769.19-1.156.281-.647.152-1.297.299-1.938.469-.898.238-1.804.479-2.688.75-.211.065-.414.152-.625.219-.991.314-1.966.645-2.938 1-.817.298-1.635.611-2.438.938-.29.118-.587.222-.875.344-.136.057-.27.129-.406.188-.082.035-.169.058-.25.094-.717.311-1.42.636-2.125.969-.147.069-.291.148-.438.219-.947.455-1.889.943-2.813 1.438-.271.145-.544.289-.813.438-.414.228-.81.483-1.219.719-.52.3-1.051.594-1.563.906-.738.452-1.467.898-2.188 1.375-.031.021-.062.042-.094.063-.456.303-.895.625-1.344.938-.123.086-.252.163-.375.25-.524.37-1.049.742-1.563 1.125-1.835 1.371-3.618 2.84-5.313 4.375-.017.015-.046.016-.063.031-.526.477-1.02.977-1.531 1.469-.524.505-1.054 1.011-1.563 1.531-.512.523-1 1.055-1.5 1.594-.941 1.022-1.837 2.05-2.719 3.125-.631.769-1.244 1.58-1.844 2.375-.111.148-.233.289-.344.438-.526.71-1.031 1.427-1.531 2.156-.11.16-.235.308-.344.469-.013.019-.018.043-.031.063-.084.125-.167.249-.25.375-.47.708-.929 1.431-1.375 2.156-.071.116-.148.227-.219.344-.575.948-1.124 1.899-1.656 2.875-.152.278-.289.564-.438.844-.18.341-.356.687-.531 1.031-.243.479-.486.952-.719 1.438-.426.885-.828 1.783-1.219 2.688-.24.556-.461 1.124-.688 1.688-.038.095-.087.186-.125.281-.246.621-.489 1.245-.719 1.875-.332.909-.641 1.825-.938 2.75-.11.345-.238.684-.344 1.031-.301.99-.585 1.992-.844 3-.008.032-.023.062-.031.094-.267 1.046-.497 2.092-.719 3.156-.034.166-.06.334-.094.5-.426 2.117-.762 4.257-1 6.438-.035.323-.063.645-.094.969-.09.938-.165 1.895-.219 2.844-.017.29-.018.584-.031.875-.051 1.119-.094 2.243-.094 3.375v354.69 6c0 40.24 32.411 72.66 72.66 72.66h354.69c40.24 0 72.66-32.411 72.66-72.66v-354.69-6c0-1.259-.031-2.507-.094-3.75-.016-.323-.042-.647-.063-.969-.058-.917-.127-1.843-.219-2.75-.02-.2-.041-.394-.063-.594-.246-2.245-.587-4.447-1.031-6.625-.021-.104-.041-.209-.063-.313-.227-1.087-.476-2.15-.75-3.219-.011-.042-.02-.083-.031-.125-.19-.732-.413-1.464-.625-2.188-.212-.724-.423-1.442-.656-2.156-.258-.789-.529-1.567-.813-2.344-.23-.63-.472-1.254-.719-1.875-.038-.096-.087-.186-.125-.281-.239-.594-.465-1.195-.719-1.781-.378-.871-.777-1.741-1.188-2.594-.233-.485-.475-.958-.719-1.438-.287-.564-.574-1.132-.875-1.688-.051-.094-.105-.188-.156-.281-.513-.936-1.041-1.871-1.594-2.781-.212-.35-.438-.685-.656-1.031-.405-.642-.795-1.278-1.219-1.906-.809-1.199-1.685-2.354-2.563-3.5-.262-.341-.514-.695-.781-1.031-.189-.238-.371-.483-.563-.719-.093-.114-.188-.231-.281-.344-2.71-3.286-5.696-6.301-8.938-9.06-.293-.249-.578-.505-.875-.75-.268-.221-.541-.439-.813-.656-.636-.509-1.284-1.012-1.938-1.5-3.17-2.368-6.55-4.481-10.09-6.313-.617-.319-1.248-.636-1.875-.938-.155-.074-.313-.145-.469-.219-.785-.371-1.575-.719-2.375-1.063-.488-.209-.975-.426-1.469-.625-.735-.296-1.472-.571-2.219-.844-.392-.143-.793-.27-1.188-.406-.718-.248-1.459-.524-2.188-.75-.114-.035-.23-.059-.344-.094-.488-.149-.977-.267-1.469-.406-.357-.1-.703-.217-1.063-.313-.019-.005-.043.005-.063 0-.837-.221-1.683-.433-2.531-.625-.032-.007-.062-.024-.094-.031-.651-.146-1.311-.278-1.969-.406-1-.197-2.01-.376-3.03-.531-.063-.01-.125-.022-.188-.031-.952-.143-1.88-.269-2.844-.375-.836-.091-1.687-.156-2.531-.219-.176-.013-.355-.019-.531-.031-.735-.049-1.478-.097-2.219-.125-.92-.034-1.853-.063-2.781-.063h-285.84-68.844" filter="url(#7)" fill-opacity=".176"/><rect width="500" height="500" x="6" y="12" rx="72.64" opacity=".15"/><rect rx="72.64" y="6" x="6" height="500" width="500" fill="url(#8)"/><rect width="435" height="435" x="38.5" y="38.5" rx="63.2" fill="#c50e0e"/><path d="m101.69 38.5c-35.01 0-63.19 28.17-63.19 63.19v15c0-35.01 28.17-63.19 63.19-63.19h308.63c35.01 0 63.19 28.17 63.19 63.19v-15c0-35.01-28.17-63.19-63.19-63.19h-308.62" opacity=".2"/><path d="m78.66 6c-40.24 0-72.66 32.411-72.66 72.66v7c0-40.24 32.411-72.66 72.66-72.66h354.69c40.24 0 72.66 32.411 72.66 72.66v-7c0-40.24-32.411-72.66-72.66-72.66h-354.69" fill="#fff"/><g transform="translate(-7.5-7.5)"><path d="m80.3 202.52v68.3 68.3l4.273-.135c2.35-.072 8-.189 12.562-.264l8.289-.142.019-24.22.013-24.22 5.103 22.859c2.804 12.573 5.255 23.578 5.451 24.455l.354 1.596h6.333 6.333l5.856-24.417 5.856-24.417.052 24.417.052 24.417h23.16 23.15l.212-.669c.248-.786 3.501-11.416 3.655-11.945.098-.336.722-.36 9.357-.36 5.089 0 9.254.064 9.254.142 0 .22 2.274 12.07 2.394 12.472.101.341 1.444.36 24.494.36h24.391l.051-22.357.051-22.357 8.341 22.351 8.341 22.357h12.1c6.655.002 12.1-.032 12.1-.077 0-.045-3.928-11.754-8.733-26.03l-8.74-25.949 2.104-2.137c5.03-5.102 8.778-12.12 11.462-21.456.839-2.919 2.235-9.376 2.278-10.535.012-.34 3.287 18.89 7.272 42.733l7.247 43.35 13.817.051c10.949.042 13.837-.001 13.907-.206.049-.142 5.176-29.27 11.398-64.723l11.314-64.47.051 64.73.051 64.723h22.448 22.454l-.058-13.85-.051-13.85-10.04-.051-10.04-.051v-12.871-12.871h9.576 9.576v-14.416-14.416h-9.782-9.782v-13.901-13.901h10.297 10.297v-12.871-12.871h-34.675-34.682l-.309 1.699c-.17.934-2.843 16.498-5.94 34.585-3.097 18.09-5.675 32.836-5.734 32.777-.059-.059-2.656-15.738-5.773-34.843l-5.67-34.733-12.299-.052-12.305-.052v.476c0 .262.602 4.982 1.339 10.49.736 5.508 1.335 10.135 1.332 10.284-.003.15-.313-.425-.689-1.274-4.245-9.607-10.467-16.04-18.213-18.818l-1.506-.541h-20.478-20.478l-.052 60.4-.052 60.41-9.357-60.35c-5.146-33.19-9.392-60.51-9.441-60.708-.085-.339-.986-.36-15.31-.36h-15.227l-.167.463c-.093.255-4.468 27.499-9.724 60.54l-9.557 60.08-.103-60.49-.103-60.49-14.918-.052c-8.206-.029-15 .025-15.1.122-.098.098-2.948 12.807-6.333 28.24-3.384 15.432-6.183 28.09-6.223 28.13-.04.04-2.529-12.641-5.528-28.18l-5.451-28.26-15.594-.052-15.6-.052m338.77 0v68.48 68.48h21.315 21.315v-13.798-13.798h-9.782-9.782v-54.677-54.677h-11.533-11.533m-158.78 24.719l.978.116c5.969.702 10.498 5.335 12.723 13.01 2.062 7.11 1.288 14.893-2.047 20.523-2.072 3.498-5.932 6.114-9.75 6.609-.539.07-1.187.166-1.442.219l-.463.097v-20.285-20.285m-60.1 31.863c.139.353 6.757 39.502 6.757 39.972 0 .172-1.724.238-6.403.238h-6.41l.109-.463c.058-.255 1.386-9.382 2.954-20.285 1.568-10.903 2.914-19.661 2.993-19.461" opacity=".2"/><path d="m65.3 187.52v68.3 68.3l4.273-.135c2.35-.072 8-.189 12.562-.264l8.289-.142.019-24.22.013-24.22 5.103 22.859c2.804 12.573 5.255 23.578 5.451 24.455l.354 1.596h6.333 6.333l5.856-24.417 5.856-24.417.052 24.417.052 24.417h23.16 23.15l.212-.669c.248-.786 3.501-11.416 3.655-11.945.098-.336.722-.36 9.357-.36 5.089 0 9.254.064 9.254.142 0 .22 2.274 12.07 2.394 12.472.101.341 1.444.36 24.494.36h24.391l.052-22.357.052-22.357 8.341 22.351 8.341 22.357h12.1c6.655.002 12.1-.032 12.1-.077 0-.045-3.928-11.754-8.733-26.03l-8.74-25.949 2.104-2.137c5.03-5.102 8.778-12.12 11.462-21.456.839-2.919 2.235-9.376 2.278-10.535.012-.34 3.287 18.89 7.272 42.733l7.247 43.35 13.817.051c10.949.042 13.837-.001 13.907-.206.049-.142 5.176-29.27 11.398-64.723l11.314-64.47.051 64.73.051 64.723h22.448 22.454l-.058-13.85-.051-13.85-10.04-.051-10.04-.051v-12.871-12.871h9.576 9.576v-14.416-14.416h-9.782-9.782v-13.901-13.901h10.297 10.297v-12.871-12.871h-34.675-34.682l-.309 1.699c-.17.934-2.843 16.498-5.94 34.585-3.097 18.09-5.675 32.836-5.734 32.777-.059-.059-2.656-15.738-5.773-34.843l-5.67-34.733-12.299-.052-12.305-.052v.476c0 .262.602 4.982 1.339 10.49.736 5.508 1.335 10.135 1.332 10.284-.003.15-.313-.425-.689-1.274-4.245-9.607-10.467-16.04-18.213-18.818l-1.506-.541h-20.478-20.478l-.052 60.4-.052 60.41-9.357-60.35c-5.146-33.19-9.392-60.51-9.441-60.708-.085-.339-.986-.36-15.31-.36h-15.227l-.167.463c-.093.255-4.468 27.499-9.724 60.54l-9.557 60.08-.103-60.49-.103-60.49-14.918-.052c-8.206-.029-15 .025-15.1.122-.098.098-2.948 12.807-6.333 28.24-3.384 15.432-6.183 28.09-6.223 28.13-.04.04-2.529-12.641-5.528-28.18l-5.451-28.26-15.594-.052-15.6-.052m338.77 0v68.48 68.48h21.315 21.315v-13.798-13.798h-9.782-9.782v-54.677-54.677h-11.533-11.533m-158.78 24.719l.978.116c5.969.702 10.498 5.335 12.723 13.01 2.062 7.11 1.288 14.893-2.047 20.523-2.072 3.498-5.932 6.114-9.75 6.609-.539.07-1.187.166-1.442.219l-.463.097v-20.285-20.285m-60.1 31.863c.139.353 6.757 39.502 6.757 39.972 0 .172-1.724.238-6.403.238h-6.41l.109-.463c.058-.255 1.386-9.382 2.954-20.285 1.568-10.903 2.914-19.661 2.993-19.461" fill="#dcdbdb"/></g><path d="m78.66 6c-14.863 0-28.67 4.43-40.16 12.03v475.94c11.486 7.602 25.293 12.03 40.16 12.03h68.844v-500h-68.844" opacity=".05" fill="url(#1)"/><path d="m147.5 6v500h109v-500h-109" opacity=".05" fill="url(#2)"/><path d="m256.5 6v500h109v-500h-109" opacity=".05" fill="url(#3)"/><path d="m365.5 6v500h67.844c14.854 0 28.643-4.438 40.13-12.03v-475.94c-11.482-7.593-25.27-12.03-40.12-12.03h-67.844" opacity=".05" fill="url(#4)"/><path d="m38.5 18.03c-19.614 12.981-32.5 35.24-32.5 60.63v354.69c0 25.381 12.886 47.644 32.5 60.63v-475.94" opacity=".05" fill="url(#6)"/><path d="m473.47 18.03v475.94c19.627-12.979 32.531-35.23 32.531-60.62v-354.69c0-25.391-12.905-47.646-32.531-60.62" opacity=".05" fill="url(#5)"/></svg>