<svg xmlns="http://www.w3.org/2000/svg" xmlns:xlink="http://www.w3.org/1999/xlink" viewBox="0 0 512 512"><defs><clipPath><path d="m34.405 29.694c-1.445.023-2.919.388-4.351 1.096-4.269 2.11-6.02 6.646-4.695 12.05.633 2.584.852 6.077.47 7.481-.542 1.991-2.206 3.034-4.883 3.036-2.645.003-5.246 2.034-5.76 4.508-.525 2.53.075 4.823 1.722 6.48 1.936 1.948 4.622 2.497 6.949 1.409 3.369-1.576 4.473-4.869 3.036-8.984-.693-1.984-.724-2.25-.376-3.506 1.476-5.316 13.602-5.705 15.589-.501.47 1.23.392 2.072-.47 4.226-.528 1.319-.592 1.778-.501 3.193.166 2.585 1.405 4.396 3.85 5.509 1.488.678 4.582.675 6.04 0 3.588-1.658 4.935-5.253 3.349-8.89-1.362-3.124-.674-5.2 2.191-6.636 3.604-1.807 8.81-1.395 11.426.908 1.872 1.647 2.151 3.074 1.158 5.916-1.318 3.773-.262 7.04 2.786 8.671 1.316.706 4.226.706 5.541 0 1.191-.639 2.535-2.045 2.974-3.099 1.281-3.075.234-6.945-2.285-8.421-.87-.51-1.527-.665-3.287-.814-1.431-.121-2.433-.347-2.911-.626-.955-.558-1.718-1.94-1.909-3.475-.174-1.397.215-4.878.751-6.73.555-1.915.333-5.506-.438-7.2-2.364-5.19-9.04-7.222-13.773-4.163-.742.48-1.695 1.332-2.129 1.878-1.522 1.915-3.973 4.369-4.727 4.727-1.897.9-3.845.163-5.979-2.254-3.225-3.653-3.697-4.114-5.134-4.821-1.349-.664-2.781-.993-4.226-.97m13.648 10.643c4.369-.007 7.338 3.987 6.104 8.233-.538 1.852-2.304 3.645-4.069 4.163-1.51.443-2.756.465-4.163.031-2.447-.754-4.274-3.361-4.257-6.104.011-1.836.422-2.881 1.69-4.257 1.325-1.437 2.759-2.063 4.695-2.066"/></clipPath><filter id="7"><feGaussianBlur stdDeviation="3.7725"/></filter><linearGradient id="0"><stop/><stop offset="1" stop-color="#fff"/></linearGradient><linearGradient xlink:href="#0" id="6" gradientUnits="userSpaceOnUse" gradientTransform="matrix(1.0381 0 0 1.46193-337.29-118.25)" x1="257" x2="362"/><linearGradient id="8" y1="19.564" x2="0" y2="504.02" gradientUnits="userSpaceOnUse"><stop stop-color="#f3f3f3"/><stop offset=".5" stop-color="#eee"/><stop offset="1" stop-color="#ebebeb"/></linearGradient><linearGradient xlink:href="#0" id="5" gradientUnits="userSpaceOnUse" gradientTransform="matrix(1.02835 0 0 1.46193 209.19-118.25)" x1="257" x2="362"/><linearGradient xlink:href="#0" id="4" gradientUnits="userSpaceOnUse" gradientTransform="matrix(1.02835 0 0 1.46193 101.22-118.25)" x1="257" x2="362"/><linearGradient xlink:href="#0" id="1" gradientUnits="userSpaceOnUse" gradientTransform="matrix(1.0381 0 0 1.46193-228.29-118.25)" x1="257" x2="362"/><linearGradient xlink:href="#0" id="3" gradientUnits="userSpaceOnUse" gradientTransform="matrix(1.0381 0 0 1.46193-10.289-118.25)" x1="257" x2="362"/><linearGradient xlink:href="#0" id="2" gradientUnits="userSpaceOnUse" gradientTransform="matrix(1.0381 0 0 1.46193-119.29-118.25)" x1="257" x2="362"/></defs><path d="m78.66 6c-.929 0-1.861.028-2.781.063-.073.003-.146-.003-.219 0-.668.027-1.337.08-2 .125-.376.025-.751.063-1.125.094-.645.053-1.297.086-1.938.156-.965.106-1.922.232-2.875.375-.052.008-.104.023-.156.031-1.082.165-2.154.351-3.219.563-.459.091-.919.182-1.375.281-.39.085-.769.19-1.156.281-.647.152-1.297.299-1.938.469-.898.238-1.804.479-2.688.75-.211.065-.414.152-.625.219-.991.314-1.966.645-2.938 1-.817.298-1.635.611-2.438.938-.29.118-.587.222-.875.344-.136.057-.27.129-.406.188-.082.035-.169.058-.25.094-.717.311-1.42.636-2.125.969-.147.069-.291.148-.438.219-.947.455-1.889.943-2.813 1.438-.271.145-.544.289-.813.438-.414.228-.81.483-1.219.719-.52.3-1.051.594-1.563.906-.738.452-1.467.898-2.188 1.375-.031.021-.062.042-.094.063-.456.303-.895.625-1.344.938-.123.086-.252.163-.375.25-.524.37-1.049.742-1.563 1.125-1.835 1.371-3.618 2.84-5.313 4.375-.017.015-.046.016-.063.031-.526.477-1.02.977-1.531 1.469-.524.505-1.054 1.011-1.563 1.531-.512.523-1 1.055-1.5 1.594-.941 1.022-1.837 2.05-2.719 3.125-.631.769-1.244 1.58-1.844 2.375-.111.148-.233.289-.344.438-.526.71-1.031 1.427-1.531 2.156-.11.16-.235.308-.344.469-.013.019-.018.043-.031.063-.084.125-.167.249-.25.375-.47.708-.929 1.431-1.375 2.156-.071.116-.148.227-.219.344-.575.948-1.124 1.899-1.656 2.875-.152.278-.289.564-.438.844-.18.341-.356.687-.531 1.031-.243.479-.486.952-.719 1.438-.426.885-.828 1.783-1.219 2.688-.24.556-.461 1.124-.688 1.688-.038.095-.087.186-.125.281-.246.621-.489 1.245-.719 1.875-.332.909-.641 1.825-.938 2.75-.11.345-.238.684-.344 1.031-.301.99-.585 1.992-.844 3-.008.032-.023.062-.031.094-.267 1.046-.497 2.092-.719 3.156-.034.166-.06.334-.094.5-.426 2.117-.762 4.257-1 6.438-.035.323-.063.645-.094.969-.09.938-.165 1.895-.219 2.844-.017.29-.018.584-.031.875-.051 1.119-.094 2.243-.094 3.375v354.69 6c0 40.24 32.411 72.66 72.66 72.66h354.69c40.24 0 72.66-32.411 72.66-72.66v-354.69-6c0-1.259-.031-2.507-.094-3.75-.016-.323-.042-.647-.063-.969-.058-.917-.127-1.843-.219-2.75-.02-.2-.041-.394-.063-.594-.246-2.245-.587-4.447-1.031-6.625-.021-.104-.041-.209-.063-.313-.227-1.087-.476-2.15-.75-3.219-.011-.042-.02-.083-.031-.125-.19-.732-.413-1.464-.625-2.188-.212-.724-.423-1.442-.656-2.156-.258-.789-.529-1.567-.813-2.344-.23-.63-.472-1.254-.719-1.875-.038-.096-.087-.186-.125-.281-.239-.594-.465-1.195-.719-1.781-.378-.871-.777-1.741-1.188-2.594-.233-.485-.475-.958-.719-1.438-.287-.564-.574-1.132-.875-1.688-.051-.094-.105-.188-.156-.281-.513-.936-1.041-1.871-1.594-2.781-.212-.35-.438-.685-.656-1.031-.405-.642-.795-1.278-1.219-1.906-.809-1.199-1.685-2.354-2.563-3.5-.262-.341-.514-.695-.781-1.031-.189-.238-.371-.483-.563-.719-.093-.114-.188-.231-.281-.344-2.71-3.286-5.696-6.301-8.938-9.06-.293-.249-.578-.505-.875-.75-.268-.221-.541-.439-.813-.656-.636-.509-1.284-1.012-1.938-1.5-3.17-2.368-6.55-4.481-10.09-6.313-.617-.319-1.248-.636-1.875-.938-.155-.074-.313-.145-.469-.219-.785-.371-1.575-.719-2.375-1.063-.488-.209-.975-.426-1.469-.625-.735-.296-1.472-.571-2.219-.844-.392-.143-.793-.27-1.188-.406-.718-.248-1.459-.524-2.188-.75-.114-.035-.23-.059-.344-.094-.488-.149-.977-.267-1.469-.406-.357-.1-.703-.217-1.063-.313-.019-.005-.043.005-.063 0-.837-.221-1.683-.433-2.531-.625-.032-.007-.062-.024-.094-.031-.651-.146-1.311-.278-1.969-.406-1-.197-2.01-.376-3.03-.531-.063-.01-.125-.022-.188-.031-.952-.143-1.88-.269-2.844-.375-.836-.091-1.687-.156-2.531-.219-.176-.013-.355-.019-.531-.031-.735-.049-1.478-.097-2.219-.125-.92-.034-1.853-.063-2.781-.063h-285.84-68.844" filter="url(#7)" fill-opacity=".176"/><rect width="500" height="500" x="6" y="12" rx="72.64" opacity=".15"/><rect rx="72.64" y="6" x="6" height="500" width="500" fill="url(#8)"/><rect width="435" height="435" x="38.5" y="38.5" rx="63.2" fill="#be212e"/><path d="m101.69 38.5c-35.01 0-63.19 28.17-63.19 63.19v15c0-35.01 28.17-63.19 63.19-63.19h308.63c35.01 0 63.19 28.17 63.19 63.19v-15c0-35.01-28.17-63.19-63.19-63.19h-308.62" opacity=".2"/><path d="m78.66 6c-40.24 0-72.66 32.411-72.66 72.66v7c0-40.24 32.411-72.66 72.66-72.66h354.69c40.24 0 72.66 32.411 72.66 72.66v-7c0-40.24-32.411-72.66-72.66-72.66h-354.69" fill="#fff"/><g transform="matrix(1.0965 0 0 1.0965 747.68 43.54)" color="#000"><path d="m-509.91 108.34c-7.336.114-14.817 1.969-22.09 5.561-21.669 10.709-30.555 33.734-23.833 61.17 3.214 13.12 4.325 30.843 2.383 37.974-2.752 10.11-11.195 15.398-24.786 15.412-13.427.014-26.629 10.324-29.24 22.88-2.666 12.844.382 24.481 8.739 32.89 9.827 9.887 23.461 12.675 35.27 7.15 17.1-7.999 22.706-24.711 15.412-45.601-3.516-10.07-3.677-11.422-1.907-17.795 7.492-26.981 69.04-28.956 79.13-2.542 2.385 6.244 1.991 10.516-2.383 21.45-2.678 6.693-3 9.02-2.542 16.207.842 13.12 7.131 22.313 19.543 27.964 7.553 3.439 23.256 3.424 30.665 0 18.211-8.415 25.05-26.663 17-45.12-6.912-15.857-3.419-26.392 11.122-33.684 18.292-9.173 44.717-7.079 57.994 4.608 9.5 8.362 10.92 15.601 5.879 30.03-6.691 19.15-1.33 35.716 14.14 44.01 6.679 3.582 21.45 3.583 28.12 0 6.04-3.245 12.865-10.379 15.09-15.73 6.502-15.608 1.185-35.25-11.599-42.741-4.416-2.588-7.748-3.377-16.683-4.131-7.265-.613-12.35-1.761-14.777-3.178-4.85-2.832-8.719-9.849-9.692-17.637-.886-7.088 1.09-24.759 3.813-34.16 2.815-9.719 1.691-27.947-2.224-36.544-11.997-26.344-45.887-36.659-69.911-21.13-3.768 2.435-8.601 6.761-10.804 9.533-7.724 9.72-20.16 22.18-23.992 23.992-9.631 4.57-19.517.825-30.348-11.44-16.371-18.54-18.767-20.88-26.06-24.469-6.849-3.372-14.11-5.04-21.45-4.926m69.28 54.02c22.17-.037 37.25 20.236 30.983 41.787-2.732 9.399-11.697 18.503-20.655 21.13-7.665 2.25-13.989 2.361-21.13.159-12.419-3.828-21.695-17.06-21.609-30.983.057-9.318 2.14-14.622 8.58-21.609 6.726-7.296 14.01-10.47 23.833-10.487" opacity=".2"/><path d="m-524.91 93.34c-7.336.114-14.817 1.969-22.09 5.561-21.669 10.709-30.555 33.734-23.833 61.17 3.214 13.12 4.325 30.843 2.383 37.974-2.752 10.11-11.195 15.398-24.786 15.412-13.427.014-26.629 10.324-29.24 22.88-2.666 12.844.382 24.481 8.739 32.89 9.827 9.887 23.461 12.675 35.27 7.15 17.1-7.999 22.706-24.711 15.412-45.601-3.516-10.07-3.677-11.422-1.907-17.795 7.492-26.981 69.04-28.956 79.13-2.542 2.385 6.244 1.991 10.516-2.383 21.45-2.678 6.693-3 9.02-2.542 16.207.842 13.12 7.131 22.313 19.543 27.964 7.553 3.439 23.256 3.424 30.665 0 18.211-8.415 25.05-26.663 17-45.12-6.912-15.857-3.419-26.392 11.122-33.684 18.292-9.173 44.717-7.079 57.994 4.608 9.5 8.362 10.92 15.601 5.879 30.03-6.691 19.15-1.33 35.716 14.14 44.01 6.679 3.582 21.45 3.583 28.12 0 6.04-3.245 12.865-10.379 15.09-15.73 6.502-15.608 1.185-35.25-11.599-42.741-4.416-2.588-7.748-3.377-16.683-4.131-7.265-.613-12.35-1.761-14.777-3.178-4.85-2.832-8.719-9.849-9.692-17.637-.886-7.088 1.09-24.759 3.813-34.16 2.815-9.719 1.691-27.947-2.224-36.544-11.997-26.344-45.887-36.659-69.911-21.13-3.768 2.435-8.601 6.761-10.804 9.533-7.724 9.72-20.16 22.18-23.992 23.992-9.631 4.57-19.517.825-30.348-11.44-16.371-18.54-18.767-20.88-26.06-24.469-6.849-3.372-14.11-5.04-21.45-4.926m69.28 54.02c22.17-.037 37.25 20.236 30.983 41.787-2.732 9.399-11.697 18.503-20.655 21.13-7.665 2.25-13.989 2.361-21.13.159-12.419-3.828-21.695-17.06-21.609-30.983.057-9.318 2.14-14.622 8.58-21.609 6.726-7.296 14.01-10.47 23.833-10.487" fill="#dcdbdb"/></g><path d="m78.66 6c-14.863 0-28.67 4.43-40.16 12.03v475.94c11.486 7.602 25.293 12.03 40.16 12.03h68.844v-500h-68.844" opacity=".05" fill="url(#1)"/><path d="m147.5 6v500h109v-500h-109" opacity=".05" fill="url(#2)"/><path d="m256.5 6v500h109v-500h-109" opacity=".05" fill="url(#3)"/><path d="m365.5 6v500h67.844c14.854 0 28.643-4.438 40.13-12.03v-475.94c-11.482-7.593-25.27-12.03-40.12-12.03h-67.844" opacity=".05" fill="url(#4)"/><path d="m38.5 18.03c-19.614 12.981-32.5 35.24-32.5 60.63v354.69c0 25.381 12.886 47.644 32.5 60.63v-475.94" opacity=".05" fill="url(#6)"/><path d="m473.47 18.03v475.94c19.627-12.979 32.531-35.23 32.531-60.62v-354.69c0-25.391-12.905-47.646-32.531-60.62" opacity=".05" fill="url(#5)"/></svg>