<?xml version="1.0" encoding="UTF-8" standalone="no"?>
<!-- Created with Inkscape (http://www.inkscape.org/) -->

<svg
   xmlns:dc="http://purl.org/dc/elements/1.1/"
   xmlns:cc="http://creativecommons.org/ns#"
   xmlns:rdf="http://www.w3.org/1999/02/22-rdf-syntax-ns#"
   xmlns:svg="http://www.w3.org/2000/svg"
   xmlns="http://www.w3.org/2000/svg"
   xmlns:xlink="http://www.w3.org/1999/xlink"
   xmlns:inkscape="http://www.inkscape.org/namespaces/inkscape"
   version="1.1"
   width="100%"
   height="100%"
   viewBox="0 0 512 512"
   id="svg2">
  <metadata
     id="metadata59">
    <rdf:RDF>
      <cc:Work
         rdf:about="">
        <dc:format>image/svg+xml</dc:format>
        <dc:type
           rdf:resource="http://purl.org/dc/dcmitype/StillImage" />
      </cc:Work>
    </rdf:RDF>
  </metadata>
  <defs
     id="defs4">
    <filter
       color-interpolation-filters="sRGB"
       id="7">
      <feGaussianBlur
         id="feGaussianBlur7"
         stdDeviation="3.7725" />
    </filter>
    <linearGradient
       y1="19.563999"
       x2="0"
       y2="504.01999"
       id="8"
       gradientUnits="userSpaceOnUse">
      <stop
         id="stop10"
         style="stop-color:#f3f3f3;stop-opacity:1"
         offset="0" />
      <stop
         id="stop12"
         style="stop-color:#eeeeee;stop-opacity:1"
         offset="0.5" />
      <stop
         id="stop14"
         style="stop-color:#ebebeb;stop-opacity:1"
         offset="1" />
    </linearGradient>
    <linearGradient
       x1="257"
       x2="362"
       id="5"
       xlink:href="#0"
       gradientUnits="userSpaceOnUse"
       gradientTransform="matrix(1.02835,0,0,1.46193,209.19,-118.25)" />
    <linearGradient
       x1="257"
       x2="362"
       id="6"
       xlink:href="#0"
       gradientUnits="userSpaceOnUse"
       gradientTransform="matrix(1.0381,0,0,1.46193,-337.29,-118.25)" />
    <linearGradient
       x1="257"
       x2="362"
       id="4"
       xlink:href="#0"
       gradientUnits="userSpaceOnUse"
       gradientTransform="matrix(1.02835,0,0,1.46193,101.22,-118.25)" />
    <linearGradient
       x1="257"
       x2="362"
       id="3"
       xlink:href="#0"
       gradientUnits="userSpaceOnUse"
       gradientTransform="matrix(1.0381,0,0,1.46193,-10.289,-118.25)" />
    <linearGradient
       id="0">
      <stop
         id="stop21"
         style="stop-color:#000000;stop-opacity:1"
         offset="0" />
      <stop
         id="stop23"
         style="stop-color:#ffffff;stop-opacity:1"
         offset="1" />
    </linearGradient>
    <linearGradient
       x1="257"
       x2="362"
       id="2"
       xlink:href="#0"
       gradientUnits="userSpaceOnUse"
       gradientTransform="matrix(1.0381,0,0,1.46193,-119.29,-118.25)" />
    <linearGradient
       x1="257"
       x2="362"
       id="1"
       xlink:href="#0"
       gradientUnits="userSpaceOnUse"
       gradientTransform="matrix(1.0381,0,0,1.46193,-228.29,-118.25)" />
  </defs>
  <path
     d="m 78.66,6 c -0.929,0 -1.861,0.028 -2.781,0.063 -0.073,0.003 -0.146,-0.003 -0.219,0 -0.668,0.027 -1.337,0.08 -2,0.125 -0.376,0.025 -0.751,0.063 -1.125,0.094 -0.645,0.053 -1.297,0.086 -1.938,0.156 -0.965,0.106 -1.922,0.232 -2.875,0.375 -0.052,0.008 -0.104,0.023 -0.156,0.031 -1.082,0.165 -2.154,0.351 -3.219,0.563 -0.459,0.091 -0.919,0.182 -1.375,0.281 -0.39,0.085 -0.769,0.19 -1.156,0.281 -0.647,0.152 -1.297,0.299 -1.938,0.469 -0.898,0.238 -1.804,0.479 -2.688,0.75 -0.211,0.065 -0.414,0.152 -0.625,0.219 -0.991,0.314 -1.966,0.645 -2.938,1 -0.817,0.298 -1.635,0.611 -2.438,0.938 -0.29,0.118 -0.587,0.222 -0.875,0.344 -0.136,0.057 -0.27,0.129 -0.406,0.188 -0.082,0.035 -0.169,0.058 -0.25,0.094 -0.717,0.311 -1.42,0.636 -2.125,0.969 -0.147,0.069 -0.291,0.148 -0.438,0.219 -0.947,0.455 -1.889,0.943 -2.813,1.438 -0.271,0.145 -0.544,0.289 -0.813,0.438 -0.414,0.228 -0.81,0.483 -1.219,0.719 -0.52,0.3 -1.051,0.594 -1.563,0.906 -0.738,0.452 -1.467,0.898 -2.188,1.375 -0.031,0.021 -0.062,0.042 -0.094,0.063 -0.456,0.303 -0.895,0.625 -1.344,0.938 -0.123,0.086 -0.252,0.163 -0.375,0.25 -0.524,0.37 -1.049,0.742 -1.563,1.125 -1.835,1.371 -3.618,2.84 -5.313,4.375 -0.017,0.015 -0.046,0.016 -0.063,0.031 -0.526,0.477 -1.02,0.977 -1.531,1.469 -0.524,0.505 -1.054,1.011 -1.563,1.531 -0.512,0.523 -1,1.055 -1.5,1.594 -0.941,1.022 -1.837,2.05 -2.719,3.125 -0.631,0.769 -1.244,1.58 -1.844,2.375 -0.111,0.148 -0.233,0.289 -0.344,0.438 -0.526,0.71 -1.031,1.427 -1.531,2.156 -0.11,0.16 -0.235,0.308 -0.344,0.469 -0.013,0.019 -0.018,0.043 -0.031,0.063 -0.084,0.125 -0.167,0.249 -0.25,0.375 -0.47,0.708 -0.929,1.431 -1.375,2.156 -0.071,0.116 -0.148,0.227 -0.219,0.344 -0.575,0.948 -1.124,1.899 -1.656,2.875 -0.152,0.278 -0.289,0.564 -0.438,0.844 -0.18,0.341 -0.356,0.687 -0.531,1.031 -0.243,0.479 -0.486,0.952 -0.719,1.438 -0.426,0.885 -0.828,1.783 -1.219,2.688 -0.24,0.556 -0.461,1.124 -0.688,1.688 -0.038,0.095 -0.087,0.186 -0.125,0.281 -0.246,0.621 -0.489,1.245 -0.719,1.875 -0.332,0.909 -0.641,1.825 -0.938,2.75 -0.11,0.345 -0.238,0.684 -0.344,1.031 -0.301,0.99 -0.585,1.992 -0.844,3 -0.008,0.032 -0.023,0.062 -0.031,0.094 -0.267,1.046 -0.497,2.092 -0.719,3.156 -0.034,0.166 -0.06,0.334 -0.094,0.5 -0.426,2.117 -0.762,4.257 -1,6.438 -0.035,0.323 -0.063,0.645 -0.094,0.969 -0.09,0.938 -0.165,1.895 -0.219,2.844 -0.017,0.29 -0.018,0.584 -0.031,0.875 -0.051,1.119 -0.094,2.243 -0.094,3.375 v 354.69 6 c 0,40.24 32.411,72.66 72.66,72.66 h 354.69 c 40.24,0 72.66,-32.411 72.66,-72.66 v -354.69 -6 c 0,-1.259 -0.031,-2.507 -0.094,-3.75 -0.016,-0.323 -0.042,-0.647 -0.063,-0.969 -0.058,-0.917 -0.127,-1.843 -0.219,-2.75 -0.02,-0.2 -0.041,-0.394 -0.063,-0.594 -0.246,-2.245 -0.587,-4.447 -1.031,-6.625 -0.021,-0.104 -0.041,-0.209 -0.063,-0.313 -0.227,-1.087 -0.476,-2.15 -0.75,-3.219 -0.011,-0.042 -0.02,-0.083 -0.031,-0.125 -0.19,-0.732 -0.413,-1.464 -0.625,-2.188 -0.212,-0.724 -0.423,-1.442 -0.656,-2.156 -0.258,-0.789 -0.529,-1.567 -0.813,-2.344 -0.23,-0.63 -0.472,-1.254 -0.719,-1.875 -0.038,-0.096 -0.087,-0.186 -0.125,-0.281 -0.239,-0.594 -0.465,-1.195 -0.719,-1.781 -0.378,-0.871 -0.777,-1.741 -1.188,-2.594 -0.233,-0.485 -0.475,-0.958 -0.719,-1.438 -0.287,-0.564 -0.574,-1.132 -0.875,-1.688 -0.051,-0.094 -0.105,-0.188 -0.156,-0.281 -0.513,-0.936 -1.041,-1.871 -1.594,-2.781 -0.212,-0.35 -0.438,-0.685 -0.656,-1.031 -0.405,-0.642 -0.795,-1.278 -1.219,-1.906 -0.809,-1.199 -1.685,-2.354 -2.563,-3.5 -0.262,-0.341 -0.514,-0.695 -0.781,-1.031 -0.189,-0.238 -0.371,-0.483 -0.563,-0.719 -0.093,-0.114 -0.188,-0.231 -0.281,-0.344 -2.71,-3.286 -5.696,-6.301 -8.938,-9.06 -0.293,-0.249 -0.578,-0.505 -0.875,-0.75 -0.268,-0.221 -0.541,-0.439 -0.813,-0.656 -0.636,-0.509 -1.284,-1.012 -1.938,-1.5 -3.17,-2.368 -6.55,-4.481 -10.09,-6.313 -0.617,-0.319 -1.248,-0.636 -1.875,-0.938 -0.155,-0.074 -0.313,-0.145 -0.469,-0.219 -0.785,-0.371 -1.575,-0.719 -2.375,-1.063 -0.488,-0.209 -0.975,-0.426 -1.469,-0.625 -0.735,-0.296 -1.472,-0.571 -2.219,-0.844 -0.392,-0.143 -0.793,-0.27 -1.188,-0.406 -0.718,-0.248 -1.459,-0.524 -2.188,-0.75 -0.114,-0.035 -0.23,-0.059 -0.344,-0.094 -0.488,-0.149 -0.977,-0.267 -1.469,-0.406 -0.357,-0.1 -0.703,-0.217 -1.063,-0.313 -0.019,-0.005 -0.043,0.005 -0.063,0 -0.837,-0.221 -1.683,-0.433 -2.531,-0.625 -0.032,-0.007 -0.062,-0.024 -0.094,-0.031 -0.651,-0.146 -1.311,-0.278 -1.969,-0.406 -1,-0.197 -2.01,-0.376 -3.03,-0.531 -0.063,-0.01 -0.125,-0.022 -0.188,-0.031 -0.952,-0.143 -1.88,-0.269 -2.844,-0.375 -0.836,-0.091 -1.687,-0.156 -2.531,-0.219 -0.176,-0.013 -0.355,-0.019 -0.531,-0.031 -0.735,-0.049 -1.478,-0.097 -2.219,-0.125 -0.92,-0.034 -1.853,-0.063 -2.781,-0.063 H 147.503 78.659"
     inkscape:connector-curvature="0"
     id="path27"
     style="fill-opacity:0.17600002;filter:url(#7)" />
  <rect
     width="500"
     height="500"
     rx="72.639999"
     x="6"
     y="12"
     id="rect29"
     style="opacity:0.15" />
  <rect
     width="500"
     height="500"
     rx="72.639999"
     x="6"
     y="6"
     id="rect31"
     style="fill:url(#8)" />
  <rect
     width="435"
     height="435"
     rx="63.200001"
     x="38.5"
     y="38.5"
     id="rect33"
     style="fill:#f15a24" />
  <path
     d="M 101.69,38.5 C 66.68,38.5 38.5,66.67 38.5,101.69 v 15 C 38.5,81.68 66.67,53.5 101.69,53.5 h 308.63 c 35.01,0 63.19,28.17 63.19,63.19 v -15 C 473.51,66.68 445.34,38.5 410.32,38.5 H 101.7"
     inkscape:connector-curvature="0"
     id="path35"
     style="opacity:0.2" />
  <path
     d="M 78.66,6 C 38.42,6 6,38.411 6,78.66 v 7 C 6,45.42 38.411,13 78.66,13 h 354.69 c 40.24,0 72.66,32.411 72.66,72.66 v -7 C 506.01,38.42 473.599,6 433.35,6 H 78.66"
     inkscape:connector-curvature="0"
     id="path37"
     style="fill:#ffffff" />
  <g
     transform="translate(785.03,43.04)"
     id="g39">
    <path
       d="m -379.1,125.35 -24.98,1.163 0.96,20.18 6.659,40.22 15.441,-0.785 2.879,-40.683 -0.96,-20.09 m -61.07,1.512 c -2.037,-0.015 -4.246,0.035 -6.572,0.145 -9.649,0.458 -17.2,2.284 -22.77,5.409 -7.138,4.046 -12.427,9.734 -15.878,17.07 -3.453,7.296 -4.994,15.767 -4.536,25.416 0.435,9.166 2.587,17.195 6.368,24.11 3.82,6.91 8.905,11.987 15.354,15.267 6.487,3.278 14.783,4.691 24.776,4.217 8.117,-0.385 15.05,-1.647 20.85,-3.897 5.839,-2.292 12.456,-6.399 19.891,-12.272 l -1.745,-37.717 -40.22,1.948 0.843,18.378 17.448,-0.872 0.349,8.317 c -3.307,2.292 -6.211,4.02 -8.811,5.03 -2.6,1.01 -5.378,1.549 -8.288,1.687 -6.126,0.291 -11.02,-1.559 -14.656,-5.496 -3.602,-3.939 -5.624,-10.671 -6.078,-20.24 -0.427,-9.01 0.927,-15.677 4.1,-19.978 3.209,-4.343 7.672,-6.65 13.377,-6.921 3.829,-0.182 7.03,0.587 9.567,2.239 2.573,1.651 4.449,4.128 5.641,7.415 l 24.834,-5.903 c -1.802,-5.636 -4.293,-10.26 -7.532,-13.813 -3.202,-3.595 -7.148,-6.186 -11.865,-7.735 -3.509,-1.163 -8.342,-1.76 -14.453,-1.803 m -53.48,3.868 -34.14,1.628 -10.585,54.44 -15.761,-53.16 -34.23,1.658 4.246,88.34 21.257,-0.989 -3.199,-67.41 19.629,66.62 19.28,-0.872 13.231,-68.22 3.228,67.38 21.23,-0.989 -4.188,-88.43 m -137.93,5.118 c -0.852,0.01 -1.683,0.046 -2.559,0.087 -13.669,0.649 -24.13,5.147 -31.406,13.551 -7.276,8.404 -10.63,19.881 -9.945,34.31 0.49,10.332 2.902,18.783 7.095,25.474 4.193,6.691 9.466,11.484 15.819,14.365 6.392,2.88 14.263,4.086 23.758,3.635 9.342,-0.443 17.11,-2.647 23.18,-6.601 6.104,-3.997 10.629,-9.332 13.609,-16.08 3.02,-6.792 4.27,-15.374 3.78,-25.707 -0.675,-14.232 -4.986,-25.08 -12.941,-32.599 -7.46,-7.088 -17.606,-10.581 -30.388,-10.44 m -0.64,20.734 c 5.01,-0.008 9.09,1.758 12.243,5.234 3.397,3.667 5.305,9.62 5.7,17.942 0.469,9.89 -0.753,16.857 -3.635,20.821 -2.882,3.965 -7.118,6.074 -12.708,6.339 -5.437,0.258 -9.839,-1.485 -13.202,-5.234 -3.325,-3.751 -5.16,-10.09 -5.583,-19.02 -0.427,-9.01 0.816,-15.549 3.809,-19.6 2.993,-4.05 7.113,-6.207 12.359,-6.456 0.342,-0.016 0.684,-0.029 1.018,-0.029 m 255.5,35.565 -23.351,1.105 1.076,21.635 23.293,-1.105 -1.018,-21.635 m 20.734,55.54 -15.529,0.727 0.553,11.952 4.1,23.787 9.567,-0.465 1.861,-24.11 -0.553,-11.894 m -19.862,0.901 -16.14,0.843 1.512,31.901 c 0.137,2.903 -0.546,5.222 -2.065,6.892 -1.496,1.645 -3.613,2.485 -6.398,2.617 -2.808,0.133 -5.02,-0.546 -6.688,-2.065 -1.647,-1.544 -2.54,-3.745 -2.675,-6.601 l -1.512,-31.959 -16.197,0.814 1.512,31.17 c 0.122,2.57 0.762,5.498 1.919,8.782 0.717,2.041 1.993,3.973 3.751,5.845 1.782,1.871 3.626,3.3 5.7,4.275 2.073,0.951 4.662,1.588 7.677,1.803 3.039,0.214 5.829,0.208 8.375,0.087 4.403,-0.209 8.168,-0.953 11.254,-2.268 2.221,-0.94 4.303,-2.48 6.252,-4.624 1.972,-2.169 3.365,-4.633 4.188,-7.415 0.845,-2.807 1.194,-5.776 1.047,-8.869 l -1.512,-31.23 m -51.995,2.501 -49.17,2.355 0.669,12.911 16.459,-0.814 1.89,39.432 16.17,-0.785 -1.861,-39.4 16.488,-0.756 -0.64,-12.941 m -50.744,2.385 -15.238,0.727 1.396,28.964 -21.08,-28 -15.12,0.698 2.443,52.31 15.267,-0.669 -1.367,-28.76 20.967,27.829 15.209,-0.756 -2.472,-52.34 m -55.37,2.617 -16.14,0.785 1.512,31.959 c 0.137,2.903 -0.546,5.164 -2.065,6.834 -1.496,1.645 -3.642,2.543 -6.427,2.675 -2.808,0.133 -5.02,-0.546 -6.688,-2.065 -1.648,-1.544 -2.598,-3.716 -2.734,-6.572 l -1.483,-31.959 -16.14,0.727 1.512,31.23 c 0.122,2.57 0.733,5.498 1.89,8.782 0.717,2.041 1.935,4 3.693,5.874 1.782,1.871 3.713,3.3 5.787,4.275 2.072,0.951 4.662,1.501 7.677,1.716 3.039,0.213 5.8,0.266 8.346,0.145 4.403,-0.209 8.197,-0.953 11.283,-2.268 2.221,-0.94 4.244,-2.509 6.194,-4.653 1.972,-2.169 3.365,-4.604 4.188,-7.386 0.845,-2.807 1.223,-5.776 1.076,-8.869 l -1.483,-31.23 m -67.55,3.315 c -0.596,-0.01 -1.201,-10e-4 -1.832,0.029 l -30.3,1.396 2.53,52.34 27.859,-1.309 c 1.19,-0.057 3.651,-0.398 7.27,-1.047 2.72,-0.487 4.729,-1.186 6.05,-2.036 2.13,-1.365 3.785,-3.154 4.944,-5.38 1.158,-2.225 1.641,-4.702 1.512,-7.415 -0.158,-3.332 -1.194,-6.01 -3.082,-8.113 -1.866,-2.13 -4.659,-3.549 -8.462,-4.275 2.434,-0.974 4.223,-2.244 5.438,-3.78 1.823,-2.305 2.677,-5.05 2.53,-8.142 -0.175,-3.689 -1.647,-6.674 -4.478,-9.04 -2.457,-2.075 -5.805,-3.152 -9.974,-3.228 m -37.37,1.687 -16.14,0.756 1.512,31.959 c 0.137,2.903 -0.546,5.222 -2.065,6.892 -1.496,1.645 -3.671,2.514 -6.456,2.646 -2.808,0.133 -5.02,-0.546 -6.688,-2.065 -1.647,-1.544 -2.54,-3.745 -2.675,-6.601 l -1.512,-31.959 -16.14,0.727 1.454,31.23 c 0.122,2.57 0.791,5.498 1.948,8.782 0.717,2.041 1.964,4 3.722,5.874 1.782,1.871 3.713,3.3 5.787,4.275 2.072,0.951 4.603,1.53 7.619,1.745 3.039,0.214 5.829,0.266 8.375,0.145 4.403,-0.209 8.139,-0.953 11.225,-2.268 2.221,-0.94 4.303,-2.48 6.252,-4.624 1.972,-2.169 3.424,-4.633 4.246,-7.415 0.845,-2.807 1.135,-5.776 0.989,-8.869 l -1.454,-31.23 m 29.23,9.247 c 2.451,-0.116 4.189,0.237 5.205,1.047 1.04,0.809 1.585,1.937 1.658,3.461 0.078,1.642 -0.351,2.969 -1.309,3.897 -0.935,0.903 -2.654,1.422 -5.176,1.541 l -7.07,0.32 -0.465,-9.945 7.154,-0.32 m 255,16.866 -14.511,0.698 0.669,12.824 14.453,-0.727 -0.611,-12.795 m -250.99,2.966 c 1.814,0.082 3.14,0.46 4.01,1.134 1.186,0.874 1.788,2.146 1.861,3.693 0.079,1.666 -0.417,2.959 -1.512,4.01 -1.096,1.03 -3.061,1.642 -5.845,1.774 l -8.23,0.407 -0.494,-10.643 8.23,-0.349 c 0.708,-0.034 1.373,-0.057 1.977,-0.029"
       inkscape:connector-curvature="0"
       id="path41"
       style="opacity:0.2" />
    <path
       d="m -394.1,110.35 -24.98,1.163 0.96,20.18 6.659,40.22 15.441,-0.785 2.879,-40.683 -0.96,-20.09 m -61.07,1.512 c -2.037,-0.015 -4.246,0.035 -6.572,0.145 -9.649,0.458 -17.2,2.284 -22.77,5.409 -7.138,4.046 -12.427,9.734 -15.878,17.07 -3.453,7.296 -4.994,15.767 -4.536,25.416 0.435,9.166 2.587,17.195 6.368,24.11 3.82,6.91 8.905,11.987 15.354,15.267 6.487,3.278 14.783,4.691 24.776,4.217 8.117,-0.385 15.05,-1.647 20.85,-3.897 5.839,-2.292 12.456,-6.399 19.891,-12.272 l -1.745,-37.717 -40.22,1.948 0.843,18.378 17.448,-0.872 0.349,8.317 c -3.307,2.292 -6.211,4.02 -8.811,5.03 -2.6,1.01 -5.378,1.549 -8.288,1.687 -6.126,0.291 -11.02,-1.559 -14.656,-5.496 -3.602,-3.939 -5.624,-10.671 -6.078,-20.24 -0.427,-9.01 0.927,-15.677 4.1,-19.978 3.209,-4.343 7.672,-6.65 13.377,-6.921 3.829,-0.182 7.03,0.587 9.567,2.239 2.573,1.651 4.449,4.128 5.641,7.415 l 24.834,-5.903 c -1.802,-5.636 -4.293,-10.26 -7.532,-13.813 -3.202,-3.595 -7.148,-6.186 -11.865,-7.735 -3.509,-1.163 -8.342,-1.76 -14.453,-1.803 m -53.48,3.868 -34.14,1.628 -10.585,54.44 -15.761,-53.16 -34.23,1.658 4.246,88.34 21.257,-0.989 -3.199,-67.41 19.629,66.62 19.28,-0.872 13.231,-68.22 3.228,67.38 21.23,-0.989 -4.188,-88.43 m -137.93,5.118 c -0.852,0.01 -1.683,0.046 -2.559,0.087 -13.669,0.649 -24.13,5.147 -31.406,13.551 -7.276,8.404 -10.63,19.881 -9.945,34.31 0.49,10.332 2.902,18.783 7.095,25.474 4.193,6.691 9.466,11.484 15.819,14.365 6.392,2.88 14.263,4.086 23.758,3.635 9.342,-0.443 17.11,-2.647 23.18,-6.601 6.104,-3.997 10.629,-9.332 13.609,-16.08 3.02,-6.792 4.27,-15.374 3.78,-25.707 -0.675,-14.232 -4.986,-25.08 -12.941,-32.599 -7.46,-7.088 -17.606,-10.581 -30.388,-10.44 m -0.64,20.734 c 5.01,-0.008 9.09,1.758 12.243,5.234 3.397,3.667 5.305,9.62 5.7,17.942 0.469,9.89 -0.753,16.857 -3.635,20.821 -2.882,3.965 -7.118,6.074 -12.708,6.339 -5.437,0.258 -9.839,-1.485 -13.202,-5.234 -3.325,-3.751 -5.16,-10.09 -5.583,-19.02 -0.427,-9.01 0.816,-15.549 3.809,-19.6 2.993,-4.05 7.113,-6.207 12.359,-6.456 0.342,-0.016 0.684,-0.029 1.018,-0.029 m 255.5,35.565 -23.351,1.105 1.076,21.635 23.293,-1.105 -1.018,-21.635 m 20.734,55.54 -15.529,0.727 0.553,11.952 4.1,23.787 9.567,-0.465 1.861,-24.11 -0.553,-11.894 m -19.862,0.901 -16.14,0.843 1.512,31.901 c 0.137,2.903 -0.546,5.222 -2.065,6.892 -1.496,1.645 -3.613,2.485 -6.398,2.617 -2.808,0.133 -5.02,-0.546 -6.688,-2.065 -1.647,-1.544 -2.54,-3.745 -2.675,-6.601 l -1.512,-31.959 -16.197,0.814 1.512,31.17 c 0.122,2.57 0.762,5.498 1.919,8.782 0.717,2.041 1.993,3.973 3.751,5.845 1.782,1.871 3.626,3.3 5.7,4.275 2.073,0.951 4.662,1.588 7.677,1.803 3.039,0.214 5.829,0.208 8.375,0.087 4.403,-0.209 8.168,-0.953 11.254,-2.268 2.221,-0.94 4.303,-2.48 6.252,-4.624 1.972,-2.169 3.365,-4.633 4.188,-7.415 0.845,-2.807 1.194,-5.776 1.047,-8.869 l -1.512,-31.23 m -51.995,2.501 -49.17,2.355 0.669,12.911 16.459,-0.814 1.89,39.432 16.17,-0.785 -1.861,-39.4 16.488,-0.756 -0.64,-12.941 m -50.744,2.385 -15.238,0.727 1.396,28.964 -21.08,-28 -15.12,0.698 2.443,52.31 15.267,-0.669 -1.367,-28.76 20.967,27.829 15.209,-0.756 -2.472,-52.34 m -55.37,2.617 -16.14,0.785 1.512,31.959 c 0.137,2.903 -0.546,5.164 -2.065,6.834 -1.496,1.645 -3.642,2.543 -6.427,2.675 -2.808,0.133 -5.02,-0.546 -6.688,-2.065 -1.648,-1.544 -2.598,-3.716 -2.734,-6.572 l -1.483,-31.959 -16.14,0.727 1.512,31.23 c 0.122,2.57 0.733,5.498 1.89,8.782 0.717,2.041 1.935,4 3.693,5.874 1.782,1.871 3.713,3.3 5.787,4.275 2.072,0.951 4.662,1.501 7.677,1.716 3.039,0.213 5.8,0.266 8.346,0.145 4.403,-0.209 8.197,-0.953 11.283,-2.268 2.221,-0.94 4.244,-2.509 6.194,-4.653 1.972,-2.169 3.365,-4.604 4.188,-7.386 0.845,-2.807 1.223,-5.776 1.076,-8.869 l -1.483,-31.23 m -67.55,3.315 c -0.596,-0.01 -1.201,-0.001 -1.832,0.029 l -30.3,1.396 2.53,52.34 27.859,-1.309 c 1.19,-0.057 3.651,-0.398 7.27,-1.047 2.72,-0.487 4.729,-1.186 6.05,-2.036 2.13,-1.365 3.785,-3.154 4.944,-5.38 1.158,-2.225 1.641,-4.702 1.512,-7.415 -0.158,-3.332 -1.194,-6.01 -3.082,-8.113 -1.866,-2.13 -4.659,-3.549 -8.462,-4.275 2.434,-0.974 4.223,-2.244 5.438,-3.78 1.823,-2.305 2.677,-5.05 2.53,-8.142 -0.175,-3.689 -1.647,-6.674 -4.478,-9.04 -2.457,-2.075 -5.805,-3.152 -9.974,-3.228 m -37.37,1.687 -16.14,0.756 1.512,31.959 c 0.137,2.903 -0.546,5.222 -2.065,6.892 -1.496,1.645 -3.671,2.514 -6.456,2.646 -2.808,0.133 -5.02,-0.546 -6.688,-2.065 -1.647,-1.544 -2.54,-3.745 -2.675,-6.601 l -1.512,-31.959 -16.14,0.727 1.454,31.23 c 0.122,2.57 0.791,5.498 1.948,8.782 0.717,2.041 1.964,4 3.722,5.874 1.782,1.871 3.713,3.3 5.787,4.275 2.072,0.951 4.603,1.53 7.619,1.745 3.039,0.214 5.829,0.266 8.375,0.145 4.403,-0.209 8.139,-0.953 11.225,-2.268 2.221,-0.94 4.303,-2.48 6.252,-4.624 1.972,-2.169 3.424,-4.633 4.246,-7.415 0.845,-2.807 1.135,-5.776 0.989,-8.869 l -1.454,-31.23 m 29.23,9.247 c 2.451,-0.116 4.189,0.237 5.205,1.047 1.04,0.809 1.585,1.937 1.658,3.461 0.078,1.642 -0.351,2.969 -1.309,3.897 -0.935,0.903 -2.654,1.422 -5.176,1.541 l -7.07,0.32 -0.465,-9.945 7.154,-0.32 m 255,16.866 -14.511,0.698 0.669,12.824 14.453,-0.727 -0.611,-12.795 m -250.99,2.966 c 1.814,0.082 3.14,0.46 4.01,1.134 1.186,0.874 1.788,2.146 1.861,3.693 0.079,1.666 -0.417,2.959 -1.512,4.01 -1.096,1.03 -3.061,1.642 -5.845,1.774 l -8.23,0.407 -0.494,-10.643 8.23,-0.349 c 0.708,-0.034 1.373,-0.057 1.977,-0.029"
       inkscape:connector-curvature="0"
       id="path43"
       style="fill:#dcdbdb" />
  </g>
  <path
     d="M 78.66,6 C 63.797,6 49.99,10.43 38.5,18.03 V 493.97 C 49.986,501.572 63.793,506 78.66,506 h 68.844 V 6 H 78.66"
     inkscape:connector-curvature="0"
     id="path45"
     style="opacity:0.05;fill:url(#1)" />
  <path
     d="m 147.5,6 v 500 h 109 V 6 h -109"
     inkscape:connector-curvature="0"
     id="path47"
     style="opacity:0.05;fill:url(#2)" />
  <path
     d="m 256.5,6 v 500 h 109 V 6 h -109"
     inkscape:connector-curvature="0"
     id="path49"
     style="opacity:0.05;fill:url(#3)" />
  <path
     d="m 365.5,6 v 500 h 67.844 c 14.854,0 28.643,-4.438 40.13,-12.03 V 18.03 C 461.992,10.437 448.204,6 433.354,6 H 365.51"
     inkscape:connector-curvature="0"
     id="path51"
     style="opacity:0.05;fill:url(#4)" />
  <path
     d="M 38.5,18.03 C 18.886,31.011 6,53.27 6,78.66 v 354.69 c 0,25.381 12.886,47.644 32.5,60.63 V 18.04"
     inkscape:connector-curvature="0"
     id="path53"
     style="opacity:0.05;fill:url(#6)" />
  <path
     d="m 473.47,18.03 v 475.94 c 19.627,-12.979 32.531,-35.23 32.531,-60.62 V 78.66 c 0,-25.391 -12.905,-47.646 -32.531,-60.62"
     inkscape:connector-curvature="0"
     id="path55"
     style="opacity:0.05;fill:url(#5)" />
</svg>
