<?xml version="1.0" encoding="UTF-8" standalone="no"?>
<svg
   xmlns:dc="http://purl.org/dc/elements/1.1/"
   xmlns:cc="http://creativecommons.org/ns#"
   xmlns:rdf="http://www.w3.org/1999/02/22-rdf-syntax-ns#"
   xmlns:svg="http://www.w3.org/2000/svg"
   xmlns="http://www.w3.org/2000/svg"
   xmlns:xlink="http://www.w3.org/1999/xlink"
   xmlns:sodipodi="http://sodipodi.sourceforge.net/DTD/sodipodi-0.dtd"
   xmlns:inkscape="http://www.inkscape.org/namespaces/inkscape"
   viewBox="0 0 512 512"
   id="svg2"
   version="1.1"
   inkscape:version="0.48.4 r9939"
   width="100%"
   height="100%"
   sodipodi:docname="base.svg">
  <sodipodi:namedview
     pagecolor="#444444"
     bordercolor="#666666"
     borderopacity="1"
     objecttolerance="10"
     gridtolerance="10"
     guidetolerance="10"
     inkscape:pageopacity="0"
     inkscape:pageshadow="2"
     inkscape:window-width="1310"
     inkscape:window-height="718"
     id="namedview6"
     showgrid="false"
     showguides="true"
     inkscape:guide-bbox="true"
     inkscape:zoom="0.5181105"
     inkscape:cx="656.18566"
     inkscape:cy="122.60289"
     inkscape:window-x="54"
     inkscape:window-y="27"
     inkscape:window-maximized="1"
     inkscape:current-layer="svg2"
     inkscape:snap-midpoints="true"
     inkscape:snap-global="false">
    <sodipodi:guide
       id="guide2989"
       position="522.57628,433.35594"
       orientation="0,1" />
    <sodipodi:guide
       id="guide2995"
       position="473.05444,254.912"
       orientation="1,0" />
  </sodipodi:namedview>
  <metadata
     id="metadata10">
    <rdf:RDF>
      <cc:Work
         rdf:about="">
        <dc:format>image/svg+xml</dc:format>
        <dc:type
           rdf:resource="http://purl.org/dc/dcmitype/StillImage" />
        <dc:title></dc:title>
      </cc:Work>
    </rdf:RDF>
  </metadata>
  <defs
     id="defs8">
    <linearGradient
       id="linearGradient4996">
      <stop
         style="stop-color:#000000;stop-opacity:1;"
         offset="0"
         id="stop4998" />
      <stop
         style="stop-color:#ffffff;stop-opacity:1;"
         offset="1"
         id="stop5000" />
    </linearGradient>
    <linearGradient
       inkscape:collect="always"
       xlink:href="#linearGradient4996"
       id="linearGradient3108"
       gradientUnits="userSpaceOnUse"
       gradientTransform="matrix(1.0380952,0,0,1.4619252,-228.28943,-118.25286)"
       x1="257"
       y1="256"
       x2="362"
       y2="256" />
    <linearGradient
       inkscape:collect="always"
       xlink:href="#linearGradient4996"
       id="linearGradient3137"
       gradientUnits="userSpaceOnUse"
       gradientTransform="matrix(1.0380952,0,0,1.4619252,-119.28943,-118.25286)"
       x1="257"
       y1="256"
       x2="362"
       y2="256" />
    <linearGradient
       inkscape:collect="always"
       xlink:href="#linearGradient4996"
       id="linearGradient3141"
       gradientUnits="userSpaceOnUse"
       gradientTransform="matrix(1.0380952,0,0,1.4619252,-10.28943,-118.25286)"
       x1="257"
       y1="256"
       x2="362"
       y2="256" />
    <linearGradient
       inkscape:collect="always"
       xlink:href="#linearGradient4996"
       id="linearGradient3145"
       gradientUnits="userSpaceOnUse"
       gradientTransform="matrix(1.0283468,0,0,1.4619252,101.21591,-118.25286)"
       x1="257"
       y1="256"
       x2="362"
       y2="256" />
    <linearGradient
       inkscape:collect="always"
       xlink:href="#linearGradient4996"
       id="linearGradient3149"
       gradientUnits="userSpaceOnUse"
       gradientTransform="matrix(1.0283468,0,0,1.4619252,209.19233,-118.25286)"
       x1="257"
       y1="256"
       x2="362"
       y2="256" />
    <linearGradient
       inkscape:collect="always"
       xlink:href="#linearGradient4996"
       id="linearGradient3153"
       gradientUnits="userSpaceOnUse"
       gradientTransform="matrix(1.0380952,0,0,1.4619252,-337.28943,-118.25286)"
       x1="257"
       y1="256"
       x2="362"
       y2="256" />
  </defs>
  <rect
     style="opacity:0.2;fill:#000000;fill-opacity:1;stroke:none"
     id="rect5028"
     width="500"
     height="500"
     x="6"
     y="12"
     rx="72.644058"
     ry="72.644058" />
  <rect
     ry="72.644058"
     rx="72.644058"
     y="6"
     x="6"
     height="500"
     width="500"
     id="rect4979"
     style="fill:#f3f3f3;fill-opacity:1;stroke:none" />
  <rect
     style="fill:#0072c6;fill-opacity:1;stroke:none"
     id="rect4981"
     width="434.99997"
     height="434.99997"
     x="38.500011"
     y="38.500011"
     rx="63.200329"
     ry="63.200329" />
  <path
     style="fill:#000000;fill-opacity:1;stroke:none;opacity:0.2"
     d="M 101.6875 38.5 C 66.674518 38.5 38.5 66.674518 38.5 101.6875 L 38.5 116.6875 C 38.5 81.674518 66.674518 53.5 101.6875 53.5 L 410.3125 53.5 C 445.32548 53.5 473.5 81.674518 473.5 116.6875 L 473.5 101.6875 C 473.5 66.674518 445.32548 38.5 410.3125 38.5 L 101.6875 38.5 z "
     id="rect3187" />
  <g
     id="g3114"
     transform="translate(593.26562,779.40625)">
    <path
       inkscape:connector-curvature="0"
       style="opacity:0.2;fill:#000000;fill-opacity:1"
       d="m -300.5,-682.90625 -194.4375,37.65625 0,255.59375 194.4375,40.75 0,-334 z m 12.28125,70.8125 0,65.34375 22.84375,14.375 c 0.60214,0.17546 1.89785,0.18827 2.5,0 l 98.25,-66.25 c 0,-7.84038 -7.31033,-13.46875 -11.4375,-13.46875 l -112.15625,0 z m -107.34375,37.78125 c 12.83313,0 23.24061,5.23762 31.15625,15.75 7.92819,10.51237 11.875,24.36385 11.875,41.5625 0.0125,17.67534 -4.09578,31.93656 -12.3125,42.75 -8.21671,10.81345 -18.93424,16.21875 -32.15625,16.21875 -12.8833,0 -23.35239,-5.24401 -31.46875,-15.71875 -8.10381,-10.48728 -12.1875,-24.1339 -12.1875,-40.96875 0,-17.7757 4.1332,-32.14848 12.375,-43.125 8.2418,-10.97653 19.13295,-16.46875 32.71875,-16.46875 z m 230.96875,2.09375 c 0,0 -99.83753,66.31391 -96.3125,64.15625 0,0 -3.53332,2.15766 -6.46875,0 l -20.84375,-14.3125 0,88.78125 105.84375,0 c 9.40844,0 17.78125,-5.45978 17.78125,-18.53125 l 0,-120.09375 z m -231.5,19.71875 c -7.10025,0 -12.76015,3.33882 -16.9375,10 -4.17736,6.66119 -6.28125,15.49222 -6.28125,26.46875 0,11.1396 2.10389,19.93323 6.28125,26.40625 4.17735,6.48556 9.66342,9.71875 16.4375,9.71875 6.98735,0 12.53546,-3.14011 16.625,-9.4375 4.08954,-6.29739 6.125,-15.04151 6.125,-26.21875 0,-11.65394 -1.96086,-20.73319 -5.9375,-27.21875 -3.97664,-6.47302 -9.41297,-9.71875 -16.3125,-9.71875 z"
       id="path3112" />
    <path
       id="path3"
       d="m -315.5,-697.90625 -194.4375,37.65625 0,255.59375 194.4375,40.75 0,-334 z m 12.28125,70.8125 0,65.34375 22.84375,14.375 c 0.60214,0.17546 1.89785,0.18827 2.5,0 l 98.25,-66.25 c 0,-7.84038 -7.31033,-13.46875 -11.4375,-13.46875 l -112.15625,0 z m -107.34375,37.78125 c 12.83313,0 23.24061,5.23762 31.15625,15.75 7.92819,10.51237 11.875,24.36385 11.875,41.5625 0.0125,17.67534 -4.09578,31.93656 -12.3125,42.75 -8.21671,10.81345 -18.93424,16.21875 -32.15625,16.21875 -12.8833,0 -23.35239,-5.24401 -31.46875,-15.71875 -8.10381,-10.48728 -12.1875,-24.1339 -12.1875,-40.96875 0,-17.7757 4.1332,-32.14848 12.375,-43.125 8.2418,-10.97653 19.13295,-16.46875 32.71875,-16.46875 z m 230.96875,2.09375 c 0,0 -99.83753,66.31391 -96.3125,64.15625 0,0 -3.53332,2.15766 -6.46875,0 l -20.84375,-14.3125 0,88.78125 105.84375,0 c 9.40844,0 17.78125,-5.45978 17.78125,-18.53125 l 0,-120.09375 z m -231.5,19.71875 c -7.10025,0 -12.76015,3.33882 -16.9375,10 -4.17736,6.66119 -6.28125,15.49222 -6.28125,26.46875 0,11.1396 2.10389,19.93323 6.28125,26.40625 4.17735,6.48556 9.66342,9.71875 16.4375,9.71875 6.98735,0 12.53546,-3.14011 16.625,-9.4375 4.08954,-6.29739 6.125,-15.04151 6.125,-26.21875 0,-11.65394 -1.96086,-20.73319 -5.9375,-27.21875 -3.97664,-6.47302 -9.41297,-9.71875 -16.3125,-9.71875 z"
       style="fill:#dcdbdb;fill-opacity:1"
       inkscape:connector-curvature="0" />
  </g>
  <g
     id="g3167">
    <path
       id="rect3068"
       d="M 78.65625 6 C 63.792798 6 49.986224 10.429561 38.5 18.03125 L 38.5 493.96875 C 49.986224 501.57044 63.792798 506 78.65625 506 L 147.5 506 L 147.5 6 L 78.65625 6 z "
       style="opacity:0.05000000000000000;fill:url(#linearGradient3108);fill-opacity:1;stroke:none" />
    <path
       inkscape:connector-curvature="0"
       style="opacity:0.05;fill:url(#linearGradient3137);fill-opacity:1;stroke:none"
       d="m 147.50001,6 0,500 109,0 0,-500 -109,0 z"
       id="path3135" />
    <path
       id="path3139"
       d="m 256.50001,6 0,500 109,0 0,-500 -109,0 z"
       style="opacity:0.05;fill:url(#linearGradient3141);fill-opacity:1;stroke:none"
       inkscape:connector-curvature="0" />
    <path
       id="path3143"
       d="M 365.5 6 L 365.5 506 L 433.34375 506 C 448.1977 506 461.98692 501.56151 473.46875 493.96875 L 473.46875 18.03125 C 461.98692 10.438491 448.1977 6 433.34375 6 L 365.5 6 z "
       style="opacity:0.05000000000000000;fill:url(#linearGradient3145);fill-opacity:1;stroke:none" />
    <path
       id="path3151"
       d="M 38.5 18.03125 C 18.885717 31.012164 6 53.274894 6 78.65625 L 6 433.34375 C 6 458.72511 18.885717 480.98784 38.5 493.96875 L 38.5 18.03125 z "
       style="opacity:0.05000000000000000;fill:url(#linearGradient3153);fill-opacity:1;stroke:none" />
    <path
       id="path3147"
       d="M 473.46875 18.03125 L 473.46875 493.96875 C 493.09542 480.98993 506 458.73461 506 433.34375 L 506 78.65625 C 506 53.265388 493.09542 31.010071 473.46875 18.03125 z "
       style="opacity:0.05000000000000000;fill:url(#linearGradient3149);fill-opacity:1;stroke:none" />
  </g>
</svg>
