<?xml version="1.0" encoding="UTF-8" standalone="no"?>
<!-- Created with Inkscape (http://www.inkscape.org/) -->

<svg
   xmlns:dc="http://purl.org/dc/elements/1.1/"
   xmlns:cc="http://creativecommons.org/ns#"
   xmlns:rdf="http://www.w3.org/1999/02/22-rdf-syntax-ns#"
   xmlns:svg="http://www.w3.org/2000/svg"
   xmlns="http://www.w3.org/2000/svg"
   xmlns:xlink="http://www.w3.org/1999/xlink"
   xmlns:inkscape="http://www.inkscape.org/namespaces/inkscape"
   version="1.1"
   width="100%"
   height="100%"
   viewBox="0 0 512 512"
   id="svg2">
  <metadata
     id="metadata91">
    <rdf:RDF>
      <cc:Work
         rdf:about="">
        <dc:format>image/svg+xml</dc:format>
        <dc:type
           rdf:resource="http://purl.org/dc/dcmitype/StillImage" />
      </cc:Work>
    </rdf:RDF>
  </metadata>
  <defs
     id="defs4">
    <filter
       color-interpolation-filters="sRGB"
       id="7">
      <feGaussianBlur
         id="feGaussianBlur7"
         stdDeviation="3.7725" />
    </filter>
    <linearGradient
       y1="19.563999"
       x2="0"
       y2="504.01999"
       id="8"
       gradientUnits="userSpaceOnUse">
      <stop
         id="stop10"
         style="stop-color:#f3f3f3;stop-opacity:1"
         offset="0" />
      <stop
         id="stop12"
         style="stop-color:#eeeeee;stop-opacity:1"
         offset="0.5" />
      <stop
         id="stop14"
         style="stop-color:#ebebeb;stop-opacity:1"
         offset="1" />
    </linearGradient>
    <linearGradient
       x1="257"
       x2="362"
       id="5"
       xlink:href="#0"
       gradientUnits="userSpaceOnUse"
       gradientTransform="matrix(1.02835,0,0,1.46193,209.19,-118.25)" />
    <linearGradient
       x1="257"
       x2="362"
       id="6"
       xlink:href="#0"
       gradientUnits="userSpaceOnUse"
       gradientTransform="matrix(1.0381,0,0,1.46193,-337.29,-118.25)" />
    <linearGradient
       x1="257"
       x2="362"
       id="4"
       xlink:href="#0"
       gradientUnits="userSpaceOnUse"
       gradientTransform="matrix(1.02835,0,0,1.46193,101.22,-118.25)" />
    <linearGradient
       x1="257"
       x2="362"
       id="3"
       xlink:href="#0"
       gradientUnits="userSpaceOnUse"
       gradientTransform="matrix(1.0381,0,0,1.46193,-10.289,-118.25)" />
    <linearGradient
       id="0">
      <stop
         id="stop21"
         style="stop-color:#000000;stop-opacity:1"
         offset="0" />
      <stop
         id="stop23"
         style="stop-color:#ffffff;stop-opacity:1"
         offset="1" />
    </linearGradient>
    <linearGradient
       x1="257"
       x2="362"
       id="2"
       xlink:href="#0"
       gradientUnits="userSpaceOnUse"
       gradientTransform="matrix(1.0381,0,0,1.46193,-119.29,-118.25)" />
    <linearGradient
       x1="257"
       x2="362"
       id="1"
       xlink:href="#0"
       gradientUnits="userSpaceOnUse"
       gradientTransform="matrix(1.0381,0,0,1.46193,-228.29,-118.25)" />
  </defs>
  <path
     d="m 78.66,6 c -0.929,0 -1.861,0.028 -2.781,0.063 -0.073,0.003 -0.146,-0.003 -0.219,0 -0.668,0.027 -1.337,0.08 -2,0.125 -0.376,0.025 -0.751,0.063 -1.125,0.094 -0.645,0.053 -1.297,0.086 -1.938,0.156 -0.965,0.106 -1.922,0.232 -2.875,0.375 -0.052,0.008 -0.104,0.023 -0.156,0.031 -1.082,0.165 -2.154,0.351 -3.219,0.563 -0.459,0.091 -0.919,0.182 -1.375,0.281 -0.39,0.085 -0.769,0.19 -1.156,0.281 -0.647,0.152 -1.297,0.299 -1.938,0.469 -0.898,0.238 -1.804,0.479 -2.688,0.75 -0.211,0.065 -0.414,0.152 -0.625,0.219 -0.991,0.314 -1.966,0.645 -2.938,1 -0.817,0.298 -1.635,0.611 -2.438,0.938 -0.29,0.118 -0.587,0.222 -0.875,0.344 -0.136,0.057 -0.27,0.129 -0.406,0.188 -0.082,0.035 -0.169,0.058 -0.25,0.094 -0.717,0.311 -1.42,0.636 -2.125,0.969 -0.147,0.069 -0.291,0.148 -0.438,0.219 -0.947,0.455 -1.889,0.943 -2.813,1.438 -0.271,0.145 -0.544,0.289 -0.813,0.438 -0.414,0.228 -0.81,0.483 -1.219,0.719 -0.52,0.3 -1.051,0.594 -1.563,0.906 -0.738,0.452 -1.467,0.898 -2.188,1.375 -0.031,0.021 -0.062,0.042 -0.094,0.063 -0.456,0.303 -0.895,0.625 -1.344,0.938 -0.123,0.086 -0.252,0.163 -0.375,0.25 -0.524,0.37 -1.049,0.742 -1.563,1.125 -1.835,1.371 -3.618,2.84 -5.313,4.375 -0.017,0.015 -0.046,0.016 -0.063,0.031 -0.526,0.477 -1.02,0.977 -1.531,1.469 -0.524,0.505 -1.054,1.011 -1.563,1.531 -0.512,0.523 -1,1.055 -1.5,1.594 -0.941,1.022 -1.837,2.05 -2.719,3.125 -0.631,0.769 -1.244,1.58 -1.844,2.375 -0.111,0.148 -0.233,0.289 -0.344,0.438 -0.526,0.71 -1.031,1.427 -1.531,2.156 -0.11,0.16 -0.235,0.308 -0.344,0.469 -0.013,0.019 -0.018,0.043 -0.031,0.063 -0.084,0.125 -0.167,0.249 -0.25,0.375 -0.47,0.708 -0.929,1.431 -1.375,2.156 -0.071,0.116 -0.148,0.227 -0.219,0.344 -0.575,0.948 -1.124,1.899 -1.656,2.875 -0.152,0.278 -0.289,0.564 -0.438,0.844 -0.18,0.341 -0.356,0.687 -0.531,1.031 -0.243,0.479 -0.486,0.952 -0.719,1.438 -0.426,0.885 -0.828,1.783 -1.219,2.688 -0.24,0.556 -0.461,1.124 -0.688,1.688 -0.038,0.095 -0.087,0.186 -0.125,0.281 -0.246,0.621 -0.489,1.245 -0.719,1.875 -0.332,0.909 -0.641,1.825 -0.938,2.75 -0.11,0.345 -0.238,0.684 -0.344,1.031 -0.301,0.99 -0.585,1.992 -0.844,3 -0.008,0.032 -0.023,0.062 -0.031,0.094 -0.267,1.046 -0.497,2.092 -0.719,3.156 -0.034,0.166 -0.06,0.334 -0.094,0.5 -0.426,2.117 -0.762,4.257 -1,6.438 -0.035,0.323 -0.063,0.645 -0.094,0.969 -0.09,0.938 -0.165,1.895 -0.219,2.844 -0.017,0.29 -0.018,0.584 -0.031,0.875 -0.051,1.119 -0.094,2.243 -0.094,3.375 v 354.69 6 c 0,40.24 32.411,72.66 72.66,72.66 h 354.69 c 40.24,0 72.66,-32.411 72.66,-72.66 v -354.69 -6 c 0,-1.259 -0.031,-2.507 -0.094,-3.75 -0.016,-0.323 -0.042,-0.647 -0.063,-0.969 -0.058,-0.917 -0.127,-1.843 -0.219,-2.75 -0.02,-0.2 -0.041,-0.394 -0.063,-0.594 -0.246,-2.245 -0.587,-4.447 -1.031,-6.625 -0.021,-0.104 -0.041,-0.209 -0.063,-0.313 -0.227,-1.087 -0.476,-2.15 -0.75,-3.219 -0.011,-0.042 -0.02,-0.083 -0.031,-0.125 -0.19,-0.732 -0.413,-1.464 -0.625,-2.188 -0.212,-0.724 -0.423,-1.442 -0.656,-2.156 -0.258,-0.789 -0.529,-1.567 -0.813,-2.344 -0.23,-0.63 -0.472,-1.254 -0.719,-1.875 -0.038,-0.096 -0.087,-0.186 -0.125,-0.281 -0.239,-0.594 -0.465,-1.195 -0.719,-1.781 -0.378,-0.871 -0.777,-1.741 -1.188,-2.594 -0.233,-0.485 -0.475,-0.958 -0.719,-1.438 -0.287,-0.564 -0.574,-1.132 -0.875,-1.688 -0.051,-0.094 -0.105,-0.188 -0.156,-0.281 -0.513,-0.936 -1.041,-1.871 -1.594,-2.781 -0.212,-0.35 -0.438,-0.685 -0.656,-1.031 -0.405,-0.642 -0.795,-1.278 -1.219,-1.906 -0.809,-1.199 -1.685,-2.354 -2.563,-3.5 -0.262,-0.341 -0.514,-0.695 -0.781,-1.031 -0.189,-0.238 -0.371,-0.483 -0.563,-0.719 -0.093,-0.114 -0.188,-0.231 -0.281,-0.344 -2.71,-3.286 -5.696,-6.301 -8.938,-9.06 -0.293,-0.249 -0.578,-0.505 -0.875,-0.75 -0.268,-0.221 -0.541,-0.439 -0.813,-0.656 -0.636,-0.509 -1.284,-1.012 -1.938,-1.5 -3.17,-2.368 -6.55,-4.481 -10.09,-6.313 -0.617,-0.319 -1.248,-0.636 -1.875,-0.938 -0.155,-0.074 -0.313,-0.145 -0.469,-0.219 -0.785,-0.371 -1.575,-0.719 -2.375,-1.063 -0.488,-0.209 -0.975,-0.426 -1.469,-0.625 -0.735,-0.296 -1.472,-0.571 -2.219,-0.844 -0.392,-0.143 -0.793,-0.27 -1.188,-0.406 -0.718,-0.248 -1.459,-0.524 -2.188,-0.75 -0.114,-0.035 -0.23,-0.059 -0.344,-0.094 -0.488,-0.149 -0.977,-0.267 -1.469,-0.406 -0.357,-0.1 -0.703,-0.217 -1.063,-0.313 -0.019,-0.005 -0.043,0.005 -0.063,0 -0.837,-0.221 -1.683,-0.433 -2.531,-0.625 -0.032,-0.007 -0.062,-0.024 -0.094,-0.031 -0.651,-0.146 -1.311,-0.278 -1.969,-0.406 -1,-0.197 -2.01,-0.376 -3.03,-0.531 -0.063,-0.01 -0.125,-0.022 -0.188,-0.031 -0.952,-0.143 -1.88,-0.269 -2.844,-0.375 -0.836,-0.091 -1.687,-0.156 -2.531,-0.219 -0.176,-0.013 -0.355,-0.019 -0.531,-0.031 -0.735,-0.049 -1.478,-0.097 -2.219,-0.125 -0.92,-0.034 -1.853,-0.063 -2.781,-0.063 H 147.503 78.659"
     inkscape:connector-curvature="0"
     id="path27"
     style="fill-opacity:0.17600002;filter:url(#7)" />
  <rect
     width="500"
     height="500"
     rx="72.639999"
     x="6"
     y="12"
     id="rect29"
     style="opacity:0.15" />
  <rect
     width="500"
     height="500"
     rx="72.639999"
     x="6"
     y="6"
     id="rect31"
     style="fill:url(#8)" />
  <rect
     width="435"
     height="435"
     rx="63.200001"
     x="38.5"
     y="38.5"
     id="rect33"
     style="fill:#336699" />
  <path
     d="M 101.69,38.5 C 66.68,38.5 38.5,66.67 38.5,101.69 v 15 C 38.5,81.68 66.67,53.5 101.69,53.5 h 308.63 c 35.01,0 63.19,28.17 63.19,63.19 v -15 C 473.51,66.68 445.34,38.5 410.32,38.5 H 101.7"
     inkscape:connector-curvature="0"
     id="path35"
     style="opacity:0.2" />
  <path
     d="M 78.66,6 C 38.42,6 6,38.411 6,78.66 v 7 C 6,45.42 38.411,13 78.66,13 h 354.69 c 40.24,0 72.66,32.411 72.66,72.66 v -7 C 506.01,38.42 473.599,6 433.35,6 H 78.66"
     inkscape:connector-curvature="0"
     id="path37"
     style="fill:#ffffff" />
  <g
     transform="translate(-164.57,586.25)"
     id="g39">
    <g
       transform="translate(15,15)"
       id="g41"
       style="opacity:0.2">
      <g
         transform="matrix(1.76286,0,0,1.76286,-187.34,62.2)"
         id="g43">
        <path
           d="m 360.54,-194.85 c -2.493,0.008 -4.741,0.076 -5.395,0.206 -0.376,0.074 -1.324,0.159 -2.108,0.19 -0.784,0.031 -1.49,0.11 -1.568,0.175 -0.078,0.065 -0.23,0.087 -0.334,0.047 -0.104,-0.04 -0.227,-0.015 -0.272,0.058 -0.046,0.075 -0.495,0.135 -1.036,0.136 -0.534,0.001 -1.199,0.083 -1.506,0.19 -0.302,0.105 -0.917,0.224 -1.366,0.26 -0.45,0.036 -1.027,0.144 -1.285,0.241 -0.258,0.097 -0.748,0.175 -1.091,0.175 -0.383,0 -0.646,0.06 -0.683,0.155 -0.033,0.085 -0.277,0.172 -0.547,0.19 -0.572,0.039 -1.158,0.368 -2.01,1.137 -0.642,0.577 -1.343,1.519 -1.343,1.801 0,0.091 -0.084,0.233 -0.186,0.318 -0.103,0.085 -0.186,0.357 -0.186,0.605 0,0.248 -0.086,0.616 -0.19,0.815 -0.104,0.199 -0.24,0.722 -0.303,1.164 -0.063,0.442 -0.172,0.863 -0.245,0.935 -0.072,0.072 -0.132,0.395 -0.132,0.714 0,0.365 -0.069,0.636 -0.186,0.734 -0.116,0.096 -0.186,0.371 -0.186,0.73 0,0.316 -0.086,0.74 -0.19,0.939 -0.42,0.806 -0.085,2.43 0.501,2.43 0.144,0 0.318,0.058 0.388,0.128 0.146,0.146 1.28,-0.051 1.785,-0.311 0.171,-0.088 0.495,-0.2 0.722,-0.248 0.227,-0.048 0.562,-0.168 0.745,-0.264 0.183,-0.096 0.485,-0.175 0.668,-0.175 0.183,0 0.414,-0.084 0.516,-0.186 0.11,-0.11 0.416,-0.186 0.741,-0.186 0.329,0 0.611,-0.072 0.699,-0.179 0.081,-0.098 0.466,-0.21 0.854,-0.252 0.388,-0.042 0.89,-0.157 1.114,-0.256 0.224,-0.099 0.699,-0.182 1.056,-0.182 0.356,0 0.806,-0.084 1,-0.186 0.196,-0.102 0.671,-0.186 1.056,-0.186 0.385,0 1.05,-0.107 1.475,-0.237 0.686,-0.208 1.233,-0.235 4.844,-0.248 3.745,-0.014 4.142,0.002 4.941,0.233 0.478,0.138 1.097,0.252 1.374,0.252 0.277,0 0.613,0.082 0.745,0.182 0.133,0.1 0.427,0.184 0.656,0.186 0.229,0.002 0.564,0.088 0.745,0.19 0.181,0.102 0.47,0.241 0.64,0.311 0.171,0.07 0.478,0.238 0.683,0.373 0.205,0.135 0.456,0.286 0.559,0.334 0.274,0.128 0.869,0.745 0.869,0.9 0,0.074 0.049,0.132 0.113,0.132 0.461,0 1.224,3.335 0.9,3.94 -0.079,0.147 -0.144,0.38 -0.144,0.516 0,0.142 -0.227,0.433 -0.528,0.679 -0.509,0.416 -0.575,0.434 -1.832,0.505 -1.531,0.086 -1.899,0.119 -2.484,0.233 -0.239,0.046 -1.133,0.112 -1.987,0.147 -0.854,0.035 -1.86,0.136 -2.236,0.225 -0.376,0.089 -1.154,0.177 -1.727,0.198 -0.574,0.02 -1.3,0.118 -1.615,0.213 -0.314,0.095 -0.99,0.173 -1.502,0.175 -0.512,0.002 -1.155,0.082 -1.428,0.175 -0.273,0.093 -1.028,0.208 -1.677,0.256 -0.649,0.049 -1.244,0.144 -1.324,0.21 -0.08,0.066 -0.639,0.171 -1.242,0.233 -0.603,0.062 -1.114,0.17 -1.137,0.241 -0.024,0.071 -0.306,0.128 -0.625,0.128 -0.319,0 -0.727,0.08 -0.908,0.175 -0.182,0.095 -0.629,0.212 -0.994,0.26 -0.365,0.048 -0.788,0.164 -0.939,0.26 -0.151,0.096 -0.468,0.175 -0.706,0.175 -0.238,0 -0.481,0.075 -0.536,0.167 -0.055,0.092 -0.341,0.202 -0.637,0.241 -0.296,0.038 -0.633,0.156 -0.753,0.264 -0.12,0.108 -0.425,0.198 -0.675,0.198 -0.251,0 -0.454,0.057 -0.454,0.124 0,0.067 -0.252,0.187 -0.559,0.264 -0.307,0.077 -0.559,0.187 -0.559,0.245 0,0.058 -0.223,0.164 -0.493,0.237 -0.27,0.073 -0.526,0.186 -0.567,0.252 -0.041,0.066 -0.206,0.12 -0.369,0.12 -0.163,0 -0.329,0.052 -0.369,0.116 -0.04,0.064 -0.365,0.264 -0.722,0.442 -0.357,0.178 -0.872,0.457 -1.145,0.621 -0.273,0.164 -0.581,0.339 -0.683,0.388 -0.217,0.104 -0.441,0.268 -1.793,1.3 -1.24,0.946 -3.299,3.13 -3.299,3.501 0,0.14 -0.034,0.222 -0.078,0.179 -0.043,-0.043 -0.228,0.154 -0.408,0.442 -0.179,0.288 -0.396,0.636 -0.481,0.772 -0.085,0.137 -0.204,0.369 -0.268,0.516 -0.064,0.147 -0.176,0.304 -0.248,0.349 -0.072,0.045 -0.134,0.204 -0.136,0.353 -0.002,0.15 -0.086,0.38 -0.186,0.512 -0.1,0.133 -0.182,0.331 -0.182,0.439 0,0.107 -0.112,0.405 -0.248,0.66 -0.137,0.255 -0.248,0.634 -0.248,0.842 0,0.209 -0.078,0.53 -0.171,0.714 -0.093,0.184 -0.203,0.794 -0.245,1.358 -0.042,0.564 -0.147,1.151 -0.233,1.304 -0.27,0.48 -0.239,3.939 0.043,5.05 0.129,0.508 0.233,1.084 0.233,1.281 0,0.197 0.084,0.445 0.186,0.547 0.102,0.102 0.186,0.337 0.186,0.524 0,0.187 0.082,0.45 0.182,0.582 0.1,0.133 0.184,0.343 0.186,0.466 0.002,0.122 0.062,0.29 0.132,0.373 0.07,0.083 0.305,0.427 0.524,0.769 0.219,0.342 0.468,0.694 0.555,0.784 0.087,0.09 0.159,0.211 0.159,0.268 0,0.173 2.496,2.598 2.76,2.682 0.135,0.043 0.351,0.184 0.481,0.314 0.243,0.243 1.706,0.982 1.945,0.982 0.073,0 0.152,0.045 0.175,0.101 0.056,0.138 1.148,0.514 1.886,0.648 0.331,0.06 0.672,0.171 0.761,0.245 0.088,0.073 0.619,0.155 1.18,0.182 0.561,0.028 1.058,0.085 1.102,0.132 0.08,0.084 5.246,-0.006 6.893,-0.12 0.467,-0.032 0.919,-0.115 1.01,-0.186 0.086,-0.071 0.5,-0.166 0.92,-0.21 0.42,-0.044 0.827,-0.156 0.904,-0.248 0.077,-0.093 0.301,-0.171 0.501,-0.171 0.199,0 0.582,-0.112 0.85,-0.248 0.268,-0.137 0.622,-0.248 0.788,-0.248 0.166,0 0.333,-0.084 0.373,-0.186 0.045,-0.117 0.237,-0.186 0.512,-0.186 0.241,0 0.439,-0.053 0.439,-0.116 0,-0.064 0.126,-0.153 0.279,-0.202 0.51,-0.162 2.313,-1.046 2.391,-1.172 0.042,-0.068 0.187,-0.124 0.322,-0.124 0.135,0 0.276,-0.083 0.314,-0.182 0.038,-0.1 0.188,-0.218 0.334,-0.264 0.23,-0.073 0.894,-0.486 1.079,-0.671 0.23,-0.23 0.893,-0.621 1.052,-0.621 0.105,0 0.19,-0.045 0.19,-0.101 0,-0.111 0.952,-0.768 1.114,-0.768 0.055,0 0.131,-0.084 0.171,-0.186 0.039,-0.102 0.155,-0.186 0.256,-0.186 0.101,0 0.27,-0.124 0.377,-0.276 0.106,-0.152 0.194,-0.238 0.194,-0.19 0,0.048 0.135,0.035 0.299,-0.027 0.164,-0.063 0.318,-0.09 0.345,-0.062 0.097,0.097 -0.165,1.969 -0.326,2.329 -0.057,0.128 -0.014,0.561 0.105,1.032 0.158,0.627 0.314,0.923 0.687,1.3 0.266,0.269 0.559,0.489 0.652,0.489 0.093,0 0.308,0.098 0.477,0.217 0.279,0.198 0.736,0.22 5.03,0.225 4.917,0.005 6.164,-0.057 6.245,-0.299 0.026,-0.079 0.242,-0.144 0.477,-0.144 0.266,0 0.452,-0.071 0.497,-0.186 0.039,-0.102 0.149,-0.186 0.245,-0.186 0.095,0 0.272,-0.083 0.392,-0.186 0.702,-0.609 1.025,-0.936 1.025,-1.036 0,-0.062 0.087,-0.183 0.194,-0.272 0.288,-0.239 0.675,-1.108 0.675,-1.514 0,-0.196 0.081,-0.519 0.182,-0.714 0.101,-0.196 0.222,-0.68 0.268,-1.079 0.046,-0.399 0.138,-0.759 0.206,-0.803 0.067,-0.044 0.145,-0.379 0.175,-0.745 0.029,-0.366 0.107,-0.779 0.171,-0.916 0.064,-0.137 0.166,-0.5 0.225,-0.807 0.098,-0.512 0.333,-1.528 0.652,-2.795 0.069,-0.273 0.175,-0.83 0.233,-1.238 0.058,-0.408 0.163,-0.763 0.237,-0.788 0.074,-0.025 0.136,-0.33 0.136,-0.683 0,-0.353 0.084,-0.805 0.186,-1 0.102,-0.196 0.224,-0.672 0.268,-1.056 0.044,-0.384 0.156,-0.808 0.248,-0.943 0.092,-0.135 0.167,-0.47 0.167,-0.745 0,-0.275 0.084,-0.658 0.186,-0.854 0.102,-0.196 0.186,-0.577 0.186,-0.846 0,-0.269 0.079,-0.646 0.179,-0.838 0.099,-0.192 0.237,-0.681 0.303,-1.083 0.066,-0.402 0.178,-0.887 0.252,-1.079 0.074,-0.192 0.136,-0.542 0.136,-0.78 0,-0.238 0.081,-0.596 0.182,-0.792 0.101,-0.196 0.222,-0.68 0.268,-1.079 0.046,-0.399 0.16,-0.836 0.252,-0.97 0.092,-0.135 0.167,-0.502 0.167,-0.815 0,-0.313 0.082,-0.679 0.182,-0.811 0.1,-0.133 0.184,-0.452 0.186,-0.71 0.002,-0.258 0.087,-0.669 0.19,-0.916 0.103,-0.247 0.222,-0.762 0.264,-1.145 0.042,-0.383 0.154,-0.823 0.248,-0.974 0.094,-0.151 0.171,-0.549 0.171,-0.885 0,-0.391 0.067,-0.666 0.186,-0.765 0.122,-0.101 0.186,-0.378 0.186,-0.796 0,-0.354 0.08,-0.752 0.179,-0.893 0.098,-0.139 0.216,-0.613 0.264,-1.052 0.048,-0.439 0.155,-0.939 0.241,-1.11 0.152,-0.305 0.337,-2.573 0.345,-4.285 0.009,-1.808 -0.367,-3.945 -0.854,-4.879 -0.096,-0.184 -0.175,-0.4 -0.175,-0.477 0,-0.077 -0.084,-0.21 -0.186,-0.295 -0.102,-0.085 -0.186,-0.26 -0.186,-0.388 0,-0.128 -0.06,-0.233 -0.132,-0.233 -0.072,0 -0.198,-0.167 -0.283,-0.369 -0.326,-0.776 -3.168,-3.357 -3.695,-3.357 -0.073,0 -0.216,-0.084 -0.318,-0.186 -0.102,-0.102 -0.287,-0.186 -0.411,-0.186 -0.124,0 -0.26,-0.084 -0.299,-0.186 -0.039,-0.102 -0.217,-0.186 -0.396,-0.186 -0.179,0 -0.467,-0.112 -0.64,-0.248 -0.174,-0.137 -0.472,-0.248 -0.66,-0.248 -0.187,0 -0.408,-0.084 -0.493,-0.186 -0.087,-0.105 -0.358,-0.186 -0.621,-0.186 -0.257,0 -0.532,-0.074 -0.609,-0.167 -0.077,-0.093 -0.438,-0.205 -0.803,-0.248 -0.365,-0.043 -0.867,-0.165 -1.114,-0.268 -0.247,-0.103 -0.725,-0.186 -1.067,-0.186 -0.342,0 -0.837,-0.083 -1.095,-0.182 -0.258,-0.1 -0.997,-0.208 -1.646,-0.241 -0.649,-0.032 -1.403,-0.09 -1.677,-0.132 -1.143,-0.173 -4.752,-0.262 -7.957,-0.252 m 4.192,29.689 c 0.684,-0.01 1.013,0.048 1.102,0.182 0.147,0.221 0.024,1.519 -0.155,1.63 -0.068,0.042 -0.165,0.405 -0.213,0.807 -0.049,0.402 -0.155,0.852 -0.237,1 -0.082,0.149 -0.147,0.548 -0.147,0.889 0,0.34 -0.061,0.64 -0.132,0.664 -0.071,0.024 -0.176,0.396 -0.237,0.827 -0.061,0.431 -0.175,0.858 -0.252,0.951 -0.077,0.093 -0.174,0.495 -0.213,0.893 -0.04,0.398 -0.148,0.832 -0.241,0.966 -0.092,0.135 -0.167,0.481 -0.167,0.769 0,0.287 -0.077,0.597 -0.171,0.691 -0.093,0.093 -0.212,0.31 -0.264,0.477 -0.109,0.353 -1.413,1.722 -1.646,1.727 -0.086,0.002 -0.256,0.116 -0.373,0.252 -0.117,0.137 -0.302,0.248 -0.415,0.248 -0.113,0 -0.276,0.084 -0.361,0.186 -0.085,0.102 -0.262,0.186 -0.392,0.186 -0.13,0 -0.269,0.08 -0.307,0.179 -0.038,0.098 -0.242,0.217 -0.454,0.264 -0.212,0.047 -0.465,0.162 -0.559,0.256 -0.094,0.094 -0.271,0.171 -0.392,0.171 -0.121,0 -0.347,0.112 -0.505,0.248 -0.158,0.137 -0.432,0.25 -0.609,0.252 -0.177,0.002 -0.43,0.086 -0.563,0.186 -0.133,0.1 -0.388,0.182 -0.567,0.182 -0.179,0 -0.434,0.082 -0.567,0.182 -0.143,0.108 -0.523,0.184 -0.932,0.186 -0.379,0.002 -0.742,0.053 -0.807,0.113 -0.183,0.169 -1.884,0.239 -2.849,0.116 -0.478,-0.06 -1.26,-0.141 -1.735,-0.179 -0.475,-0.038 -0.976,-0.148 -1.114,-0.245 -0.137,-0.096 -0.362,-0.175 -0.501,-0.175 -0.139,0 -0.416,-0.108 -0.617,-0.241 -0.201,-0.132 -0.413,-0.212 -0.474,-0.175 -0.06,0.037 -0.203,-0.02 -0.318,-0.128 -0.115,-0.108 -0.388,-0.351 -0.605,-0.54 -0.418,-0.363 -1.032,-1.201 -1.032,-1.409 0,-0.068 -0.092,-0.263 -0.202,-0.431 -0.167,-0.255 -0.19,-0.602 -0.151,-2.1 0.031,-1.206 0.095,-1.849 0.198,-1.952 0.084,-0.084 0.155,-0.337 0.155,-0.563 0,-0.247 0.1,-0.511 0.252,-0.664 0.139,-0.139 0.222,-0.299 0.186,-0.357 -0.036,-0.058 0.019,-0.176 0.12,-0.26 0.102,-0.084 0.186,-0.228 0.186,-0.318 0,-0.09 0.097,-0.237 0.217,-0.326 0.121,-0.089 0.32,-0.321 0.442,-0.512 0.122,-0.192 0.304,-0.377 0.404,-0.415 0.099,-0.038 0.366,-0.244 0.59,-0.458 0.633,-0.605 0.882,-0.781 1.564,-1.095 0.348,-0.16 0.633,-0.333 0.633,-0.384 0,-0.052 0.098,-0.093 0.217,-0.093 0.12,0 0.385,-0.113 0.59,-0.248 0.205,-0.136 0.546,-0.248 0.761,-0.248 0.232,0 0.419,-0.076 0.462,-0.186 0.05,-0.13 0.255,-0.186 0.671,-0.186 0.329,0 0.714,-0.082 0.858,-0.182 0.143,-0.1 0.566,-0.206 0.943,-0.237 0.377,-0.031 0.859,-0.144 1.067,-0.252 0.227,-0.117 0.694,-0.197 1.161,-0.198 0.43,-0.001 1.01,-0.084 1.281,-0.182 0.298,-0.107 0.978,-0.179 1.7,-0.182 0.662,-0.003 1.233,-0.054 1.269,-0.113 0.067,-0.108 0.689,-0.187 2.806,-0.357 0.692,-0.055 1.228,-0.087 1.638,-0.093"
           inkscape:connector-curvature="0"
           id="path45" />
        <path
           d="m 298.69,-210.77 c -1.372,0 -2.886,0.001 -4.553,0.004 -13.13,0.02 -14,0.033 -14.229,0.237 -0.132,0.12 -0.356,0.217 -0.497,0.217 -0.141,0 -0.291,0.084 -0.33,0.186 -0.039,0.102 -0.134,0.186 -0.213,0.186 -0.186,0 -1.23,1.041 -1.23,1.227 0,0.077 -0.052,0.14 -0.113,0.14 -0.061,0 -0.147,0.154 -0.194,0.342 -0.047,0.188 -0.157,0.425 -0.245,0.528 -0.088,0.102 -0.196,0.488 -0.237,0.854 -0.041,0.366 -0.133,0.735 -0.206,0.823 -0.073,0.088 -0.168,0.461 -0.21,0.827 -0.042,0.366 -0.152,0.773 -0.245,0.908 -0.092,0.135 -0.168,0.526 -0.171,0.869 -0.002,0.343 -0.085,0.765 -0.182,0.935 -0.098,0.171 -0.18,0.604 -0.182,0.963 -0.003,0.482 -0.068,0.717 -0.252,0.9 -0.181,0.181 -0.248,0.417 -0.248,0.858 0,0.334 -0.084,0.767 -0.186,0.963 -0.102,0.196 -0.186,0.639 -0.186,0.99 0,0.414 -0.065,0.691 -0.186,0.792 -0.113,0.094 -0.186,0.364 -0.186,0.687 0,0.293 -0.112,0.795 -0.248,1.114 -0.137,0.319 -0.248,0.775 -0.248,1.013 0,0.238 -0.064,0.549 -0.14,0.691 -0.076,0.142 -0.188,0.652 -0.248,1.133 -0.06,0.481 -0.157,0.905 -0.217,0.943 -0.06,0.038 -0.152,0.377 -0.202,0.753 -0.05,0.376 -0.141,0.744 -0.202,0.819 -0.061,0.075 -0.146,0.494 -0.19,0.932 -0.044,0.437 -0.156,0.905 -0.248,1.04 -0.092,0.135 -0.167,0.483 -0.167,0.772 0,0.29 -0.112,0.81 -0.248,1.157 -0.137,0.347 -0.25,0.837 -0.252,1.091 -0.002,0.254 -0.086,0.57 -0.186,0.703 -0.1,0.133 -0.184,0.496 -0.186,0.807 -0.002,0.311 -0.085,0.706 -0.182,0.877 -0.098,0.171 -0.18,0.483 -0.182,0.695 -0.002,0.211 -0.116,0.709 -0.252,1.106 -0.137,0.397 -0.25,0.923 -0.252,1.168 -0.002,0.245 -0.085,0.586 -0.182,0.757 -0.098,0.171 -0.18,0.552 -0.182,0.846 -0.002,0.294 -0.082,0.685 -0.175,0.869 -0.093,0.184 -0.207,0.624 -0.252,0.978 -0.045,0.354 -0.164,0.801 -0.264,0.994 -0.1,0.192 -0.182,0.605 -0.182,0.916 0,0.311 -0.082,0.675 -0.182,0.807 -0.1,0.133 -0.184,0.477 -0.186,0.765 -0.002,0.288 -0.116,0.806 -0.252,1.153 -0.137,0.347 -0.248,0.841 -0.248,1.098 0,0.258 -0.082,0.578 -0.182,0.71 -0.1,0.133 -0.184,0.443 -0.186,0.691 -0.002,0.248 -0.091,0.695 -0.198,0.994 -0.107,0.299 -0.208,0.799 -0.221,1.114 -0.013,0.314 -0.098,0.665 -0.19,0.776 -0.092,0.111 -0.204,0.526 -0.252,0.92 -0.048,0.394 -0.155,0.837 -0.237,0.986 -0.082,0.149 -0.147,0.468 -0.147,0.71 0,0.242 -0.078,0.655 -0.175,0.912 -0.097,0.258 -0.206,0.745 -0.241,1.087 -0.035,0.342 -0.153,0.789 -0.26,0.994 -0.107,0.205 -0.194,0.558 -0.194,0.784 0,0.227 -0.069,0.534 -0.151,0.683 -0.082,0.149 -0.184,0.657 -0.229,1.126 -0.045,0.468 -0.138,0.888 -0.206,0.932 -0.067,0.044 -0.155,0.395 -0.194,0.78 -0.039,0.385 -0.156,0.87 -0.264,1.079 -0.108,0.209 -0.198,0.657 -0.198,0.994 0,0.365 -0.07,0.669 -0.171,0.753 -0.093,0.077 -0.199,0.477 -0.237,0.889 -0.037,0.412 -0.122,0.814 -0.19,0.897 -0.068,0.083 -0.164,0.431 -0.21,0.772 -0.046,0.342 -0.163,0.833 -0.26,1.091 -0.097,0.258 -0.175,0.677 -0.175,0.932 0,0.255 -0.076,0.606 -0.167,0.78 -0.091,0.175 -0.205,0.646 -0.252,1.048 -0.047,0.402 -0.138,0.792 -0.202,0.869 -0.064,0.077 -0.154,0.472 -0.198,0.877 -0.044,0.405 -0.158,0.862 -0.252,1.013 -0.247,0.396 -0.235,2.311 0.015,2.519 0.102,0.085 0.186,0.208 0.186,0.276 0,0.067 0.145,0.301 0.326,0.516 0.324,0.385 0.804,0.666 1.413,0.834 0.171,0.047 3.071,0.08 6.447,0.07 4.702,-0.014 6.152,-0.055 6.191,-0.171 0.028,-0.083 0.238,-0.186 0.47,-0.229 0.232,-0.043 0.488,-0.157 0.567,-0.252 0.079,-0.095 0.209,-0.175 0.291,-0.175 0.082,0 0.368,-0.229 0.637,-0.508 0.268,-0.28 0.587,-0.599 0.706,-0.71 0.12,-0.111 0.217,-0.279 0.217,-0.373 0,-0.094 0.112,-0.311 0.248,-0.485 0.137,-0.174 0.248,-0.493 0.248,-0.71 0,-0.217 0.082,-0.504 0.182,-0.637 0.102,-0.135 0.184,-0.515 0.186,-0.866 0.002,-0.343 0.08,-0.734 0.175,-0.869 0.095,-0.135 0.203,-0.552 0.241,-0.928 0.038,-0.375 0.157,-0.891 0.264,-1.145 0.107,-0.254 0.194,-0.624 0.194,-0.823 0,-0.199 0.084,-0.562 0.186,-0.807 0.102,-0.245 0.186,-0.658 0.186,-0.916 0,-0.258 0.09,-0.637 0.198,-0.842 0.108,-0.205 0.223,-0.736 0.256,-1.18 0.033,-0.444 0.14,-0.894 0.237,-1 0.103,-0.115 0.179,-0.456 0.179,-0.823 0,-0.406 0.066,-0.684 0.186,-0.784 0.107,-0.089 0.186,-0.358 0.186,-0.633 0,-0.263 0.081,-0.69 0.182,-0.947 0.102,-0.258 0.24,-0.858 0.307,-1.335 0.066,-0.477 0.177,-0.888 0.248,-0.912 0.071,-0.024 0.132,-0.208 0.132,-0.411 0,-0.835 1.675,-2.703 2.981,-3.322 0.661,-0.314 0.771,-0.324 3.416,-0.365 1.503,-0.023 2.784,-0.092 2.849,-0.155 0.065,-0.064 1.383,-0.116 2.946,-0.116 2.183,0 2.987,-0.043 3.544,-0.194 0.396,-0.108 1.267,-0.212 1.933,-0.233 0.666,-0.021 1.281,-0.097 1.366,-0.167 0.085,-0.07 0.658,-0.168 1.273,-0.217 0.615,-0.049 1.267,-0.166 1.452,-0.26 0.184,-0.094 0.555,-0.171 0.823,-0.171 0.268,0 0.678,-0.079 0.908,-0.175 0.23,-0.096 0.699,-0.214 1.04,-0.264 0.342,-0.05 0.731,-0.167 0.866,-0.26 0.135,-0.093 0.453,-0.171 0.706,-0.171 0.253,0 0.542,-0.084 0.644,-0.186 0.102,-0.102 0.375,-0.186 0.602,-0.186 0.227,0 0.579,-0.113 0.784,-0.248 0.205,-0.136 0.492,-0.248 0.64,-0.248 0.148,0 0.29,-0.059 0.314,-0.132 0.024,-0.073 0.284,-0.162 0.578,-0.202 0.295,-0.04 0.566,-0.148 0.602,-0.241 0.036,-0.093 0.156,-0.171 0.268,-0.171 0.112,0 0.373,-0.113 0.578,-0.248 0.205,-0.136 0.491,-0.248 0.637,-0.248 0.145,0 0.334,-0.084 0.419,-0.186 0.085,-0.102 0.246,-0.186 0.361,-0.186 0.115,0 0.261,-0.049 0.326,-0.113 0.065,-0.063 0.623,-0.379 1.238,-0.699 0.615,-0.32 1.148,-0.636 1.188,-0.699 0.04,-0.063 0.291,-0.231 0.559,-0.373 0.268,-0.142 0.588,-0.364 0.71,-0.493 0.122,-0.129 0.298,-0.233 0.392,-0.233 0.094,0 0.191,-0.042 0.213,-0.093 0.023,-0.051 0.274,-0.253 0.559,-0.446 0.285,-0.194 0.549,-0.431 0.586,-0.528 0.037,-0.097 0.145,-0.175 0.237,-0.175 0.092,0 0.328,-0.168 0.524,-0.373 0.196,-0.205 0.396,-0.373 0.442,-0.373 0.302,0 4.066,-4.244 4.351,-4.906 0.152,-0.354 0.648,-1.056 0.745,-1.056 0.062,0 0.113,-0.108 0.113,-0.241 0,-0.133 0.056,-0.276 0.124,-0.318 0.109,-0.067 0.316,-0.483 1.374,-2.744 0.131,-0.281 0.241,-0.623 0.241,-0.761 0,-0.138 0.084,-0.323 0.186,-0.408 0.103,-0.086 0.186,-0.357 0.186,-0.609 0,-0.25 0.079,-0.569 0.179,-0.71 0.099,-0.142 0.211,-0.531 0.248,-0.866 0.123,-1.089 0.218,-1.541 0.322,-1.541 0.2,0 0.425,-6.408 0.229,-6.528 -0.06,-0.037 -0.109,-0.6 -0.109,-1.25 0,-0.649 -0.059,-1.287 -0.128,-1.417 -0.069,-0.13 -0.205,-0.615 -0.303,-1.079 -0.278,-1.321 -0.512,-2.067 -0.668,-2.119 -0.079,-0.026 -0.144,-0.205 -0.144,-0.4 0,-0.194 -0.072,-0.43 -0.159,-0.52 -0.087,-0.09 -0.267,-0.415 -0.4,-0.722 -0.295,-0.681 -0.812,-1.515 -1.025,-1.65 -0.086,-0.055 -0.155,-0.152 -0.155,-0.217 0,-0.159 -0.228,-0.416 -1.661,-1.863 -0.674,-0.681 -1.272,-1.238 -1.327,-1.238 -0.056,0 -0.284,-0.168 -0.508,-0.373 -0.224,-0.205 -0.463,-0.373 -0.528,-0.373 -0.065,0 -0.207,-0.079 -0.314,-0.175 -0.296,-0.263 -2.874,-1.563 -3.101,-1.564 -0.109,0 -0.366,-0.113 -0.571,-0.248 -0.205,-0.136 -0.491,-0.248 -0.637,-0.248 -0.145,0 -0.334,-0.084 -0.419,-0.186 -0.093,-0.112 -0.365,-0.186 -0.683,-0.186 -0.318,0 -0.59,-0.074 -0.683,-0.186 -0.091,-0.11 -0.364,-0.186 -0.668,-0.186 -0.282,0 -0.68,-0.09 -0.885,-0.198 -0.205,-0.107 -0.865,-0.244 -1.467,-0.307 -0.602,-0.063 -1.2,-0.172 -1.327,-0.241 -0.128,-0.068 -0.785,-0.124 -1.459,-0.124 -0.674,0 -1.281,-0.055 -1.351,-0.124 -0.247,-0.247 -2.928,-0.331 -12.529,-0.334 m -0.928,12.704 c 0.516,-0.003 1.176,-0.003 2.026,0 3.131,0.01 3.837,0.048 4.304,0.217 0.307,0.112 0.902,0.204 1.324,0.206 0.44,0.001 0.785,0.058 0.811,0.136 0.025,0.074 0.318,0.186 0.652,0.248 0.334,0.063 0.702,0.197 0.815,0.299 0.113,0.102 0.327,0.186 0.477,0.186 0.15,0 0.306,0.084 0.345,0.186 0.039,0.102 0.205,0.186 0.365,0.186 0.16,0 0.334,0.07 0.388,0.155 0.116,0.182 0.506,0.443 0.815,0.547 0.12,0.04 0.219,0.108 0.221,0.151 0.002,0.043 0.281,0.383 0.621,0.757 0.34,0.374 0.617,0.753 0.617,0.842 0,0.089 0.084,0.197 0.186,0.237 0.102,0.039 0.186,0.163 0.186,0.276 0,0.112 0.113,0.369 0.248,0.574 0.136,0.205 0.248,0.553 0.248,0.772 0,0.22 0.087,0.659 0.194,0.974 0.196,0.577 0.191,2.138 -0.008,3.159 -0.047,0.239 -0.113,0.784 -0.147,1.211 -0.034,0.427 -0.104,0.776 -0.155,0.776 -0.139,0 -0.38,0.589 -0.38,0.928 0,0.163 -0.084,0.383 -0.186,0.485 -0.102,0.102 -0.186,0.303 -0.186,0.446 0,0.144 -0.084,0.294 -0.186,0.334 -0.102,0.039 -0.186,0.148 -0.186,0.241 0,0.212 -0.993,1.665 -1.137,1.665 -0.059,0 -0.105,0.084 -0.105,0.186 0,0.102 -0.084,0.186 -0.186,0.186 -0.102,0 -0.186,0.055 -0.186,0.12 0,0.15 -0.403,0.549 -1.188,1.18 -0.337,0.271 -0.641,0.531 -0.675,0.578 -0.034,0.047 -0.565,0.345 -1.18,0.664 -0.615,0.318 -1.173,0.631 -1.238,0.695 -0.065,0.064 -0.226,0.116 -0.361,0.116 -0.135,0 -0.34,0.088 -0.458,0.194 -0.118,0.107 -0.394,0.217 -0.613,0.245 -0.567,0.072 -0.869,0.18 -0.869,0.314 0,0.064 -0.238,0.118 -0.528,0.12 -0.29,0.002 -0.636,0.086 -0.769,0.186 -0.142,0.107 -0.513,0.182 -0.904,0.182 -0.365,0 -0.872,0.093 -1.126,0.206 -0.392,0.174 -1.074,0.21 -4.498,0.241 -3.973,0.036 -4.471,0.014 -4.471,-0.198 0,-0.059 -0.126,-0.146 -0.279,-0.194 -0.351,-0.11 -1.328,-1.164 -1.331,-1.436 -0.002,-0.112 -0.086,-0.361 -0.186,-0.555 -0.201,-0.388 -0.167,-1.774 0.047,-1.906 0.066,-0.041 0.133,-0.379 0.151,-0.753 0.018,-0.374 0.117,-0.78 0.217,-0.9 0.1,-0.121 0.209,-0.54 0.241,-0.932 0.032,-0.392 0.108,-0.748 0.171,-0.788 0.063,-0.04 0.166,-0.457 0.233,-0.928 0.067,-0.47 0.178,-0.912 0.245,-0.978 0.066,-0.066 0.122,-0.372 0.124,-0.683 0.002,-0.311 0.113,-0.79 0.245,-1.063 0.132,-0.273 0.242,-0.756 0.245,-1.075 0.002,-0.319 0.063,-0.601 0.136,-0.625 0.073,-0.024 0.185,-0.46 0.248,-0.966 0.064,-0.507 0.17,-0.952 0.237,-0.994 0.067,-0.041 0.174,-0.46 0.241,-0.928 0.066,-0.468 0.18,-0.91 0.252,-0.982 0.072,-0.072 0.132,-0.394 0.132,-0.714 0,-0.404 0.057,-0.603 0.186,-0.652 0.102,-0.039 0.186,-0.18 0.186,-0.311 0,-0.253 1.833,-2.255 2.065,-2.255 0.076,0 0.21,-0.084 0.295,-0.186 0.085,-0.102 0.296,-0.186 0.47,-0.186 0.174,0 0.426,-0.098 0.559,-0.217 0.164,-0.148 0.409,-0.196 1.956,-0.206"
           inkscape:connector-curvature="0"
           id="path47" />
        <path
           d="m 390.65,-139.98 c -0.425,-0.022 -0.763,-0.109 -0.854,-0.217 -0.082,-0.099 -0.274,-0.18 -0.426,-0.18 -0.4,0 -1.253,-1.056 -1.356,-1.679 -0.107,-0.646 -0.106,-0.692 0.024,-1.888 0.061,-0.561 0.168,-1.092 0.239,-1.18 0.07,-0.088 0.167,-0.533 0.214,-0.99 0.049,-0.473 0.163,-0.894 0.264,-0.978 0.115,-0.096 0.177,-0.393 0.177,-0.853 0,-0.429 0.072,-0.801 0.182,-0.947 0.1,-0.133 0.184,-0.493 0.187,-0.8 0.003,-0.307 0.087,-0.716 0.187,-0.908 0.1,-0.192 0.216,-0.639 0.258,-0.994 0.041,-0.354 0.107,-0.728 0.146,-0.83 0.136,-0.357 0.181,-0.563 0.275,-1.242 0.052,-0.376 0.188,-0.932 0.302,-1.237 0.114,-0.304 0.182,-0.62 0.151,-0.701 -0.031,-0.081 0.051,-0.494 0.183,-0.917 0.132,-0.423 0.239,-0.954 0.239,-1.179 0,-0.225 0.084,-0.57 0.186,-0.765 0.102,-0.196 0.186,-0.587 0.186,-0.869 0,-0.283 0.08,-0.666 0.176,-0.852 0.097,-0.186 0.215,-0.673 0.262,-1.082 0.047,-0.409 0.164,-0.891 0.258,-1.073 0.095,-0.181 0.172,-0.584 0.173,-0.896 0,-0.311 0.083,-0.675 0.183,-0.807 0.102,-0.136 0.184,-0.515 0.186,-0.866 0.002,-0.343 0.084,-0.739 0.182,-0.878 0.098,-0.139 0.217,-0.613 0.265,-1.052 0.048,-0.439 0.164,-0.95 0.257,-1.134 0.093,-0.184 0.17,-0.561 0.17,-0.836 0,-0.275 0.079,-0.711 0.176,-0.969 0.096,-0.258 0.207,-0.735 0.246,-1.06 0.039,-0.326 0.156,-0.756 0.259,-0.956 0.104,-0.2 0.188,-0.67 0.188,-1.043 0,-0.386 0.059,-0.699 0.137,-0.725 0.076,-0.025 0.176,-0.415 0.222,-0.867 0.047,-0.452 0.145,-0.897 0.218,-0.989 0.073,-0.093 0.169,-0.528 0.213,-0.967 0.044,-0.439 0.163,-0.926 0.265,-1.082 0.102,-0.156 0.188,-0.551 0.19,-0.878 0.002,-0.327 0.084,-0.734 0.182,-0.905 0.098,-0.171 0.18,-0.562 0.183,-0.869 0.003,-0.307 0.084,-0.71 0.18,-0.894 0.096,-0.184 0.214,-0.7 0.262,-1.145 0.048,-0.445 0.164,-0.874 0.259,-0.953 0.104,-0.087 0.172,-0.385 0.172,-0.757 0,-0.338 0.062,-0.73 0.138,-0.872 0.076,-0.142 0.188,-0.652 0.248,-1.133 0.06,-0.481 0.161,-0.907 0.224,-0.946 0.063,-0.039 0.154,-0.474 0.203,-0.968 0.05,-0.51 0.162,-0.959 0.259,-1.039 0.108,-0.09 0.17,-0.401 0.17,-0.848 0,-0.429 0.072,-0.801 0.182,-0.947 0.1,-0.133 0.184,-0.443 0.186,-0.691 0.002,-0.247 0.116,-0.799 0.252,-1.227 0.137,-0.428 0.248,-0.931 0.248,-1.119 0,-0.188 0.084,-0.542 0.186,-0.787 0.102,-0.245 0.186,-0.636 0.186,-0.869 0,-0.233 0.084,-0.624 0.186,-0.869 0.102,-0.245 0.186,-0.635 0.186,-0.865 0,-0.231 0.112,-0.744 0.248,-1.141 0.137,-0.397 0.248,-0.926 0.248,-1.176 0,-0.25 0.082,-0.562 0.182,-0.695 0.102,-0.135 0.184,-0.515 0.187,-0.862 0.003,-0.342 0.089,-0.782 0.191,-0.978 0.102,-0.196 0.222,-0.672 0.265,-1.056 0.043,-0.384 0.132,-0.766 0.197,-0.849 0.065,-0.083 0.149,-0.502 0.185,-0.932 0.037,-0.43 0.137,-0.865 0.222,-0.967 0.085,-0.102 0.182,-0.48 0.214,-0.84 0.033,-0.359 0.151,-0.755 0.264,-0.879 0.112,-0.124 0.204,-0.319 0.204,-0.433 0,-0.114 0.058,-0.208 0.128,-0.208 0.07,0 0.163,-0.098 0.205,-0.217 0.111,-0.316 0.553,-0.776 0.744,-0.776 0.091,0 0.165,-0.051 0.165,-0.112 0,-0.145 0.973,-0.716 1.406,-0.825 0.183,-0.046 0.333,-0.133 0.333,-0.194 0,-0.063 2.553,-0.111 5.962,-0.111 3.605,0 5.962,0.046 5.962,0.116 0,0.064 0.126,0.153 0.279,0.199 0.154,0.046 0.489,0.308 0.745,0.583 0.37,0.396 0.466,0.597 0.466,0.973 0,0.261 0.06,0.511 0.133,0.556 0.08,0.05 0.101,0.261 0.052,0.535 -0.045,0.249 -0.122,0.844 -0.173,1.323 -0.05,0.478 -0.15,0.981 -0.221,1.118 -0.071,0.137 -0.161,0.574 -0.2,0.971 -0.039,0.398 -0.127,0.79 -0.195,0.873 -0.068,0.082 -0.162,0.456 -0.209,0.83 -0.046,0.374 -0.162,0.804 -0.256,0.955 -0.095,0.151 -0.172,0.526 -0.172,0.834 0,0.307 -0.112,0.842 -0.248,1.189 -0.137,0.347 -0.25,0.866 -0.253,1.153 -0.002,0.288 -0.084,0.663 -0.182,0.834 -0.098,0.171 -0.181,0.562 -0.186,0.869 -0.005,0.307 -0.089,0.699 -0.186,0.869 -0.098,0.171 -0.179,0.593 -0.182,0.938 -0.002,0.345 -0.059,0.682 -0.126,0.749 -0.143,0.143 -0.589,2.118 -0.74,3.277 -0.058,0.442 -0.167,0.824 -0.242,0.849 -0.076,0.025 -0.137,0.292 -0.137,0.593 0,0.301 -0.112,0.841 -0.248,1.201 -0.137,0.359 -0.248,0.879 -0.248,1.154 0,0.275 -0.076,0.61 -0.168,0.745 -0.093,0.135 -0.199,0.596 -0.237,1.026 -0.038,0.43 -0.122,0.849 -0.187,0.932 -0.065,0.083 -0.156,0.485 -0.202,0.893 -0.046,0.409 -0.165,0.868 -0.265,1.02 -0.1,0.153 -0.184,0.573 -0.186,0.934 -0.002,0.379 -0.081,0.758 -0.186,0.898 -0.1,0.133 -0.182,0.48 -0.182,0.772 0,0.292 -0.112,0.814 -0.248,1.161 -0.137,0.347 -0.248,0.817 -0.248,1.045 0,0.228 -0.084,0.616 -0.186,0.861 -0.102,0.245 -0.186,0.692 -0.186,0.994 0,0.309 -0.073,0.608 -0.168,0.687 -0.093,0.077 -0.201,0.489 -0.241,0.916 -0.04,0.427 -0.16,0.984 -0.266,1.238 -0.106,0.254 -0.193,0.663 -0.193,0.909 0,0.246 -0.062,0.563 -0.138,0.705 -0.076,0.142 -0.187,0.649 -0.247,1.126 -0.06,0.478 -0.177,0.95 -0.26,1.05 -0.083,0.1 -0.135,0.403 -0.116,0.673 0.02,0.278 -0.043,0.611 -0.145,0.767 -0.099,0.152 -0.221,0.638 -0.27,1.08 -0.049,0.442 -0.168,0.966 -0.264,1.165 -0.096,0.198 -0.175,0.59 -0.175,0.869 0,0.28 -0.089,0.676 -0.196,0.881 -0.107,0.205 -0.215,0.681 -0.24,1.057 -0.025,0.377 -0.132,0.852 -0.238,1.056 -0.106,0.204 -0.194,0.626 -0.194,0.937 0,0.311 -0.083,0.675 -0.183,0.807 -0.1,0.133 -0.184,0.498 -0.186,0.812 -0.002,0.314 -0.092,0.747 -0.199,0.962 -0.107,0.215 -0.227,0.713 -0.265,1.106 -0.038,0.393 -0.126,0.785 -0.194,0.871 -0.068,0.086 -0.166,0.587 -0.218,1.113 -0.051,0.526 -0.156,0.977 -0.232,1 -0.076,0.025 -0.138,0.296 -0.138,0.601 0,0.305 -0.09,0.729 -0.2,0.941 -0.11,0.213 -0.229,0.727 -0.265,1.143 -0.036,0.416 -0.117,0.822 -0.181,0.903 -0.064,0.081 -0.169,0.523 -0.234,0.984 -0.065,0.46 -0.167,0.897 -0.225,0.971 -0.059,0.074 -0.145,0.506 -0.192,0.96 -0.047,0.455 -0.164,0.93 -0.26,1.056 -0.1,0.132 -0.175,0.528 -0.178,0.933 -0.002,0.387 -0.061,0.723 -0.131,0.746 -0.07,0.023 -0.175,0.347 -0.234,0.72 -0.059,0.373 -0.169,0.698 -0.246,0.724 -0.076,0.025 -0.139,0.145 -0.139,0.265 0,0.12 -0.112,0.32 -0.248,0.444 -0.137,0.124 -0.248,0.279 -0.248,0.346 0,0.308 -1.651,1.579 -2.051,1.579 -0.106,0 -0.343,0.098 -0.525,0.217 -0.302,0.198 -0.775,0.217 -5.243,0.217 -2.701,0 -5.228,-0.017 -5.615,-0.037"
           inkscape:connector-curvature="0"
           id="path49" />
      </g>
      <g
         transform="matrix(1.76286,0,0,1.76286,115.22,-120.97)"
         id="g51">
        <path
           d="m 202.53,-114.92 c -0.085,-0.137 -0.228,-0.248 -0.317,-0.248 -0.089,0 -0.29,-0.173 -0.447,-0.385 -0.251,-0.339 -0.279,-0.497 -0.237,-1.326 0.03,-0.594 0.104,-0.96 0.199,-0.992 0.083,-0.028 0.152,-0.139 0.152,-0.247 0,-0.181 0.566,-1.255 0.736,-1.398 0.041,-0.034 0.241,-0.386 0.445,-0.781 0.204,-0.395 0.427,-0.815 0.496,-0.932 0.068,-0.117 0.343,-0.604 0.611,-1.082 0.268,-0.478 0.533,-0.887 0.59,-0.91 0.057,-0.023 0.103,-0.096 0.103,-0.163 0,-0.067 0.279,-0.595 0.621,-1.173 0.342,-0.578 0.621,-1.087 0.621,-1.131 0,-0.044 0.076,-0.168 0.169,-0.276 0.093,-0.108 0.38,-0.587 0.639,-1.066 0.259,-0.478 0.864,-1.54 1.345,-2.36 0.481,-0.82 1.175,-2.02 1.542,-2.67 0.367,-0.649 0.716,-1.264 0.777,-1.366 0.06,-0.102 0.309,-0.539 0.552,-0.969 l 0.442,-0.783 -0.003,-2.384 c -0.002,-1.311 -0.058,-2.608 -0.125,-2.881 -0.067,-0.273 -0.206,-1.084 -0.308,-1.801 -0.312,-2.191 -0.439,-3 -0.617,-3.975 -0.19,-1.035 -0.384,-2.227 -0.575,-3.54 -0.07,-0.478 -0.177,-1.037 -0.239,-1.242 -0.062,-0.205 -0.167,-0.82 -0.232,-1.366 -0.066,-0.546 -0.177,-1.301 -0.248,-1.677 -0.47,-2.494 -0.634,-3.475 -0.636,-3.796 -0.001,-0.201 -0.082,-0.589 -0.181,-0.862 -0.098,-0.273 -0.181,-0.783 -0.184,-1.133 -0.003,-0.35 -0.089,-0.874 -0.192,-1.164 -0.102,-0.29 -0.188,-0.731 -0.191,-0.978 -0.002,-0.248 -0.088,-0.813 -0.191,-1.257 -0.103,-0.444 -0.234,-1.171 -0.292,-1.615 -0.103,-0.793 -0.238,-1.561 -0.58,-3.291 -0.094,-0.478 -0.206,-1.205 -0.248,-1.615 -0.042,-0.41 -0.12,-0.829 -0.174,-0.932 -0.054,-0.102 -0.164,-0.686 -0.244,-1.298 -0.081,-0.611 -0.179,-1.164 -0.218,-1.228 -0.04,-0.064 -0.114,-0.458 -0.165,-0.876 -0.113,-0.93 -0.444,-2.833 -0.686,-3.944 -0.099,-0.454 -0.179,-1.052 -0.179,-1.329 0,-0.277 -0.056,-0.633 -0.125,-0.79 -0.069,-0.157 -0.207,-0.816 -0.307,-1.465 -0.245,-1.592 -0.593,-3.588 -0.952,-5.465 -0.072,-0.376 -0.204,-1.13 -0.293,-1.677 -0.089,-0.547 -0.235,-1.371 -0.323,-1.833 -0.146,-0.761 -0.138,-0.905 0.079,-1.546 0.246,-0.723 0.702,-1.3 1.363,-1.724 0.355,-0.227 0.669,-0.239 6.583,-0.239 h 6.21 l 0.864,0.435 c 0.829,0.417 2.303,1.692 2.303,1.992 0,0.076 0.073,0.211 0.163,0.3 0.233,0.233 0.679,2.443 1.268,6.278 0.11,0.717 0.282,1.723 0.382,2.236 0.1,0.512 0.2,1.127 0.221,1.366 0.022,0.239 0.129,0.938 0.239,1.553 0.376,2.107 0.482,2.734 0.653,3.85 0.094,0.615 0.227,1.425 0.296,1.801 0.069,0.376 0.212,1.214 0.319,1.863 0.106,0.649 0.275,1.655 0.375,2.236 0.1,0.581 0.216,1.363 0.257,1.739 0.042,0.376 0.154,0.959 0.249,1.296 0.096,0.337 0.174,0.875 0.174,1.195 0,0.321 0.084,0.82 0.186,1.111 0.102,0.29 0.186,0.766 0.186,1.057 0,0.291 0.092,0.814 0.204,1.162 0.395,1.224 1.161,1.277 1.845,0.127 0.205,-0.345 0.484,-0.805 0.621,-1.022 0.137,-0.218 0.382,-0.646 0.546,-0.953 0.164,-0.306 0.373,-0.645 0.466,-0.753 0.092,-0.108 0.168,-0.234 0.168,-0.28 0,-0.066 2.976,-5.243 3.475,-6.04 0.064,-0.102 0.476,-0.801 0.917,-1.553 0.711,-1.213 0.997,-1.71 1.5,-2.608 0.076,-0.137 0.281,-0.472 0.455,-0.745 0.174,-0.273 0.351,-0.59 0.393,-0.705 0.042,-0.114 0.232,-0.45 0.422,-0.745 0.397,-0.619 0.648,-1.038 1.128,-1.89 0.188,-0.334 0.399,-0.699 0.467,-0.811 0.068,-0.112 0.46,-0.779 0.869,-1.483 0.41,-0.704 0.842,-1.429 0.961,-1.611 0.119,-0.182 0.276,-0.47 0.349,-0.64 0.074,-0.169 0.173,-0.337 0.222,-0.373 0.048,-0.036 0.156,-0.204 0.24,-0.375 0.083,-0.171 0.207,-0.394 0.275,-0.497 0.068,-0.102 0.774,-1.304 1.569,-2.67 0.795,-1.366 1.644,-2.736 1.888,-3.043 0.982,-1.241 3.044,-2.524 4.619,-2.874 0.997,-0.222 13.544,-0.302 14.198,-0.09 0.558,0.18 0.955,0.681 0.955,1.204 0,0.506 -0.362,1.889 -0.574,2.192 -0.094,0.135 -0.171,0.344 -0.171,0.466 0,0.121 -0.045,0.221 -0.1,0.221 -0.055,0 -0.197,0.218 -0.314,0.485 -0.118,0.267 -0.352,0.688 -0.521,0.937 -0.169,0.249 -0.307,0.474 -0.307,0.502 0,0.027 -0.31,0.57 -0.688,1.205 -0.379,0.636 -0.754,1.268 -0.835,1.404 -0.08,0.137 -0.281,0.468 -0.445,0.736 -0.165,0.268 -0.467,0.799 -0.673,1.18 -0.206,0.381 -0.441,0.776 -0.524,0.879 -0.082,0.102 -0.189,0.27 -0.236,0.373 -0.098,0.212 -0.246,0.458 -0.736,1.217 -0.189,0.294 -0.398,0.657 -0.463,0.807 -0.065,0.15 -0.329,0.609 -0.587,1.019 -0.258,0.41 -1.77,2.953 -3.361,5.651 -1.591,2.698 -2.942,4.99 -3,5.092 -0.061,0.102 -0.351,0.596 -0.645,1.096 -0.294,0.5 -0.632,1.059 -0.75,1.242 -0.119,0.183 -0.272,0.463 -0.342,0.622 -0.07,0.159 -0.28,0.523 -0.468,0.809 -0.508,0.775 -0.629,0.976 -0.836,1.386 -0.103,0.205 -0.297,0.54 -0.43,0.745 -0.133,0.205 -0.329,0.526 -0.435,0.714 -0.106,0.188 -0.28,0.495 -0.387,0.683 -0.106,0.188 -0.288,0.488 -0.404,0.667 -0.116,0.179 -0.428,0.71 -0.695,1.18 -0.266,0.47 -0.664,1.134 -0.883,1.476 -0.219,0.342 -0.667,1.096 -0.995,1.677 -0.328,0.581 -0.727,1.234 -0.887,1.451 -0.16,0.217 -0.291,0.48 -0.291,0.583 0,0.103 -0.053,0.22 -0.118,0.26 -0.065,0.04 -0.599,0.896 -1.186,1.901 -0.587,1.01 -1.135,1.938 -1.217,2.072 -0.082,0.134 -0.289,0.469 -0.459,0.745 -0.17,0.276 -0.38,0.641 -0.466,0.812 -0.086,0.171 -0.268,0.478 -0.403,0.683 -0.136,0.205 -0.303,0.484 -0.372,0.621 -0.069,0.137 -0.195,0.36 -0.28,0.497 -0.085,0.137 -0.327,0.528 -0.539,0.869 -0.212,0.342 -0.424,0.705 -0.472,0.807 -0.048,0.102 -0.155,0.298 -0.238,0.435 -0.083,0.137 -0.444,0.731 -0.802,1.321 -0.359,0.59 -0.652,1.104 -0.652,1.143 0,0.038 -0.16,0.31 -0.356,0.604 -0.196,0.294 -0.512,0.814 -0.702,1.155 -0.191,0.342 -0.409,0.733 -0.486,0.869 -0.077,0.137 -0.293,0.487 -0.48,0.778 -0.188,0.291 -0.493,0.802 -0.68,1.135 -0.266,0.475 -1.486,2.532 -2.511,4.235 -0.062,0.102 -0.351,0.605 -0.643,1.118 -0.292,0.512 -0.567,0.959 -0.612,0.994 -0.045,0.034 -0.232,0.342 -0.415,0.683 -0.762,1.416 -1.098,1.998 -1.263,2.183 -0.096,0.108 -0.174,0.235 -0.174,0.282 0,0.047 -0.152,0.322 -0.338,0.611 -0.186,0.289 -0.401,0.637 -0.478,0.774 -0.077,0.137 -0.256,0.444 -0.398,0.683 -0.143,0.239 -0.396,0.686 -0.564,0.994 -0.168,0.307 -0.507,0.865 -0.754,1.239 -0.247,0.374 -0.449,0.747 -0.449,0.828 0,0.081 -0.047,0.166 -0.104,0.189 -0.057,0.023 -0.564,0.837 -1.126,1.809 -0.562,0.972 -1.074,1.8 -1.138,1.839 -0.064,0.04 -0.116,0.156 -0.116,0.26 0,0.103 -0.07,0.266 -0.155,0.361 -0.085,0.095 -0.435,0.5 -0.776,0.9 -0.966,1.132 -2.648,2.278 -3.606,2.458 -0.228,0.043 -0.511,0.184 -0.628,0.314 -0.205,0.226 -0.484,0.236 -6.685,0.236 -6.337,0 -6.475,-0.005 -6.627,-0.248"
           inkscape:connector-curvature="0"
           id="path53" />
        <path
           d="m 173.68,-194.97 c -5.903,0 -7.861,0.106 -10.806,0.578 -0.444,0.071 -1.227,0.179 -1.739,0.241 -0.512,0.062 -1.345,0.196 -1.848,0.299 -0.503,0.102 -1.068,0.186 -1.258,0.186 -0.189,0 -0.543,0.084 -0.788,0.186 -0.245,0.102 -0.608,0.186 -0.803,0.186 -0.46,0 -2.02,0.479 -2.271,0.699 -0.108,0.093 -0.254,0.171 -0.326,0.171 -0.277,0 -2.022,1.883 -2.022,2.181 0,0.044 -0.084,0.254 -0.186,0.47 -0.243,0.512 -0.548,1.594 -0.679,2.403 -0.058,0.355 -0.147,0.714 -0.198,0.796 -0.051,0.082 -0.164,0.491 -0.252,0.908 -0.089,0.417 -0.279,1.26 -0.423,1.875 -0.48,2.055 -0.35,3.145 0.404,3.408 0.724,0.252 1.442,0.123 3.695,-0.671 0.239,-0.084 0.63,-0.222 0.869,-0.307 0.239,-0.084 1.022,-0.295 1.739,-0.466 0.717,-0.171 1.612,-0.383 1.987,-0.474 0.962,-0.231 2.029,-0.429 3.043,-0.571 0.478,-0.067 1.121,-0.182 1.428,-0.252 1.795,-0.413 7.508,-0.393 10.185,0.035 5.02,0.803 7.07,2.606 6.909,6.094 -0.069,1.525 -0.713,2.084 -2.403,2.088 -0.816,0.002 -1.74,0.079 -3.637,0.307 -0.171,0.02 -0.73,0.073 -1.242,0.116 -1.176,0.099 -3.996,0.413 -5.217,0.582 -0.512,0.071 -1.407,0.181 -1.987,0.245 -0.581,0.064 -1.469,0.201 -1.972,0.303 -0.503,0.102 -1.089,0.184 -1.304,0.182 -0.215,-0.001 -0.807,0.087 -1.32,0.194 -0.512,0.107 -1.49,0.309 -2.174,0.45 -0.683,0.141 -1.454,0.333 -1.712,0.427 -0.258,0.094 -0.621,0.171 -0.807,0.171 -0.186,0 -0.499,0.084 -0.695,0.186 -0.196,0.102 -0.444,0.186 -0.551,0.186 -0.265,0 -1.747,0.479 -2.154,0.695 -0.181,0.096 -0.424,0.175 -0.54,0.175 -0.116,0 -0.358,0.079 -0.54,0.175 -0.181,0.096 -0.693,0.328 -1.137,0.516 -0.913,0.388 -2.452,1.113 -2.732,1.289 -0.102,0.064 -0.592,0.352 -1.087,0.637 -0.495,0.285 -0.9,0.568 -0.9,0.629 0,0.06 -0.062,0.109 -0.136,0.109 -0.47,0 -3.645,3.01 -4.417,4.192 -0.258,0.394 -0.499,0.742 -0.536,0.776 -0.129,0.121 -0.449,0.725 -1.265,2.395 -0.126,0.258 -0.229,0.529 -0.229,0.602 0,0.073 -0.075,0.309 -0.167,0.524 -0.611,1.424 -1.075,4.374 -1.075,6.839 0,2.781 0.534,4.966 1.673,6.843 0.166,0.273 0.345,0.588 0.4,0.699 0.168,0.341 1.171,1.504 1.894,2.197 2.114,2.026 5.372,3.457 8.415,3.699 0.602,0.048 1.206,0.13 1.343,0.182 0.56,0.217 5.855,-0.106 7.328,-0.446 1.114,-0.258 2.553,-0.667 2.798,-0.796 0.105,-0.055 0.384,-0.139 0.621,-0.19 0.237,-0.051 0.571,-0.166 0.741,-0.252 0.171,-0.086 0.618,-0.284 0.994,-0.439 1.342,-0.552 3.02,-1.411 3.33,-1.704 0.09,-0.085 0.243,-0.155 0.338,-0.155 0.094,0 0.213,-0.072 0.268,-0.159 0.055,-0.087 0.241,-0.223 0.411,-0.307 0.471,-0.23 0.843,-0.478 1.444,-0.959 0.215,-0.172 0.429,-0.314 0.474,-0.314 0.074,0 0.796,-0.477 0.939,-0.621 0.236,-0.237 0.895,-0.621 1.064,-0.621 0.173,0 0.191,0.099 0.124,0.652 -0.241,1.984 -0.229,2.399 0.109,3.113 0.35,0.739 0.821,1.163 1.653,1.49 0.467,0.184 1.152,0.21 5.713,0.21 4.355,-10e-4 5.24,-0.03 5.539,-0.186 0.196,-0.102 0.455,-0.186 0.574,-0.186 0.12,0 0.362,-0.112 0.536,-0.248 0.174,-0.137 0.362,-0.248 0.423,-0.248 0.061,0 0.421,-0.297 0.8,-0.664 0.745,-0.721 1.351,-1.681 1.351,-2.139 0,-0.158 0.062,-0.444 0.136,-0.637 0.074,-0.192 0.217,-0.741 0.318,-1.219 0.101,-0.478 0.262,-1.205 0.357,-1.615 0.095,-0.41 0.234,-1.025 0.311,-1.366 0.076,-0.342 0.217,-0.928 0.311,-1.304 0.094,-0.376 0.289,-1.214 0.435,-1.863 0.146,-0.649 0.342,-1.438 0.439,-1.754 0.097,-0.317 0.179,-0.678 0.179,-0.803 0,-0.126 0.188,-1.013 0.419,-1.972 0.489,-2.023 0.642,-2.683 0.881,-3.792 0.096,-0.444 0.258,-1.143 0.361,-1.553 0.442,-1.763 0.685,-2.811 0.815,-3.54 0.098,-0.549 0.372,-1.689 0.699,-2.919 0.191,-0.72 0.373,-1.533 0.602,-2.67 0.089,-0.444 0.229,-0.964 0.307,-1.157 0.077,-0.192 0.14,-0.498 0.14,-0.679 0,-0.181 0.076,-0.555 0.171,-0.831 0.095,-0.276 0.232,-0.808 0.307,-1.184 0.074,-0.376 0.257,-1.186 0.404,-1.801 0.249,-1.043 0.32,-1.651 0.555,-4.627 0.211,-2.675 -0.431,-5.349 -1.77,-7.382 -0.487,-0.74 -2.672,-2.958 -2.915,-2.958 -0.052,0 -0.335,-0.159 -0.629,-0.353 -0.495,-0.328 -1.241,-0.705 -2.146,-1.079 -0.205,-0.085 -0.64,-0.271 -0.966,-0.415 -0.326,-0.145 -0.707,-0.264 -0.846,-0.264 -0.139,0 -0.372,-0.063 -0.516,-0.14 -0.295,-0.158 -1.317,-0.413 -2.701,-0.671 -4.346,-0.811 -5.087,-0.866 -11.675,-0.866 m 3.159,29.817 c 0.257,-0.003 0.398,0.037 0.543,0.132 0.304,0.198 0.308,0.476 0.019,1.661 -0.058,0.239 -0.223,0.938 -0.369,1.553 -0.145,0.615 -0.322,1.337 -0.392,1.603 -0.07,0.266 -0.173,0.741 -0.229,1.056 -0.056,0.315 -0.158,0.738 -0.229,0.943 -0.109,0.316 -0.465,1.825 -0.691,2.919 -0.093,0.451 -0.877,1.61 -1.401,2.077 -0.469,0.418 -0.944,0.691 -2.833,1.619 -2.394,1.175 -3.44,1.54 -5.092,1.778 -0.915,0.132 -3.906,0.123 -4.976,-0.016 -0.346,-0.045 -0.748,-0.148 -0.893,-0.225 -0.144,-0.077 -0.373,-0.14 -0.505,-0.14 -0.271,0 -1.827,-0.784 -2.181,-1.098 -0.302,-0.267 -0.83,-1.08 -1.06,-1.634 -0.099,-0.239 -0.205,-0.994 -0.233,-1.677 -0.06,-1.453 0.179,-2.683 0.749,-3.866 0.594,-1.233 1.648,-2.355 3,-3.206 0.621,-0.391 2.302,-1.188 2.507,-1.188 0.104,0 0.31,-0.063 0.454,-0.14 0.144,-0.077 0.574,-0.214 0.955,-0.303 1.652,-0.385 1.979,-0.457 2.802,-0.613 1.402,-0.266 3.402,-0.547 4.471,-0.629 0.546,-0.042 1.161,-0.124 1.366,-0.182 0.205,-0.058 0.904,-0.143 1.553,-0.186 0.649,-0.044 1.571,-0.127 2.049,-0.186 0.263,-0.032 0.459,-0.049 0.613,-0.05"
           inkscape:connector-curvature="0"
           id="path55" />
        <path
           d="m 106.5,-211.3 c -12.463,0 -14.158,0.022 -14.221,0.186 -0.039,0.102 -0.141,0.186 -0.229,0.186 -0.389,0 -1.462,0.709 -2.123,1.405 -0.763,0.803 -1.155,1.53 -1.327,2.445 -0.058,0.307 -0.161,0.782 -0.229,1.056 -0.068,0.273 -0.186,0.776 -0.264,1.118 -0.078,0.342 -0.23,0.984 -0.334,1.428 -0.104,0.444 -0.258,1.179 -0.345,1.63 -0.087,0.451 -0.196,0.879 -0.241,0.951 -0.075,0.122 -0.192,0.65 -0.621,2.76 -0.184,0.904 -0.388,1.744 -0.648,2.682 -0.096,0.348 -0.175,0.745 -0.175,0.885 0,0.14 -0.081,0.525 -0.179,0.858 -0.097,0.332 -0.293,1.122 -0.435,1.754 -0.142,0.632 -0.375,1.666 -0.516,2.298 -0.142,0.632 -0.337,1.422 -0.435,1.754 -0.097,0.332 -0.175,0.779 -0.175,0.994 0,0.214 -0.084,0.55 -0.186,0.745 -0.102,0.196 -0.186,0.534 -0.186,0.753 0,0.219 -0.079,0.645 -0.175,0.947 -0.096,0.303 -0.299,1.11 -0.45,1.793 -0.152,0.683 -0.352,1.491 -0.446,1.793 -0.094,0.303 -0.171,0.709 -0.171,0.904 0,0.195 -0.075,0.536 -0.167,0.757 -0.092,0.221 -0.211,0.68 -0.26,1.021 -0.049,0.34 -0.166,0.894 -0.264,1.23 -0.098,0.337 -0.179,0.762 -0.179,0.947 0,0.185 -0.084,0.499 -0.186,0.695 -0.102,0.196 -0.186,0.504 -0.186,0.687 0,0.183 -0.061,0.491 -0.136,0.683 -0.075,0.192 -0.211,0.741 -0.303,1.219 -0.092,0.478 -0.229,1.121 -0.303,1.428 -0.074,0.307 -0.194,0.81 -0.268,1.118 -0.074,0.307 -0.215,0.894 -0.314,1.304 -0.099,0.41 -0.255,1.108 -0.345,1.553 -0.091,0.444 -0.235,1.087 -0.318,1.428 -0.083,0.342 -0.221,0.928 -0.311,1.304 -0.089,0.376 -0.261,1.074 -0.38,1.553 -0.12,0.478 -0.237,1.037 -0.264,1.242 -0.027,0.205 -0.129,0.652 -0.225,0.994 -0.096,0.342 -0.235,0.9 -0.311,1.242 -0.075,0.342 -0.21,0.956 -0.303,1.366 -0.093,0.41 -0.257,1.136 -0.365,1.615 -0.108,0.478 -0.311,1.372 -0.454,1.987 -0.143,0.615 -0.32,1.397 -0.392,1.739 -0.072,0.342 -0.208,0.846 -0.303,1.122 -0.095,0.276 -0.171,0.684 -0.171,0.908 0,0.224 -0.05,0.505 -0.113,0.621 -0.062,0.116 -0.199,0.602 -0.303,1.079 -0.104,0.477 -0.279,1.257 -0.388,1.735 -0.109,0.478 -0.301,1.37 -0.431,1.983 -0.13,0.613 -0.295,1.136 -0.369,1.161 -0.158,0.053 -0.192,2.259 -0.035,2.259 0.056,0 0.193,0.188 0.303,0.419 0.258,0.541 1.046,1.203 1.661,1.393 0.755,0.235 11.86,0.234 12.758,0 1.21,-0.315 2.723,-1.51 3.237,-2.554 0.343,-0.696 0.787,-2.319 1.056,-3.854 0.054,-0.307 0.197,-0.922 0.314,-1.366 0.35,-1.32 0.536,-2.104 0.815,-3.416 0.146,-0.683 0.338,-1.521 0.431,-1.863 0.301,-1.113 0.47,-1.852 0.567,-2.5 0.052,-0.35 0.15,-0.741 0.217,-0.869 0.068,-0.128 0.164,-0.54 0.213,-0.916 0.05,-0.376 0.165,-0.872 0.26,-1.102 0.095,-0.23 0.175,-0.533 0.175,-0.671 0,-0.53 0.667,-1.648 1.44,-2.414 0.433,-0.429 0.843,-0.78 0.908,-0.78 0.065,0 0.193,-0.07 0.283,-0.155 0.09,-0.085 0.449,-0.253 0.8,-0.373 0.542,-0.185 1.148,-0.218 4.04,-0.229 1.869,-0.007 3.931,-0.059 4.58,-0.116 0.649,-0.058 2.162,-0.192 3.361,-0.295 1.199,-0.103 2.429,-0.241 2.732,-0.311 0.304,-0.07 0.765,-0.13 1.029,-0.132 0.263,-0.002 0.85,-0.087 1.304,-0.186 0.454,-0.1 1.134,-0.24 1.51,-0.314 1.872,-0.373 4.487,-1.057 5.341,-1.397 0.171,-0.068 0.478,-0.17 0.683,-0.225 0.473,-0.126 1.363,-0.443 1.925,-0.687 0.239,-0.104 0.653,-0.285 0.92,-0.4 2.068,-0.891 6.494,-3.457 7.25,-4.204 0.087,-0.086 0.418,-0.366 0.737,-0.625 1.324,-1.073 2.294,-2 3.202,-3.066 0.342,-0.4 0.679,-0.792 0.749,-0.869 0.626,-0.688 2.09,-2.972 2.608,-4.068 0.174,-0.366 0.364,-0.751 0.419,-0.854 0.282,-0.523 0.527,-1.14 0.765,-1.925 0.145,-0.478 0.342,-1.053 0.439,-1.277 0.097,-0.224 0.175,-0.505 0.175,-0.625 0,-0.12 0.089,-0.552 0.198,-0.959 0.199,-0.739 0.296,-1.483 0.563,-4.398 0.141,-1.539 0.126,-1.822 -0.256,-5.566 -0.058,-0.565 -0.166,-1.18 -0.241,-1.366 -0.075,-0.187 -0.187,-0.565 -0.252,-0.838 -0.065,-0.273 -0.209,-0.748 -0.318,-1.056 -0.776,-2.188 -1.913,-3.96 -3.621,-5.647 -1.03,-1.018 -2.861,-2.426 -3.156,-2.426 -0.066,0 -0.12,-0.047 -0.12,-0.105 0,-0.058 -0.377,-0.286 -0.838,-0.505 -0.461,-0.218 -0.922,-0.439 -1.025,-0.493 -0.663,-0.347 -1.031,-0.512 -1.141,-0.512 -0.07,0 -0.301,-0.076 -0.516,-0.171 -0.575,-0.254 -1.558,-0.572 -2.17,-0.703 -0.295,-0.063 -0.602,-0.154 -0.679,-0.202 -0.145,-0.089 -1.309,-0.334 -2.635,-0.551 -0.41,-0.067 -1.025,-0.179 -1.366,-0.248 -0.342,-0.07 -1.487,-0.185 -2.546,-0.256 -1.243,-0.083 -2.023,-0.19 -2.201,-0.303 -0.232,-0.148 -2.469,-0.175 -14.427,-0.175 m 3.051,13.239 c 0.593,-0.003 1.37,-0.003 2.399,0 4.07,0.011 4.188,0.02 5.403,0.338 1.9,0.497 2.401,0.647 2.5,0.745 0.05,0.05 0.454,0.263 0.9,0.474 0.976,0.461 2.386,1.826 2.919,2.826 0.99,1.858 1.076,5.378 0.194,7.965 -0.691,2.026 -2.323,4.274 -3.889,5.356 -1.492,1.03 -1.766,1.198 -2.686,1.63 -2.305,1.082 -4.865,1.689 -8.07,1.921 -2.039,0.148 -5.435,0.131 -6.01,-0.031 -1.479,-0.414 -2.704,-2.265 -2.329,-3.517 0.079,-0.264 0.144,-0.602 0.144,-0.749 0,-0.147 0.105,-0.674 0.237,-1.168 0.131,-0.494 0.308,-1.176 0.388,-1.518 0.081,-0.342 0.225,-0.956 0.322,-1.366 0.097,-0.41 0.25,-1.081 0.342,-1.49 0.091,-0.41 0.229,-0.997 0.307,-1.304 0.077,-0.307 0.34,-1.425 0.582,-2.484 0.242,-1.059 0.521,-2.21 0.621,-2.558 0.1,-0.348 0.182,-0.783 0.182,-0.966 0,-0.366 0.548,-1.519 1.025,-2.154 0.166,-0.221 0.521,-0.571 0.788,-0.776 0.267,-0.205 0.549,-0.426 0.625,-0.489 0.076,-0.063 0.412,-0.244 0.745,-0.404 0.45,-0.215 0.589,-0.27 2.368,-0.279"
           inkscape:connector-curvature="0"
           id="path57" />
      </g>
    </g>
    <g
       id="g59"
       style="fill:#dcdbdb">
      <g
         transform="matrix(1.76286,0,0,1.76286,-187.34,62.2)"
         id="g61">
        <path
           d="m 360.54,-194.85 c -2.493,0.008 -4.741,0.076 -5.395,0.206 -0.376,0.074 -1.324,0.159 -2.108,0.19 -0.784,0.031 -1.49,0.11 -1.568,0.175 -0.078,0.065 -0.23,0.087 -0.334,0.047 -0.104,-0.04 -0.227,-0.015 -0.272,0.058 -0.046,0.075 -0.495,0.135 -1.036,0.136 -0.534,0.001 -1.199,0.083 -1.506,0.19 -0.302,0.105 -0.917,0.224 -1.366,0.26 -0.45,0.036 -1.027,0.144 -1.285,0.241 -0.258,0.097 -0.748,0.175 -1.091,0.175 -0.383,0 -0.646,0.06 -0.683,0.155 -0.033,0.085 -0.277,0.172 -0.547,0.19 -0.572,0.039 -1.158,0.368 -2.01,1.137 -0.642,0.577 -1.343,1.519 -1.343,1.801 0,0.091 -0.084,0.233 -0.186,0.318 -0.103,0.085 -0.186,0.357 -0.186,0.605 0,0.248 -0.086,0.616 -0.19,0.815 -0.104,0.199 -0.24,0.722 -0.303,1.164 -0.063,0.442 -0.172,0.863 -0.245,0.935 -0.072,0.072 -0.132,0.395 -0.132,0.714 0,0.365 -0.069,0.636 -0.186,0.734 -0.116,0.096 -0.186,0.371 -0.186,0.73 0,0.316 -0.086,0.74 -0.19,0.939 -0.42,0.806 -0.085,2.43 0.501,2.43 0.144,0 0.318,0.058 0.388,0.128 0.146,0.146 1.28,-0.051 1.785,-0.311 0.171,-0.088 0.495,-0.2 0.722,-0.248 0.227,-0.048 0.562,-0.168 0.745,-0.264 0.183,-0.096 0.485,-0.175 0.668,-0.175 0.183,0 0.414,-0.084 0.516,-0.186 0.11,-0.11 0.416,-0.186 0.741,-0.186 0.329,0 0.611,-0.072 0.699,-0.179 0.081,-0.098 0.466,-0.21 0.854,-0.252 0.388,-0.042 0.89,-0.157 1.114,-0.256 0.224,-0.099 0.699,-0.182 1.056,-0.182 0.356,0 0.806,-0.084 1,-0.186 0.196,-0.102 0.671,-0.186 1.056,-0.186 0.385,0 1.05,-0.107 1.475,-0.237 0.686,-0.208 1.233,-0.235 4.844,-0.248 3.745,-0.014 4.142,0.002 4.941,0.233 0.478,0.138 1.097,0.252 1.374,0.252 0.277,0 0.613,0.082 0.745,0.182 0.133,0.1 0.427,0.184 0.656,0.186 0.229,0.002 0.564,0.088 0.745,0.19 0.181,0.102 0.47,0.241 0.64,0.311 0.171,0.07 0.478,0.238 0.683,0.373 0.205,0.135 0.456,0.286 0.559,0.334 0.274,0.128 0.869,0.745 0.869,0.9 0,0.074 0.049,0.132 0.113,0.132 0.461,0 1.224,3.335 0.9,3.94 -0.079,0.147 -0.144,0.38 -0.144,0.516 0,0.142 -0.227,0.433 -0.528,0.679 -0.509,0.416 -0.575,0.434 -1.832,0.505 -1.531,0.086 -1.899,0.119 -2.484,0.233 -0.239,0.046 -1.133,0.112 -1.987,0.147 -0.854,0.035 -1.86,0.136 -2.236,0.225 -0.376,0.089 -1.154,0.177 -1.727,0.198 -0.574,0.02 -1.3,0.118 -1.615,0.213 -0.314,0.095 -0.99,0.173 -1.502,0.175 -0.512,0.002 -1.155,0.082 -1.428,0.175 -0.273,0.093 -1.028,0.208 -1.677,0.256 -0.649,0.049 -1.244,0.144 -1.324,0.21 -0.08,0.066 -0.639,0.171 -1.242,0.233 -0.603,0.062 -1.114,0.17 -1.137,0.241 -0.024,0.071 -0.306,0.128 -0.625,0.128 -0.319,0 -0.727,0.08 -0.908,0.175 -0.182,0.095 -0.629,0.212 -0.994,0.26 -0.365,0.048 -0.788,0.164 -0.939,0.26 -0.151,0.096 -0.468,0.175 -0.706,0.175 -0.238,0 -0.481,0.075 -0.536,0.167 -0.055,0.092 -0.341,0.202 -0.637,0.241 -0.296,0.038 -0.633,0.156 -0.753,0.264 -0.12,0.108 -0.425,0.198 -0.675,0.198 -0.251,0 -0.454,0.057 -0.454,0.124 0,0.067 -0.252,0.187 -0.559,0.264 -0.307,0.077 -0.559,0.187 -0.559,0.245 0,0.058 -0.223,0.164 -0.493,0.237 -0.27,0.073 -0.526,0.186 -0.567,0.252 -0.041,0.066 -0.206,0.12 -0.369,0.12 -0.163,0 -0.329,0.052 -0.369,0.116 -0.04,0.064 -0.365,0.264 -0.722,0.442 -0.357,0.178 -0.872,0.457 -1.145,0.621 -0.273,0.164 -0.581,0.339 -0.683,0.388 -0.217,0.104 -0.441,0.268 -1.793,1.3 -1.24,0.946 -3.299,3.13 -3.299,3.501 0,0.14 -0.034,0.222 -0.078,0.179 -0.043,-0.043 -0.228,0.154 -0.408,0.442 -0.179,0.288 -0.396,0.636 -0.481,0.772 -0.085,0.137 -0.204,0.369 -0.268,0.516 -0.064,0.147 -0.176,0.304 -0.248,0.349 -0.072,0.045 -0.134,0.204 -0.136,0.353 -0.002,0.15 -0.086,0.38 -0.186,0.512 -0.1,0.133 -0.182,0.331 -0.182,0.439 0,0.107 -0.112,0.405 -0.248,0.66 -0.137,0.255 -0.248,0.634 -0.248,0.842 0,0.209 -0.078,0.53 -0.171,0.714 -0.093,0.184 -0.203,0.794 -0.245,1.358 -0.042,0.564 -0.147,1.151 -0.233,1.304 -0.27,0.48 -0.239,3.939 0.043,5.05 0.129,0.508 0.233,1.084 0.233,1.281 0,0.197 0.084,0.445 0.186,0.547 0.102,0.102 0.186,0.337 0.186,0.524 0,0.187 0.082,0.45 0.182,0.582 0.1,0.133 0.184,0.343 0.186,0.466 0.002,0.122 0.062,0.29 0.132,0.373 0.07,0.083 0.305,0.427 0.524,0.769 0.219,0.342 0.468,0.694 0.555,0.784 0.087,0.09 0.159,0.211 0.159,0.268 0,0.173 2.496,2.598 2.76,2.682 0.135,0.043 0.351,0.184 0.481,0.314 0.243,0.243 1.706,0.982 1.945,0.982 0.073,0 0.152,0.045 0.175,0.101 0.056,0.138 1.148,0.514 1.886,0.648 0.331,0.06 0.672,0.171 0.761,0.245 0.088,0.073 0.619,0.155 1.18,0.182 0.561,0.028 1.058,0.085 1.102,0.132 0.08,0.084 5.246,-0.006 6.893,-0.12 0.467,-0.032 0.919,-0.115 1.01,-0.186 0.086,-0.071 0.5,-0.166 0.92,-0.21 0.42,-0.044 0.827,-0.156 0.904,-0.248 0.077,-0.093 0.301,-0.171 0.501,-0.171 0.199,0 0.582,-0.112 0.85,-0.248 0.268,-0.137 0.622,-0.248 0.788,-0.248 0.166,0 0.333,-0.084 0.373,-0.186 0.045,-0.117 0.237,-0.186 0.512,-0.186 0.241,0 0.439,-0.053 0.439,-0.116 0,-0.064 0.126,-0.153 0.279,-0.202 0.51,-0.162 2.313,-1.046 2.391,-1.172 0.042,-0.068 0.187,-0.124 0.322,-0.124 0.135,0 0.276,-0.083 0.314,-0.182 0.038,-0.1 0.188,-0.218 0.334,-0.264 0.23,-0.073 0.894,-0.486 1.079,-0.671 0.23,-0.23 0.893,-0.621 1.052,-0.621 0.105,0 0.19,-0.045 0.19,-0.101 0,-0.111 0.952,-0.768 1.114,-0.768 0.055,0 0.131,-0.084 0.171,-0.186 0.039,-0.102 0.155,-0.186 0.256,-0.186 0.101,0 0.27,-0.124 0.377,-0.276 0.106,-0.152 0.194,-0.238 0.194,-0.19 0,0.048 0.135,0.035 0.299,-0.027 0.164,-0.063 0.318,-0.09 0.345,-0.062 0.097,0.097 -0.165,1.969 -0.326,2.329 -0.057,0.128 -0.014,0.561 0.105,1.032 0.158,0.627 0.314,0.923 0.687,1.3 0.266,0.269 0.559,0.489 0.652,0.489 0.093,0 0.308,0.098 0.477,0.217 0.279,0.198 0.736,0.22 5.03,0.225 4.917,0.005 6.164,-0.057 6.245,-0.299 0.026,-0.079 0.242,-0.144 0.477,-0.144 0.266,0 0.452,-0.071 0.497,-0.186 0.039,-0.102 0.149,-0.186 0.245,-0.186 0.095,0 0.272,-0.083 0.392,-0.186 0.702,-0.609 1.025,-0.936 1.025,-1.036 0,-0.062 0.087,-0.183 0.194,-0.272 0.288,-0.239 0.675,-1.108 0.675,-1.514 0,-0.196 0.081,-0.519 0.182,-0.714 0.101,-0.196 0.222,-0.68 0.268,-1.079 0.046,-0.399 0.138,-0.759 0.206,-0.803 0.067,-0.044 0.145,-0.379 0.175,-0.745 0.029,-0.366 0.107,-0.779 0.171,-0.916 0.064,-0.137 0.166,-0.5 0.225,-0.807 0.098,-0.512 0.333,-1.528 0.652,-2.795 0.069,-0.273 0.175,-0.83 0.233,-1.238 0.058,-0.408 0.163,-0.763 0.237,-0.788 0.074,-0.025 0.136,-0.33 0.136,-0.683 0,-0.353 0.084,-0.805 0.186,-1 0.102,-0.196 0.224,-0.672 0.268,-1.056 0.044,-0.384 0.156,-0.808 0.248,-0.943 0.092,-0.135 0.167,-0.47 0.167,-0.745 0,-0.275 0.084,-0.658 0.186,-0.854 0.102,-0.196 0.186,-0.577 0.186,-0.846 0,-0.269 0.079,-0.646 0.179,-0.838 0.099,-0.192 0.237,-0.681 0.303,-1.083 0.066,-0.402 0.178,-0.887 0.252,-1.079 0.074,-0.192 0.136,-0.542 0.136,-0.78 0,-0.238 0.081,-0.596 0.182,-0.792 0.101,-0.196 0.222,-0.68 0.268,-1.079 0.046,-0.399 0.16,-0.836 0.252,-0.97 0.092,-0.135 0.167,-0.502 0.167,-0.815 0,-0.313 0.082,-0.679 0.182,-0.811 0.1,-0.133 0.184,-0.452 0.186,-0.71 0.002,-0.258 0.087,-0.669 0.19,-0.916 0.103,-0.247 0.222,-0.762 0.264,-1.145 0.042,-0.383 0.154,-0.823 0.248,-0.974 0.094,-0.151 0.171,-0.549 0.171,-0.885 0,-0.391 0.067,-0.666 0.186,-0.765 0.122,-0.101 0.186,-0.378 0.186,-0.796 0,-0.354 0.08,-0.752 0.179,-0.893 0.098,-0.139 0.216,-0.613 0.264,-1.052 0.048,-0.439 0.155,-0.939 0.241,-1.11 0.152,-0.305 0.337,-2.573 0.345,-4.285 0.009,-1.808 -0.367,-3.945 -0.854,-4.879 -0.096,-0.184 -0.175,-0.4 -0.175,-0.477 0,-0.077 -0.084,-0.21 -0.186,-0.295 -0.102,-0.085 -0.186,-0.26 -0.186,-0.388 0,-0.128 -0.06,-0.233 -0.132,-0.233 -0.072,0 -0.198,-0.167 -0.283,-0.369 -0.326,-0.776 -3.168,-3.357 -3.695,-3.357 -0.073,0 -0.216,-0.084 -0.318,-0.186 -0.102,-0.102 -0.287,-0.186 -0.411,-0.186 -0.124,0 -0.26,-0.084 -0.299,-0.186 -0.039,-0.102 -0.217,-0.186 -0.396,-0.186 -0.179,0 -0.467,-0.112 -0.64,-0.248 -0.174,-0.137 -0.472,-0.248 -0.66,-0.248 -0.187,0 -0.408,-0.084 -0.493,-0.186 -0.087,-0.105 -0.358,-0.186 -0.621,-0.186 -0.257,0 -0.532,-0.074 -0.609,-0.167 -0.077,-0.093 -0.438,-0.205 -0.803,-0.248 -0.365,-0.043 -0.867,-0.165 -1.114,-0.268 -0.247,-0.103 -0.725,-0.186 -1.067,-0.186 -0.342,0 -0.837,-0.083 -1.095,-0.182 -0.258,-0.1 -0.997,-0.208 -1.646,-0.241 -0.649,-0.032 -1.403,-0.09 -1.677,-0.132 -1.143,-0.173 -4.752,-0.262 -7.957,-0.252 m 4.192,29.689 c 0.684,-0.01 1.013,0.048 1.102,0.182 0.147,0.221 0.024,1.519 -0.155,1.63 -0.068,0.042 -0.165,0.405 -0.213,0.807 -0.049,0.402 -0.155,0.852 -0.237,1 -0.082,0.149 -0.147,0.548 -0.147,0.889 0,0.34 -0.061,0.64 -0.132,0.664 -0.071,0.024 -0.176,0.396 -0.237,0.827 -0.061,0.431 -0.175,0.858 -0.252,0.951 -0.077,0.093 -0.174,0.495 -0.213,0.893 -0.04,0.398 -0.148,0.832 -0.241,0.966 -0.092,0.135 -0.167,0.481 -0.167,0.769 0,0.287 -0.077,0.597 -0.171,0.691 -0.093,0.093 -0.212,0.31 -0.264,0.477 -0.109,0.353 -1.413,1.722 -1.646,1.727 -0.086,0.002 -0.256,0.116 -0.373,0.252 -0.117,0.137 -0.302,0.248 -0.415,0.248 -0.113,0 -0.276,0.084 -0.361,0.186 -0.085,0.102 -0.262,0.186 -0.392,0.186 -0.13,0 -0.269,0.08 -0.307,0.179 -0.038,0.098 -0.242,0.217 -0.454,0.264 -0.212,0.047 -0.465,0.162 -0.559,0.256 -0.094,0.094 -0.271,0.171 -0.392,0.171 -0.121,0 -0.347,0.112 -0.505,0.248 -0.158,0.137 -0.432,0.25 -0.609,0.252 -0.177,0.002 -0.43,0.086 -0.563,0.186 -0.133,0.1 -0.388,0.182 -0.567,0.182 -0.179,0 -0.434,0.082 -0.567,0.182 -0.143,0.108 -0.523,0.184 -0.932,0.186 -0.379,0.002 -0.742,0.053 -0.807,0.113 -0.183,0.169 -1.884,0.239 -2.849,0.116 -0.478,-0.06 -1.26,-0.141 -1.735,-0.179 -0.475,-0.038 -0.976,-0.148 -1.114,-0.245 -0.137,-0.096 -0.362,-0.175 -0.501,-0.175 -0.139,0 -0.416,-0.108 -0.617,-0.241 -0.201,-0.132 -0.413,-0.212 -0.474,-0.175 -0.06,0.037 -0.203,-0.02 -0.318,-0.128 -0.115,-0.108 -0.388,-0.351 -0.605,-0.54 -0.418,-0.363 -1.032,-1.201 -1.032,-1.409 0,-0.068 -0.092,-0.263 -0.202,-0.431 -0.167,-0.255 -0.19,-0.602 -0.151,-2.1 0.031,-1.206 0.095,-1.849 0.198,-1.952 0.084,-0.084 0.155,-0.337 0.155,-0.563 0,-0.247 0.1,-0.511 0.252,-0.664 0.139,-0.139 0.222,-0.299 0.186,-0.357 -0.036,-0.058 0.019,-0.176 0.12,-0.26 0.102,-0.084 0.186,-0.228 0.186,-0.318 0,-0.09 0.097,-0.237 0.217,-0.326 0.121,-0.089 0.32,-0.321 0.442,-0.512 0.122,-0.192 0.304,-0.377 0.404,-0.415 0.099,-0.038 0.366,-0.244 0.59,-0.458 0.633,-0.605 0.882,-0.781 1.564,-1.095 0.348,-0.16 0.633,-0.333 0.633,-0.384 0,-0.052 0.098,-0.093 0.217,-0.093 0.12,0 0.385,-0.113 0.59,-0.248 0.205,-0.136 0.546,-0.248 0.761,-0.248 0.232,0 0.419,-0.076 0.462,-0.186 0.05,-0.13 0.255,-0.186 0.671,-0.186 0.329,0 0.714,-0.082 0.858,-0.182 0.143,-0.1 0.566,-0.206 0.943,-0.237 0.377,-0.031 0.859,-0.144 1.067,-0.252 0.227,-0.117 0.694,-0.197 1.161,-0.198 0.43,-0.001 1.01,-0.084 1.281,-0.182 0.298,-0.107 0.978,-0.179 1.7,-0.182 0.662,-0.003 1.233,-0.054 1.269,-0.113 0.067,-0.108 0.689,-0.187 2.806,-0.357 0.692,-0.055 1.228,-0.087 1.638,-0.093"
           inkscape:connector-curvature="0"
           id="path63" />
        <path
           d="m 298.69,-210.77 c -1.372,0 -2.886,0.001 -4.553,0.004 -13.13,0.02 -14,0.033 -14.229,0.237 -0.132,0.12 -0.356,0.217 -0.497,0.217 -0.141,0 -0.291,0.084 -0.33,0.186 -0.039,0.102 -0.134,0.186 -0.213,0.186 -0.186,0 -1.23,1.041 -1.23,1.227 0,0.077 -0.052,0.14 -0.113,0.14 -0.061,0 -0.147,0.154 -0.194,0.342 -0.047,0.188 -0.157,0.425 -0.245,0.528 -0.088,0.102 -0.196,0.488 -0.237,0.854 -0.041,0.366 -0.133,0.735 -0.206,0.823 -0.073,0.088 -0.168,0.461 -0.21,0.827 -0.042,0.366 -0.152,0.773 -0.245,0.908 -0.092,0.135 -0.168,0.526 -0.171,0.869 -0.002,0.343 -0.085,0.765 -0.182,0.935 -0.098,0.171 -0.18,0.604 -0.182,0.963 -0.003,0.482 -0.068,0.717 -0.252,0.9 -0.181,0.181 -0.248,0.417 -0.248,0.858 0,0.334 -0.084,0.767 -0.186,0.963 -0.102,0.196 -0.186,0.639 -0.186,0.99 0,0.414 -0.065,0.691 -0.186,0.792 -0.113,0.094 -0.186,0.364 -0.186,0.687 0,0.293 -0.112,0.795 -0.248,1.114 -0.137,0.319 -0.248,0.775 -0.248,1.013 0,0.238 -0.064,0.549 -0.14,0.691 -0.076,0.142 -0.188,0.652 -0.248,1.133 -0.06,0.481 -0.157,0.905 -0.217,0.943 -0.06,0.038 -0.152,0.377 -0.202,0.753 -0.05,0.376 -0.141,0.744 -0.202,0.819 -0.061,0.075 -0.146,0.494 -0.19,0.932 -0.044,0.437 -0.156,0.905 -0.248,1.04 -0.092,0.135 -0.167,0.483 -0.167,0.772 0,0.29 -0.112,0.81 -0.248,1.157 -0.137,0.347 -0.25,0.837 -0.252,1.091 -0.002,0.254 -0.086,0.57 -0.186,0.703 -0.1,0.133 -0.184,0.496 -0.186,0.807 -0.002,0.311 -0.085,0.706 -0.182,0.877 -0.098,0.171 -0.18,0.483 -0.182,0.695 -0.002,0.211 -0.116,0.709 -0.252,1.106 -0.137,0.397 -0.25,0.923 -0.252,1.168 -0.002,0.245 -0.085,0.586 -0.182,0.757 -0.098,0.171 -0.18,0.552 -0.182,0.846 -0.002,0.294 -0.082,0.685 -0.175,0.869 -0.093,0.184 -0.207,0.624 -0.252,0.978 -0.045,0.354 -0.164,0.801 -0.264,0.994 -0.1,0.192 -0.182,0.605 -0.182,0.916 0,0.311 -0.082,0.675 -0.182,0.807 -0.1,0.133 -0.184,0.477 -0.186,0.765 -0.002,0.288 -0.116,0.806 -0.252,1.153 -0.137,0.347 -0.248,0.841 -0.248,1.098 0,0.258 -0.082,0.578 -0.182,0.71 -0.1,0.133 -0.184,0.443 -0.186,0.691 -0.002,0.248 -0.091,0.695 -0.198,0.994 -0.107,0.299 -0.208,0.799 -0.221,1.114 -0.013,0.314 -0.098,0.665 -0.19,0.776 -0.092,0.111 -0.204,0.526 -0.252,0.92 -0.048,0.394 -0.155,0.837 -0.237,0.986 -0.082,0.149 -0.147,0.468 -0.147,0.71 0,0.242 -0.078,0.655 -0.175,0.912 -0.097,0.258 -0.206,0.745 -0.241,1.087 -0.035,0.342 -0.153,0.789 -0.26,0.994 -0.107,0.205 -0.194,0.558 -0.194,0.784 0,0.227 -0.069,0.534 -0.151,0.683 -0.082,0.149 -0.184,0.657 -0.229,1.126 -0.045,0.468 -0.138,0.888 -0.206,0.932 -0.067,0.044 -0.155,0.395 -0.194,0.78 -0.039,0.385 -0.156,0.87 -0.264,1.079 -0.108,0.209 -0.198,0.657 -0.198,0.994 0,0.365 -0.07,0.669 -0.171,0.753 -0.093,0.077 -0.199,0.477 -0.237,0.889 -0.037,0.412 -0.122,0.814 -0.19,0.897 -0.068,0.083 -0.164,0.431 -0.21,0.772 -0.046,0.342 -0.163,0.833 -0.26,1.091 -0.097,0.258 -0.175,0.677 -0.175,0.932 0,0.255 -0.076,0.606 -0.167,0.78 -0.091,0.175 -0.205,0.646 -0.252,1.048 -0.047,0.402 -0.138,0.792 -0.202,0.869 -0.064,0.077 -0.154,0.472 -0.198,0.877 -0.044,0.405 -0.158,0.862 -0.252,1.013 -0.247,0.396 -0.235,2.311 0.015,2.519 0.102,0.085 0.186,0.208 0.186,0.276 0,0.067 0.145,0.301 0.326,0.516 0.324,0.385 0.804,0.666 1.413,0.834 0.171,0.047 3.071,0.08 6.447,0.07 4.702,-0.014 6.152,-0.055 6.191,-0.171 0.028,-0.083 0.238,-0.186 0.47,-0.229 0.232,-0.043 0.488,-0.157 0.567,-0.252 0.079,-0.095 0.209,-0.175 0.291,-0.175 0.082,0 0.368,-0.229 0.637,-0.508 0.268,-0.28 0.587,-0.599 0.706,-0.71 0.12,-0.111 0.217,-0.279 0.217,-0.373 0,-0.094 0.112,-0.311 0.248,-0.485 0.137,-0.174 0.248,-0.493 0.248,-0.71 0,-0.217 0.082,-0.504 0.182,-0.637 0.102,-0.135 0.184,-0.515 0.186,-0.866 0.002,-0.343 0.08,-0.734 0.175,-0.869 0.095,-0.135 0.203,-0.552 0.241,-0.928 0.038,-0.375 0.157,-0.891 0.264,-1.145 0.107,-0.254 0.194,-0.624 0.194,-0.823 0,-0.199 0.084,-0.562 0.186,-0.807 0.102,-0.245 0.186,-0.658 0.186,-0.916 0,-0.258 0.09,-0.637 0.198,-0.842 0.108,-0.205 0.223,-0.736 0.256,-1.18 0.033,-0.444 0.14,-0.894 0.237,-1 0.103,-0.115 0.179,-0.456 0.179,-0.823 0,-0.406 0.066,-0.684 0.186,-0.784 0.107,-0.089 0.186,-0.358 0.186,-0.633 0,-0.263 0.081,-0.69 0.182,-0.947 0.102,-0.258 0.24,-0.858 0.307,-1.335 0.066,-0.477 0.177,-0.888 0.248,-0.912 0.071,-0.024 0.132,-0.208 0.132,-0.411 0,-0.835 1.675,-2.703 2.981,-3.322 0.661,-0.314 0.771,-0.324 3.416,-0.365 1.503,-0.023 2.784,-0.092 2.849,-0.155 0.065,-0.064 1.383,-0.116 2.946,-0.116 2.183,0 2.987,-0.043 3.544,-0.194 0.396,-0.108 1.267,-0.212 1.933,-0.233 0.666,-0.021 1.281,-0.097 1.366,-0.167 0.085,-0.07 0.658,-0.168 1.273,-0.217 0.615,-0.049 1.267,-0.166 1.452,-0.26 0.184,-0.094 0.555,-0.171 0.823,-0.171 0.268,0 0.678,-0.079 0.908,-0.175 0.23,-0.096 0.699,-0.214 1.04,-0.264 0.342,-0.05 0.731,-0.167 0.866,-0.26 0.135,-0.093 0.453,-0.171 0.706,-0.171 0.253,0 0.542,-0.084 0.644,-0.186 0.102,-0.102 0.375,-0.186 0.602,-0.186 0.227,0 0.579,-0.113 0.784,-0.248 0.205,-0.136 0.492,-0.248 0.64,-0.248 0.148,0 0.29,-0.059 0.314,-0.132 0.024,-0.073 0.284,-0.162 0.578,-0.202 0.295,-0.04 0.566,-0.148 0.602,-0.241 0.036,-0.093 0.156,-0.171 0.268,-0.171 0.112,0 0.373,-0.113 0.578,-0.248 0.205,-0.136 0.491,-0.248 0.637,-0.248 0.145,0 0.334,-0.084 0.419,-0.186 0.085,-0.102 0.246,-0.186 0.361,-0.186 0.115,0 0.261,-0.049 0.326,-0.113 0.065,-0.063 0.623,-0.379 1.238,-0.699 0.615,-0.32 1.148,-0.636 1.188,-0.699 0.04,-0.063 0.291,-0.231 0.559,-0.373 0.268,-0.142 0.588,-0.364 0.71,-0.493 0.122,-0.129 0.298,-0.233 0.392,-0.233 0.094,0 0.191,-0.042 0.213,-0.093 0.023,-0.051 0.274,-0.253 0.559,-0.446 0.285,-0.194 0.549,-0.431 0.586,-0.528 0.037,-0.097 0.145,-0.175 0.237,-0.175 0.092,0 0.328,-0.168 0.524,-0.373 0.196,-0.205 0.396,-0.373 0.442,-0.373 0.302,0 4.066,-4.244 4.351,-4.906 0.152,-0.354 0.648,-1.056 0.745,-1.056 0.062,0 0.113,-0.108 0.113,-0.241 0,-0.133 0.056,-0.276 0.124,-0.318 0.109,-0.067 0.316,-0.483 1.374,-2.744 0.131,-0.281 0.241,-0.623 0.241,-0.761 0,-0.138 0.084,-0.323 0.186,-0.408 0.103,-0.086 0.186,-0.357 0.186,-0.609 0,-0.25 0.079,-0.569 0.179,-0.71 0.099,-0.142 0.211,-0.531 0.248,-0.866 0.123,-1.089 0.218,-1.541 0.322,-1.541 0.2,0 0.425,-6.408 0.229,-6.528 -0.06,-0.037 -0.109,-0.6 -0.109,-1.25 0,-0.649 -0.059,-1.287 -0.128,-1.417 -0.069,-0.13 -0.205,-0.615 -0.303,-1.079 -0.278,-1.321 -0.512,-2.067 -0.668,-2.119 -0.079,-0.026 -0.144,-0.205 -0.144,-0.4 0,-0.194 -0.072,-0.43 -0.159,-0.52 -0.087,-0.09 -0.267,-0.415 -0.4,-0.722 -0.295,-0.681 -0.812,-1.515 -1.025,-1.65 -0.086,-0.055 -0.155,-0.152 -0.155,-0.217 0,-0.159 -0.228,-0.416 -1.661,-1.863 -0.674,-0.681 -1.272,-1.238 -1.327,-1.238 -0.056,0 -0.284,-0.168 -0.508,-0.373 -0.224,-0.205 -0.463,-0.373 -0.528,-0.373 -0.065,0 -0.207,-0.079 -0.314,-0.175 -0.296,-0.263 -2.874,-1.563 -3.101,-1.564 -0.109,0 -0.366,-0.113 -0.571,-0.248 -0.205,-0.136 -0.491,-0.248 -0.637,-0.248 -0.145,0 -0.334,-0.084 -0.419,-0.186 -0.093,-0.112 -0.365,-0.186 -0.683,-0.186 -0.318,0 -0.59,-0.074 -0.683,-0.186 -0.091,-0.11 -0.364,-0.186 -0.668,-0.186 -0.282,0 -0.68,-0.09 -0.885,-0.198 -0.205,-0.107 -0.865,-0.244 -1.467,-0.307 -0.602,-0.063 -1.2,-0.172 -1.327,-0.241 -0.128,-0.068 -0.785,-0.124 -1.459,-0.124 -0.674,0 -1.281,-0.055 -1.351,-0.124 -0.247,-0.247 -2.928,-0.331 -12.529,-0.334 m -0.928,12.704 c 0.516,-0.003 1.176,-0.003 2.026,0 3.131,0.01 3.837,0.048 4.304,0.217 0.307,0.112 0.902,0.204 1.324,0.206 0.44,0.001 0.785,0.058 0.811,0.136 0.025,0.074 0.318,0.186 0.652,0.248 0.334,0.063 0.702,0.197 0.815,0.299 0.113,0.102 0.327,0.186 0.477,0.186 0.15,0 0.306,0.084 0.345,0.186 0.039,0.102 0.205,0.186 0.365,0.186 0.16,0 0.334,0.07 0.388,0.155 0.116,0.182 0.506,0.443 0.815,0.547 0.12,0.04 0.219,0.108 0.221,0.151 0.002,0.043 0.281,0.383 0.621,0.757 0.34,0.374 0.617,0.753 0.617,0.842 0,0.089 0.084,0.197 0.186,0.237 0.102,0.039 0.186,0.163 0.186,0.276 0,0.112 0.113,0.369 0.248,0.574 0.136,0.205 0.248,0.553 0.248,0.772 0,0.22 0.087,0.659 0.194,0.974 0.196,0.577 0.191,2.138 -0.008,3.159 -0.047,0.239 -0.113,0.784 -0.147,1.211 -0.034,0.427 -0.104,0.776 -0.155,0.776 -0.139,0 -0.38,0.589 -0.38,0.928 0,0.163 -0.084,0.383 -0.186,0.485 -0.102,0.102 -0.186,0.303 -0.186,0.446 0,0.144 -0.084,0.294 -0.186,0.334 -0.102,0.039 -0.186,0.148 -0.186,0.241 0,0.212 -0.993,1.665 -1.137,1.665 -0.059,0 -0.105,0.084 -0.105,0.186 0,0.102 -0.084,0.186 -0.186,0.186 -0.102,0 -0.186,0.055 -0.186,0.12 0,0.15 -0.403,0.549 -1.188,1.18 -0.337,0.271 -0.641,0.531 -0.675,0.578 -0.034,0.047 -0.565,0.345 -1.18,0.664 -0.615,0.318 -1.173,0.631 -1.238,0.695 -0.065,0.064 -0.226,0.116 -0.361,0.116 -0.135,0 -0.34,0.088 -0.458,0.194 -0.118,0.107 -0.394,0.217 -0.613,0.245 -0.567,0.072 -0.869,0.18 -0.869,0.314 0,0.064 -0.238,0.118 -0.528,0.12 -0.29,0.002 -0.636,0.086 -0.769,0.186 -0.142,0.107 -0.513,0.182 -0.904,0.182 -0.365,0 -0.872,0.093 -1.126,0.206 -0.392,0.174 -1.074,0.21 -4.498,0.241 -3.973,0.036 -4.471,0.014 -4.471,-0.198 0,-0.059 -0.126,-0.146 -0.279,-0.194 -0.351,-0.11 -1.328,-1.164 -1.331,-1.436 -0.002,-0.112 -0.086,-0.361 -0.186,-0.555 -0.201,-0.388 -0.167,-1.774 0.047,-1.906 0.066,-0.041 0.133,-0.379 0.151,-0.753 0.018,-0.374 0.117,-0.78 0.217,-0.9 0.1,-0.121 0.209,-0.54 0.241,-0.932 0.032,-0.392 0.108,-0.748 0.171,-0.788 0.063,-0.04 0.166,-0.457 0.233,-0.928 0.067,-0.47 0.178,-0.912 0.245,-0.978 0.066,-0.066 0.122,-0.372 0.124,-0.683 0.002,-0.311 0.113,-0.79 0.245,-1.063 0.132,-0.273 0.242,-0.756 0.245,-1.075 0.002,-0.319 0.063,-0.601 0.136,-0.625 0.073,-0.024 0.185,-0.46 0.248,-0.966 0.064,-0.507 0.17,-0.952 0.237,-0.994 0.067,-0.041 0.174,-0.46 0.241,-0.928 0.066,-0.468 0.18,-0.91 0.252,-0.982 0.072,-0.072 0.132,-0.394 0.132,-0.714 0,-0.404 0.057,-0.603 0.186,-0.652 0.102,-0.039 0.186,-0.18 0.186,-0.311 0,-0.253 1.833,-2.255 2.065,-2.255 0.076,0 0.21,-0.084 0.295,-0.186 0.085,-0.102 0.296,-0.186 0.47,-0.186 0.174,0 0.426,-0.098 0.559,-0.217 0.164,-0.148 0.409,-0.196 1.956,-0.206"
           inkscape:connector-curvature="0"
           id="path65" />
        <path
           d="m 390.65,-139.98 c -0.425,-0.022 -0.763,-0.109 -0.854,-0.217 -0.082,-0.099 -0.274,-0.18 -0.426,-0.18 -0.4,0 -1.253,-1.056 -1.356,-1.679 -0.107,-0.646 -0.106,-0.692 0.024,-1.888 0.061,-0.561 0.168,-1.092 0.239,-1.18 0.07,-0.088 0.167,-0.533 0.214,-0.99 0.049,-0.473 0.163,-0.894 0.264,-0.978 0.115,-0.096 0.177,-0.393 0.177,-0.853 0,-0.429 0.072,-0.801 0.182,-0.947 0.1,-0.133 0.184,-0.493 0.187,-0.8 0.003,-0.307 0.087,-0.716 0.187,-0.908 0.1,-0.192 0.216,-0.639 0.258,-0.994 0.041,-0.354 0.107,-0.728 0.146,-0.83 0.136,-0.357 0.181,-0.563 0.275,-1.242 0.052,-0.376 0.188,-0.932 0.302,-1.237 0.114,-0.304 0.182,-0.62 0.151,-0.701 -0.031,-0.081 0.051,-0.494 0.183,-0.917 0.132,-0.423 0.239,-0.954 0.239,-1.179 0,-0.225 0.084,-0.57 0.186,-0.765 0.102,-0.196 0.186,-0.587 0.186,-0.869 0,-0.283 0.08,-0.666 0.176,-0.852 0.097,-0.186 0.215,-0.673 0.262,-1.082 0.047,-0.409 0.164,-0.891 0.258,-1.073 0.095,-0.181 0.172,-0.584 0.173,-0.896 0,-0.311 0.083,-0.675 0.183,-0.807 0.102,-0.136 0.184,-0.515 0.186,-0.866 0.002,-0.343 0.084,-0.739 0.182,-0.878 0.098,-0.139 0.217,-0.613 0.265,-1.052 0.048,-0.439 0.164,-0.95 0.257,-1.134 0.093,-0.184 0.17,-0.561 0.17,-0.836 0,-0.275 0.079,-0.711 0.176,-0.969 0.096,-0.258 0.207,-0.735 0.246,-1.06 0.039,-0.326 0.156,-0.756 0.259,-0.956 0.104,-0.2 0.188,-0.67 0.188,-1.043 0,-0.386 0.059,-0.699 0.137,-0.725 0.076,-0.025 0.176,-0.415 0.222,-0.867 0.047,-0.452 0.145,-0.897 0.218,-0.989 0.073,-0.093 0.169,-0.528 0.213,-0.967 0.044,-0.439 0.163,-0.926 0.265,-1.082 0.102,-0.156 0.188,-0.551 0.19,-0.878 0.002,-0.327 0.084,-0.734 0.182,-0.905 0.098,-0.171 0.18,-0.562 0.183,-0.869 0.003,-0.307 0.084,-0.71 0.18,-0.894 0.096,-0.184 0.214,-0.7 0.262,-1.145 0.048,-0.445 0.164,-0.874 0.259,-0.953 0.104,-0.087 0.172,-0.385 0.172,-0.757 0,-0.338 0.062,-0.73 0.138,-0.872 0.076,-0.142 0.188,-0.652 0.248,-1.133 0.06,-0.481 0.161,-0.907 0.224,-0.946 0.063,-0.039 0.154,-0.474 0.203,-0.968 0.05,-0.51 0.162,-0.959 0.259,-1.039 0.108,-0.09 0.17,-0.401 0.17,-0.848 0,-0.429 0.072,-0.801 0.182,-0.947 0.1,-0.133 0.184,-0.443 0.186,-0.691 0.002,-0.247 0.116,-0.799 0.252,-1.227 0.137,-0.428 0.248,-0.931 0.248,-1.119 0,-0.188 0.084,-0.542 0.186,-0.787 0.102,-0.245 0.186,-0.636 0.186,-0.869 0,-0.233 0.084,-0.624 0.186,-0.869 0.102,-0.245 0.186,-0.635 0.186,-0.865 0,-0.231 0.112,-0.744 0.248,-1.141 0.137,-0.397 0.248,-0.926 0.248,-1.176 0,-0.25 0.082,-0.562 0.182,-0.695 0.102,-0.135 0.184,-0.515 0.187,-0.862 0.003,-0.342 0.089,-0.782 0.191,-0.978 0.102,-0.196 0.222,-0.672 0.265,-1.056 0.043,-0.384 0.132,-0.766 0.197,-0.849 0.065,-0.083 0.149,-0.502 0.185,-0.932 0.037,-0.43 0.137,-0.865 0.222,-0.967 0.085,-0.102 0.182,-0.48 0.214,-0.84 0.033,-0.359 0.151,-0.755 0.264,-0.879 0.112,-0.124 0.204,-0.319 0.204,-0.433 0,-0.114 0.058,-0.208 0.128,-0.208 0.07,0 0.163,-0.098 0.205,-0.217 0.111,-0.316 0.553,-0.776 0.744,-0.776 0.091,0 0.165,-0.051 0.165,-0.112 0,-0.145 0.973,-0.716 1.406,-0.825 0.183,-0.046 0.333,-0.133 0.333,-0.194 0,-0.063 2.553,-0.111 5.962,-0.111 3.605,0 5.962,0.046 5.962,0.116 0,0.064 0.126,0.153 0.279,0.199 0.154,0.046 0.489,0.308 0.745,0.583 0.37,0.396 0.466,0.597 0.466,0.973 0,0.261 0.06,0.511 0.133,0.556 0.08,0.05 0.101,0.261 0.052,0.535 -0.045,0.249 -0.122,0.844 -0.173,1.323 -0.05,0.478 -0.15,0.981 -0.221,1.118 -0.071,0.137 -0.161,0.574 -0.2,0.971 -0.039,0.398 -0.127,0.79 -0.195,0.873 -0.068,0.082 -0.162,0.456 -0.209,0.83 -0.046,0.374 -0.162,0.804 -0.256,0.955 -0.095,0.151 -0.172,0.526 -0.172,0.834 0,0.307 -0.112,0.842 -0.248,1.189 -0.137,0.347 -0.25,0.866 -0.253,1.153 -0.002,0.288 -0.084,0.663 -0.182,0.834 -0.098,0.171 -0.181,0.562 -0.186,0.869 -0.005,0.307 -0.089,0.699 -0.186,0.869 -0.098,0.171 -0.179,0.593 -0.182,0.938 -0.002,0.345 -0.059,0.682 -0.126,0.749 -0.143,0.143 -0.589,2.118 -0.74,3.277 -0.058,0.442 -0.167,0.824 -0.242,0.849 -0.076,0.025 -0.137,0.292 -0.137,0.593 0,0.301 -0.112,0.841 -0.248,1.201 -0.137,0.359 -0.248,0.879 -0.248,1.154 0,0.275 -0.076,0.61 -0.168,0.745 -0.093,0.135 -0.199,0.596 -0.237,1.026 -0.038,0.43 -0.122,0.849 -0.187,0.932 -0.065,0.083 -0.156,0.485 -0.202,0.893 -0.046,0.409 -0.165,0.868 -0.265,1.02 -0.1,0.153 -0.184,0.573 -0.186,0.934 -0.002,0.379 -0.081,0.758 -0.186,0.898 -0.1,0.133 -0.182,0.48 -0.182,0.772 0,0.292 -0.112,0.814 -0.248,1.161 -0.137,0.347 -0.248,0.817 -0.248,1.045 0,0.228 -0.084,0.616 -0.186,0.861 -0.102,0.245 -0.186,0.692 -0.186,0.994 0,0.309 -0.073,0.608 -0.168,0.687 -0.093,0.077 -0.201,0.489 -0.241,0.916 -0.04,0.427 -0.16,0.984 -0.266,1.238 -0.106,0.254 -0.193,0.663 -0.193,0.909 0,0.246 -0.062,0.563 -0.138,0.705 -0.076,0.142 -0.187,0.649 -0.247,1.126 -0.06,0.478 -0.177,0.95 -0.26,1.05 -0.083,0.1 -0.135,0.403 -0.116,0.673 0.02,0.278 -0.043,0.611 -0.145,0.767 -0.099,0.152 -0.221,0.638 -0.27,1.08 -0.049,0.442 -0.168,0.966 -0.264,1.165 -0.096,0.198 -0.175,0.59 -0.175,0.869 0,0.28 -0.089,0.676 -0.196,0.881 -0.107,0.205 -0.215,0.681 -0.24,1.057 -0.025,0.377 -0.132,0.852 -0.238,1.056 -0.106,0.204 -0.194,0.626 -0.194,0.937 0,0.311 -0.083,0.675 -0.183,0.807 -0.1,0.133 -0.184,0.498 -0.186,0.812 -0.002,0.314 -0.092,0.747 -0.199,0.962 -0.107,0.215 -0.227,0.713 -0.265,1.106 -0.038,0.393 -0.126,0.785 -0.194,0.871 -0.068,0.086 -0.166,0.587 -0.218,1.113 -0.051,0.526 -0.156,0.977 -0.232,1 -0.076,0.025 -0.138,0.296 -0.138,0.601 0,0.305 -0.09,0.729 -0.2,0.941 -0.11,0.213 -0.229,0.727 -0.265,1.143 -0.036,0.416 -0.117,0.822 -0.181,0.903 -0.064,0.081 -0.169,0.523 -0.234,0.984 -0.065,0.46 -0.167,0.897 -0.225,0.971 -0.059,0.074 -0.145,0.506 -0.192,0.96 -0.047,0.455 -0.164,0.93 -0.26,1.056 -0.1,0.132 -0.175,0.528 -0.178,0.933 -0.002,0.387 -0.061,0.723 -0.131,0.746 -0.07,0.023 -0.175,0.347 -0.234,0.72 -0.059,0.373 -0.169,0.698 -0.246,0.724 -0.076,0.025 -0.139,0.145 -0.139,0.265 0,0.12 -0.112,0.32 -0.248,0.444 -0.137,0.124 -0.248,0.279 -0.248,0.346 0,0.308 -1.651,1.579 -2.051,1.579 -0.106,0 -0.343,0.098 -0.525,0.217 -0.302,0.198 -0.775,0.217 -5.243,0.217 -2.701,0 -5.228,-0.017 -5.615,-0.037"
           inkscape:connector-curvature="0"
           id="path67" />
      </g>
      <g
         transform="matrix(1.76286,0,0,1.76286,115.22,-120.97)"
         id="g69">
        <path
           d="m 202.53,-114.92 c -0.085,-0.137 -0.228,-0.248 -0.317,-0.248 -0.089,0 -0.29,-0.173 -0.447,-0.385 -0.251,-0.339 -0.279,-0.497 -0.237,-1.326 0.03,-0.594 0.104,-0.96 0.199,-0.992 0.083,-0.028 0.152,-0.139 0.152,-0.247 0,-0.181 0.566,-1.255 0.736,-1.398 0.041,-0.034 0.241,-0.386 0.445,-0.781 0.204,-0.395 0.427,-0.815 0.496,-0.932 0.068,-0.117 0.343,-0.604 0.611,-1.082 0.268,-0.478 0.533,-0.887 0.59,-0.91 0.057,-0.023 0.103,-0.096 0.103,-0.163 0,-0.067 0.279,-0.595 0.621,-1.173 0.342,-0.578 0.621,-1.087 0.621,-1.131 0,-0.044 0.076,-0.168 0.169,-0.276 0.093,-0.108 0.38,-0.587 0.639,-1.066 0.259,-0.478 0.864,-1.54 1.345,-2.36 0.481,-0.82 1.175,-2.02 1.542,-2.67 0.367,-0.649 0.716,-1.264 0.777,-1.366 0.06,-0.102 0.309,-0.539 0.552,-0.969 l 0.442,-0.783 -0.003,-2.384 c -0.002,-1.311 -0.058,-2.608 -0.125,-2.881 -0.067,-0.273 -0.206,-1.084 -0.308,-1.801 -0.312,-2.191 -0.439,-3 -0.617,-3.975 -0.19,-1.035 -0.384,-2.227 -0.575,-3.54 -0.07,-0.478 -0.177,-1.037 -0.239,-1.242 -0.062,-0.205 -0.167,-0.82 -0.232,-1.366 -0.066,-0.546 -0.177,-1.301 -0.248,-1.677 -0.47,-2.494 -0.634,-3.475 -0.636,-3.796 -0.001,-0.201 -0.082,-0.589 -0.181,-0.862 -0.098,-0.273 -0.181,-0.783 -0.184,-1.133 -0.003,-0.35 -0.089,-0.874 -0.192,-1.164 -0.102,-0.29 -0.188,-0.731 -0.191,-0.978 -0.002,-0.248 -0.088,-0.813 -0.191,-1.257 -0.103,-0.444 -0.234,-1.171 -0.292,-1.615 -0.103,-0.793 -0.238,-1.561 -0.58,-3.291 -0.094,-0.478 -0.206,-1.205 -0.248,-1.615 -0.042,-0.41 -0.12,-0.829 -0.174,-0.932 -0.054,-0.102 -0.164,-0.686 -0.244,-1.298 -0.081,-0.611 -0.179,-1.164 -0.218,-1.228 -0.04,-0.064 -0.114,-0.458 -0.165,-0.876 -0.113,-0.93 -0.444,-2.833 -0.686,-3.944 -0.099,-0.454 -0.179,-1.052 -0.179,-1.329 0,-0.277 -0.056,-0.633 -0.125,-0.79 -0.069,-0.157 -0.207,-0.816 -0.307,-1.465 -0.245,-1.592 -0.593,-3.588 -0.952,-5.465 -0.072,-0.376 -0.204,-1.13 -0.293,-1.677 -0.089,-0.547 -0.235,-1.371 -0.323,-1.833 -0.146,-0.761 -0.138,-0.905 0.079,-1.546 0.246,-0.723 0.702,-1.3 1.363,-1.724 0.355,-0.227 0.669,-0.239 6.583,-0.239 h 6.21 l 0.864,0.435 c 0.829,0.417 2.303,1.692 2.303,1.992 0,0.076 0.073,0.211 0.163,0.3 0.233,0.233 0.679,2.443 1.268,6.278 0.11,0.717 0.282,1.723 0.382,2.236 0.1,0.512 0.2,1.127 0.221,1.366 0.022,0.239 0.129,0.938 0.239,1.553 0.376,2.107 0.482,2.734 0.653,3.85 0.094,0.615 0.227,1.425 0.296,1.801 0.069,0.376 0.212,1.214 0.319,1.863 0.106,0.649 0.275,1.655 0.375,2.236 0.1,0.581 0.216,1.363 0.257,1.739 0.042,0.376 0.154,0.959 0.249,1.296 0.096,0.337 0.174,0.875 0.174,1.195 0,0.321 0.084,0.82 0.186,1.111 0.102,0.29 0.186,0.766 0.186,1.057 0,0.291 0.092,0.814 0.204,1.162 0.395,1.224 1.161,1.277 1.845,0.127 0.205,-0.345 0.484,-0.805 0.621,-1.022 0.137,-0.218 0.382,-0.646 0.546,-0.953 0.164,-0.306 0.373,-0.645 0.466,-0.753 0.092,-0.108 0.168,-0.234 0.168,-0.28 0,-0.066 2.976,-5.243 3.475,-6.04 0.064,-0.102 0.476,-0.801 0.917,-1.553 0.711,-1.213 0.997,-1.71 1.5,-2.608 0.076,-0.137 0.281,-0.472 0.455,-0.745 0.174,-0.273 0.351,-0.59 0.393,-0.705 0.042,-0.114 0.232,-0.45 0.422,-0.745 0.397,-0.619 0.648,-1.038 1.128,-1.89 0.188,-0.334 0.399,-0.699 0.467,-0.811 0.068,-0.112 0.46,-0.779 0.869,-1.483 0.41,-0.704 0.842,-1.429 0.961,-1.611 0.119,-0.182 0.276,-0.47 0.349,-0.64 0.074,-0.169 0.173,-0.337 0.222,-0.373 0.048,-0.036 0.156,-0.204 0.24,-0.375 0.083,-0.171 0.207,-0.394 0.275,-0.497 0.068,-0.102 0.774,-1.304 1.569,-2.67 0.795,-1.366 1.644,-2.736 1.888,-3.043 0.982,-1.241 3.044,-2.524 4.619,-2.874 0.997,-0.222 13.544,-0.302 14.198,-0.09 0.558,0.18 0.955,0.681 0.955,1.204 0,0.506 -0.362,1.889 -0.574,2.192 -0.094,0.135 -0.171,0.344 -0.171,0.466 0,0.121 -0.045,0.221 -0.1,0.221 -0.055,0 -0.197,0.218 -0.314,0.485 -0.118,0.267 -0.352,0.688 -0.521,0.937 -0.169,0.249 -0.307,0.474 -0.307,0.502 0,0.027 -0.31,0.57 -0.688,1.205 -0.379,0.636 -0.754,1.268 -0.835,1.404 -0.08,0.137 -0.281,0.468 -0.445,0.736 -0.165,0.268 -0.467,0.799 -0.673,1.18 -0.206,0.381 -0.441,0.776 -0.524,0.879 -0.082,0.102 -0.189,0.27 -0.236,0.373 -0.098,0.212 -0.246,0.458 -0.736,1.217 -0.189,0.294 -0.398,0.657 -0.463,0.807 -0.065,0.15 -0.329,0.609 -0.587,1.019 -0.258,0.41 -1.77,2.953 -3.361,5.651 -1.591,2.698 -2.942,4.99 -3,5.092 -0.061,0.102 -0.351,0.596 -0.645,1.096 -0.294,0.5 -0.632,1.059 -0.75,1.242 -0.119,0.183 -0.272,0.463 -0.342,0.622 -0.07,0.159 -0.28,0.523 -0.468,0.809 -0.508,0.775 -0.629,0.976 -0.836,1.386 -0.103,0.205 -0.297,0.54 -0.43,0.745 -0.133,0.205 -0.329,0.526 -0.435,0.714 -0.106,0.188 -0.28,0.495 -0.387,0.683 -0.106,0.188 -0.288,0.488 -0.404,0.667 -0.116,0.179 -0.428,0.71 -0.695,1.18 -0.266,0.47 -0.664,1.134 -0.883,1.476 -0.219,0.342 -0.667,1.096 -0.995,1.677 -0.328,0.581 -0.727,1.234 -0.887,1.451 -0.16,0.217 -0.291,0.48 -0.291,0.583 0,0.103 -0.053,0.22 -0.118,0.26 -0.065,0.04 -0.599,0.896 -1.186,1.901 -0.587,1.01 -1.135,1.938 -1.217,2.072 -0.082,0.134 -0.289,0.469 -0.459,0.745 -0.17,0.276 -0.38,0.641 -0.466,0.812 -0.086,0.171 -0.268,0.478 -0.403,0.683 -0.136,0.205 -0.303,0.484 -0.372,0.621 -0.069,0.137 -0.195,0.36 -0.28,0.497 -0.085,0.137 -0.327,0.528 -0.539,0.869 -0.212,0.342 -0.424,0.705 -0.472,0.807 -0.048,0.102 -0.155,0.298 -0.238,0.435 -0.083,0.137 -0.444,0.731 -0.802,1.321 -0.359,0.59 -0.652,1.104 -0.652,1.143 0,0.038 -0.16,0.31 -0.356,0.604 -0.196,0.294 -0.512,0.814 -0.702,1.155 -0.191,0.342 -0.409,0.733 -0.486,0.869 -0.077,0.137 -0.293,0.487 -0.48,0.778 -0.188,0.291 -0.493,0.802 -0.68,1.135 -0.266,0.475 -1.486,2.532 -2.511,4.235 -0.062,0.102 -0.351,0.605 -0.643,1.118 -0.292,0.512 -0.567,0.959 -0.612,0.994 -0.045,0.034 -0.232,0.342 -0.415,0.683 -0.762,1.416 -1.098,1.998 -1.263,2.183 -0.096,0.108 -0.174,0.235 -0.174,0.282 0,0.047 -0.152,0.322 -0.338,0.611 -0.186,0.289 -0.401,0.637 -0.478,0.774 -0.077,0.137 -0.256,0.444 -0.398,0.683 -0.143,0.239 -0.396,0.686 -0.564,0.994 -0.168,0.307 -0.507,0.865 -0.754,1.239 -0.247,0.374 -0.449,0.747 -0.449,0.828 0,0.081 -0.047,0.166 -0.104,0.189 -0.057,0.023 -0.564,0.837 -1.126,1.809 -0.562,0.972 -1.074,1.8 -1.138,1.839 -0.064,0.04 -0.116,0.156 -0.116,0.26 0,0.103 -0.07,0.266 -0.155,0.361 -0.085,0.095 -0.435,0.5 -0.776,0.9 -0.966,1.132 -2.648,2.278 -3.606,2.458 -0.228,0.043 -0.511,0.184 -0.628,0.314 -0.205,0.226 -0.484,0.236 -6.685,0.236 -6.337,0 -6.475,-0.005 -6.627,-0.248"
           inkscape:connector-curvature="0"
           id="path71" />
        <path
           d="m 173.68,-194.97 c -5.903,0 -7.861,0.106 -10.806,0.578 -0.444,0.071 -1.227,0.179 -1.739,0.241 -0.512,0.062 -1.345,0.196 -1.848,0.299 -0.503,0.102 -1.068,0.186 -1.258,0.186 -0.189,0 -0.543,0.084 -0.788,0.186 -0.245,0.102 -0.608,0.186 -0.803,0.186 -0.46,0 -2.02,0.479 -2.271,0.699 -0.108,0.093 -0.254,0.171 -0.326,0.171 -0.277,0 -2.022,1.883 -2.022,2.181 0,0.044 -0.084,0.254 -0.186,0.47 -0.243,0.512 -0.548,1.594 -0.679,2.403 -0.058,0.355 -0.147,0.714 -0.198,0.796 -0.051,0.082 -0.164,0.491 -0.252,0.908 -0.089,0.417 -0.279,1.26 -0.423,1.875 -0.48,2.055 -0.35,3.145 0.404,3.408 0.724,0.252 1.442,0.123 3.695,-0.671 0.239,-0.084 0.63,-0.222 0.869,-0.307 0.239,-0.084 1.022,-0.295 1.739,-0.466 0.717,-0.171 1.612,-0.383 1.987,-0.474 0.962,-0.231 2.029,-0.429 3.043,-0.571 0.478,-0.067 1.121,-0.182 1.428,-0.252 1.795,-0.413 7.508,-0.393 10.185,0.035 5.02,0.803 7.07,2.606 6.909,6.094 -0.069,1.525 -0.713,2.084 -2.403,2.088 -0.816,0.002 -1.74,0.079 -3.637,0.307 -0.171,0.02 -0.73,0.073 -1.242,0.116 -1.176,0.099 -3.996,0.413 -5.217,0.582 -0.512,0.071 -1.407,0.181 -1.987,0.245 -0.581,0.064 -1.469,0.201 -1.972,0.303 -0.503,0.102 -1.089,0.184 -1.304,0.182 -0.215,-0.001 -0.807,0.087 -1.32,0.194 -0.512,0.107 -1.49,0.309 -2.174,0.45 -0.683,0.141 -1.454,0.333 -1.712,0.427 -0.258,0.094 -0.621,0.171 -0.807,0.171 -0.186,0 -0.499,0.084 -0.695,0.186 -0.196,0.102 -0.444,0.186 -0.551,0.186 -0.265,0 -1.747,0.479 -2.154,0.695 -0.181,0.096 -0.424,0.175 -0.54,0.175 -0.116,0 -0.358,0.079 -0.54,0.175 -0.181,0.096 -0.693,0.328 -1.137,0.516 -0.913,0.388 -2.452,1.113 -2.732,1.289 -0.102,0.064 -0.592,0.352 -1.087,0.637 -0.495,0.285 -0.9,0.568 -0.9,0.629 0,0.06 -0.062,0.109 -0.136,0.109 -0.47,0 -3.645,3.01 -4.417,4.192 -0.258,0.394 -0.499,0.742 -0.536,0.776 -0.129,0.121 -0.449,0.725 -1.265,2.395 -0.126,0.258 -0.229,0.529 -0.229,0.602 0,0.073 -0.075,0.309 -0.167,0.524 -0.611,1.424 -1.075,4.374 -1.075,6.839 0,2.781 0.534,4.966 1.673,6.843 0.166,0.273 0.345,0.588 0.4,0.699 0.168,0.341 1.171,1.504 1.894,2.197 2.114,2.026 5.372,3.457 8.415,3.699 0.602,0.048 1.206,0.13 1.343,0.182 0.56,0.217 5.855,-0.106 7.328,-0.446 1.114,-0.258 2.553,-0.667 2.798,-0.796 0.105,-0.055 0.384,-0.139 0.621,-0.19 0.237,-0.051 0.571,-0.166 0.741,-0.252 0.171,-0.086 0.618,-0.284 0.994,-0.439 1.342,-0.552 3.02,-1.411 3.33,-1.704 0.09,-0.085 0.243,-0.155 0.338,-0.155 0.094,0 0.213,-0.072 0.268,-0.159 0.055,-0.087 0.241,-0.223 0.411,-0.307 0.471,-0.23 0.843,-0.478 1.444,-0.959 0.215,-0.172 0.429,-0.314 0.474,-0.314 0.074,0 0.796,-0.477 0.939,-0.621 0.236,-0.237 0.895,-0.621 1.064,-0.621 0.173,0 0.191,0.099 0.124,0.652 -0.241,1.984 -0.229,2.399 0.109,3.113 0.35,0.739 0.821,1.163 1.653,1.49 0.467,0.184 1.152,0.21 5.713,0.21 4.355,-10e-4 5.24,-0.03 5.539,-0.186 0.196,-0.102 0.455,-0.186 0.574,-0.186 0.12,0 0.362,-0.112 0.536,-0.248 0.174,-0.137 0.362,-0.248 0.423,-0.248 0.061,0 0.421,-0.297 0.8,-0.664 0.745,-0.721 1.351,-1.681 1.351,-2.139 0,-0.158 0.062,-0.444 0.136,-0.637 0.074,-0.192 0.217,-0.741 0.318,-1.219 0.101,-0.478 0.262,-1.205 0.357,-1.615 0.095,-0.41 0.234,-1.025 0.311,-1.366 0.076,-0.342 0.217,-0.928 0.311,-1.304 0.094,-0.376 0.289,-1.214 0.435,-1.863 0.146,-0.649 0.342,-1.438 0.439,-1.754 0.097,-0.317 0.179,-0.678 0.179,-0.803 0,-0.126 0.188,-1.013 0.419,-1.972 0.489,-2.023 0.642,-2.683 0.881,-3.792 0.096,-0.444 0.258,-1.143 0.361,-1.553 0.442,-1.763 0.685,-2.811 0.815,-3.54 0.098,-0.549 0.372,-1.689 0.699,-2.919 0.191,-0.72 0.373,-1.533 0.602,-2.67 0.089,-0.444 0.229,-0.964 0.307,-1.157 0.077,-0.192 0.14,-0.498 0.14,-0.679 0,-0.181 0.076,-0.555 0.171,-0.831 0.095,-0.276 0.232,-0.808 0.307,-1.184 0.074,-0.376 0.257,-1.186 0.404,-1.801 0.249,-1.043 0.32,-1.651 0.555,-4.627 0.211,-2.675 -0.431,-5.349 -1.77,-7.382 -0.487,-0.74 -2.672,-2.958 -2.915,-2.958 -0.052,0 -0.335,-0.159 -0.629,-0.353 -0.495,-0.328 -1.241,-0.705 -2.146,-1.079 -0.205,-0.085 -0.64,-0.271 -0.966,-0.415 -0.326,-0.145 -0.707,-0.264 -0.846,-0.264 -0.139,0 -0.372,-0.063 -0.516,-0.14 -0.295,-0.158 -1.317,-0.413 -2.701,-0.671 -4.346,-0.811 -5.087,-0.866 -11.675,-0.866 m 3.159,29.817 c 0.257,-0.003 0.398,0.037 0.543,0.132 0.304,0.198 0.308,0.476 0.019,1.661 -0.058,0.239 -0.223,0.938 -0.369,1.553 -0.145,0.615 -0.322,1.337 -0.392,1.603 -0.07,0.266 -0.173,0.741 -0.229,1.056 -0.056,0.315 -0.158,0.738 -0.229,0.943 -0.109,0.316 -0.465,1.825 -0.691,2.919 -0.093,0.451 -0.877,1.61 -1.401,2.077 -0.469,0.418 -0.944,0.691 -2.833,1.619 -2.394,1.175 -3.44,1.54 -5.092,1.778 -0.915,0.132 -3.906,0.123 -4.976,-0.016 -0.346,-0.045 -0.748,-0.148 -0.893,-0.225 -0.144,-0.077 -0.373,-0.14 -0.505,-0.14 -0.271,0 -1.827,-0.784 -2.181,-1.098 -0.302,-0.267 -0.83,-1.08 -1.06,-1.634 -0.099,-0.239 -0.205,-0.994 -0.233,-1.677 -0.06,-1.453 0.179,-2.683 0.749,-3.866 0.594,-1.233 1.648,-2.355 3,-3.206 0.621,-0.391 2.302,-1.188 2.507,-1.188 0.104,0 0.31,-0.063 0.454,-0.14 0.144,-0.077 0.574,-0.214 0.955,-0.303 1.652,-0.385 1.979,-0.457 2.802,-0.613 1.402,-0.266 3.402,-0.547 4.471,-0.629 0.546,-0.042 1.161,-0.124 1.366,-0.182 0.205,-0.058 0.904,-0.143 1.553,-0.186 0.649,-0.044 1.571,-0.127 2.049,-0.186 0.263,-0.032 0.459,-0.049 0.613,-0.05"
           inkscape:connector-curvature="0"
           id="path73" />
        <path
           d="m 106.5,-211.3 c -12.463,0 -14.158,0.022 -14.221,0.186 -0.039,0.102 -0.141,0.186 -0.229,0.186 -0.389,0 -1.462,0.709 -2.123,1.405 -0.763,0.803 -1.155,1.53 -1.327,2.445 -0.058,0.307 -0.161,0.782 -0.229,1.056 -0.068,0.273 -0.186,0.776 -0.264,1.118 -0.078,0.342 -0.23,0.984 -0.334,1.428 -0.104,0.444 -0.258,1.179 -0.345,1.63 -0.087,0.451 -0.196,0.879 -0.241,0.951 -0.075,0.122 -0.192,0.65 -0.621,2.76 -0.184,0.904 -0.388,1.744 -0.648,2.682 -0.096,0.348 -0.175,0.745 -0.175,0.885 0,0.14 -0.081,0.525 -0.179,0.858 -0.097,0.332 -0.293,1.122 -0.435,1.754 -0.142,0.632 -0.375,1.666 -0.516,2.298 -0.142,0.632 -0.337,1.422 -0.435,1.754 -0.097,0.332 -0.175,0.779 -0.175,0.994 0,0.214 -0.084,0.55 -0.186,0.745 -0.102,0.196 -0.186,0.534 -0.186,0.753 0,0.219 -0.079,0.645 -0.175,0.947 -0.096,0.303 -0.299,1.11 -0.45,1.793 -0.152,0.683 -0.352,1.491 -0.446,1.793 -0.094,0.303 -0.171,0.709 -0.171,0.904 0,0.195 -0.075,0.536 -0.167,0.757 -0.092,0.221 -0.211,0.68 -0.26,1.021 -0.049,0.34 -0.166,0.894 -0.264,1.23 -0.098,0.337 -0.179,0.762 -0.179,0.947 0,0.185 -0.084,0.499 -0.186,0.695 -0.102,0.196 -0.186,0.504 -0.186,0.687 0,0.183 -0.061,0.491 -0.136,0.683 -0.075,0.192 -0.211,0.741 -0.303,1.219 -0.092,0.478 -0.229,1.121 -0.303,1.428 -0.074,0.307 -0.194,0.81 -0.268,1.118 -0.074,0.307 -0.215,0.894 -0.314,1.304 -0.099,0.41 -0.255,1.108 -0.345,1.553 -0.091,0.444 -0.235,1.087 -0.318,1.428 -0.083,0.342 -0.221,0.928 -0.311,1.304 -0.089,0.376 -0.261,1.074 -0.38,1.553 -0.12,0.478 -0.237,1.037 -0.264,1.242 -0.027,0.205 -0.129,0.652 -0.225,0.994 -0.096,0.342 -0.235,0.9 -0.311,1.242 -0.075,0.342 -0.21,0.956 -0.303,1.366 -0.093,0.41 -0.257,1.136 -0.365,1.615 -0.108,0.478 -0.311,1.372 -0.454,1.987 -0.143,0.615 -0.32,1.397 -0.392,1.739 -0.072,0.342 -0.208,0.846 -0.303,1.122 -0.095,0.276 -0.171,0.684 -0.171,0.908 0,0.224 -0.05,0.505 -0.113,0.621 -0.062,0.116 -0.199,0.602 -0.303,1.079 -0.104,0.477 -0.279,1.257 -0.388,1.735 -0.109,0.478 -0.301,1.37 -0.431,1.983 -0.13,0.613 -0.295,1.136 -0.369,1.161 -0.158,0.053 -0.192,2.259 -0.035,2.259 0.056,0 0.193,0.188 0.303,0.419 0.258,0.541 1.046,1.203 1.661,1.393 0.755,0.235 11.86,0.234 12.758,0 1.21,-0.315 2.723,-1.51 3.237,-2.554 0.343,-0.696 0.787,-2.319 1.056,-3.854 0.054,-0.307 0.197,-0.922 0.314,-1.366 0.35,-1.32 0.536,-2.104 0.815,-3.416 0.146,-0.683 0.338,-1.521 0.431,-1.863 0.301,-1.113 0.47,-1.852 0.567,-2.5 0.052,-0.35 0.15,-0.741 0.217,-0.869 0.068,-0.128 0.164,-0.54 0.213,-0.916 0.05,-0.376 0.165,-0.872 0.26,-1.102 0.095,-0.23 0.175,-0.533 0.175,-0.671 0,-0.53 0.667,-1.648 1.44,-2.414 0.433,-0.429 0.843,-0.78 0.908,-0.78 0.065,0 0.193,-0.07 0.283,-0.155 0.09,-0.085 0.449,-0.253 0.8,-0.373 0.542,-0.185 1.148,-0.218 4.04,-0.229 1.869,-0.007 3.931,-0.059 4.58,-0.116 0.649,-0.058 2.162,-0.192 3.361,-0.295 1.199,-0.103 2.429,-0.241 2.732,-0.311 0.304,-0.07 0.765,-0.13 1.029,-0.132 0.263,-0.002 0.85,-0.087 1.304,-0.186 0.454,-0.1 1.134,-0.24 1.51,-0.314 1.872,-0.373 4.487,-1.057 5.341,-1.397 0.171,-0.068 0.478,-0.17 0.683,-0.225 0.473,-0.126 1.363,-0.443 1.925,-0.687 0.239,-0.104 0.653,-0.285 0.92,-0.4 2.068,-0.891 6.494,-3.457 7.25,-4.204 0.087,-0.086 0.418,-0.366 0.737,-0.625 1.324,-1.073 2.294,-2 3.202,-3.066 0.342,-0.4 0.679,-0.792 0.749,-0.869 0.626,-0.688 2.09,-2.972 2.608,-4.068 0.174,-0.366 0.364,-0.751 0.419,-0.854 0.282,-0.523 0.527,-1.14 0.765,-1.925 0.145,-0.478 0.342,-1.053 0.439,-1.277 0.097,-0.224 0.175,-0.505 0.175,-0.625 0,-0.12 0.089,-0.552 0.198,-0.959 0.199,-0.739 0.296,-1.483 0.563,-4.398 0.141,-1.539 0.126,-1.822 -0.256,-5.566 -0.058,-0.565 -0.166,-1.18 -0.241,-1.366 -0.075,-0.187 -0.187,-0.565 -0.252,-0.838 -0.065,-0.273 -0.209,-0.748 -0.318,-1.056 -0.776,-2.188 -1.913,-3.96 -3.621,-5.647 -1.03,-1.018 -2.861,-2.426 -3.156,-2.426 -0.066,0 -0.12,-0.047 -0.12,-0.105 0,-0.058 -0.377,-0.286 -0.838,-0.505 -0.461,-0.218 -0.922,-0.439 -1.025,-0.493 -0.663,-0.347 -1.031,-0.512 -1.141,-0.512 -0.07,0 -0.301,-0.076 -0.516,-0.171 -0.575,-0.254 -1.558,-0.572 -2.17,-0.703 -0.295,-0.063 -0.602,-0.154 -0.679,-0.202 -0.145,-0.089 -1.309,-0.334 -2.635,-0.551 -0.41,-0.067 -1.025,-0.179 -1.366,-0.248 -0.342,-0.07 -1.487,-0.185 -2.546,-0.256 -1.243,-0.083 -2.023,-0.19 -2.201,-0.303 -0.232,-0.148 -2.469,-0.175 -14.427,-0.175 m 3.051,13.239 c 0.593,-0.003 1.37,-0.003 2.399,0 4.07,0.011 4.188,0.02 5.403,0.338 1.9,0.497 2.401,0.647 2.5,0.745 0.05,0.05 0.454,0.263 0.9,0.474 0.976,0.461 2.386,1.826 2.919,2.826 0.99,1.858 1.076,5.378 0.194,7.965 -0.691,2.026 -2.323,4.274 -3.889,5.356 -1.492,1.03 -1.766,1.198 -2.686,1.63 -2.305,1.082 -4.865,1.689 -8.07,1.921 -2.039,0.148 -5.435,0.131 -6.01,-0.031 -1.479,-0.414 -2.704,-2.265 -2.329,-3.517 0.079,-0.264 0.144,-0.602 0.144,-0.749 0,-0.147 0.105,-0.674 0.237,-1.168 0.131,-0.494 0.308,-1.176 0.388,-1.518 0.081,-0.342 0.225,-0.956 0.322,-1.366 0.097,-0.41 0.25,-1.081 0.342,-1.49 0.091,-0.41 0.229,-0.997 0.307,-1.304 0.077,-0.307 0.34,-1.425 0.582,-2.484 0.242,-1.059 0.521,-2.21 0.621,-2.558 0.1,-0.348 0.182,-0.783 0.182,-0.966 0,-0.366 0.548,-1.519 1.025,-2.154 0.166,-0.221 0.521,-0.571 0.788,-0.776 0.267,-0.205 0.549,-0.426 0.625,-0.489 0.076,-0.063 0.412,-0.244 0.745,-0.404 0.45,-0.215 0.589,-0.27 2.368,-0.279"
           inkscape:connector-curvature="0"
           id="path75" />
      </g>
    </g>
  </g>
  <path
     d="M 78.66,6 C 63.797,6 49.99,10.43 38.5,18.03 V 493.97 C 49.986,501.572 63.793,506 78.66,506 h 68.844 V 6 H 78.66"
     inkscape:connector-curvature="0"
     id="path77"
     style="opacity:0.05;fill:url(#1)" />
  <path
     d="m 147.5,6 v 500 h 109 V 6 h -109"
     inkscape:connector-curvature="0"
     id="path79"
     style="opacity:0.05;fill:url(#2)" />
  <path
     d="m 256.5,6 v 500 h 109 V 6 h -109"
     inkscape:connector-curvature="0"
     id="path81"
     style="opacity:0.05;fill:url(#3)" />
  <path
     d="m 365.5,6 v 500 h 67.844 c 14.854,0 28.643,-4.438 40.13,-12.03 V 18.03 C 461.992,10.437 448.204,6 433.354,6 H 365.51"
     inkscape:connector-curvature="0"
     id="path83"
     style="opacity:0.05;fill:url(#4)" />
  <path
     d="M 38.5,18.03 C 18.886,31.011 6,53.27 6,78.66 v 354.69 c 0,25.381 12.886,47.644 32.5,60.63 V 18.04"
     inkscape:connector-curvature="0"
     id="path85"
     style="opacity:0.05;fill:url(#6)" />
  <path
     d="m 473.47,18.03 v 475.94 c 19.627,-12.979 32.531,-35.23 32.531,-60.62 V 78.66 c 0,-25.391 -12.905,-47.646 -32.531,-60.62"
     inkscape:connector-curvature="0"
     id="path87"
     style="opacity:0.05;fill:url(#5)" />
</svg>
