<svg xmlns="http://www.w3.org/2000/svg" xmlns:xlink="http://www.w3.org/1999/xlink" viewBox="0 0 512 512"><defs><filter id="7"><feGaussianBlur stdDeviation="3.7725"/></filter><linearGradient id="8" y1="19.564" x2="0" y2="504.02" gradientUnits="userSpaceOnUse"><stop stop-color="#f3f3f3"/><stop offset=".5" stop-color="#eee"/><stop offset="1" stop-color="#ebebeb"/></linearGradient><linearGradient xlink:href="#0" id="5" gradientUnits="userSpaceOnUse" gradientTransform="matrix(1.02835 0 0 1.46193 209.19-118.25)" x1="257" x2="362"/><linearGradient xlink:href="#0" id="6" gradientUnits="userSpaceOnUse" gradientTransform="matrix(1.0381 0 0 1.46193-337.29-118.25)" x1="257" x2="362"/><linearGradient xlink:href="#0" id="4" gradientUnits="userSpaceOnUse" gradientTransform="matrix(1.02835 0 0 1.46193 101.22-118.25)" x1="257" x2="362"/><linearGradient xlink:href="#0" id="3" gradientUnits="userSpaceOnUse" gradientTransform="matrix(1.0381 0 0 1.46193-10.289-118.25)" x1="257" x2="362"/><linearGradient id="0"><stop/><stop offset="1" stop-color="#fff"/></linearGradient><linearGradient xlink:href="#0" id="2" gradientUnits="userSpaceOnUse" gradientTransform="matrix(1.0381 0 0 1.46193-119.29-118.25)" x1="257" x2="362"/><linearGradient xlink:href="#0" id="1" gradientUnits="userSpaceOnUse" gradientTransform="matrix(1.0381 0 0 1.46193-228.29-118.25)" x1="257" x2="362"/></defs><path d="m78.66 6c-.929 0-1.861.028-2.781.063-.073.003-.146-.003-.219 0-.668.027-1.337.08-2 .125-.376.025-.751.063-1.125.094-.645.053-1.297.086-1.938.156-.965.106-1.922.232-2.875.375-.052.008-.104.023-.156.031-1.082.165-2.154.351-3.219.563-.459.091-.919.182-1.375.281-.39.085-.769.19-1.156.281-.647.152-1.297.299-1.938.469-.898.238-1.804.479-2.688.75-.211.065-.414.152-.625.219-.991.314-1.966.645-2.938 1-.817.298-1.635.611-2.438.938-.29.118-.587.222-.875.344-.136.057-.27.129-.406.188-.082.035-.169.058-.25.094-.717.311-1.42.636-2.125.969-.147.069-.291.148-.438.219-.947.455-1.889.943-2.813 1.438-.271.145-.544.289-.813.438-.414.228-.81.483-1.219.719-.52.3-1.051.594-1.563.906-.738.452-1.467.898-2.188 1.375-.031.021-.062.042-.094.063-.456.303-.895.625-1.344.938-.123.086-.252.163-.375.25-.524.37-1.049.742-1.563 1.125-1.835 1.371-3.618 2.84-5.313 4.375-.017.015-.046.016-.063.031-.526.477-1.02.977-1.531 1.469-.524.505-1.054 1.011-1.563 1.531-.512.523-1 1.055-1.5 1.594-.941 1.022-1.837 2.05-2.719 3.125-.631.769-1.244 1.58-1.844 2.375-.111.148-.233.289-.344.438-.526.71-1.031 1.427-1.531 2.156-.11.16-.235.308-.344.469-.013.019-.018.043-.031.063-.084.125-.167.249-.25.375-.47.708-.929 1.431-1.375 2.156-.071.116-.148.227-.219.344-.575.948-1.124 1.899-1.656 2.875-.152.278-.289.564-.438.844-.18.341-.356.687-.531 1.031-.243.479-.486.952-.719 1.438-.426.885-.828 1.783-1.219 2.688-.24.556-.461 1.124-.688 1.688-.038.095-.087.186-.125.281-.246.621-.489 1.245-.719 1.875-.332.909-.641 1.825-.938 2.75-.11.345-.238.684-.344 1.031-.301.99-.585 1.992-.844 3-.008.032-.023.062-.031.094-.267 1.046-.497 2.092-.719 3.156-.034.166-.06.334-.094.5-.426 2.117-.762 4.257-1 6.438-.035.323-.063.645-.094.969-.09.938-.165 1.895-.219 2.844-.017.29-.018.584-.031.875-.051 1.119-.094 2.243-.094 3.375v354.69 6c0 40.24 32.411 72.66 72.66 72.66h354.69c40.24 0 72.66-32.411 72.66-72.66v-354.69-6c0-1.259-.031-2.507-.094-3.75-.016-.323-.042-.647-.063-.969-.058-.917-.127-1.843-.219-2.75-.02-.2-.041-.394-.063-.594-.246-2.245-.587-4.447-1.031-6.625-.021-.104-.041-.209-.063-.313-.227-1.087-.476-2.15-.75-3.219-.011-.042-.02-.083-.031-.125-.19-.732-.413-1.464-.625-2.188-.212-.724-.423-1.442-.656-2.156-.258-.789-.529-1.567-.813-2.344-.23-.63-.472-1.254-.719-1.875-.038-.096-.087-.186-.125-.281-.239-.594-.465-1.195-.719-1.781-.378-.871-.777-1.741-1.188-2.594-.233-.485-.475-.958-.719-1.438-.287-.564-.574-1.132-.875-1.688-.051-.094-.105-.188-.156-.281-.513-.936-1.041-1.871-1.594-2.781-.212-.35-.438-.685-.656-1.031-.405-.642-.795-1.278-1.219-1.906-.809-1.199-1.685-2.354-2.563-3.5-.262-.341-.514-.695-.781-1.031-.189-.238-.371-.483-.563-.719-.093-.114-.188-.231-.281-.344-2.71-3.286-5.696-6.301-8.938-9.06-.293-.249-.578-.505-.875-.75-.268-.221-.541-.439-.813-.656-.636-.509-1.284-1.012-1.938-1.5-3.17-2.368-6.55-4.481-10.09-6.313-.617-.319-1.248-.636-1.875-.938-.155-.074-.313-.145-.469-.219-.785-.371-1.575-.719-2.375-1.063-.488-.209-.975-.426-1.469-.625-.735-.296-1.472-.571-2.219-.844-.392-.143-.793-.27-1.188-.406-.718-.248-1.459-.524-2.188-.75-.114-.035-.23-.059-.344-.094-.488-.149-.977-.267-1.469-.406-.357-.1-.703-.217-1.063-.313-.019-.005-.043.005-.063 0-.837-.221-1.683-.433-2.531-.625-.032-.007-.062-.024-.094-.031-.651-.146-1.311-.278-1.969-.406-1-.197-2.01-.376-3.03-.531-.063-.01-.125-.022-.188-.031-.952-.143-1.88-.269-2.844-.375-.836-.091-1.687-.156-2.531-.219-.176-.013-.355-.019-.531-.031-.735-.049-1.478-.097-2.219-.125-.92-.034-1.853-.063-2.781-.063h-285.84-68.844" filter="url(#7)" fill-opacity=".176"/><rect width="500" height="500" x="6" y="12" rx="72.64" opacity=".15"/><rect rx="72.64" y="6" x="6" height="500" width="500" fill="url(#8)"/><rect width="435" height="435" x="38.5" y="38.5" rx="63.2" fill="#369"/><path d="m101.69 38.5c-35.01 0-63.19 28.17-63.19 63.19v15c0-35.01 28.17-63.19 63.19-63.19h308.63c35.01 0 63.19 28.17 63.19 63.19v-15c0-35.01-28.17-63.19-63.19-63.19h-308.62" opacity=".2"/><path d="m78.66 6c-40.24 0-72.66 32.411-72.66 72.66v7c0-40.24 32.411-72.66 72.66-72.66h354.69c40.24 0 72.66 32.411 72.66 72.66v-7c0-40.24-32.411-72.66-72.66-72.66h-354.69" fill="#fff"/><g transform="translate(-164.57 586.25)"><g transform="translate(15 15)" opacity=".2"><g transform="matrix(1.76286 0 0 1.76286-187.34 62.2)"><path d="m360.54-194.85c-2.493.008-4.741.076-5.395.206-.376.074-1.324.159-2.108.19-.784.031-1.49.11-1.568.175-.078.065-.23.087-.334.047-.104-.04-.227-.015-.272.058-.046.075-.495.135-1.036.136-.534.001-1.199.083-1.506.19-.302.105-.917.224-1.366.26-.45.036-1.027.144-1.285.241-.258.097-.748.175-1.091.175-.383 0-.646.06-.683.155-.033.085-.277.172-.547.19-.572.039-1.158.368-2.01 1.137-.642.577-1.343 1.519-1.343 1.801 0 .091-.084.233-.186.318-.103.085-.186.357-.186.605 0 .248-.086.616-.19.815-.104.199-.24.722-.303 1.164-.063.442-.172.863-.245.935-.072.072-.132.395-.132.714 0 .365-.069.636-.186.734-.116.096-.186.371-.186.73 0 .316-.086.74-.19.939-.42.806-.085 2.43.501 2.43.144 0 .318.058.388.128.146.146 1.28-.051 1.785-.311.171-.088.495-.2.722-.248.227-.048.562-.168.745-.264.183-.096.485-.175.668-.175.183 0 .414-.084.516-.186.11-.11.416-.186.741-.186.329 0 .611-.072.699-.179.081-.098.466-.21.854-.252.388-.042.89-.157 1.114-.256.224-.099.699-.182 1.056-.182.356 0 .806-.084 1-.186.196-.102.671-.186 1.056-.186.385 0 1.05-.107 1.475-.237.686-.208 1.233-.235 4.844-.248 3.745-.014 4.142.002 4.941.233.478.138 1.097.252 1.374.252.277 0 .613.082.745.182.133.1.427.184.656.186.229.002.564.088.745.19.181.102.47.241.64.311.171.07.478.238.683.373.205.135.456.286.559.334.274.128.869.745.869.9 0 .074.049.132.113.132.461 0 1.224 3.335.9 3.94-.079.147-.144.38-.144.516 0 .142-.227.433-.528.679-.509.416-.575.434-1.832.505-1.531.086-1.899.119-2.484.233-.239.046-1.133.112-1.987.147-.854.035-1.86.136-2.236.225-.376.089-1.154.177-1.727.198-.574.02-1.3.118-1.615.213-.314.095-.99.173-1.502.175-.512.002-1.155.082-1.428.175-.273.093-1.028.208-1.677.256-.649.049-1.244.144-1.324.21-.08.066-.639.171-1.242.233-.603.062-1.114.17-1.137.241-.024.071-.306.128-.625.128-.319 0-.727.08-.908.175-.182.095-.629.212-.994.26-.365.048-.788.164-.939.26-.151.096-.468.175-.706.175-.238 0-.481.075-.536.167-.055.092-.341.202-.637.241-.296.038-.633.156-.753.264-.12.108-.425.198-.675.198-.251 0-.454.057-.454.124 0 .067-.252.187-.559.264-.307.077-.559.187-.559.245 0 .058-.223.164-.493.237-.27.073-.526.186-.567.252-.041.066-.206.12-.369.12-.163 0-.329.052-.369.116-.04.064-.365.264-.722.442-.357.178-.872.457-1.145.621-.273.164-.581.339-.683.388-.217.104-.441.268-1.793 1.3-1.24.946-3.299 3.13-3.299 3.501 0 .14-.034.222-.078.179-.043-.043-.228.154-.408.442-.179.288-.396.636-.481.772-.085.137-.204.369-.268.516-.064.147-.176.304-.248.349-.072.045-.134.204-.136.353-.002.15-.086.38-.186.512-.1.133-.182.331-.182.439 0 .107-.112.405-.248.66-.137.255-.248.634-.248.842 0 .209-.078.53-.171.714-.093.184-.203.794-.245 1.358-.042.564-.147 1.151-.233 1.304-.27.48-.239 3.939.043 5.05.129.508.233 1.084.233 1.281 0 .197.084.445.186.547.102.102.186.337.186.524 0 .187.082.45.182.582.1.133.184.343.186.466.002.122.062.29.132.373.07.083.305.427.524.769.219.342.468.694.555.784.087.09.159.211.159.268 0 .173 2.496 2.598 2.76 2.682.135.043.351.184.481.314.243.243 1.706.982 1.945.982.073 0 .152.045.175.101.056.138 1.148.514 1.886.648.331.06.672.171.761.245.088.073.619.155 1.18.182.561.028 1.058.085 1.102.132.08.084 5.246-.006 6.893-.12.467-.032.919-.115 1.01-.186.086-.071.5-.166.92-.21.42-.044.827-.156.904-.248.077-.093.301-.171.501-.171.199 0 .582-.112.85-.248.268-.137.622-.248.788-.248.166 0 .333-.084.373-.186.045-.117.237-.186.512-.186.241 0 .439-.053.439-.116 0-.064.126-.153.279-.202.51-.162 2.313-1.046 2.391-1.172.042-.068.187-.124.322-.124.135 0 .276-.083.314-.182.038-.1.188-.218.334-.264.23-.073.894-.486 1.079-.671.23-.23.893-.621 1.052-.621.105 0 .19-.045.19-.101 0-.111.952-.768 1.114-.768.055 0 .131-.084.171-.186.039-.102.155-.186.256-.186.101 0 .27-.124.377-.276.106-.152.194-.238.194-.19 0 .048.135.035.299-.027.164-.063.318-.09.345-.062.097.097-.165 1.969-.326 2.329-.057.128-.014.561.105 1.032.158.627.314.923.687 1.3.266.269.559.489.652.489.093 0 .308.098.477.217.279.198.736.22 5.03.225 4.917.005 6.164-.057 6.245-.299.026-.079.242-.144.477-.144.266 0 .452-.071.497-.186.039-.102.149-.186.245-.186.095 0 .272-.083.392-.186.702-.609 1.025-.936 1.025-1.036 0-.062.087-.183.194-.272.288-.239.675-1.108.675-1.514 0-.196.081-.519.182-.714.101-.196.222-.68.268-1.079.046-.399.138-.759.206-.803.067-.044.145-.379.175-.745.029-.366.107-.779.171-.916.064-.137.166-.5.225-.807.098-.512.333-1.528.652-2.795.069-.273.175-.83.233-1.238.058-.408.163-.763.237-.788.074-.025.136-.33.136-.683 0-.353.084-.805.186-1 .102-.196.224-.672.268-1.056.044-.384.156-.808.248-.943.092-.135.167-.47.167-.745 0-.275.084-.658.186-.854.102-.196.186-.577.186-.846 0-.269.079-.646.179-.838.099-.192.237-.681.303-1.083.066-.402.178-.887.252-1.079.074-.192.136-.542.136-.78 0-.238.081-.596.182-.792.101-.196.222-.68.268-1.079.046-.399.16-.836.252-.97.092-.135.167-.502.167-.815 0-.313.082-.679.182-.811.1-.133.184-.452.186-.71.002-.258.087-.669.19-.916.103-.247.222-.762.264-1.145.042-.383.154-.823.248-.974.094-.151.171-.549.171-.885 0-.391.067-.666.186-.765.122-.101.186-.378.186-.796 0-.354.08-.752.179-.893.098-.139.216-.613.264-1.052.048-.439.155-.939.241-1.11.152-.305.337-2.573.345-4.285.009-1.808-.367-3.945-.854-4.879-.096-.184-.175-.4-.175-.477 0-.077-.084-.21-.186-.295-.102-.085-.186-.26-.186-.388 0-.128-.06-.233-.132-.233-.072 0-.198-.167-.283-.369-.326-.776-3.168-3.357-3.695-3.357-.073 0-.216-.084-.318-.186-.102-.102-.287-.186-.411-.186-.124 0-.26-.084-.299-.186-.039-.102-.217-.186-.396-.186-.179 0-.467-.112-.64-.248-.174-.137-.472-.248-.66-.248-.187 0-.408-.084-.493-.186-.087-.105-.358-.186-.621-.186-.257 0-.532-.074-.609-.167-.077-.093-.438-.205-.803-.248-.365-.043-.867-.165-1.114-.268-.247-.103-.725-.186-1.067-.186-.342 0-.837-.083-1.095-.182-.258-.1-.997-.208-1.646-.241-.649-.032-1.403-.09-1.677-.132-1.143-.173-4.752-.262-7.957-.252m4.192 29.689c.684-.01 1.013.048 1.102.182.147.221.024 1.519-.155 1.63-.068.042-.165.405-.213.807-.049.402-.155.852-.237 1-.082.149-.147.548-.147.889 0 .34-.061.64-.132.664-.071.024-.176.396-.237.827-.061.431-.175.858-.252.951-.077.093-.174.495-.213.893-.04.398-.148.832-.241.966-.092.135-.167.481-.167.769 0 .287-.077.597-.171.691-.093.093-.212.31-.264.477-.109.353-1.413 1.722-1.646 1.727-.086.002-.256.116-.373.252-.117.137-.302.248-.415.248-.113 0-.276.084-.361.186-.085.102-.262.186-.392.186-.13 0-.269.08-.307.179-.038.098-.242.217-.454.264-.212.047-.465.162-.559.256-.094.094-.271.171-.392.171-.121 0-.347.112-.505.248-.158.137-.432.25-.609.252-.177.002-.43.086-.563.186-.133.1-.388.182-.567.182-.179 0-.434.082-.567.182-.143.108-.523.184-.932.186-.379.002-.742.053-.807.113-.183.169-1.884.239-2.849.116-.478-.06-1.26-.141-1.735-.179-.475-.038-.976-.148-1.114-.245-.137-.096-.362-.175-.501-.175-.139 0-.416-.108-.617-.241-.201-.132-.413-.212-.474-.175-.06.037-.203-.02-.318-.128-.115-.108-.388-.351-.605-.54-.418-.363-1.032-1.201-1.032-1.409 0-.068-.092-.263-.202-.431-.167-.255-.19-.602-.151-2.1.031-1.206.095-1.849.198-1.952.084-.084.155-.337.155-.563 0-.247.1-.511.252-.664.139-.139.222-.299.186-.357-.036-.058.019-.176.12-.26.102-.084.186-.228.186-.318 0-.09.097-.237.217-.326.121-.089.32-.321.442-.512.122-.192.304-.377.404-.415.099-.038.366-.244.59-.458.633-.605.882-.781 1.564-1.095.348-.16.633-.333.633-.384 0-.052.098-.093.217-.093.12 0 .385-.113.59-.248.205-.136.546-.248.761-.248.232 0 .419-.076.462-.186.05-.13.255-.186.671-.186.329 0 .714-.082.858-.182.143-.1.566-.206.943-.237.377-.031.859-.144 1.067-.252.227-.117.694-.197 1.161-.198.43-.001 1.01-.084 1.281-.182.298-.107.978-.179 1.7-.182.662-.003 1.233-.054 1.269-.113.067-.108.689-.187 2.806-.357.692-.055 1.228-.087 1.638-.093"/><path d="m298.69-210.77c-1.372 0-2.886.001-4.553.004-13.13.02-14 .033-14.229.237-.132.12-.356.217-.497.217-.141 0-.291.084-.33.186-.039.102-.134.186-.213.186-.186 0-1.23 1.041-1.23 1.227 0 .077-.052.14-.113.14-.061 0-.147.154-.194.342-.047.188-.157.425-.245.528-.088.102-.196.488-.237.854-.041.366-.133.735-.206.823-.073.088-.168.461-.21.827-.042.366-.152.773-.245.908-.092.135-.168.526-.171.869-.002.343-.085.765-.182.935-.098.171-.18.604-.182.963-.003.482-.068.717-.252.9-.181.181-.248.417-.248.858 0 .334-.084.767-.186.963-.102.196-.186.639-.186.99 0 .414-.065.691-.186.792-.113.094-.186.364-.186.687 0 .293-.112.795-.248 1.114-.137.319-.248.775-.248 1.013 0 .238-.064.549-.14.691-.076.142-.188.652-.248 1.133-.06.481-.157.905-.217.943-.06.038-.152.377-.202.753-.05.376-.141.744-.202.819-.061.075-.146.494-.19.932-.044.437-.156.905-.248 1.04-.092.135-.167.483-.167.772 0 .29-.112.81-.248 1.157-.137.347-.25.837-.252 1.091-.002.254-.086.57-.186.703-.1.133-.184.496-.186.807-.002.311-.085.706-.182.877-.098.171-.18.483-.182.695-.002.211-.116.709-.252 1.106-.137.397-.25.923-.252 1.168-.002.245-.085.586-.182.757-.098.171-.18.552-.182.846-.002.294-.082.685-.175.869-.093.184-.207.624-.252.978-.045.354-.164.801-.264.994-.1.192-.182.605-.182.916 0 .311-.082.675-.182.807-.1.133-.184.477-.186.765-.002.288-.116.806-.252 1.153-.137.347-.248.841-.248 1.098 0 .258-.082.578-.182.71-.1.133-.184.443-.186.691-.002.248-.091.695-.198.994-.107.299-.208.799-.221 1.114-.013.314-.098.665-.19.776-.092.111-.204.526-.252.92-.048.394-.155.837-.237.986-.082.149-.147.468-.147.71 0 .242-.078.655-.175.912-.097.258-.206.745-.241 1.087-.035.342-.153.789-.26.994-.107.205-.194.558-.194.784 0 .227-.069.534-.151.683-.082.149-.184.657-.229 1.126-.045.468-.138.888-.206.932-.067.044-.155.395-.194.78-.039.385-.156.87-.264 1.079-.108.209-.198.657-.198.994 0 .365-.07.669-.171.753-.093.077-.199.477-.237.889-.037.412-.122.814-.19.897-.068.083-.164.431-.21.772-.046.342-.163.833-.26 1.091-.097.258-.175.677-.175.932 0 .255-.076.606-.167.78-.091.175-.205.646-.252 1.048-.047.402-.138.792-.202.869-.064.077-.154.472-.198.877-.044.405-.158.862-.252 1.013-.247.396-.235 2.311.015 2.519.102.085.186.208.186.276 0 .067.145.301.326.516.324.385.804.666 1.413.834.171.047 3.071.08 6.447.07 4.702-.014 6.152-.055 6.191-.171.028-.083.238-.186.47-.229.232-.043.488-.157.567-.252.079-.095.209-.175.291-.175.082 0 .368-.229.637-.508.268-.28.587-.599.706-.71.12-.111.217-.279.217-.373 0-.094.112-.311.248-.485.137-.174.248-.493.248-.71 0-.217.082-.504.182-.637.102-.135.184-.515.186-.866.002-.343.08-.734.175-.869.095-.135.203-.552.241-.928.038-.375.157-.891.264-1.145.107-.254.194-.624.194-.823 0-.199.084-.562.186-.807.102-.245.186-.658.186-.916 0-.258.09-.637.198-.842.108-.205.223-.736.256-1.18.033-.444.14-.894.237-1 .103-.115.179-.456.179-.823 0-.406.066-.684.186-.784.107-.089.186-.358.186-.633 0-.263.081-.69.182-.947.102-.258.24-.858.307-1.335.066-.477.177-.888.248-.912.071-.024.132-.208.132-.411 0-.835 1.675-2.703 2.981-3.322.661-.314.771-.324 3.416-.365 1.503-.023 2.784-.092 2.849-.155.065-.064 1.383-.116 2.946-.116 2.183 0 2.987-.043 3.544-.194.396-.108 1.267-.212 1.933-.233.666-.021 1.281-.097 1.366-.167.085-.07.658-.168 1.273-.217.615-.049 1.267-.166 1.452-.26.184-.094.555-.171.823-.171.268 0 .678-.079.908-.175.23-.096.699-.214 1.04-.264.342-.05.731-.167.866-.26.135-.093.453-.171.706-.171.253 0 .542-.084.644-.186.102-.102.375-.186.602-.186.227 0 .579-.113.784-.248.205-.136.492-.248.64-.248.148 0 .29-.059.314-.132.024-.073.284-.162.578-.202.295-.04.566-.148.602-.241.036-.093.156-.171.268-.171.112 0 .373-.113.578-.248.205-.136.491-.248.637-.248.145 0 .334-.084.419-.186.085-.102.246-.186.361-.186.115 0 .261-.049.326-.113.065-.063.623-.379 1.238-.699.615-.32 1.148-.636 1.188-.699.04-.063.291-.231.559-.373.268-.142.588-.364.71-.493.122-.129.298-.233.392-.233.094 0 .191-.042.213-.093.023-.051.274-.253.559-.446.285-.194.549-.431.586-.528.037-.097.145-.175.237-.175.092 0 .328-.168.524-.373.196-.205.396-.373.442-.373.302 0 4.066-4.244 4.351-4.906.152-.354.648-1.056.745-1.056.062 0 .113-.108.113-.241 0-.133.056-.276.124-.318.109-.067.316-.483 1.374-2.744.131-.281.241-.623.241-.761 0-.138.084-.323.186-.408.103-.086.186-.357.186-.609 0-.25.079-.569.179-.71.099-.142.211-.531.248-.866.123-1.089.218-1.541.322-1.541.2 0 .425-6.408.229-6.528-.06-.037-.109-.6-.109-1.25 0-.649-.059-1.287-.128-1.417-.069-.13-.205-.615-.303-1.079-.278-1.321-.512-2.067-.668-2.119-.079-.026-.144-.205-.144-.4 0-.194-.072-.43-.159-.52-.087-.09-.267-.415-.4-.722-.295-.681-.812-1.515-1.025-1.65-.086-.055-.155-.152-.155-.217 0-.159-.228-.416-1.661-1.863-.674-.681-1.272-1.238-1.327-1.238-.056 0-.284-.168-.508-.373-.224-.205-.463-.373-.528-.373-.065 0-.207-.079-.314-.175-.296-.263-2.874-1.563-3.101-1.564-.109 0-.366-.113-.571-.248-.205-.136-.491-.248-.637-.248-.145 0-.334-.084-.419-.186-.093-.112-.365-.186-.683-.186-.318 0-.59-.074-.683-.186-.091-.11-.364-.186-.668-.186-.282 0-.68-.09-.885-.198-.205-.107-.865-.244-1.467-.307-.602-.063-1.2-.172-1.327-.241-.128-.068-.785-.124-1.459-.124-.674 0-1.281-.055-1.351-.124-.247-.247-2.928-.331-12.529-.334m-.928 12.704c.516-.003 1.176-.003 2.026 0 3.131.01 3.837.048 4.304.217.307.112.902.204 1.324.206.44.001.785.058.811.136.025.074.318.186.652.248.334.063.702.197.815.299.113.102.327.186.477.186.15 0 .306.084.345.186.039.102.205.186.365.186.16 0 .334.07.388.155.116.182.506.443.815.547.12.04.219.108.221.151.002.043.281.383.621.757.34.374.617.753.617.842 0 .089.084.197.186.237.102.039.186.163.186.276 0 .112.113.369.248.574.136.205.248.553.248.772 0 .22.087.659.194.974.196.577.191 2.138-.008 3.159-.047.239-.113.784-.147 1.211-.034.427-.104.776-.155.776-.139 0-.38.589-.38.928 0 .163-.084.383-.186.485-.102.102-.186.303-.186.446 0 .144-.084.294-.186.334-.102.039-.186.148-.186.241 0 .212-.993 1.665-1.137 1.665-.059 0-.105.084-.105.186 0 .102-.084.186-.186.186-.102 0-.186.055-.186.12 0 .15-.403.549-1.188 1.18-.337.271-.641.531-.675.578-.034.047-.565.345-1.18.664-.615.318-1.173.631-1.238.695-.065.064-.226.116-.361.116-.135 0-.34.088-.458.194-.118.107-.394.217-.613.245-.567.072-.869.18-.869.314 0 .064-.238.118-.528.12-.29.002-.636.086-.769.186-.142.107-.513.182-.904.182-.365 0-.872.093-1.126.206-.392.174-1.074.21-4.498.241-3.973.036-4.471.014-4.471-.198 0-.059-.126-.146-.279-.194-.351-.11-1.328-1.164-1.331-1.436-.002-.112-.086-.361-.186-.555-.201-.388-.167-1.774.047-1.906.066-.041.133-.379.151-.753.018-.374.117-.78.217-.9.1-.121.209-.54.241-.932.032-.392.108-.748.171-.788.063-.04.166-.457.233-.928.067-.47.178-.912.245-.978.066-.066.122-.372.124-.683.002-.311.113-.79.245-1.063.132-.273.242-.756.245-1.075.002-.319.063-.601.136-.625.073-.024.185-.46.248-.966.064-.507.17-.952.237-.994.067-.041.174-.46.241-.928.066-.468.18-.91.252-.982.072-.072.132-.394.132-.714 0-.404.057-.603.186-.652.102-.039.186-.18.186-.311 0-.253 1.833-2.255 2.065-2.255.076 0 .21-.084.295-.186.085-.102.296-.186.47-.186.174 0 .426-.098.559-.217.164-.148.409-.196 1.956-.206"/><path d="m390.65-139.98c-.425-.022-.763-.109-.854-.217-.082-.099-.274-.18-.426-.18-.4 0-1.253-1.056-1.356-1.679-.107-.646-.106-.692.024-1.888.061-.561.168-1.092.239-1.18.07-.088.167-.533.214-.99.049-.473.163-.894.264-.978.115-.096.177-.393.177-.853 0-.429.072-.801.182-.947.1-.133.184-.493.187-.8.003-.307.087-.716.187-.908.1-.192.216-.639.258-.994.041-.354.107-.728.146-.83.136-.357.181-.563.275-1.242.052-.376.188-.932.302-1.237.114-.304.182-.62.151-.701-.031-.081.051-.494.183-.917.132-.423.239-.954.239-1.179 0-.225.084-.57.186-.765.102-.196.186-.587.186-.869 0-.283.08-.666.176-.852.097-.186.215-.673.262-1.082.047-.409.164-.891.258-1.073.095-.181.172-.584.173-.896 0-.311.083-.675.183-.807.102-.136.184-.515.186-.866.002-.343.084-.739.182-.878.098-.139.217-.613.265-1.052.048-.439.164-.95.257-1.134.093-.184.17-.561.17-.836 0-.275.079-.711.176-.969.096-.258.207-.735.246-1.06.039-.326.156-.756.259-.956.104-.2.188-.67.188-1.043 0-.386.059-.699.137-.725.076-.025.176-.415.222-.867.047-.452.145-.897.218-.989.073-.093.169-.528.213-.967.044-.439.163-.926.265-1.082.102-.156.188-.551.19-.878.002-.327.084-.734.182-.905.098-.171.18-.562.183-.869.003-.307.084-.71.18-.894.096-.184.214-.7.262-1.145.048-.445.164-.874.259-.953.104-.087.172-.385.172-.757 0-.338.062-.73.138-.872.076-.142.188-.652.248-1.133.06-.481.161-.907.224-.946.063-.039.154-.474.203-.968.05-.51.162-.959.259-1.039.108-.09.17-.401.17-.848 0-.429.072-.801.182-.947.1-.133.184-.443.186-.691.002-.247.116-.799.252-1.227.137-.428.248-.931.248-1.119 0-.188.084-.542.186-.787.102-.245.186-.636.186-.869 0-.233.084-.624.186-.869.102-.245.186-.635.186-.865 0-.231.112-.744.248-1.141.137-.397.248-.926.248-1.176 0-.25.082-.562.182-.695.102-.135.184-.515.187-.862.003-.342.089-.782.191-.978.102-.196.222-.672.265-1.056.043-.384.132-.766.197-.849.065-.083.149-.502.185-.932.037-.43.137-.865.222-.967.085-.102.182-.48.214-.84.033-.359.151-.755.264-.879.112-.124.204-.319.204-.433 0-.114.058-.208.128-.208.07 0 .163-.098.205-.217.111-.316.553-.776.744-.776.091 0 .165-.051.165-.112 0-.145.973-.716 1.406-.825.183-.046.333-.133.333-.194 0-.063 2.553-.111 5.962-.111 3.605 0 5.962.046 5.962.116 0 .064.126.153.279.199.154.046.489.308.745.583.37.396.466.597.466.973 0 .261.06.511.133.556.08.05.101.261.052.535-.045.249-.122.844-.173 1.323-.05.478-.15.981-.221 1.118-.071.137-.161.574-.2.971-.039.398-.127.79-.195.873-.068.082-.162.456-.209.83-.046.374-.162.804-.256.955-.095.151-.172.526-.172.834 0 .307-.112.842-.248 1.189-.137.347-.25.866-.253 1.153-.002.288-.084.663-.182.834-.098.171-.181.562-.186.869-.005.307-.089.699-.186.869-.098.171-.179.593-.182.938-.002.345-.059.682-.126.749-.143.143-.589 2.118-.74 3.277-.058.442-.167.824-.242.849-.076.025-.137.292-.137.593 0 .301-.112.841-.248 1.201-.137.359-.248.879-.248 1.154 0 .275-.076.61-.168.745-.093.135-.199.596-.237 1.026-.038.43-.122.849-.187.932-.065.083-.156.485-.202.893-.046.409-.165.868-.265 1.02-.1.153-.184.573-.186.934-.002.379-.081.758-.186.898-.1.133-.182.48-.182.772 0 .292-.112.814-.248 1.161-.137.347-.248.817-.248 1.045 0 .228-.084.616-.186.861-.102.245-.186.692-.186.994 0 .309-.073.608-.168.687-.093.077-.201.489-.241.916-.04.427-.16.984-.266 1.238-.106.254-.193.663-.193.909 0 .246-.062.563-.138.705-.076.142-.187.649-.247 1.126-.06.478-.177.95-.26 1.05-.083.1-.135.403-.116.673.02.278-.043.611-.145.767-.099.152-.221.638-.27 1.08-.049.442-.168.966-.264 1.165-.096.198-.175.59-.175.869 0 .28-.089.676-.196.881-.107.205-.215.681-.24 1.057-.025.377-.132.852-.238 1.056-.106.204-.194.626-.194.937 0 .311-.083.675-.183.807-.1.133-.184.498-.186.812-.002.314-.092.747-.199.962-.107.215-.227.713-.265 1.106-.038.393-.126.785-.194.871-.068.086-.166.587-.218 1.113-.051.526-.156.977-.232 1-.076.025-.138.296-.138.601 0 .305-.09.729-.2.941-.11.213-.229.727-.265 1.143-.036.416-.117.822-.181.903-.064.081-.169.523-.234.984-.065.46-.167.897-.225.971-.059.074-.145.506-.192.96-.047.455-.164.93-.26 1.056-.1.132-.175.528-.178.933-.002.387-.061.723-.131.746-.07.023-.175.347-.234.72-.059.373-.169.698-.246.724-.076.025-.139.145-.139.265 0 .12-.112.32-.248.444-.137.124-.248.279-.248.346 0 .308-1.651 1.579-2.051 1.579-.106 0-.343.098-.525.217-.302.198-.775.217-5.243.217-2.701 0-5.228-.017-5.615-.037"/></g><g transform="matrix(1.76286 0 0 1.76286 115.22-120.97)"><path d="m202.53-114.92c-.085-.137-.228-.248-.317-.248-.089 0-.29-.173-.447-.385-.251-.339-.279-.497-.237-1.326.03-.594.104-.96.199-.992.083-.028.152-.139.152-.247 0-.181.566-1.255.736-1.398.041-.034.241-.386.445-.781.204-.395.427-.815.496-.932.068-.117.343-.604.611-1.082.268-.478.533-.887.59-.91.057-.023.103-.096.103-.163 0-.067.279-.595.621-1.173.342-.578.621-1.087.621-1.131 0-.044.076-.168.169-.276.093-.108.38-.587.639-1.066.259-.478.864-1.54 1.345-2.36.481-.82 1.175-2.02 1.542-2.67.367-.649.716-1.264.777-1.366.06-.102.309-.539.552-.969l.442-.783-.003-2.384c-.002-1.311-.058-2.608-.125-2.881-.067-.273-.206-1.084-.308-1.801-.312-2.191-.439-3-.617-3.975-.19-1.035-.384-2.227-.575-3.54-.07-.478-.177-1.037-.239-1.242-.062-.205-.167-.82-.232-1.366-.066-.546-.177-1.301-.248-1.677-.47-2.494-.634-3.475-.636-3.796-.001-.201-.082-.589-.181-.862-.098-.273-.181-.783-.184-1.133-.003-.35-.089-.874-.192-1.164-.102-.29-.188-.731-.191-.978-.002-.248-.088-.813-.191-1.257-.103-.444-.234-1.171-.292-1.615-.103-.793-.238-1.561-.58-3.291-.094-.478-.206-1.205-.248-1.615-.042-.41-.12-.829-.174-.932-.054-.102-.164-.686-.244-1.298-.081-.611-.179-1.164-.218-1.228-.04-.064-.114-.458-.165-.876-.113-.93-.444-2.833-.686-3.944-.099-.454-.179-1.052-.179-1.329 0-.277-.056-.633-.125-.79-.069-.157-.207-.816-.307-1.465-.245-1.592-.593-3.588-.952-5.465-.072-.376-.204-1.13-.293-1.677-.089-.547-.235-1.371-.323-1.833-.146-.761-.138-.905.079-1.546.246-.723.702-1.3 1.363-1.724.355-.227.669-.239 6.583-.239h6.21l.864.435c.829.417 2.303 1.692 2.303 1.992 0 .076.073.211.163.3.233.233.679 2.443 1.268 6.278.11.717.282 1.723.382 2.236.1.512.2 1.127.221 1.366.022.239.129.938.239 1.553.376 2.107.482 2.734.653 3.85.094.615.227 1.425.296 1.801.069.376.212 1.214.319 1.863.106.649.275 1.655.375 2.236.1.581.216 1.363.257 1.739.042.376.154.959.249 1.296.096.337.174.875.174 1.195 0 .321.084.82.186 1.111.102.29.186.766.186 1.057 0 .291.092.814.204 1.162.395 1.224 1.161 1.277 1.845.127.205-.345.484-.805.621-1.022.137-.218.382-.646.546-.953.164-.306.373-.645.466-.753.092-.108.168-.234.168-.28 0-.066 2.976-5.243 3.475-6.04.064-.102.476-.801.917-1.553.711-1.213.997-1.71 1.5-2.608.076-.137.281-.472.455-.745.174-.273.351-.59.393-.705.042-.114.232-.45.422-.745.397-.619.648-1.038 1.128-1.89.188-.334.399-.699.467-.811.068-.112.46-.779.869-1.483.41-.704.842-1.429.961-1.611.119-.182.276-.47.349-.64.074-.169.173-.337.222-.373.048-.036.156-.204.24-.375.083-.171.207-.394.275-.497.068-.102.774-1.304 1.569-2.67.795-1.366 1.644-2.736 1.888-3.043.982-1.241 3.044-2.524 4.619-2.874.997-.222 13.544-.302 14.198-.09.558.18.955.681.955 1.204 0 .506-.362 1.889-.574 2.192-.094.135-.171.344-.171.466 0 .121-.045.221-.1.221-.055 0-.197.218-.314.485-.118.267-.352.688-.521.937-.169.249-.307.474-.307.502 0 .027-.31.57-.688 1.205-.379.636-.754 1.268-.835 1.404-.08.137-.281.468-.445.736-.165.268-.467.799-.673 1.18-.206.381-.441.776-.524.879-.082.102-.189.27-.236.373-.098.212-.246.458-.736 1.217-.189.294-.398.657-.463.807-.065.15-.329.609-.587 1.019-.258.41-1.77 2.953-3.361 5.651-1.591 2.698-2.942 4.99-3 5.092-.061.102-.351.596-.645 1.096-.294.5-.632 1.059-.75 1.242-.119.183-.272.463-.342.622-.07.159-.28.523-.468.809-.508.775-.629.976-.836 1.386-.103.205-.297.54-.43.745-.133.205-.329.526-.435.714-.106.188-.28.495-.387.683-.106.188-.288.488-.404.667-.116.179-.428.71-.695 1.18-.266.47-.664 1.134-.883 1.476-.219.342-.667 1.096-.995 1.677-.328.581-.727 1.234-.887 1.451-.16.217-.291.48-.291.583 0 .103-.053.22-.118.26-.065.04-.599.896-1.186 1.901-.587 1.01-1.135 1.938-1.217 2.072-.082.134-.289.469-.459.745-.17.276-.38.641-.466.812-.086.171-.268.478-.403.683-.136.205-.303.484-.372.621-.069.137-.195.36-.28.497-.085.137-.327.528-.539.869-.212.342-.424.705-.472.807-.048.102-.155.298-.238.435-.083.137-.444.731-.802 1.321-.359.59-.652 1.104-.652 1.143 0 .038-.16.31-.356.604-.196.294-.512.814-.702 1.155-.191.342-.409.733-.486.869-.077.137-.293.487-.48.778-.188.291-.493.802-.68 1.135-.266.475-1.486 2.532-2.511 4.235-.062.102-.351.605-.643 1.118-.292.512-.567.959-.612.994-.045.034-.232.342-.415.683-.762 1.416-1.098 1.998-1.263 2.183-.096.108-.174.235-.174.282 0 .047-.152.322-.338.611-.186.289-.401.637-.478.774-.077.137-.256.444-.398.683-.143.239-.396.686-.564.994-.168.307-.507.865-.754 1.239-.247.374-.449.747-.449.828 0 .081-.047.166-.104.189-.057.023-.564.837-1.126 1.809-.562.972-1.074 1.8-1.138 1.839-.064.04-.116.156-.116.26 0 .103-.07.266-.155.361-.085.095-.435.5-.776.9-.966 1.132-2.648 2.278-3.606 2.458-.228.043-.511.184-.628.314-.205.226-.484.236-6.685.236-6.337 0-6.475-.005-6.627-.248"/><path d="m173.68-194.97c-5.903 0-7.861.106-10.806.578-.444.071-1.227.179-1.739.241-.512.062-1.345.196-1.848.299-.503.102-1.068.186-1.258.186-.189 0-.543.084-.788.186-.245.102-.608.186-.803.186-.46 0-2.02.479-2.271.699-.108.093-.254.171-.326.171-.277 0-2.022 1.883-2.022 2.181 0 .044-.084.254-.186.47-.243.512-.548 1.594-.679 2.403-.058.355-.147.714-.198.796-.051.082-.164.491-.252.908-.089.417-.279 1.26-.423 1.875-.48 2.055-.35 3.145.404 3.408.724.252 1.442.123 3.695-.671.239-.084.63-.222.869-.307.239-.084 1.022-.295 1.739-.466.717-.171 1.612-.383 1.987-.474.962-.231 2.029-.429 3.043-.571.478-.067 1.121-.182 1.428-.252 1.795-.413 7.508-.393 10.185.035 5.02.803 7.07 2.606 6.909 6.094-.069 1.525-.713 2.084-2.403 2.088-.816.002-1.74.079-3.637.307-.171.02-.73.073-1.242.116-1.176.099-3.996.413-5.217.582-.512.071-1.407.181-1.987.245-.581.064-1.469.201-1.972.303-.503.102-1.089.184-1.304.182-.215-.001-.807.087-1.32.194-.512.107-1.49.309-2.174.45-.683.141-1.454.333-1.712.427-.258.094-.621.171-.807.171-.186 0-.499.084-.695.186-.196.102-.444.186-.551.186-.265 0-1.747.479-2.154.695-.181.096-.424.175-.54.175-.116 0-.358.079-.54.175-.181.096-.693.328-1.137.516-.913.388-2.452 1.113-2.732 1.289-.102.064-.592.352-1.087.637-.495.285-.9.568-.9.629 0 .06-.062.109-.136.109-.47 0-3.645 3.01-4.417 4.192-.258.394-.499.742-.536.776-.129.121-.449.725-1.265 2.395-.126.258-.229.529-.229.602 0 .073-.075.309-.167.524-.611 1.424-1.075 4.374-1.075 6.839 0 2.781.534 4.966 1.673 6.843.166.273.345.588.4.699.168.341 1.171 1.504 1.894 2.197 2.114 2.026 5.372 3.457 8.415 3.699.602.048 1.206.13 1.343.182.56.217 5.855-.106 7.328-.446 1.114-.258 2.553-.667 2.798-.796.105-.055.384-.139.621-.19.237-.051.571-.166.741-.252.171-.086.618-.284.994-.439 1.342-.552 3.02-1.411 3.33-1.704.09-.085.243-.155.338-.155.094 0 .213-.072.268-.159.055-.087.241-.223.411-.307.471-.23.843-.478 1.444-.959.215-.172.429-.314.474-.314.074 0 .796-.477.939-.621.236-.237.895-.621 1.064-.621.173 0 .191.099.124.652-.241 1.984-.229 2.399.109 3.113.35.739.821 1.163 1.653 1.49.467.184 1.152.21 5.713.21 4.355-.001 5.24-.03 5.539-.186.196-.102.455-.186.574-.186.12 0 .362-.112.536-.248.174-.137.362-.248.423-.248.061 0 .421-.297.8-.664.745-.721 1.351-1.681 1.351-2.139 0-.158.062-.444.136-.637.074-.192.217-.741.318-1.219.101-.478.262-1.205.357-1.615.095-.41.234-1.025.311-1.366.076-.342.217-.928.311-1.304.094-.376.289-1.214.435-1.863.146-.649.342-1.438.439-1.754.097-.317.179-.678.179-.803 0-.126.188-1.013.419-1.972.489-2.023.642-2.683.881-3.792.096-.444.258-1.143.361-1.553.442-1.763.685-2.811.815-3.54.098-.549.372-1.689.699-2.919.191-.72.373-1.533.602-2.67.089-.444.229-.964.307-1.157.077-.192.14-.498.14-.679 0-.181.076-.555.171-.831.095-.276.232-.808.307-1.184.074-.376.257-1.186.404-1.801.249-1.043.32-1.651.555-4.627.211-2.675-.431-5.349-1.77-7.382-.487-.74-2.672-2.958-2.915-2.958-.052 0-.335-.159-.629-.353-.495-.328-1.241-.705-2.146-1.079-.205-.085-.64-.271-.966-.415-.326-.145-.707-.264-.846-.264-.139 0-.372-.063-.516-.14-.295-.158-1.317-.413-2.701-.671-4.346-.811-5.087-.866-11.675-.866m3.159 29.817c.257-.003.398.037.543.132.304.198.308.476.019 1.661-.058.239-.223.938-.369 1.553-.145.615-.322 1.337-.392 1.603-.07.266-.173.741-.229 1.056-.056.315-.158.738-.229.943-.109.316-.465 1.825-.691 2.919-.093.451-.877 1.61-1.401 2.077-.469.418-.944.691-2.833 1.619-2.394 1.175-3.44 1.54-5.092 1.778-.915.132-3.906.123-4.976-.016-.346-.045-.748-.148-.893-.225-.144-.077-.373-.14-.505-.14-.271 0-1.827-.784-2.181-1.098-.302-.267-.83-1.08-1.06-1.634-.099-.239-.205-.994-.233-1.677-.06-1.453.179-2.683.749-3.866.594-1.233 1.648-2.355 3-3.206.621-.391 2.302-1.188 2.507-1.188.104 0 .31-.063.454-.14.144-.077.574-.214.955-.303 1.652-.385 1.979-.457 2.802-.613 1.402-.266 3.402-.547 4.471-.629.546-.042 1.161-.124 1.366-.182.205-.058.904-.143 1.553-.186.649-.044 1.571-.127 2.049-.186.263-.032.459-.049.613-.05"/><path d="m106.5-211.3c-12.463 0-14.158.022-14.221.186-.039.102-.141.186-.229.186-.389 0-1.462.709-2.123 1.405-.763.803-1.155 1.53-1.327 2.445-.058.307-.161.782-.229 1.056-.068.273-.186.776-.264 1.118-.078.342-.23.984-.334 1.428-.104.444-.258 1.179-.345 1.63-.087.451-.196.879-.241.951-.075.122-.192.65-.621 2.76-.184.904-.388 1.744-.648 2.682-.096.348-.175.745-.175.885 0 .14-.081.525-.179.858-.097.332-.293 1.122-.435 1.754-.142.632-.375 1.666-.516 2.298-.142.632-.337 1.422-.435 1.754-.097.332-.175.779-.175.994 0 .214-.084.55-.186.745-.102.196-.186.534-.186.753 0 .219-.079.645-.175.947-.096.303-.299 1.11-.45 1.793-.152.683-.352 1.491-.446 1.793-.094.303-.171.709-.171.904 0 .195-.075.536-.167.757-.092.221-.211.68-.26 1.021-.049.34-.166.894-.264 1.23-.098.337-.179.762-.179.947 0 .185-.084.499-.186.695-.102.196-.186.504-.186.687 0 .183-.061.491-.136.683-.075.192-.211.741-.303 1.219-.092.478-.229 1.121-.303 1.428-.074.307-.194.81-.268 1.118-.074.307-.215.894-.314 1.304-.099.41-.255 1.108-.345 1.553-.091.444-.235 1.087-.318 1.428-.083.342-.221.928-.311 1.304-.089.376-.261 1.074-.38 1.553-.12.478-.237 1.037-.264 1.242-.027.205-.129.652-.225.994-.096.342-.235.9-.311 1.242-.075.342-.21.956-.303 1.366-.093.41-.257 1.136-.365 1.615-.108.478-.311 1.372-.454 1.987-.143.615-.32 1.397-.392 1.739-.072.342-.208.846-.303 1.122-.095.276-.171.684-.171.908 0 .224-.05.505-.113.621-.062.116-.199.602-.303 1.079-.104.477-.279 1.257-.388 1.735-.109.478-.301 1.37-.431 1.983-.13.613-.295 1.136-.369 1.161-.158.053-.192 2.259-.035 2.259.056 0 .193.188.303.419.258.541 1.046 1.203 1.661 1.393.755.235 11.86.234 12.758 0 1.21-.315 2.723-1.51 3.237-2.554.343-.696.787-2.319 1.056-3.854.054-.307.197-.922.314-1.366.35-1.32.536-2.104.815-3.416.146-.683.338-1.521.431-1.863.301-1.113.47-1.852.567-2.5.052-.35.15-.741.217-.869.068-.128.164-.54.213-.916.05-.376.165-.872.26-1.102.095-.23.175-.533.175-.671 0-.53.667-1.648 1.44-2.414.433-.429.843-.78.908-.78.065 0 .193-.07.283-.155.09-.085.449-.253.8-.373.542-.185 1.148-.218 4.04-.229 1.869-.007 3.931-.059 4.58-.116.649-.058 2.162-.192 3.361-.295 1.199-.103 2.429-.241 2.732-.311.304-.07.765-.13 1.029-.132.263-.002.85-.087 1.304-.186.454-.1 1.134-.24 1.51-.314 1.872-.373 4.487-1.057 5.341-1.397.171-.068.478-.17.683-.225.473-.126 1.363-.443 1.925-.687.239-.104.653-.285.92-.4 2.068-.891 6.494-3.457 7.25-4.204.087-.086.418-.366.737-.625 1.324-1.073 2.294-2 3.202-3.066.342-.4.679-.792.749-.869.626-.688 2.09-2.972 2.608-4.068.174-.366.364-.751.419-.854.282-.523.527-1.14.765-1.925.145-.478.342-1.053.439-1.277.097-.224.175-.505.175-.625 0-.12.089-.552.198-.959.199-.739.296-1.483.563-4.398.141-1.539.126-1.822-.256-5.566-.058-.565-.166-1.18-.241-1.366-.075-.187-.187-.565-.252-.838-.065-.273-.209-.748-.318-1.056-.776-2.188-1.913-3.96-3.621-5.647-1.03-1.018-2.861-2.426-3.156-2.426-.066 0-.12-.047-.12-.105 0-.058-.377-.286-.838-.505-.461-.218-.922-.439-1.025-.493-.663-.347-1.031-.512-1.141-.512-.07 0-.301-.076-.516-.171-.575-.254-1.558-.572-2.17-.703-.295-.063-.602-.154-.679-.202-.145-.089-1.309-.334-2.635-.551-.41-.067-1.025-.179-1.366-.248-.342-.07-1.487-.185-2.546-.256-1.243-.083-2.023-.19-2.201-.303-.232-.148-2.469-.175-14.427-.175m3.051 13.239c.593-.003 1.37-.003 2.399 0 4.07.011 4.188.02 5.403.338 1.9.497 2.401.647 2.5.745.05.05.454.263.9.474.976.461 2.386 1.826 2.919 2.826.99 1.858 1.076 5.378.194 7.965-.691 2.026-2.323 4.274-3.889 5.356-1.492 1.03-1.766 1.198-2.686 1.63-2.305 1.082-4.865 1.689-8.07 1.921-2.039.148-5.435.131-6.01-.031-1.479-.414-2.704-2.265-2.329-3.517.079-.264.144-.602.144-.749 0-.147.105-.674.237-1.168.131-.494.308-1.176.388-1.518.081-.342.225-.956.322-1.366.097-.41.25-1.081.342-1.49.091-.41.229-.997.307-1.304.077-.307.34-1.425.582-2.484.242-1.059.521-2.21.621-2.558.1-.348.182-.783.182-.966 0-.366.548-1.519 1.025-2.154.166-.221.521-.571.788-.776.267-.205.549-.426.625-.489.076-.063.412-.244.745-.404.45-.215.589-.27 2.368-.279"/></g></g><g fill="#dcdbdb"><g transform="matrix(1.76286 0 0 1.76286-187.34 62.2)"><path d="m360.54-194.85c-2.493.008-4.741.076-5.395.206-.376.074-1.324.159-2.108.19-.784.031-1.49.11-1.568.175-.078.065-.23.087-.334.047-.104-.04-.227-.015-.272.058-.046.075-.495.135-1.036.136-.534.001-1.199.083-1.506.19-.302.105-.917.224-1.366.26-.45.036-1.027.144-1.285.241-.258.097-.748.175-1.091.175-.383 0-.646.06-.683.155-.033.085-.277.172-.547.19-.572.039-1.158.368-2.01 1.137-.642.577-1.343 1.519-1.343 1.801 0 .091-.084.233-.186.318-.103.085-.186.357-.186.605 0 .248-.086.616-.19.815-.104.199-.24.722-.303 1.164-.063.442-.172.863-.245.935-.072.072-.132.395-.132.714 0 .365-.069.636-.186.734-.116.096-.186.371-.186.73 0 .316-.086.74-.19.939-.42.806-.085 2.43.501 2.43.144 0 .318.058.388.128.146.146 1.28-.051 1.785-.311.171-.088.495-.2.722-.248.227-.048.562-.168.745-.264.183-.096.485-.175.668-.175.183 0 .414-.084.516-.186.11-.11.416-.186.741-.186.329 0 .611-.072.699-.179.081-.098.466-.21.854-.252.388-.042.89-.157 1.114-.256.224-.099.699-.182 1.056-.182.356 0 .806-.084 1-.186.196-.102.671-.186 1.056-.186.385 0 1.05-.107 1.475-.237.686-.208 1.233-.235 4.844-.248 3.745-.014 4.142.002 4.941.233.478.138 1.097.252 1.374.252.277 0 .613.082.745.182.133.1.427.184.656.186.229.002.564.088.745.19.181.102.47.241.64.311.171.07.478.238.683.373.205.135.456.286.559.334.274.128.869.745.869.9 0 .074.049.132.113.132.461 0 1.224 3.335.9 3.94-.079.147-.144.38-.144.516 0 .142-.227.433-.528.679-.509.416-.575.434-1.832.505-1.531.086-1.899.119-2.484.233-.239.046-1.133.112-1.987.147-.854.035-1.86.136-2.236.225-.376.089-1.154.177-1.727.198-.574.02-1.3.118-1.615.213-.314.095-.99.173-1.502.175-.512.002-1.155.082-1.428.175-.273.093-1.028.208-1.677.256-.649.049-1.244.144-1.324.21-.08.066-.639.171-1.242.233-.603.062-1.114.17-1.137.241-.024.071-.306.128-.625.128-.319 0-.727.08-.908.175-.182.095-.629.212-.994.26-.365.048-.788.164-.939.26-.151.096-.468.175-.706.175-.238 0-.481.075-.536.167-.055.092-.341.202-.637.241-.296.038-.633.156-.753.264-.12.108-.425.198-.675.198-.251 0-.454.057-.454.124 0 .067-.252.187-.559.264-.307.077-.559.187-.559.245 0 .058-.223.164-.493.237-.27.073-.526.186-.567.252-.041.066-.206.12-.369.12-.163 0-.329.052-.369.116-.04.064-.365.264-.722.442-.357.178-.872.457-1.145.621-.273.164-.581.339-.683.388-.217.104-.441.268-1.793 1.3-1.24.946-3.299 3.13-3.299 3.501 0 .14-.034.222-.078.179-.043-.043-.228.154-.408.442-.179.288-.396.636-.481.772-.085.137-.204.369-.268.516-.064.147-.176.304-.248.349-.072.045-.134.204-.136.353-.002.15-.086.38-.186.512-.1.133-.182.331-.182.439 0 .107-.112.405-.248.66-.137.255-.248.634-.248.842 0 .209-.078.53-.171.714-.093.184-.203.794-.245 1.358-.042.564-.147 1.151-.233 1.304-.27.48-.239 3.939.043 5.05.129.508.233 1.084.233 1.281 0 .197.084.445.186.547.102.102.186.337.186.524 0 .187.082.45.182.582.1.133.184.343.186.466.002.122.062.29.132.373.07.083.305.427.524.769.219.342.468.694.555.784.087.09.159.211.159.268 0 .173 2.496 2.598 2.76 2.682.135.043.351.184.481.314.243.243 1.706.982 1.945.982.073 0 .152.045.175.101.056.138 1.148.514 1.886.648.331.06.672.171.761.245.088.073.619.155 1.18.182.561.028 1.058.085 1.102.132.08.084 5.246-.006 6.893-.12.467-.032.919-.115 1.01-.186.086-.071.5-.166.92-.21.42-.044.827-.156.904-.248.077-.093.301-.171.501-.171.199 0 .582-.112.85-.248.268-.137.622-.248.788-.248.166 0 .333-.084.373-.186.045-.117.237-.186.512-.186.241 0 .439-.053.439-.116 0-.064.126-.153.279-.202.51-.162 2.313-1.046 2.391-1.172.042-.068.187-.124.322-.124.135 0 .276-.083.314-.182.038-.1.188-.218.334-.264.23-.073.894-.486 1.079-.671.23-.23.893-.621 1.052-.621.105 0 .19-.045.19-.101 0-.111.952-.768 1.114-.768.055 0 .131-.084.171-.186.039-.102.155-.186.256-.186.101 0 .27-.124.377-.276.106-.152.194-.238.194-.19 0 .048.135.035.299-.027.164-.063.318-.09.345-.062.097.097-.165 1.969-.326 2.329-.057.128-.014.561.105 1.032.158.627.314.923.687 1.3.266.269.559.489.652.489.093 0 .308.098.477.217.279.198.736.22 5.03.225 4.917.005 6.164-.057 6.245-.299.026-.079.242-.144.477-.144.266 0 .452-.071.497-.186.039-.102.149-.186.245-.186.095 0 .272-.083.392-.186.702-.609 1.025-.936 1.025-1.036 0-.062.087-.183.194-.272.288-.239.675-1.108.675-1.514 0-.196.081-.519.182-.714.101-.196.222-.68.268-1.079.046-.399.138-.759.206-.803.067-.044.145-.379.175-.745.029-.366.107-.779.171-.916.064-.137.166-.5.225-.807.098-.512.333-1.528.652-2.795.069-.273.175-.83.233-1.238.058-.408.163-.763.237-.788.074-.025.136-.33.136-.683 0-.353.084-.805.186-1 .102-.196.224-.672.268-1.056.044-.384.156-.808.248-.943.092-.135.167-.47.167-.745 0-.275.084-.658.186-.854.102-.196.186-.577.186-.846 0-.269.079-.646.179-.838.099-.192.237-.681.303-1.083.066-.402.178-.887.252-1.079.074-.192.136-.542.136-.78 0-.238.081-.596.182-.792.101-.196.222-.68.268-1.079.046-.399.16-.836.252-.97.092-.135.167-.502.167-.815 0-.313.082-.679.182-.811.1-.133.184-.452.186-.71.002-.258.087-.669.19-.916.103-.247.222-.762.264-1.145.042-.383.154-.823.248-.974.094-.151.171-.549.171-.885 0-.391.067-.666.186-.765.122-.101.186-.378.186-.796 0-.354.08-.752.179-.893.098-.139.216-.613.264-1.052.048-.439.155-.939.241-1.11.152-.305.337-2.573.345-4.285.009-1.808-.367-3.945-.854-4.879-.096-.184-.175-.4-.175-.477 0-.077-.084-.21-.186-.295-.102-.085-.186-.26-.186-.388 0-.128-.06-.233-.132-.233-.072 0-.198-.167-.283-.369-.326-.776-3.168-3.357-3.695-3.357-.073 0-.216-.084-.318-.186-.102-.102-.287-.186-.411-.186-.124 0-.26-.084-.299-.186-.039-.102-.217-.186-.396-.186-.179 0-.467-.112-.64-.248-.174-.137-.472-.248-.66-.248-.187 0-.408-.084-.493-.186-.087-.105-.358-.186-.621-.186-.257 0-.532-.074-.609-.167-.077-.093-.438-.205-.803-.248-.365-.043-.867-.165-1.114-.268-.247-.103-.725-.186-1.067-.186-.342 0-.837-.083-1.095-.182-.258-.1-.997-.208-1.646-.241-.649-.032-1.403-.09-1.677-.132-1.143-.173-4.752-.262-7.957-.252m4.192 29.689c.684-.01 1.013.048 1.102.182.147.221.024 1.519-.155 1.63-.068.042-.165.405-.213.807-.049.402-.155.852-.237 1-.082.149-.147.548-.147.889 0 .34-.061.64-.132.664-.071.024-.176.396-.237.827-.061.431-.175.858-.252.951-.077.093-.174.495-.213.893-.04.398-.148.832-.241.966-.092.135-.167.481-.167.769 0 .287-.077.597-.171.691-.093.093-.212.31-.264.477-.109.353-1.413 1.722-1.646 1.727-.086.002-.256.116-.373.252-.117.137-.302.248-.415.248-.113 0-.276.084-.361.186-.085.102-.262.186-.392.186-.13 0-.269.08-.307.179-.038.098-.242.217-.454.264-.212.047-.465.162-.559.256-.094.094-.271.171-.392.171-.121 0-.347.112-.505.248-.158.137-.432.25-.609.252-.177.002-.43.086-.563.186-.133.1-.388.182-.567.182-.179 0-.434.082-.567.182-.143.108-.523.184-.932.186-.379.002-.742.053-.807.113-.183.169-1.884.239-2.849.116-.478-.06-1.26-.141-1.735-.179-.475-.038-.976-.148-1.114-.245-.137-.096-.362-.175-.501-.175-.139 0-.416-.108-.617-.241-.201-.132-.413-.212-.474-.175-.06.037-.203-.02-.318-.128-.115-.108-.388-.351-.605-.54-.418-.363-1.032-1.201-1.032-1.409 0-.068-.092-.263-.202-.431-.167-.255-.19-.602-.151-2.1.031-1.206.095-1.849.198-1.952.084-.084.155-.337.155-.563 0-.247.1-.511.252-.664.139-.139.222-.299.186-.357-.036-.058.019-.176.12-.26.102-.084.186-.228.186-.318 0-.09.097-.237.217-.326.121-.089.32-.321.442-.512.122-.192.304-.377.404-.415.099-.038.366-.244.59-.458.633-.605.882-.781 1.564-1.095.348-.16.633-.333.633-.384 0-.052.098-.093.217-.093.12 0 .385-.113.59-.248.205-.136.546-.248.761-.248.232 0 .419-.076.462-.186.05-.13.255-.186.671-.186.329 0 .714-.082.858-.182.143-.1.566-.206.943-.237.377-.031.859-.144 1.067-.252.227-.117.694-.197 1.161-.198.43-.001 1.01-.084 1.281-.182.298-.107.978-.179 1.7-.182.662-.003 1.233-.054 1.269-.113.067-.108.689-.187 2.806-.357.692-.055 1.228-.087 1.638-.093"/><path d="m298.69-210.77c-1.372 0-2.886.001-4.553.004-13.13.02-14 .033-14.229.237-.132.12-.356.217-.497.217-.141 0-.291.084-.33.186-.039.102-.134.186-.213.186-.186 0-1.23 1.041-1.23 1.227 0 .077-.052.14-.113.14-.061 0-.147.154-.194.342-.047.188-.157.425-.245.528-.088.102-.196.488-.237.854-.041.366-.133.735-.206.823-.073.088-.168.461-.21.827-.042.366-.152.773-.245.908-.092.135-.168.526-.171.869-.002.343-.085.765-.182.935-.098.171-.18.604-.182.963-.003.482-.068.717-.252.9-.181.181-.248.417-.248.858 0 .334-.084.767-.186.963-.102.196-.186.639-.186.99 0 .414-.065.691-.186.792-.113.094-.186.364-.186.687 0 .293-.112.795-.248 1.114-.137.319-.248.775-.248 1.013 0 .238-.064.549-.14.691-.076.142-.188.652-.248 1.133-.06.481-.157.905-.217.943-.06.038-.152.377-.202.753-.05.376-.141.744-.202.819-.061.075-.146.494-.19.932-.044.437-.156.905-.248 1.04-.092.135-.167.483-.167.772 0 .29-.112.81-.248 1.157-.137.347-.25.837-.252 1.091-.002.254-.086.57-.186.703-.1.133-.184.496-.186.807-.002.311-.085.706-.182.877-.098.171-.18.483-.182.695-.002.211-.116.709-.252 1.106-.137.397-.25.923-.252 1.168-.002.245-.085.586-.182.757-.098.171-.18.552-.182.846-.002.294-.082.685-.175.869-.093.184-.207.624-.252.978-.045.354-.164.801-.264.994-.1.192-.182.605-.182.916 0 .311-.082.675-.182.807-.1.133-.184.477-.186.765-.002.288-.116.806-.252 1.153-.137.347-.248.841-.248 1.098 0 .258-.082.578-.182.71-.1.133-.184.443-.186.691-.002.248-.091.695-.198.994-.107.299-.208.799-.221 1.114-.013.314-.098.665-.19.776-.092.111-.204.526-.252.92-.048.394-.155.837-.237.986-.082.149-.147.468-.147.71 0 .242-.078.655-.175.912-.097.258-.206.745-.241 1.087-.035.342-.153.789-.26.994-.107.205-.194.558-.194.784 0 .227-.069.534-.151.683-.082.149-.184.657-.229 1.126-.045.468-.138.888-.206.932-.067.044-.155.395-.194.78-.039.385-.156.87-.264 1.079-.108.209-.198.657-.198.994 0 .365-.07.669-.171.753-.093.077-.199.477-.237.889-.037.412-.122.814-.19.897-.068.083-.164.431-.21.772-.046.342-.163.833-.26 1.091-.097.258-.175.677-.175.932 0 .255-.076.606-.167.78-.091.175-.205.646-.252 1.048-.047.402-.138.792-.202.869-.064.077-.154.472-.198.877-.044.405-.158.862-.252 1.013-.247.396-.235 2.311.015 2.519.102.085.186.208.186.276 0 .067.145.301.326.516.324.385.804.666 1.413.834.171.047 3.071.08 6.447.07 4.702-.014 6.152-.055 6.191-.171.028-.083.238-.186.47-.229.232-.043.488-.157.567-.252.079-.095.209-.175.291-.175.082 0 .368-.229.637-.508.268-.28.587-.599.706-.71.12-.111.217-.279.217-.373 0-.094.112-.311.248-.485.137-.174.248-.493.248-.71 0-.217.082-.504.182-.637.102-.135.184-.515.186-.866.002-.343.08-.734.175-.869.095-.135.203-.552.241-.928.038-.375.157-.891.264-1.145.107-.254.194-.624.194-.823 0-.199.084-.562.186-.807.102-.245.186-.658.186-.916 0-.258.09-.637.198-.842.108-.205.223-.736.256-1.18.033-.444.14-.894.237-1 .103-.115.179-.456.179-.823 0-.406.066-.684.186-.784.107-.089.186-.358.186-.633 0-.263.081-.69.182-.947.102-.258.24-.858.307-1.335.066-.477.177-.888.248-.912.071-.024.132-.208.132-.411 0-.835 1.675-2.703 2.981-3.322.661-.314.771-.324 3.416-.365 1.503-.023 2.784-.092 2.849-.155.065-.064 1.383-.116 2.946-.116 2.183 0 2.987-.043 3.544-.194.396-.108 1.267-.212 1.933-.233.666-.021 1.281-.097 1.366-.167.085-.07.658-.168 1.273-.217.615-.049 1.267-.166 1.452-.26.184-.094.555-.171.823-.171.268 0 .678-.079.908-.175.23-.096.699-.214 1.04-.264.342-.05.731-.167.866-.26.135-.093.453-.171.706-.171.253 0 .542-.084.644-.186.102-.102.375-.186.602-.186.227 0 .579-.113.784-.248.205-.136.492-.248.64-.248.148 0 .29-.059.314-.132.024-.073.284-.162.578-.202.295-.04.566-.148.602-.241.036-.093.156-.171.268-.171.112 0 .373-.113.578-.248.205-.136.491-.248.637-.248.145 0 .334-.084.419-.186.085-.102.246-.186.361-.186.115 0 .261-.049.326-.113.065-.063.623-.379 1.238-.699.615-.32 1.148-.636 1.188-.699.04-.063.291-.231.559-.373.268-.142.588-.364.71-.493.122-.129.298-.233.392-.233.094 0 .191-.042.213-.093.023-.051.274-.253.559-.446.285-.194.549-.431.586-.528.037-.097.145-.175.237-.175.092 0 .328-.168.524-.373.196-.205.396-.373.442-.373.302 0 4.066-4.244 4.351-4.906.152-.354.648-1.056.745-1.056.062 0 .113-.108.113-.241 0-.133.056-.276.124-.318.109-.067.316-.483 1.374-2.744.131-.281.241-.623.241-.761 0-.138.084-.323.186-.408.103-.086.186-.357.186-.609 0-.25.079-.569.179-.71.099-.142.211-.531.248-.866.123-1.089.218-1.541.322-1.541.2 0 .425-6.408.229-6.528-.06-.037-.109-.6-.109-1.25 0-.649-.059-1.287-.128-1.417-.069-.13-.205-.615-.303-1.079-.278-1.321-.512-2.067-.668-2.119-.079-.026-.144-.205-.144-.4 0-.194-.072-.43-.159-.52-.087-.09-.267-.415-.4-.722-.295-.681-.812-1.515-1.025-1.65-.086-.055-.155-.152-.155-.217 0-.159-.228-.416-1.661-1.863-.674-.681-1.272-1.238-1.327-1.238-.056 0-.284-.168-.508-.373-.224-.205-.463-.373-.528-.373-.065 0-.207-.079-.314-.175-.296-.263-2.874-1.563-3.101-1.564-.109 0-.366-.113-.571-.248-.205-.136-.491-.248-.637-.248-.145 0-.334-.084-.419-.186-.093-.112-.365-.186-.683-.186-.318 0-.59-.074-.683-.186-.091-.11-.364-.186-.668-.186-.282 0-.68-.09-.885-.198-.205-.107-.865-.244-1.467-.307-.602-.063-1.2-.172-1.327-.241-.128-.068-.785-.124-1.459-.124-.674 0-1.281-.055-1.351-.124-.247-.247-2.928-.331-12.529-.334m-.928 12.704c.516-.003 1.176-.003 2.026 0 3.131.01 3.837.048 4.304.217.307.112.902.204 1.324.206.44.001.785.058.811.136.025.074.318.186.652.248.334.063.702.197.815.299.113.102.327.186.477.186.15 0 .306.084.345.186.039.102.205.186.365.186.16 0 .334.07.388.155.116.182.506.443.815.547.12.04.219.108.221.151.002.043.281.383.621.757.34.374.617.753.617.842 0 .089.084.197.186.237.102.039.186.163.186.276 0 .112.113.369.248.574.136.205.248.553.248.772 0 .22.087.659.194.974.196.577.191 2.138-.008 3.159-.047.239-.113.784-.147 1.211-.034.427-.104.776-.155.776-.139 0-.38.589-.38.928 0 .163-.084.383-.186.485-.102.102-.186.303-.186.446 0 .144-.084.294-.186.334-.102.039-.186.148-.186.241 0 .212-.993 1.665-1.137 1.665-.059 0-.105.084-.105.186 0 .102-.084.186-.186.186-.102 0-.186.055-.186.12 0 .15-.403.549-1.188 1.18-.337.271-.641.531-.675.578-.034.047-.565.345-1.18.664-.615.318-1.173.631-1.238.695-.065.064-.226.116-.361.116-.135 0-.34.088-.458.194-.118.107-.394.217-.613.245-.567.072-.869.18-.869.314 0 .064-.238.118-.528.12-.29.002-.636.086-.769.186-.142.107-.513.182-.904.182-.365 0-.872.093-1.126.206-.392.174-1.074.21-4.498.241-3.973.036-4.471.014-4.471-.198 0-.059-.126-.146-.279-.194-.351-.11-1.328-1.164-1.331-1.436-.002-.112-.086-.361-.186-.555-.201-.388-.167-1.774.047-1.906.066-.041.133-.379.151-.753.018-.374.117-.78.217-.9.1-.121.209-.54.241-.932.032-.392.108-.748.171-.788.063-.04.166-.457.233-.928.067-.47.178-.912.245-.978.066-.066.122-.372.124-.683.002-.311.113-.79.245-1.063.132-.273.242-.756.245-1.075.002-.319.063-.601.136-.625.073-.024.185-.46.248-.966.064-.507.17-.952.237-.994.067-.041.174-.46.241-.928.066-.468.18-.91.252-.982.072-.072.132-.394.132-.714 0-.404.057-.603.186-.652.102-.039.186-.18.186-.311 0-.253 1.833-2.255 2.065-2.255.076 0 .21-.084.295-.186.085-.102.296-.186.47-.186.174 0 .426-.098.559-.217.164-.148.409-.196 1.956-.206"/><path d="m390.65-139.98c-.425-.022-.763-.109-.854-.217-.082-.099-.274-.18-.426-.18-.4 0-1.253-1.056-1.356-1.679-.107-.646-.106-.692.024-1.888.061-.561.168-1.092.239-1.18.07-.088.167-.533.214-.99.049-.473.163-.894.264-.978.115-.096.177-.393.177-.853 0-.429.072-.801.182-.947.1-.133.184-.493.187-.8.003-.307.087-.716.187-.908.1-.192.216-.639.258-.994.041-.354.107-.728.146-.83.136-.357.181-.563.275-1.242.052-.376.188-.932.302-1.237.114-.304.182-.62.151-.701-.031-.081.051-.494.183-.917.132-.423.239-.954.239-1.179 0-.225.084-.57.186-.765.102-.196.186-.587.186-.869 0-.283.08-.666.176-.852.097-.186.215-.673.262-1.082.047-.409.164-.891.258-1.073.095-.181.172-.584.173-.896 0-.311.083-.675.183-.807.102-.136.184-.515.186-.866.002-.343.084-.739.182-.878.098-.139.217-.613.265-1.052.048-.439.164-.95.257-1.134.093-.184.17-.561.17-.836 0-.275.079-.711.176-.969.096-.258.207-.735.246-1.06.039-.326.156-.756.259-.956.104-.2.188-.67.188-1.043 0-.386.059-.699.137-.725.076-.025.176-.415.222-.867.047-.452.145-.897.218-.989.073-.093.169-.528.213-.967.044-.439.163-.926.265-1.082.102-.156.188-.551.19-.878.002-.327.084-.734.182-.905.098-.171.18-.562.183-.869.003-.307.084-.71.18-.894.096-.184.214-.7.262-1.145.048-.445.164-.874.259-.953.104-.087.172-.385.172-.757 0-.338.062-.73.138-.872.076-.142.188-.652.248-1.133.06-.481.161-.907.224-.946.063-.039.154-.474.203-.968.05-.51.162-.959.259-1.039.108-.09.17-.401.17-.848 0-.429.072-.801.182-.947.1-.133.184-.443.186-.691.002-.247.116-.799.252-1.227.137-.428.248-.931.248-1.119 0-.188.084-.542.186-.787.102-.245.186-.636.186-.869 0-.233.084-.624.186-.869.102-.245.186-.635.186-.865 0-.231.112-.744.248-1.141.137-.397.248-.926.248-1.176 0-.25.082-.562.182-.695.102-.135.184-.515.187-.862.003-.342.089-.782.191-.978.102-.196.222-.672.265-1.056.043-.384.132-.766.197-.849.065-.083.149-.502.185-.932.037-.43.137-.865.222-.967.085-.102.182-.48.214-.84.033-.359.151-.755.264-.879.112-.124.204-.319.204-.433 0-.114.058-.208.128-.208.07 0 .163-.098.205-.217.111-.316.553-.776.744-.776.091 0 .165-.051.165-.112 0-.145.973-.716 1.406-.825.183-.046.333-.133.333-.194 0-.063 2.553-.111 5.962-.111 3.605 0 5.962.046 5.962.116 0 .064.126.153.279.199.154.046.489.308.745.583.37.396.466.597.466.973 0 .261.06.511.133.556.08.05.101.261.052.535-.045.249-.122.844-.173 1.323-.05.478-.15.981-.221 1.118-.071.137-.161.574-.2.971-.039.398-.127.79-.195.873-.068.082-.162.456-.209.83-.046.374-.162.804-.256.955-.095.151-.172.526-.172.834 0 .307-.112.842-.248 1.189-.137.347-.25.866-.253 1.153-.002.288-.084.663-.182.834-.098.171-.181.562-.186.869-.005.307-.089.699-.186.869-.098.171-.179.593-.182.938-.002.345-.059.682-.126.749-.143.143-.589 2.118-.74 3.277-.058.442-.167.824-.242.849-.076.025-.137.292-.137.593 0 .301-.112.841-.248 1.201-.137.359-.248.879-.248 1.154 0 .275-.076.61-.168.745-.093.135-.199.596-.237 1.026-.038.43-.122.849-.187.932-.065.083-.156.485-.202.893-.046.409-.165.868-.265 1.02-.1.153-.184.573-.186.934-.002.379-.081.758-.186.898-.1.133-.182.48-.182.772 0 .292-.112.814-.248 1.161-.137.347-.248.817-.248 1.045 0 .228-.084.616-.186.861-.102.245-.186.692-.186.994 0 .309-.073.608-.168.687-.093.077-.201.489-.241.916-.04.427-.16.984-.266 1.238-.106.254-.193.663-.193.909 0 .246-.062.563-.138.705-.076.142-.187.649-.247 1.126-.06.478-.177.95-.26 1.05-.083.1-.135.403-.116.673.02.278-.043.611-.145.767-.099.152-.221.638-.27 1.08-.049.442-.168.966-.264 1.165-.096.198-.175.59-.175.869 0 .28-.089.676-.196.881-.107.205-.215.681-.24 1.057-.025.377-.132.852-.238 1.056-.106.204-.194.626-.194.937 0 .311-.083.675-.183.807-.1.133-.184.498-.186.812-.002.314-.092.747-.199.962-.107.215-.227.713-.265 1.106-.038.393-.126.785-.194.871-.068.086-.166.587-.218 1.113-.051.526-.156.977-.232 1-.076.025-.138.296-.138.601 0 .305-.09.729-.2.941-.11.213-.229.727-.265 1.143-.036.416-.117.822-.181.903-.064.081-.169.523-.234.984-.065.46-.167.897-.225.971-.059.074-.145.506-.192.96-.047.455-.164.93-.26 1.056-.1.132-.175.528-.178.933-.002.387-.061.723-.131.746-.07.023-.175.347-.234.72-.059.373-.169.698-.246.724-.076.025-.139.145-.139.265 0 .12-.112.32-.248.444-.137.124-.248.279-.248.346 0 .308-1.651 1.579-2.051 1.579-.106 0-.343.098-.525.217-.302.198-.775.217-5.243.217-2.701 0-5.228-.017-5.615-.037"/></g><g transform="matrix(1.76286 0 0 1.76286 115.22-120.97)"><path d="m202.53-114.92c-.085-.137-.228-.248-.317-.248-.089 0-.29-.173-.447-.385-.251-.339-.279-.497-.237-1.326.03-.594.104-.96.199-.992.083-.028.152-.139.152-.247 0-.181.566-1.255.736-1.398.041-.034.241-.386.445-.781.204-.395.427-.815.496-.932.068-.117.343-.604.611-1.082.268-.478.533-.887.59-.91.057-.023.103-.096.103-.163 0-.067.279-.595.621-1.173.342-.578.621-1.087.621-1.131 0-.044.076-.168.169-.276.093-.108.38-.587.639-1.066.259-.478.864-1.54 1.345-2.36.481-.82 1.175-2.02 1.542-2.67.367-.649.716-1.264.777-1.366.06-.102.309-.539.552-.969l.442-.783-.003-2.384c-.002-1.311-.058-2.608-.125-2.881-.067-.273-.206-1.084-.308-1.801-.312-2.191-.439-3-.617-3.975-.19-1.035-.384-2.227-.575-3.54-.07-.478-.177-1.037-.239-1.242-.062-.205-.167-.82-.232-1.366-.066-.546-.177-1.301-.248-1.677-.47-2.494-.634-3.475-.636-3.796-.001-.201-.082-.589-.181-.862-.098-.273-.181-.783-.184-1.133-.003-.35-.089-.874-.192-1.164-.102-.29-.188-.731-.191-.978-.002-.248-.088-.813-.191-1.257-.103-.444-.234-1.171-.292-1.615-.103-.793-.238-1.561-.58-3.291-.094-.478-.206-1.205-.248-1.615-.042-.41-.12-.829-.174-.932-.054-.102-.164-.686-.244-1.298-.081-.611-.179-1.164-.218-1.228-.04-.064-.114-.458-.165-.876-.113-.93-.444-2.833-.686-3.944-.099-.454-.179-1.052-.179-1.329 0-.277-.056-.633-.125-.79-.069-.157-.207-.816-.307-1.465-.245-1.592-.593-3.588-.952-5.465-.072-.376-.204-1.13-.293-1.677-.089-.547-.235-1.371-.323-1.833-.146-.761-.138-.905.079-1.546.246-.723.702-1.3 1.363-1.724.355-.227.669-.239 6.583-.239h6.21l.864.435c.829.417 2.303 1.692 2.303 1.992 0 .076.073.211.163.3.233.233.679 2.443 1.268 6.278.11.717.282 1.723.382 2.236.1.512.2 1.127.221 1.366.022.239.129.938.239 1.553.376 2.107.482 2.734.653 3.85.094.615.227 1.425.296 1.801.069.376.212 1.214.319 1.863.106.649.275 1.655.375 2.236.1.581.216 1.363.257 1.739.042.376.154.959.249 1.296.096.337.174.875.174 1.195 0 .321.084.82.186 1.111.102.29.186.766.186 1.057 0 .291.092.814.204 1.162.395 1.224 1.161 1.277 1.845.127.205-.345.484-.805.621-1.022.137-.218.382-.646.546-.953.164-.306.373-.645.466-.753.092-.108.168-.234.168-.28 0-.066 2.976-5.243 3.475-6.04.064-.102.476-.801.917-1.553.711-1.213.997-1.71 1.5-2.608.076-.137.281-.472.455-.745.174-.273.351-.59.393-.705.042-.114.232-.45.422-.745.397-.619.648-1.038 1.128-1.89.188-.334.399-.699.467-.811.068-.112.46-.779.869-1.483.41-.704.842-1.429.961-1.611.119-.182.276-.47.349-.64.074-.169.173-.337.222-.373.048-.036.156-.204.24-.375.083-.171.207-.394.275-.497.068-.102.774-1.304 1.569-2.67.795-1.366 1.644-2.736 1.888-3.043.982-1.241 3.044-2.524 4.619-2.874.997-.222 13.544-.302 14.198-.09.558.18.955.681.955 1.204 0 .506-.362 1.889-.574 2.192-.094.135-.171.344-.171.466 0 .121-.045.221-.1.221-.055 0-.197.218-.314.485-.118.267-.352.688-.521.937-.169.249-.307.474-.307.502 0 .027-.31.57-.688 1.205-.379.636-.754 1.268-.835 1.404-.08.137-.281.468-.445.736-.165.268-.467.799-.673 1.18-.206.381-.441.776-.524.879-.082.102-.189.27-.236.373-.098.212-.246.458-.736 1.217-.189.294-.398.657-.463.807-.065.15-.329.609-.587 1.019-.258.41-1.77 2.953-3.361 5.651-1.591 2.698-2.942 4.99-3 5.092-.061.102-.351.596-.645 1.096-.294.5-.632 1.059-.75 1.242-.119.183-.272.463-.342.622-.07.159-.28.523-.468.809-.508.775-.629.976-.836 1.386-.103.205-.297.54-.43.745-.133.205-.329.526-.435.714-.106.188-.28.495-.387.683-.106.188-.288.488-.404.667-.116.179-.428.71-.695 1.18-.266.47-.664 1.134-.883 1.476-.219.342-.667 1.096-.995 1.677-.328.581-.727 1.234-.887 1.451-.16.217-.291.48-.291.583 0 .103-.053.22-.118.26-.065.04-.599.896-1.186 1.901-.587 1.01-1.135 1.938-1.217 2.072-.082.134-.289.469-.459.745-.17.276-.38.641-.466.812-.086.171-.268.478-.403.683-.136.205-.303.484-.372.621-.069.137-.195.36-.28.497-.085.137-.327.528-.539.869-.212.342-.424.705-.472.807-.048.102-.155.298-.238.435-.083.137-.444.731-.802 1.321-.359.59-.652 1.104-.652 1.143 0 .038-.16.31-.356.604-.196.294-.512.814-.702 1.155-.191.342-.409.733-.486.869-.077.137-.293.487-.48.778-.188.291-.493.802-.68 1.135-.266.475-1.486 2.532-2.511 4.235-.062.102-.351.605-.643 1.118-.292.512-.567.959-.612.994-.045.034-.232.342-.415.683-.762 1.416-1.098 1.998-1.263 2.183-.096.108-.174.235-.174.282 0 .047-.152.322-.338.611-.186.289-.401.637-.478.774-.077.137-.256.444-.398.683-.143.239-.396.686-.564.994-.168.307-.507.865-.754 1.239-.247.374-.449.747-.449.828 0 .081-.047.166-.104.189-.057.023-.564.837-1.126 1.809-.562.972-1.074 1.8-1.138 1.839-.064.04-.116.156-.116.26 0 .103-.07.266-.155.361-.085.095-.435.5-.776.9-.966 1.132-2.648 2.278-3.606 2.458-.228.043-.511.184-.628.314-.205.226-.484.236-6.685.236-6.337 0-6.475-.005-6.627-.248"/><path d="m173.68-194.97c-5.903 0-7.861.106-10.806.578-.444.071-1.227.179-1.739.241-.512.062-1.345.196-1.848.299-.503.102-1.068.186-1.258.186-.189 0-.543.084-.788.186-.245.102-.608.186-.803.186-.46 0-2.02.479-2.271.699-.108.093-.254.171-.326.171-.277 0-2.022 1.883-2.022 2.181 0 .044-.084.254-.186.47-.243.512-.548 1.594-.679 2.403-.058.355-.147.714-.198.796-.051.082-.164.491-.252.908-.089.417-.279 1.26-.423 1.875-.48 2.055-.35 3.145.404 3.408.724.252 1.442.123 3.695-.671.239-.084.63-.222.869-.307.239-.084 1.022-.295 1.739-.466.717-.171 1.612-.383 1.987-.474.962-.231 2.029-.429 3.043-.571.478-.067 1.121-.182 1.428-.252 1.795-.413 7.508-.393 10.185.035 5.02.803 7.07 2.606 6.909 6.094-.069 1.525-.713 2.084-2.403 2.088-.816.002-1.74.079-3.637.307-.171.02-.73.073-1.242.116-1.176.099-3.996.413-5.217.582-.512.071-1.407.181-1.987.245-.581.064-1.469.201-1.972.303-.503.102-1.089.184-1.304.182-.215-.001-.807.087-1.32.194-.512.107-1.49.309-2.174.45-.683.141-1.454.333-1.712.427-.258.094-.621.171-.807.171-.186 0-.499.084-.695.186-.196.102-.444.186-.551.186-.265 0-1.747.479-2.154.695-.181.096-.424.175-.54.175-.116 0-.358.079-.54.175-.181.096-.693.328-1.137.516-.913.388-2.452 1.113-2.732 1.289-.102.064-.592.352-1.087.637-.495.285-.9.568-.9.629 0 .06-.062.109-.136.109-.47 0-3.645 3.01-4.417 4.192-.258.394-.499.742-.536.776-.129.121-.449.725-1.265 2.395-.126.258-.229.529-.229.602 0 .073-.075.309-.167.524-.611 1.424-1.075 4.374-1.075 6.839 0 2.781.534 4.966 1.673 6.843.166.273.345.588.4.699.168.341 1.171 1.504 1.894 2.197 2.114 2.026 5.372 3.457 8.415 3.699.602.048 1.206.13 1.343.182.56.217 5.855-.106 7.328-.446 1.114-.258 2.553-.667 2.798-.796.105-.055.384-.139.621-.19.237-.051.571-.166.741-.252.171-.086.618-.284.994-.439 1.342-.552 3.02-1.411 3.33-1.704.09-.085.243-.155.338-.155.094 0 .213-.072.268-.159.055-.087.241-.223.411-.307.471-.23.843-.478 1.444-.959.215-.172.429-.314.474-.314.074 0 .796-.477.939-.621.236-.237.895-.621 1.064-.621.173 0 .191.099.124.652-.241 1.984-.229 2.399.109 3.113.35.739.821 1.163 1.653 1.49.467.184 1.152.21 5.713.21 4.355-.001 5.24-.03 5.539-.186.196-.102.455-.186.574-.186.12 0 .362-.112.536-.248.174-.137.362-.248.423-.248.061 0 .421-.297.8-.664.745-.721 1.351-1.681 1.351-2.139 0-.158.062-.444.136-.637.074-.192.217-.741.318-1.219.101-.478.262-1.205.357-1.615.095-.41.234-1.025.311-1.366.076-.342.217-.928.311-1.304.094-.376.289-1.214.435-1.863.146-.649.342-1.438.439-1.754.097-.317.179-.678.179-.803 0-.126.188-1.013.419-1.972.489-2.023.642-2.683.881-3.792.096-.444.258-1.143.361-1.553.442-1.763.685-2.811.815-3.54.098-.549.372-1.689.699-2.919.191-.72.373-1.533.602-2.67.089-.444.229-.964.307-1.157.077-.192.14-.498.14-.679 0-.181.076-.555.171-.831.095-.276.232-.808.307-1.184.074-.376.257-1.186.404-1.801.249-1.043.32-1.651.555-4.627.211-2.675-.431-5.349-1.77-7.382-.487-.74-2.672-2.958-2.915-2.958-.052 0-.335-.159-.629-.353-.495-.328-1.241-.705-2.146-1.079-.205-.085-.64-.271-.966-.415-.326-.145-.707-.264-.846-.264-.139 0-.372-.063-.516-.14-.295-.158-1.317-.413-2.701-.671-4.346-.811-5.087-.866-11.675-.866m3.159 29.817c.257-.003.398.037.543.132.304.198.308.476.019 1.661-.058.239-.223.938-.369 1.553-.145.615-.322 1.337-.392 1.603-.07.266-.173.741-.229 1.056-.056.315-.158.738-.229.943-.109.316-.465 1.825-.691 2.919-.093.451-.877 1.61-1.401 2.077-.469.418-.944.691-2.833 1.619-2.394 1.175-3.44 1.54-5.092 1.778-.915.132-3.906.123-4.976-.016-.346-.045-.748-.148-.893-.225-.144-.077-.373-.14-.505-.14-.271 0-1.827-.784-2.181-1.098-.302-.267-.83-1.08-1.06-1.634-.099-.239-.205-.994-.233-1.677-.06-1.453.179-2.683.749-3.866.594-1.233 1.648-2.355 3-3.206.621-.391 2.302-1.188 2.507-1.188.104 0 .31-.063.454-.14.144-.077.574-.214.955-.303 1.652-.385 1.979-.457 2.802-.613 1.402-.266 3.402-.547 4.471-.629.546-.042 1.161-.124 1.366-.182.205-.058.904-.143 1.553-.186.649-.044 1.571-.127 2.049-.186.263-.032.459-.049.613-.05"/><path d="m106.5-211.3c-12.463 0-14.158.022-14.221.186-.039.102-.141.186-.229.186-.389 0-1.462.709-2.123 1.405-.763.803-1.155 1.53-1.327 2.445-.058.307-.161.782-.229 1.056-.068.273-.186.776-.264 1.118-.078.342-.23.984-.334 1.428-.104.444-.258 1.179-.345 1.63-.087.451-.196.879-.241.951-.075.122-.192.65-.621 2.76-.184.904-.388 1.744-.648 2.682-.096.348-.175.745-.175.885 0 .14-.081.525-.179.858-.097.332-.293 1.122-.435 1.754-.142.632-.375 1.666-.516 2.298-.142.632-.337 1.422-.435 1.754-.097.332-.175.779-.175.994 0 .214-.084.55-.186.745-.102.196-.186.534-.186.753 0 .219-.079.645-.175.947-.096.303-.299 1.11-.45 1.793-.152.683-.352 1.491-.446 1.793-.094.303-.171.709-.171.904 0 .195-.075.536-.167.757-.092.221-.211.68-.26 1.021-.049.34-.166.894-.264 1.23-.098.337-.179.762-.179.947 0 .185-.084.499-.186.695-.102.196-.186.504-.186.687 0 .183-.061.491-.136.683-.075.192-.211.741-.303 1.219-.092.478-.229 1.121-.303 1.428-.074.307-.194.81-.268 1.118-.074.307-.215.894-.314 1.304-.099.41-.255 1.108-.345 1.553-.091.444-.235 1.087-.318 1.428-.083.342-.221.928-.311 1.304-.089.376-.261 1.074-.38 1.553-.12.478-.237 1.037-.264 1.242-.027.205-.129.652-.225.994-.096.342-.235.9-.311 1.242-.075.342-.21.956-.303 1.366-.093.41-.257 1.136-.365 1.615-.108.478-.311 1.372-.454 1.987-.143.615-.32 1.397-.392 1.739-.072.342-.208.846-.303 1.122-.095.276-.171.684-.171.908 0 .224-.05.505-.113.621-.062.116-.199.602-.303 1.079-.104.477-.279 1.257-.388 1.735-.109.478-.301 1.37-.431 1.983-.13.613-.295 1.136-.369 1.161-.158.053-.192 2.259-.035 2.259.056 0 .193.188.303.419.258.541 1.046 1.203 1.661 1.393.755.235 11.86.234 12.758 0 1.21-.315 2.723-1.51 3.237-2.554.343-.696.787-2.319 1.056-3.854.054-.307.197-.922.314-1.366.35-1.32.536-2.104.815-3.416.146-.683.338-1.521.431-1.863.301-1.113.47-1.852.567-2.5.052-.35.15-.741.217-.869.068-.128.164-.54.213-.916.05-.376.165-.872.26-1.102.095-.23.175-.533.175-.671 0-.53.667-1.648 1.44-2.414.433-.429.843-.78.908-.78.065 0 .193-.07.283-.155.09-.085.449-.253.8-.373.542-.185 1.148-.218 4.04-.229 1.869-.007 3.931-.059 4.58-.116.649-.058 2.162-.192 3.361-.295 1.199-.103 2.429-.241 2.732-.311.304-.07.765-.13 1.029-.132.263-.002.85-.087 1.304-.186.454-.1 1.134-.24 1.51-.314 1.872-.373 4.487-1.057 5.341-1.397.171-.068.478-.17.683-.225.473-.126 1.363-.443 1.925-.687.239-.104.653-.285.92-.4 2.068-.891 6.494-3.457 7.25-4.204.087-.086.418-.366.737-.625 1.324-1.073 2.294-2 3.202-3.066.342-.4.679-.792.749-.869.626-.688 2.09-2.972 2.608-4.068.174-.366.364-.751.419-.854.282-.523.527-1.14.765-1.925.145-.478.342-1.053.439-1.277.097-.224.175-.505.175-.625 0-.12.089-.552.198-.959.199-.739.296-1.483.563-4.398.141-1.539.126-1.822-.256-5.566-.058-.565-.166-1.18-.241-1.366-.075-.187-.187-.565-.252-.838-.065-.273-.209-.748-.318-1.056-.776-2.188-1.913-3.96-3.621-5.647-1.03-1.018-2.861-2.426-3.156-2.426-.066 0-.12-.047-.12-.105 0-.058-.377-.286-.838-.505-.461-.218-.922-.439-1.025-.493-.663-.347-1.031-.512-1.141-.512-.07 0-.301-.076-.516-.171-.575-.254-1.558-.572-2.17-.703-.295-.063-.602-.154-.679-.202-.145-.089-1.309-.334-2.635-.551-.41-.067-1.025-.179-1.366-.248-.342-.07-1.487-.185-2.546-.256-1.243-.083-2.023-.19-2.201-.303-.232-.148-2.469-.175-14.427-.175m3.051 13.239c.593-.003 1.37-.003 2.399 0 4.07.011 4.188.02 5.403.338 1.9.497 2.401.647 2.5.745.05.05.454.263.9.474.976.461 2.386 1.826 2.919 2.826.99 1.858 1.076 5.378.194 7.965-.691 2.026-2.323 4.274-3.889 5.356-1.492 1.03-1.766 1.198-2.686 1.63-2.305 1.082-4.865 1.689-8.07 1.921-2.039.148-5.435.131-6.01-.031-1.479-.414-2.704-2.265-2.329-3.517.079-.264.144-.602.144-.749 0-.147.105-.674.237-1.168.131-.494.308-1.176.388-1.518.081-.342.225-.956.322-1.366.097-.41.25-1.081.342-1.49.091-.41.229-.997.307-1.304.077-.307.34-1.425.582-2.484.242-1.059.521-2.21.621-2.558.1-.348.182-.783.182-.966 0-.366.548-1.519 1.025-2.154.166-.221.521-.571.788-.776.267-.205.549-.426.625-.489.076-.063.412-.244.745-.404.45-.215.589-.27 2.368-.279"/></g></g></g><path d="m78.66 6c-14.863 0-28.67 4.43-40.16 12.03v475.94c11.486 7.602 25.293 12.03 40.16 12.03h68.844v-500h-68.844" opacity=".05" fill="url(#1)"/><path d="m147.5 6v500h109v-500h-109" opacity=".05" fill="url(#2)"/><path d="m256.5 6v500h109v-500h-109" opacity=".05" fill="url(#3)"/><path d="m365.5 6v500h67.844c14.854 0 28.643-4.438 40.13-12.03v-475.94c-11.482-7.593-25.27-12.03-40.12-12.03h-67.844" opacity=".05" fill="url(#4)"/><path d="m38.5 18.03c-19.614 12.981-32.5 35.24-32.5 60.63v354.69c0 25.381 12.886 47.644 32.5 60.63v-475.94" opacity=".05" fill="url(#6)"/><path d="m473.47 18.03v475.94c19.627-12.979 32.531-35.23 32.531-60.62v-354.69c0-25.391-12.905-47.646-32.531-60.62" opacity=".05" fill="url(#5)"/></svg>