<svg xmlns="http://www.w3.org/2000/svg" xmlns:xlink="http://www.w3.org/1999/xlink" viewBox="0 0 512 512"><defs><filter id="7"><feGaussianBlur stdDeviation="3.7725"/></filter><linearGradient id="8" y1="19.564" x2="0" y2="504.02" gradientUnits="userSpaceOnUse"><stop stop-color="#f3f3f3"/><stop offset=".5" stop-color="#eee"/><stop offset="1" stop-color="#ebebeb"/></linearGradient><linearGradient xlink:href="#0" id="5" gradientUnits="userSpaceOnUse" gradientTransform="matrix(1.02835 0 0 1.46193 209.19-118.25)" x1="257" x2="362"/><linearGradient xlink:href="#0" id="6" gradientUnits="userSpaceOnUse" gradientTransform="matrix(1.0381 0 0 1.46193-337.29-118.25)" x1="257" x2="362"/><linearGradient xlink:href="#0" id="4" gradientUnits="userSpaceOnUse" gradientTransform="matrix(1.02835 0 0 1.46193 101.22-118.25)" x1="257" x2="362"/><linearGradient xlink:href="#0" id="3" gradientUnits="userSpaceOnUse" gradientTransform="matrix(1.0381 0 0 1.46193-10.289-118.25)" x1="257" x2="362"/><linearGradient id="0"><stop/><stop offset="1" stop-color="#fff"/></linearGradient><linearGradient xlink:href="#0" id="2" gradientUnits="userSpaceOnUse" gradientTransform="matrix(1.0381 0 0 1.46193-119.29-118.25)" x1="257" x2="362"/><linearGradient xlink:href="#0" id="1" gradientUnits="userSpaceOnUse" gradientTransform="matrix(1.0381 0 0 1.46193-228.29-118.25)" x1="257" x2="362"/></defs><path d="m78.66 6c-.929 0-1.861.028-2.781.063-.073.003-.146-.003-.219 0-.668.027-1.337.08-2 .125-.376.025-.751.063-1.125.094-.645.053-1.297.086-1.938.156-.965.106-1.922.232-2.875.375-.052.008-.104.023-.156.031-1.082.165-2.154.351-3.219.563-.459.091-.919.182-1.375.281-.39.085-.769.19-1.156.281-.647.152-1.297.299-1.938.469-.898.238-1.804.479-2.688.75-.211.065-.414.152-.625.219-.991.314-1.966.645-2.938 1-.817.298-1.635.611-2.438.938-.29.118-.587.222-.875.344-.136.057-.27.129-.406.188-.082.035-.169.058-.25.094-.717.311-1.42.636-2.125.969-.147.069-.291.148-.438.219-.947.455-1.889.943-2.813 1.438-.271.145-.544.289-.813.438-.414.228-.81.483-1.219.719-.52.3-1.051.594-1.563.906-.738.452-1.467.898-2.188 1.375-.031.021-.062.042-.094.063-.456.303-.895.625-1.344.938-.123.086-.252.163-.375.25-.524.37-1.049.742-1.563 1.125-1.835 1.371-3.618 2.84-5.313 4.375-.017.015-.046.016-.063.031-.526.477-1.02.977-1.531 1.469-.524.505-1.054 1.011-1.563 1.531-.512.523-1 1.055-1.5 1.594-.941 1.022-1.837 2.05-2.719 3.125-.631.769-1.244 1.58-1.844 2.375-.111.148-.233.289-.344.438-.526.71-1.031 1.427-1.531 2.156-.11.16-.235.308-.344.469-.013.019-.018.043-.031.063-.084.125-.167.249-.25.375-.47.708-.929 1.431-1.375 2.156-.071.116-.148.227-.219.344-.575.948-1.124 1.899-1.656 2.875-.152.278-.289.564-.438.844-.18.341-.356.687-.531 1.031-.243.479-.486.952-.719 1.438-.426.885-.828 1.783-1.219 2.688-.24.556-.461 1.124-.688 1.688-.038.095-.087.186-.125.281-.246.621-.489 1.245-.719 1.875-.332.909-.641 1.825-.938 2.75-.11.345-.238.684-.344 1.031-.301.99-.585 1.992-.844 3-.008.032-.023.062-.031.094-.267 1.046-.497 2.092-.719 3.156-.034.166-.06.334-.094.5-.426 2.117-.762 4.257-1 6.438-.035.323-.063.645-.094.969-.09.938-.165 1.895-.219 2.844-.017.29-.018.584-.031.875-.051 1.119-.094 2.243-.094 3.375v354.69 6c0 40.24 32.411 72.66 72.66 72.66h354.69c40.24 0 72.66-32.411 72.66-72.66v-354.69-6c0-1.259-.031-2.507-.094-3.75-.016-.323-.042-.647-.063-.969-.058-.917-.127-1.843-.219-2.75-.02-.2-.041-.394-.063-.594-.246-2.245-.587-4.447-1.031-6.625-.021-.104-.041-.209-.063-.313-.227-1.087-.476-2.15-.75-3.219-.011-.042-.02-.083-.031-.125-.19-.732-.413-1.464-.625-2.188-.212-.724-.423-1.442-.656-2.156-.258-.789-.529-1.567-.813-2.344-.23-.63-.472-1.254-.719-1.875-.038-.096-.087-.186-.125-.281-.239-.594-.465-1.195-.719-1.781-.378-.871-.777-1.741-1.188-2.594-.233-.485-.475-.958-.719-1.438-.287-.564-.574-1.132-.875-1.688-.051-.094-.105-.188-.156-.281-.513-.936-1.041-1.871-1.594-2.781-.212-.35-.438-.685-.656-1.031-.405-.642-.795-1.278-1.219-1.906-.809-1.199-1.685-2.354-2.563-3.5-.262-.341-.514-.695-.781-1.031-.189-.238-.371-.483-.563-.719-.093-.114-.188-.231-.281-.344-2.71-3.286-5.696-6.301-8.938-9.06-.293-.249-.578-.505-.875-.75-.268-.221-.541-.439-.813-.656-.636-.509-1.284-1.012-1.938-1.5-3.17-2.368-6.55-4.481-10.09-6.313-.617-.319-1.248-.636-1.875-.938-.155-.074-.313-.145-.469-.219-.785-.371-1.575-.719-2.375-1.063-.488-.209-.975-.426-1.469-.625-.735-.296-1.472-.571-2.219-.844-.392-.143-.793-.27-1.188-.406-.718-.248-1.459-.524-2.188-.75-.114-.035-.23-.059-.344-.094-.488-.149-.977-.267-1.469-.406-.357-.1-.703-.217-1.063-.313-.019-.005-.043.005-.063 0-.837-.221-1.683-.433-2.531-.625-.032-.007-.062-.024-.094-.031-.651-.146-1.311-.278-1.969-.406-1-.197-2.01-.376-3.03-.531-.063-.01-.125-.022-.188-.031-.952-.143-1.88-.269-2.844-.375-.836-.091-1.687-.156-2.531-.219-.176-.013-.355-.019-.531-.031-.735-.049-1.478-.097-2.219-.125-.92-.034-1.853-.063-2.781-.063h-285.84-68.844" filter="url(#7)" fill-opacity=".176"/><rect width="500" height="500" x="6" y="12" rx="72.64" opacity=".15"/><rect rx="72.64" y="6" x="6" height="500" width="500" fill="url(#8)"/><path d="m78.66 6c-14.863 0-28.67 4.43-40.16 12.03v475.94c11.486 7.602 25.293 12.03 40.16 12.03h68.844v-500h-68.844" opacity=".05" fill="url(#1)"/><path d="m147.5 6v500h109v-500h-109" opacity=".05" fill="url(#2)"/><path d="m256.5 6v500h109v-500h-109" opacity=".05" fill="url(#3)"/><path d="m365.5 6v500h67.844c14.854 0 28.643-4.438 40.13-12.03v-475.94c-11.482-7.593-25.27-12.03-40.12-12.03h-67.844" opacity=".05" fill="url(#4)"/><path d="m38.5 18.03c-19.614 12.981-32.5 35.24-32.5 60.63v354.69c0 25.381 12.886 47.644 32.5 60.63v-475.94" opacity=".05" fill="url(#6)"/><path d="m473.47 18.03v475.94c19.627-12.979 32.531-35.23 32.531-60.62v-354.69c0-25.391-12.905-47.646-32.531-60.62" opacity=".05" fill="url(#5)"/><rect width="435" height="435" x="38.5" y="38.5" rx="63.2" fill="#8e6587"/><path d="m116.69 53.5c-34.29 0-61.989 27.03-63.12 61.03v39.09h103.06v-100.12h-39.938m-18.09 24.969h12.938l17.719 50.19h-11.406l-3.625-11.906h-18.25l-3.625 11.906h-11.406l17.656-50.19m6.531 7.75c-.752 2.918-2.912 10.142-6.469 21.656h13.03c-3.352-10.784-5.254-16.899-5.688-18.313-.41-1.414-.693-2.523-.875-3.344m-51.625 78.53v101.91h103.06v-101.91h-103.06m33.531 25.969h15.563c7.091 0 12.246 1 15.438 3.03 3.215 2.01 4.812 5.193 4.813 9.594 0 2.987-.711 5.46-2.125 7.375-1.391 1.915-3.237 3.05-5.563 3.438v.344c3.169.707 5.453 2.031 6.844 3.969 1.414 1.938 2.125 4.504 2.125 7.719 0 4.56-1.663 8.134-4.969 10.688-3.283 2.554-7.752 3.813-13.406 3.813h-18.719v-49.969m10.625 8.656v11.125h6.156c2.873 0 4.942-.455 6.219-1.344 1.3-.889 1.937-2.354 1.938-4.406 0-1.915-.711-3.273-2.125-4.094-1.391-.844-3.593-1.281-6.625-1.281h-5.563m0 19.531v13.03h6.906c2.918 0 5.078-.539 6.469-1.656 1.391-1.117 2.062-2.822 2.063-5.125 0-4.15-2.947-6.25-8.875-6.25h-6.563m-44.12 58.875v101.91h103.06v-101.91h-103.06m55.938 25.25c4.856 0 9.754 1.183 14.656 3.531l-3.438 8.625c-1.87-.889-3.733-1.683-5.625-2.344-1.892-.661-3.77-1-5.594-1-3.99 0-7.06 1.522-9.25 4.531-2.189 2.987-3.281 7.142-3.281 12.5 0 11.149 4.164 16.75 12.531 16.75 3.511 0 7.757-.901 12.75-2.656v8.906c-4.104 1.71-8.688 2.563-13.75 2.563-7.273 0-12.834-2.193-16.688-6.594-3.853-4.423-5.781-10.778-5.781-19.03 0-5.198.951-9.726 2.844-13.625 1.892-3.922 4.622-6.925 8.156-9 3.557-2.098 7.704-3.156 12.469-3.156m-55.781 84.69v42.22c.855 11.886 4.983 22.828 11.469 31.969 10.307 7.297 22.887 11.594 36.531 11.594h55.06v-85.78h-103.06m30.781 24.469h15.719c8.162 0 14.486 2.16 19 6.469 4.514 4.309 6.781 10.333 6.781 18.06 0 8.231-2.366 14.529-7.06 18.906-4.674 4.378-11.435 6.563-20.281 6.563h-14.156v-50m10.625 8.688v32.563h4.531c10.214 0 15.312-5.502 15.313-16.469 0-10.739-4.734-16.09-14.219-16.09h-5.625" opacity=".2"/><g fill="#dcdbdb"><path d="m101.69 38.5c-34.29 0-61.989 27.03-63.12 61.03v39.09h103.06v-100.12h-39.938m-18.09 24.969h12.938l17.719 50.19h-11.406l-3.625-11.906h-18.25l-3.625 11.906h-11.406l17.656-50.19m6.531 7.75c-.752 2.918-2.912 10.142-6.469 21.656h13.03c-3.352-10.784-5.254-16.899-5.688-18.313-.41-1.414-.693-2.523-.875-3.344"/><path d="m38.5 149.75v101.91h103.06v-101.91h-103.06m33.531 25.969h15.563c7.091 0 12.245 1 15.438 3.03 3.215 2.01 4.812 5.193 4.813 9.594 0 2.987-.711 5.46-2.125 7.375-1.391 1.915-3.237 3.05-5.563 3.438v.344c3.169.707 5.453 2.031 6.844 3.969 1.414 1.938 2.125 4.504 2.125 7.719 0 4.56-1.663 8.134-4.969 10.688-3.283 2.554-7.752 3.813-13.406 3.813h-18.719v-49.969m10.625 8.656v11.125h6.156c2.873 0 4.942-.455 6.219-1.344 1.3-.889 1.937-2.354 1.938-4.406 0-1.915-.711-3.273-2.125-4.094-1.391-.844-3.593-1.281-6.625-1.281h-5.563m0 19.531v13.03h6.906c2.918 0 5.078-.539 6.469-1.656 1.391-1.117 2.062-2.822 2.063-5.125 0-4.15-2.947-6.25-8.875-6.25h-6.563"/><path d="m38.531 262.78v101.91h103.06v-101.91h-103.06m55.938 25.25c4.856 0 9.754 1.183 14.656 3.531l-3.438 8.625c-1.87-.889-3.733-1.683-5.625-2.344-1.892-.661-3.77-1-5.594-1-3.99 0-7.06 1.522-9.25 4.531-2.189 2.987-3.281 7.142-3.281 12.5 0 11.149 4.164 16.75 12.531 16.75 3.511 0 7.757-.901 12.75-2.656v8.906c-4.104 1.71-8.688 2.563-13.75 2.563-7.273 0-12.834-2.193-16.688-6.594-3.853-4.423-5.781-10.778-5.781-19.03 0-5.198.951-9.726 2.844-13.625 1.892-3.922 4.622-6.925 8.156-9 3.557-2.098 7.704-3.156 12.469-3.156"/><path d="m38.688 372.72v42.22c.053.744.109 1.483.188 2.219.079.736.178 1.459.281 2.188.092.645.201 1.299.313 1.938.027.155.034.314.063.469.248 1.365.542 2.699.875 4.03.139.554.284 1.108.438 1.656.079.282.167.563.25.844.163.555.353 1.108.531 1.656.443 1.364.906 2.711 1.438 4.03.266.66.557 1.32.844 1.969.285.645.569 1.304.875 1.938.308.637.64 1.25.969 1.875.285.543.575 1.092.875 1.625.116.207.225.42.344.625.28.485.582.961.875 1.438.368.599.738 1.196 1.125 1.781.387.585.781 1.147 1.188 1.719.406.572.825 1.13 1.25 1.688.425.557.87 1.114 1.313 1.656.066.081.121.17.188.25.379.459.765.896 1.156 1.344.46.527.929 1.051 1.406 1.563 1.873 2.01 3.881 3.908 6 5.656.04.033.085.061.125.094.092.075.189.144.281.219.613.497 1.212.995 1.844 1.469.143.107.293.206.438.313.36.266.728.523 1.094.781 1.609 1.135 3.285 2.204 5 3.188.611.35 1.22.701 1.844 1.031.624.33 1.239.628 1.875.938.636.31 1.29.617 1.938.906 7.872 3.507 16.578 5.469 25.781 5.469h40.06v-1.844-6.563-92.37h-103.06m30.781 24.469h15.719c8.162 0 14.486 2.16 19 6.469 4.514 4.309 6.781 10.333 6.781 18.06 0 8.231-2.366 14.529-7.06 18.906-4.674 4.378-11.435 6.563-20.281 6.563h-14.156v-50m10.625 8.688v32.563h4.531c10.214 0 15.312-5.502 15.313-16.469 0-10.739-4.734-16.09-14.219-16.09h-5.625"/></g><path d="m101.69 38.5c-35.01 0-63.19 28.17-63.19 63.19v15c0-35.01 28.17-63.19 63.19-63.19h308.63c35.01 0 63.19 28.17 63.19 63.19v-15c0-35.01-28.17-63.19-63.19-63.19h-308.62" opacity=".2"/><path d="m78.66 6c-40.24 0-72.66 32.411-72.66 72.66v7c0-40.24 32.411-72.66 72.66-72.66h354.69c40.24 0 72.66 32.411 72.66 72.66v-7c0-40.24-32.411-72.66-72.66-72.66h-354.69" fill="#fff"/><text font-size="129.23" letter-spacing="0" line-height="125%" word-spacing="0" x="1561.25" y="161.17" font-family="Gentium Book Basic"><tspan x="1561.25" y="161.17"/></text><text x="586.15" y="297.61" font-size="46.954" transform="scale(4.0128.2492)" font-family="Arial" text-anchor="middle"/><text font-size="129.23" letter-spacing="0" line-height="125%" word-spacing="0" x="2142.52" y="81.17" font-family="Gentium Book Basic"><tspan x="2142.52" y="81.17"/></text><text x="730.99" y="-23.422" font-size="46.954" transform="scale(4.0128.2492)" font-family="Arial" text-anchor="middle"/><text font-size="129.23" letter-spacing="0" line-height="125%" word-spacing="0" x="1070.94" y="-100.09" font-family="Gentium Book Basic"><tspan x="1070.94" y="-100.09"/></text><text x="463.96" y="-750.78" font-size="46.954" transform="scale(4.0128.2492)" font-family="Arial" text-anchor="middle"/><text font-size="129.23" letter-spacing="0" line-height="125%" word-spacing="0" x="2168.99" y="-316.56" font-family="Gentium Book Basic"><tspan x="2168.99" y="-316.56"/></text><text x="737.59" y="-1619.44" font-size="46.954" transform="scale(4.0128.2492)" font-family="Arial" text-anchor="middle"/><text font-size="129.23" letter-spacing="0" line-height="125%" word-spacing="0" x="2750.26" y="-396.57" font-family="Gentium Book Basic"><tspan x="2750.26" y="-396.57"/></text><text x="882.44" y="-1940.48" font-size="46.954" transform="scale(4.0128.2492)" font-family="Arial" text-anchor="middle"/><text font-size="129.23" letter-spacing="0" line-height="125%" word-spacing="0" x="2361.14" y="-868.97" font-family="Gentium Book Basic"><tspan x="2361.14" y="-868.97"/></text><text x="785.47" y="-3836.13" font-size="46.954" transform="scale(4.0128.2492)" font-family="Arial" text-anchor="middle"/><text font-size="129.23" letter-spacing="0" line-height="125%" word-spacing="0" x="2942.4" y="-948.97" font-family="Gentium Book Basic"><tspan x="2942.4" y="-948.97"/></text><text x="930.32" y="-4157.16" font-size="46.954" transform="scale(4.0128.2492)" font-family="Arial" text-anchor="middle"/><text font-size="208.33" letter-spacing="0" line-height="125%" word-spacing="0" x="1109.6" y="465.75" font-family="Gentium Book Basic"><tspan x="1109.6" y="465.75"/></text><g transform="translate(0-7.5)"><path d="m334.4 103.5c0 0-2.751 1.42-5.306 4.51-1.919 1.092-6.503 4.215-8.05 9.728l-1.503-.708c.719-1.545 1.791-3.16 3.095-4.864 0 0-1.894 1.774-3.626 4.599l-2.919-1.503c.801-1.624 1.878-3.303 3.449-4.953 0 0-1.534 1.195-3.184 3.272.504-1.916.429-4.119-5.483 2.299 0 0-26.44 11.45-34.14 35.29 0 0-4.488 10.802 1.503 42.36-8.524-3.968-2.713 16.867-2.742 16.892.852 5.538 3.187 7.919 4.599 8.932 3.356 28.08 27.545 57.13 49.44 57.13 25.17 0 49.07-30.552 52.799-57.13 1.438-1.01 3.719-3.394 4.599-8.932 0 0 5.422-19.269-1.769-17.246 2.502-7.415 10.761-36.26-5.218-54.21 0 0-7.396-10.185-25.559-15.565-.64-.535-1.252-1.085-1.946-1.592 0 0 .387.44.973 1.238-1.039-.32-2.126-.53-3.272-.796-.931-1.039-1.968-2.126-3.272-3.272 0 0 1.029 1.205 2.388 3.095-.478-.108-.883-.246-1.415-.354-.826-1.279-1.845-2.587-3.095-3.891 0 0 .573.966 1.238 2.565-3.331-2.425-10.08-8.02-10.08-14.416 0 0-4.157 1.915-6.633 5.483 1.01-2.939 2.522-5.679 5.13-7.96m34.757 162.02c-44.23 87.04-77.83.177-77.83.177-3.113 11.765-48.554 25.648-48.554 25.648-13.327 5.114-19.01 12.735-19.01 12.735-19.63 29.16-21.961 94.19-21.933 94.19.266 14.807 6.633 16.361 6.633 16.361 45.25 20.241 116.21 23.79 116.21 23.79 72.895 1.542 126.03-20.695 126.03-20.695 7.698-4.822 7.96-8.667 7.96-8.667 5.326-46.555-17.688-99.05-17.688-99.05-6.925-15.314-49.17-28.655-49.17-28.655-21.818-7.677-22.613-15.38-22.641-15.831" opacity=".2"/><path d="m319.4 88.5c0 0-2.751 1.42-5.306 4.51-1.919 1.092-6.503 4.215-8.05 9.728l-1.503-.708c.719-1.545 1.791-3.16 3.095-4.864 0 0-1.894 1.774-3.626 4.599l-2.919-1.503c.801-1.624 1.878-3.303 3.449-4.953 0 0-1.534 1.195-3.184 3.272.504-1.916.429-4.119-5.483 2.299 0 0-26.44 11.45-34.14 35.29 0 0-4.488 10.802 1.503 42.36-8.524-3.968-2.713 16.867-2.742 16.892.852 5.538 3.187 7.919 4.599 8.932 3.356 28.08 27.545 57.13 49.44 57.13 25.17 0 49.07-30.552 52.799-57.13 1.438-1.01 3.719-3.394 4.599-8.932 0 0 5.422-19.269-1.769-17.246 2.502-7.415 10.761-36.26-5.218-54.21 0 0-7.396-10.185-25.559-15.565-.64-.535-1.252-1.085-1.946-1.592 0 0 .387.44.973 1.238-1.039-.32-2.126-.53-3.272-.796-.931-1.039-1.968-2.126-3.272-3.272 0 0 1.029 1.205 2.388 3.095-.478-.108-.883-.246-1.415-.354-.826-1.279-1.845-2.587-3.095-3.891 0 0 .573.966 1.238 2.565-3.331-2.425-10.08-8.02-10.08-14.416 0 0-4.157 1.915-6.633 5.483 1.01-2.939 2.522-5.679 5.13-7.96m34.757 162.02c-44.23 87.04-77.83.177-77.83.177-3.113 11.765-48.554 25.648-48.554 25.648-13.327 5.114-19.01 12.735-19.01 12.735-19.63 29.16-21.961 94.19-21.933 94.19.266 14.807 6.633 16.361 6.633 16.361 45.25 20.241 116.21 23.79 116.21 23.79 72.895 1.542 126.03-20.695 126.03-20.695 7.698-4.822 7.96-8.667 7.96-8.667 5.326-46.555-17.688-99.05-17.688-99.05-6.925-15.314-49.17-28.655-49.17-28.655-21.818-7.677-22.613-15.38-22.641-15.831" fill="#dcdbdb"/></g></svg>