<?xml version="1.0" encoding="UTF-8" standalone="no"?>
<!-- Created with Inkscape (http://www.inkscape.org/) -->

<svg
   xmlns:dc="http://purl.org/dc/elements/1.1/"
   xmlns:cc="http://creativecommons.org/ns#"
   xmlns:rdf="http://www.w3.org/1999/02/22-rdf-syntax-ns#"
   xmlns:svg="http://www.w3.org/2000/svg"
   xmlns="http://www.w3.org/2000/svg"
   xmlns:xlink="http://www.w3.org/1999/xlink"
   xmlns:inkscape="http://www.inkscape.org/namespaces/inkscape"
   version="1.1"
   width="100%"
   height="100%"
   viewBox="0 0 512 512"
   id="svg2">
  <metadata
     id="metadata117">
    <rdf:RDF>
      <cc:Work
         rdf:about="">
        <dc:format>image/svg+xml</dc:format>
        <dc:type
           rdf:resource="http://purl.org/dc/dcmitype/StillImage" />
      </cc:Work>
    </rdf:RDF>
  </metadata>
  <defs
     id="defs4">
    <filter
       color-interpolation-filters="sRGB"
       id="7">
      <feGaussianBlur
         id="feGaussianBlur7"
         stdDeviation="3.7725" />
    </filter>
    <linearGradient
       y1="19.563999"
       x2="0"
       y2="504.01999"
       id="8"
       gradientUnits="userSpaceOnUse">
      <stop
         id="stop10"
         style="stop-color:#f3f3f3;stop-opacity:1"
         offset="0" />
      <stop
         id="stop12"
         style="stop-color:#eeeeee;stop-opacity:1"
         offset="0.5" />
      <stop
         id="stop14"
         style="stop-color:#ebebeb;stop-opacity:1"
         offset="1" />
    </linearGradient>
    <linearGradient
       x1="257"
       x2="362"
       id="5"
       xlink:href="#0"
       gradientUnits="userSpaceOnUse"
       gradientTransform="matrix(1.02835,0,0,1.46193,209.19,-118.25)" />
    <linearGradient
       x1="257"
       x2="362"
       id="6"
       xlink:href="#0"
       gradientUnits="userSpaceOnUse"
       gradientTransform="matrix(1.0381,0,0,1.46193,-337.29,-118.25)" />
    <linearGradient
       x1="257"
       x2="362"
       id="4"
       xlink:href="#0"
       gradientUnits="userSpaceOnUse"
       gradientTransform="matrix(1.02835,0,0,1.46193,101.22,-118.25)" />
    <linearGradient
       x1="257"
       x2="362"
       id="3"
       xlink:href="#0"
       gradientUnits="userSpaceOnUse"
       gradientTransform="matrix(1.0381,0,0,1.46193,-10.289,-118.25)" />
    <linearGradient
       id="0">
      <stop
         id="stop21"
         style="stop-color:#000000;stop-opacity:1"
         offset="0" />
      <stop
         id="stop23"
         style="stop-color:#ffffff;stop-opacity:1"
         offset="1" />
    </linearGradient>
    <linearGradient
       x1="257"
       x2="362"
       id="2"
       xlink:href="#0"
       gradientUnits="userSpaceOnUse"
       gradientTransform="matrix(1.0381,0,0,1.46193,-119.29,-118.25)" />
    <linearGradient
       x1="257"
       x2="362"
       id="1"
       xlink:href="#0"
       gradientUnits="userSpaceOnUse"
       gradientTransform="matrix(1.0381,0,0,1.46193,-228.29,-118.25)" />
  </defs>
  <path
     d="m 78.66,6 c -0.929,0 -1.861,0.028 -2.781,0.063 -0.073,0.003 -0.146,-0.003 -0.219,0 -0.668,0.027 -1.337,0.08 -2,0.125 -0.376,0.025 -0.751,0.063 -1.125,0.094 -0.645,0.053 -1.297,0.086 -1.938,0.156 -0.965,0.106 -1.922,0.232 -2.875,0.375 -0.052,0.008 -0.104,0.023 -0.156,0.031 -1.082,0.165 -2.154,0.351 -3.219,0.563 -0.459,0.091 -0.919,0.182 -1.375,0.281 -0.39,0.085 -0.769,0.19 -1.156,0.281 -0.647,0.152 -1.297,0.299 -1.938,0.469 -0.898,0.238 -1.804,0.479 -2.688,0.75 -0.211,0.065 -0.414,0.152 -0.625,0.219 -0.991,0.314 -1.966,0.645 -2.938,1 -0.817,0.298 -1.635,0.611 -2.438,0.938 -0.29,0.118 -0.587,0.222 -0.875,0.344 -0.136,0.057 -0.27,0.129 -0.406,0.188 -0.082,0.035 -0.169,0.058 -0.25,0.094 -0.717,0.311 -1.42,0.636 -2.125,0.969 -0.147,0.069 -0.291,0.148 -0.438,0.219 -0.947,0.455 -1.889,0.943 -2.813,1.438 -0.271,0.145 -0.544,0.289 -0.813,0.438 -0.414,0.228 -0.81,0.483 -1.219,0.719 -0.52,0.3 -1.051,0.594 -1.563,0.906 -0.738,0.452 -1.467,0.898 -2.188,1.375 -0.031,0.021 -0.062,0.042 -0.094,0.063 -0.456,0.303 -0.895,0.625 -1.344,0.938 -0.123,0.086 -0.252,0.163 -0.375,0.25 -0.524,0.37 -1.049,0.742 -1.563,1.125 -1.835,1.371 -3.618,2.84 -5.313,4.375 -0.017,0.015 -0.046,0.016 -0.063,0.031 -0.526,0.477 -1.02,0.977 -1.531,1.469 -0.524,0.505 -1.054,1.011 -1.563,1.531 -0.512,0.523 -1,1.055 -1.5,1.594 -0.941,1.022 -1.837,2.05 -2.719,3.125 -0.631,0.769 -1.244,1.58 -1.844,2.375 -0.111,0.148 -0.233,0.289 -0.344,0.438 -0.526,0.71 -1.031,1.427 -1.531,2.156 -0.11,0.16 -0.235,0.308 -0.344,0.469 -0.013,0.019 -0.018,0.043 -0.031,0.063 -0.084,0.125 -0.167,0.249 -0.25,0.375 -0.47,0.708 -0.929,1.431 -1.375,2.156 -0.071,0.116 -0.148,0.227 -0.219,0.344 -0.575,0.948 -1.124,1.899 -1.656,2.875 -0.152,0.278 -0.289,0.564 -0.438,0.844 -0.18,0.341 -0.356,0.687 -0.531,1.031 -0.243,0.479 -0.486,0.952 -0.719,1.438 -0.426,0.885 -0.828,1.783 -1.219,2.688 -0.24,0.556 -0.461,1.124 -0.688,1.688 -0.038,0.095 -0.087,0.186 -0.125,0.281 -0.246,0.621 -0.489,1.245 -0.719,1.875 -0.332,0.909 -0.641,1.825 -0.938,2.75 -0.11,0.345 -0.238,0.684 -0.344,1.031 -0.301,0.99 -0.585,1.992 -0.844,3 -0.008,0.032 -0.023,0.062 -0.031,0.094 -0.267,1.046 -0.497,2.092 -0.719,3.156 -0.034,0.166 -0.06,0.334 -0.094,0.5 -0.426,2.117 -0.762,4.257 -1,6.438 -0.035,0.323 -0.063,0.645 -0.094,0.969 -0.09,0.938 -0.165,1.895 -0.219,2.844 -0.017,0.29 -0.018,0.584 -0.031,0.875 -0.051,1.119 -0.094,2.243 -0.094,3.375 v 354.69 6 c 0,40.24 32.411,72.66 72.66,72.66 h 354.69 c 40.24,0 72.66,-32.411 72.66,-72.66 v -354.69 -6 c 0,-1.259 -0.031,-2.507 -0.094,-3.75 -0.016,-0.323 -0.042,-0.647 -0.063,-0.969 -0.058,-0.917 -0.127,-1.843 -0.219,-2.75 -0.02,-0.2 -0.041,-0.394 -0.063,-0.594 -0.246,-2.245 -0.587,-4.447 -1.031,-6.625 -0.021,-0.104 -0.041,-0.209 -0.063,-0.313 -0.227,-1.087 -0.476,-2.15 -0.75,-3.219 -0.011,-0.042 -0.02,-0.083 -0.031,-0.125 -0.19,-0.732 -0.413,-1.464 -0.625,-2.188 -0.212,-0.724 -0.423,-1.442 -0.656,-2.156 -0.258,-0.789 -0.529,-1.567 -0.813,-2.344 -0.23,-0.63 -0.472,-1.254 -0.719,-1.875 -0.038,-0.096 -0.087,-0.186 -0.125,-0.281 -0.239,-0.594 -0.465,-1.195 -0.719,-1.781 -0.378,-0.871 -0.777,-1.741 -1.188,-2.594 -0.233,-0.485 -0.475,-0.958 -0.719,-1.438 -0.287,-0.564 -0.574,-1.132 -0.875,-1.688 -0.051,-0.094 -0.105,-0.188 -0.156,-0.281 -0.513,-0.936 -1.041,-1.871 -1.594,-2.781 -0.212,-0.35 -0.438,-0.685 -0.656,-1.031 -0.405,-0.642 -0.795,-1.278 -1.219,-1.906 -0.809,-1.199 -1.685,-2.354 -2.563,-3.5 -0.262,-0.341 -0.514,-0.695 -0.781,-1.031 -0.189,-0.238 -0.371,-0.483 -0.563,-0.719 -0.093,-0.114 -0.188,-0.231 -0.281,-0.344 -2.71,-3.286 -5.696,-6.301 -8.938,-9.06 -0.293,-0.249 -0.578,-0.505 -0.875,-0.75 -0.268,-0.221 -0.541,-0.439 -0.813,-0.656 -0.636,-0.509 -1.284,-1.012 -1.938,-1.5 -3.17,-2.368 -6.55,-4.481 -10.09,-6.313 -0.617,-0.319 -1.248,-0.636 -1.875,-0.938 -0.155,-0.074 -0.313,-0.145 -0.469,-0.219 -0.785,-0.371 -1.575,-0.719 -2.375,-1.063 -0.488,-0.209 -0.975,-0.426 -1.469,-0.625 -0.735,-0.296 -1.472,-0.571 -2.219,-0.844 -0.392,-0.143 -0.793,-0.27 -1.188,-0.406 -0.718,-0.248 -1.459,-0.524 -2.188,-0.75 -0.114,-0.035 -0.23,-0.059 -0.344,-0.094 -0.488,-0.149 -0.977,-0.267 -1.469,-0.406 -0.357,-0.1 -0.703,-0.217 -1.063,-0.313 -0.019,-0.005 -0.043,0.005 -0.063,0 -0.837,-0.221 -1.683,-0.433 -2.531,-0.625 -0.032,-0.007 -0.062,-0.024 -0.094,-0.031 -0.651,-0.146 -1.311,-0.278 -1.969,-0.406 -1,-0.197 -2.01,-0.376 -3.03,-0.531 -0.063,-0.01 -0.125,-0.022 -0.188,-0.031 -0.952,-0.143 -1.88,-0.269 -2.844,-0.375 -0.836,-0.091 -1.687,-0.156 -2.531,-0.219 -0.176,-0.013 -0.355,-0.019 -0.531,-0.031 -0.735,-0.049 -1.478,-0.097 -2.219,-0.125 -0.92,-0.034 -1.853,-0.063 -2.781,-0.063 H 147.503 78.659"
     inkscape:connector-curvature="0"
     id="path27"
     style="fill-opacity:0.17600002;filter:url(#7)" />
  <rect
     width="500"
     height="500"
     rx="72.639999"
     x="6"
     y="12"
     id="rect29"
     style="opacity:0.15" />
  <rect
     width="500"
     height="500"
     rx="72.639999"
     x="6"
     y="6"
     id="rect31"
     style="fill:url(#8)" />
  <path
     d="M 78.66,6 C 63.797,6 49.99,10.43 38.5,18.03 V 493.97 C 49.986,501.572 63.793,506 78.66,506 h 68.844 V 6 H 78.66"
     inkscape:connector-curvature="0"
     id="path33"
     style="opacity:0.05;fill:url(#1)" />
  <path
     d="m 147.5,6 v 500 h 109 V 6 h -109"
     inkscape:connector-curvature="0"
     id="path35"
     style="opacity:0.05;fill:url(#2)" />
  <path
     d="m 256.5,6 v 500 h 109 V 6 h -109"
     inkscape:connector-curvature="0"
     id="path37"
     style="opacity:0.05;fill:url(#3)" />
  <path
     d="m 365.5,6 v 500 h 67.844 c 14.854,0 28.643,-4.438 40.13,-12.03 V 18.03 C 461.992,10.437 448.204,6 433.354,6 H 365.51"
     inkscape:connector-curvature="0"
     id="path39"
     style="opacity:0.05;fill:url(#4)" />
  <path
     d="M 38.5,18.03 C 18.886,31.011 6,53.27 6,78.66 v 354.69 c 0,25.381 12.886,47.644 32.5,60.63 V 18.04"
     inkscape:connector-curvature="0"
     id="path41"
     style="opacity:0.05;fill:url(#6)" />
  <path
     d="m 473.47,18.03 v 475.94 c 19.627,-12.979 32.531,-35.23 32.531,-60.62 V 78.66 c 0,-25.391 -12.905,-47.646 -32.531,-60.62"
     inkscape:connector-curvature="0"
     id="path43"
     style="opacity:0.05;fill:url(#5)" />
  <rect
     width="435"
     height="435"
     rx="63.200001"
     x="38.5"
     y="38.5"
     id="rect45"
     style="fill:#8e6587" />
  <path
     d="m 116.69,53.5 c -34.29,0 -61.989,27.03 -63.12,61.03 v 39.09 H 156.63 V 53.5 h -39.938 m -18.09,24.969 h 12.938 l 17.719,50.19 h -11.406 l -3.625,-11.906 h -18.25 l -3.625,11.906 H 80.947 l 17.656,-50.19 m 6.531,7.75 c -0.752,2.918 -2.912,10.142 -6.469,21.656 h 13.03 c -3.352,-10.784 -5.254,-16.899 -5.688,-18.313 -0.41,-1.414 -0.693,-2.523 -0.875,-3.344 m -51.625,78.53 v 101.91 h 103.06 V 164.748 H 53.507 m 33.531,25.969 h 15.563 c 7.091,0 12.246,1 15.438,3.03 3.215,2.01 4.812,5.193 4.813,9.594 0,2.987 -0.711,5.46 -2.125,7.375 -1.391,1.915 -3.237,3.05 -5.563,3.438 v 0.344 c 3.169,0.707 5.453,2.031 6.844,3.969 1.414,1.938 2.125,4.504 2.125,7.719 0,4.56 -1.663,8.134 -4.969,10.688 -3.283,2.554 -7.752,3.813 -13.406,3.813 H 87.039 v -49.969 m 10.625,8.656 v 11.125 h 6.156 c 2.873,0 4.942,-0.455 6.219,-1.344 1.3,-0.889 1.937,-2.354 1.938,-4.406 0,-1.915 -0.711,-3.273 -2.125,-4.094 -1.391,-0.844 -3.593,-1.281 -6.625,-1.281 h -5.563 m 0,19.531 v 13.03 h 6.906 c 2.918,0 5.078,-0.539 6.469,-1.656 1.391,-1.117 2.062,-2.822 2.063,-5.125 0,-4.15 -2.947,-6.25 -8.875,-6.25 h -6.563 m -44.12,58.875 v 101.91 h 103.06 V 277.779 H 53.544 m 55.938,25.25 c 4.856,0 9.754,1.183 14.656,3.531 l -3.438,8.625 c -1.87,-0.889 -3.733,-1.683 -5.625,-2.344 -1.892,-0.661 -3.77,-1 -5.594,-1 -3.99,0 -7.06,1.522 -9.25,4.531 -2.189,2.987 -3.281,7.142 -3.281,12.5 0,11.149 4.164,16.75 12.531,16.75 3.511,0 7.757,-0.901 12.75,-2.656 v 8.906 c -4.104,1.71 -8.688,2.563 -13.75,2.563 -7.273,0 -12.834,-2.193 -16.688,-6.594 -3.853,-4.423 -5.781,-10.778 -5.781,-19.03 0,-5.198 0.951,-9.726 2.844,-13.625 1.892,-3.922 4.622,-6.925 8.156,-9 3.557,-2.098 7.704,-3.156 12.469,-3.156 M 53.7,387.72 v 42.22 c 0.855,11.886 4.983,22.828 11.469,31.969 10.307,7.297 22.887,11.594 36.531,11.594 h 55.06 v -85.78 H 53.7 m 30.781,24.469 H 100.2 c 8.162,0 14.486,2.16 19,6.469 4.514,4.309 6.781,10.333 6.781,18.06 0,8.231 -2.366,14.529 -7.06,18.906 -4.674,4.378 -11.435,6.563 -20.281,6.563 H 84.484 v -50 m 10.625,8.688 v 32.563 h 4.531 c 10.214,0 15.312,-5.502 15.313,-16.469 0,-10.739 -4.734,-16.09 -14.219,-16.09 h -5.625"
     inkscape:connector-curvature="0"
     id="path47"
     style="opacity:0.2" />
  <g
     id="g49"
     style="fill:#dcdbdb">
    <path
       d="M 101.69,38.5 C 67.4,38.5 39.701,65.53 38.57,99.53 v 39.09 H 141.63 V 38.5 H 101.692 M 83.602,63.469 H 96.54 l 17.719,50.19 h -11.406 l -3.625,-11.906 h -18.25 l -3.625,11.906 H 65.947 l 17.656,-50.19 m 6.531,7.75 c -0.752,2.918 -2.912,10.142 -6.469,21.656 h 13.03 C 93.343,82.091 91.441,75.976 91.007,74.562 90.597,73.148 90.314,72.039 90.132,71.218"
       inkscape:connector-curvature="0"
       id="path51" />
    <path
       d="M 38.5,149.75 V 251.66 H 141.56 V 149.75 H 38.5 m 33.531,25.969 h 15.563 c 7.091,0 12.245,1 15.438,3.03 3.215,2.01 4.812,5.193 4.813,9.594 0,2.987 -0.711,5.46 -2.125,7.375 -1.391,1.915 -3.237,3.05 -5.563,3.438 v 0.344 c 3.169,0.707 5.453,2.031 6.844,3.969 1.414,1.938 2.125,4.504 2.125,7.719 0,4.56 -1.663,8.134 -4.969,10.688 -3.283,2.554 -7.752,3.813 -13.406,3.813 H 72.032 V 175.72 m 10.625,8.656 v 11.125 h 6.156 c 2.873,0 4.942,-0.455 6.219,-1.344 1.3,-0.889 1.937,-2.354 1.938,-4.406 0,-1.915 -0.711,-3.273 -2.125,-4.094 -1.391,-0.844 -3.593,-1.281 -6.625,-1.281 h -5.563 m 0,19.531 v 13.03 h 6.906 c 2.918,0 5.078,-0.539 6.469,-1.656 1.391,-1.117 2.062,-2.822 2.063,-5.125 0,-4.15 -2.947,-6.25 -8.875,-6.25 h -6.563"
       inkscape:connector-curvature="0"
       id="path53" />
    <path
       d="m 38.531,262.78 v 101.91 h 103.06 V 262.78 H 38.531 m 55.938,25.25 c 4.856,0 9.754,1.183 14.656,3.531 l -3.438,8.625 c -1.87,-0.889 -3.733,-1.683 -5.625,-2.344 -1.892,-0.661 -3.77,-1 -5.594,-1 -3.99,0 -7.06,1.522 -9.25,4.531 -2.189,2.987 -3.281,7.142 -3.281,12.5 0,11.149 4.164,16.75 12.531,16.75 3.511,0 7.757,-0.901 12.75,-2.656 v 8.906 c -4.104,1.71 -8.688,2.563 -13.75,2.563 -7.273,0 -12.834,-2.193 -16.688,-6.594 -3.853,-4.423 -5.781,-10.778 -5.781,-19.03 0,-5.198 0.951,-9.726 2.844,-13.625 1.892,-3.922 4.622,-6.925 8.156,-9 3.557,-2.098 7.704,-3.156 12.469,-3.156"
       inkscape:connector-curvature="0"
       id="path55" />
    <path
       d="m 38.688,372.72 v 42.22 c 0.053,0.744 0.109,1.483 0.188,2.219 0.079,0.736 0.178,1.459 0.281,2.188 0.092,0.645 0.201,1.299 0.313,1.938 0.027,0.155 0.034,0.314 0.063,0.469 0.248,1.365 0.542,2.699 0.875,4.03 0.139,0.554 0.284,1.108 0.438,1.656 0.079,0.282 0.167,0.563 0.25,0.844 0.163,0.555 0.353,1.108 0.531,1.656 0.443,1.364 0.906,2.711 1.438,4.03 0.266,0.66 0.557,1.32 0.844,1.969 0.285,0.645 0.569,1.304 0.875,1.938 0.308,0.637 0.64,1.25 0.969,1.875 0.285,0.543 0.575,1.092 0.875,1.625 0.116,0.207 0.225,0.42 0.344,0.625 0.28,0.485 0.582,0.961 0.875,1.438 0.368,0.599 0.738,1.196 1.125,1.781 0.387,0.585 0.781,1.147 1.188,1.719 0.406,0.572 0.825,1.13 1.25,1.688 0.425,0.557 0.87,1.114 1.313,1.656 0.066,0.081 0.121,0.17 0.188,0.25 0.379,0.459 0.765,0.896 1.156,1.344 0.46,0.527 0.929,1.051 1.406,1.563 1.873,2.01 3.881,3.908 6,5.656 0.04,0.033 0.085,0.061 0.125,0.094 0.092,0.075 0.189,0.144 0.281,0.219 0.613,0.497 1.212,0.995 1.844,1.469 0.143,0.107 0.293,0.206 0.438,0.313 0.36,0.266 0.728,0.523 1.094,0.781 1.609,1.135 3.285,2.204 5,3.188 0.611,0.35 1.22,0.701 1.844,1.031 0.624,0.33 1.239,0.628 1.875,0.938 0.636,0.31 1.29,0.617 1.938,0.906 7.872,3.507 16.578,5.469 25.781,5.469 h 40.06 v -1.844 -6.563 -92.37 H 38.693 m 30.781,24.469 h 15.719 c 8.162,0 14.486,2.16 19,6.469 4.514,4.309 6.781,10.333 6.781,18.06 0,8.231 -2.366,14.529 -7.06,18.906 -4.674,4.378 -11.435,6.563 -20.281,6.563 H 69.477 v -50 m 10.625,8.688 v 32.563 h 4.531 c 10.214,0 15.312,-5.502 15.313,-16.469 0,-10.739 -4.734,-16.09 -14.219,-16.09 h -5.625"
       inkscape:connector-curvature="0"
       id="path57" />
  </g>
  <path
     d="M 101.69,38.5 C 66.68,38.5 38.5,66.67 38.5,101.69 v 15 C 38.5,81.68 66.67,53.5 101.69,53.5 h 308.63 c 35.01,0 63.19,28.17 63.19,63.19 v -15 C 473.51,66.68 445.34,38.5 410.32,38.5 H 101.7"
     inkscape:connector-curvature="0"
     id="path59"
     style="opacity:0.2" />
  <path
     d="M 78.66,6 C 38.42,6 6,38.411 6,78.66 v 7 C 6,45.42 38.411,13 78.66,13 h 354.69 c 40.24,0 72.66,32.411 72.66,72.66 v -7 C 506.01,38.42 473.599,6 433.35,6 H 78.66"
     inkscape:connector-curvature="0"
     id="path61"
     style="fill:#ffffff" />
  <text
     x="1561.25"
     y="161.17"
     id="text63"
     style="font-size:129.22999573px;line-height:125%;letter-spacing:0;word-spacing:0;font-family:Gentium Book Basic">
    <tspan
       x="1561.25"
       y="161.17"
       id="tspan65" />
  </text>
  <text
     x="586.15002"
     y="297.60999"
     transform="scale(4.0128,0.2492)"
     id="text67"
     style="font-size:46.95399857px;text-anchor:middle;font-family:Arial" />
  <text
     x="2142.52"
     y="81.169998"
     id="text69"
     style="font-size:129.22999573px;line-height:125%;letter-spacing:0;word-spacing:0;font-family:Gentium Book Basic">
    <tspan
       x="2142.52"
       y="81.169998"
       id="tspan71" />
  </text>
  <text
     x="730.98999"
     y="-23.422001"
     transform="scale(4.0128,0.2492)"
     id="text73"
     style="font-size:46.95399857px;text-anchor:middle;font-family:Arial" />
  <text
     x="1070.9399"
     y="-100.09"
     id="text75"
     style="font-size:129.22999573px;line-height:125%;letter-spacing:0;word-spacing:0;font-family:Gentium Book Basic">
    <tspan
       x="1070.9399"
       y="-100.09"
       id="tspan77" />
  </text>
  <text
     x="463.95999"
     y="-750.78003"
     transform="scale(4.0128,0.2492)"
     id="text79"
     style="font-size:46.95399857px;text-anchor:middle;font-family:Arial" />
  <text
     x="2168.99"
     y="-316.56"
     id="text81"
     style="font-size:129.22999573px;line-height:125%;letter-spacing:0;word-spacing:0;font-family:Gentium Book Basic">
    <tspan
       x="2168.99"
       y="-316.56"
       id="tspan83" />
  </text>
  <text
     x="737.59003"
     y="-1619.4399"
     transform="scale(4.0128,0.2492)"
     id="text85"
     style="font-size:46.95399857px;text-anchor:middle;font-family:Arial" />
  <text
     x="2750.26"
     y="-396.57001"
     id="text87"
     style="font-size:129.22999573px;line-height:125%;letter-spacing:0;word-spacing:0;font-family:Gentium Book Basic">
    <tspan
       x="2750.26"
       y="-396.57001"
       id="tspan89" />
  </text>
  <text
     x="882.44"
     y="-1940.48"
     transform="scale(4.0128,0.2492)"
     id="text91"
     style="font-size:46.95399857px;text-anchor:middle;font-family:Arial" />
  <text
     x="2361.1399"
     y="-868.96997"
     id="text93"
     style="font-size:129.22999573px;line-height:125%;letter-spacing:0;word-spacing:0;font-family:Gentium Book Basic">
    <tspan
       x="2361.1399"
       y="-868.96997"
       id="tspan95" />
  </text>
  <text
     x="785.46997"
     y="-3836.1299"
     transform="scale(4.0128,0.2492)"
     id="text97"
     style="font-size:46.95399857px;text-anchor:middle;font-family:Arial" />
  <text
     x="2942.3999"
     y="-948.96997"
     id="text99"
     style="font-size:129.22999573px;line-height:125%;letter-spacing:0;word-spacing:0;font-family:Gentium Book Basic">
    <tspan
       x="2942.3999"
       y="-948.96997"
       id="tspan101" />
  </text>
  <text
     x="930.32001"
     y="-4157.1602"
     transform="scale(4.0128,0.2492)"
     id="text103"
     style="font-size:46.95399857px;text-anchor:middle;font-family:Arial" />
  <text
     x="1109.6"
     y="465.75"
     id="text105"
     style="font-size:208.33000183px;line-height:125%;letter-spacing:0;word-spacing:0;font-family:Gentium Book Basic">
    <tspan
       x="1109.6"
       y="465.75"
       id="tspan107" />
  </text>
  <g
     transform="translate(0,-7.5)"
     id="g109">
    <path
       d="m 334.4,103.5 c 0,0 -2.751,1.42 -5.306,4.51 -1.919,1.092 -6.503,4.215 -8.05,9.728 l -1.503,-0.708 c 0.719,-1.545 1.791,-3.16 3.095,-4.864 0,0 -1.894,1.774 -3.626,4.599 l -2.919,-1.503 c 0.801,-1.624 1.878,-3.303 3.449,-4.953 0,0 -1.534,1.195 -3.184,3.272 0.504,-1.916 0.429,-4.119 -5.483,2.299 0,0 -26.44,11.45 -34.14,35.29 0,0 -4.488,10.802 1.503,42.36 -8.524,-3.968 -2.713,16.867 -2.742,16.892 0.852,5.538 3.187,7.919 4.599,8.932 3.356,28.08 27.545,57.13 49.44,57.13 25.17,0 49.07,-30.552 52.799,-57.13 1.438,-1.01 3.719,-3.394 4.599,-8.932 0,0 5.422,-19.269 -1.769,-17.246 2.502,-7.415 10.761,-36.26 -5.218,-54.21 0,0 -7.396,-10.185 -25.559,-15.565 -0.64,-0.535 -1.252,-1.085 -1.946,-1.592 0,0 0.387,0.44 0.973,1.238 -1.039,-0.32 -2.126,-0.53 -3.272,-0.796 -0.931,-1.039 -1.968,-2.126 -3.272,-3.272 0,0 1.029,1.205 2.388,3.095 -0.478,-0.108 -0.883,-0.246 -1.415,-0.354 -0.826,-1.279 -1.845,-2.587 -3.095,-3.891 0,0 0.573,0.966 1.238,2.565 -3.331,-2.425 -10.08,-8.02 -10.08,-14.416 0,0 -4.157,1.915 -6.633,5.483 1.01,-2.939 2.522,-5.679 5.13,-7.96 m 34.757,162.02 c -44.23,87.04 -77.83,0.177 -77.83,0.177 -3.113,11.765 -48.554,25.648 -48.554,25.648 -13.327,5.114 -19.01,12.735 -19.01,12.735 -19.63,29.16 -21.961,94.19 -21.933,94.19 0.266,14.807 6.633,16.361 6.633,16.361 45.25,20.241 116.21,23.79 116.21,23.79 72.895,1.542 126.03,-20.695 126.03,-20.695 7.698,-4.822 7.96,-8.667 7.96,-8.667 5.326,-46.555 -17.688,-99.05 -17.688,-99.05 -6.925,-15.314 -49.17,-28.655 -49.17,-28.655 -21.818,-7.677 -22.613,-15.38 -22.641,-15.831"
       inkscape:connector-curvature="0"
       id="path111"
       style="opacity:0.2" />
    <path
       d="m 319.4,88.5 c 0,0 -2.751,1.42 -5.306,4.51 -1.919,1.092 -6.503,4.215 -8.05,9.728 l -1.503,-0.708 c 0.719,-1.545 1.791,-3.16 3.095,-4.864 0,0 -1.894,1.774 -3.626,4.599 l -2.919,-1.503 c 0.801,-1.624 1.878,-3.303 3.449,-4.953 0,0 -1.534,1.195 -3.184,3.272 0.504,-1.916 0.429,-4.119 -5.483,2.299 0,0 -26.44,11.45 -34.14,35.29 0,0 -4.488,10.802 1.503,42.36 -8.524,-3.968 -2.713,16.867 -2.742,16.892 0.852,5.538 3.187,7.919 4.599,8.932 3.356,28.08 27.545,57.13 49.44,57.13 25.17,0 49.07,-30.552 52.799,-57.13 1.438,-1.01 3.719,-3.394 4.599,-8.932 0,0 5.422,-19.269 -1.769,-17.246 2.502,-7.415 10.761,-36.26 -5.218,-54.21 0,0 -7.396,-10.185 -25.559,-15.565 -0.64,-0.535 -1.252,-1.085 -1.946,-1.592 0,0 0.387,0.44 0.973,1.238 -1.039,-0.32 -2.126,-0.53 -3.272,-0.796 -0.931,-1.039 -1.968,-2.126 -3.272,-3.272 0,0 1.029,1.205 2.388,3.095 -0.478,-0.108 -0.883,-0.246 -1.415,-0.354 -0.826,-1.279 -1.845,-2.587 -3.095,-3.891 0,0 0.573,0.966 1.238,2.565 -3.331,-2.425 -10.08,-8.02 -10.08,-14.416 0,0 -4.157,1.915 -6.633,5.483 1.01,-2.939 2.522,-5.679 5.13,-7.96 m 34.757,162.02 c -44.23,87.04 -77.83,0.177 -77.83,0.177 -3.113,11.765 -48.554,25.648 -48.554,25.648 -13.327,5.114 -19.01,12.735 -19.01,12.735 -19.63,29.16 -21.961,94.19 -21.933,94.19 0.266,14.807 6.633,16.361 6.633,16.361 45.25,20.241 116.21,23.79 116.21,23.79 72.895,1.542 126.03,-20.695 126.03,-20.695 7.698,-4.822 7.96,-8.667 7.96,-8.667 5.326,-46.555 -17.688,-99.05 -17.688,-99.05 -6.925,-15.314 -49.17,-28.655 -49.17,-28.655 -21.818,-7.677 -22.613,-15.38 -22.641,-15.831"
       inkscape:connector-curvature="0"
       id="path113"
       style="fill:#dcdbdb" />
  </g>
</svg>
