<?xml version="1.0" encoding="UTF-8" standalone="no"?>
<svg
   xmlns:dc="http://purl.org/dc/elements/1.1/"
   xmlns:cc="http://creativecommons.org/ns#"
   xmlns:rdf="http://www.w3.org/1999/02/22-rdf-syntax-ns#"
   xmlns:svg="http://www.w3.org/2000/svg"
   xmlns="http://www.w3.org/2000/svg"
   xmlns:xlink="http://www.w3.org/1999/xlink"
   xmlns:sodipodi="http://sodipodi.sourceforge.net/DTD/sodipodi-0.dtd"
   xmlns:inkscape="http://www.inkscape.org/namespaces/inkscape"
   viewBox="0 0 512 512"
   id="svg2"
   version="1.1"
   inkscape:version="0.48.4 r9939"
   width="100%"
   height="100%"
   sodipodi:docname="skype.svg">
  <sodipodi:namedview
     pagecolor="#444444"
     bordercolor="#666666"
     borderopacity="1"
     objecttolerance="10"
     gridtolerance="10"
     guidetolerance="10"
     inkscape:pageopacity="0"
     inkscape:pageshadow="2"
     inkscape:window-width="1310"
     inkscape:window-height="718"
     id="namedview6"
     showgrid="false"
     showguides="true"
     inkscape:guide-bbox="true"
     inkscape:zoom="1.036221"
     inkscape:cx="222.30523"
     inkscape:cy="267.98293"
     inkscape:window-x="54"
     inkscape:window-y="27"
     inkscape:window-maximized="1"
     inkscape:current-layer="svg2"
     inkscape:snap-midpoints="true"
     inkscape:snap-global="false">
    <sodipodi:guide
       id="guide2989"
       position="522.57628,433.35594"
       orientation="0,1" />
    <sodipodi:guide
       id="guide2995"
       position="473.05444,254.912"
       orientation="1,0" />
  </sodipodi:namedview>
  <metadata
     id="metadata10">
    <rdf:RDF>
      <cc:Work
         rdf:about="">
        <dc:format>image/svg+xml</dc:format>
        <dc:type
           rdf:resource="http://purl.org/dc/dcmitype/StillImage" />
        <dc:title></dc:title>
      </cc:Work>
    </rdf:RDF>
  </metadata>
  <defs
     id="defs8">
    <linearGradient
       id="linearGradient4996">
      <stop
         style="stop-color:#000000;stop-opacity:1;"
         offset="0"
         id="stop4998" />
      <stop
         style="stop-color:#ffffff;stop-opacity:1;"
         offset="1"
         id="stop5000" />
    </linearGradient>
    <linearGradient
       inkscape:collect="always"
       xlink:href="#linearGradient4996"
       id="linearGradient3108"
       gradientUnits="userSpaceOnUse"
       gradientTransform="matrix(1.0380952,0,0,1.4619252,-228.28943,-118.25286)"
       x1="257"
       y1="256"
       x2="362"
       y2="256" />
    <linearGradient
       inkscape:collect="always"
       xlink:href="#linearGradient4996"
       id="linearGradient3137"
       gradientUnits="userSpaceOnUse"
       gradientTransform="matrix(1.0380952,0,0,1.4619252,-119.28943,-118.25286)"
       x1="257"
       y1="256"
       x2="362"
       y2="256" />
    <linearGradient
       inkscape:collect="always"
       xlink:href="#linearGradient4996"
       id="linearGradient3141"
       gradientUnits="userSpaceOnUse"
       gradientTransform="matrix(1.0380952,0,0,1.4619252,-10.28943,-118.25286)"
       x1="257"
       y1="256"
       x2="362"
       y2="256" />
    <linearGradient
       inkscape:collect="always"
       xlink:href="#linearGradient4996"
       id="linearGradient3145"
       gradientUnits="userSpaceOnUse"
       gradientTransform="matrix(1.0283468,0,0,1.4619252,101.21591,-118.25286)"
       x1="257"
       y1="256"
       x2="362"
       y2="256" />
    <linearGradient
       inkscape:collect="always"
       xlink:href="#linearGradient4996"
       id="linearGradient3149"
       gradientUnits="userSpaceOnUse"
       gradientTransform="matrix(1.0283468,0,0,1.4619252,209.19233,-118.25286)"
       x1="257"
       y1="256"
       x2="362"
       y2="256" />
    <linearGradient
       inkscape:collect="always"
       xlink:href="#linearGradient4996"
       id="linearGradient3153"
       gradientUnits="userSpaceOnUse"
       gradientTransform="matrix(1.0380952,0,0,1.4619252,-337.28943,-118.25286)"
       x1="257"
       y1="256"
       x2="362"
       y2="256" />
  </defs>
  <rect
     style="opacity:0.2;fill:#000000;fill-opacity:1;stroke:none"
     id="rect5028"
     width="500"
     height="500"
     x="6"
     y="12"
     rx="72.644058"
     ry="72.644058" />
  <rect
     ry="72.644058"
     rx="72.644058"
     y="6"
     x="6"
     height="500"
     width="500"
     id="rect4979"
     style="fill:#f3f3f3;fill-opacity:1;stroke:none" />
  <rect
     style="fill:#0078ad;fill-opacity:1;stroke:none"
     id="rect4981"
     width="434.99997"
     height="434.99997"
     x="38.500011"
     y="38.500011"
     rx="63.200329"
     ry="63.200329" />
  <path
     style="fill:#000000;fill-opacity:1;stroke:none;opacity:0.2"
     d="M 101.6875 38.5 C 66.674518 38.5 38.5 66.674518 38.5 101.6875 L 38.5 116.6875 C 38.5 81.674518 66.674518 53.5 101.6875 53.5 L 410.3125 53.5 C 445.32548 53.5 473.5 81.674518 473.5 116.6875 L 473.5 101.6875 C 473.5 66.674518 445.32548 38.5 410.3125 38.5 L 101.6875 38.5 z "
     id="rect3187" />
  <g
     id="g3053"
     transform="translate(-51.927729,124.59275)">
    <g
       id="g3049"
       transform="matrix(11.166294,0,0,11.166294,-8439.9629,-10992.386)"
       style="opacity:0.2;fill:#000000;fill-opacity:1">
      <path
         style="fill:#000000;fill-opacity:1"
         inkscape:connector-curvature="0"
         id="path3051"
         d="m 798.357,997.023 c 0,-7.791 -6.316,-14.107 -14.109,-14.107 -0.82,0 -1.627,0.072 -2.412,0.205 -1.262,-0.793 -2.752,-1.256 -4.352,-1.256 -4.52,0 -8.182,3.664 -8.182,8.184 0,1.51 0.41,2.924 1.123,4.139 -0.188,0.914 -0.285,1.865 -0.285,2.836 0,7.793 6.316,14.107 14.107,14.107 0.885,0 1.746,-0.08 2.584,-0.236 1.152,0.619 2.469,0.971 3.867,0.971 4.52,0 8.182,-3.662 8.182,-8.182 0,-1.305 -0.307,-2.537 -0.85,-3.633 0.214,-0.977 0.327,-1.988 0.327,-3.028 z m -6.873,6.743 c -0.65,0.924 -1.617,1.654 -2.865,2.174 -1.238,0.514 -2.721,0.775 -4.408,0.775 -2.027,0 -3.725,-0.355 -5.053,-1.059 -0.947,-0.512 -1.73,-1.205 -2.322,-2.063 -0.598,-0.863 -0.902,-1.721 -0.902,-2.549 0,-0.516 0.197,-0.965 0.588,-1.33 0.385,-0.365 0.881,-0.549 1.473,-0.549 0.484,0 0.902,0.145 1.244,0.432 0.322,0.275 0.602,0.684 0.826,1.209 0.25,0.574 0.521,1.057 0.809,1.436 0.277,0.367 0.676,0.676 1.184,0.916 0.512,0.242 1.201,0.365 2.049,0.365 1.166,0 2.123,-0.25 2.844,-0.74 0.703,-0.479 1.043,-1.055 1.043,-1.762 0,-0.555 -0.178,-0.992 -0.545,-1.336 -0.385,-0.361 -0.891,-0.639 -1.506,-0.832 -0.641,-0.199 -1.512,-0.416 -2.588,-0.643 -1.465,-0.311 -2.709,-0.684 -3.697,-1.104 -1.012,-0.432 -1.828,-1.029 -2.424,-1.773 -0.605,-0.76 -0.912,-1.709 -0.912,-2.828 0,-1.066 0.322,-2.027 0.957,-2.855 0.631,-0.822 1.553,-1.463 2.74,-1.9 1.17,-0.434 2.563,-0.652 4.139,-0.652 1.26,0 2.365,0.146 3.291,0.434 0.932,0.287 1.713,0.68 2.33,1.16 0.621,0.486 1.084,1.004 1.373,1.543 0.291,0.543 0.439,1.084 0.439,1.607 0,0.506 -0.193,0.963 -0.578,1.363 -0.387,0.4 -0.875,0.605 -1.449,0.605 -0.521,0 -0.932,-0.129 -1.213,-0.379 -0.266,-0.234 -0.539,-0.598 -0.844,-1.121 -0.352,-0.668 -0.779,-1.195 -1.266,-1.566 -0.475,-0.363 -1.268,-0.543 -2.355,-0.543 -1.012,0 -1.834,0.201 -2.443,0.604 -0.59,0.385 -0.877,0.826 -0.877,1.352 0,0.322 0.092,0.59 0.283,0.82 0.201,0.246 0.482,0.459 0.84,0.639 0.371,0.188 0.754,0.336 1.137,0.439 0.391,0.111 1.049,0.271 1.951,0.48 1.143,0.246 2.191,0.52 3.117,0.816 0.941,0.301 1.752,0.67 2.414,1.102 0.678,0.441 1.213,1.004 1.592,1.68 0.381,0.678 0.574,1.514 0.574,2.484 -0.001,1.162 -0.333,2.223 -0.99,3.149 z" />
    </g>
    <g
       style="fill:#dcdbdb;fill-opacity:1"
       transform="matrix(11.166294,0,0,11.166294,-8454.9629,-11007.386)"
       id="g1927">
      <path
         d="m 798.357,997.023 c 0,-7.791 -6.316,-14.107 -14.109,-14.107 -0.82,0 -1.627,0.072 -2.412,0.205 -1.262,-0.793 -2.752,-1.256 -4.352,-1.256 -4.52,0 -8.182,3.664 -8.182,8.184 0,1.51 0.41,2.924 1.123,4.139 -0.188,0.914 -0.285,1.865 -0.285,2.836 0,7.793 6.316,14.107 14.107,14.107 0.885,0 1.746,-0.08 2.584,-0.236 1.152,0.619 2.469,0.971 3.867,0.971 4.52,0 8.182,-3.662 8.182,-8.182 0,-1.305 -0.307,-2.537 -0.85,-3.633 0.214,-0.977 0.327,-1.988 0.327,-3.028 z m -6.873,6.743 c -0.65,0.924 -1.617,1.654 -2.865,2.174 -1.238,0.514 -2.721,0.775 -4.408,0.775 -2.027,0 -3.725,-0.355 -5.053,-1.059 -0.947,-0.512 -1.73,-1.205 -2.322,-2.063 -0.598,-0.863 -0.902,-1.721 -0.902,-2.549 0,-0.516 0.197,-0.965 0.588,-1.33 0.385,-0.365 0.881,-0.549 1.473,-0.549 0.484,0 0.902,0.145 1.244,0.432 0.322,0.275 0.602,0.684 0.826,1.209 0.25,0.574 0.521,1.057 0.809,1.436 0.277,0.367 0.676,0.676 1.184,0.916 0.512,0.242 1.201,0.365 2.049,0.365 1.166,0 2.123,-0.25 2.844,-0.74 0.703,-0.479 1.043,-1.055 1.043,-1.762 0,-0.555 -0.178,-0.992 -0.545,-1.336 -0.385,-0.361 -0.891,-0.639 -1.506,-0.832 -0.641,-0.199 -1.512,-0.416 -2.588,-0.643 -1.465,-0.311 -2.709,-0.684 -3.697,-1.104 -1.012,-0.432 -1.828,-1.029 -2.424,-1.773 -0.605,-0.76 -0.912,-1.709 -0.912,-2.828 0,-1.066 0.322,-2.027 0.957,-2.855 0.631,-0.822 1.553,-1.463 2.74,-1.9 1.17,-0.434 2.563,-0.652 4.139,-0.652 1.26,0 2.365,0.146 3.291,0.434 0.932,0.287 1.713,0.68 2.33,1.16 0.621,0.486 1.084,1.004 1.373,1.543 0.291,0.543 0.439,1.084 0.439,1.607 0,0.506 -0.193,0.963 -0.578,1.363 -0.387,0.4 -0.875,0.605 -1.449,0.605 -0.521,0 -0.932,-0.129 -1.213,-0.379 -0.266,-0.234 -0.539,-0.598 -0.844,-1.121 -0.352,-0.668 -0.779,-1.195 -1.266,-1.566 -0.475,-0.363 -1.268,-0.543 -2.355,-0.543 -1.012,0 -1.834,0.201 -2.443,0.604 -0.59,0.385 -0.877,0.826 -0.877,1.352 0,0.322 0.092,0.59 0.283,0.82 0.201,0.246 0.482,0.459 0.84,0.639 0.371,0.188 0.754,0.336 1.137,0.439 0.391,0.111 1.049,0.271 1.951,0.48 1.143,0.246 2.191,0.52 3.117,0.816 0.941,0.301 1.752,0.67 2.414,1.102 0.678,0.441 1.213,1.004 1.592,1.68 0.381,0.678 0.574,1.514 0.574,2.484 -0.001,1.162 -0.333,2.223 -0.99,3.149 z"
         id="path1929"
         inkscape:connector-curvature="0"
         style="fill:#dcdbdb;fill-opacity:1" />
    </g>
  </g>
  <g
     id="g3167">
    <path
       id="rect3068"
       d="M 78.65625 6 C 63.792798 6 49.986224 10.429561 38.5 18.03125 L 38.5 493.96875 C 49.986224 501.57044 63.792798 506 78.65625 506 L 147.5 506 L 147.5 6 L 78.65625 6 z "
       style="opacity:0.05000000000000000;fill:url(#linearGradient3108);fill-opacity:1;stroke:none" />
    <path
       inkscape:connector-curvature="0"
       style="opacity:0.05;fill:url(#linearGradient3137);fill-opacity:1;stroke:none"
       d="m 147.50001,6 0,500 109,0 0,-500 -109,0 z"
       id="path3135" />
    <path
       id="path3139"
       d="m 256.50001,6 0,500 109,0 0,-500 -109,0 z"
       style="opacity:0.05;fill:url(#linearGradient3141);fill-opacity:1;stroke:none"
       inkscape:connector-curvature="0" />
    <path
       id="path3143"
       d="M 365.5 6 L 365.5 506 L 433.34375 506 C 448.1977 506 461.98692 501.56151 473.46875 493.96875 L 473.46875 18.03125 C 461.98692 10.438491 448.1977 6 433.34375 6 L 365.5 6 z "
       style="opacity:0.05000000000000000;fill:url(#linearGradient3145);fill-opacity:1;stroke:none" />
    <path
       id="path3151"
       d="M 38.5 18.03125 C 18.885717 31.012164 6 53.274894 6 78.65625 L 6 433.34375 C 6 458.72511 18.885717 480.98784 38.5 493.96875 L 38.5 18.03125 z "
       style="opacity:0.05000000000000000;fill:url(#linearGradient3153);fill-opacity:1;stroke:none" />
    <path
       id="path3147"
       d="M 473.46875 18.03125 L 473.46875 493.96875 C 493.09542 480.98993 506 458.73461 506 433.34375 L 506 78.65625 C 506 53.265388 493.09542 31.010071 473.46875 18.03125 z "
       style="opacity:0.05000000000000000;fill:url(#linearGradient3149);fill-opacity:1;stroke:none" />
  </g>
</svg>
