<?xml version="1.0" encoding="UTF-8" standalone="no"?>
<!-- Created with Inkscape (http://www.inkscape.org/) -->

<svg
   xmlns:dc="http://purl.org/dc/elements/1.1/"
   xmlns:cc="http://creativecommons.org/ns#"
   xmlns:rdf="http://www.w3.org/1999/02/22-rdf-syntax-ns#"
   xmlns:svg="http://www.w3.org/2000/svg"
   xmlns="http://www.w3.org/2000/svg"
   xmlns:xlink="http://www.w3.org/1999/xlink"
   xmlns:inkscape="http://www.inkscape.org/namespaces/inkscape"
   version="1.1"
   width="100%"
   height="100%"
   viewBox="0 0 512 512"
   id="svg2">
  <metadata
     id="metadata59">
    <rdf:RDF>
      <cc:Work
         rdf:about="">
        <dc:format>image/svg+xml</dc:format>
        <dc:type
           rdf:resource="http://purl.org/dc/dcmitype/StillImage" />
      </cc:Work>
    </rdf:RDF>
  </metadata>
  <defs
     id="defs4">
    <filter
       color-interpolation-filters="sRGB"
       id="7">
      <feGaussianBlur
         id="feGaussianBlur7"
         stdDeviation="3.7725" />
    </filter>
    <linearGradient
       y1="19.563999"
       x2="0"
       y2="504.01999"
       id="8"
       gradientUnits="userSpaceOnUse">
      <stop
         id="stop10"
         style="stop-color:#f3f3f3;stop-opacity:1"
         offset="0" />
      <stop
         id="stop12"
         style="stop-color:#eeeeee;stop-opacity:1"
         offset="0.5" />
      <stop
         id="stop14"
         style="stop-color:#ebebeb;stop-opacity:1"
         offset="1" />
    </linearGradient>
    <linearGradient
       x1="257"
       x2="362"
       id="5"
       xlink:href="#0"
       gradientUnits="userSpaceOnUse"
       gradientTransform="matrix(1.02835,0,0,1.46193,209.19,-118.25)" />
    <linearGradient
       x1="257"
       x2="362"
       id="6"
       xlink:href="#0"
       gradientUnits="userSpaceOnUse"
       gradientTransform="matrix(1.0381,0,0,1.46193,-337.29,-118.25)" />
    <linearGradient
       x1="257"
       x2="362"
       id="4"
       xlink:href="#0"
       gradientUnits="userSpaceOnUse"
       gradientTransform="matrix(1.02835,0,0,1.46193,101.22,-118.25)" />
    <linearGradient
       x1="257"
       x2="362"
       id="3"
       xlink:href="#0"
       gradientUnits="userSpaceOnUse"
       gradientTransform="matrix(1.0381,0,0,1.46193,-10.289,-118.25)" />
    <linearGradient
       id="0">
      <stop
         id="stop21"
         style="stop-color:#000000;stop-opacity:1"
         offset="0" />
      <stop
         id="stop23"
         style="stop-color:#ffffff;stop-opacity:1"
         offset="1" />
    </linearGradient>
    <linearGradient
       x1="257"
       x2="362"
       id="2"
       xlink:href="#0"
       gradientUnits="userSpaceOnUse"
       gradientTransform="matrix(1.0381,0,0,1.46193,-119.29,-118.25)" />
    <linearGradient
       x1="257"
       x2="362"
       id="1"
       xlink:href="#0"
       gradientUnits="userSpaceOnUse"
       gradientTransform="matrix(1.0381,0,0,1.46193,-228.29,-118.25)" />
  </defs>
  <path
     d="m 78.66,6 c -0.929,0 -1.861,0.028 -2.781,0.063 -0.073,0.003 -0.146,-0.003 -0.219,0 -0.668,0.027 -1.337,0.08 -2,0.125 -0.376,0.025 -0.751,0.063 -1.125,0.094 -0.645,0.053 -1.297,0.086 -1.938,0.156 -0.965,0.106 -1.922,0.232 -2.875,0.375 -0.052,0.008 -0.104,0.023 -0.156,0.031 -1.082,0.165 -2.154,0.351 -3.219,0.563 -0.459,0.091 -0.919,0.182 -1.375,0.281 -0.39,0.085 -0.769,0.19 -1.156,0.281 -0.647,0.152 -1.297,0.299 -1.938,0.469 -0.898,0.238 -1.804,0.479 -2.688,0.75 -0.211,0.065 -0.414,0.152 -0.625,0.219 -0.991,0.314 -1.966,0.645 -2.938,1 -0.817,0.298 -1.635,0.611 -2.438,0.938 -0.29,0.118 -0.587,0.222 -0.875,0.344 -0.136,0.057 -0.27,0.129 -0.406,0.188 -0.082,0.035 -0.169,0.058 -0.25,0.094 -0.717,0.311 -1.42,0.636 -2.125,0.969 -0.147,0.069 -0.291,0.148 -0.438,0.219 -0.947,0.455 -1.889,0.943 -2.813,1.438 -0.271,0.145 -0.544,0.289 -0.813,0.438 -0.414,0.228 -0.81,0.483 -1.219,0.719 -0.52,0.3 -1.051,0.594 -1.563,0.906 -0.738,0.452 -1.467,0.898 -2.188,1.375 -0.031,0.021 -0.062,0.042 -0.094,0.063 -0.456,0.303 -0.895,0.625 -1.344,0.938 -0.123,0.086 -0.252,0.163 -0.375,0.25 -0.524,0.37 -1.049,0.742 -1.563,1.125 -1.835,1.371 -3.618,2.84 -5.313,4.375 -0.017,0.015 -0.046,0.016 -0.063,0.031 -0.526,0.477 -1.02,0.977 -1.531,1.469 -0.524,0.505 -1.054,1.011 -1.563,1.531 -0.512,0.523 -1,1.055 -1.5,1.594 -0.941,1.022 -1.837,2.05 -2.719,3.125 -0.631,0.769 -1.244,1.58 -1.844,2.375 -0.111,0.148 -0.233,0.289 -0.344,0.438 -0.526,0.71 -1.031,1.427 -1.531,2.156 -0.11,0.16 -0.235,0.308 -0.344,0.469 -0.013,0.019 -0.018,0.043 -0.031,0.063 -0.084,0.125 -0.167,0.249 -0.25,0.375 -0.47,0.708 -0.929,1.431 -1.375,2.156 -0.071,0.116 -0.148,0.227 -0.219,0.344 -0.575,0.948 -1.124,1.899 -1.656,2.875 -0.152,0.278 -0.289,0.564 -0.438,0.844 -0.18,0.341 -0.356,0.687 -0.531,1.031 -0.243,0.479 -0.486,0.952 -0.719,1.438 -0.426,0.885 -0.828,1.783 -1.219,2.688 -0.24,0.556 -0.461,1.124 -0.688,1.688 -0.038,0.095 -0.087,0.186 -0.125,0.281 -0.246,0.621 -0.489,1.245 -0.719,1.875 -0.332,0.909 -0.641,1.825 -0.938,2.75 -0.11,0.345 -0.238,0.684 -0.344,1.031 -0.301,0.99 -0.585,1.992 -0.844,3 -0.008,0.032 -0.023,0.062 -0.031,0.094 -0.267,1.046 -0.497,2.092 -0.719,3.156 -0.034,0.166 -0.06,0.334 -0.094,0.5 -0.426,2.117 -0.762,4.257 -1,6.438 -0.035,0.323 -0.063,0.645 -0.094,0.969 -0.09,0.938 -0.165,1.895 -0.219,2.844 -0.017,0.29 -0.018,0.584 -0.031,0.875 -0.051,1.119 -0.094,2.243 -0.094,3.375 v 354.69 6 c 0,40.24 32.411,72.66 72.66,72.66 h 354.69 c 40.24,0 72.66,-32.411 72.66,-72.66 v -354.69 -6 c 0,-1.259 -0.031,-2.507 -0.094,-3.75 -0.016,-0.323 -0.042,-0.647 -0.063,-0.969 -0.058,-0.917 -0.127,-1.843 -0.219,-2.75 -0.02,-0.2 -0.041,-0.394 -0.063,-0.594 -0.246,-2.245 -0.587,-4.447 -1.031,-6.625 -0.021,-0.104 -0.041,-0.209 -0.063,-0.313 -0.227,-1.087 -0.476,-2.15 -0.75,-3.219 -0.011,-0.042 -0.02,-0.083 -0.031,-0.125 -0.19,-0.732 -0.413,-1.464 -0.625,-2.188 -0.212,-0.724 -0.423,-1.442 -0.656,-2.156 -0.258,-0.789 -0.529,-1.567 -0.813,-2.344 -0.23,-0.63 -0.472,-1.254 -0.719,-1.875 -0.038,-0.096 -0.087,-0.186 -0.125,-0.281 -0.239,-0.594 -0.465,-1.195 -0.719,-1.781 -0.378,-0.871 -0.777,-1.741 -1.188,-2.594 -0.233,-0.485 -0.475,-0.958 -0.719,-1.438 -0.287,-0.564 -0.574,-1.132 -0.875,-1.688 -0.051,-0.094 -0.105,-0.188 -0.156,-0.281 -0.513,-0.936 -1.041,-1.871 -1.594,-2.781 -0.212,-0.35 -0.438,-0.685 -0.656,-1.031 -0.405,-0.642 -0.795,-1.278 -1.219,-1.906 -0.809,-1.199 -1.685,-2.354 -2.563,-3.5 -0.262,-0.341 -0.514,-0.695 -0.781,-1.031 -0.189,-0.238 -0.371,-0.483 -0.563,-0.719 -0.093,-0.114 -0.188,-0.231 -0.281,-0.344 -2.71,-3.286 -5.696,-6.301 -8.938,-9.06 -0.293,-0.249 -0.578,-0.505 -0.875,-0.75 -0.268,-0.221 -0.541,-0.439 -0.813,-0.656 -0.636,-0.509 -1.284,-1.012 -1.938,-1.5 -3.17,-2.368 -6.55,-4.481 -10.09,-6.313 -0.617,-0.319 -1.248,-0.636 -1.875,-0.938 -0.155,-0.074 -0.313,-0.145 -0.469,-0.219 -0.785,-0.371 -1.575,-0.719 -2.375,-1.063 -0.488,-0.209 -0.975,-0.426 -1.469,-0.625 -0.735,-0.296 -1.472,-0.571 -2.219,-0.844 -0.392,-0.143 -0.793,-0.27 -1.188,-0.406 -0.718,-0.248 -1.459,-0.524 -2.188,-0.75 -0.114,-0.035 -0.23,-0.059 -0.344,-0.094 -0.488,-0.149 -0.977,-0.267 -1.469,-0.406 -0.357,-0.1 -0.703,-0.217 -1.063,-0.313 -0.019,-0.005 -0.043,0.005 -0.063,0 -0.837,-0.221 -1.683,-0.433 -2.531,-0.625 -0.032,-0.007 -0.062,-0.024 -0.094,-0.031 -0.651,-0.146 -1.311,-0.278 -1.969,-0.406 -1,-0.197 -2.01,-0.376 -3.03,-0.531 -0.063,-0.01 -0.125,-0.022 -0.188,-0.031 -0.952,-0.143 -1.88,-0.269 -2.844,-0.375 -0.836,-0.091 -1.687,-0.156 -2.531,-0.219 -0.176,-0.013 -0.355,-0.019 -0.531,-0.031 -0.735,-0.049 -1.478,-0.097 -2.219,-0.125 -0.92,-0.034 -1.853,-0.063 -2.781,-0.063 H 147.503 78.659"
     inkscape:connector-curvature="0"
     id="path27"
     style="fill-opacity:0.17600002;filter:url(#7)" />
  <rect
     width="500"
     height="500"
     rx="72.639999"
     x="6"
     y="12"
     id="rect29"
     style="opacity:0.15" />
  <rect
     width="500"
     height="500"
     rx="72.639999"
     x="6"
     y="6"
     id="rect31"
     style="fill:url(#8)" />
  <rect
     width="435"
     height="435"
     rx="63.200001"
     x="38.5"
     y="38.5"
     id="rect33"
     style="fill:#b3d078" />
  <path
     d="M 101.69,38.5 C 66.68,38.5 38.5,66.67 38.5,101.69 v 15 C 38.5,81.68 66.67,53.5 101.69,53.5 h 308.63 c 35.01,0 63.19,28.17 63.19,63.19 v -15 C 473.51,66.68 445.34,38.5 410.32,38.5 H 101.7"
     inkscape:connector-curvature="0"
     id="path35"
     style="opacity:0.2" />
  <path
     d="M 78.66,6 C 38.42,6 6,38.411 6,78.66 v 7 C 6,45.42 38.411,13 78.66,13 h 354.69 c 40.24,0 72.66,32.411 72.66,72.66 v -7 C 506.01,38.42 473.599,6 433.35,6 H 78.66"
     inkscape:connector-curvature="0"
     id="path37"
     style="fill:#ffffff" />
  <g
     transform="matrix(1.4961,0,0,1.4961,796.28,327.25)"
     id="g39">
    <path
       d="m -285.66,-149.59 c -2.639,0.075 -5.977,4.115 -14.03,15.656 l -10.5,15.09 -5.188,-1.75 c -11.676,-3.969 -21.393,-5.376 -37.781,-5.406 -25.318,-0.046 -28.905,1.737 -16.406,8.03 21.958,11.06 58.58,23 85.41,27.844 10.716,1.934 15.5,1.993 15.5,0.219 0,-3.095 -17.489,-17.282 -27.75,-22.5 -5.03,-2.556 -5.583,-0.974 6.188,-18.06 8.545,-12.405 9.863,-15.728 7.125,-18 -0.875,-0.726 -1.683,-1.15 -2.563,-1.125 m -136.06,0.563 c -3.135,0 -3.467,0.292 -3.75,3.219 -0.258,2.667 1.313,5.527 9.219,16.969 l 9.5,13.75 -6.531,3.813 c -19.483,11.303 -35.21,28.677 -42.75,47.28 -2.982,7.353 -6.144,21.69 -5.281,23.938 0.578,1.506 3.342,1.588 30.406,1.125 40.922,-0.817 84.54,-1.49 121.75,-0.563 1.1,0.054 15.556,0.325 32.13,0.594 27.09,0.44 30.19,0.326 30.75,-1.125 1.794,-4.676 -5.067,-25.669 -12.313,-37.656 -4.35,-7.196 -4.075,-7.091 -21.25,-8.344 l -9.656,-0.688 -1.063,3.875 c -1.619,6.01 -6.388,12.779 -10.344,14.656 -4.716,2.238 -7.451,2.094 -12.781,-0.594 -6.376,-3.215 -9.117,-8.615 -9.875,-19.5 l -0.594,-8.438 -10,-3.281 c -13.407,-4.381 -25.533,-9.453 -39.875,-16.656 l -11.875,-5.969 -5.75,1.969 -5.75,1.938 -10.438,-15.16 c -10.03,-14.56 -10.573,-15.16 -13.875,-15.16 m 23.531,55.5 c 9.164,0 15.12,9.731 11.125,18.16 -2.42,5.1 -9.629,8.523 -15.03,7.125 -5.695,-1.474 -9.563,-6.628 -9.563,-12.781 0,-7.79 5.078,-12.5 13.469,-12.5 m -40.03,56.09 c -0.947,-0.004 -1.931,0.026 -3,0.094 -5.07,0.323 -7.263,1.024 -10.656,3.406 -11.56,8.116 -12.936,24.533 -2.906,34.563 5.705,5.705 10.837,7.328 20.19,6.406 12.801,0.899 19.03,1.996 31.25,8.438 -9.514,5.762 -22.939,8.98 -31.875,9 -9.749,0 -12.724,0.819 -18.25,4.906 -6.395,4.73 -9.57,15.282 -7.219,24 1.481,5.492 8.094,12.649 13.531,14.656 8.57,3.164 19.547,0.265 26.5,-7.03 1.925,-2.02 4.85,-4.382 6.5,-5.25 18.282,-10.555 42.19,-21.07 60.813,-20.531 19.286,0 54.977,14.59 66.69,25.719 5.526,5.336 9.693,7.496 15.813,8.219 7.284,0.86 12.993,-1.18 18.344,-6.531 7.286,-7.286 8.782,-17.471 3.969,-26.906 -4.04,-7.915 -10.958,-11.25 -23.438,-11.25 -14.877,-0.836 -19.965,-3.708 -34.22,-8.625 10.799,-3.393 24.331,-9.718 33.594,-8.813 9.202,0.938 14.395,-0.707 20.09,-6.406 10.03,-10.03 8.653,-26.447 -2.906,-34.563 -3.394,-2.383 -5.586,-3.083 -10.656,-3.406 -8.569,-0.546 -12.745,1.06 -19.75,7.5 -3.237,2.976 -7.13,5.873 -8.625,6.469 -19.516,11.267 -38.445,18.619 -57.34,19.781 -20.232,-2.639 -58.25,-15.786 -69.75,-26.344 -6.06,-5.576 -10.06,-7.475 -16.688,-7.5"
       inkscape:connector-curvature="0"
       id="path41"
       style="opacity:0.2" />
    <path
       d="m -300.66,-164.59 c -2.639,0.075 -5.977,4.115 -14.03,15.656 l -10.5,15.09 -5.188,-1.75 c -11.676,-3.969 -21.393,-5.376 -37.781,-5.406 -25.318,-0.046 -28.905,1.737 -16.406,8.03 21.958,11.06 58.58,23 85.41,27.844 10.716,1.934 15.5,1.993 15.5,0.219 0,-3.095 -17.489,-17.282 -27.75,-22.5 -5.03,-2.556 -5.583,-0.974 6.188,-18.06 8.545,-12.405 9.863,-15.728 7.125,-18 -0.875,-0.726 -1.683,-1.15 -2.563,-1.125 m -136.06,0.563 c -3.135,0 -3.467,0.292 -3.75,3.219 -0.258,2.667 1.313,5.527 9.219,16.969 l 9.5,13.75 -6.531,3.813 c -19.483,11.303 -35.21,28.677 -42.75,47.28 -2.982,7.353 -6.144,21.69 -5.281,23.938 0.578,1.506 3.342,1.588 30.406,1.125 40.922,-0.817 84.54,-1.49 121.75,-0.563 1.1,0.054 15.556,0.325 32.13,0.594 27.09,0.44 30.19,0.326 30.75,-1.125 1.794,-4.676 -5.067,-25.669 -12.313,-37.656 -4.35,-7.196 -4.075,-7.091 -21.25,-8.344 l -9.656,-0.688 -1.063,3.875 c -1.619,6.01 -6.388,12.779 -10.344,14.656 -4.716,2.238 -7.451,2.094 -12.781,-0.594 -6.376,-3.215 -9.117,-8.615 -9.875,-19.5 l -0.594,-8.438 -10,-3.281 c -13.407,-4.381 -25.533,-9.453 -39.875,-16.656 l -11.875,-5.969 -5.75,1.969 -5.75,1.938 -10.438,-15.16 c -10.03,-14.56 -10.573,-15.16 -13.875,-15.16 m 23.531,55.5 c 9.164,0 15.12,9.731 11.125,18.16 -2.42,5.1 -9.629,8.523 -15.03,7.125 -5.695,-1.474 -9.563,-6.628 -9.563,-12.781 0,-7.79 5.078,-12.5 13.469,-12.5 m -40.03,56.09 c -0.947,-0.004 -1.931,0.026 -3,0.094 -5.07,0.323 -7.263,1.024 -10.656,3.406 -11.56,8.116 -12.936,24.533 -2.906,34.563 5.705,5.705 10.837,7.328 20.19,6.406 12.801,0.899 19.03,1.996 31.25,8.438 -9.514,5.762 -22.939,8.98 -31.875,9 -9.749,0 -12.724,0.819 -18.25,4.906 -6.395,4.73 -9.57,15.282 -7.219,24 1.481,5.492 8.094,12.649 13.531,14.656 8.57,3.164 19.547,0.265 26.5,-7.03 1.925,-2.02 4.85,-4.382 6.5,-5.25 18.282,-10.555 42.19,-21.07 60.813,-20.531 19.286,0 54.977,14.59 66.69,25.719 5.526,5.336 9.693,7.496 15.813,8.219 7.284,0.86 12.993,-1.18 18.344,-6.531 7.286,-7.286 8.782,-17.471 3.969,-26.906 -4.04,-7.915 -10.958,-11.25 -23.438,-11.25 -14.877,-0.836 -19.965,-3.708 -34.22,-8.625 10.799,-3.393 24.331,-9.718 33.594,-8.813 9.202,0.938 14.395,-0.707 20.09,-6.406 10.03,-10.03 8.653,-26.447 -2.906,-34.563 -3.394,-2.383 -5.586,-3.083 -10.656,-3.406 -8.569,-0.546 -12.745,1.06 -19.75,7.5 -3.237,2.976 -7.13,5.873 -8.625,6.469 -19.516,11.267 -38.445,18.619 -57.34,19.781 -20.232,-2.639 -58.25,-15.786 -69.75,-26.344 -6.06,-5.576 -10.06,-7.475 -16.688,-7.5"
       inkscape:connector-curvature="0"
       id="path43"
       style="fill:#dcdbdb" />
  </g>
  <path
     d="M 78.66,6 C 63.797,6 49.99,10.43 38.5,18.03 V 493.97 C 49.986,501.572 63.793,506 78.66,506 h 68.844 V 6 H 78.66"
     inkscape:connector-curvature="0"
     id="path45"
     style="opacity:0.05;fill:url(#1)" />
  <path
     d="m 147.5,6 v 500 h 109 V 6 h -109"
     inkscape:connector-curvature="0"
     id="path47"
     style="opacity:0.05;fill:url(#2)" />
  <path
     d="m 256.5,6 v 500 h 109 V 6 h -109"
     inkscape:connector-curvature="0"
     id="path49"
     style="opacity:0.05;fill:url(#3)" />
  <path
     d="m 365.5,6 v 500 h 67.844 c 14.854,0 28.643,-4.438 40.13,-12.03 V 18.03 C 461.992,10.437 448.204,6 433.354,6 H 365.51"
     inkscape:connector-curvature="0"
     id="path51"
     style="opacity:0.05;fill:url(#4)" />
  <path
     d="M 38.5,18.03 C 18.886,31.011 6,53.27 6,78.66 v 354.69 c 0,25.381 12.886,47.644 32.5,60.63 V 18.04"
     inkscape:connector-curvature="0"
     id="path53"
     style="opacity:0.05;fill:url(#6)" />
  <path
     d="m 473.47,18.03 v 475.94 c 19.627,-12.979 32.531,-35.23 32.531,-60.62 V 78.66 c 0,-25.391 -12.905,-47.646 -32.531,-60.62"
     inkscape:connector-curvature="0"
     id="path55"
     style="opacity:0.05;fill:url(#5)" />
</svg>
