<svg xmlns="http://www.w3.org/2000/svg" xmlns:xlink="http://www.w3.org/1999/xlink" viewBox="0 0 512 512"><defs><filter id="7"><feGaussianBlur stdDeviation="3.7725"/></filter><linearGradient id="8" y1="19.564" x2="0" y2="504.02" gradientUnits="userSpaceOnUse"><stop stop-color="#f3f3f3"/><stop offset=".5" stop-color="#eee"/><stop offset="1" stop-color="#ebebeb"/></linearGradient><linearGradient xlink:href="#0" id="5" gradientUnits="userSpaceOnUse" gradientTransform="matrix(1.02835 0 0 1.46193 209.19-118.25)" x1="257" x2="362"/><linearGradient xlink:href="#0" id="6" gradientUnits="userSpaceOnUse" gradientTransform="matrix(1.0381 0 0 1.46193-337.29-118.25)" x1="257" x2="362"/><linearGradient xlink:href="#0" id="4" gradientUnits="userSpaceOnUse" gradientTransform="matrix(1.02835 0 0 1.46193 101.22-118.25)" x1="257" x2="362"/><linearGradient xlink:href="#0" id="3" gradientUnits="userSpaceOnUse" gradientTransform="matrix(1.0381 0 0 1.46193-10.289-118.25)" x1="257" x2="362"/><linearGradient id="0"><stop/><stop offset="1" stop-color="#fff"/></linearGradient><linearGradient xlink:href="#0" id="2" gradientUnits="userSpaceOnUse" gradientTransform="matrix(1.0381 0 0 1.46193-119.29-118.25)" x1="257" x2="362"/><linearGradient xlink:href="#0" id="1" gradientUnits="userSpaceOnUse" gradientTransform="matrix(1.0381 0 0 1.46193-228.29-118.25)" x1="257" x2="362"/></defs><path d="m78.66 6c-.929 0-1.861.028-2.781.063-.073.003-.146-.003-.219 0-.668.027-1.337.08-2 .125-.376.025-.751.063-1.125.094-.645.053-1.297.086-1.938.156-.965.106-1.922.232-2.875.375-.052.008-.104.023-.156.031-1.082.165-2.154.351-3.219.563-.459.091-.919.182-1.375.281-.39.085-.769.19-1.156.281-.647.152-1.297.299-1.938.469-.898.238-1.804.479-2.688.75-.211.065-.414.152-.625.219-.991.314-1.966.645-2.938 1-.817.298-1.635.611-2.438.938-.29.118-.587.222-.875.344-.136.057-.27.129-.406.188-.082.035-.169.058-.25.094-.717.311-1.42.636-2.125.969-.147.069-.291.148-.438.219-.947.455-1.889.943-2.813 1.438-.271.145-.544.289-.813.438-.414.228-.81.483-1.219.719-.52.3-1.051.594-1.563.906-.738.452-1.467.898-2.188 1.375-.031.021-.062.042-.094.063-.456.303-.895.625-1.344.938-.123.086-.252.163-.375.25-.524.37-1.049.742-1.563 1.125-1.835 1.371-3.618 2.84-5.313 4.375-.017.015-.046.016-.063.031-.526.477-1.02.977-1.531 1.469-.524.505-1.054 1.011-1.563 1.531-.512.523-1 1.055-1.5 1.594-.941 1.022-1.837 2.05-2.719 3.125-.631.769-1.244 1.58-1.844 2.375-.111.148-.233.289-.344.438-.526.71-1.031 1.427-1.531 2.156-.11.16-.235.308-.344.469-.013.019-.018.043-.031.063-.084.125-.167.249-.25.375-.47.708-.929 1.431-1.375 2.156-.071.116-.148.227-.219.344-.575.948-1.124 1.899-1.656 2.875-.152.278-.289.564-.438.844-.18.341-.356.687-.531 1.031-.243.479-.486.952-.719 1.438-.426.885-.828 1.783-1.219 2.688-.24.556-.461 1.124-.688 1.688-.038.095-.087.186-.125.281-.246.621-.489 1.245-.719 1.875-.332.909-.641 1.825-.938 2.75-.11.345-.238.684-.344 1.031-.301.99-.585 1.992-.844 3-.008.032-.023.062-.031.094-.267 1.046-.497 2.092-.719 3.156-.034.166-.06.334-.094.5-.426 2.117-.762 4.257-1 6.438-.035.323-.063.645-.094.969-.09.938-.165 1.895-.219 2.844-.017.29-.018.584-.031.875-.051 1.119-.094 2.243-.094 3.375v354.69 6c0 40.24 32.411 72.66 72.66 72.66h354.69c40.24 0 72.66-32.411 72.66-72.66v-354.69-6c0-1.259-.031-2.507-.094-3.75-.016-.323-.042-.647-.063-.969-.058-.917-.127-1.843-.219-2.75-.02-.2-.041-.394-.063-.594-.246-2.245-.587-4.447-1.031-6.625-.021-.104-.041-.209-.063-.313-.227-1.087-.476-2.15-.75-3.219-.011-.042-.02-.083-.031-.125-.19-.732-.413-1.464-.625-2.188-.212-.724-.423-1.442-.656-2.156-.258-.789-.529-1.567-.813-2.344-.23-.63-.472-1.254-.719-1.875-.038-.096-.087-.186-.125-.281-.239-.594-.465-1.195-.719-1.781-.378-.871-.777-1.741-1.188-2.594-.233-.485-.475-.958-.719-1.438-.287-.564-.574-1.132-.875-1.688-.051-.094-.105-.188-.156-.281-.513-.936-1.041-1.871-1.594-2.781-.212-.35-.438-.685-.656-1.031-.405-.642-.795-1.278-1.219-1.906-.809-1.199-1.685-2.354-2.563-3.5-.262-.341-.514-.695-.781-1.031-.189-.238-.371-.483-.563-.719-.093-.114-.188-.231-.281-.344-2.71-3.286-5.696-6.301-8.938-9.06-.293-.249-.578-.505-.875-.75-.268-.221-.541-.439-.813-.656-.636-.509-1.284-1.012-1.938-1.5-3.17-2.368-6.55-4.481-10.09-6.313-.617-.319-1.248-.636-1.875-.938-.155-.074-.313-.145-.469-.219-.785-.371-1.575-.719-2.375-1.063-.488-.209-.975-.426-1.469-.625-.735-.296-1.472-.571-2.219-.844-.392-.143-.793-.27-1.188-.406-.718-.248-1.459-.524-2.188-.75-.114-.035-.23-.059-.344-.094-.488-.149-.977-.267-1.469-.406-.357-.1-.703-.217-1.063-.313-.019-.005-.043.005-.063 0-.837-.221-1.683-.433-2.531-.625-.032-.007-.062-.024-.094-.031-.651-.146-1.311-.278-1.969-.406-1-.197-2.01-.376-3.03-.531-.063-.01-.125-.022-.188-.031-.952-.143-1.88-.269-2.844-.375-.836-.091-1.687-.156-2.531-.219-.176-.013-.355-.019-.531-.031-.735-.049-1.478-.097-2.219-.125-.92-.034-1.853-.063-2.781-.063h-285.84-68.844" filter="url(#7)" fill-opacity=".176"/><rect width="500" height="500" x="6" y="12" rx="72.64" opacity=".15"/><rect rx="72.64" y="6" x="6" height="500" width="500" fill="url(#8)"/><rect width="435" height="435" x="38.5" y="38.5" rx="63.2" fill="#208a9c"/><path d="m101.69 38.5c-35.01 0-63.19 28.17-63.19 63.19v15c0-35.01 28.17-63.19 63.19-63.19h308.63c35.01 0 63.19 28.17 63.19 63.19v-15c0-35.01-28.17-63.19-63.19-63.19h-308.62" opacity=".2"/><path d="m78.66 6c-40.24 0-72.66 32.411-72.66 72.66v7c0-40.24 32.411-72.66 72.66-72.66h354.69c40.24 0 72.66 32.411 72.66 72.66v-7c0-40.24-32.411-72.66-72.66-72.66h-354.69" fill="#fff"/><g transform="translate(1089.24 364.39)"><path d="m-815.99-223.77c-18.746.128-38.522 1.288-52.19 3.477-29.21 4.677-30.35 5.804-6.02 5.928 47.22.241 93.14 8.647 125.03 22.955 10.452 4.689 10.436 4.58 4.948 17.383l-2.719 6.374-11.188-5.527c-56.25-27.592-134.09-38.1-192.29-25.986-5.447 1.133-10.1 2.254-10.341 2.496-.242.242 11.02 1.213 25.01 2.139 53.761 3.564 102.5 14.273 139.47 30.666 17.617 7.812 36.19 18.599 36.19 21.04 0 1.558-10.08 16.938-11.1 16.938-.399 0-5.897-3.303-12.213-7.354-36.601-23.479-94.9-41.84-154.98-48.851-21.935-2.56-56.721-4.124-54.78-2.451.712.614 6.427 2.228 12.703 3.61 63.3 13.941 135.01 45.601 175.79 77.6l8.914 6.998-9.628 8.157c-34.811 29.474-88.65 53.841-147.98 66.992-12.552 2.782-26.486 5.497-30.978 6.02-4.882.566-7.792 1.51-7.265 2.362.565.915 10.646 1.164 28.13.669 65.03-1.845 130.44-21.516 177.26-53.26l13.951-9.449 7.533 8.112c4.148 4.456 7.208 8.66 6.775 9.36-1.807 2.924-25.509 17.35-39.31 23.935-20.18 9.626-38.613 16.32-61.38 22.286-20.881 5.473-53.56 11.531-70.42 13.06-5.905.535-10.742 1.469-10.742 2.05 0 1.454 19.288 4.306 35.658 5.26 7.453.434 20.61.027 29.24-.891 44.943-4.785 85.43-17.843 119.94-38.689 6.74-4.071 12.739-6.831 13.372-6.151.633.68 3.212 4.887 5.705 9.36l4.546 8.112-10.43 5.393c-30.405 15.625-62.844 24.663-108.18 30.22l-20.682 2.541 9.984 1.07c5.491.577 10.947 1.301 12.12 1.605 1.177.304 16.26.286 33.519 0 25.08-.415 34.18-1.124 45.29-3.521 47.47-10.242 82.5-34.524 99.89-69.27 1.963-3.922 5.345-12.587 7.533-19.255 3.561-10.855 3.987-14.214 4.056-32.09.061-15.645-.494-21.976-2.63-29.24-14.163-48.18-48.659-76.39-109.2-89.37-9.473-2.031-27.16-2.936-45.91-2.808m92.44 46.534c1.615 0 14.02 9.689 18.899 14.753l4.814 5.04-1.783 9.717c-.985 5.351-2.186 10.483-2.674 11.411-.565 1.073-3.489-.896-8.02-5.438-3.921-3.927-8.255-7.759-9.628-8.513-2.09-1.148-2.496-3.47-2.496-14.174 0-7.03.408-12.792.891-12.792m40.34 41.23c.383.023.971.731 1.872 1.917 2.892 3.804 10.902 22.491 11.99 27.947.632 3.171-7.102 28.749-8.692 28.749-.229 0-.875-3.01-1.426-6.686-.552-3.678-2.514-10.899-4.368-16.05-2.728-7.573-3.124-10.449-2.095-15.07.699-3.138 1.454-9.394 1.694-13.907.268-5.05.387-6.948 1.025-6.909m-49.921 15.11c.639 0 4.432 3.835 8.424 8.513l7.265 8.513-3.12 5.572c-1.721 3.065-5.084 7.788-7.444 10.519l-4.279 4.992-3.209-5.482c-1.769-3.02-4.761-7.453-6.641-9.806l-3.432-4.279 5.661-9.271c3.1-5.099 6.136-9.271 6.775-9.271m31.07 43.28l3.789 11.5c2.087 6.313 3.789 12.297 3.789 13.327 0 1.678-12.687 14.779-21.04 21.707l-3.209 2.63-.089-7.711c-.045-4.24-.565-10.278-1.159-13.416-1.01-5.328-.667-6.13 4.769-12.12 3.202-3.53 7.475-8.529 9.494-11.143l3.655-4.769" opacity=".2"/><path d="m-830.99-238.77c-18.746.128-38.522 1.288-52.19 3.477-29.21 4.677-30.35 5.804-6.02 5.928 47.22.241 93.14 8.647 125.03 22.955 10.452 4.689 10.436 4.58 4.948 17.383l-2.719 6.374-11.188-5.527c-56.25-27.592-134.09-38.1-192.29-25.986-5.447 1.133-10.1 2.254-10.341 2.496-.242.242 11.02 1.213 25.01 2.139 53.761 3.564 102.5 14.273 139.47 30.666 17.617 7.812 36.19 18.599 36.19 21.04 0 1.558-10.08 16.938-11.1 16.938-.399 0-5.897-3.303-12.213-7.354-36.601-23.479-94.9-41.84-154.98-48.851-21.935-2.56-56.721-4.124-54.78-2.451.712.614 6.427 2.228 12.703 3.61 63.3 13.941 135.01 45.601 175.79 77.6l8.914 6.998-9.628 8.157c-34.811 29.474-88.65 53.841-147.98 66.992-12.552 2.782-26.486 5.497-30.978 6.02-4.882.566-7.792 1.51-7.265 2.362.565.915 10.646 1.164 28.13.669 65.03-1.845 130.44-21.516 177.26-53.26l13.951-9.449 7.533 8.112c4.148 4.456 7.208 8.66 6.775 9.36-1.807 2.924-25.509 17.35-39.31 23.935-20.18 9.626-38.613 16.32-61.38 22.286-20.881 5.473-53.56 11.531-70.42 13.06-5.905.535-10.742 1.469-10.742 2.05 0 1.454 19.288 4.306 35.658 5.26 7.453.434 20.61.027 29.24-.891 44.943-4.785 85.43-17.843 119.94-38.689 6.74-4.071 12.739-6.831 13.372-6.151.633.68 3.212 4.887 5.705 9.36l4.546 8.112-10.43 5.393c-30.405 15.625-62.844 24.663-108.18 30.22l-20.682 2.541 9.984 1.07c5.491.577 10.947 1.301 12.12 1.605 1.177.304 16.26.286 33.519 0 25.08-.415 34.18-1.124 45.29-3.521 47.47-10.242 82.5-34.524 99.89-69.27 1.963-3.922 5.345-12.587 7.533-19.255 3.561-10.855 3.987-14.214 4.056-32.09.061-15.645-.494-21.976-2.63-29.24-14.163-48.18-48.659-76.39-109.2-89.37-9.473-2.031-27.16-2.936-45.91-2.808m92.44 46.534c1.615 0 14.02 9.689 18.899 14.753l4.814 5.04-1.783 9.717c-.985 5.351-2.186 10.483-2.674 11.411-.565 1.073-3.489-.896-8.02-5.438-3.921-3.927-8.255-7.759-9.628-8.513-2.09-1.148-2.496-3.47-2.496-14.174 0-7.03.408-12.792.891-12.792m40.34 41.23c.383.023.971.731 1.872 1.917 2.892 3.804 10.902 22.491 11.99 27.947.632 3.171-7.102 28.749-8.692 28.749-.229 0-.875-3.01-1.426-6.686-.552-3.678-2.514-10.899-4.368-16.05-2.728-7.573-3.124-10.449-2.095-15.07.699-3.138 1.454-9.394 1.694-13.907.268-5.05.387-6.948 1.025-6.909m-49.921 15.11c.639 0 4.432 3.835 8.424 8.513l7.265 8.513-3.12 5.572c-1.721 3.065-5.084 7.788-7.444 10.519l-4.279 4.992-3.209-5.482c-1.769-3.02-4.761-7.453-6.641-9.806l-3.432-4.279 5.661-9.271c3.1-5.099 6.136-9.271 6.775-9.271m31.07 43.28l3.789 11.5c2.087 6.313 3.789 12.297 3.789 13.327 0 1.678-12.687 14.779-21.04 21.707l-3.209 2.63-.089-7.711c-.045-4.24-.565-10.278-1.159-13.416-1.01-5.328-.667-6.13 4.769-12.12 3.202-3.53 7.475-8.529 9.494-11.143l3.655-4.769" fill="#dcdbdb"/></g><path d="m78.66 6c-14.863 0-28.67 4.43-40.16 12.03v475.94c11.486 7.602 25.293 12.03 40.16 12.03h68.844v-500h-68.844" opacity=".05" fill="url(#1)"/><path d="m147.5 6v500h109v-500h-109" opacity=".05" fill="url(#2)"/><path d="m256.5 6v500h109v-500h-109" opacity=".05" fill="url(#3)"/><path d="m365.5 6v500h67.844c14.854 0 28.643-4.438 40.13-12.03v-475.94c-11.482-7.593-25.27-12.03-40.12-12.03h-67.844" opacity=".05" fill="url(#4)"/><path d="m38.5 18.03c-19.614 12.981-32.5 35.24-32.5 60.63v354.69c0 25.381 12.886 47.644 32.5 60.63v-475.94" opacity=".05" fill="url(#6)"/><path d="m473.47 18.03v475.94c19.627-12.979 32.531-35.23 32.531-60.62v-354.69c0-25.391-12.905-47.646-32.531-60.62" opacity=".05" fill="url(#5)"/></svg>