<?xml version="1.0" encoding="UTF-8" standalone="no"?>
<svg
   xmlns:dc="http://purl.org/dc/elements/1.1/"
   xmlns:cc="http://creativecommons.org/ns#"
   xmlns:rdf="http://www.w3.org/1999/02/22-rdf-syntax-ns#"
   xmlns:svg="http://www.w3.org/2000/svg"
   xmlns="http://www.w3.org/2000/svg"
   xmlns:xlink="http://www.w3.org/1999/xlink"
   xmlns:sodipodi="http://sodipodi.sourceforge.net/DTD/sodipodi-0.dtd"
   xmlns:inkscape="http://www.inkscape.org/namespaces/inkscape"
   viewBox="0 0 512 512"
   id="svg2"
   version="1.1"
   inkscape:version="0.48.4 r9939"
   width="100%"
   height="100%"
   sodipodi:docname="tras.svg">
  <metadata
     id="metadata72">
    <rdf:RDF>
      <cc:Work
         rdf:about="">
        <dc:format>image/svg+xml</dc:format>
        <dc:type
           rdf:resource="http://purl.org/dc/dcmitype/StillImage" />
      </cc:Work>
    </rdf:RDF>
  </metadata>
  <defs
     id="defs70">
    <linearGradient
       id="linearGradient4996">
      <stop
         id="stop4998"
         offset="0"
         style="stop-color:#000000;stop-opacity:1;" />
      <stop
         id="stop5000"
         offset="1"
         style="stop-color:#ffffff;stop-opacity:1;" />
    </linearGradient>
    <linearGradient
       inkscape:collect="always"
       xlink:href="#linearGradient4996"
       id="linearGradient3182"
       gradientUnits="userSpaceOnUse"
       gradientTransform="matrix(1,0,0,1.4619252,-315.03517,-121.25286)"
       x1="257"
       y1="256"
       x2="362"
       y2="256" />
    <linearGradient
       inkscape:collect="always"
       xlink:href="#linearGradient4996"
       id="linearGradient3185"
       gradientUnits="userSpaceOnUse"
       gradientTransform="matrix(1,0,0,1.4619252,105.001,-120.86596)"
       x1="257"
       y1="256"
       x2="362"
       y2="256" />
    <linearGradient
       inkscape:collect="always"
       xlink:href="#linearGradient4996"
       id="linearGradient3188"
       gradientUnits="userSpaceOnUse"
       gradientTransform="matrix(1,0,0,1.4619252,9.9807e-4,-121.25286)"
       x1="257"
       y1="256"
       x2="362"
       y2="256" />
    <linearGradient
       inkscape:collect="always"
       xlink:href="#linearGradient4996"
       id="linearGradient3191"
       gradientUnits="userSpaceOnUse"
       gradientTransform="matrix(1,0,0,1.4619252,-104.999,-121.25286)"
       x1="257"
       y1="256"
       x2="362"
       y2="256" />
    <linearGradient
       inkscape:collect="always"
       xlink:href="#linearGradient4996"
       id="linearGradient3194"
       gradientUnits="userSpaceOnUse"
       gradientTransform="matrix(1,0,0,1.4619252,-209.999,-121.25286)"
       x1="257"
       y1="256"
       x2="362"
       y2="256" />
    <linearGradient
       inkscape:collect="always"
       xlink:href="#linearGradient4996"
       id="linearGradient3197"
       gradientUnits="userSpaceOnUse"
       gradientTransform="matrix(1,0,0,1.4619252,210.00099,-120.86596)"
       x1="257"
       y1="256"
       x2="362"
       y2="256" />
    <linearGradient
       y2="256"
       x2="362"
       y1="256"
       x1="257"
       gradientTransform="matrix(1.0380952,0,0,1.4619252,-337.28943,-118.25286)"
       gradientUnits="userSpaceOnUse"
       id="linearGradient3153"
       xlink:href="#linearGradient4996-6"
       inkscape:collect="always" />
    <linearGradient
       y2="256"
       x2="362"
       y1="256"
       x1="257"
       gradientTransform="matrix(1.0283468,0,0,1.4619252,209.19233,-118.25286)"
       gradientUnits="userSpaceOnUse"
       id="linearGradient3149"
       xlink:href="#linearGradient4996-6"
       inkscape:collect="always" />
    <linearGradient
       y2="256"
       x2="362"
       y1="256"
       x1="257"
       gradientTransform="matrix(1.0283468,0,0,1.4619252,101.21591,-118.25286)"
       gradientUnits="userSpaceOnUse"
       id="linearGradient3145"
       xlink:href="#linearGradient4996-6"
       inkscape:collect="always" />
    <linearGradient
       y2="256"
       x2="362"
       y1="256"
       x1="257"
       gradientTransform="matrix(1.0380952,0,0,1.4619252,-10.28943,-118.25286)"
       gradientUnits="userSpaceOnUse"
       id="linearGradient3141"
       xlink:href="#linearGradient4996-6"
       inkscape:collect="always" />
    <linearGradient
       y2="256"
       x2="362"
       y1="256"
       x1="257"
       gradientTransform="matrix(1.0380952,0,0,1.4619252,-119.28943,-118.25286)"
       gradientUnits="userSpaceOnUse"
       id="linearGradient3137"
       xlink:href="#linearGradient4996-6"
       inkscape:collect="always" />
    <linearGradient
       y2="256"
       x2="362"
       y1="256"
       x1="257"
       gradientTransform="matrix(1.0380952,0,0,1.4619252,-228.28943,-118.25286)"
       gradientUnits="userSpaceOnUse"
       id="linearGradient3108"
       xlink:href="#linearGradient4996-6"
       inkscape:collect="always" />
    <linearGradient
       id="linearGradient4996-6">
      <stop
         id="stop4998-3"
         offset="0"
         style="stop-color:#000000;stop-opacity:1;" />
      <stop
         id="stop5000-5"
         offset="1"
         style="stop-color:#ffffff;stop-opacity:1;" />
    </linearGradient>
  </defs>
  <sodipodi:namedview
     pagecolor="#ffffff"
     bordercolor="#666666"
     borderopacity="1"
     objecttolerance="10"
     gridtolerance="10"
     guidetolerance="10"
     inkscape:pageopacity="0"
     inkscape:pageshadow="2"
     inkscape:window-width="1310"
     inkscape:window-height="718"
     id="namedview68"
     showgrid="false"
     inkscape:zoom="0.32593203"
     inkscape:cx="665.33846"
     inkscape:cy="-20.712841"
     inkscape:window-x="54"
     inkscape:window-y="27"
     inkscape:window-maximized="1"
     inkscape:current-layer="svg2" />
  <text
     font-size="129.23"
     letter-spacing="0"
     line-height="125%"
     word-spacing="0"
     x="197.51"
     y="195.89"
     font-family="Gentium Book Basic"
     id="text8">
    <tspan
       x="197.51"
       y="195.89"
       id="tspan10" />
  </text>
  <text
     x="246.3"
     y="436.9"
     font-size="46.954"
     transform="scale(4.0128.2492)"
     font-family="Arial"
     text-anchor="middle"
     id="text12" />
  <text
     font-size="129.23"
     letter-spacing="0"
     line-height="125%"
     word-spacing="0"
     x="778.78"
     y="115.89"
     font-family="Gentium Book Basic"
     id="text14">
    <tspan
       x="778.78"
       y="115.89"
       id="tspan16" />
  </text>
  <text
     x="391.15"
     y="115.88"
     font-size="46.954"
     transform="scale(4.0128.2492)"
     font-family="Arial"
     text-anchor="middle"
     id="text18" />
  <text
     font-size="129.23"
     letter-spacing="0"
     line-height="125%"
     word-spacing="0"
     x="-292.8"
     y="-65.37"
     font-family="Gentium Book Basic"
     id="text20">
    <tspan
       x="-292.8"
       y="-65.37"
       id="tspan22" />
  </text>
  <text
     x="124.11"
     y="-611.48"
     font-size="46.954"
     transform="scale(4.0128.2492)"
     font-family="Arial"
     text-anchor="middle"
     id="text24" />
  <text
     font-size="129.23"
     letter-spacing="0"
     line-height="125%"
     word-spacing="0"
     x="805.25"
     y="-281.84"
     font-family="Gentium Book Basic"
     id="text26">
    <tspan
       x="805.25"
       y="-281.84"
       id="tspan28" />
  </text>
  <text
     x="397.75"
     y="-1480.15"
     font-size="46.954"
     transform="scale(4.0128.2492)"
     font-family="Arial"
     text-anchor="middle"
     id="text30" />
  <text
     font-size="129.23"
     letter-spacing="0"
     line-height="125%"
     word-spacing="0"
     x="1386.52"
     y="-361.85"
     font-family="Gentium Book Basic"
     id="text32">
    <tspan
       x="1386.52"
       y="-361.85"
       id="tspan34" />
  </text>
  <text
     x="542.6"
     y="-1801.18"
     font-size="46.954"
     transform="scale(4.0128.2492)"
     font-family="Arial"
     text-anchor="middle"
     id="text36" />
  <text
     font-size="129.23"
     letter-spacing="0"
     line-height="125%"
     word-spacing="0"
     x="997.4"
     y="-834.25"
     font-family="Gentium Book Basic"
     id="text38">
    <tspan
       x="997.4"
       y="-834.25"
       id="tspan40" />
  </text>
  <text
     x="445.63"
     y="-3696.83"
     font-size="46.954"
     transform="scale(4.0128.2492)"
     font-family="Arial"
     text-anchor="middle"
     id="text42" />
  <text
     font-size="129.23"
     letter-spacing="0"
     line-height="125%"
     word-spacing="0"
     x="1578.66"
     y="-914.25"
     font-family="Gentium Book Basic"
     id="text44">
    <tspan
       x="1578.66"
       y="-914.25"
       id="tspan46" />
  </text>
  <text
     x="590.48"
     y="-4017.86"
     font-size="46.954"
     transform="scale(4.0128.2492)"
     font-family="Arial"
     text-anchor="middle"
     id="text48" />
  <text
     font-size="208.33"
     letter-spacing="0"
     line-height="125%"
     word-spacing="0"
     x="-254.14"
     y="500.47"
     font-family="Gentium Book Basic"
     id="text50">
    <tspan
       x="-254.14"
       y="500.47"
       id="tspan52" />
  </text>
  <rect
     style="opacity:0.2;fill:#000000;fill-opacity:1;stroke:none"
     id="rect5028-0"
     width="500"
     height="500"
     x="6"
     y="9"
     rx="72.644058"
     ry="72.644058" />
  <rect
     ry="72.644058"
     rx="72.644058"
     y="3"
     x="6"
     height="500"
     width="500"
     id="rect4979-8"
     style="fill:#f3f3f3;fill-opacity:1;stroke:none" />
  <rect
     style="fill:#cd1c30;fill-opacity:1;stroke:none"
     id="rect4981-8"
     width="434.99997"
     height="434.99997"
     x="38.500011"
     y="35.500011"
     rx="63.200329"
     ry="63.200329" />
  <path
     inkscape:connector-curvature="0"
     style="opacity:0.2;fill:#000000;fill-opacity:1;stroke:none"
     d="M 101.6875,35.5 C 66.674518,35.5 38.5,63.674518 38.5,98.6875 l 0,15 C 38.5,78.674518 66.674518,50.5 101.6875,50.5 l 308.625,0 c 35.01298,0 63.1875,28.174518 63.1875,63.1875 l 0,-15 C 473.5,63.674518 445.32548,35.5 410.3125,35.5 l -308.625,0 z"
     id="rect3187" />
  <g
     id="g3529"
     transform="translate(-7.4999991,-7.4999986)">
    <path
       style="opacity:0.2;fill:#000000;fill-opacity:1"
       d="m 229.63116,110.36463 c -10.2683,0 -18.9184,5.78178 -23.9065,13.94953 -4.5924,7.44645 -15.8628,26.96022 -25.5133,43.79615 -8.9017,15.53482 -3.5019,35.42464 12.0019,44.38042 l 12.562,7.23037 c 15.5071,8.95117 35.3365,3.6316 44.283,-11.88022 15.9754,-27.67832 38.8201,-67.27513 44.77,-77.51359 6.1338,-10.56514 16.209,-17.56479 27.9232,-19.45142 3.541,-0.57059 3.563,-0.51124 -0.025,-0.51124 l -92.0961,0 z m 98.3527,8.08245 c -11.2565,0.0138 -21.6701,6.17804 -27.1931,15.97014 -0.024,0.0184 -9.1726,15.79613 -18.3802,31.84288 l 18.5749,32.18372 -20.206,11.3203 c -3.1187,1.74858 -2.7954,3.61824 0.7546,4.0899 16.3885,2.21564 59.505,7.07106 73.3994,-0.94944 13.8737,-8.01704 31.2098,-47.75152 37.4908,-63.05282 1.3575,-3.31197 -0.093,-4.57335 -3.1892,-2.7753 l -19.9627,11.56374 c 0.015,0 -10.004,-17.47267 -13.9981,-24.39339 -5.653,-9.71963 -16.0512,-15.83194 -27.2906,-15.79973 z m 57.5509,102.7834 c -5.2262,0.13778 -10.4933,1.55758 -15.3371,4.3577 l -12.3185,7.08432 c -15.5072,8.95116 -20.8185,28.78502 -11.8559,44.28303 l 23.6875,41.04519 c 18.5097,0 36.7664,0 36.7848,0 11.2749,0.0851 21.7637,-5.94917 27.4121,-15.67799 5.6128,-9.73343 5.5413,-21.853 -0.1703,-31.55076 0,-0.0137 -8.7595,-15.17959 -19.2567,-33.35227 -6.1603,-10.65883 -17.4485,-16.49234 -28.9459,-16.18922 z m -234.4397,6.35396 c -16.1727,0.15993 -33.84988,2.23566 -43.06578,3.4813 -3.55469,0.48086 -3.88392,2.3833 -0.77903,4.16295 l 20.01136,11.4907 -19.93832,34.49647 c -4.87075,8.26898 -5.26874,18.81525 -0.14607,27.70428 l 46.08454,79.77764 c 1.7889,3.10491 1.7349,3.10418 0.4626,-0.24344 -4.2461,-11.25194 -3.299,-24.0285 2.897,-34.5695 l 39.0733,-67.65397 20.0114,11.61243 c 3.1003,1.79805 4.5756,0.55986 3.2135,-2.75096 -6.2684,-15.3013 -23.6103,-55.06471 -37.491,-63.07715 -6.0797,-3.50545 -17.7547,-4.55512 -30.3335,-4.43075 z m 174.7464,72.49858 c -0.6922,-0.0474 -1.5985,0.51218 -2.5561,1.75281 -10.1154,13.08106 -35.8841,47.98792 -35.8841,64.02662 0,16.02948 25.7629,50.9258 35.884,64.00226 2.1881,2.83569 4.0017,2.19349 3.9926,-1.38766 l -0.025,-23.05444 39.8037,0 c 9.6033,0.0678 18.9647,-4.86227 24.1011,-13.75476 l 46.0361,-79.77765 c 1.7886,-3.10489 1.8313,-3.06456 -0.4384,-0.29213 -7.6258,9.32388 -19.1632,14.86104 -31.3803,14.75289 0,0 -78.1222,0.006 -78.1222,0.0243 l 0.025,-23.12748 c 0.011,-2.01181 -0.5464,-3.10386 -1.4365,-3.16481 z m -144.1207,27.12001 c -9.2262,16.0249 -18.3665,31.84078 -18.3803,31.86724 -5.6978,9.68396 -5.7643,21.77572 -0.1217,31.5264 5.6266,9.75528 16.1208,15.76313 27.3634,15.678 l 38.5378,0 c 17.9069,0 32.4272,-14.49934 32.4272,-32.40283 l 0,-14.24165 c 0,-17.90347 -14.519,-32.42716 -32.4272,-32.42716 l -47.3992,0 z"
       id="path3527"
       inkscape:connector-curvature="0" />
    <path
       inkscape:connector-curvature="0"
       id="path56"
       d="m 214.63116,95.364628 c -10.2683,0 -18.9184,5.781782 -23.9065,13.949532 -4.5924,7.44645 -15.8628,26.96022 -25.5133,43.79615 -8.9017,15.53482 -3.5019,35.42464 12.0019,44.38042 l 12.562,7.23037 c 15.5071,8.95117 35.3365,3.6316 44.283,-11.88022 15.9754,-27.67832 38.8201,-67.27513 44.77,-77.51359 6.1338,-10.56514 16.209,-17.564792 27.9232,-19.45142 3.541,-0.570589 3.563,-0.511242 -0.025,-0.511242 l -92.0961,0 z m 98.3527,8.082452 c -11.2565,0.0138 -21.6701,6.17804 -27.1931,15.97014 -0.024,0.0184 -9.1726,15.79613 -18.3802,31.84288 l 18.5749,32.18372 -20.206,11.3203 c -3.1187,1.74858 -2.7954,3.61824 0.7546,4.0899 16.3885,2.21564 59.505,7.07106 73.3994,-0.94944 13.8737,-8.01704 31.2098,-47.75152 37.4908,-63.05282 1.3575,-3.31197 -0.093,-4.57335 -3.1892,-2.7753 l -19.9627,11.56374 c 0.015,0 -10.004,-17.47267 -13.9981,-24.39339 -5.653,-9.71963 -16.0512,-15.83194 -27.2906,-15.79973 z m 57.5509,102.7834 c -5.2262,0.13778 -10.4933,1.55758 -15.3371,4.3577 l -12.3185,7.08432 c -15.5072,8.95116 -20.8185,28.78502 -11.8559,44.28303 l 23.6875,41.04519 c 18.5097,0 36.7664,0 36.7848,0 11.2749,0.0851 21.7637,-5.94917 27.4121,-15.67799 5.6128,-9.73343 5.5413,-21.853 -0.1703,-31.55076 0,-0.0137 -8.7595,-15.17959 -19.2567,-33.35227 -6.1603,-10.65883 -17.4485,-16.49234 -28.9459,-16.18922 z m -234.4397,6.35396 c -16.1727,0.15993 -33.84988,2.23566 -43.065778,3.4813 -3.55469,0.48086 -3.88392,2.3833 -0.77903,4.16295 l 20.011358,11.4907 -19.938318,34.49647 c -4.87075,8.26898 -5.26874,18.81525 -0.14607,27.70428 l 46.084538,79.77764 c 1.7889,3.10491 1.7349,3.10418 0.4626,-0.24344 -4.2461,-11.25194 -3.299,-24.0285 2.897,-34.5695 l 39.0733,-67.65397 20.0114,11.61243 c 3.1003,1.79805 4.5756,0.55986 3.2135,-2.75096 -6.2684,-15.3013 -23.6103,-55.06471 -37.491,-63.07715 -6.0797,-3.50545 -17.7547,-4.55512 -30.3335,-4.43075 z m 174.7464,72.49858 c -0.6922,-0.0474 -1.5985,0.51218 -2.5561,1.75281 -10.1154,13.08106 -35.8841,47.98792 -35.8841,64.02662 0,16.02948 25.7629,50.9258 35.884,64.00226 2.1881,2.83569 4.0017,2.19349 3.9926,-1.38766 l -0.025,-23.05444 39.8037,0 c 9.6033,0.0678 18.9647,-4.86227 24.1011,-13.75476 l 46.0361,-79.77765 c 1.7886,-3.10489 1.8313,-3.06456 -0.4384,-0.29213 -7.6258,9.32388 -19.1632,14.86104 -31.3803,14.75289 0,0 -78.1222,0.006 -78.1222,0.0243 l 0.025,-23.12748 c 0.011,-2.01181 -0.5464,-3.10386 -1.4365,-3.16481 z m -144.1207,27.12001 c -9.2262,16.0249 -18.3665,31.84078 -18.3803,31.86724 -5.6978,9.68396 -5.7643,21.77572 -0.1217,31.5264 5.6266,9.75528 16.1208,15.76313 27.3634,15.678 l 38.5378,0 c 17.9069,0 32.4272,-14.49934 32.4272,-32.40283 l 0,-14.24165 c 0,-17.90347 -14.519,-32.42716 -32.4272,-32.42716 l -47.3992,0 z"
       style="fill:#dcdbdb;fill-opacity:1" />
  </g>
  <g
     id="g3167"
     transform="translate(0,-3)">
    <path
       inkscape:connector-curvature="0"
       id="rect3068-5"
       d="M 78.65625,6 C 63.792798,6 49.986224,10.429561 38.5,18.03125 l 0,475.9375 C 49.986224,501.57044 63.792798,506 78.65625,506 L 147.5,506 147.5,6 78.65625,6 z"
       style="opacity:0.05;fill:url(#linearGradient3108);fill-opacity:1;stroke:none" />
    <path
       inkscape:connector-curvature="0"
       style="opacity:0.05;fill:url(#linearGradient3137);fill-opacity:1;stroke:none"
       d="m 147.50001,6 0,500 109,0 0,-500 -109,0 z"
       id="path3135" />
    <path
       id="path3139"
       d="m 256.50001,6 0,500 109,0 0,-500 -109,0 z"
       style="opacity:0.05;fill:url(#linearGradient3141);fill-opacity:1;stroke:none"
       inkscape:connector-curvature="0" />
    <path
       inkscape:connector-curvature="0"
       id="path3143"
       d="m 365.5,6 0,500 67.84375,0 c 14.85395,0 28.64317,-4.43849 40.125,-12.03125 l 0,-475.9375 C 461.98692,10.438491 448.1977,6 433.34375,6 L 365.5,6 z"
       style="opacity:0.05;fill:url(#linearGradient3145);fill-opacity:1;stroke:none" />
    <path
       inkscape:connector-curvature="0"
       id="path3151"
       d="M 38.5,18.03125 C 18.885717,31.012164 6,53.274894 6,78.65625 l 0,354.6875 c 0,25.38136 12.885717,47.64409 32.5,60.625 l 0,-475.9375 z"
       style="opacity:0.05;fill:url(#linearGradient3153);fill-opacity:1;stroke:none" />
    <path
       inkscape:connector-curvature="0"
       id="path3147"
       d="m 473.46875,18.03125 0,475.9375 C 493.09542,480.98993 506,458.73461 506,433.34375 l 0,-354.6875 c 0,-25.390862 -12.90458,-47.646179 -32.53125,-60.625 z"
       style="opacity:0.05;fill:url(#linearGradient3149);fill-opacity:1;stroke:none" />
  </g>
</svg>
