<svg xmlns="http://www.w3.org/2000/svg" xmlns:xlink="http://www.w3.org/1999/xlink" viewBox="0 0 512 512"><defs><filter id="7"><feGaussianBlur stdDeviation="3.7725"/></filter><linearGradient id="8" y1="19.564" x2="0" y2="504.02" gradientUnits="userSpaceOnUse"><stop stop-color="#f3f3f3"/><stop offset=".5" stop-color="#eee"/><stop offset="1" stop-color="#ebebeb"/></linearGradient><linearGradient xlink:href="#0" id="5" gradientUnits="userSpaceOnUse" gradientTransform="matrix(1.02835 0 0 1.46193 209.19-118.25)" x1="257" x2="362"/><linearGradient xlink:href="#0" id="6" gradientUnits="userSpaceOnUse" gradientTransform="matrix(1.0381 0 0 1.46193-337.29-118.25)" x1="257" x2="362"/><linearGradient xlink:href="#0" id="4" gradientUnits="userSpaceOnUse" gradientTransform="matrix(1.02835 0 0 1.46193 101.22-118.25)" x1="257" x2="362"/><linearGradient xlink:href="#0" id="3" gradientUnits="userSpaceOnUse" gradientTransform="matrix(1.0381 0 0 1.46193-10.289-118.25)" x1="257" x2="362"/><linearGradient id="0"><stop/><stop offset="1" stop-color="#fff"/></linearGradient><linearGradient xlink:href="#0" id="2" gradientUnits="userSpaceOnUse" gradientTransform="matrix(1.0381 0 0 1.46193-119.29-118.25)" x1="257" x2="362"/><linearGradient xlink:href="#0" id="1" gradientUnits="userSpaceOnUse" gradientTransform="matrix(1.0381 0 0 1.46193-228.29-118.25)" x1="257" x2="362"/></defs><path d="m78.66 6c-.929 0-1.861.028-2.781.063-.073.003-.146-.003-.219 0-.668.027-1.337.08-2 .125-.376.025-.751.063-1.125.094-.645.053-1.297.086-1.938.156-.965.106-1.922.232-2.875.375-.052.008-.104.023-.156.031-1.082.165-2.154.351-3.219.563-.459.091-.919.182-1.375.281-.39.085-.769.19-1.156.281-.647.152-1.297.299-1.938.469-.898.238-1.804.479-2.688.75-.211.065-.414.152-.625.219-.991.314-1.966.645-2.938 1-.817.298-1.635.611-2.438.938-.29.118-.587.222-.875.344-.136.057-.27.129-.406.188-.082.035-.169.058-.25.094-.717.311-1.42.636-2.125.969-.147.069-.291.148-.438.219-.947.455-1.889.943-2.813 1.438-.271.145-.544.289-.813.438-.414.228-.81.483-1.219.719-.52.3-1.051.594-1.563.906-.738.452-1.467.898-2.188 1.375-.031.021-.062.042-.094.063-.456.303-.895.625-1.344.938-.123.086-.252.163-.375.25-.524.37-1.049.742-1.563 1.125-1.835 1.371-3.618 2.84-5.313 4.375-.017.015-.046.016-.063.031-.526.477-1.02.977-1.531 1.469-.524.505-1.054 1.011-1.563 1.531-.512.523-1 1.055-1.5 1.594-.941 1.022-1.837 2.05-2.719 3.125-.631.769-1.244 1.58-1.844 2.375-.111.148-.233.289-.344.438-.526.71-1.031 1.427-1.531 2.156-.11.16-.235.308-.344.469-.013.019-.018.043-.031.063-.084.125-.167.249-.25.375-.47.708-.929 1.431-1.375 2.156-.071.116-.148.227-.219.344-.575.948-1.124 1.899-1.656 2.875-.152.278-.289.564-.438.844-.18.341-.356.687-.531 1.031-.243.479-.486.952-.719 1.438-.426.885-.828 1.783-1.219 2.688-.24.556-.461 1.124-.688 1.688-.038.095-.087.186-.125.281-.246.621-.489 1.245-.719 1.875-.332.909-.641 1.825-.938 2.75-.11.345-.238.684-.344 1.031-.301.99-.585 1.992-.844 3-.008.032-.023.062-.031.094-.267 1.046-.497 2.092-.719 3.156-.034.166-.06.334-.094.5-.426 2.117-.762 4.257-1 6.438-.035.323-.063.645-.094.969-.09.938-.165 1.895-.219 2.844-.017.29-.018.584-.031.875-.051 1.119-.094 2.243-.094 3.375v354.69 6c0 40.24 32.411 72.66 72.66 72.66h354.69c40.24 0 72.66-32.411 72.66-72.66v-354.69-6c0-1.259-.031-2.507-.094-3.75-.016-.323-.042-.647-.063-.969-.058-.917-.127-1.843-.219-2.75-.02-.2-.041-.394-.063-.594-.246-2.245-.587-4.447-1.031-6.625-.021-.104-.041-.209-.063-.313-.227-1.087-.476-2.15-.75-3.219-.011-.042-.02-.083-.031-.125-.19-.732-.413-1.464-.625-2.188-.212-.724-.423-1.442-.656-2.156-.258-.789-.529-1.567-.813-2.344-.23-.63-.472-1.254-.719-1.875-.038-.096-.087-.186-.125-.281-.239-.594-.465-1.195-.719-1.781-.378-.871-.777-1.741-1.188-2.594-.233-.485-.475-.958-.719-1.438-.287-.564-.574-1.132-.875-1.688-.051-.094-.105-.188-.156-.281-.513-.936-1.041-1.871-1.594-2.781-.212-.35-.438-.685-.656-1.031-.405-.642-.795-1.278-1.219-1.906-.809-1.199-1.685-2.354-2.563-3.5-.262-.341-.514-.695-.781-1.031-.189-.238-.371-.483-.563-.719-.093-.114-.188-.231-.281-.344-2.71-3.286-5.696-6.301-8.938-9.06-.293-.249-.578-.505-.875-.75-.268-.221-.541-.439-.813-.656-.636-.509-1.284-1.012-1.938-1.5-3.17-2.368-6.55-4.481-10.09-6.313-.617-.319-1.248-.636-1.875-.938-.155-.074-.313-.145-.469-.219-.785-.371-1.575-.719-2.375-1.063-.488-.209-.975-.426-1.469-.625-.735-.296-1.472-.571-2.219-.844-.392-.143-.793-.27-1.188-.406-.718-.248-1.459-.524-2.188-.75-.114-.035-.23-.059-.344-.094-.488-.149-.977-.267-1.469-.406-.357-.1-.703-.217-1.063-.313-.019-.005-.043.005-.063 0-.837-.221-1.683-.433-2.531-.625-.032-.007-.062-.024-.094-.031-.651-.146-1.311-.278-1.969-.406-1-.197-2.01-.376-3.03-.531-.063-.01-.125-.022-.188-.031-.952-.143-1.88-.269-2.844-.375-.836-.091-1.687-.156-2.531-.219-.176-.013-.355-.019-.531-.031-.735-.049-1.478-.097-2.219-.125-.92-.034-1.853-.063-2.781-.063h-285.84-68.844" filter="url(#7)" fill-opacity=".176"/><rect width="500" height="500" x="6" y="12" rx="72.64" opacity=".15"/><rect rx="72.64" y="6" x="6" height="500" width="500" fill="url(#8)"/><rect width="435" height="435" x="38.5" y="38.5" rx="63.2" fill="#cd1c30"/><path d="m101.69 38.5c-35.01 0-63.19 28.17-63.19 63.19v15c0-35.01 28.17-63.19 63.19-63.19h308.63c35.01 0 63.19 28.17 63.19 63.19v-15c0-35.01-28.17-63.19-63.19-63.19h-308.62" opacity=".2"/><path d="m78.66 6c-40.24 0-72.66 32.411-72.66 72.66v7c0-40.24 32.411-72.66 72.66-72.66h354.69c40.24 0 72.66 32.411 72.66 72.66v-7c0-40.24-32.411-72.66-72.66-72.66h-354.69" fill="#fff"/><text font-size="129.23" letter-spacing="0" line-height="125%" word-spacing="0" x="-403.44" y="144.81" font-family="Gentium Book Basic"><tspan x="-403.44" y="144.81"/></text><text x="96.54" y="231.93" font-size="46.954" transform="scale(4.0128.2492)" font-family="Arial" text-anchor="middle"/><text font-size="129.23" letter-spacing="0" line-height="125%" word-spacing="0" x="177.83" y="64.812" font-family="Gentium Book Basic"><tspan x="177.83" y="64.812"/></text><text x="241.39" y="-89.09" font-size="46.954" transform="scale(4.0128.2492)" font-family="Arial" text-anchor="middle"/><text font-size="129.23" letter-spacing="0" line-height="125%" word-spacing="0" x="-893.75" y="-116.45" font-family="Gentium Book Basic"><tspan x="-893.75" y="-116.45"/></text><text x="-25.648" y="-816.45" font-size="46.954" transform="scale(4.0128.2492)" font-family="Arial" text-anchor="middle"/><text font-size="129.23" letter-spacing="0" line-height="125%" word-spacing="0" x="204.3" y="-332.92" font-family="Gentium Book Basic"><tspan x="204.3" y="-332.92"/></text><text x="247.99" y="-1685.11" font-size="46.954" transform="scale(4.0128.2492)" font-family="Arial" text-anchor="middle"/><text font-size="129.23" letter-spacing="0" line-height="125%" word-spacing="0" x="785.57" y="-412.93" font-family="Gentium Book Basic"><tspan x="785.57" y="-412.93"/></text><text x="392.84" y="-2006.14" font-size="46.954" transform="scale(4.0128.2492)" font-family="Arial" text-anchor="middle"/><text font-size="129.23" letter-spacing="0" line-height="125%" word-spacing="0" x="396.45" y="-885.33" font-family="Gentium Book Basic"><tspan x="396.45" y="-885.33"/></text><text x="295.87" y="-3901.78" font-size="46.954" transform="scale(4.0128.2492)" font-family="Arial" text-anchor="middle"/><text font-size="129.23" letter-spacing="0" line-height="125%" word-spacing="0" x="977.71" y="-965.33" font-family="Gentium Book Basic"><tspan x="977.71" y="-965.33"/></text><text x="440.72" y="-4222.81" font-size="46.954" transform="scale(4.0128.2492)" font-family="Arial" text-anchor="middle"/><text font-size="208.33" letter-spacing="0" line-height="125%" word-spacing="0" x="-855.09" y="449.39" font-family="Gentium Book Basic"><tspan x="-855.09" y="449.39"/></text><g transform="translate(-7.5-7.5)"><path d="m229.63 110.36c-10.268 0-18.918 5.782-23.906 13.95-4.592 7.446-15.863 26.96-25.513 43.796-8.902 15.535-3.502 35.425 12 44.38l12.562 7.23c15.507 8.951 35.34 3.632 44.28-11.88 15.975-27.678 38.82-67.28 44.77-77.51 6.134-10.565 16.209-17.565 27.923-19.451 3.541-.571 3.563-.511-.025-.511h-92.1m98.35 8.08c-11.257.014-21.67 6.178-27.19 15.97-.024.018-9.173 15.796-18.38 31.843l18.575 32.18-20.21 11.32c-3.119 1.749-2.795 3.618.755 4.09 16.389 2.216 59.5 7.07 73.4-.949 13.874-8.02 31.21-47.752 37.491-63.05 1.358-3.312-.093-4.573-3.189-2.775l-19.963 11.564c.015 0-10-17.473-13.998-24.393-5.653-9.72-16.05-15.832-27.29-15.8m57.55 102.78c-5.226.138-10.493 1.558-15.337 4.358l-12.319 7.084c-15.507 8.951-20.818 28.785-11.856 44.28l23.688 41.05c18.51 0 36.766 0 36.785 0 11.275.085 21.764-5.949 27.412-15.678 5.613-9.733 5.541-21.853-.17-31.551 0-.014-8.76-15.18-19.257-33.35-6.16-10.659-17.449-16.492-28.946-16.189m-234.44 6.354c-16.17.16-33.85 2.236-43.07 3.481-3.555.481-3.884 2.383-.779 4.163l20.01 11.491-19.938 34.496c-4.871 8.269-5.269 18.815-.146 27.704l46.08 79.78c1.789 3.105 1.735 3.104.463-.243-4.246-11.252-3.299-24.03 2.897-34.57l39.07-67.65 20.01 11.612c3.1 1.798 4.576.56 3.214-2.751-6.268-15.301-23.61-55.06-37.491-63.08-6.08-3.505-17.755-4.555-30.334-4.431m174.75 72.5c-.692-.047-1.599.512-2.556 1.753-10.115 13.08-35.884 47.988-35.884 64.03 0 16.03 25.763 50.926 35.884 64 2.188 2.836 4 2.193 3.993-1.388l-.025-23.05h39.804c9.603.068 18.965-4.862 24.1-13.755l46.04-79.78c1.789-3.105 1.831-3.065-.438-.292-7.626 9.324-19.16 14.861-31.38 14.753 0 0-78.12.006-78.12.024l.025-23.13c.011-2.01-.546-3.104-1.437-3.165m-144.12 27.12c-9.226 16.02-18.367 31.841-18.38 31.867-5.698 9.684-5.764 21.776-.122 31.526 5.627 9.755 16.12 15.763 27.363 15.678h38.538c17.907 0 32.427-14.499 32.427-32.403v-14.242c0-17.903-14.519-32.427-32.427-32.427h-47.4" opacity=".2"/><path d="m214.63 95.36c-10.268 0-18.918 5.782-23.906 13.95-4.592 7.446-15.863 26.96-25.513 43.796-8.902 15.535-3.502 35.425 12 44.38l12.562 7.23c15.507 8.951 35.34 3.632 44.28-11.88 15.975-27.678 38.82-67.28 44.77-77.51 6.134-10.565 16.209-17.565 27.923-19.451 3.541-.571 3.563-.511-.025-.511h-92.1m98.35 8.08c-11.257.014-21.67 6.178-27.19 15.97-.024.018-9.173 15.796-18.38 31.843l18.575 32.18-20.21 11.32c-3.119 1.749-2.795 3.618.755 4.09 16.389 2.216 59.5 7.07 73.4-.949 13.874-8.02 31.21-47.752 37.491-63.05 1.358-3.312-.093-4.573-3.189-2.775l-19.963 11.564c.015 0-10-17.473-13.998-24.393-5.653-9.72-16.05-15.832-27.29-15.8m57.55 102.78c-5.226.138-10.493 1.558-15.337 4.358l-12.319 7.084c-15.507 8.951-20.818 28.785-11.856 44.28l23.688 41.05c18.51 0 36.766 0 36.785 0 11.275.085 21.764-5.949 27.412-15.678 5.613-9.733 5.541-21.853-.17-31.551 0-.014-8.76-15.18-19.257-33.35-6.16-10.659-17.449-16.492-28.946-16.189m-234.44 6.354c-16.17.16-33.85 2.236-43.07 3.481-3.555.481-3.884 2.383-.779 4.163l20.01 11.491-19.938 34.496c-4.871 8.269-5.269 18.815-.146 27.704l46.08 79.78c1.789 3.105 1.735 3.104.463-.243-4.246-11.252-3.299-24.03 2.897-34.57l39.07-67.65 20.01 11.612c3.1 1.798 4.576.56 3.214-2.751-6.268-15.301-23.61-55.06-37.491-63.08-6.08-3.505-17.755-4.555-30.334-4.431m174.75 72.5c-.692-.047-1.599.512-2.556 1.753-10.115 13.08-35.884 47.988-35.884 64.03 0 16.03 25.763 50.926 35.884 64 2.188 2.836 4 2.193 3.993-1.388l-.025-23.05h39.804c9.603.068 18.965-4.862 24.1-13.755l46.04-79.78c1.789-3.105 1.831-3.065-.438-.292-7.626 9.324-19.16 14.861-31.38 14.753 0 0-78.12.006-78.12.024l.025-23.13c.011-2.01-.546-3.104-1.437-3.165m-144.12 27.12c-9.226 16.02-18.367 31.841-18.38 31.867-5.698 9.684-5.764 21.776-.122 31.526 5.627 9.755 16.12 15.763 27.363 15.678h38.538c17.907 0 32.427-14.499 32.427-32.403v-14.242c0-17.903-14.519-32.427-32.427-32.427h-47.4" fill="#dcdbdb"/></g><path d="m78.66 6c-14.863 0-28.67 4.43-40.16 12.03v475.94c11.486 7.602 25.293 12.03 40.16 12.03h68.844v-500h-68.844" opacity=".05" fill="url(#1)"/><path d="m147.5 6v500h109v-500h-109" opacity=".05" fill="url(#2)"/><path d="m256.5 6v500h109v-500h-109" opacity=".05" fill="url(#3)"/><path d="m365.5 6v500h67.844c14.854 0 28.643-4.438 40.13-12.03v-475.94c-11.482-7.593-25.27-12.03-40.12-12.03h-67.844" opacity=".05" fill="url(#4)"/><path d="m38.5 18.03c-19.614 12.981-32.5 35.24-32.5 60.63v354.69c0 25.381 12.886 47.644 32.5 60.63v-475.94" opacity=".05" fill="url(#6)"/><path d="m473.47 18.03v475.94c19.627-12.979 32.531-35.23 32.531-60.62v-354.69c0-25.391-12.905-47.646-32.531-60.62" opacity=".05" fill="url(#5)"/></svg>