<?xml version="1.0" encoding="UTF-8" standalone="no"?>
<svg
   xmlns:dc="http://purl.org/dc/elements/1.1/"
   xmlns:cc="http://creativecommons.org/ns#"
   xmlns:rdf="http://www.w3.org/1999/02/22-rdf-syntax-ns#"
   xmlns:svg="http://www.w3.org/2000/svg"
   xmlns="http://www.w3.org/2000/svg"
   xmlns:xlink="http://www.w3.org/1999/xlink"
   xmlns:sodipodi="http://sodipodi.sourceforge.net/DTD/sodipodi-0.dtd"
   xmlns:inkscape="http://www.inkscape.org/namespaces/inkscape"
   viewBox="0 0 512 512"
   id="svg2"
   version="1.1"
   inkscape:version="0.48.4 r9939"
   width="100%"
   height="100%"
   sodipodi:docname="base.svg">
  <sodipodi:namedview
     pagecolor="#444444"
     bordercolor="#666666"
     borderopacity="1"
     objecttolerance="10"
     gridtolerance="10"
     guidetolerance="10"
     inkscape:pageopacity="0"
     inkscape:pageshadow="2"
     inkscape:window-width="1310"
     inkscape:window-height="718"
     id="namedview6"
     showgrid="false"
     showguides="true"
     inkscape:guide-bbox="true"
     inkscape:zoom="0.7327189"
     inkscape:cx="446.60987"
     inkscape:cy="213.9278"
     inkscape:window-x="54"
     inkscape:window-y="27"
     inkscape:window-maximized="1"
     inkscape:current-layer="svg2"
     inkscape:snap-midpoints="true"
     inkscape:snap-global="false">
    <sodipodi:guide
       id="guide2989"
       position="768.17591,433.35594"
       orientation="0,1" />
    <sodipodi:guide
       id="guide2995"
       position="473.05444,254.912"
       orientation="1,0" />
  </sodipodi:namedview>
  <metadata
     id="metadata10">
    <rdf:RDF>
      <cc:Work
         rdf:about="">
        <dc:format>image/svg+xml</dc:format>
        <dc:type
           rdf:resource="http://purl.org/dc/dcmitype/StillImage" />
        <dc:title></dc:title>
      </cc:Work>
    </rdf:RDF>
  </metadata>
  <defs
     id="defs8">
    <linearGradient
       id="linearGradient4379">
      <stop
         style="stop-color:#f3f3f3;stop-opacity:1;"
         offset="0"
         id="stop4381" />
      <stop
         id="stop4387"
         offset="0.5"
         style="stop-color:#eeeeee;stop-opacity:1;" />
      <stop
         style="stop-color:#ebebeb;stop-opacity:1;"
         offset="1"
         id="stop4383" />
    </linearGradient>
    <linearGradient
       id="linearGradient4996">
      <stop
         style="stop-color:#000000;stop-opacity:1;"
         offset="0"
         id="stop4998" />
      <stop
         style="stop-color:#ffffff;stop-opacity:1;"
         offset="1"
         id="stop5000" />
    </linearGradient>
    <linearGradient
       inkscape:collect="always"
       xlink:href="#linearGradient4996"
       id="linearGradient3108"
       gradientUnits="userSpaceOnUse"
       gradientTransform="matrix(1.0380952,0,0,1.4619252,-228.28943,-118.25286)"
       x1="257"
       y1="256"
       x2="362"
       y2="256" />
    <linearGradient
       inkscape:collect="always"
       xlink:href="#linearGradient4996"
       id="linearGradient3137"
       gradientUnits="userSpaceOnUse"
       gradientTransform="matrix(1.0380952,0,0,1.4619252,-119.28943,-118.25286)"
       x1="257"
       y1="256"
       x2="362"
       y2="256" />
    <linearGradient
       inkscape:collect="always"
       xlink:href="#linearGradient4996"
       id="linearGradient3141"
       gradientUnits="userSpaceOnUse"
       gradientTransform="matrix(1.0380952,0,0,1.4619252,-10.28943,-118.25286)"
       x1="257"
       y1="256"
       x2="362"
       y2="256" />
    <linearGradient
       inkscape:collect="always"
       xlink:href="#linearGradient4996"
       id="linearGradient3145"
       gradientUnits="userSpaceOnUse"
       gradientTransform="matrix(1.0283468,0,0,1.4619252,101.21591,-118.25286)"
       x1="257"
       y1="256"
       x2="362"
       y2="256" />
    <linearGradient
       inkscape:collect="always"
       xlink:href="#linearGradient4996"
       id="linearGradient3149"
       gradientUnits="userSpaceOnUse"
       gradientTransform="matrix(1.0283468,0,0,1.4619252,209.19233,-118.25286)"
       x1="257"
       y1="256"
       x2="362"
       y2="256" />
    <linearGradient
       inkscape:collect="always"
       xlink:href="#linearGradient4996"
       id="linearGradient3153"
       gradientUnits="userSpaceOnUse"
       gradientTransform="matrix(1.0380952,0,0,1.4619252,-337.28943,-118.25286)"
       x1="257"
       y1="256"
       x2="362"
       y2="256" />
    <filter
       inkscape:collect="always"
       id="filter4375">
      <feGaussianBlur
         inkscape:collect="always"
         stdDeviation="3.7725"
         id="feGaussianBlur4377" />
    </filter>
    <linearGradient
       inkscape:collect="always"
       xlink:href="#linearGradient4379"
       id="linearGradient4385"
       x1="243.40109"
       y1="19.563948"
       x2="243.40109"
       y2="504.01736"
       gradientUnits="userSpaceOnUse" />
    <linearGradient
       id="linearGradient4996-6">
      <stop
         style="stop-color:#000000;stop-opacity:1;"
         offset="0"
         id="stop4998-3" />
      <stop
         style="stop-color:#ffffff;stop-opacity:1;"
         offset="1"
         id="stop5000-5" />
    </linearGradient>
    <linearGradient
       inkscape:collect="always"
       xlink:href="#linearGradient4996-6"
       id="linearGradient3108-5"
       gradientUnits="userSpaceOnUse"
       gradientTransform="matrix(1.0380952,0,0,1.4619252,-228.28943,-118.25286)"
       x1="257"
       y1="256"
       x2="362"
       y2="256" />
    <linearGradient
       inkscape:collect="always"
       xlink:href="#linearGradient4996-6"
       id="linearGradient3137-3"
       gradientUnits="userSpaceOnUse"
       gradientTransform="matrix(1.0380952,0,0,1.4619252,-119.28943,-118.25286)"
       x1="257"
       y1="256"
       x2="362"
       y2="256" />
    <linearGradient
       inkscape:collect="always"
       xlink:href="#linearGradient4996-6"
       id="linearGradient3141-2"
       gradientUnits="userSpaceOnUse"
       gradientTransform="matrix(1.0380952,0,0,1.4619252,-10.28943,-118.25286)"
       x1="257"
       y1="256"
       x2="362"
       y2="256" />
    <linearGradient
       inkscape:collect="always"
       xlink:href="#linearGradient4996-6"
       id="linearGradient3145-3"
       gradientUnits="userSpaceOnUse"
       gradientTransform="matrix(1.0283468,0,0,1.4619252,101.21591,-118.25286)"
       x1="257"
       y1="256"
       x2="362"
       y2="256" />
    <linearGradient
       inkscape:collect="always"
       xlink:href="#linearGradient4996-6"
       id="linearGradient3149-1"
       gradientUnits="userSpaceOnUse"
       gradientTransform="matrix(1.0283468,0,0,1.4619252,209.19233,-118.25286)"
       x1="257"
       y1="256"
       x2="362"
       y2="256" />
    <linearGradient
       inkscape:collect="always"
       xlink:href="#linearGradient4996-6"
       id="linearGradient3153-1"
       gradientUnits="userSpaceOnUse"
       gradientTransform="matrix(1.0380952,0,0,1.4619252,-337.28943,-118.25286)"
       x1="257"
       y1="256"
       x2="362"
       y2="256" />
    <linearGradient
       y2="256"
       x2="362"
       y1="256"
       x1="257"
       gradientTransform="matrix(1,0,0,1.4619252,210.00099,-120.86596)"
       gradientUnits="userSpaceOnUse"
       id="linearGradient3197"
       xlink:href="#linearGradient4996-7"
       inkscape:collect="always" />
    <linearGradient
       y2="256"
       x2="362"
       y1="256"
       x1="257"
       gradientTransform="matrix(1,0,0,1.4619252,-209.999,-121.25286)"
       gradientUnits="userSpaceOnUse"
       id="linearGradient3194"
       xlink:href="#linearGradient4996-7"
       inkscape:collect="always" />
    <linearGradient
       y2="256"
       x2="362"
       y1="256"
       x1="257"
       gradientTransform="matrix(1,0,0,1.4619252,-104.999,-121.25286)"
       gradientUnits="userSpaceOnUse"
       id="linearGradient3191"
       xlink:href="#linearGradient4996-7"
       inkscape:collect="always" />
    <linearGradient
       y2="256"
       x2="362"
       y1="256"
       x1="257"
       gradientTransform="matrix(1,0,0,1.4619252,9.9807e-4,-121.25286)"
       gradientUnits="userSpaceOnUse"
       id="linearGradient3188"
       xlink:href="#linearGradient4996-7"
       inkscape:collect="always" />
    <linearGradient
       y2="256"
       x2="362"
       y1="256"
       x1="257"
       gradientTransform="matrix(1,0,0,1.4619252,105.001,-120.86596)"
       gradientUnits="userSpaceOnUse"
       id="linearGradient3185"
       xlink:href="#linearGradient4996-7"
       inkscape:collect="always" />
    <linearGradient
       y2="256"
       x2="362"
       y1="256"
       x1="257"
       gradientTransform="matrix(1,0,0,1.4619252,-315.03517,-121.25286)"
       gradientUnits="userSpaceOnUse"
       id="linearGradient3182"
       xlink:href="#linearGradient4996-7"
       inkscape:collect="always" />
    <linearGradient
       id="linearGradient4996-7">
      <stop
         style="stop-color:#000000;stop-opacity:1;"
         offset="0"
         id="stop4998-4" />
      <stop
         style="stop-color:#ffffff;stop-opacity:1;"
         offset="1"
         id="stop5000-4" />
    </linearGradient>
  </defs>
  <path
     style="opacity:1;fill:#000000;fill-opacity:0.17647059000000001;stroke:none;filter:url(#filter4375)"
     d="M 78.65625 6 C 77.727284 6 76.7954 6.028201 75.875 6.0625 C 75.802369 6.0652118 75.728825 6.059577 75.65625 6.0625 C 74.988725 6.0893847 74.318909 6.1428818 73.65625 6.1875 C 73.280206 6.2128391 72.905683 6.2502503 72.53125 6.28125 C 71.885867 6.3345848 71.234134 6.3675421 70.59375 6.4375 C 69.628992 6.5431372 68.67162 6.6697176 67.71875 6.8125 C 67.666309 6.8203518 67.614904 6.835787 67.5625 6.84375 C 66.480857 7.0082531 65.408958 7.1949037 64.34375 7.40625 C 63.884894 7.4971842 63.424398 7.5880194 62.96875 7.6875 C 62.579098 7.7726525 62.199755 7.8774077 61.8125 7.96875 C 61.165363 8.1211825 60.515221 8.2679802 59.875 8.4375 C 58.977088 8.6758086 58.071221 8.9162011 57.1875 9.1875 C 56.976031 9.2523648 56.773131 9.3395193 56.5625 9.40625 C 55.571868 9.72038 54.596482 10.051502 53.625 10.40625 C 52.80836 10.704455 51.989948 11.0175 51.1875 11.34375 C 50.897854 11.461445 50.600246 11.566197 50.3125 11.6875 C 50.176196 11.744981 50.042123 11.816716 49.90625 11.875 C 49.824668 11.909989 49.737675 11.933472 49.65625 11.96875 C 48.938842 12.279643 48.236264 12.604441 47.53125 12.9375 C 47.384379 13.006849 47.240073 13.085948 47.09375 13.15625 C 46.146324 13.611669 45.205003 14.099116 44.28125 14.59375 C 44.010496 14.738777 43.737417 14.882905 43.46875 15.03125 C 43.054856 15.259696 42.65884 15.513784 42.25 15.75 C 41.730466 16.0502 41.198724 16.34365 40.6875 16.65625 C 39.949085 17.107771 39.220561 17.554376 38.5 18.03125 C 38.468637 18.052007 38.437579 18.072946 38.40625 18.09375 C 37.950536 18.396369 37.510847 18.718679 37.0625 19.03125 C 36.93921 19.117203 36.810226 19.194551 36.6875 19.28125 C 36.163693 19.651283 35.638368 20.022798 35.125 20.40625 C 33.290177 21.777117 31.50659 23.24624 29.8125 24.78125 C 29.795638 24.79654 29.766847 24.797194 29.75 24.8125 C 29.224497 25.289542 28.729955 25.789121 28.21875 26.28125 C 27.694886 26.785782 27.164727 27.292488 26.65625 27.8125 C 26.144503 28.335837 25.652037 28.867606 25.15625 29.40625 C 24.215559 30.427897 23.318806 31.456477 22.4375 32.53125 C 21.806506 33.300601 21.193184 34.110796 20.59375 34.90625 C 20.48231 35.054221 20.360329 35.194896 20.25 35.34375 C 19.723598 36.053613 19.21948 36.770435 18.71875 37.5 C 18.60915 37.659719 18.48335 37.808107 18.375 37.96875 C 18.362086 37.987892 18.356646 38.012094 18.34375 38.03125 C 18.259632 38.156225 18.177108 38.280721 18.09375 38.40625 C 17.623298 39.114511 17.164683 39.836916 16.71875 40.5625 C 16.647328 40.678799 16.570784 40.789515 16.5 40.90625 C 15.924756 41.854127 15.376169 42.805321 14.84375 43.78125 C 14.692065 44.059253 14.554393 44.344787 14.40625 44.625 C 14.225983 44.96599 14.049974 45.312036 13.875 45.65625 C 13.63151 46.13532 13.389361 46.608561 13.15625 47.09375 C 12.730634 47.978942 12.32789 48.876356 11.9375 49.78125 C 11.697576 50.33769 11.476337 50.90513 11.25 51.46875 C 11.211649 51.564217 11.162958 51.654331 11.125 51.75 C 10.878581 52.371259 10.635931 52.995354 10.40625 53.625 C 10.074634 54.533596 9.7648227 55.449625 9.46875 56.375 C 9.3582604 56.72046 9.2304578 57.058529 9.125 57.40625 C 8.8244173 58.396667 8.5403511 59.398152 8.28125 60.40625 C 8.2731511 60.437819 8.2580577 60.468414 8.25 60.5 C 7.9825799 61.546421 7.7529168 62.591906 7.53125 63.65625 C 7.4967817 63.821826 7.4708457 63.990255 7.4375 64.15625 C 7.011883 66.273722 6.6758491 68.412789 6.4375 70.59375 C 6.4022606 70.916326 6.3747851 71.238642 6.34375 71.5625 C 6.2537906 72.500662 6.1792302 73.457785 6.125 74.40625 C 6.1084109 74.696568 6.1069502 74.990008 6.09375 75.28125 C 6.0430557 76.400053 6 77.5245 6 78.65625 L 6 433.34375 L 6 439.34375 C 6 479.58856 38.411442 512 78.65625 512 L 433.34375 512 C 473.58856 512 506 479.58856 506 439.34375 L 506 84.65625 L 506 78.65625 C 506 77.397481 505.96893 76.148858 505.90625 74.90625 C 505.88997 74.583084 505.8642 74.259513 505.84375 73.9375 C 505.7854 73.020381 505.7168 72.094823 505.625 71.1875 C 505.60482 70.987629 505.58428 70.793129 505.5625 70.59375 C 505.31685 68.348594 504.97537 66.146302 504.53125 63.96875 C 504.51005 63.864628 504.49039 63.760207 504.46875 63.65625 C 504.24208 62.56918 503.99317 61.505818 503.71875 60.4375 C 503.70802 60.395586 503.69831 60.354385 503.6875 60.3125 C 503.49794 59.580022 503.27406 58.848167 503.0625 58.125 C 502.85099 57.400787 502.63943 56.683269 502.40625 55.96875 C 502.14838 55.179706 501.87757 54.401717 501.59375 53.625 C 501.36407 52.995354 501.12142 52.371259 500.875 51.75 C 500.837 51.654331 500.7884 51.564216 500.75 51.46875 C 500.51143 50.874675 500.28491 50.273592 500.03125 49.6875 C 499.6536 48.816464 499.2541 47.946468 498.84375 47.09375 C 498.61064 46.608561 498.36849 46.13532 498.125 45.65625 C 497.83796 45.092248 497.55122 44.524042 497.25 43.96875 C 497.19912 43.874852 497.14503 43.781145 497.09375 43.6875 C 496.58077 42.751755 496.05244 41.816114 495.5 40.90625 C 495.28765 40.556046 495.06183 40.221258 494.84375 39.875 C 494.43899 39.233117 494.04913 38.596743 493.625 37.96875 C 492.81616 36.769544 491.93973 35.615178 491.0625 34.46875 C 490.80093 34.127365 490.54872 33.774036 490.28125 33.4375 C 490.09255 33.199768 489.91036 32.954032 489.71875 32.71875 C 489.62597 32.604964 489.53096 32.488208 489.4375 32.375 C 486.72765 29.088725 483.7416 26.073745 480.5 23.3125 C 480.20738 23.063287 479.92162 22.807113 479.625 22.5625 C 479.35716 22.341642 479.08356 22.123311 478.8125 21.90625 C 478.17676 21.397149 477.52808 20.89412 476.875 20.40625 C 473.70458 18.038152 470.32509 15.925311 466.78125 14.09375 C 466.16445 13.77467 465.53332 13.458103 464.90625 13.15625 C 464.75142 13.08186 464.59295 13.010824 464.4375 12.9375 C 463.65263 12.56654 462.86266 12.218496 462.0625 11.875 C 461.57467 11.666006 461.08708 11.448572 460.59375 11.25 C 459.85871 10.953561 459.12187 10.67922 458.375 10.40625 C 457.98321 10.263334 457.58245 10.13635 457.1875 10 C 456.46909 9.7515393 455.72856 9.4764502 455 9.25 C 454.8864 9.2148134 454.77009 9.1908956 454.65625 9.15625 C 454.16839 9.007218 453.67972 8.8890238 453.1875 8.75 C 452.83049 8.6495592 452.48425 8.5326228 452.125 8.4375 C 452.10552 8.4323219 452.08198 8.4426624 452.0625 8.4375 C 451.22583 8.2167138 450.37964 8.0040441 449.53125 7.8125 C 449.49951 7.8053012 449.46926 7.7884074 449.4375 7.78125 C 448.78627 7.6351458 448.12658 7.5035858 447.46875 7.375 C 446.46573 7.1778899 445.45509 6.9992871 444.4375 6.84375 C 444.37488 6.8342345 444.31267 6.8218566 444.25 6.8125 C 443.29794 6.6695311 442.37023 6.5432958 441.40625 6.4375 C 440.57048 6.3461977 439.71923 6.2816821 438.875 6.21875 C 438.69908 6.2055933 438.52002 6.1994068 438.34375 6.1875 C 437.60905 6.1380308 436.86567 6.0901545 436.125 6.0625 C 435.20525 6.0281378 434.27212 6 433.34375 6 L 147.5 6 L 78.65625 6 z "
     id="path3492" />
  <rect
     style="opacity:0.15;fill:#000000;fill-opacity:1;stroke:none"
     id="rect5028"
     width="500"
     height="500"
     x="6"
     y="12"
     rx="72.644058"
     ry="72.644058" />
  <rect
     ry="72.644058"
     rx="72.644058"
     y="6"
     x="6"
     height="500"
     width="500"
     id="rect4979"
     style="fill:url(#linearGradient4385);fill-opacity:1;stroke:none" />
  <rect
     style="fill:#cd1c30;fill-opacity:1;stroke:none"
     id="rect4981"
     width="434.99997"
     height="434.99997"
     x="38.500011"
     y="38.500011"
     rx="63.200329"
     ry="63.200329" />
  <path
     style="fill:#000000;fill-opacity:1;stroke:none;opacity:0.2"
     d="M 101.6875 38.5 C 66.674518 38.5 38.5 66.674518 38.5 101.6875 L 38.5 116.6875 C 38.5 81.674518 66.674518 53.5 101.6875 53.5 L 410.3125 53.5 C 445.32548 53.5 473.5 81.674518 473.5 116.6875 L 473.5 101.6875 C 473.5 66.674518 445.32548 38.5 410.3125 38.5 L 101.6875 38.5 z "
     id="rect3187" />
  <path
     style="fill:#ffffff;fill-opacity:1;stroke:none"
     d="M 78.65625 6 C 38.411442 6 6 38.411442 6 78.65625 L 6 85.65625 C 6 45.411442 38.411442 13 78.65625 13 L 433.34375 13 C 473.58856 13 506 45.411442 506 85.65625 L 506 78.65625 C 506 38.411442 473.58856 6 433.34375 6 L 78.65625 6 z "
     id="rect4349" />
  <text
     style="font-size:129.22999573px;line-height:125%;letter-spacing:0;word-spacing:0;font-family:Gentium Book Basic"
     sodipodi:linespacing="125%"
     font-size="129.23"
     letter-spacing="0"
     line-height="125%"
     word-spacing="0"
     x="-403.44125"
     y="144.81168"
     id="text8">
    <tspan
       x="-403.44125"
       y="144.81168"
       id="tspan10" />
  </text>
  <text
     style="font-size:46.95375824px;text-anchor:middle;font-family:Arial"
     x="96.540924"
     y="231.9296"
     font-size="46.954"
     transform="scale(4.0128205,0.24920128)"
     id="text12" />
  <text
     style="font-size:129.22999573px;line-height:125%;letter-spacing:0;word-spacing:0;font-family:Gentium Book Basic"
     sodipodi:linespacing="125%"
     font-size="129.23"
     letter-spacing="0"
     line-height="125%"
     word-spacing="0"
     x="177.82877"
     y="64.811676"
     id="text14">
    <tspan
       x="177.82877"
       y="64.811676"
       id="tspan16" />
  </text>
  <text
     style="font-size:46.95375824px;text-anchor:middle;font-family:Arial"
     x="241.39017"
     y="-89.088753"
     font-size="46.954"
     transform="scale(4.0128205,0.24920128)"
     id="text18" />
  <text
     style="font-size:129.22999573px;line-height:125%;letter-spacing:0;word-spacing:0;font-family:Gentium Book Basic"
     sodipodi:linespacing="125%"
     font-size="129.23"
     letter-spacing="0"
     line-height="125%"
     word-spacing="0"
     x="-893.75122"
     y="-116.44833"
     id="text20">
    <tspan
       x="-893.75122"
       y="-116.44833"
       id="tspan22" />
  </text>
  <text
     style="font-size:46.95375824px;text-anchor:middle;font-family:Arial"
     x="-25.648455"
     y="-816.44501"
     font-size="46.954"
     transform="scale(4.0128205,0.24920128)"
     id="text24" />
  <text
     style="font-size:129.22999573px;line-height:125%;letter-spacing:0;word-spacing:0;font-family:Gentium Book Basic"
     sodipodi:linespacing="125%"
     font-size="129.23"
     letter-spacing="0"
     line-height="125%"
     word-spacing="0"
     x="204.29874"
     y="-332.91833"
     id="text26">
    <tspan
       x="204.29874"
       y="-332.91833"
       id="tspan28" />
  </text>
  <text
     style="font-size:46.95375824px;text-anchor:middle;font-family:Arial"
     x="247.99014"
     y="-1685.1106"
     font-size="46.954"
     transform="scale(4.0128205,0.24920128)"
     id="text30" />
  <text
     style="font-size:129.22999573px;line-height:125%;letter-spacing:0;word-spacing:0;font-family:Gentium Book Basic"
     sodipodi:linespacing="125%"
     font-size="129.23"
     letter-spacing="0"
     line-height="125%"
     word-spacing="0"
     x="785.56879"
     y="-412.92834"
     id="text32">
    <tspan
       x="785.56879"
       y="-412.92834"
       id="tspan34" />
  </text>
  <text
     style="font-size:46.95375824px;text-anchor:middle;font-family:Arial"
     x="392.83939"
     y="-2006.139"
     font-size="46.954"
     transform="scale(4.0128205,0.24920128)"
     id="text36" />
  <text
     style="font-size:129.22999573px;line-height:125%;letter-spacing:0;word-spacing:0;font-family:Gentium Book Basic"
     sodipodi:linespacing="125%"
     font-size="129.23"
     letter-spacing="0"
     line-height="125%"
     word-spacing="0"
     x="396.44876"
     y="-885.32831"
     id="text38">
    <tspan
       x="396.44876"
       y="-885.32831"
       id="tspan40" />
  </text>
  <text
     style="font-size:46.95375824px;text-anchor:middle;font-family:Arial"
     x="295.8699"
     y="-3901.7793"
     font-size="46.954"
     transform="scale(4.0128205,0.24920128)"
     id="text42" />
  <text
     style="font-size:129.22999573px;line-height:125%;letter-spacing:0;word-spacing:0;font-family:Gentium Book Basic"
     sodipodi:linespacing="125%"
     font-size="129.23"
     letter-spacing="0"
     line-height="125%"
     word-spacing="0"
     x="977.7088"
     y="-965.32831"
     id="text44">
    <tspan
       x="977.7088"
       y="-965.32831"
       id="tspan46" />
  </text>
  <text
     style="font-size:46.95375824px;text-anchor:middle;font-family:Arial"
     x="440.71915"
     y="-4222.8076"
     font-size="46.954"
     transform="scale(4.0128205,0.24920128)"
     id="text48" />
  <text
     style="font-size:208.33000183px;line-height:125%;letter-spacing:0;word-spacing:0;font-family:Gentium Book Basic"
     sodipodi:linespacing="125%"
     font-size="208.33"
     letter-spacing="0"
     line-height="125%"
     word-spacing="0"
     x="-855.09125"
     y="449.39166"
     id="text50">
    <tspan
       x="-855.09125"
       y="449.39166"
       id="tspan52" />
  </text>
  <g
     id="g3529"
     transform="translate(-7.4999991,-7.4999986)">
    <path
       style="opacity:0.2;fill:#000000;fill-opacity:1"
       d="m 229.63116,110.36463 c -10.2683,0 -18.9184,5.78178 -23.9065,13.94953 -4.5924,7.44645 -15.8628,26.96022 -25.5133,43.79615 -8.9017,15.53482 -3.5019,35.42464 12.0019,44.38042 l 12.562,7.23037 c 15.5071,8.95117 35.3365,3.6316 44.283,-11.88022 15.9754,-27.67832 38.8201,-67.27513 44.77,-77.51359 6.1338,-10.56514 16.209,-17.56479 27.9232,-19.45142 3.541,-0.57059 3.563,-0.51124 -0.025,-0.51124 l -92.0961,0 z m 98.3527,8.08245 c -11.2565,0.0138 -21.6701,6.17804 -27.1931,15.97014 -0.024,0.0184 -9.1726,15.79613 -18.3802,31.84288 l 18.5749,32.18372 -20.206,11.3203 c -3.1187,1.74858 -2.7954,3.61824 0.7546,4.0899 16.3885,2.21564 59.505,7.07106 73.3994,-0.94944 13.8737,-8.01704 31.2098,-47.75152 37.4908,-63.05282 1.3575,-3.31197 -0.093,-4.57335 -3.1892,-2.7753 l -19.9627,11.56374 c 0.015,0 -10.004,-17.47267 -13.9981,-24.39339 -5.653,-9.71963 -16.0512,-15.83194 -27.2906,-15.79973 z m 57.5509,102.7834 c -5.2262,0.13778 -10.4933,1.55758 -15.3371,4.3577 l -12.3185,7.08432 c -15.5072,8.95116 -20.8185,28.78502 -11.8559,44.28303 l 23.6875,41.04519 c 18.5097,0 36.7664,0 36.7848,0 11.2749,0.0851 21.7637,-5.94917 27.4121,-15.67799 5.6128,-9.73343 5.5413,-21.853 -0.1703,-31.55076 0,-0.0137 -8.7595,-15.17959 -19.2567,-33.35227 -6.1603,-10.65883 -17.4485,-16.49234 -28.9459,-16.18922 z m -234.4397,6.35396 c -16.1727,0.15993 -33.84988,2.23566 -43.06578,3.4813 -3.55469,0.48086 -3.88392,2.3833 -0.77903,4.16295 l 20.01136,11.4907 -19.93832,34.49647 c -4.87075,8.26898 -5.26874,18.81525 -0.14607,27.70428 l 46.08454,79.77764 c 1.7889,3.10491 1.7349,3.10418 0.4626,-0.24344 -4.2461,-11.25194 -3.299,-24.0285 2.897,-34.5695 l 39.0733,-67.65397 20.0114,11.61243 c 3.1003,1.79805 4.5756,0.55986 3.2135,-2.75096 -6.2684,-15.3013 -23.6103,-55.06471 -37.491,-63.07715 -6.0797,-3.50545 -17.7547,-4.55512 -30.3335,-4.43075 z m 174.7464,72.49858 c -0.6922,-0.0474 -1.5985,0.51218 -2.5561,1.75281 -10.1154,13.08106 -35.8841,47.98792 -35.8841,64.02662 0,16.02948 25.7629,50.9258 35.884,64.00226 2.1881,2.83569 4.0017,2.19349 3.9926,-1.38766 l -0.025,-23.05444 39.8037,0 c 9.6033,0.0678 18.9647,-4.86227 24.1011,-13.75476 l 46.0361,-79.77765 c 1.7886,-3.10489 1.8313,-3.06456 -0.4384,-0.29213 -7.6258,9.32388 -19.1632,14.86104 -31.3803,14.75289 0,0 -78.1222,0.006 -78.1222,0.0243 l 0.025,-23.12748 c 0.011,-2.01181 -0.5464,-3.10386 -1.4365,-3.16481 z m -144.1207,27.12001 c -9.2262,16.0249 -18.3665,31.84078 -18.3803,31.86724 -5.6978,9.68396 -5.7643,21.77572 -0.1217,31.5264 5.6266,9.75528 16.1208,15.76313 27.3634,15.678 l 38.5378,0 c 17.9069,0 32.4272,-14.49934 32.4272,-32.40283 l 0,-14.24165 c 0,-17.90347 -14.519,-32.42716 -32.4272,-32.42716 l -47.3992,0 z"
       id="path3527"
       inkscape:connector-curvature="0" />
    <path
       inkscape:connector-curvature="0"
       id="path56"
       d="m 214.63116,95.364628 c -10.2683,0 -18.9184,5.781782 -23.9065,13.949532 -4.5924,7.44645 -15.8628,26.96022 -25.5133,43.79615 -8.9017,15.53482 -3.5019,35.42464 12.0019,44.38042 l 12.562,7.23037 c 15.5071,8.95117 35.3365,3.6316 44.283,-11.88022 15.9754,-27.67832 38.8201,-67.27513 44.77,-77.51359 6.1338,-10.56514 16.209,-17.564792 27.9232,-19.45142 3.541,-0.570589 3.563,-0.511242 -0.025,-0.511242 l -92.0961,0 z m 98.3527,8.082452 c -11.2565,0.0138 -21.6701,6.17804 -27.1931,15.97014 -0.024,0.0184 -9.1726,15.79613 -18.3802,31.84288 l 18.5749,32.18372 -20.206,11.3203 c -3.1187,1.74858 -2.7954,3.61824 0.7546,4.0899 16.3885,2.21564 59.505,7.07106 73.3994,-0.94944 13.8737,-8.01704 31.2098,-47.75152 37.4908,-63.05282 1.3575,-3.31197 -0.093,-4.57335 -3.1892,-2.7753 l -19.9627,11.56374 c 0.015,0 -10.004,-17.47267 -13.9981,-24.39339 -5.653,-9.71963 -16.0512,-15.83194 -27.2906,-15.79973 z m 57.5509,102.7834 c -5.2262,0.13778 -10.4933,1.55758 -15.3371,4.3577 l -12.3185,7.08432 c -15.5072,8.95116 -20.8185,28.78502 -11.8559,44.28303 l 23.6875,41.04519 c 18.5097,0 36.7664,0 36.7848,0 11.2749,0.0851 21.7637,-5.94917 27.4121,-15.67799 5.6128,-9.73343 5.5413,-21.853 -0.1703,-31.55076 0,-0.0137 -8.7595,-15.17959 -19.2567,-33.35227 -6.1603,-10.65883 -17.4485,-16.49234 -28.9459,-16.18922 z m -234.4397,6.35396 c -16.1727,0.15993 -33.84988,2.23566 -43.065778,3.4813 -3.55469,0.48086 -3.88392,2.3833 -0.77903,4.16295 l 20.011358,11.4907 -19.938318,34.49647 c -4.87075,8.26898 -5.26874,18.81525 -0.14607,27.70428 l 46.084538,79.77764 c 1.7889,3.10491 1.7349,3.10418 0.4626,-0.24344 -4.2461,-11.25194 -3.299,-24.0285 2.897,-34.5695 l 39.0733,-67.65397 20.0114,11.61243 c 3.1003,1.79805 4.5756,0.55986 3.2135,-2.75096 -6.2684,-15.3013 -23.6103,-55.06471 -37.491,-63.07715 -6.0797,-3.50545 -17.7547,-4.55512 -30.3335,-4.43075 z m 174.7464,72.49858 c -0.6922,-0.0474 -1.5985,0.51218 -2.5561,1.75281 -10.1154,13.08106 -35.8841,47.98792 -35.8841,64.02662 0,16.02948 25.7629,50.9258 35.884,64.00226 2.1881,2.83569 4.0017,2.19349 3.9926,-1.38766 l -0.025,-23.05444 39.8037,0 c 9.6033,0.0678 18.9647,-4.86227 24.1011,-13.75476 l 46.0361,-79.77765 c 1.7886,-3.10489 1.8313,-3.06456 -0.4384,-0.29213 -7.6258,9.32388 -19.1632,14.86104 -31.3803,14.75289 0,0 -78.1222,0.006 -78.1222,0.0243 l 0.025,-23.12748 c 0.011,-2.01181 -0.5464,-3.10386 -1.4365,-3.16481 z m -144.1207,27.12001 c -9.2262,16.0249 -18.3665,31.84078 -18.3803,31.86724 -5.6978,9.68396 -5.7643,21.77572 -0.1217,31.5264 5.6266,9.75528 16.1208,15.76313 27.3634,15.678 l 38.5378,0 c 17.9069,0 32.4272,-14.49934 32.4272,-32.40283 l 0,-14.24165 c 0,-17.90347 -14.519,-32.42716 -32.4272,-32.42716 l -47.3992,0 z"
       style="fill:#dcdbdb;fill-opacity:1" />
  </g>
  <g
     id="g3167">
    <path
       id="rect3068"
       d="M 78.65625 6 C 63.792798 6 49.986224 10.429561 38.5 18.03125 L 38.5 493.96875 C 49.986224 501.57044 63.792798 506 78.65625 506 L 147.5 506 L 147.5 6 L 78.65625 6 z "
       style="opacity:0.05000000000000000;fill:url(#linearGradient3108);fill-opacity:1;stroke:none" />
    <path
       inkscape:connector-curvature="0"
       style="opacity:0.05;fill:url(#linearGradient3137);fill-opacity:1;stroke:none"
       d="m 147.50001,6 0,500 109,0 0,-500 -109,0 z"
       id="path3135" />
    <path
       id="path3139"
       d="m 256.50001,6 0,500 109,0 0,-500 -109,0 z"
       style="opacity:0.05;fill:url(#linearGradient3141);fill-opacity:1;stroke:none"
       inkscape:connector-curvature="0" />
    <path
       id="path3143"
       d="M 365.5 6 L 365.5 506 L 433.34375 506 C 448.1977 506 461.98692 501.56151 473.46875 493.96875 L 473.46875 18.03125 C 461.98692 10.438491 448.1977 6 433.34375 6 L 365.5 6 z "
       style="opacity:0.05000000000000000;fill:url(#linearGradient3145);fill-opacity:1;stroke:none" />
    <path
       id="path3151"
       d="M 38.5 18.03125 C 18.885717 31.012164 6 53.274894 6 78.65625 L 6 433.34375 C 6 458.72511 18.885717 480.98784 38.5 493.96875 L 38.5 18.03125 z "
       style="opacity:0.05000000000000000;fill:url(#linearGradient3153);fill-opacity:1;stroke:none" />
    <path
       id="path3147"
       d="M 473.46875 18.03125 L 473.46875 493.96875 C 493.09542 480.98993 506 458.73461 506 433.34375 L 506 78.65625 C 506 53.265388 493.09542 31.010071 473.46875 18.03125 z "
       style="opacity:0.05000000000000000;fill:url(#linearGradient3149);fill-opacity:1;stroke:none" />
  </g>
</svg>
