<?xml version="1.0" encoding="UTF-8" standalone="no"?>
<!-- Created with Inkscape (http://www.inkscape.org/) -->

<svg
   xmlns:dc="http://purl.org/dc/elements/1.1/"
   xmlns:cc="http://creativecommons.org/ns#"
   xmlns:rdf="http://www.w3.org/1999/02/22-rdf-syntax-ns#"
   xmlns:svg="http://www.w3.org/2000/svg"
   xmlns="http://www.w3.org/2000/svg"
   xmlns:xlink="http://www.w3.org/1999/xlink"
   xmlns:inkscape="http://www.inkscape.org/namespaces/inkscape"
   version="1.1"
   width="100%"
   height="100%"
   viewBox="0 0 512 512"
   id="svg2">
  <metadata
     id="metadata59">
    <rdf:RDF>
      <cc:Work
         rdf:about="">
        <dc:format>image/svg+xml</dc:format>
        <dc:type
           rdf:resource="http://purl.org/dc/dcmitype/StillImage" />
      </cc:Work>
    </rdf:RDF>
  </metadata>
  <defs
     id="defs4">
    <filter
       color-interpolation-filters="sRGB"
       id="7">
      <feGaussianBlur
         id="feGaussianBlur7"
         stdDeviation="3.7725" />
    </filter>
    <linearGradient
       y1="19.563999"
       x2="0"
       y2="504.01999"
       id="8"
       gradientUnits="userSpaceOnUse">
      <stop
         id="stop10"
         style="stop-color:#f3f3f3;stop-opacity:1"
         offset="0" />
      <stop
         id="stop12"
         style="stop-color:#eeeeee;stop-opacity:1"
         offset="0.5" />
      <stop
         id="stop14"
         style="stop-color:#ebebeb;stop-opacity:1"
         offset="1" />
    </linearGradient>
    <linearGradient
       x1="257"
       x2="362"
       id="5"
       xlink:href="#0"
       gradientUnits="userSpaceOnUse"
       gradientTransform="matrix(1.02835,0,0,1.46193,209.19,-118.25)" />
    <linearGradient
       x1="257"
       x2="362"
       id="6"
       xlink:href="#0"
       gradientUnits="userSpaceOnUse"
       gradientTransform="matrix(1.0381,0,0,1.46193,-337.29,-118.25)" />
    <linearGradient
       x1="257"
       x2="362"
       id="4"
       xlink:href="#0"
       gradientUnits="userSpaceOnUse"
       gradientTransform="matrix(1.02835,0,0,1.46193,101.22,-118.25)" />
    <linearGradient
       x1="257"
       x2="362"
       id="3"
       xlink:href="#0"
       gradientUnits="userSpaceOnUse"
       gradientTransform="matrix(1.0381,0,0,1.46193,-10.289,-118.25)" />
    <linearGradient
       id="0">
      <stop
         id="stop21"
         style="stop-color:#000000;stop-opacity:1"
         offset="0" />
      <stop
         id="stop23"
         style="stop-color:#ffffff;stop-opacity:1"
         offset="1" />
    </linearGradient>
    <linearGradient
       x1="257"
       x2="362"
       id="2"
       xlink:href="#0"
       gradientUnits="userSpaceOnUse"
       gradientTransform="matrix(1.0381,0,0,1.46193,-119.29,-118.25)" />
    <linearGradient
       x1="257"
       x2="362"
       id="1"
       xlink:href="#0"
       gradientUnits="userSpaceOnUse"
       gradientTransform="matrix(1.0381,0,0,1.46193,-228.29,-118.25)" />
  </defs>
  <path
     d="m 78.66,6 c -0.929,0 -1.861,0.028 -2.781,0.063 -0.073,0.003 -0.146,-0.003 -0.219,0 -0.668,0.027 -1.337,0.08 -2,0.125 -0.376,0.025 -0.751,0.063 -1.125,0.094 -0.645,0.053 -1.297,0.086 -1.938,0.156 -0.965,0.106 -1.922,0.232 -2.875,0.375 -0.052,0.008 -0.104,0.023 -0.156,0.031 -1.082,0.165 -2.154,0.351 -3.219,0.563 -0.459,0.091 -0.919,0.182 -1.375,0.281 -0.39,0.085 -0.769,0.19 -1.156,0.281 -0.647,0.152 -1.297,0.299 -1.938,0.469 -0.898,0.238 -1.804,0.479 -2.688,0.75 -0.211,0.065 -0.414,0.152 -0.625,0.219 -0.991,0.314 -1.966,0.645 -2.938,1 -0.817,0.298 -1.635,0.611 -2.438,0.938 -0.29,0.118 -0.587,0.222 -0.875,0.344 -0.136,0.057 -0.27,0.129 -0.406,0.188 -0.082,0.035 -0.169,0.058 -0.25,0.094 -0.717,0.311 -1.42,0.636 -2.125,0.969 -0.147,0.069 -0.291,0.148 -0.438,0.219 -0.947,0.455 -1.889,0.943 -2.813,1.438 -0.271,0.145 -0.544,0.289 -0.813,0.438 -0.414,0.228 -0.81,0.483 -1.219,0.719 -0.52,0.3 -1.051,0.594 -1.563,0.906 -0.738,0.452 -1.467,0.898 -2.188,1.375 -0.031,0.021 -0.062,0.042 -0.094,0.063 -0.456,0.303 -0.895,0.625 -1.344,0.938 -0.123,0.086 -0.252,0.163 -0.375,0.25 -0.524,0.37 -1.049,0.742 -1.563,1.125 -1.835,1.371 -3.618,2.84 -5.313,4.375 -0.017,0.015 -0.046,0.016 -0.063,0.031 -0.526,0.477 -1.02,0.977 -1.531,1.469 -0.524,0.505 -1.054,1.011 -1.563,1.531 -0.512,0.523 -1,1.055 -1.5,1.594 -0.941,1.022 -1.837,2.05 -2.719,3.125 -0.631,0.769 -1.244,1.58 -1.844,2.375 -0.111,0.148 -0.233,0.289 -0.344,0.438 -0.526,0.71 -1.031,1.427 -1.531,2.156 -0.11,0.16 -0.235,0.308 -0.344,0.469 -0.013,0.019 -0.018,0.043 -0.031,0.063 -0.084,0.125 -0.167,0.249 -0.25,0.375 -0.47,0.708 -0.929,1.431 -1.375,2.156 -0.071,0.116 -0.148,0.227 -0.219,0.344 -0.575,0.948 -1.124,1.899 -1.656,2.875 -0.152,0.278 -0.289,0.564 -0.438,0.844 -0.18,0.341 -0.356,0.687 -0.531,1.031 -0.243,0.479 -0.486,0.952 -0.719,1.438 -0.426,0.885 -0.828,1.783 -1.219,2.688 -0.24,0.556 -0.461,1.124 -0.688,1.688 -0.038,0.095 -0.087,0.186 -0.125,0.281 -0.246,0.621 -0.489,1.245 -0.719,1.875 -0.332,0.909 -0.641,1.825 -0.938,2.75 -0.11,0.345 -0.238,0.684 -0.344,1.031 -0.301,0.99 -0.585,1.992 -0.844,3 -0.008,0.032 -0.023,0.062 -0.031,0.094 -0.267,1.046 -0.497,2.092 -0.719,3.156 -0.034,0.166 -0.06,0.334 -0.094,0.5 -0.426,2.117 -0.762,4.257 -1,6.438 -0.035,0.323 -0.063,0.645 -0.094,0.969 -0.09,0.938 -0.165,1.895 -0.219,2.844 -0.017,0.29 -0.018,0.584 -0.031,0.875 -0.051,1.119 -0.094,2.243 -0.094,3.375 v 354.69 6 c 0,40.24 32.411,72.66 72.66,72.66 h 354.69 c 40.24,0 72.66,-32.411 72.66,-72.66 v -354.69 -6 c 0,-1.259 -0.031,-2.507 -0.094,-3.75 -0.016,-0.323 -0.042,-0.647 -0.063,-0.969 -0.058,-0.917 -0.127,-1.843 -0.219,-2.75 -0.02,-0.2 -0.041,-0.394 -0.063,-0.594 -0.246,-2.245 -0.587,-4.447 -1.031,-6.625 -0.021,-0.104 -0.041,-0.209 -0.063,-0.313 -0.227,-1.087 -0.476,-2.15 -0.75,-3.219 -0.011,-0.042 -0.02,-0.083 -0.031,-0.125 -0.19,-0.732 -0.413,-1.464 -0.625,-2.188 -0.212,-0.724 -0.423,-1.442 -0.656,-2.156 -0.258,-0.789 -0.529,-1.567 -0.813,-2.344 -0.23,-0.63 -0.472,-1.254 -0.719,-1.875 -0.038,-0.096 -0.087,-0.186 -0.125,-0.281 -0.239,-0.594 -0.465,-1.195 -0.719,-1.781 -0.378,-0.871 -0.777,-1.741 -1.188,-2.594 -0.233,-0.485 -0.475,-0.958 -0.719,-1.438 -0.287,-0.564 -0.574,-1.132 -0.875,-1.688 -0.051,-0.094 -0.105,-0.188 -0.156,-0.281 -0.513,-0.936 -1.041,-1.871 -1.594,-2.781 -0.212,-0.35 -0.438,-0.685 -0.656,-1.031 -0.405,-0.642 -0.795,-1.278 -1.219,-1.906 -0.809,-1.199 -1.685,-2.354 -2.563,-3.5 -0.262,-0.341 -0.514,-0.695 -0.781,-1.031 -0.189,-0.238 -0.371,-0.483 -0.563,-0.719 -0.093,-0.114 -0.188,-0.231 -0.281,-0.344 -2.71,-3.286 -5.696,-6.301 -8.938,-9.06 -0.293,-0.249 -0.578,-0.505 -0.875,-0.75 -0.268,-0.221 -0.541,-0.439 -0.813,-0.656 -0.636,-0.509 -1.284,-1.012 -1.938,-1.5 -3.17,-2.368 -6.55,-4.481 -10.09,-6.313 -0.617,-0.319 -1.248,-0.636 -1.875,-0.938 -0.155,-0.074 -0.313,-0.145 -0.469,-0.219 -0.785,-0.371 -1.575,-0.719 -2.375,-1.063 -0.488,-0.209 -0.975,-0.426 -1.469,-0.625 -0.735,-0.296 -1.472,-0.571 -2.219,-0.844 -0.392,-0.143 -0.793,-0.27 -1.188,-0.406 -0.718,-0.248 -1.459,-0.524 -2.188,-0.75 -0.114,-0.035 -0.23,-0.059 -0.344,-0.094 -0.488,-0.149 -0.977,-0.267 -1.469,-0.406 -0.357,-0.1 -0.703,-0.217 -1.063,-0.313 -0.019,-0.005 -0.043,0.005 -0.063,0 -0.837,-0.221 -1.683,-0.433 -2.531,-0.625 -0.032,-0.007 -0.062,-0.024 -0.094,-0.031 -0.651,-0.146 -1.311,-0.278 -1.969,-0.406 -1,-0.197 -2.01,-0.376 -3.03,-0.531 -0.063,-0.01 -0.125,-0.022 -0.188,-0.031 -0.952,-0.143 -1.88,-0.269 -2.844,-0.375 -0.836,-0.091 -1.687,-0.156 -2.531,-0.219 -0.176,-0.013 -0.355,-0.019 -0.531,-0.031 -0.735,-0.049 -1.478,-0.097 -2.219,-0.125 -0.92,-0.034 -1.853,-0.063 -2.781,-0.063 H 147.503 78.659"
     inkscape:connector-curvature="0"
     id="path27"
     style="fill-opacity:0.17600002;filter:url(#7)" />
  <rect
     width="500"
     height="500"
     rx="72.639999"
     x="6"
     y="12"
     id="rect29"
     style="opacity:0.15" />
  <rect
     width="500"
     height="500"
     rx="72.639999"
     x="6"
     y="6"
     id="rect31"
     style="fill:url(#8)" />
  <rect
     width="435"
     height="435"
     rx="63.200001"
     x="38.5"
     y="38.5"
     id="rect33"
     style="fill:#cd1d31" />
  <path
     d="M 101.69,38.5 C 66.68,38.5 38.5,66.67 38.5,101.69 v 15 C 38.5,81.68 66.67,53.5 101.69,53.5 h 308.63 c 35.01,0 63.19,28.17 63.19,63.19 v -15 C 473.51,66.68 445.34,38.5 410.32,38.5 H 101.7"
     inkscape:connector-curvature="0"
     id="path35"
     style="opacity:0.2" />
  <path
     d="M 78.66,6 C 38.42,6 6,38.411 6,78.66 v 7 C 6,45.42 38.411,13 78.66,13 h 354.69 c 40.24,0 72.66,32.411 72.66,72.66 v -7 C 506.01,38.42 473.599,6 433.35,6 H 78.66"
     inkscape:connector-curvature="0"
     id="path37"
     style="fill:#ffffff" />
  <g
     transform="translate(618.17,521.59)"
     id="g39">
    <path
       d="m -402.05,-90.89 c -39.646,-0.852 -57.02,-1.66 -61.76,-2.873 -13.698,-3.503 -23.929,-13.08 -28.677,-26.848 -1.497,-4.339 -2.141,-11.593 -3.298,-37.13 -1.27,-28.04 0.095,-79.15 2.405,-90.03 3.061,-14.424 14.913,-26.575 29.645,-30.392 14.698,-3.809 203.67,-3.809 218.37,0 13.07,3.386 24.07,13.455 28.443,26.04 1.444,4.153 1.848,7.136 2.719,20.11 2.062,30.703 1.136,94.99 -1.554,107.78 -2.899,13.792 -13.664,25.583 -27.299,29.902 -5.332,1.689 -14.951,2.273 -52.778,3.203 -24.349,0.599 -83.27,0.73 -106.22,0.237 m 149.42,-30.692 c 4.226,-1.068 8.492,-3.528 11.07,-6.387 4.845,-5.363 6.787,-11.275 7.473,-22.752 0.595,-9.959 0.933,-9.659 -10.832,-9.646 -4.963,0.005 -9.351,0.228 -9.751,0.495 -0.404,0.269 -0.93,3.707 -1.185,7.742 -0.252,3.991 -0.622,7.911 -0.822,8.711 -0.433,1.731 -4.129,3.159 -6.582,2.543 -2.871,-0.721 -3.55,-3.687 -3.55,-15.522 v -10.577 h 15.81 c 14.956,0 15.847,-0.069 16.493,-1.276 0.862,-1.61 0.869,-23.01 0.01,-29.731 -1.371,-10.734 -6.01,-17.858 -13.979,-21.467 -7.287,-3.299 -17.981,-3.067 -25.25,0.55 -6.388,3.179 -11.357,9.128 -13.574,16.25 -1.182,3.799 -1.284,6.225 -1.284,30.752 0,17.356 0.261,27.845 0.748,30.12 3.01,14.07 14.171,22.326 28.61,21.17 2.177,-0.174 5.141,-0.616 6.586,-0.981 m -14.07,-70.39 c 0.184,-5.285 0.466,-6.794 1.484,-7.917 1.436,-1.585 5.387,-1.894 7.202,-0.562 1.228,0.901 2.416,6.725 2.422,11.875 l 0.004,3.134 h -5.67 -5.67 l 0.227,-6.53 m -130.86,69.51 c 1.876,-0.557 5.344,-2.336 7.707,-3.954 l 4.296,-2.941 v 2.02 c 0,4.428 0.339,4.57 10.886,4.57 8.737,0 9.576,-0.105 10.203,-1.276 0.452,-0.845 0.683,-16.884 0.683,-47.45 0,-41.1 -0.114,-46.29 -1.037,-47.21 -1.521,-1.521 -18.18,-1.521 -19.698,0 -0.917,0.917 -1.037,5.12 -1.037,36.28 v 35.24 l -3.134,2.299 c -4.091,3 -6.445,3.092 -7.01,0.27 -0.227,-1.134 -0.412,-18.15 -0.412,-37.802 0,-26.919 -0.195,-35.936 -0.792,-36.533 -1.101,-1.101 -18.427,-1.101 -19.528,0 -0.599,0.599 -0.792,10.832 -0.792,42.01 0,46.754 0.016,46.933 4.713,51.631 3.818,3.818 8.614,4.732 14.951,2.85 m 89.19,-0.75 c 3.282,-1.337 6.923,-5.126 8.701,-9.05 l 1.525,-3.369 v -34.636 -34.636 l -1.579,-3.919 c -2,-4.97 -6.555,-9.644 -10.549,-10.831 -1.591,-0.473 -4.655,-0.851 -6.81,-0.841 -3.228,0.015 -4.669,0.432 -8.181,2.362 -2.345,1.289 -4.401,2.343 -4.57,2.343 -0.169,0 -0.307,-8.132 -0.307,-18.07 0,-15.871 -0.127,-18.12 -1.044,-18.472 -2.02,-0.775 -18.443,-0.442 -19.276,0.391 -1.148,1.148 -1.148,127.24 0,128.38 0.833,0.833 17.255,1.167 19.276,0.391 0.574,-0.22 1.044,-1.089 1.044,-1.931 v -1.531 l 3.986,2.056 c 6.156,3.175 12.202,3.638 17.785,1.364 m -19.297,-18.529 -1.814,-1.125 v -28.556 -28.556 l 2.239,-1.068 c 2.917,-1.391 5.372,-0.755 6.655,1.726 1.52,2.939 1.497,55.1 -0.025,57.27 -1.257,1.795 -4.431,1.933 -7.05,0.306 m -106.18,18.18 c 0.603,-0.603 0.792,-13.44 0.792,-53.75 v -52.959 l 9.731,-0.183 9.731,-0.183 0.182,-10.506 c 0.138,-7.963 -0.022,-10.635 -0.66,-11.04 -1.284,-0.815 -59.717,-0.692 -61.25,0.128 -1.173,0.628 -1.276,1.469 -1.276,10.424 0,6.697 0.247,9.988 0.792,10.532 0.539,0.539 3.694,0.792 9.896,0.792 h 9.104 v 52.731 c 0,47.06 0.112,52.843 1.037,53.768 0.852,0.852 2.83,1.037 11.08,1.037 6.934,0 10.292,-0.245 10.838,-0.792 m 73.55,-175.62 c -6.241,-2.032 -11.271,-6.164 -13.961,-11.468 -2.589,-5.104 -2.817,-8.506 -2.6,-38.741 l 0.209,-29.03 1.721,-3.629 c 3.387,-7.14 9.05,-11.07 18.239,-12.644 11.983,-2.055 22.321,2.986 27.12,13.224 l 1.738,3.708 0.212,28.698 c 0.151,20.452 -0.014,29.741 -0.574,32.33 -1.718,7.934 -6.554,14.05 -13.13,16.6 -4.612,1.79 -14.824,2.302 -18.972,0.951 m 12.885,-16.779 c 1.128,-1.054 2.178,-2.849 2.411,-4.123 0.227,-1.241 0.324,-14.232 0.216,-28.869 l -0.197,-26.612 -1.817,-1.562 c -2.54,-2.184 -6.02,-2.723 -8.849,-1.372 -4.086,1.948 -4.179,2.646 -4.175,31.23 0.002,15.5 0.271,26.549 0.682,28.03 1.447,5.212 7.767,6.977 11.728,3.277 m 43.844,16.414 c -3.246,-0.793 -5.293,-2.412 -6.935,-5.486 l -1.493,-2.794 -0.184,-42.39 -0.184,-42.39 h 8.239 8.239 l 0.191,36.78 c 0.105,20.229 0.435,37.27 0.733,37.874 0.298,0.602 1.373,1.438 2.388,1.859 2.339,0.969 5.135,-0.132 9.109,-3.587 l 2.804,-2.438 v -35.24 -35.24 h 8.576 8.576 v 46.18 46.18 h -8.576 -8.576 v -5 -5 l -3.793,3.387 c -6.351,5.67 -13.94,8.572 -19.12,7.307 m -114.52,-1.116 c -0.251,-0.251 -0.457,-11.702 -0.457,-25.445 v -24.988 l -11.215,-36.869 c -6.168,-20.278 -11.215,-37.04 -11.215,-37.25 0,-0.208 4.258,-0.377 9.462,-0.377 h 9.462 l 6.207,24.467 c 6.112,24.09 6.765,26.324 7.489,25.6 0.278,-0.278 6.544,-25.825 11.917,-48.582 0.343,-1.455 0.54,-1.484 9.904,-1.484 5.436,0 9.553,0.264 9.553,0.612 0,0.337 -4.824,16.15 -10.721,35.13 l -10.721,34.518 -0.33,27.379 -0.33,27.379 -9.274,0.182 c -5.101,0.1 -9.48,-0.024 -9.731,-0.275"
       inkscape:connector-curvature="0"
       id="path41"
       style="opacity:0.2" />
    <path
       d="m -417.05,-105.89 c -39.646,-0.852 -57.02,-1.66 -61.76,-2.873 -13.698,-3.503 -23.929,-13.08 -28.677,-26.848 -1.497,-4.339 -2.141,-11.593 -3.298,-37.13 -1.27,-28.04 0.095,-79.15 2.405,-90.03 3.061,-14.424 14.913,-26.575 29.645,-30.392 14.698,-3.809 203.67,-3.809 218.37,0 13.07,3.386 24.07,13.455 28.443,26.04 1.444,4.153 1.848,7.136 2.719,20.11 2.062,30.703 1.136,94.99 -1.554,107.78 -2.899,13.792 -13.664,25.583 -27.299,29.902 -5.332,1.689 -14.951,2.273 -52.778,3.203 -24.349,0.599 -83.27,0.73 -106.22,0.237 m 149.42,-30.692 c 4.226,-1.068 8.492,-3.528 11.07,-6.387 4.845,-5.363 6.787,-11.275 7.473,-22.752 0.595,-9.959 0.933,-9.659 -10.832,-9.646 -4.963,0.005 -9.351,0.228 -9.751,0.495 -0.404,0.269 -0.93,3.707 -1.185,7.742 -0.252,3.991 -0.622,7.911 -0.822,8.711 -0.433,1.731 -4.129,3.159 -6.582,2.543 -2.871,-0.721 -3.55,-3.687 -3.55,-15.522 v -10.577 h 15.81 c 14.956,0 15.847,-0.069 16.493,-1.276 0.862,-1.61 0.869,-23.01 0.01,-29.731 -1.371,-10.734 -6.01,-17.858 -13.979,-21.467 -7.287,-3.299 -17.981,-3.067 -25.25,0.55 -6.388,3.179 -11.357,9.128 -13.574,16.25 -1.182,3.799 -1.284,6.225 -1.284,30.752 0,17.356 0.261,27.845 0.748,30.12 3.01,14.07 14.171,22.326 28.61,21.17 2.177,-0.174 5.141,-0.616 6.586,-0.981 m -14.07,-70.39 c 0.184,-5.285 0.466,-6.794 1.484,-7.917 1.436,-1.585 5.387,-1.894 7.202,-0.562 1.228,0.901 2.416,6.725 2.422,11.875 l 0.004,3.134 h -5.67 -5.67 l 0.227,-6.53 m -130.86,69.51 c 1.876,-0.557 5.344,-2.336 7.707,-3.954 l 4.296,-2.941 v 2.02 c 0,4.428 0.339,4.57 10.886,4.57 8.737,0 9.576,-0.105 10.203,-1.276 0.452,-0.845 0.683,-16.884 0.683,-47.45 0,-41.1 -0.114,-46.29 -1.037,-47.21 -1.521,-1.521 -18.18,-1.521 -19.698,0 -0.917,0.917 -1.037,5.12 -1.037,36.28 v 35.24 l -3.134,2.299 c -4.091,3 -6.445,3.092 -7.01,0.27 -0.227,-1.134 -0.412,-18.15 -0.412,-37.802 0,-26.919 -0.195,-35.936 -0.792,-36.533 -1.101,-1.101 -18.427,-1.101 -19.528,0 -0.599,0.599 -0.792,10.832 -0.792,42.01 0,46.754 0.016,46.933 4.713,51.631 3.818,3.818 8.614,4.732 14.951,2.85 m 89.19,-0.75 c 3.282,-1.337 6.923,-5.126 8.701,-9.05 l 1.525,-3.369 v -34.636 -34.636 l -1.579,-3.919 c -2,-4.97 -6.555,-9.644 -10.549,-10.831 -1.591,-0.473 -4.655,-0.851 -6.81,-0.841 -3.228,0.015 -4.669,0.432 -8.181,2.362 -2.345,1.289 -4.401,2.343 -4.57,2.343 -0.169,0 -0.307,-8.132 -0.307,-18.07 0,-15.871 -0.127,-18.12 -1.044,-18.472 -2.02,-0.775 -18.443,-0.442 -19.276,0.391 -1.148,1.148 -1.148,127.24 0,128.38 0.833,0.833 17.255,1.167 19.276,0.391 0.574,-0.22 1.044,-1.089 1.044,-1.931 v -1.531 l 3.986,2.056 c 6.156,3.175 12.202,3.638 17.785,1.364 m -19.297,-18.529 -1.814,-1.125 v -28.556 -28.556 l 2.239,-1.068 c 2.917,-1.391 5.372,-0.755 6.655,1.726 1.52,2.939 1.497,55.1 -0.025,57.27 -1.257,1.795 -4.431,1.933 -7.05,0.306 m -106.18,18.18 c 0.603,-0.603 0.792,-13.44 0.792,-53.75 v -52.959 l 9.731,-0.183 9.731,-0.183 0.182,-10.506 c 0.138,-7.963 -0.022,-10.635 -0.66,-11.04 -1.284,-0.815 -59.717,-0.692 -61.25,0.128 -1.173,0.628 -1.276,1.469 -1.276,10.424 0,6.697 0.247,9.988 0.792,10.532 0.539,0.539 3.694,0.792 9.896,0.792 h 9.104 v 52.731 c 0,47.06 0.112,52.843 1.037,53.768 0.852,0.852 2.83,1.037 11.08,1.037 6.934,0 10.292,-0.245 10.838,-0.792 m 73.55,-175.62 c -6.241,-2.032 -11.271,-6.164 -13.961,-11.468 -2.589,-5.104 -2.817,-8.506 -2.6,-38.741 l 0.209,-29.03 1.721,-3.629 c 3.387,-7.14 9.05,-11.07 18.239,-12.644 11.983,-2.055 22.321,2.986 27.12,13.224 l 1.738,3.708 0.212,28.698 c 0.151,20.452 -0.014,29.741 -0.574,32.33 -1.718,7.934 -6.554,14.05 -13.13,16.6 -4.612,1.79 -14.824,2.302 -18.972,0.951 m 12.885,-16.779 c 1.128,-1.054 2.178,-2.849 2.411,-4.123 0.227,-1.241 0.324,-14.232 0.216,-28.869 l -0.197,-26.612 -1.817,-1.562 c -2.54,-2.184 -6.02,-2.723 -8.849,-1.372 -4.086,1.948 -4.179,2.646 -4.175,31.23 0.002,15.5 0.271,26.549 0.682,28.03 1.447,5.212 7.767,6.977 11.728,3.277 m 43.844,16.414 c -3.246,-0.793 -5.293,-2.412 -6.935,-5.486 l -1.493,-2.794 -0.184,-42.39 -0.184,-42.39 h 8.239 8.239 l 0.191,36.78 c 0.105,20.229 0.435,37.27 0.733,37.874 0.298,0.602 1.373,1.438 2.388,1.859 2.339,0.969 5.135,-0.132 9.109,-3.587 l 2.804,-2.438 v -35.24 -35.24 h 8.576 8.576 v 46.18 46.18 h -8.576 -8.576 v -5 -5 l -3.793,3.387 c -6.351,5.67 -13.94,8.572 -19.12,7.307 m -114.52,-1.116 c -0.251,-0.251 -0.457,-11.702 -0.457,-25.445 v -24.988 l -11.215,-36.869 c -6.168,-20.278 -11.215,-37.04 -11.215,-37.25 0,-0.208 4.258,-0.377 9.462,-0.377 h 9.462 l 6.207,24.467 c 6.112,24.09 6.765,26.324 7.489,25.6 0.278,-0.278 6.544,-25.825 11.917,-48.582 0.343,-1.455 0.54,-1.484 9.904,-1.484 5.436,0 9.553,0.264 9.553,0.612 0,0.337 -4.824,16.15 -10.721,35.13 l -10.721,34.518 -0.33,27.379 -0.33,27.379 -9.274,0.182 c -5.101,0.1 -9.48,-0.024 -9.731,-0.275"
       inkscape:connector-curvature="0"
       id="path43"
       style="fill:#dcdbdb" />
  </g>
  <path
     d="M 78.66,6 C 63.797,6 49.99,10.43 38.5,18.03 V 493.97 C 49.986,501.572 63.793,506 78.66,506 h 68.844 V 6 H 78.66"
     inkscape:connector-curvature="0"
     id="path45"
     style="opacity:0.05;fill:url(#1)" />
  <path
     d="m 147.5,6 v 500 h 109 V 6 h -109"
     inkscape:connector-curvature="0"
     id="path47"
     style="opacity:0.05;fill:url(#2)" />
  <path
     d="m 256.5,6 v 500 h 109 V 6 h -109"
     inkscape:connector-curvature="0"
     id="path49"
     style="opacity:0.05;fill:url(#3)" />
  <path
     d="m 365.5,6 v 500 h 67.844 c 14.854,0 28.643,-4.438 40.13,-12.03 V 18.03 C 461.992,10.437 448.204,6 433.354,6 H 365.51"
     inkscape:connector-curvature="0"
     id="path51"
     style="opacity:0.05;fill:url(#4)" />
  <path
     d="M 38.5,18.03 C 18.886,31.011 6,53.27 6,78.66 v 354.69 c 0,25.381 12.886,47.644 32.5,60.63 V 18.04"
     inkscape:connector-curvature="0"
     id="path53"
     style="opacity:0.05;fill:url(#6)" />
  <path
     d="m 473.47,18.03 v 475.94 c 19.627,-12.979 32.531,-35.23 32.531,-60.62 V 78.66 c 0,-25.391 -12.905,-47.646 -32.531,-60.62"
     inkscape:connector-curvature="0"
     id="path55"
     style="opacity:0.05;fill:url(#5)" />
</svg>
