<svg xmlns="http://www.w3.org/2000/svg" xmlns:xlink="http://www.w3.org/1999/xlink" viewBox="0 0 512 512"><defs><linearGradient xlink:href="#0" id="5" gradientUnits="userSpaceOnUse" gradientTransform="matrix(1 0 0 1.46193 105-120.87)" x1="257" x2="362"/><linearGradient xlink:href="#0" id="4" gradientUnits="userSpaceOnUse" gradientTransform="matrix(1 0 0 1.46193 0-121.25)" x1="257" x2="362"/><linearGradient xlink:href="#0" id="6" gradientUnits="userSpaceOnUse" gradientTransform="matrix(1 0 0 1.46193-315.04-121.25)" x1="257" x2="362"/><linearGradient xlink:href="#0" id="3" gradientUnits="userSpaceOnUse" gradientTransform="matrix(1 0 0 1.46193-105-121.25)" x1="257" x2="362"/><linearGradient xlink:href="#0" id="1" gradientUnits="userSpaceOnUse" gradientTransform="matrix(1 0 0 1.46193 210-120.87)" x1="257" x2="362"/><linearGradient id="0"><stop/><stop offset="1" stop-color="#fff"/></linearGradient><linearGradient xlink:href="#0" id="2" gradientUnits="userSpaceOnUse" gradientTransform="matrix(1 0 0 1.46193-210-121.25)" x1="257" x2="362"/></defs><rect width="500" height="500" x="6" y="9" rx="72.64" opacity=".2"/><rect rx="72.64" y="3" x="6" height="500" width="500" fill="#f3f3f3"/><rect width="435" height="435" x="38.5" y="38.5" rx="63.2" fill="#cd1d31"/><g transform="translate(-.51-1.824)"><path d="m196.01 115.92v10.583h-29.508c-22.12 0-39.907 17.816-39.907 39.938v194.96c0 22.12 17.785 39.938 39.907 39.938h29.324v.951h.061l.245 13.558c0 11.347 12.529 21.414 26.638 14.941 5.585-2.503 13.431-6.114 24.71-11.322l36.932-18.07v-.061h77.08c22.12 0 39.937-17.816 39.938-39.938v-194.96c0-22.12-17.816-39.938-39.938-39.938h-77.943l-25.15-10.981c-13.744-6.188-29.771-13.407-35.77-16.11-12.754-6.195-26.615 7.143-26.621 16.51m56.747 36.26c7.336 2.547 14.823 4.862 22.12 7.454 21.42.021 43.691 0 63.13 0 16.789 0 30.31 13.517 30.31 30.31v147.97c0 16.789-13.517 30.31-30.31 30.31-20.286.086-41.943-.08-61.686-.061-7.787 3.388-15.855 6.908-23.545 10.252-23.886 6.4-22.403-10.194-22.403-21.804-.107-19.893-.155-49.839-.155-91.21 0-40.598.035-76.74.088-98.98 0-14.222 9.06-17.832 22.457-14.242m-62.728 7.454h5.797c.286 0 .184-.001.184 1.779v103.31 103.31c0 .235-.05.184-.184.184h-5.797c-16.789 0-30.31-13.517-30.31-30.31v-147.97c0-16.789 13.517-30.31 30.31-30.31" opacity=".2"/><path d="m181.01 100.92v10.583h-29.508c-22.12 0-39.907 17.816-39.907 39.938v194.96c0 22.12 17.785 39.938 39.907 39.938h29.324v.951h.061l.245 13.558c0 11.347 12.529 21.414 26.638 14.941 5.585-2.503 13.431-6.114 24.71-11.322l36.932-18.07v-.061h77.08c22.12 0 39.937-17.816 39.938-39.938v-194.96c0-22.12-17.816-39.938-39.938-39.938h-77.943l-25.15-10.981c-13.744-6.188-29.771-13.407-35.77-16.11-12.754-6.195-26.615 7.143-26.621 16.51m56.747 36.26c7.336 2.547 14.823 4.862 22.12 7.454 21.42.021 43.691 0 63.13 0 16.789 0 30.31 13.517 30.31 30.31v147.97c0 16.789-13.517 30.31-30.31 30.31-20.286.086-41.943-.08-61.686-.061-7.787 3.388-15.855 6.908-23.545 10.252-23.886 6.4-22.403-10.194-22.403-21.804-.107-19.893-.155-49.839-.155-91.21 0-40.598.035-76.74.088-98.98 0-14.222 9.06-17.832 22.457-14.242m-62.728 7.454h5.797c.286 0 .184-.001.184 1.779v103.31 103.31c0 .235-.05.184-.184.184h-5.797c-16.789 0-30.31-13.517-30.31-30.31v-147.97c0-16.789 13.517-30.31 30.31-30.31" fill="#dcdbdb"/></g><path d="m101.69 38.5c-35.01 0-63.19 28.17-63.19 63.19v15c0-35.01 28.17-63.19 63.19-63.19h308.63c35.01 0 63.19 28.17 63.19 63.19v-15c0-35.01-28.17-63.19-63.19-63.19h-308.62" opacity=".2"/><path d="m467 11.219v483.56c23.21-12.1 39-36.35 39-64.44v-354.69c0-28.08-15.789-52.34-39-64.44" opacity=".05" fill="url(#1)"/><path d="m78.66 3c-11.359 0-22.1 2.609-31.656 7.219v485.56c9.557 4.61 20.297 7.219 31.656 7.219h73.34v-500h-73.34" opacity=".05" fill="url(#2)"/><path d="m152 3v500h105v-500h-105" opacity=".05" fill="url(#3)"/><path d="m257 3v500h105v-500h-105" opacity=".05" fill="url(#4)"/><path d="m362 3v500h71.34c12.161 0 23.606-2.98 33.656-8.219v-483.56c-10.05-5.239-21.496-8.219-33.656-8.219h-71.34" opacity=".05" fill="url(#5)"/><path d="m46.969 10.219c-24.289 11.728-40.969 36.562-40.969 65.44v354.69c0 28.876 16.679 53.709 40.969 65.44v-485.56" opacity=".05" fill="url(#6)"/></svg>