<?xml version="1.0" encoding="UTF-8" standalone="no"?>
<svg
   xmlns:dc="http://purl.org/dc/elements/1.1/"
   xmlns:cc="http://creativecommons.org/ns#"
   xmlns:rdf="http://www.w3.org/1999/02/22-rdf-syntax-ns#"
   xmlns:svg="http://www.w3.org/2000/svg"
   xmlns="http://www.w3.org/2000/svg"
   xmlns:xlink="http://www.w3.org/1999/xlink"
   xmlns:sodipodi="http://sodipodi.sourceforge.net/DTD/sodipodi-0.dtd"
   xmlns:inkscape="http://www.inkscape.org/namespaces/inkscape"
   viewBox="0 0 512 512"
   id="svg2"
   version="1.1"
   inkscape:version="0.48.4 r9939"
   width="100%"
   height="100%"
   sodipodi:docname="base.svg">
  <sodipodi:namedview
     pagecolor="#444444"
     bordercolor="#666666"
     borderopacity="1"
     objecttolerance="10"
     gridtolerance="10"
     guidetolerance="10"
     inkscape:pageopacity="0"
     inkscape:pageshadow="2"
     inkscape:window-width="1310"
     inkscape:window-height="718"
     id="namedview6"
     showgrid="false"
     showguides="true"
     inkscape:guide-bbox="true"
     inkscape:zoom="0.36635945"
     inkscape:cx="219.78272"
     inkscape:cy="315.7241"
     inkscape:window-x="54"
     inkscape:window-y="27"
     inkscape:window-maximized="1"
     inkscape:current-layer="svg2"
     inkscape:snap-midpoints="true"
     inkscape:snap-global="false">
    <sodipodi:guide
       id="guide2989"
       position="522.57628,433.35594"
       orientation="0,1" />
    <sodipodi:guide
       id="guide2995"
       position="473.05444,254.912"
       orientation="1,0" />
  </sodipodi:namedview>
  <metadata
     id="metadata10">
    <rdf:RDF>
      <cc:Work
         rdf:about="">
        <dc:format>image/svg+xml</dc:format>
        <dc:type
           rdf:resource="http://purl.org/dc/dcmitype/StillImage" />
        <dc:title></dc:title>
      </cc:Work>
    </rdf:RDF>
  </metadata>
  <defs
     id="defs8">
    <linearGradient
       id="linearGradient4996">
      <stop
         style="stop-color:#000000;stop-opacity:1;"
         offset="0"
         id="stop4998" />
      <stop
         style="stop-color:#ffffff;stop-opacity:1;"
         offset="1"
         id="stop5000" />
    </linearGradient>
    <linearGradient
       inkscape:collect="always"
       xlink:href="#linearGradient4996"
       id="linearGradient3108"
       gradientUnits="userSpaceOnUse"
       gradientTransform="matrix(1.0380952,0,0,1.4619252,-228.28943,-118.25286)"
       x1="257"
       y1="256"
       x2="362"
       y2="256" />
    <linearGradient
       inkscape:collect="always"
       xlink:href="#linearGradient4996"
       id="linearGradient3137"
       gradientUnits="userSpaceOnUse"
       gradientTransform="matrix(1.0380952,0,0,1.4619252,-119.28943,-118.25286)"
       x1="257"
       y1="256"
       x2="362"
       y2="256" />
    <linearGradient
       inkscape:collect="always"
       xlink:href="#linearGradient4996"
       id="linearGradient3141"
       gradientUnits="userSpaceOnUse"
       gradientTransform="matrix(1.0380952,0,0,1.4619252,-10.28943,-118.25286)"
       x1="257"
       y1="256"
       x2="362"
       y2="256" />
    <linearGradient
       inkscape:collect="always"
       xlink:href="#linearGradient4996"
       id="linearGradient3145"
       gradientUnits="userSpaceOnUse"
       gradientTransform="matrix(1.0283468,0,0,1.4619252,101.21591,-118.25286)"
       x1="257"
       y1="256"
       x2="362"
       y2="256" />
    <linearGradient
       inkscape:collect="always"
       xlink:href="#linearGradient4996"
       id="linearGradient3149"
       gradientUnits="userSpaceOnUse"
       gradientTransform="matrix(1.0283468,0,0,1.4619252,209.19233,-118.25286)"
       x1="257"
       y1="256"
       x2="362"
       y2="256" />
    <linearGradient
       inkscape:collect="always"
       xlink:href="#linearGradient4996"
       id="linearGradient3153"
       gradientUnits="userSpaceOnUse"
       gradientTransform="matrix(1.0380952,0,0,1.4619252,-337.28943,-118.25286)"
       x1="257"
       y1="256"
       x2="362"
       y2="256" />
  </defs>
  <rect
     style="opacity:0.2;fill:#000000;fill-opacity:1;stroke:none"
     id="rect5028"
     width="500"
     height="500"
     x="6"
     y="12"
     rx="72.644058"
     ry="72.644058" />
  <rect
     ry="72.644058"
     rx="72.644058"
     y="6"
     x="6"
     height="500"
     width="500"
     id="rect4979"
     style="fill:#f3f3f3;fill-opacity:1;stroke:none" />
  <rect
     style="fill:#ffa319;fill-opacity:1;stroke:none"
     id="rect4981"
     width="434.99997"
     height="434.99997"
     x="38.500011"
     y="38.500011"
     rx="63.200329"
     ry="63.200329" />
  <path
     style="fill:#000000;fill-opacity:1;stroke:none;opacity:0.2"
     d="M 101.6875 38.5 C 66.674518 38.5 38.5 66.674518 38.5 101.6875 L 38.5 116.6875 C 38.5 81.674518 66.674518 53.5 101.6875 53.5 L 410.3125 53.5 C 445.32548 53.5 473.5 81.674518 473.5 116.6875 L 473.5 101.6875 C 473.5 66.674518 445.32548 38.5 410.3125 38.5 L 101.6875 38.5 z "
     id="rect3187" />
  <text
     style="font-size:129.22999573px;line-height:125%;letter-spacing:0;word-spacing:0;font-family:Gentium Book Basic"
     sodipodi:linespacing="125%"
     font-size="129.23"
     letter-spacing="0"
     line-height="125%"
     word-spacing="0"
     x="206.14316"
     y="142.07069"
     id="text3051">
    <tspan
       x="206.14316"
       y="142.07069"
       id="tspan3053" />
  </text>
  <text
     style="font-size:46.95375824px;text-anchor:middle;font-family:Arial"
     x="248.45198"
     y="220.94505"
     font-size="46.954"
     transform="scale(4.0128205,0.24920128)"
     id="text3055" />
  <text
     style="font-size:129.22999573px;line-height:125%;letter-spacing:0;word-spacing:0;font-family:Gentium Book Basic"
     sodipodi:linespacing="125%"
     font-size="129.23"
     letter-spacing="0"
     line-height="125%"
     word-spacing="0"
     x="787.41315"
     y="62.07069"
     id="text3057">
    <tspan
       x="787.41315"
       y="62.07069"
       id="tspan3059" />
  </text>
  <text
     style="font-size:46.95375824px;text-anchor:middle;font-family:Arial"
     x="393.30124"
     y="-100.0833"
     font-size="46.954"
     transform="scale(4.0128205,0.24920128)"
     id="text3061" />
  <text
     style="font-size:129.22999573px;line-height:125%;letter-spacing:0;word-spacing:0;font-family:Gentium Book Basic"
     sodipodi:linespacing="125%"
     font-size="129.23"
     letter-spacing="0"
     line-height="125%"
     word-spacing="0"
     x="-284.16687"
     y="-119.19031"
     id="text3063">
    <tspan
       x="-284.16687"
       y="-119.19031"
       id="tspan3065" />
  </text>
  <text
     style="font-size:46.95375824px;text-anchor:middle;font-family:Arial"
     x="126.2626"
     y="-827.43958"
     font-size="46.954"
     transform="scale(4.0128205,0.24920128)"
     id="text3067" />
  <text
     style="font-size:129.22999573px;line-height:125%;letter-spacing:0;word-spacing:0;font-family:Gentium Book Basic"
     sodipodi:linespacing="125%"
     font-size="129.23"
     letter-spacing="0"
     line-height="125%"
     word-spacing="0"
     x="813.88312"
     y="-335.6593"
     id="text3069">
    <tspan
       x="813.88312"
       y="-335.6593"
       id="tspan3071" />
  </text>
  <text
     style="font-size:46.95375824px;text-anchor:middle;font-family:Arial"
     x="399.90118"
     y="-1696.1052"
     font-size="46.954"
     transform="scale(4.0128205,0.24920128)"
     id="text3073" />
  <text
     style="font-size:129.22999573px;line-height:125%;letter-spacing:0;word-spacing:0;font-family:Gentium Book Basic"
     sodipodi:linespacing="125%"
     font-size="129.23"
     letter-spacing="0"
     line-height="125%"
     word-spacing="0"
     x="1395.1532"
     y="-415.66931"
     id="text3075">
    <tspan
       x="1395.1532"
       y="-415.66931"
       id="tspan3077" />
  </text>
  <text
     style="font-size:46.95375824px;text-anchor:middle;font-family:Arial"
     x="544.75049"
     y="-2017.1434"
     font-size="46.954"
     transform="scale(4.0128205,0.24920128)"
     id="text3079" />
  <text
     style="font-size:129.22999573px;line-height:125%;letter-spacing:0;word-spacing:0;font-family:Gentium Book Basic"
     sodipodi:linespacing="125%"
     font-size="129.23"
     letter-spacing="0"
     line-height="125%"
     word-spacing="0"
     x="1006.0331"
     y="-888.06934"
     id="text3081">
    <tspan
       x="1006.0331"
       y="-888.06934"
       id="tspan3083" />
  </text>
  <text
     style="font-size:46.95375824px;text-anchor:middle;font-family:Arial"
     x="447.78094"
     y="-3912.7937"
     font-size="46.954"
     transform="scale(4.0128205,0.24920128)"
     id="text3085" />
  <text
     style="font-size:129.22999573px;line-height:125%;letter-spacing:0;word-spacing:0;font-family:Gentium Book Basic"
     sodipodi:linespacing="125%"
     font-size="129.23"
     letter-spacing="0"
     line-height="125%"
     word-spacing="0"
     x="1587.2932"
     y="-968.06934"
     id="text3087">
    <tspan
       x="1587.2932"
       y="-968.06934"
       id="tspan3089" />
  </text>
  <text
     style="font-size:46.95375824px;text-anchor:middle;font-family:Arial"
     x="592.63025"
     y="-4233.8223"
     font-size="46.954"
     transform="scale(4.0128205,0.24920128)"
     id="text3091" />
  <text
     style="font-size:208.33000183px;line-height:125%;letter-spacing:0;word-spacing:0;font-family:Gentium Book Basic"
     sodipodi:linespacing="125%"
     font-size="208.33"
     letter-spacing="0"
     line-height="125%"
     word-spacing="0"
     x="-245.50687"
     y="446.6507"
     id="text3093">
    <tspan
       x="-245.50687"
       y="446.6507"
       id="tspan3095" />
  </text>
  <g
     id="g3197"
     transform="translate(7.9577429,511.51746)">
    <g
       style="opacity:0.2;fill:#000000;fill-opacity:1;fill-rule:evenodd"
       id="g3187"
       transform="matrix(1.197626,0,0,1.197626,-51.045959,-554.6181)">
      <path
         style="fill:#000000;fill-opacity:1"
         inkscape:connector-curvature="0"
         d="m 256.44,139.47 c -31.02,0 -65.67,11.543 -72.969,49.906 -0.734,4.084 2.213,6.247 4.875,6.844 l 31.656,3.406 c 2.937,-0.138 5.106,-3.03 5.656,-5.969 2.707,-13.216 13.814,-19.594 26.25,-19.594 6.7,0 14.32,2.457 18.313,8.469 4.543,6.7 3.906,15.901 3.906,23.656 v 4.188 c -18.907,2.157 -43.63,3.542 -61.34,11.344 -20.421,8.811 -34.781,26.865 -34.781,53.34 0,33.912 21.402,50.844 48.844,50.844 23.22,0 35.884,-5.455 53.781,-23.719 5.966,8.581 7.889,12.756 18.719,21.75 2.432,1.285 5.531,1.146 7.688,-0.781 l 0.125,0.063 c 6.516,-5.782 18.315,-16.07 24.969,-21.625 2.662,-2.203 2.236,-5.751 0.125,-8.688 -5.966,-8.26 -12.313,-14.969 -12.313,-30.25 v -50.813 c 0,-21.522 1.534,-41.3 -14.344,-56.12 -12.528,-12.02 -33.28,-16.25 -49.16,-16.25 m 17.688,97.09 v 7.03 c 0,12.711 0.331,23.336 -6.094,34.625 -5.186,9.178 -13.385,14.844 -22.563,14.844 -12.528,0 -19.813,-9.568 -19.813,-23.656 0,-27.809 24.881,-32.844 48.47,-32.844"
         id="path3189" />
      <g
         style="fill:#000000;fill-opacity:1"
         id="g3191">
        <path
           inkscape:connector-curvature="0"
           d="m 375.31,309.53 c -9.789,0.135 -21.353,2.324 -30.11,8.484 -2.707,1.881 -2.234,4.506 0.771,4.139 9.866,-1.17 31.836,-3.819 35.737,1.183 3.924,5.02 -4.353,25.716 -8.05,34.94 -1.124,2.799 1.281,3.911 3.805,1.8 16.451,-13.744 20.678,-42.537 17.329,-46.69 -1.675,-2.065 -9.699,-3.991 -19.488,-3.857"
           id="path3193"
           style="fill:#000000;fill-opacity:1" />
        <path
           inkscape:connector-curvature="0"
           d="m 118.69,315.03 c -2.4,-0.134 -3.642,2.598 -1.311,4.705 36.505,32.971 84.75,52.809 138.35,52.809 38.23,0 82.62,-12.05 113.25,-34.631 5.071,-3.763 0.738,-9.35 -4.448,-7.147 -34.33,14.57 -71.66,21.571 -105.59,21.571 -50.32,0 -99.03,-13.767 -138.42,-36.688 -0.645,-0.379 -1.272,-0.586 -1.825,-0.617"
           id="path3195"
           style="fill:#000000;fill-opacity:1" />
      </g>
    </g>
    <g
       transform="matrix(1.197626,0,0,1.197626,-66.045959,-569.6181)"
       id="g3097"
       style="fill:#dcdbdb;fill-opacity:1;fill-rule:evenodd">
      <path
         id="path3099"
         d="m 256.44,139.47 c -31.02,0 -65.67,11.543 -72.969,49.906 -0.734,4.084 2.213,6.247 4.875,6.844 l 31.656,3.406 c 2.937,-0.138 5.106,-3.03 5.656,-5.969 2.707,-13.216 13.814,-19.594 26.25,-19.594 6.7,0 14.32,2.457 18.313,8.469 4.543,6.7 3.906,15.901 3.906,23.656 v 4.188 c -18.907,2.157 -43.63,3.542 -61.34,11.344 -20.421,8.811 -34.781,26.865 -34.781,53.34 0,33.912 21.402,50.844 48.844,50.844 23.22,0 35.884,-5.455 53.781,-23.719 5.966,8.581 7.889,12.756 18.719,21.75 2.432,1.285 5.531,1.146 7.688,-0.781 l 0.125,0.063 c 6.516,-5.782 18.315,-16.07 24.969,-21.625 2.662,-2.203 2.236,-5.751 0.125,-8.688 -5.966,-8.26 -12.313,-14.969 -12.313,-30.25 v -50.813 c 0,-21.522 1.534,-41.3 -14.344,-56.12 -12.528,-12.02 -33.28,-16.25 -49.16,-16.25 m 17.688,97.09 v 7.03 c 0,12.711 0.331,23.336 -6.094,34.625 -5.186,9.178 -13.385,14.844 -22.563,14.844 -12.528,0 -19.813,-9.568 -19.813,-23.656 0,-27.809 24.881,-32.844 48.47,-32.844"
         inkscape:connector-curvature="0"
         style="fill:#dcdbdb;fill-opacity:1" />
      <g
         id="g3101"
         style="fill:#dcdbdb;fill-opacity:1">
        <path
           style="fill:#dcdbdb;fill-opacity:1"
           id="path3103"
           d="m 375.31,309.53 c -9.789,0.135 -21.353,2.324 -30.11,8.484 -2.707,1.881 -2.234,4.506 0.771,4.139 9.866,-1.17 31.836,-3.819 35.737,1.183 3.924,5.02 -4.353,25.716 -8.05,34.94 -1.124,2.799 1.281,3.911 3.805,1.8 16.451,-13.744 20.678,-42.537 17.329,-46.69 -1.675,-2.065 -9.699,-3.991 -19.488,-3.857"
           inkscape:connector-curvature="0" />
        <path
           style="fill:#dcdbdb;fill-opacity:1"
           id="path3105"
           d="m 118.69,315.03 c -2.4,-0.134 -3.642,2.598 -1.311,4.705 36.505,32.971 84.75,52.809 138.35,52.809 38.23,0 82.62,-12.05 113.25,-34.631 5.071,-3.763 0.738,-9.35 -4.448,-7.147 -34.33,14.57 -71.66,21.571 -105.59,21.571 -50.32,0 -99.03,-13.767 -138.42,-36.688 -0.645,-0.379 -1.272,-0.586 -1.825,-0.617"
           inkscape:connector-curvature="0" />
      </g>
    </g>
  </g>
  <g
     id="g3167">
    <path
       id="rect3068"
       d="M 78.65625 6 C 63.792798 6 49.986224 10.429561 38.5 18.03125 L 38.5 493.96875 C 49.986224 501.57044 63.792798 506 78.65625 506 L 147.5 506 L 147.5 6 L 78.65625 6 z "
       style="opacity:0.05000000000000000;fill:url(#linearGradient3108);fill-opacity:1;stroke:none" />
    <path
       inkscape:connector-curvature="0"
       style="opacity:0.05;fill:url(#linearGradient3137);fill-opacity:1;stroke:none"
       d="m 147.50001,6 0,500 109,0 0,-500 -109,0 z"
       id="path3135" />
    <path
       id="path3139"
       d="m 256.50001,6 0,500 109,0 0,-500 -109,0 z"
       style="opacity:0.05;fill:url(#linearGradient3141);fill-opacity:1;stroke:none"
       inkscape:connector-curvature="0" />
    <path
       id="path3143"
       d="M 365.5 6 L 365.5 506 L 433.34375 506 C 448.1977 506 461.98692 501.56151 473.46875 493.96875 L 473.46875 18.03125 C 461.98692 10.438491 448.1977 6 433.34375 6 L 365.5 6 z "
       style="opacity:0.05000000000000000;fill:url(#linearGradient3145);fill-opacity:1;stroke:none" />
    <path
       id="path3151"
       d="M 38.5 18.03125 C 18.885717 31.012164 6 53.274894 6 78.65625 L 6 433.34375 C 6 458.72511 18.885717 480.98784 38.5 493.96875 L 38.5 18.03125 z "
       style="opacity:0.05000000000000000;fill:url(#linearGradient3153);fill-opacity:1;stroke:none" />
    <path
       id="path3147"
       d="M 473.46875 18.03125 L 473.46875 493.96875 C 493.09542 480.98993 506 458.73461 506 433.34375 L 506 78.65625 C 506 53.265388 493.09542 31.010071 473.46875 18.03125 z "
       style="opacity:0.05000000000000000;fill:url(#linearGradient3149);fill-opacity:1;stroke:none" />
  </g>
</svg>
