<?xml version="1.0" encoding="UTF-8" standalone="no"?>
<svg
   xmlns:dc="http://purl.org/dc/elements/1.1/"
   xmlns:cc="http://creativecommons.org/ns#"
   xmlns:rdf="http://www.w3.org/1999/02/22-rdf-syntax-ns#"
   xmlns:svg="http://www.w3.org/2000/svg"
   xmlns="http://www.w3.org/2000/svg"
   xmlns:xlink="http://www.w3.org/1999/xlink"
   xmlns:sodipodi="http://sodipodi.sourceforge.net/DTD/sodipodi-0.dtd"
   xmlns:inkscape="http://www.inkscape.org/namespaces/inkscape"
   viewBox="0 0 512 512"
   id="svg2"
   version="1.1"
   inkscape:version="0.48.4 r9939"
   width="100%"
   height="100%"
   sodipodi:docname="aol.svg">
  <sodipodi:namedview
     pagecolor="#444444"
     bordercolor="#666666"
     borderopacity="1"
     objecttolerance="10"
     gridtolerance="10"
     guidetolerance="10"
     inkscape:pageopacity="0"
     inkscape:pageshadow="2"
     inkscape:window-width="1310"
     inkscape:window-height="718"
     id="namedview6"
     showgrid="false"
     showguides="true"
     inkscape:guide-bbox="true"
     inkscape:zoom="0.36635945"
     inkscape:cx="399.83659"
     inkscape:cy="-7.6038758"
     inkscape:window-x="54"
     inkscape:window-y="27"
     inkscape:window-maximized="1"
     inkscape:current-layer="svg2"
     inkscape:snap-midpoints="true"
     inkscape:snap-global="false">
    <sodipodi:guide
       id="guide2989"
       position="522.57628,433.35594"
       orientation="0,1" />
    <sodipodi:guide
       id="guide2995"
       position="473.05444,254.912"
       orientation="1,0" />
  </sodipodi:namedview>
  <metadata
     id="metadata10">
    <rdf:RDF>
      <cc:Work
         rdf:about="">
        <dc:format>image/svg+xml</dc:format>
        <dc:type
           rdf:resource="http://purl.org/dc/dcmitype/StillImage" />
        <dc:title />
      </cc:Work>
    </rdf:RDF>
  </metadata>
  <defs
     id="defs8">
    <linearGradient
       id="linearGradient4996">
      <stop
         style="stop-color:#000000;stop-opacity:1;"
         offset="0"
         id="stop4998" />
      <stop
         style="stop-color:#ffffff;stop-opacity:1;"
         offset="1"
         id="stop5000" />
    </linearGradient>
    <linearGradient
       inkscape:collect="always"
       xlink:href="#linearGradient4996"
       id="linearGradient3108"
       gradientUnits="userSpaceOnUse"
       gradientTransform="matrix(1.0380952,0,0,1.4619252,-228.28943,-118.25286)"
       x1="257"
       y1="256"
       x2="362"
       y2="256" />
    <linearGradient
       inkscape:collect="always"
       xlink:href="#linearGradient4996"
       id="linearGradient3137"
       gradientUnits="userSpaceOnUse"
       gradientTransform="matrix(1.0380952,0,0,1.4619252,-119.28943,-118.25286)"
       x1="257"
       y1="256"
       x2="362"
       y2="256" />
    <linearGradient
       inkscape:collect="always"
       xlink:href="#linearGradient4996"
       id="linearGradient3141"
       gradientUnits="userSpaceOnUse"
       gradientTransform="matrix(1.0380952,0,0,1.4619252,-10.28943,-118.25286)"
       x1="257"
       y1="256"
       x2="362"
       y2="256" />
    <linearGradient
       inkscape:collect="always"
       xlink:href="#linearGradient4996"
       id="linearGradient3145"
       gradientUnits="userSpaceOnUse"
       gradientTransform="matrix(1.0283468,0,0,1.4619252,101.21591,-118.25286)"
       x1="257"
       y1="256"
       x2="362"
       y2="256" />
    <linearGradient
       inkscape:collect="always"
       xlink:href="#linearGradient4996"
       id="linearGradient3149"
       gradientUnits="userSpaceOnUse"
       gradientTransform="matrix(1.0283468,0,0,1.4619252,209.19233,-118.25286)"
       x1="257"
       y1="256"
       x2="362"
       y2="256" />
    <linearGradient
       inkscape:collect="always"
       xlink:href="#linearGradient4996"
       id="linearGradient3153"
       gradientUnits="userSpaceOnUse"
       gradientTransform="matrix(1.0380952,0,0,1.4619252,-337.28943,-118.25286)"
       x1="257"
       y1="256"
       x2="362"
       y2="256" />
  </defs>
  <rect
     style="opacity:0.2;fill:#000000;fill-opacity:1;stroke:none"
     id="rect5028"
     width="500"
     height="500"
     x="6"
     y="12"
     rx="72.644058"
     ry="72.644058" />
  <rect
     ry="72.644058"
     rx="72.644058"
     y="6"
     x="6"
     height="500"
     width="500"
     id="rect4979"
     style="fill:#f3f3f3;fill-opacity:1;stroke:none" />
  <rect
     style="fill:#6e6568;fill-opacity:1;stroke:none"
     id="rect4981"
     width="434.99997"
     height="434.99997"
     x="38.500011"
     y="38.500011"
     rx="63.200329"
     ry="63.200329" />
  <path
     style="fill:#000000;fill-opacity:1;stroke:none;opacity:0.2"
     d="M 101.6875 38.5 C 66.674518 38.5 38.5 66.674518 38.5 101.6875 L 38.5 116.6875 C 38.5 81.674518 66.674518 53.5 101.6875 53.5 L 410.3125 53.5 C 445.32548 53.5 473.5 81.674518 473.5 116.6875 L 473.5 101.6875 C 473.5 66.674518 445.32548 38.5 410.3125 38.5 L 101.6875 38.5 z "
     id="rect3187" />
  <g
     id="g3080"
     transform="matrix(1.1292775,0,0,1.1292775,838.60133,-13.157015)">
    <path
       style="opacity:0.2;fill:#000000;fill-opacity:1"
       d="m -623.88084,178.69534 -4.71139,11.78758 c -2.5971,6.48316 -9.16515,22.78931 -14.58895,36.23588 -28.45783,70.55208 -32.72507,81.22609 -32.72507,82.05825 0,0.80389 2.10907,0.90035 18.7728,0.76401 l 18.77281,-0.16372 3.1288,-9.16811 3.11061,-9.16811 21.9198,0 21.9016,0 2.87413,8.58601 c 1.57227,4.7223 3.11241,8.91344 3.41985,9.31364 0.71697,0.93326 36.80804,1.07404 37.3819,0.14552 0.20055,-0.32451 -0.42642,-2.61654 -1.3825,-5.09339 -3.25332,-8.42819 -47.83132,-120.92164 -48.78746,-123.11467 l -0.94592,-2.18289 -14.0796,0 -14.06141,0 z m 200.02496,0 0,65.10452 c 0,35.80416 0.18138,65.26772 0.40019,65.48653 0.21881,0.2188 6.96393,0.34008 14.98914,0.25467 l 14.58894,-0.16372 0.16372,-65.341 0.14552,-65.341 -15.13466,0 -15.15285,0 z m -68.54257,28.59579 c -13.71319,0.20496 -26.91763,5.47717 -36.90893,15.22561 -18.99744,18.53565 -20.72396,50.08748 -3.911,71.2166 7.32892,9.21039 19.48182,16.34621 31.06971,18.20889 2.2411,0.36024 4.72959,0.75503 5.52998,0.89135 3.05804,0.52084 13.89804,-0.30332 18.55451,-1.41888 22.04632,-5.28165 37.34779,-22.86035 39.65573,-45.54951 2.54978,-25.06654 -11.90184,-47.90884 -35.21719,-55.66355 -6.18896,-2.05846 -12.53954,-3.00368 -18.77281,-2.91051 z m -117.5847,12.80625 c 0.0994,-0.008 0.20659,0.0309 0.32744,0.0546 0.61636,0.12085 2.87043,6.59652 7.47637,21.41046 3.63331,11.6857 6.60321,21.57417 6.60323,21.97437 2e-5,0.56184 -3.17325,0.72762 -13.93408,0.72762 -7.66486,0 -14.06448,-0.21302 -14.22513,-0.47295 -0.16065,-0.25993 2.01862,-7.92185 4.83873,-17.0265 7.55203,-24.38154 8.21763,-26.61497 8.91344,-26.66757 z m 118.83986,14.62532 c 16.04704,-0.01 28.3051,17.20675 22.66561,33.98024 -3.8596,11.4796 -15.48784,18.54753 -27.1769,16.51715 -6.96181,-1.20925 -14.01295,-6.60527 -17.24479,-13.17007 -7.65886,-15.55736 1.08706,-33.9011 17.6086,-36.94531 1.40578,-0.25903 2.78756,-0.38118 4.14748,-0.38201 z m 131.91897,40.41974 c -7.44315,-0.005 -14.45317,4.18893 -17.66317,11.1509 -0.99145,2.15031 -1.25691,3.81031 -1.25516,7.94934 0.002,4.53936 0.20897,5.6437 1.54621,8.18582 1.54375,2.93468 5.49535,7.03953 8.11305,8.44048 0.76473,0.40927 2.55943,1.09154 4.00196,1.50983 3.81934,1.10751 9.47487,0.54265 13.26102,-1.30973 3.87871,-1.89768 6.63456,-4.59928 8.71334,-8.54963 1.4164,-2.6916 1.59846,-3.66609 1.60079,-8.56782 0.003,-5.04292 -0.13736,-5.8015 -1.70993,-8.64058 -2.26654,-4.09197 -6.57014,-7.90033 -10.33232,-9.14993 -2.07851,-0.69037 -4.19171,-1.01722 -6.27579,-1.01868 z"
       id="path3078"
       inkscape:connector-curvature="0" />
    <path
       inkscape:connector-curvature="0"
       id="path3068"
       d="m -638.88084,163.69534 -4.71139,11.78758 c -2.5971,6.48316 -9.16515,22.78931 -14.58895,36.23588 -28.45783,70.55208 -32.72507,81.22609 -32.72507,82.05825 0,0.80389 2.10907,0.90035 18.7728,0.76401 l 18.77281,-0.16372 3.1288,-9.16811 3.11061,-9.16811 21.9198,0 21.9016,0 2.87413,8.58601 c 1.57227,4.7223 3.11241,8.91344 3.41985,9.31364 0.71697,0.93326 36.80804,1.07404 37.3819,0.14552 0.20055,-0.32451 -0.42642,-2.61654 -1.3825,-5.09339 -3.25332,-8.42819 -47.83132,-120.92164 -48.78746,-123.11467 l -0.94592,-2.18289 -14.0796,0 -14.06141,0 z m 200.02496,0 0,65.10452 c 0,35.80416 0.18138,65.26772 0.40019,65.48653 0.21881,0.2188 6.96393,0.34008 14.98914,0.25467 l 14.58894,-0.16372 0.16372,-65.341 0.14552,-65.341 -15.13466,0 -15.15285,0 z m -68.54257,28.59579 c -13.71319,0.20496 -26.91763,5.47717 -36.90893,15.22561 -18.99744,18.53565 -20.72396,50.08748 -3.911,71.2166 7.32892,9.21039 19.48182,16.34621 31.06971,18.20889 2.2411,0.36024 4.72959,0.75503 5.52998,0.89135 3.05804,0.52084 13.89804,-0.30332 18.55451,-1.41888 22.04632,-5.28165 37.34779,-22.86035 39.65573,-45.54951 2.54978,-25.06654 -11.90184,-47.90884 -35.21719,-55.66355 -6.18896,-2.05846 -12.53954,-3.00368 -18.77281,-2.91051 z m -117.5847,12.80625 c 0.0994,-0.008 0.20659,0.0309 0.32744,0.0546 0.61636,0.12085 2.87043,6.59652 7.47637,21.41046 3.63331,11.6857 6.60321,21.57417 6.60323,21.97437 2e-5,0.56184 -3.17325,0.72762 -13.93408,0.72762 -7.66486,0 -14.06448,-0.21302 -14.22513,-0.47295 -0.16065,-0.25993 2.01862,-7.92185 4.83873,-17.0265 7.55203,-24.38154 8.21763,-26.61497 8.91344,-26.66757 z m 118.83986,14.62532 c 16.04704,-0.01 28.3051,17.20675 22.66561,33.98024 -3.8596,11.4796 -15.48784,18.54753 -27.1769,16.51715 -6.96181,-1.20925 -14.01295,-6.60527 -17.24479,-13.17007 -7.65886,-15.55736 1.08706,-33.9011 17.6086,-36.94531 1.40578,-0.25903 2.78756,-0.38118 4.14748,-0.38201 z m 131.91897,40.41974 c -7.44315,-0.005 -14.45317,4.18893 -17.66317,11.1509 -0.99145,2.15031 -1.25691,3.81031 -1.25516,7.94934 0.002,4.53936 0.20897,5.6437 1.54621,8.18582 1.54375,2.93468 5.49535,7.03953 8.11305,8.44048 0.76473,0.40927 2.55943,1.09154 4.00196,1.50983 3.81934,1.10751 9.47487,0.54265 13.26102,-1.30973 3.87871,-1.89768 6.63456,-4.59928 8.71334,-8.54963 1.4164,-2.6916 1.59846,-3.66609 1.60079,-8.56782 0.003,-5.04292 -0.13736,-5.8015 -1.70993,-8.64058 -2.26654,-4.09197 -6.57014,-7.90033 -10.33232,-9.14993 -2.07851,-0.69037 -4.19171,-1.01722 -6.27579,-1.01868 z"
       style="fill:#dcdbdb;fill-opacity:1" />
  </g>
  <g
     id="g3167">
    <path
       id="rect3068"
       d="M 78.65625 6 C 63.792798 6 49.986224 10.429561 38.5 18.03125 L 38.5 493.96875 C 49.986224 501.57044 63.792798 506 78.65625 506 L 147.5 506 L 147.5 6 L 78.65625 6 z "
       style="opacity:0.05000000000000000;fill:url(#linearGradient3108);fill-opacity:1;stroke:none" />
    <path
       inkscape:connector-curvature="0"
       style="opacity:0.05;fill:url(#linearGradient3137);fill-opacity:1;stroke:none"
       d="m 147.50001,6 0,500 109,0 0,-500 -109,0 z"
       id="path3135" />
    <path
       id="path3139"
       d="m 256.50001,6 0,500 109,0 0,-500 -109,0 z"
       style="opacity:0.05;fill:url(#linearGradient3141);fill-opacity:1;stroke:none"
       inkscape:connector-curvature="0" />
    <path
       id="path3143"
       d="M 365.5 6 L 365.5 506 L 433.34375 506 C 448.1977 506 461.98692 501.56151 473.46875 493.96875 L 473.46875 18.03125 C 461.98692 10.438491 448.1977 6 433.34375 6 L 365.5 6 z "
       style="opacity:0.05000000000000000;fill:url(#linearGradient3145);fill-opacity:1;stroke:none" />
    <path
       id="path3151"
       d="M 38.5 18.03125 C 18.885717 31.012164 6 53.274894 6 78.65625 L 6 433.34375 C 6 458.72511 18.885717 480.98784 38.5 493.96875 L 38.5 18.03125 z "
       style="opacity:0.05000000000000000;fill:url(#linearGradient3153);fill-opacity:1;stroke:none" />
    <path
       id="path3147"
       d="M 473.46875 18.03125 L 473.46875 493.96875 C 493.09542 480.98993 506 458.73461 506 433.34375 L 506 78.65625 C 506 53.265388 493.09542 31.010071 473.46875 18.03125 z "
       style="opacity:0.05000000000000000;fill:url(#linearGradient3149);fill-opacity:1;stroke:none" />
  </g>
</svg>
