<?xml version="1.0" encoding="UTF-8" standalone="no"?>
<svg
   xmlns:dc="http://purl.org/dc/elements/1.1/"
   xmlns:cc="http://creativecommons.org/ns#"
   xmlns:rdf="http://www.w3.org/1999/02/22-rdf-syntax-ns#"
   xmlns:svg="http://www.w3.org/2000/svg"
   xmlns="http://www.w3.org/2000/svg"
   xmlns:xlink="http://www.w3.org/1999/xlink"
   xmlns:sodipodi="http://sodipodi.sourceforge.net/DTD/sodipodi-0.dtd"
   xmlns:inkscape="http://www.inkscape.org/namespaces/inkscape"
   viewBox="0 0 512 512"
   id="svg2"
   version="1.1"
   inkscape:version="0.48.4 r9939"
   width="100%"
   height="100%"
   sodipodi:docname="apple-app-store.svg">
  <sodipodi:namedview
     pagecolor="#444444"
     bordercolor="#666666"
     borderopacity="1"
     objecttolerance="10"
     gridtolerance="10"
     guidetolerance="10"
     inkscape:pageopacity="0"
     inkscape:pageshadow="2"
     inkscape:window-width="1310"
     inkscape:window-height="718"
     id="namedview6"
     showgrid="false"
     showguides="true"
     inkscape:guide-bbox="true"
     inkscape:zoom="0.73271889"
     inkscape:cx="268.33968"
     inkscape:cy="277.76215"
     inkscape:window-x="54"
     inkscape:window-y="27"
     inkscape:window-maximized="1"
     inkscape:current-layer="svg2"
     inkscape:snap-midpoints="true"
     inkscape:snap-global="false">
    <sodipodi:guide
       id="guide2989"
       position="522.57628,433.35594"
       orientation="0,1" />
    <sodipodi:guide
       id="guide2995"
       position="473.05444,254.912"
       orientation="1,0" />
  </sodipodi:namedview>
  <metadata
     id="metadata10">
    <rdf:RDF>
      <cc:Work
         rdf:about="">
        <dc:format>image/svg+xml</dc:format>
        <dc:type
           rdf:resource="http://purl.org/dc/dcmitype/StillImage" />
        <dc:title />
      </cc:Work>
    </rdf:RDF>
  </metadata>
  <defs
     id="defs8">
    <linearGradient
       id="linearGradient4996">
      <stop
         style="stop-color:#000000;stop-opacity:1;"
         offset="0"
         id="stop4998" />
      <stop
         style="stop-color:#ffffff;stop-opacity:1;"
         offset="1"
         id="stop5000" />
    </linearGradient>
    <linearGradient
       inkscape:collect="always"
       xlink:href="#linearGradient4996"
       id="linearGradient3108"
       gradientUnits="userSpaceOnUse"
       gradientTransform="matrix(1.0380952,0,0,1.4619252,-228.28943,-118.25286)"
       x1="257"
       y1="256"
       x2="362"
       y2="256" />
    <linearGradient
       inkscape:collect="always"
       xlink:href="#linearGradient4996"
       id="linearGradient3137"
       gradientUnits="userSpaceOnUse"
       gradientTransform="matrix(1.0380952,0,0,1.4619252,-119.28943,-118.25286)"
       x1="257"
       y1="256"
       x2="362"
       y2="256" />
    <linearGradient
       inkscape:collect="always"
       xlink:href="#linearGradient4996"
       id="linearGradient3141"
       gradientUnits="userSpaceOnUse"
       gradientTransform="matrix(1.0380952,0,0,1.4619252,-10.28943,-118.25286)"
       x1="257"
       y1="256"
       x2="362"
       y2="256" />
    <linearGradient
       inkscape:collect="always"
       xlink:href="#linearGradient4996"
       id="linearGradient3145"
       gradientUnits="userSpaceOnUse"
       gradientTransform="matrix(1.0283468,0,0,1.4619252,101.21591,-118.25286)"
       x1="257"
       y1="256"
       x2="362"
       y2="256" />
    <linearGradient
       inkscape:collect="always"
       xlink:href="#linearGradient4996"
       id="linearGradient3149"
       gradientUnits="userSpaceOnUse"
       gradientTransform="matrix(1.0283468,0,0,1.4619252,209.19233,-118.25286)"
       x1="257"
       y1="256"
       x2="362"
       y2="256" />
    <linearGradient
       inkscape:collect="always"
       xlink:href="#linearGradient4996"
       id="linearGradient3153"
       gradientUnits="userSpaceOnUse"
       gradientTransform="matrix(1.0380952,0,0,1.4619252,-337.28943,-118.25286)"
       x1="257"
       y1="256"
       x2="362"
       y2="256" />
  </defs>
  <rect
     style="opacity:0.2;fill:#000000;fill-opacity:1;stroke:none"
     id="rect5028"
     width="500"
     height="500"
     x="6"
     y="12"
     rx="72.644058"
     ry="72.644058" />
  <rect
     ry="72.644058"
     rx="72.644058"
     y="6"
     x="6"
     height="500"
     width="500"
     id="rect4979"
     style="fill:#f3f3f3;fill-opacity:1;stroke:none" />
  <rect
     style="fill:#49a3c5;fill-opacity:1;stroke:none"
     id="rect4981"
     width="434.99997"
     height="434.99997"
     x="38.500011"
     y="38.500011"
     rx="63.200329"
     ry="63.200329" />
  <path
     style="fill:#000000;fill-opacity:1;stroke:none;opacity:0.2"
     d="M 101.6875 38.5 C 66.674518 38.5 38.5 66.674518 38.5 101.6875 L 38.5 116.6875 C 38.5 81.674518 66.674518 53.5 101.6875 53.5 L 410.3125 53.5 C 445.32548 53.5 473.5 81.674518 473.5 116.6875 L 473.5 101.6875 C 473.5 66.674518 445.32548 38.5 410.3125 38.5 L 101.6875 38.5 z "
     id="rect3187" />
  <g
     id="g3088"
     transform="translate(415.88287,168.26057)">
    <g
       id="g3070"
       transform="matrix(11.167038,0,0,11.167038,-9872.7925,-12007.153)"
       style="opacity:0.2;fill:#000000;fill-opacity:1">
      <path
         style="fill:#000000;fill-opacity:1"
         inkscape:connector-curvature="0"
         id="path3072"
         d="m 867.322,1077.091 -2.771,4.824 -3.051,5.316 -2.549,4.438 c -0.191,0.33 -0.074,0.756 0.258,0.945 l 1.805,1.039 c 0.332,0.189 0.758,0.074 0.949,-0.256 l 3.539,-6.166 2.289,-3.986 2.541,-4.426 c 0.189,-0.33 0.074,-0.756 -0.256,-0.949 l -1.809,-1.033 c -0.328,-0.191 -0.755,-0.076 -0.945,0.254 z" />
      <path
         style="fill:#000000;fill-opacity:1"
         inkscape:connector-curvature="0"
         id="path3074"
         d="m 884.828,1081.915 h -6.1 c 0.717,1.346 1.381,2.611 1.85,3.506 0.326,0.619 0.582,1.109 0.674,1.273 0.094,0.174 0.162,0.354 0.207,0.537 h 3.369 c 0.346,0 0.627,-0.281 0.627,-0.627 v -4.063 c 0,-0.345 -0.281,-0.626 -0.627,-0.626 z" />
      <path
         style="fill:#000000;fill-opacity:1"
         inkscape:connector-curvature="0"
         id="path3076"
         d="m 870.002,1081.915 -3.053,5.316 h 8.281 c -0.6,-1.188 -1.396,-2.885 -2.467,-5.316 h -2.761 z" />
      <path
         style="fill:#000000;fill-opacity:1"
         inkscape:connector-curvature="0"
         id="path3078"
         d="m 856.084,1087.231 h 3.969 l 3.053,-5.316 h -7.021 c -0.348,0 -0.629,0.281 -0.629,0.627 v 4.063 c -10e-4,0.345 0.28,0.626 0.628,0.626 z" />
      <path
         style="fill:#000000;fill-opacity:1"
         inkscape:connector-curvature="0"
         id="path3080"
         d="m 858.119,1096.776 2.334,-1.592 c 0.314,-0.213 0.303,-0.547 -0.029,-0.736 l -1.807,-1.037 c -0.33,-0.191 -0.637,-0.035 -0.68,0.344 l -0.313,2.721 c -0.044,0.378 0.179,0.513 0.495,0.3 z" />
      <path
         style="fill:#000000;fill-opacity:1"
         inkscape:connector-curvature="0"
         id="path3082"
         d="m 880.115,1087.231 c -0.17,-0.311 -0.59,-1.119 -1.143,-2.168 -0.006,-0.014 -0.012,-0.027 -0.02,-0.041 -0.041,-0.08 -0.086,-0.162 -0.129,-0.244 -0.031,-0.061 -0.063,-0.121 -0.096,-0.182 -0.027,-0.053 -0.055,-0.105 -0.082,-0.158 -0.049,-0.092 -0.098,-0.186 -0.148,-0.281 -0.018,-0.029 -0.031,-0.059 -0.047,-0.088 -0.057,-0.107 -0.113,-0.215 -0.17,-0.324 -0.018,-0.031 -0.035,-0.063 -0.053,-0.094 -1.271,-2.406 -2.871,-5.369 -3.855,-6.926 -1.729,-2.73 -4.033,-7.281 -4.676,-6.957 -0.902,0.449 1.887,6.225 2.813,8.395 0.922,2.17 4.527,10.486 5.25,10.85 0.723,0.361 1.002,0.16 1.484,-0.039 0.484,-0.201 1.35,-0.869 0.906,-1.676 -0.008,-0.018 -0.022,-0.043 -0.034,-0.067 z" />
      <path
         style="fill:#000000;fill-opacity:1"
         inkscape:connector-curvature="0"
         id="path3084"
         d="m 882.211,1091.585 -0.859,-1.652 c -0.195,-0.373 -0.654,-0.525 -1.02,-0.34 l -1.037,0.535 c -0.365,0.188 -0.48,0.631 -0.256,0.988 l 1.088,1.719 c 0.227,0.355 0.701,0.473 1.053,0.26 l 0.74,-0.445 c 0.355,-0.213 0.486,-0.692 0.291,-1.065 z" />
      <path
         style="fill:#000000;fill-opacity:1"
         inkscape:connector-curvature="0"
         id="path3086"
         d="m 881.945,1093.976 c -0.271,0.26 -0.914,0.822 -0.135,1.918 0.777,1.098 2.514,1.146 2.742,1.875 10e-4,0 0.548,-5.573 -2.607,-3.793 z" />
    </g>
    <g
       style="fill:#dcdbdb;fill-opacity:1"
       transform="matrix(11.167038,0,0,11.167038,-9887.7925,-12022.153)"
       id="g2065">
      <path
         d="m 867.322,1077.091 -2.771,4.824 -3.051,5.316 -2.549,4.438 c -0.191,0.33 -0.074,0.756 0.258,0.945 l 1.805,1.039 c 0.332,0.189 0.758,0.074 0.949,-0.256 l 3.539,-6.166 2.289,-3.986 2.541,-4.426 c 0.189,-0.33 0.074,-0.756 -0.256,-0.949 l -1.809,-1.033 c -0.328,-0.191 -0.755,-0.076 -0.945,0.254 z"
         id="path2067"
         inkscape:connector-curvature="0"
         style="fill:#dcdbdb;fill-opacity:1" />
      <path
         d="m 884.828,1081.915 h -6.1 c 0.717,1.346 1.381,2.611 1.85,3.506 0.326,0.619 0.582,1.109 0.674,1.273 0.094,0.174 0.162,0.354 0.207,0.537 h 3.369 c 0.346,0 0.627,-0.281 0.627,-0.627 v -4.063 c 0,-0.345 -0.281,-0.626 -0.627,-0.626 z"
         id="path2069"
         inkscape:connector-curvature="0"
         style="fill:#dcdbdb;fill-opacity:1" />
      <path
         d="m 870.002,1081.915 -3.053,5.316 h 8.281 c -0.6,-1.188 -1.396,-2.885 -2.467,-5.316 h -2.761 z"
         id="path2071"
         inkscape:connector-curvature="0"
         style="fill:#dcdbdb;fill-opacity:1" />
      <path
         d="m 856.084,1087.231 h 3.969 l 3.053,-5.316 h -7.021 c -0.348,0 -0.629,0.281 -0.629,0.627 v 4.063 c -10e-4,0.345 0.28,0.626 0.628,0.626 z"
         id="path2073"
         inkscape:connector-curvature="0"
         style="fill:#dcdbdb;fill-opacity:1" />
      <path
         d="m 858.119,1096.776 2.334,-1.592 c 0.314,-0.213 0.303,-0.547 -0.029,-0.736 l -1.807,-1.037 c -0.33,-0.191 -0.637,-0.035 -0.68,0.344 l -0.313,2.721 c -0.044,0.378 0.179,0.513 0.495,0.3 z"
         id="path2075"
         inkscape:connector-curvature="0"
         style="fill:#dcdbdb;fill-opacity:1" />
      <path
         d="m 880.115,1087.231 c -0.17,-0.311 -0.59,-1.119 -1.143,-2.168 -0.006,-0.014 -0.012,-0.027 -0.02,-0.041 -0.041,-0.08 -0.086,-0.162 -0.129,-0.244 -0.031,-0.061 -0.063,-0.121 -0.096,-0.182 -0.027,-0.053 -0.055,-0.105 -0.082,-0.158 -0.049,-0.092 -0.098,-0.186 -0.148,-0.281 -0.018,-0.029 -0.031,-0.059 -0.047,-0.088 -0.057,-0.107 -0.113,-0.215 -0.17,-0.324 -0.018,-0.031 -0.035,-0.063 -0.053,-0.094 -1.271,-2.406 -2.871,-5.369 -3.855,-6.926 -1.729,-2.73 -4.033,-7.281 -4.676,-6.957 -0.902,0.449 1.887,6.225 2.813,8.395 0.922,2.17 4.527,10.486 5.25,10.85 0.723,0.361 1.002,0.16 1.484,-0.039 0.484,-0.201 1.35,-0.869 0.906,-1.676 -0.008,-0.018 -0.022,-0.043 -0.034,-0.067 z"
         id="path2077"
         inkscape:connector-curvature="0"
         style="fill:#dcdbdb;fill-opacity:1" />
      <path
         d="m 882.211,1091.585 -0.859,-1.652 c -0.195,-0.373 -0.654,-0.525 -1.02,-0.34 l -1.037,0.535 c -0.365,0.188 -0.48,0.631 -0.256,0.988 l 1.088,1.719 c 0.227,0.355 0.701,0.473 1.053,0.26 l 0.74,-0.445 c 0.355,-0.213 0.486,-0.692 0.291,-1.065 z"
         id="path2079"
         inkscape:connector-curvature="0"
         style="fill:#dcdbdb;fill-opacity:1" />
      <path
         d="m 881.945,1093.976 c -0.271,0.26 -0.914,0.822 -0.135,1.918 0.777,1.098 2.514,1.146 2.742,1.875 10e-4,0 0.548,-5.573 -2.607,-3.793 z"
         id="path2081"
         inkscape:connector-curvature="0"
         style="fill:#dcdbdb;fill-opacity:1" />
    </g>
  </g>
  <g
     id="g3167">
    <path
       id="rect3068"
       d="M 78.65625 6 C 63.792798 6 49.986224 10.429561 38.5 18.03125 L 38.5 493.96875 C 49.986224 501.57044 63.792798 506 78.65625 506 L 147.5 506 L 147.5 6 L 78.65625 6 z "
       style="opacity:0.05000000000000000;fill:url(#linearGradient3108);fill-opacity:1;stroke:none" />
    <path
       inkscape:connector-curvature="0"
       style="opacity:0.05;fill:url(#linearGradient3137);fill-opacity:1;stroke:none"
       d="m 147.50001,6 0,500 109,0 0,-500 -109,0 z"
       id="path3135" />
    <path
       id="path3139"
       d="m 256.50001,6 0,500 109,0 0,-500 -109,0 z"
       style="opacity:0.05;fill:url(#linearGradient3141);fill-opacity:1;stroke:none"
       inkscape:connector-curvature="0" />
    <path
       id="path3143"
       d="M 365.5 6 L 365.5 506 L 433.34375 506 C 448.1977 506 461.98692 501.56151 473.46875 493.96875 L 473.46875 18.03125 C 461.98692 10.438491 448.1977 6 433.34375 6 L 365.5 6 z "
       style="opacity:0.05000000000000000;fill:url(#linearGradient3145);fill-opacity:1;stroke:none" />
    <path
       id="path3151"
       d="M 38.5 18.03125 C 18.885717 31.012164 6 53.274894 6 78.65625 L 6 433.34375 C 6 458.72511 18.885717 480.98784 38.5 493.96875 L 38.5 18.03125 z "
       style="opacity:0.05000000000000000;fill:url(#linearGradient3153);fill-opacity:1;stroke:none" />
    <path
       id="path3147"
       d="M 473.46875 18.03125 L 473.46875 493.96875 C 493.09542 480.98993 506 458.73461 506 433.34375 L 506 78.65625 C 506 53.265388 493.09542 31.010071 473.46875 18.03125 z "
       style="opacity:0.05000000000000000;fill:url(#linearGradient3149);fill-opacity:1;stroke:none" />
  </g>
</svg>
