<?xml version="1.0" encoding="UTF-8" standalone="no"?>
<svg
   xmlns:dc="http://purl.org/dc/elements/1.1/"
   xmlns:cc="http://creativecommons.org/ns#"
   xmlns:rdf="http://www.w3.org/1999/02/22-rdf-syntax-ns#"
   xmlns:svg="http://www.w3.org/2000/svg"
   xmlns="http://www.w3.org/2000/svg"
   xmlns:xlink="http://www.w3.org/1999/xlink"
   xmlns:sodipodi="http://sodipodi.sourceforge.net/DTD/sodipodi-0.dtd"
   xmlns:inkscape="http://www.inkscape.org/namespaces/inkscape"
   viewBox="0 0 512 512"
   id="svg2"
   version="1.1"
   inkscape:version="0.48.4 r9939"
   width="100%"
   height="100%"
   sodipodi:docname="behance.svg">
  <sodipodi:namedview
     pagecolor="#444444"
     bordercolor="#666666"
     borderopacity="1"
     objecttolerance="10"
     gridtolerance="10"
     guidetolerance="10"
     inkscape:pageopacity="0"
     inkscape:pageshadow="2"
     inkscape:window-width="1310"
     inkscape:window-height="718"
     id="namedview6"
     showgrid="false"
     showguides="true"
     inkscape:guide-bbox="true"
     inkscape:zoom="0.73271889"
     inkscape:cx="415.92833"
     inkscape:cy="272.30303"
     inkscape:window-x="54"
     inkscape:window-y="27"
     inkscape:window-maximized="1"
     inkscape:current-layer="svg2"
     inkscape:snap-midpoints="true"
     inkscape:snap-global="false">
    <sodipodi:guide
       id="guide2989"
       position="-139.20755,431.27044"
       orientation="0,1" />
    <sodipodi:guide
       id="guide2995"
       position="473.05444,254.912"
       orientation="1,0" />
  </sodipodi:namedview>
  <metadata
     id="metadata10">
    <rdf:RDF>
      <cc:Work
         rdf:about="">
        <dc:format>image/svg+xml</dc:format>
        <dc:type
           rdf:resource="http://purl.org/dc/dcmitype/StillImage" />
        <dc:title></dc:title>
      </cc:Work>
    </rdf:RDF>
  </metadata>
  <defs
     id="defs8">
    <linearGradient
       id="linearGradient4996">
      <stop
         style="stop-color:#000000;stop-opacity:1;"
         offset="0"
         id="stop4998" />
      <stop
         style="stop-color:#ffffff;stop-opacity:1;"
         offset="1"
         id="stop5000" />
    </linearGradient>
    <linearGradient
       inkscape:collect="always"
       xlink:href="#linearGradient4996"
       id="linearGradient3108"
       gradientUnits="userSpaceOnUse"
       gradientTransform="matrix(1.0380952,0,0,1.4619252,-228.28943,-118.25286)"
       x1="257"
       y1="256"
       x2="362"
       y2="256" />
    <linearGradient
       inkscape:collect="always"
       xlink:href="#linearGradient4996"
       id="linearGradient3137"
       gradientUnits="userSpaceOnUse"
       gradientTransform="matrix(1.0380952,0,0,1.4619252,-119.28943,-118.25286)"
       x1="257"
       y1="256"
       x2="362"
       y2="256" />
    <linearGradient
       inkscape:collect="always"
       xlink:href="#linearGradient4996"
       id="linearGradient3141"
       gradientUnits="userSpaceOnUse"
       gradientTransform="matrix(1.0380952,0,0,1.4619252,-10.28943,-118.25286)"
       x1="257"
       y1="256"
       x2="362"
       y2="256" />
    <linearGradient
       inkscape:collect="always"
       xlink:href="#linearGradient4996"
       id="linearGradient3145"
       gradientUnits="userSpaceOnUse"
       gradientTransform="matrix(1.0283468,0,0,1.4619252,101.21591,-118.25286)"
       x1="257"
       y1="256"
       x2="362"
       y2="256" />
    <linearGradient
       inkscape:collect="always"
       xlink:href="#linearGradient4996"
       id="linearGradient3149"
       gradientUnits="userSpaceOnUse"
       gradientTransform="matrix(1.0283468,0,0,1.4619252,209.19233,-118.25286)"
       x1="257"
       y1="256"
       x2="362"
       y2="256" />
    <linearGradient
       inkscape:collect="always"
       xlink:href="#linearGradient4996"
       id="linearGradient3153"
       gradientUnits="userSpaceOnUse"
       gradientTransform="matrix(1.0380952,0,0,1.4619252,-337.28943,-118.25286)"
       x1="257"
       y1="256"
       x2="362"
       y2="256" />
  </defs>
  <rect
     style="opacity:0.2;fill:#000000;fill-opacity:1;stroke:none"
     id="rect5028"
     width="500"
     height="500"
     x="6"
     y="12"
     rx="72.644058"
     ry="72.644058" />
  <rect
     ry="72.644058"
     rx="72.644058"
     y="6"
     x="6"
     height="500"
     width="500"
     id="rect4979"
     style="fill:#f3f3f3;fill-opacity:1;stroke:none" />
  <rect
     style="fill:#2d9ad2;fill-opacity:1;stroke:none"
     id="rect4981"
     width="434.99997"
     height="434.99997"
     x="38.500011"
     y="38.500011"
     rx="63.200329"
     ry="63.200329" />
  <path
     style="fill:#000000;fill-opacity:1;stroke:none;opacity:0.2"
     d="M 101.6875 38.5 C 66.674518 38.5 38.5 66.674518 38.5 101.6875 L 38.5 116.6875 C 38.5 81.674518 66.674518 53.5 101.6875 53.5 L 410.3125 53.5 C 445.32548 53.5 473.5 81.674518 473.5 116.6875 L 473.5 101.6875 C 473.5 66.674518 445.32548 38.5 410.3125 38.5 L 101.6875 38.5 z "
     id="rect3187" />
  <g
     id="g3082"
     transform="translate(330.8935,81.729573)">
    <g
       id="g3074"
       transform="matrix(11.166701,0,0,11.166701,-10751.927,-11920.266)"
       style="opacity:0.2;fill:#000000;fill-opacity:1">
      <path
         style="fill:#000000;fill-opacity:1"
         inkscape:connector-curvature="0"
         id="path3076"
         d="m 946.086,1092.866 h 5.416 c 0,0 5.91,0.188 5.91,-5.49 0,0 0.258,-4.621 -3.484,-4.621 0,0 2.838,-0.211 2.838,-3.539 0,-3.33 -2.322,-4.955 -5.264,-4.955 h -5.416 -0.16 -4.105 v 18.605 h 4.105 0.16 z m 0,-15.297 h 4.719 0.697 c 0,0 1.314,0 1.314,1.934 0,1.936 -0.773,2.217 -1.65,2.217 h -5.08 v -4.151 z m 0,7.02 h 5.416 c 0,0 1.959,-0.027 1.959,2.555 0,2.176 -1.463,2.4 -2.232,2.418 -0.145,0 -0.266,0 -0.348,0 h -4.795 v -4.973 z" />
      <path
         style="fill:#000000;fill-opacity:1"
         inkscape:connector-curvature="0"
         id="path3078"
         d="m 965.295,1078.995 c -7.154,0 -7.148,7.148 -7.148,7.148 0,0 -0.492,7.113 7.148,7.113 0,0 6.367,0.363 6.367,-4.949 h -3.275 c 0,0 0.109,2.002 -2.982,2.002 0,0 -3.275,0.219 -3.275,-3.238 h 9.641 c -10e-4,0 1.053,-8.076 -6.476,-8.076 z m -3.203,5.594 c 0,0 0.4,-2.869 3.275,-2.869 2.875,0 2.836,2.869 2.836,2.869 h -6.111 z" />
      <rect
         style="fill:#000000;fill-opacity:1"
         id="rect3080"
         height="2.2909999"
         width="7.6760001"
         y="1075.356"
         x="961.29102" />
    </g>
    <g
       style="fill:#dcdbdb;fill-opacity:1"
       transform="matrix(11.166701,0,0,11.166701,-10766.927,-11935.266)"
       id="g2139">
      <path
         d="m 946.086,1092.866 h 5.416 c 0,0 5.91,0.188 5.91,-5.49 0,0 0.258,-4.621 -3.484,-4.621 0,0 2.838,-0.211 2.838,-3.539 0,-3.33 -2.322,-4.955 -5.264,-4.955 h -5.416 -0.16 -4.105 v 18.605 h 4.105 0.16 z m 0,-15.297 h 4.719 0.697 c 0,0 1.314,0 1.314,1.934 0,1.936 -0.773,2.217 -1.65,2.217 h -5.08 v -4.151 z m 0,7.02 h 5.416 c 0,0 1.959,-0.027 1.959,2.555 0,2.176 -1.463,2.4 -2.232,2.418 -0.145,0 -0.266,0 -0.348,0 h -4.795 v -4.973 z"
         id="path2141"
         inkscape:connector-curvature="0"
         style="fill:#dcdbdb;fill-opacity:1" />
      <path
         d="m 965.295,1078.995 c -7.154,0 -7.148,7.148 -7.148,7.148 0,0 -0.492,7.113 7.148,7.113 0,0 6.367,0.363 6.367,-4.949 h -3.275 c 0,0 0.109,2.002 -2.982,2.002 0,0 -3.275,0.219 -3.275,-3.238 h 9.641 c -10e-4,0 1.053,-8.076 -6.476,-8.076 z m -3.203,5.594 c 0,0 0.4,-2.869 3.275,-2.869 2.875,0 2.836,2.869 2.836,2.869 h -6.111 z"
         id="path2143"
         inkscape:connector-curvature="0"
         style="fill:#dcdbdb;fill-opacity:1" />
      <rect
         x="961.29102"
         y="1075.356"
         width="7.6760001"
         height="2.2909999"
         id="rect2145"
         style="fill:#dcdbdb;fill-opacity:1" />
    </g>
  </g>
  <g
     id="g3167">
    <path
       id="rect3068"
       d="M 78.65625 6 C 63.792798 6 49.986224 10.429561 38.5 18.03125 L 38.5 493.96875 C 49.986224 501.57044 63.792798 506 78.65625 506 L 147.5 506 L 147.5 6 L 78.65625 6 z "
       style="opacity:0.05000000000000000;fill:url(#linearGradient3108);fill-opacity:1;stroke:none" />
    <path
       inkscape:connector-curvature="0"
       style="opacity:0.05;fill:url(#linearGradient3137);fill-opacity:1;stroke:none"
       d="m 147.50001,6 0,500 109,0 0,-500 -109,0 z"
       id="path3135" />
    <path
       id="path3139"
       d="m 256.50001,6 0,500 109,0 0,-500 -109,0 z"
       style="opacity:0.05;fill:url(#linearGradient3141);fill-opacity:1;stroke:none"
       inkscape:connector-curvature="0" />
    <path
       id="path3143"
       d="M 365.5 6 L 365.5 506 L 433.34375 506 C 448.1977 506 461.98692 501.56151 473.46875 493.96875 L 473.46875 18.03125 C 461.98692 10.438491 448.1977 6 433.34375 6 L 365.5 6 z "
       style="opacity:0.05000000000000000;fill:url(#linearGradient3145);fill-opacity:1;stroke:none" />
    <path
       id="path3151"
       d="M 38.5 18.03125 C 18.885717 31.012164 6 53.274894 6 78.65625 L 6 433.34375 C 6 458.72511 18.885717 480.98784 38.5 493.96875 L 38.5 18.03125 z "
       style="opacity:0.05000000000000000;fill:url(#linearGradient3153);fill-opacity:1;stroke:none" />
    <path
       id="path3147"
       d="M 473.46875 18.03125 L 473.46875 493.96875 C 493.09542 480.98993 506 458.73461 506 433.34375 L 506 78.65625 C 506 53.265388 493.09542 31.010071 473.46875 18.03125 z "
       style="opacity:0.05000000000000000;fill:url(#linearGradient3149);fill-opacity:1;stroke:none" />
  </g>
</svg>
