<?xml version="1.0" encoding="UTF-8" standalone="no"?>
<svg
   xmlns:dc="http://purl.org/dc/elements/1.1/"
   xmlns:cc="http://creativecommons.org/ns#"
   xmlns:rdf="http://www.w3.org/1999/02/22-rdf-syntax-ns#"
   xmlns:svg="http://www.w3.org/2000/svg"
   xmlns="http://www.w3.org/2000/svg"
   xmlns:xlink="http://www.w3.org/1999/xlink"
   xmlns:sodipodi="http://sodipodi.sourceforge.net/DTD/sodipodi-0.dtd"
   xmlns:inkscape="http://www.inkscape.org/namespaces/inkscape"
   viewBox="0 0 512 512"
   id="svg2"
   version="1.1"
   inkscape:version="0.48.4 r9939"
   width="100%"
   height="100%"
   sodipodi:docname="blogger.svg">
  <sodipodi:namedview
     pagecolor="#444444"
     bordercolor="#666666"
     borderopacity="1"
     objecttolerance="10"
     gridtolerance="10"
     guidetolerance="10"
     inkscape:pageopacity="0"
     inkscape:pageshadow="2"
     inkscape:window-width="1310"
     inkscape:window-height="718"
     id="namedview6"
     showgrid="false"
     showguides="true"
     inkscape:guide-bbox="true"
     inkscape:zoom="0.36635945"
     inkscape:cx="137.77235"
     inkscape:cy="241.23497"
     inkscape:window-x="54"
     inkscape:window-y="27"
     inkscape:window-maximized="1"
     inkscape:current-layer="svg2"
     inkscape:snap-midpoints="true"
     inkscape:snap-global="false">
    <sodipodi:guide
       id="guide2989"
       position="522.57628,433.35594"
       orientation="0,1" />
    <sodipodi:guide
       id="guide2995"
       position="473.05444,254.912"
       orientation="1,0" />
  </sodipodi:namedview>
  <metadata
     id="metadata10">
    <rdf:RDF>
      <cc:Work
         rdf:about="">
        <dc:format>image/svg+xml</dc:format>
        <dc:type
           rdf:resource="http://purl.org/dc/dcmitype/StillImage" />
        <dc:title></dc:title>
      </cc:Work>
    </rdf:RDF>
  </metadata>
  <defs
     id="defs8">
    <linearGradient
       id="linearGradient4996">
      <stop
         style="stop-color:#000000;stop-opacity:1;"
         offset="0"
         id="stop4998" />
      <stop
         style="stop-color:#ffffff;stop-opacity:1;"
         offset="1"
         id="stop5000" />
    </linearGradient>
    <linearGradient
       inkscape:collect="always"
       xlink:href="#linearGradient4996"
       id="linearGradient3108"
       gradientUnits="userSpaceOnUse"
       gradientTransform="matrix(1.0380952,0,0,1.4619252,-228.28943,-118.25286)"
       x1="257"
       y1="256"
       x2="362"
       y2="256" />
    <linearGradient
       inkscape:collect="always"
       xlink:href="#linearGradient4996"
       id="linearGradient3137"
       gradientUnits="userSpaceOnUse"
       gradientTransform="matrix(1.0380952,0,0,1.4619252,-119.28943,-118.25286)"
       x1="257"
       y1="256"
       x2="362"
       y2="256" />
    <linearGradient
       inkscape:collect="always"
       xlink:href="#linearGradient4996"
       id="linearGradient3141"
       gradientUnits="userSpaceOnUse"
       gradientTransform="matrix(1.0380952,0,0,1.4619252,-10.28943,-118.25286)"
       x1="257"
       y1="256"
       x2="362"
       y2="256" />
    <linearGradient
       inkscape:collect="always"
       xlink:href="#linearGradient4996"
       id="linearGradient3145"
       gradientUnits="userSpaceOnUse"
       gradientTransform="matrix(1.0283468,0,0,1.4619252,101.21591,-118.25286)"
       x1="257"
       y1="256"
       x2="362"
       y2="256" />
    <linearGradient
       inkscape:collect="always"
       xlink:href="#linearGradient4996"
       id="linearGradient3149"
       gradientUnits="userSpaceOnUse"
       gradientTransform="matrix(1.0283468,0,0,1.4619252,209.19233,-118.25286)"
       x1="257"
       y1="256"
       x2="362"
       y2="256" />
    <linearGradient
       inkscape:collect="always"
       xlink:href="#linearGradient4996"
       id="linearGradient3153"
       gradientUnits="userSpaceOnUse"
       gradientTransform="matrix(1.0380952,0,0,1.4619252,-337.28943,-118.25286)"
       x1="257"
       y1="256"
       x2="362"
       y2="256" />
  </defs>
  <rect
     style="opacity:0.2;fill:#000000;fill-opacity:1;stroke:none"
     id="rect5028"
     width="500"
     height="500"
     x="6"
     y="12"
     rx="72.644058"
     ry="72.644058" />
  <rect
     ry="72.644058"
     rx="72.644058"
     y="6"
     x="6"
     height="500"
     width="500"
     id="rect4979"
     style="fill:#f3f3f3;fill-opacity:1;stroke:none" />
  <rect
     style="fill:#f38725;fill-opacity:1;stroke:none"
     id="rect4981"
     width="434.99997"
     height="434.99997"
     x="38.500011"
     y="38.500011"
     rx="63.200329"
     ry="63.200329" />
  <path
     style="fill:#000000;fill-opacity:1;stroke:none;opacity:0.2"
     d="M 101.6875 38.5 C 66.674518 38.5 38.5 66.674518 38.5 101.6875 L 38.5 116.6875 C 38.5 81.674518 66.674518 53.5 101.6875 53.5 L 410.3125 53.5 C 445.32548 53.5 473.5 81.674518 473.5 116.6875 L 473.5 101.6875 C 473.5 66.674518 445.32548 38.5 410.3125 38.5 L 101.6875 38.5 z "
     id="rect3187" />
  <g
     id="g3102"
     transform="translate(-7.4999975,-7.5)">
    <path
       style="opacity:0.2;fill:#000000;fill-opacity:1;stroke:none"
       d="m 206.54716,103.5 c -40.51658,0 -75.38852,24.77022 -91.78081,60.84346 -6.61267,13.91061 -10.36402,29.46112 -10.36402,45.94198 l 0,121.42912 c 0,59.15738 47.62806,106.78544 106.78544,106.78544 l 119.62444,0 c 59.1574,0 106.78545,-47.62806 106.78545,-106.78544 l 0,-70.58874 c 0,-2.19487 -0.0175,-4.22475 -0.0515,-6.13591 -0.35474,-19.56682 -4.31162,-23.61551 -20.52178,-23.61551 l -21.70771,0 c -11.05411,0 -19.95976,-10.97366 -20.26397,-24.74989 l -0.0515,0 C 372.79523,149.11647 328.27228,103.5 273.32025,103.5 l -66.77313,0 z m 5.15623,85.90273 56.40913,0 c 11.80024,0 21.29521,9.18817 21.29521,20.57334 0,11.38515 -9.49497,20.52178 -21.29521,20.52178 l -56.40913,0 c -11.80025,0 -21.29521,-9.13663 -21.29521,-20.52178 0,-11.38517 9.49496,-20.57334 21.29521,-20.57334 z m -0.77342,121.01662 118.43852,0 c 11.38515,0 20.57333,9.18817 20.57333,20.57334 0,11.38517 -9.18819,20.57334 -20.57334,20.57334 l -118.43852,0 c -11.38517,0 -20.52178,-9.18817 -20.52178,-20.57334 0,-11.38517 9.13661,-20.57334 20.52178,-20.57334 z"
       id="path3100"
       inkscape:connector-curvature="0" />
    <path
       inkscape:connector-curvature="0"
       id="path3088"
       d="m 191.54716,88.5 c -40.51658,0 -75.38852,24.77022 -91.780805,60.84346 -6.61267,13.91061 -10.36402,29.46112 -10.36402,45.94198 l 0,121.42912 c 0,59.15738 47.628055,106.78544 106.785435,106.78544 l 119.62444,0 c 59.1574,0 106.78545,-47.62806 106.78545,-106.78544 l 0,-70.58874 c 0,-2.19487 -0.0175,-4.22475 -0.0515,-6.13591 -0.35474,-19.56682 -4.31162,-23.61551 -20.52178,-23.61551 l -21.70771,0 c -11.05411,0 -19.95976,-10.97366 -20.26397,-24.74989 l -0.0515,0 C 357.79523,134.11647 313.27228,88.5 258.32025,88.5 l -66.77313,0 z m 5.15623,85.90273 56.40913,0 c 11.80024,0 21.29521,9.18817 21.29521,20.57334 0,11.38515 -9.49497,20.52178 -21.29521,20.52178 l -56.40913,0 c -11.80025,0 -21.29521,-9.13663 -21.29521,-20.52178 0,-11.38517 9.49496,-20.57334 21.29521,-20.57334 z m -0.77342,121.01662 118.43852,0 c 11.38515,0 20.57333,9.18817 20.57333,20.57334 0,11.38517 -9.18819,20.57334 -20.57334,20.57334 l -118.43852,0 c -11.38517,0 -20.52178,-9.18817 -20.52178,-20.57334 0,-11.38517 9.13661,-20.57334 20.52178,-20.57334 z"
       style="fill:#dcdbdb;fill-opacity:1;stroke:none" />
  </g>
  <g
     id="g3167">
    <path
       id="rect3068"
       d="M 78.65625 6 C 63.792798 6 49.986224 10.429561 38.5 18.03125 L 38.5 493.96875 C 49.986224 501.57044 63.792798 506 78.65625 506 L 147.5 506 L 147.5 6 L 78.65625 6 z "
       style="opacity:0.05000000000000000;fill:url(#linearGradient3108);fill-opacity:1;stroke:none" />
    <path
       inkscape:connector-curvature="0"
       style="opacity:0.05;fill:url(#linearGradient3137);fill-opacity:1;stroke:none"
       d="m 147.50001,6 0,500 109,0 0,-500 -109,0 z"
       id="path3135" />
    <path
       id="path3139"
       d="m 256.50001,6 0,500 109,0 0,-500 -109,0 z"
       style="opacity:0.05;fill:url(#linearGradient3141);fill-opacity:1;stroke:none"
       inkscape:connector-curvature="0" />
    <path
       id="path3143"
       d="M 365.5 6 L 365.5 506 L 433.34375 506 C 448.1977 506 461.98692 501.56151 473.46875 493.96875 L 473.46875 18.03125 C 461.98692 10.438491 448.1977 6 433.34375 6 L 365.5 6 z "
       style="opacity:0.05000000000000000;fill:url(#linearGradient3145);fill-opacity:1;stroke:none" />
    <path
       id="path3151"
       d="M 38.5 18.03125 C 18.885717 31.012164 6 53.274894 6 78.65625 L 6 433.34375 C 6 458.72511 18.885717 480.98784 38.5 493.96875 L 38.5 18.03125 z "
       style="opacity:0.05000000000000000;fill:url(#linearGradient3153);fill-opacity:1;stroke:none" />
    <path
       id="path3147"
       d="M 473.46875 18.03125 L 473.46875 493.96875 C 493.09542 480.98993 506 458.73461 506 433.34375 L 506 78.65625 C 506 53.265388 493.09542 31.010071 473.46875 18.03125 z "
       style="opacity:0.05000000000000000;fill:url(#linearGradient3149);fill-opacity:1;stroke:none" />
  </g>
</svg>
