<?xml version="1.0" encoding="UTF-8" standalone="no"?>
<!-- Created with Inkscape (http://www.inkscape.org/) -->

<svg
   xmlns:dc="http://purl.org/dc/elements/1.1/"
   xmlns:cc="http://creativecommons.org/ns#"
   xmlns:rdf="http://www.w3.org/1999/02/22-rdf-syntax-ns#"
   xmlns:svg="http://www.w3.org/2000/svg"
   xmlns="http://www.w3.org/2000/svg"
   xmlns:xlink="http://www.w3.org/1999/xlink"
   xmlns:inkscape="http://www.inkscape.org/namespaces/inkscape"
   version="1.1"
   width="100%"
   height="100%"
   viewBox="0 0 512 512"
   id="svg2">
  <metadata
     id="metadata59">
    <rdf:RDF>
      <cc:Work
         rdf:about="">
        <dc:format>image/svg+xml</dc:format>
        <dc:type
           rdf:resource="http://purl.org/dc/dcmitype/StillImage" />
      </cc:Work>
    </rdf:RDF>
  </metadata>
  <defs
     id="defs4">
    <filter
       color-interpolation-filters="sRGB"
       id="7">
      <feGaussianBlur
         id="feGaussianBlur7"
         stdDeviation="3.7725" />
    </filter>
    <linearGradient
       y1="19.563999"
       x2="0"
       y2="504.01999"
       id="8"
       gradientUnits="userSpaceOnUse">
      <stop
         id="stop10"
         style="stop-color:#f3f3f3;stop-opacity:1"
         offset="0" />
      <stop
         id="stop12"
         style="stop-color:#eeeeee;stop-opacity:1"
         offset="0.5" />
      <stop
         id="stop14"
         style="stop-color:#ebebeb;stop-opacity:1"
         offset="1" />
    </linearGradient>
    <linearGradient
       x1="257"
       x2="362"
       id="5"
       xlink:href="#0"
       gradientUnits="userSpaceOnUse"
       gradientTransform="matrix(1.02835,0,0,1.46193,209.19,-118.25)" />
    <linearGradient
       x1="257"
       x2="362"
       id="6"
       xlink:href="#0"
       gradientUnits="userSpaceOnUse"
       gradientTransform="matrix(1.0381,0,0,1.46193,-337.29,-118.25)" />
    <linearGradient
       x1="257"
       x2="362"
       id="4"
       xlink:href="#0"
       gradientUnits="userSpaceOnUse"
       gradientTransform="matrix(1.02835,0,0,1.46193,101.22,-118.25)" />
    <linearGradient
       x1="257"
       x2="362"
       id="3"
       xlink:href="#0"
       gradientUnits="userSpaceOnUse"
       gradientTransform="matrix(1.0381,0,0,1.46193,-10.289,-118.25)" />
    <linearGradient
       id="0">
      <stop
         id="stop21"
         style="stop-color:#000000;stop-opacity:1"
         offset="0" />
      <stop
         id="stop23"
         style="stop-color:#ffffff;stop-opacity:1"
         offset="1" />
    </linearGradient>
    <linearGradient
       x1="257"
       x2="362"
       id="2"
       xlink:href="#0"
       gradientUnits="userSpaceOnUse"
       gradientTransform="matrix(1.0381,0,0,1.46193,-119.29,-118.25)" />
    <linearGradient
       x1="257"
       x2="362"
       id="1"
       xlink:href="#0"
       gradientUnits="userSpaceOnUse"
       gradientTransform="matrix(1.0381,0,0,1.46193,-228.29,-118.25)" />
  </defs>
  <path
     d="m 78.66,6 c -0.929,0 -1.861,0.028 -2.781,0.063 -0.073,0.003 -0.146,-0.003 -0.219,0 -0.668,0.027 -1.337,0.08 -2,0.125 -0.376,0.025 -0.751,0.063 -1.125,0.094 -0.645,0.053 -1.297,0.086 -1.938,0.156 -0.965,0.106 -1.922,0.232 -2.875,0.375 -0.052,0.008 -0.104,0.023 -0.156,0.031 -1.082,0.165 -2.154,0.351 -3.219,0.563 -0.459,0.091 -0.919,0.182 -1.375,0.281 -0.39,0.085 -0.769,0.19 -1.156,0.281 -0.647,0.152 -1.297,0.299 -1.938,0.469 -0.898,0.238 -1.804,0.479 -2.688,0.75 -0.211,0.065 -0.414,0.152 -0.625,0.219 -0.991,0.314 -1.966,0.645 -2.938,1 -0.817,0.298 -1.635,0.611 -2.438,0.938 -0.29,0.118 -0.587,0.222 -0.875,0.344 -0.136,0.057 -0.27,0.129 -0.406,0.188 -0.082,0.035 -0.169,0.058 -0.25,0.094 -0.717,0.311 -1.42,0.636 -2.125,0.969 -0.147,0.069 -0.291,0.148 -0.438,0.219 -0.947,0.455 -1.889,0.943 -2.813,1.438 -0.271,0.145 -0.544,0.289 -0.813,0.438 -0.414,0.228 -0.81,0.483 -1.219,0.719 -0.52,0.3 -1.051,0.594 -1.563,0.906 -0.738,0.452 -1.467,0.898 -2.188,1.375 -0.031,0.021 -0.062,0.042 -0.094,0.063 -0.456,0.303 -0.895,0.625 -1.344,0.938 -0.123,0.086 -0.252,0.163 -0.375,0.25 -0.524,0.37 -1.049,0.742 -1.563,1.125 -1.835,1.371 -3.618,2.84 -5.313,4.375 -0.017,0.015 -0.046,0.016 -0.063,0.031 -0.526,0.477 -1.02,0.977 -1.531,1.469 -0.524,0.505 -1.054,1.011 -1.563,1.531 -0.512,0.523 -1,1.055 -1.5,1.594 -0.941,1.022 -1.837,2.05 -2.719,3.125 -0.631,0.769 -1.244,1.58 -1.844,2.375 -0.111,0.148 -0.233,0.289 -0.344,0.438 -0.526,0.71 -1.031,1.427 -1.531,2.156 -0.11,0.16 -0.235,0.308 -0.344,0.469 -0.013,0.019 -0.018,0.043 -0.031,0.063 -0.084,0.125 -0.167,0.249 -0.25,0.375 -0.47,0.708 -0.929,1.431 -1.375,2.156 -0.071,0.116 -0.148,0.227 -0.219,0.344 -0.575,0.948 -1.124,1.899 -1.656,2.875 -0.152,0.278 -0.289,0.564 -0.438,0.844 -0.18,0.341 -0.356,0.687 -0.531,1.031 -0.243,0.479 -0.486,0.952 -0.719,1.438 -0.426,0.885 -0.828,1.783 -1.219,2.688 -0.24,0.556 -0.461,1.124 -0.688,1.688 -0.038,0.095 -0.087,0.186 -0.125,0.281 -0.246,0.621 -0.489,1.245 -0.719,1.875 -0.332,0.909 -0.641,1.825 -0.938,2.75 -0.11,0.345 -0.238,0.684 -0.344,1.031 -0.301,0.99 -0.585,1.992 -0.844,3 -0.008,0.032 -0.023,0.062 -0.031,0.094 -0.267,1.046 -0.497,2.092 -0.719,3.156 -0.034,0.166 -0.06,0.334 -0.094,0.5 -0.426,2.117 -0.762,4.257 -1,6.438 -0.035,0.323 -0.063,0.645 -0.094,0.969 -0.09,0.938 -0.165,1.895 -0.219,2.844 -0.017,0.29 -0.018,0.584 -0.031,0.875 -0.051,1.119 -0.094,2.243 -0.094,3.375 v 354.69 6 c 0,40.24 32.411,72.66 72.66,72.66 h 354.69 c 40.24,0 72.66,-32.411 72.66,-72.66 v -354.69 -6 c 0,-1.259 -0.031,-2.507 -0.094,-3.75 -0.016,-0.323 -0.042,-0.647 -0.063,-0.969 -0.058,-0.917 -0.127,-1.843 -0.219,-2.75 -0.02,-0.2 -0.041,-0.394 -0.063,-0.594 -0.246,-2.245 -0.587,-4.447 -1.031,-6.625 -0.021,-0.104 -0.041,-0.209 -0.063,-0.313 -0.227,-1.087 -0.476,-2.15 -0.75,-3.219 -0.011,-0.042 -0.02,-0.083 -0.031,-0.125 -0.19,-0.732 -0.413,-1.464 -0.625,-2.188 -0.212,-0.724 -0.423,-1.442 -0.656,-2.156 -0.258,-0.789 -0.529,-1.567 -0.813,-2.344 -0.23,-0.63 -0.472,-1.254 -0.719,-1.875 -0.038,-0.096 -0.087,-0.186 -0.125,-0.281 -0.239,-0.594 -0.465,-1.195 -0.719,-1.781 -0.378,-0.871 -0.777,-1.741 -1.188,-2.594 -0.233,-0.485 -0.475,-0.958 -0.719,-1.438 -0.287,-0.564 -0.574,-1.132 -0.875,-1.688 -0.051,-0.094 -0.105,-0.188 -0.156,-0.281 -0.513,-0.936 -1.041,-1.871 -1.594,-2.781 -0.212,-0.35 -0.438,-0.685 -0.656,-1.031 -0.405,-0.642 -0.795,-1.278 -1.219,-1.906 -0.809,-1.199 -1.685,-2.354 -2.563,-3.5 -0.262,-0.341 -0.514,-0.695 -0.781,-1.031 -0.189,-0.238 -0.371,-0.483 -0.563,-0.719 -0.093,-0.114 -0.188,-0.231 -0.281,-0.344 -2.71,-3.286 -5.696,-6.301 -8.938,-9.06 -0.293,-0.249 -0.578,-0.505 -0.875,-0.75 -0.268,-0.221 -0.541,-0.439 -0.813,-0.656 -0.636,-0.509 -1.284,-1.012 -1.938,-1.5 -3.17,-2.368 -6.55,-4.481 -10.09,-6.313 -0.617,-0.319 -1.248,-0.636 -1.875,-0.938 -0.155,-0.074 -0.313,-0.145 -0.469,-0.219 -0.785,-0.371 -1.575,-0.719 -2.375,-1.063 -0.488,-0.209 -0.975,-0.426 -1.469,-0.625 -0.735,-0.296 -1.472,-0.571 -2.219,-0.844 -0.392,-0.143 -0.793,-0.27 -1.188,-0.406 -0.718,-0.248 -1.459,-0.524 -2.188,-0.75 -0.114,-0.035 -0.23,-0.059 -0.344,-0.094 -0.488,-0.149 -0.977,-0.267 -1.469,-0.406 -0.357,-0.1 -0.703,-0.217 -1.063,-0.313 -0.019,-0.005 -0.043,0.005 -0.063,0 -0.837,-0.221 -1.683,-0.433 -2.531,-0.625 -0.032,-0.007 -0.062,-0.024 -0.094,-0.031 -0.651,-0.146 -1.311,-0.278 -1.969,-0.406 -1,-0.197 -2.01,-0.376 -3.03,-0.531 -0.063,-0.01 -0.125,-0.022 -0.188,-0.031 -0.952,-0.143 -1.88,-0.269 -2.844,-0.375 -0.836,-0.091 -1.687,-0.156 -2.531,-0.219 -0.176,-0.013 -0.355,-0.019 -0.531,-0.031 -0.735,-0.049 -1.478,-0.097 -2.219,-0.125 -0.92,-0.034 -1.853,-0.063 -2.781,-0.063 H 147.503 78.659"
     inkscape:connector-curvature="0"
     id="path27"
     style="fill-opacity:0.17600002;filter:url(#7)" />
  <rect
     width="500"
     height="500"
     rx="72.639999"
     x="6"
     y="12"
     id="rect29"
     style="opacity:0.15" />
  <rect
     width="500"
     height="500"
     rx="72.639999"
     x="6"
     y="6"
     id="rect31"
     style="fill:url(#8)" />
  <rect
     width="435"
     height="435"
     rx="63.200001"
     x="38.5"
     y="38.5"
     id="rect33"
     style="fill:#e75177" />
  <path
     d="M 101.69,38.5 C 66.68,38.5 38.5,66.67 38.5,101.69 v 15 C 38.5,81.68 66.67,53.5 101.69,53.5 h 308.63 c 35.01,0 63.19,28.17 63.19,63.19 v -15 C 473.51,66.68 445.34,38.5 410.32,38.5 H 101.7"
     inkscape:connector-curvature="0"
     id="path35"
     style="opacity:0.2" />
  <path
     d="M 78.66,6 C 38.42,6 6,38.411 6,78.66 v 7 C 6,45.42 38.411,13 78.66,13 h 354.69 c 40.24,0 72.66,32.411 72.66,72.66 v -7 C 506.01,38.42 473.599,6 433.35,6 H 78.66"
     inkscape:connector-curvature="0"
     id="path37"
     style="fill:#ffffff" />
  <g
     transform="translate(1048.5,466.12)"
     id="g39">
    <path
       d="m -786.31,-371.46 c -17.47,0.142 -35.02,3.048 -52.08,8.8 -36.01,12.142 -67.69,37.416 -88.74,70.788 -4.131,6.549 -12.176,23.14 -15.06,31.06 -4.519,12.427 -7.484,25.305 -8.964,38.32 -10e-4,0.007 10e-4,0.014 0,0.02 -0.092,0.806 -0.187,1.613 -0.267,2.42 -0.697,6.205 -1.087,12.501 -1.087,18.892 0,54.84 26.382,103.52 67.14,134.05 0.09,0.067 0.177,0.138 0.267,0.205 13.538,10.416 28.623,18.547 45.07,23.897 17.204,5.974 35.674,9.231 54.912,9.231 84.21,0 153.89,-62.18 165.64,-143.14 0.06,-0.39 0.127,-0.779 0.185,-1.169 0.086,-0.588 0.145,-1.177 0.226,-1.764 2.939,-21.494 1.766,-42.512 -3.631,-64.55 -9.57,-39.08 -34.991,-75.41 -68.68,-98.19 -28.56,-19.314 -61.58,-29.13 -94.93,-28.861 m 3.713,37.476 c 5.374,-0.023 10.267,0.153 13.148,0.533 20.779,2.746 39.927,9.923 56.963,21.353 9.962,6.684 9.722,6.03 4.431,11.918 -12.06,13.422 -28.642,25.605 -48.697,35.794 -5.218,2.651 -9.825,4.82 -10.236,4.82 -0.411,0 -3.02,-4.227 -5.805,-9.395 -10.146,-18.832 -22.846,-39.08 -34.15,-54.46 -3.03,-4.116 -5.383,-7.621 -5.231,-7.774 0.152,-0.153 2.743,-0.756 5.764,-1.333 4.564,-0.873 14.859,-1.418 23.815,-1.456 m -59.814,13.456 1.6,1.969 c 3.671,4.465 12.874,16.942 17.477,23.712 12.685,18.66 27.907,45.12 26.441,45.948 -2.721,1.535 -26.97,7.07 -40.984,9.354 -13.06,2.132 -19.02,2.825 -35.01,4.04 -7.197,0.547 -18.864,0.984 -25.948,0.985 h -12.882 l 1.292,-4.718 c 4.191,-15.241 13.338,-32.812 23.959,-46.05 10.496,-13.08 27.732,-27.28 40.922,-33.702 l 3.138,-1.538 m 160.35,36.697 2.892,3.959 c 13.301,18.209 22.75,43.533 24.266,65.07 0.243,3.451 0.154,5.977 -0.185,5.928 -0.324,-0.047 -4.112,-0.78 -8.431,-1.62 -16.12,-3.139 -24.397,-3.857 -44.16,-3.877 -14.441,-0.015 -20.571,0.251 -27.16,1.169 -4.678,0.652 -9.06,1.24 -9.743,1.313 -1.012,0.108 -2,-1.66 -5.354,-9.436 -2.267,-5.259 -4.146,-9.878 -4.164,-10.277 -0.018,-0.398 2.96,-2.102 6.605,-3.795 20.651,-9.591 40.775,-23.712 57.05,-40.02 l 8.39,-8.41 m -100.78,62.52 c 0.378,-0.004 6.717,14.329 7.22,16.328 0.139,0.551 -2.67,1.971 -7.959,4.02 -16.08,6.228 -35.28,16.921 -48.963,27.26 -17.719,13.392 -35.543,31.89 -48.18,49.968 -2.027,2.899 -3.898,5.259 -4.144,5.251 -0.582,-0.018 -7.768,-9.752 -10.913,-14.789 -7.576,-12.137 -14.205,-28.821 -17.03,-42.871 -1.659,-8.263 -3.176,-22.359 -2.81,-26.01 l 0.205,-2.113 17.661,-0.226 c 39.462,-0.53 76.16,-5.584 107.63,-14.81 3.778,-1.108 7.05,-2.01 7.282,-2.01 m 72.901,36.656 c 10.388,-0.026 21.408,0.633 30.728,1.949 9.167,1.295 21.432,3.639 22.09,4.226 1.395,1.239 -4.793,21.09 -10.03,32.18 -8.575,18.16 -21.894,34.958 -37.35,47.12 -3.11,2.446 -5.816,4.451 -6.01,4.451 -0.476,0 -0.75,-1.02 -2.749,-10.215 -4.539,-20.878 -10.984,-44.622 -18.17,-67.01 l -3.508,-10.974 2.995,-0.41 c 6.223,-0.862 13.93,-1.292 22.01,-1.313 m -54.727,8.82 c 0.661,0 8.555,24.09 12.533,38.24 3.67,13.05 7.929,30.458 10.728,43.876 1.286,6.165 2.476,11.826 2.646,12.595 0.255,1.149 -0.182,1.59 -2.462,2.441 -8.999,3.359 -20,5.865 -30.707,7.02 -0.721,0.077 -1.471,0.163 -2.215,0.226 -0.745,0.063 -1.492,0.116 -2.256,0.164 -10.708,0.674 -23.23,-0.087 -32.963,-2.051 -17.564,-3.544 -36.69,-11.705 -49.907,-21.292 l -3.405,-2.462 3.979,-5.908 c 6.851,-10.212 13.464,-18.08 24.348,-29 15.15,-15.205 28.899,-25.284 46.85,-34.36 7.209,-3.644 21.241,-9.477 22.83,-9.477"
       inkscape:connector-curvature="0"
       id="path41"
       style="opacity:0.2" />
    <path
       d="m -801.31,-386.46 c -17.47,0.142 -35.02,3.048 -52.08,8.8 -36.01,12.142 -67.69,37.416 -88.74,70.788 -4.131,6.549 -12.176,23.14 -15.06,31.06 -4.519,12.427 -7.484,25.305 -8.964,38.32 -10e-4,0.007 10e-4,0.014 0,0.02 -0.092,0.806 -0.187,1.613 -0.267,2.42 -0.697,6.205 -1.087,12.501 -1.087,18.892 0,54.84 26.382,103.52 67.14,134.05 0.09,0.067 0.177,0.138 0.267,0.205 13.538,10.416 28.623,18.547 45.07,23.897 17.204,5.974 35.674,9.231 54.912,9.231 84.21,0 153.89,-62.18 165.64,-143.14 0.06,-0.39 0.127,-0.779 0.185,-1.169 0.086,-0.588 0.145,-1.177 0.226,-1.764 2.939,-21.494 1.766,-42.512 -3.631,-64.55 -9.57,-39.08 -34.991,-75.41 -68.68,-98.19 -28.56,-19.314 -61.58,-29.13 -94.93,-28.861 m 3.713,37.476 c 5.374,-0.023 10.267,0.153 13.148,0.533 20.779,2.746 39.927,9.923 56.963,21.353 9.962,6.684 9.722,6.03 4.431,11.918 -12.06,13.422 -28.642,25.605 -48.697,35.794 -5.218,2.651 -9.825,4.82 -10.236,4.82 -0.411,0 -3.02,-4.227 -5.805,-9.395 -10.146,-18.832 -22.846,-39.08 -34.15,-54.46 -3.03,-4.116 -5.383,-7.621 -5.231,-7.774 0.152,-0.153 2.743,-0.756 5.764,-1.333 4.564,-0.873 14.859,-1.418 23.815,-1.456 m -59.814,13.456 1.6,1.969 c 3.671,4.465 12.874,16.942 17.477,23.712 12.685,18.66 27.907,45.12 26.441,45.948 -2.721,1.535 -26.97,7.07 -40.984,9.354 -13.06,2.132 -19.02,2.825 -35.01,4.04 -7.197,0.547 -18.864,0.984 -25.948,0.985 h -12.882 l 1.292,-4.718 c 4.191,-15.241 13.338,-32.812 23.959,-46.05 10.496,-13.08 27.732,-27.28 40.922,-33.702 l 3.138,-1.538 m 160.35,36.697 2.892,3.959 c 13.301,18.209 22.75,43.533 24.266,65.07 0.243,3.451 0.154,5.977 -0.185,5.928 -0.324,-0.047 -4.112,-0.78 -8.431,-1.62 -16.12,-3.139 -24.397,-3.857 -44.16,-3.877 -14.441,-0.015 -20.571,0.251 -27.16,1.169 -4.678,0.652 -9.06,1.24 -9.743,1.313 -1.012,0.108 -2,-1.66 -5.354,-9.436 -2.267,-5.259 -4.146,-9.878 -4.164,-10.277 -0.018,-0.398 2.96,-2.102 6.605,-3.795 20.651,-9.591 40.775,-23.712 57.05,-40.02 l 8.39,-8.41 m -100.78,62.52 c 0.378,-0.004 6.717,14.329 7.22,16.328 0.139,0.551 -2.67,1.971 -7.959,4.02 -16.08,6.228 -35.28,16.921 -48.963,27.26 -17.719,13.392 -35.543,31.89 -48.18,49.968 -2.027,2.899 -3.898,5.259 -4.144,5.251 -0.582,-0.018 -7.768,-9.752 -10.913,-14.789 -7.576,-12.137 -14.205,-28.821 -17.03,-42.871 -1.659,-8.263 -3.176,-22.359 -2.81,-26.01 l 0.205,-2.113 17.661,-0.226 c 39.462,-0.53 76.16,-5.584 107.63,-14.81 3.778,-1.108 7.05,-2.01 7.282,-2.01 m 72.901,36.656 c 10.388,-0.026 21.408,0.633 30.728,1.949 9.167,1.295 21.432,3.639 22.09,4.226 1.395,1.239 -4.793,21.09 -10.03,32.18 -8.575,18.16 -21.894,34.958 -37.35,47.12 -3.11,2.446 -5.816,4.451 -6.01,4.451 -0.476,0 -0.75,-1.02 -2.749,-10.215 -4.539,-20.878 -10.984,-44.622 -18.17,-67.01 l -3.508,-10.974 2.995,-0.41 c 6.223,-0.862 13.93,-1.292 22.01,-1.313 m -54.727,8.82 c 0.661,0 8.555,24.09 12.533,38.24 3.67,13.05 7.929,30.458 10.728,43.876 1.286,6.165 2.476,11.826 2.646,12.595 0.255,1.149 -0.182,1.59 -2.462,2.441 -8.999,3.359 -20,5.865 -30.707,7.02 -0.721,0.077 -1.471,0.163 -2.215,0.226 -0.745,0.063 -1.492,0.116 -2.256,0.164 -10.708,0.674 -23.23,-0.087 -32.963,-2.051 -17.564,-3.544 -36.69,-11.705 -49.907,-21.292 l -3.405,-2.462 3.979,-5.908 c 6.851,-10.212 13.464,-18.08 24.348,-29 15.15,-15.205 28.899,-25.284 46.85,-34.36 7.209,-3.644 21.241,-9.477 22.83,-9.477"
       inkscape:connector-curvature="0"
       id="path43"
       style="fill:#dcdbdb" />
  </g>
  <path
     d="M 78.66,6 C 63.797,6 49.99,10.43 38.5,18.03 V 493.97 C 49.986,501.572 63.793,506 78.66,506 h 68.844 V 6 H 78.66"
     inkscape:connector-curvature="0"
     id="path45"
     style="opacity:0.05;fill:url(#1)" />
  <path
     d="m 147.5,6 v 500 h 109 V 6 h -109"
     inkscape:connector-curvature="0"
     id="path47"
     style="opacity:0.05;fill:url(#2)" />
  <path
     d="m 256.5,6 v 500 h 109 V 6 h -109"
     inkscape:connector-curvature="0"
     id="path49"
     style="opacity:0.05;fill:url(#3)" />
  <path
     d="m 365.5,6 v 500 h 67.844 c 14.854,0 28.643,-4.438 40.13,-12.03 V 18.03 C 461.992,10.437 448.204,6 433.354,6 H 365.51"
     inkscape:connector-curvature="0"
     id="path51"
     style="opacity:0.05;fill:url(#4)" />
  <path
     d="M 38.5,18.03 C 18.886,31.011 6,53.27 6,78.66 v 354.69 c 0,25.381 12.886,47.644 32.5,60.63 V 18.04"
     inkscape:connector-curvature="0"
     id="path53"
     style="opacity:0.05;fill:url(#6)" />
  <path
     d="m 473.47,18.03 v 475.94 c 19.627,-12.979 32.531,-35.23 32.531,-60.62 V 78.66 c 0,-25.391 -12.905,-47.646 -32.531,-60.62"
     inkscape:connector-curvature="0"
     id="path55"
     style="opacity:0.05;fill:url(#5)" />
</svg>
