<?xml version="1.0" encoding="UTF-8" standalone="no"?>
<svg
   xmlns:dc="http://purl.org/dc/elements/1.1/"
   xmlns:cc="http://creativecommons.org/ns#"
   xmlns:rdf="http://www.w3.org/1999/02/22-rdf-syntax-ns#"
   xmlns:svg="http://www.w3.org/2000/svg"
   xmlns="http://www.w3.org/2000/svg"
   xmlns:xlink="http://www.w3.org/1999/xlink"
   xmlns:sodipodi="http://sodipodi.sourceforge.net/DTD/sodipodi-0.dtd"
   xmlns:inkscape="http://www.inkscape.org/namespaces/inkscape"
   viewBox="0 0 512 512"
   id="svg2"
   version="1.1"
   inkscape:version="0.48.4 r9939"
   width="100%"
   height="100%"
   sodipodi:docname="base.svg">
  <sodipodi:namedview
     pagecolor="#444444"
     bordercolor="#666666"
     borderopacity="1"
     objecttolerance="10"
     gridtolerance="10"
     guidetolerance="10"
     inkscape:pageopacity="0"
     inkscape:pageshadow="2"
     inkscape:window-width="1310"
     inkscape:window-height="718"
     id="namedview6"
     showgrid="false"
     showguides="true"
     inkscape:guide-bbox="true"
     inkscape:zoom="0.5181105"
     inkscape:cx="314.92945"
     inkscape:cy="537.57231"
     inkscape:window-x="54"
     inkscape:window-y="27"
     inkscape:window-maximized="1"
     inkscape:current-layer="svg2"
     inkscape:snap-midpoints="true"
     inkscape:snap-global="false">
    <sodipodi:guide
       id="guide2989"
       position="522.57628,433.35594"
       orientation="0,1" />
    <sodipodi:guide
       id="guide2995"
       position="473.05444,254.912"
       orientation="1,0" />
  </sodipodi:namedview>
  <metadata
     id="metadata10">
    <rdf:RDF>
      <cc:Work
         rdf:about="">
        <dc:format>image/svg+xml</dc:format>
        <dc:type
           rdf:resource="http://purl.org/dc/dcmitype/StillImage" />
        <dc:title></dc:title>
      </cc:Work>
    </rdf:RDF>
  </metadata>
  <defs
     id="defs8">
    <linearGradient
       id="linearGradient4996">
      <stop
         style="stop-color:#000000;stop-opacity:1;"
         offset="0"
         id="stop4998" />
      <stop
         style="stop-color:#ffffff;stop-opacity:1;"
         offset="1"
         id="stop5000" />
    </linearGradient>
    <linearGradient
       inkscape:collect="always"
       xlink:href="#linearGradient4996"
       id="linearGradient3108"
       gradientUnits="userSpaceOnUse"
       gradientTransform="matrix(1.0380952,0,0,1.4619252,-228.28943,-118.25286)"
       x1="257"
       y1="256"
       x2="362"
       y2="256" />
    <linearGradient
       inkscape:collect="always"
       xlink:href="#linearGradient4996"
       id="linearGradient3137"
       gradientUnits="userSpaceOnUse"
       gradientTransform="matrix(1.0380952,0,0,1.4619252,-119.28943,-118.25286)"
       x1="257"
       y1="256"
       x2="362"
       y2="256" />
    <linearGradient
       inkscape:collect="always"
       xlink:href="#linearGradient4996"
       id="linearGradient3141"
       gradientUnits="userSpaceOnUse"
       gradientTransform="matrix(1.0380952,0,0,1.4619252,-10.28943,-118.25286)"
       x1="257"
       y1="256"
       x2="362"
       y2="256" />
    <linearGradient
       inkscape:collect="always"
       xlink:href="#linearGradient4996"
       id="linearGradient3145"
       gradientUnits="userSpaceOnUse"
       gradientTransform="matrix(1.0283468,0,0,1.4619252,101.21591,-118.25286)"
       x1="257"
       y1="256"
       x2="362"
       y2="256" />
    <linearGradient
       inkscape:collect="always"
       xlink:href="#linearGradient4996"
       id="linearGradient3149"
       gradientUnits="userSpaceOnUse"
       gradientTransform="matrix(1.0283468,0,0,1.4619252,209.19233,-118.25286)"
       x1="257"
       y1="256"
       x2="362"
       y2="256" />
    <linearGradient
       inkscape:collect="always"
       xlink:href="#linearGradient4996"
       id="linearGradient3153"
       gradientUnits="userSpaceOnUse"
       gradientTransform="matrix(1.0380952,0,0,1.4619252,-337.28943,-118.25286)"
       x1="257"
       y1="256"
       x2="362"
       y2="256" />
  </defs>
  <rect
     style="opacity:0.2;fill:#000000;fill-opacity:1;stroke:none"
     id="rect5028"
     width="500"
     height="500"
     x="6"
     y="12"
     rx="72.644058"
     ry="72.644058" />
  <rect
     ry="72.644058"
     rx="72.644058"
     y="6"
     x="6"
     height="500"
     width="500"
     id="rect4979"
     style="fill:#f3f3f3;fill-opacity:1;stroke:none" />
  <rect
     style="fill:#e75177;fill-opacity:1;stroke:none"
     id="rect4981"
     width="434.99997"
     height="434.99997"
     x="38.500011"
     y="38.500011"
     rx="63.200329"
     ry="63.200329" />
  <path
     style="fill:#000000;fill-opacity:1;stroke:none;opacity:0.2"
     d="M 101.6875 38.5 C 66.674518 38.5 38.5 66.674518 38.5 101.6875 L 38.5 116.6875 C 38.5 81.674518 66.674518 53.5 101.6875 53.5 L 410.3125 53.5 C 445.32548 53.5 473.5 81.674518 473.5 116.6875 L 473.5 101.6875 C 473.5 66.674518 445.32548 38.5 410.3125 38.5 L 101.6875 38.5 z "
     id="rect3187" />
  <g
     id="g3090"
     transform="translate(1048.5,466.12186)">
    <path
       style="opacity:0.2;fill:#000000;fill-opacity:1;stroke:none"
       d="m -786.30826,-371.45693 c -17.47014,0.14229 -35.02331,3.04812 -52.08108,8.79983 -36.00984,12.14216 -67.68794,37.41634 -88.73678,70.78841 -4.13091,6.54935 -12.17589,23.13527 -15.05613,31.05582 -4.51885,12.42661 -7.48405,25.30542 -8.96393,38.31722 -7.7e-4,0.007 7.7e-4,0.0138 0,0.0205 -0.0916,0.80649 -0.18656,1.61302 -0.26666,2.42046 -0.69735,6.20454 -1.08716,12.50113 -1.08716,18.89195 0,54.84026 26.38174,103.5197 67.1372,134.048756 0.0898,0.06732 0.17666,0.137988 0.26666,0.205125 13.53782,10.416097 28.62311,18.547377 45.06581,23.896984 17.20437,5.973521 35.67363,9.230595 54.91179,9.230595 84.20799,0 153.89186,-62.18327 165.63789,-143.13576 0.0601,-0.38981 0.12718,-0.77861 0.18461,-1.16921 0.0864,-0.58784 0.14537,-1.17696 0.22564,-1.76406 2.93875,-21.49397 1.76646,-42.51197 -3.6307,-64.55263 -9.56981,-39.08083 -34.9906,-75.413 -68.67563,-98.19302 -28.56031,-19.31435 -61.57947,-29.13265 -94.93153,-28.86099 z m 3.71274,37.47621 c 5.37374,-0.0231 10.26653,0.15251 13.14848,0.53333 20.77867,2.74566 39.9265,9.92288 56.96302,21.35344 9.96189,6.68387 9.72185,6.02984 4.43069,11.91772 -12.06206,13.42237 -28.64228,25.6053 -48.69652,35.79419 -5.2176,2.65091 -9.82457,4.82043 -10.23571,4.82043 -0.41114,0 -3.0208,-4.22676 -5.80502,-9.39469 -10.14564,-18.83194 -22.84571,-39.08218 -34.15319,-54.46051 -3.02633,-4.11585 -5.38258,-7.62112 -5.23068,-7.77421 0.15192,-0.1531 2.74294,-0.75552 5.764,-1.33331 4.56372,-0.87286 14.8587,-1.41788 23.81493,-1.45639 z m -59.81425,13.45616 1.59997,1.96919 c 3.67116,4.46494 12.87415,16.94213 17.47659,23.71238 12.68542,18.66041 27.90662,45.12096 26.44052,45.94784 -2.72108,1.53473 -26.97021,7.06632 -40.98383,9.35367 -13.06416,2.13239 -19.02422,2.82492 -35.01473,4.04096 -7.19684,0.54731 -18.86432,0.98417 -25.94823,0.98459 l -12.8818,0 1.29228,-4.71786 c 4.19059,-15.24069 13.33828,-32.81209 23.95852,-46.05041 10.49612,-13.08355 27.73216,-27.28163 40.9223,-33.70193 l 3.13841,-1.53843 z m 160.34569,36.69674 2.89225,3.9589 c 13.30072,18.20934 22.74966,43.53271 24.26621,65.06544 0.24304,3.45079 0.1536,5.97693 -0.18462,5.92809 -0.32376,-0.0467 -4.1125,-0.77979 -8.43061,-1.62048 -16.1217,-3.13874 -24.39694,-3.8567 -44.16326,-3.87685 -14.4413,-0.0147 -20.5712,0.25103 -27.15847,1.16921 -4.67794,0.65205 -9.0593,1.23952 -9.7434,1.31279 -1.01153,0.10835 -2.00229,-1.66019 -5.35374,-9.43571 -2.26659,-5.2586 -4.14604,-9.87833 -4.16402,-10.27673 -0.018,-0.39842 2.96018,-2.10209 6.60499,-3.79481 20.65135,-9.59088 40.77536,-23.71159 57.04508,-40.01975 l 8.38959,-8.4101 z m -100.77759,62.52189 c 0.37791,-0.004 6.71674,14.32902 7.22038,16.3279 0.13892,0.55139 -2.66968,1.97125 -7.95883,4.02044 -16.07574,6.22825 -35.28292,16.92137 -48.96317,27.26102 -17.71885,13.39207 -35.54293,31.89042 -48.18371,49.96829 -2.02682,2.89863 -3.89842,5.25867 -4.14351,5.25118 -0.58242,-0.0176 -7.76825,-9.75242 -10.91261,-14.78946 -7.57644,-12.13705 -14.20528,-28.82103 -17.02533,-42.87099 -1.65854,-8.2631 -3.17632,-22.35919 -2.8102,-26.00976 l 0.20513,-2.11278 17.66121,-0.22564 c 39.4622,-0.53047 76.1587,-5.58427 107.62873,-14.80997 3.77834,-1.10766 7.05377,-2.00825 7.28191,-2.01023 z m 72.90119,36.65573 c 10.38774,-0.0262 21.40761,0.63262 30.72763,1.94868 9.16734,1.29451 21.4318,3.63929 22.09188,4.22556 1.39546,1.23939 -4.79295,21.08987 -10.03057,32.184 -8.57547,18.1642 -21.89362,34.95804 -37.35314,47.11706 -3.11037,2.44632 -5.81622,4.4512 -6.01015,4.4512 -0.47566,0 -0.74974,-1.01971 -2.74866,-10.21519 -4.53854,-20.87822 -10.98409,-44.6222 -18.17402,-67.01412 l -3.50762,-10.97415 2.99481,-0.41025 c 6.22322,-0.86228 13.93048,-1.29244 22.00984,-1.31279 z m -54.72717,8.82034 c 0.66125,0 8.55545,24.08877 12.5331,38.23517 3.67039,13.05368 7.92898,30.45753 10.728,43.8761 1.28602,6.16525 2.47577,11.826009 2.64611,12.594638 0.25466,1.149189 -0.18234,1.59028 -2.4615,2.440979 -8.99855,3.358734 -20.00028,5.86549 -30.70712,7.01525 -0.72132,0.07746 -1.47058,0.162898 -2.21533,0.225637 -0.74476,0.06274 -1.49152,0.115939 -2.25637,0.164099 -10.70796,0.674252 -23.22652,-0.08652 -32.96348,-2.051247 -17.56383,-3.544022 -36.68991,-11.704936 -49.90675,-21.291896 l -3.40507,-2.4615 3.97942,-5.90758 c 6.85112,-10.21211 13.46357,-18.08248 24.34825,-29.00458 15.15261,-15.20468 28.89883,-25.28358 46.8504,-34.35832 7.20878,-3.64414 21.24076,-9.47675 22.83034,-9.47675 z"
       id="path3088"
       inkscape:connector-curvature="0" />
    <path
       inkscape:connector-curvature="0"
       id="path3082"
       d="m -801.30826,-386.45693 c -17.47014,0.14229 -35.02331,3.04812 -52.08108,8.79983 -36.00984,12.14216 -67.68794,37.41634 -88.73678,70.78841 -4.13091,6.54935 -12.17589,23.13527 -15.05613,31.05582 -4.51885,12.42661 -7.48405,25.30542 -8.96393,38.31722 -7.7e-4,0.007 7.7e-4,0.0138 0,0.0205 -0.0916,0.80649 -0.18656,1.61302 -0.26666,2.42046 -0.69735,6.20454 -1.08716,12.50113 -1.08716,18.89195 0,54.84026 26.38174,103.5197 67.1372,134.048756 0.0898,0.06732 0.17666,0.137988 0.26666,0.205125 13.53782,10.416097 28.62311,18.547377 45.06581,23.896984 17.20437,5.973521 35.67363,9.230595 54.91179,9.230595 84.20799,0 153.89186,-62.18327 165.63789,-143.13576 0.0601,-0.38981 0.12718,-0.77861 0.18461,-1.16921 0.0864,-0.58784 0.14537,-1.17696 0.22564,-1.76406 2.93875,-21.49397 1.76646,-42.51197 -3.6307,-64.55263 -9.56981,-39.08083 -34.9906,-75.413 -68.67563,-98.19302 -28.56031,-19.31435 -61.57947,-29.13265 -94.93153,-28.86099 z m 3.71274,37.47621 c 5.37374,-0.0231 10.26653,0.15251 13.14848,0.53333 20.77867,2.74566 39.9265,9.92288 56.96302,21.35344 9.96189,6.68387 9.72185,6.02984 4.43069,11.91772 -12.06206,13.42237 -28.64228,25.6053 -48.69652,35.79419 -5.2176,2.65091 -9.82457,4.82043 -10.23571,4.82043 -0.41114,0 -3.0208,-4.22676 -5.80502,-9.39469 -10.14564,-18.83194 -22.84571,-39.08218 -34.15319,-54.46051 -3.02633,-4.11585 -5.38258,-7.62112 -5.23068,-7.77421 0.15192,-0.1531 2.74294,-0.75552 5.764,-1.33331 4.56372,-0.87286 14.8587,-1.41788 23.81493,-1.45639 z m -59.81425,13.45616 1.59997,1.96919 c 3.67116,4.46494 12.87415,16.94213 17.47659,23.71238 12.68542,18.66041 27.90662,45.12096 26.44052,45.94784 -2.72108,1.53473 -26.97021,7.06632 -40.98383,9.35367 -13.06416,2.13239 -19.02422,2.82492 -35.01473,4.04096 -7.19684,0.54731 -18.86432,0.98417 -25.94823,0.98459 l -12.8818,0 1.29228,-4.71786 c 4.19059,-15.24069 13.33828,-32.81209 23.95852,-46.05041 10.49612,-13.08355 27.73216,-27.28163 40.9223,-33.70193 l 3.13841,-1.53843 z m 160.34569,36.69674 2.89225,3.9589 c 13.30072,18.20934 22.74966,43.53271 24.26621,65.06544 0.24304,3.45079 0.1536,5.97693 -0.18462,5.92809 -0.32376,-0.0467 -4.1125,-0.77979 -8.43061,-1.62048 -16.1217,-3.13874 -24.39694,-3.8567 -44.16326,-3.87685 -14.4413,-0.0147 -20.5712,0.25103 -27.15847,1.16921 -4.67794,0.65205 -9.0593,1.23952 -9.7434,1.31279 -1.01153,0.10835 -2.00229,-1.66019 -5.35374,-9.43571 -2.26659,-5.2586 -4.14604,-9.87833 -4.16402,-10.27673 -0.018,-0.39842 2.96018,-2.10209 6.60499,-3.79481 20.65135,-9.59088 40.77536,-23.71159 57.04508,-40.01975 l 8.38959,-8.4101 z m -100.77759,62.52189 c 0.37791,-0.004 6.71674,14.32902 7.22038,16.3279 0.13892,0.55139 -2.66968,1.97125 -7.95883,4.02044 -16.07574,6.22825 -35.28292,16.92137 -48.96317,27.26102 -17.71885,13.39207 -35.54293,31.89042 -48.18371,49.96829 -2.02682,2.89863 -3.89842,5.25867 -4.14351,5.25118 -0.58242,-0.0176 -7.76825,-9.75242 -10.91261,-14.78946 -7.57644,-12.13705 -14.20528,-28.82103 -17.02533,-42.87099 -1.65854,-8.2631 -3.17632,-22.35919 -2.8102,-26.00976 l 0.20513,-2.11278 17.66121,-0.22564 c 39.4622,-0.53047 76.1587,-5.58427 107.62873,-14.80997 3.77834,-1.10766 7.05377,-2.00825 7.28191,-2.01023 z m 72.90119,36.65573 c 10.38774,-0.0262 21.40761,0.63262 30.72763,1.94868 9.16734,1.29451 21.4318,3.63929 22.09188,4.22556 1.39546,1.23939 -4.79295,21.08987 -10.03057,32.184 -8.57547,18.1642 -21.89362,34.95804 -37.35314,47.11706 -3.11037,2.44632 -5.81622,4.4512 -6.01015,4.4512 -0.47566,0 -0.74974,-1.01971 -2.74866,-10.21519 -4.53854,-20.87822 -10.98409,-44.6222 -18.17402,-67.01412 l -3.50762,-10.97415 2.99481,-0.41025 c 6.22322,-0.86228 13.93048,-1.29244 22.00984,-1.31279 z m -54.72717,8.82034 c 0.66125,0 8.55545,24.08877 12.5331,38.23517 3.67039,13.05368 7.92898,30.45753 10.728,43.8761 1.28602,6.16525 2.47577,11.826009 2.64611,12.594638 0.25466,1.149189 -0.18234,1.59028 -2.4615,2.440979 -8.99855,3.358734 -20.00028,5.86549 -30.70712,7.01525 -0.72132,0.07746 -1.47058,0.162898 -2.21533,0.225637 -0.74476,0.06274 -1.49152,0.115939 -2.25637,0.164099 -10.70796,0.674252 -23.22652,-0.08652 -32.96348,-2.051247 -17.56383,-3.544022 -36.68991,-11.704936 -49.90675,-21.291896 l -3.40507,-2.4615 3.97942,-5.90758 c 6.85112,-10.21211 13.46357,-18.08248 24.34825,-29.00458 15.15261,-15.20468 28.89883,-25.28358 46.8504,-34.35832 7.20878,-3.64414 21.24076,-9.47675 22.83034,-9.47675 z"
       style="fill:#dcdbdb;fill-opacity:1;stroke:none" />
  </g>
  <g
     id="g3167">
    <path
       id="rect3068"
       d="M 78.65625 6 C 63.792798 6 49.986224 10.429561 38.5 18.03125 L 38.5 493.96875 C 49.986224 501.57044 63.792798 506 78.65625 506 L 147.5 506 L 147.5 6 L 78.65625 6 z "
       style="opacity:0.05000000000000000;fill:url(#linearGradient3108);fill-opacity:1;stroke:none" />
    <path
       inkscape:connector-curvature="0"
       style="opacity:0.05;fill:url(#linearGradient3137);fill-opacity:1;stroke:none"
       d="m 147.50001,6 0,500 109,0 0,-500 -109,0 z"
       id="path3135" />
    <path
       id="path3139"
       d="m 256.50001,6 0,500 109,0 0,-500 -109,0 z"
       style="opacity:0.05;fill:url(#linearGradient3141);fill-opacity:1;stroke:none"
       inkscape:connector-curvature="0" />
    <path
       id="path3143"
       d="M 365.5 6 L 365.5 506 L 433.34375 506 C 448.1977 506 461.98692 501.56151 473.46875 493.96875 L 473.46875 18.03125 C 461.98692 10.438491 448.1977 6 433.34375 6 L 365.5 6 z "
       style="opacity:0.05000000000000000;fill:url(#linearGradient3145);fill-opacity:1;stroke:none" />
    <path
       id="path3151"
       d="M 38.5 18.03125 C 18.885717 31.012164 6 53.274894 6 78.65625 L 6 433.34375 C 6 458.72511 18.885717 480.98784 38.5 493.96875 L 38.5 18.03125 z "
       style="opacity:0.05000000000000000;fill:url(#linearGradient3153);fill-opacity:1;stroke:none" />
    <path
       id="path3147"
       d="M 473.46875 18.03125 L 473.46875 493.96875 C 493.09542 480.98993 506 458.73461 506 433.34375 L 506 78.65625 C 506 53.265388 493.09542 31.010071 473.46875 18.03125 z "
       style="opacity:0.05000000000000000;fill:url(#linearGradient3149);fill-opacity:1;stroke:none" />
  </g>
</svg>
