<?xml version="1.0" encoding="UTF-8" standalone="no"?>
<svg
   xmlns:dc="http://purl.org/dc/elements/1.1/"
   xmlns:cc="http://creativecommons.org/ns#"
   xmlns:rdf="http://www.w3.org/1999/02/22-rdf-syntax-ns#"
   xmlns:svg="http://www.w3.org/2000/svg"
   xmlns="http://www.w3.org/2000/svg"
   xmlns:xlink="http://www.w3.org/1999/xlink"
   xmlns:sodipodi="http://sodipodi.sourceforge.net/DTD/sodipodi-0.dtd"
   xmlns:inkscape="http://www.inkscape.org/namespaces/inkscape"
   viewBox="0 0 512 512"
   id="svg2"
   version="1.1"
   inkscape:version="0.48.4 r9939"
   width="100%"
   height="100%"
   sodipodi:docname="base.svg">
  <sodipodi:namedview
     pagecolor="#444444"
     bordercolor="#666666"
     borderopacity="1"
     objecttolerance="10"
     gridtolerance="10"
     guidetolerance="10"
     inkscape:pageopacity="0"
     inkscape:pageshadow="2"
     inkscape:window-width="1310"
     inkscape:window-height="718"
     id="namedview6"
     showgrid="false"
     showguides="true"
     inkscape:guide-bbox="true"
     inkscape:zoom="0.73271889"
     inkscape:cx="163.44405"
     inkscape:cy="225.90052"
     inkscape:window-x="54"
     inkscape:window-y="27"
     inkscape:window-maximized="1"
     inkscape:current-layer="svg2"
     inkscape:snap-midpoints="true"
     inkscape:snap-global="false">
    <sodipodi:guide
       id="guide2989"
       position="522.57628,433.35594"
       orientation="0,1" />
    <sodipodi:guide
       id="guide2995"
       position="473.05444,254.912"
       orientation="1,0" />
  </sodipodi:namedview>
  <metadata
     id="metadata10">
    <rdf:RDF>
      <cc:Work
         rdf:about="">
        <dc:format>image/svg+xml</dc:format>
        <dc:type
           rdf:resource="http://purl.org/dc/dcmitype/StillImage" />
        <dc:title></dc:title>
      </cc:Work>
    </rdf:RDF>
  </metadata>
  <defs
     id="defs8">
    <linearGradient
       id="linearGradient4996">
      <stop
         style="stop-color:#000000;stop-opacity:1;"
         offset="0"
         id="stop4998" />
      <stop
         style="stop-color:#ffffff;stop-opacity:1;"
         offset="1"
         id="stop5000" />
    </linearGradient>
    <linearGradient
       inkscape:collect="always"
       xlink:href="#linearGradient4996"
       id="linearGradient3108"
       gradientUnits="userSpaceOnUse"
       gradientTransform="matrix(1.0380952,0,0,1.4619252,-228.28943,-118.25286)"
       x1="257"
       y1="256"
       x2="362"
       y2="256" />
    <linearGradient
       inkscape:collect="always"
       xlink:href="#linearGradient4996"
       id="linearGradient3137"
       gradientUnits="userSpaceOnUse"
       gradientTransform="matrix(1.0380952,0,0,1.4619252,-119.28943,-118.25286)"
       x1="257"
       y1="256"
       x2="362"
       y2="256" />
    <linearGradient
       inkscape:collect="always"
       xlink:href="#linearGradient4996"
       id="linearGradient3141"
       gradientUnits="userSpaceOnUse"
       gradientTransform="matrix(1.0380952,0,0,1.4619252,-10.28943,-118.25286)"
       x1="257"
       y1="256"
       x2="362"
       y2="256" />
    <linearGradient
       inkscape:collect="always"
       xlink:href="#linearGradient4996"
       id="linearGradient3145"
       gradientUnits="userSpaceOnUse"
       gradientTransform="matrix(1.0283468,0,0,1.4619252,101.21591,-118.25286)"
       x1="257"
       y1="256"
       x2="362"
       y2="256" />
    <linearGradient
       inkscape:collect="always"
       xlink:href="#linearGradient4996"
       id="linearGradient3149"
       gradientUnits="userSpaceOnUse"
       gradientTransform="matrix(1.0283468,0,0,1.4619252,209.19233,-118.25286)"
       x1="257"
       y1="256"
       x2="362"
       y2="256" />
    <linearGradient
       inkscape:collect="always"
       xlink:href="#linearGradient4996"
       id="linearGradient3153"
       gradientUnits="userSpaceOnUse"
       gradientTransform="matrix(1.0380952,0,0,1.4619252,-337.28943,-118.25286)"
       x1="257"
       y1="256"
       x2="362"
       y2="256" />
  </defs>
  <rect
     style="opacity:0.2;fill:#000000;fill-opacity:1;stroke:none"
     id="rect5028"
     width="500"
     height="500"
     x="6"
     y="12"
     rx="72.644058"
     ry="72.644058" />
  <rect
     ry="72.644058"
     rx="72.644058"
     y="6"
     x="6"
     height="500"
     width="500"
     id="rect4979"
     style="fill:#f3f3f3;fill-opacity:1;stroke:none" />
  <rect
     style="fill:#0078ad;fill-opacity:1;stroke:none"
     id="rect4981"
     width="434.99997"
     height="434.99997"
     x="38.500011"
     y="38.500011"
     rx="63.200329"
     ry="63.200329" />
  <path
     style="fill:#000000;fill-opacity:1;stroke:none;opacity:0.2"
     d="M 101.6875 38.5 C 66.674518 38.5 38.5 66.674518 38.5 101.6875 L 38.5 116.6875 C 38.5 81.674518 66.674518 53.5 101.6875 53.5 L 410.3125 53.5 C 445.32548 53.5 473.5 81.674518 473.5 116.6875 L 473.5 101.6875 C 473.5 66.674518 445.32548 38.5 410.3125 38.5 L 101.6875 38.5 z "
     id="rect3187" />
  <g
     id="g3813"
     transform="translate(551.65531,144.9558)">
    <path
       id="path3811"
       d="m -170.89549,52.213633 c -37.32612,-45.6382618 -67.42885,-49.663472 -86.47663,-60.545672 -13.63024,-7.79395 -26.20314,-21.50793 -42.19406,-40.62376 -1.07305,10.3326 -2.17749,20.63379 -8.92456,28.24453 -13.2586,14.98593 -31.26475,24.18791 -45.94186,31.43748 -37.33658,18.403957 -80.28439,61.278483 -80.28439,129.796069 0,33.18052 12.77704,68.89446 36.90737,96.41141 25.6483,29.28617 64.04746,49.33371 109.66478,49.10863 40.75985,-0.20414 74.23349,-13.53602 99.37929,-35.29519 29.43273,-25.44939 47.17192,-62.83308 47.17192,-110.22485 0,-34.91309 -10.39541,-65.151902 -29.30186,-88.308647 z m -41.26759,203.406677 c -18.00091,15.04874 -66.71697,23.63307 -89.89465,4.47536 -2.28218,-1.8896 -2.36069,-4.73185 -0.85844,-6.38067 1.12539,-1.24054 2.10421,-1.81108 3.45467,-2.591 1.68546,-0.96835 3.85248,-0.58101 5.3181,0.75375 9.1287,8.45347 52.29112,15.54077 78.2273,-1.92101 0.95265,-0.64382 2.18796,-1.07827 3.24006,-0.61242 0.78515,0.335 1.26671,0.75898 1.3714,1.65929 0.16226,1.44992 0.26171,3.65881 -0.85844,4.6167 z m -60.66607,-22.79558 c 0.0628,-2.16702 0.66477,-3.51225 2.2089,-5.03544 8.87221,-8.86175 18.32021,-14.10656 28.91976,-13.85008 16.92788,0.42398 17.65545,4.41255 22.58097,14.3264 0.98406,2.01523 0.40828,3.75826 -0.23555,4.77896 -0.34546,0.56008 -2.29264,2.4235 -2.9417,2.4235 -1.63311,0 -2.22983,-0.59671 -2.89459,-2.25076 -4.03568,-10.10229 -10.01854,-10.14417 -17.58217,-10.14417 -11.62549,-0.0105 -16.69233,5.6688 -23.56503,11.36377 -1.71686,1.41851 -3.32381,2.47584 -4.61146,1.40804 -1.03116,-0.88461 -1.90006,-2.10421 -1.87913,-3.02022 z m 90.83161,-3.66404 c -16.17413,-1.25625 -34.20645,-38.54049 -51.99799,-38.2369 -23.4237,0.39781 -57.75054,39.87525 -96.3015,39.30994 -19.67067,-0.29836 -40.85407,-7.47988 -41.49789,-37.48838 -0.5339,-24.99924 23.84244,-50.98777 54.80883,-50.24972 41.14719,0.96835 61.41982,37.01729 82.00127,37.14815 20.17317,0.14133 43.88999,-31.40084 64.26206,-31.8981 10.85603,-0.25649 19.23099,10.22267 20.03707,24.81603 1.21961,21.89527 -12.67235,58.03319 -31.31185,56.59898 z"
       inkscape:connector-curvature="0"
       style="opacity:0.2;fill:#000000;fill-opacity:1" />
    <path
       style="fill:#dcdbdb;fill-opacity:1"
       inkscape:connector-curvature="0"
       d="m -185.89549,37.213633 c -37.32612,-45.6382618 -67.42885,-49.663472 -86.47663,-60.545672 -13.63024,-7.79395 -26.20314,-21.50793 -42.19406,-40.62376 -1.07305,10.3326 -2.17749,20.63379 -8.92456,28.24453 -13.2586,14.98593 -31.26475,24.18791 -45.94186,31.4374802 -37.33658,18.4039568 -80.28439,61.2784828 -80.28439,129.7960688 0,33.18052 12.77704,68.89446 36.90737,96.41141 25.6483,29.28617 64.04746,49.33371 109.66478,49.10863 40.75985,-0.20414 74.23349,-13.53602 99.37929,-35.29519 29.43273,-25.44939 47.17192,-62.83308 47.17192,-110.22485 0,-34.913087 -10.39541,-65.151902 -29.30186,-88.308647 z m -41.26759,203.406677 c -18.00091,15.04874 -66.71697,23.63307 -89.89465,4.47536 -2.28218,-1.8896 -2.36069,-4.73185 -0.85844,-6.38067 1.12539,-1.24054 2.10421,-1.81108 3.45467,-2.591 1.68546,-0.96835 3.85248,-0.58101 5.3181,0.75375 9.1287,8.45347 52.29112,15.54077 78.2273,-1.92101 0.95265,-0.64382 2.18796,-1.07827 3.24006,-0.61242 0.78515,0.335 1.26671,0.75898 1.3714,1.65929 0.16226,1.44992 0.26171,3.65881 -0.85844,4.6167 z m -60.66607,-22.79558 c 0.0628,-2.16702 0.66477,-3.51225 2.2089,-5.03544 8.87221,-8.86175 18.32021,-14.10656 28.91976,-13.85008 16.92788,0.42398 17.65545,4.41255 22.58097,14.3264 0.98406,2.01523 0.40828,3.75826 -0.23555,4.77896 -0.34546,0.56008 -2.29264,2.4235 -2.9417,2.4235 -1.63311,0 -2.22983,-0.59671 -2.89459,-2.25076 -4.03568,-10.10229 -10.01854,-10.14417 -17.58217,-10.14417 -11.62549,-0.0105 -16.69233,5.6688 -23.56503,11.36377 -1.71686,1.41851 -3.32381,2.47584 -4.61146,1.40804 -1.03116,-0.88461 -1.90006,-2.10421 -1.87913,-3.02022 z m 90.83161,-3.66404 c -16.17413,-1.25625 -34.20645,-38.54049 -51.99799,-38.2369 -23.4237,0.39781 -57.75054,39.87525 -96.3015,39.30994 -19.67067,-0.29836 -40.85407,-7.47988 -41.49789,-37.48838 -0.5339,-24.99924 23.84244,-50.98777 54.80883,-50.24972 41.14719,0.96835 61.41982,37.01729 82.00127,37.14815 20.17317,0.14133 43.88999,-31.40084 64.26206,-31.8981 10.85603,-0.25649 19.23099,10.22267 20.03707,24.81603 1.21961,21.89527 -12.67235,58.03319 -31.31185,56.59898 z"
       id="path3034" />
  </g>
  <g
     id="g3167">
    <path
       id="rect3068"
       d="M 78.65625 6 C 63.792798 6 49.986224 10.429561 38.5 18.03125 L 38.5 493.96875 C 49.986224 501.57044 63.792798 506 78.65625 506 L 147.5 506 L 147.5 6 L 78.65625 6 z "
       style="opacity:0.05000000000000000;fill:url(#linearGradient3108);fill-opacity:1;stroke:none" />
    <path
       inkscape:connector-curvature="0"
       style="opacity:0.05;fill:url(#linearGradient3137);fill-opacity:1;stroke:none"
       d="m 147.50001,6 0,500 109,0 0,-500 -109,0 z"
       id="path3135" />
    <path
       id="path3139"
       d="m 256.50001,6 0,500 109,0 0,-500 -109,0 z"
       style="opacity:0.05;fill:url(#linearGradient3141);fill-opacity:1;stroke:none"
       inkscape:connector-curvature="0" />
    <path
       id="path3143"
       d="M 365.5 6 L 365.5 506 L 433.34375 506 C 448.1977 506 461.98692 501.56151 473.46875 493.96875 L 473.46875 18.03125 C 461.98692 10.438491 448.1977 6 433.34375 6 L 365.5 6 z "
       style="opacity:0.05000000000000000;fill:url(#linearGradient3145);fill-opacity:1;stroke:none" />
    <path
       id="path3151"
       d="M 38.5 18.03125 C 18.885717 31.012164 6 53.274894 6 78.65625 L 6 433.34375 C 6 458.72511 18.885717 480.98784 38.5 493.96875 L 38.5 18.03125 z "
       style="opacity:0.05000000000000000;fill:url(#linearGradient3153);fill-opacity:1;stroke:none" />
    <path
       id="path3147"
       d="M 473.46875 18.03125 L 473.46875 493.96875 C 493.09542 480.98993 506 458.73461 506 433.34375 L 506 78.65625 C 506 53.265388 493.09542 31.010071 473.46875 18.03125 z "
       style="opacity:0.05000000000000000;fill:url(#linearGradient3149);fill-opacity:1;stroke:none" />
  </g>
</svg>
