<?xml version="1.0" encoding="UTF-8" standalone="no"?>
<!-- Created with Inkscape (http://www.inkscape.org/) -->

<svg
   xmlns:dc="http://purl.org/dc/elements/1.1/"
   xmlns:cc="http://creativecommons.org/ns#"
   xmlns:rdf="http://www.w3.org/1999/02/22-rdf-syntax-ns#"
   xmlns:svg="http://www.w3.org/2000/svg"
   xmlns="http://www.w3.org/2000/svg"
   xmlns:xlink="http://www.w3.org/1999/xlink"
   xmlns:inkscape="http://www.inkscape.org/namespaces/inkscape"
   version="1.1"
   width="100%"
   height="100%"
   viewBox="0 0 512 512"
   id="svg2">
  <metadata
     id="metadata65">
    <rdf:RDF>
      <cc:Work
         rdf:about="">
        <dc:format>image/svg+xml</dc:format>
        <dc:type
           rdf:resource="http://purl.org/dc/dcmitype/StillImage" />
      </cc:Work>
    </rdf:RDF>
  </metadata>
  <defs
     id="defs4">
    <filter
       color-interpolation-filters="sRGB"
       id="7">
      <feGaussianBlur
         id="feGaussianBlur7"
         stdDeviation="3.7725" />
    </filter>
    <linearGradient
       y1="19.563999"
       x2="0"
       y2="504.01999"
       id="8"
       gradientUnits="userSpaceOnUse">
      <stop
         id="stop10"
         style="stop-color:#f3f3f3;stop-opacity:1"
         offset="0" />
      <stop
         id="stop12"
         style="stop-color:#eeeeee;stop-opacity:1"
         offset="0.5" />
      <stop
         id="stop14"
         style="stop-color:#ebebeb;stop-opacity:1"
         offset="1" />
    </linearGradient>
    <linearGradient
       x1="257"
       x2="362"
       id="5"
       xlink:href="#0"
       gradientUnits="userSpaceOnUse"
       gradientTransform="matrix(1.02835,0,0,1.46193,209.19,-118.25)" />
    <linearGradient
       x1="257"
       x2="362"
       id="6"
       xlink:href="#0"
       gradientUnits="userSpaceOnUse"
       gradientTransform="matrix(1.0381,0,0,1.46193,-337.29,-118.25)" />
    <linearGradient
       x1="257"
       x2="362"
       id="4"
       xlink:href="#0"
       gradientUnits="userSpaceOnUse"
       gradientTransform="matrix(1.02835,0,0,1.46193,101.22,-118.25)" />
    <linearGradient
       x1="257"
       x2="362"
       id="3"
       xlink:href="#0"
       gradientUnits="userSpaceOnUse"
       gradientTransform="matrix(1.0381,0,0,1.46193,-10.289,-118.25)" />
    <linearGradient
       id="0">
      <stop
         id="stop21"
         style="stop-color:#000000;stop-opacity:1"
         offset="0" />
      <stop
         id="stop23"
         style="stop-color:#ffffff;stop-opacity:1"
         offset="1" />
    </linearGradient>
    <linearGradient
       x1="257"
       x2="362"
       id="2"
       xlink:href="#0"
       gradientUnits="userSpaceOnUse"
       gradientTransform="matrix(1.0381,0,0,1.46193,-119.29,-118.25)" />
    <linearGradient
       x1="257"
       x2="362"
       id="1"
       xlink:href="#0"
       gradientUnits="userSpaceOnUse"
       gradientTransform="matrix(1.0381,0,0,1.46193,-228.29,-118.25)" />
  </defs>
  <path
     d="m 78.66,6 c -0.929,0 -1.861,0.028 -2.781,0.063 -0.073,0.003 -0.146,-0.003 -0.219,0 -0.668,0.027 -1.337,0.08 -2,0.125 -0.376,0.025 -0.751,0.063 -1.125,0.094 -0.645,0.053 -1.297,0.086 -1.938,0.156 -0.965,0.106 -1.922,0.232 -2.875,0.375 -0.052,0.008 -0.104,0.023 -0.156,0.031 -1.082,0.165 -2.154,0.351 -3.219,0.563 -0.459,0.091 -0.919,0.182 -1.375,0.281 -0.39,0.085 -0.769,0.19 -1.156,0.281 -0.647,0.152 -1.297,0.299 -1.938,0.469 -0.898,0.238 -1.804,0.479 -2.688,0.75 -0.211,0.065 -0.414,0.152 -0.625,0.219 -0.991,0.314 -1.966,0.645 -2.938,1 -0.817,0.298 -1.635,0.611 -2.438,0.938 -0.29,0.118 -0.587,0.222 -0.875,0.344 -0.136,0.057 -0.27,0.129 -0.406,0.188 -0.082,0.035 -0.169,0.058 -0.25,0.094 -0.717,0.311 -1.42,0.636 -2.125,0.969 -0.147,0.069 -0.291,0.148 -0.438,0.219 -0.947,0.455 -1.889,0.943 -2.813,1.438 -0.271,0.145 -0.544,0.289 -0.813,0.438 -0.414,0.228 -0.81,0.483 -1.219,0.719 -0.52,0.3 -1.051,0.594 -1.563,0.906 -0.738,0.452 -1.467,0.898 -2.188,1.375 -0.031,0.021 -0.062,0.042 -0.094,0.063 -0.456,0.303 -0.895,0.625 -1.344,0.938 -0.123,0.086 -0.252,0.163 -0.375,0.25 -0.524,0.37 -1.049,0.742 -1.563,1.125 -1.835,1.371 -3.618,2.84 -5.313,4.375 -0.017,0.015 -0.046,0.016 -0.063,0.031 -0.526,0.477 -1.02,0.977 -1.531,1.469 -0.524,0.505 -1.054,1.011 -1.563,1.531 -0.512,0.523 -1,1.055 -1.5,1.594 -0.941,1.022 -1.837,2.05 -2.719,3.125 -0.631,0.769 -1.244,1.58 -1.844,2.375 -0.111,0.148 -0.233,0.289 -0.344,0.438 -0.526,0.71 -1.031,1.427 -1.531,2.156 -0.11,0.16 -0.235,0.308 -0.344,0.469 -0.013,0.019 -0.018,0.043 -0.031,0.063 -0.084,0.125 -0.167,0.249 -0.25,0.375 -0.47,0.708 -0.929,1.431 -1.375,2.156 -0.071,0.116 -0.148,0.227 -0.219,0.344 -0.575,0.948 -1.124,1.899 -1.656,2.875 -0.152,0.278 -0.289,0.564 -0.438,0.844 -0.18,0.341 -0.356,0.687 -0.531,1.031 -0.243,0.479 -0.486,0.952 -0.719,1.438 -0.426,0.885 -0.828,1.783 -1.219,2.688 -0.24,0.556 -0.461,1.124 -0.688,1.688 -0.038,0.095 -0.087,0.186 -0.125,0.281 -0.246,0.621 -0.489,1.245 -0.719,1.875 -0.332,0.909 -0.641,1.825 -0.938,2.75 -0.11,0.345 -0.238,0.684 -0.344,1.031 -0.301,0.99 -0.585,1.992 -0.844,3 -0.008,0.032 -0.023,0.062 -0.031,0.094 -0.267,1.046 -0.497,2.092 -0.719,3.156 -0.034,0.166 -0.06,0.334 -0.094,0.5 -0.426,2.117 -0.762,4.257 -1,6.438 -0.035,0.323 -0.063,0.645 -0.094,0.969 -0.09,0.938 -0.165,1.895 -0.219,2.844 -0.017,0.29 -0.018,0.584 -0.031,0.875 -0.051,1.119 -0.094,2.243 -0.094,3.375 v 354.69 6 c 0,40.24 32.411,72.66 72.66,72.66 h 354.69 c 40.24,0 72.66,-32.411 72.66,-72.66 v -354.69 -6 c 0,-1.259 -0.031,-2.507 -0.094,-3.75 -0.016,-0.323 -0.042,-0.647 -0.063,-0.969 -0.058,-0.917 -0.127,-1.843 -0.219,-2.75 -0.02,-0.2 -0.041,-0.394 -0.063,-0.594 -0.246,-2.245 -0.587,-4.447 -1.031,-6.625 -0.021,-0.104 -0.041,-0.209 -0.063,-0.313 -0.227,-1.087 -0.476,-2.15 -0.75,-3.219 -0.011,-0.042 -0.02,-0.083 -0.031,-0.125 -0.19,-0.732 -0.413,-1.464 -0.625,-2.188 -0.212,-0.724 -0.423,-1.442 -0.656,-2.156 -0.258,-0.789 -0.529,-1.567 -0.813,-2.344 -0.23,-0.63 -0.472,-1.254 -0.719,-1.875 -0.038,-0.096 -0.087,-0.186 -0.125,-0.281 -0.239,-0.594 -0.465,-1.195 -0.719,-1.781 -0.378,-0.871 -0.777,-1.741 -1.188,-2.594 -0.233,-0.485 -0.475,-0.958 -0.719,-1.438 -0.287,-0.564 -0.574,-1.132 -0.875,-1.688 -0.051,-0.094 -0.105,-0.188 -0.156,-0.281 -0.513,-0.936 -1.041,-1.871 -1.594,-2.781 -0.212,-0.35 -0.438,-0.685 -0.656,-1.031 -0.405,-0.642 -0.795,-1.278 -1.219,-1.906 -0.809,-1.199 -1.685,-2.354 -2.563,-3.5 -0.262,-0.341 -0.514,-0.695 -0.781,-1.031 -0.189,-0.238 -0.371,-0.483 -0.563,-0.719 -0.093,-0.114 -0.188,-0.231 -0.281,-0.344 -2.71,-3.286 -5.696,-6.301 -8.938,-9.06 -0.293,-0.249 -0.578,-0.505 -0.875,-0.75 -0.268,-0.221 -0.541,-0.439 -0.813,-0.656 -0.636,-0.509 -1.284,-1.012 -1.938,-1.5 -3.17,-2.368 -6.55,-4.481 -10.09,-6.313 -0.617,-0.319 -1.248,-0.636 -1.875,-0.938 -0.155,-0.074 -0.313,-0.145 -0.469,-0.219 -0.785,-0.371 -1.575,-0.719 -2.375,-1.063 -0.488,-0.209 -0.975,-0.426 -1.469,-0.625 -0.735,-0.296 -1.472,-0.571 -2.219,-0.844 -0.392,-0.143 -0.793,-0.27 -1.188,-0.406 -0.718,-0.248 -1.459,-0.524 -2.188,-0.75 -0.114,-0.035 -0.23,-0.059 -0.344,-0.094 -0.488,-0.149 -0.977,-0.267 -1.469,-0.406 -0.357,-0.1 -0.703,-0.217 -1.063,-0.313 -0.019,-0.005 -0.043,0.005 -0.063,0 -0.837,-0.221 -1.683,-0.433 -2.531,-0.625 -0.032,-0.007 -0.062,-0.024 -0.094,-0.031 -0.651,-0.146 -1.311,-0.278 -1.969,-0.406 -1,-0.197 -2.01,-0.376 -3.03,-0.531 -0.063,-0.01 -0.125,-0.022 -0.188,-0.031 -0.952,-0.143 -1.88,-0.269 -2.844,-0.375 -0.836,-0.091 -1.687,-0.156 -2.531,-0.219 -0.176,-0.013 -0.355,-0.019 -0.531,-0.031 -0.735,-0.049 -1.478,-0.097 -2.219,-0.125 -0.92,-0.034 -1.853,-0.063 -2.781,-0.063 H 147.503 78.659"
     inkscape:connector-curvature="0"
     id="path27"
     style="fill-opacity:0.17600002;filter:url(#7)" />
  <rect
     width="500"
     height="500"
     rx="72.639999"
     x="6"
     y="12"
     id="rect29"
     style="opacity:0.15" />
  <rect
     width="500"
     height="500"
     rx="72.639999"
     x="6"
     y="6"
     id="rect31"
     style="fill:url(#8)" />
  <rect
     width="435"
     height="435"
     rx="63.200001"
     x="38.5"
     y="38.5"
     id="rect33"
     style="fill:#b5dd5e" />
  <path
     d="M 101.69,38.5 C 66.68,38.5 38.5,66.67 38.5,101.69 v 308.63 c 0,35.01 28.17,63.19 63.19,63.19 h 45.813 v -435 H 101.69"
     inkscape:connector-curvature="0"
     id="path35"
     style="fill:#da6161" />
  <path
     d="m 256.5,38.5 v 435 h 109 v -435 h -109"
     inkscape:connector-curvature="0"
     id="path37"
     style="fill:#e2ae76" />
  <path
     d="m 147.5,38.5 v 435 h 109 v -435 h -109"
     inkscape:connector-curvature="0"
     id="path39"
     style="fill:#79abe3" />
  <path
     d="M 101.69,38.5 C 66.68,38.5 38.5,66.67 38.5,101.69 v 15 C 38.5,81.68 66.67,53.5 101.69,53.5 h 308.63 c 35.01,0 63.19,28.17 63.19,63.19 v -15 C 473.51,66.68 445.34,38.5 410.32,38.5 H 101.7"
     inkscape:connector-curvature="0"
     id="path41"
     style="opacity:0.2" />
  <path
     d="M 78.66,6 C 38.42,6 6,38.411 6,78.66 v 7 C 6,45.42 38.411,13 78.66,13 h 354.69 c 40.24,0 72.66,32.411 72.66,72.66 v -7 C 506.01,38.42 473.599,6 433.35,6 H 78.66"
     inkscape:connector-curvature="0"
     id="path43"
     style="fill:#ffffff" />
  <g
     transform="matrix(1.23336,0,0,1.23336,-40.02,500.87)"
     id="g45">
    <path
       d="m 172.39,-258.11 -0.024,32.692 c -0.024,28.602 -0.069,32.34 -0.371,29.855 -2.208,-18.19 -12.646,-29.16 -30.814,-32.402 -3.777,-0.674 -12.229,-0.935 -16.636,-0.508 -11.12,1.077 -20.356,4.917 -26.14,10.857 -6.74,6.923 -10.05,15.418 -10.519,26.953 -0.434,10.768 2,19.737 7.27,26.76 5.851,7.797 15.78,12.751 28.28,14.11 3.219,0.351 11.369,0.35 14.597,0 12.149,-1.318 22.05,-6.05 27.2,-13 2.234,-3.01 3.788,-6.311 4.538,-9.648 l 0.242,-1.072 -8.681,0.008 -8.681,0.008 -0.758,1.693 c -1.652,3.697 -4.46,6.489 -8.528,8.479 -9.04,4.423 -21.61,3.344 -29.23,-2.515 -5.064,-3.895 -8.617,-10.853 -9.124,-17.861 l -0.072,-1.032 33.756,-0.065 33.764,-0.065 -0.169,13.219 c -0.093,7.271 -0.241,14.647 -0.331,16.386 l -0.161,3.16 8.221,-0.065 8.221,-0.072 0.169,-1.677 c 0.089,-0.922 0.244,-3.159 0.347,-4.973 l 0.185,-3.297 1.846,1.854 c 4.628,4.663 11.02,8.102 18.09,9.721 3.938,0.903 6.988,1.153 12.187,1.01 5.107,-0.143 7.684,-0.546 12.01,-1.886 3.136,-0.971 8.5,-3.704 11.07,-5.642 5.894,-4.45 10.286,-10.42 12.735,-17.289 l 0.83,-2.321 0.01,3.482 c 0.01,2.982 0.106,3.818 0.685,5.795 1.01,3.446 2.427,5.947 4.804,8.487 4.77,5.098 10.679,7.883 19.28,9.08 4.3,0.6 13.912,0.39 18.09,-0.395 7.829,-1.471 13.429,-4.389 18.78,-9.801 l 2.313,-2.346 0.185,3.426 c 0.103,1.882 0.265,4.172 0.355,5.094 l 0.161,1.677 7.834,0.072 7.827,0.065 -0.169,-1.225 c -0.092,-0.676 -0.259,-12.608 -0.371,-26.51 -0.195,-24.1 -0.224,-25.385 -0.725,-27.598 -0.289,-1.277 -0.719,-2.767 -0.951,-3.321 -0.232,-0.554 -0.392,-1.036 -0.355,-1.072 0.062,-0.059 15.258,28.489 26.824,50.4 l 4.828,9.156 -1.636,3.111 c -0.903,1.713 -3.88,7.348 -6.609,12.526 -2.729,5.178 -5.368,10.146 -5.86,11.03 l -0.895,1.612 9.463,-0.064 9.463,-0.073 0.959,-1.805 c 0.53,-0.993 3.791,-7.377 7.238,-14.186 3.448,-6.809 6.873,-13.541 7.617,-14.96 0.744,-1.419 3.935,-7.686 7.093,-13.928 6.182,-12.22 11.553,-22.769 15.355,-30.18 5.04,-9.822 13.533,-26.621 13.533,-26.76 0,-0.08 -0.203,-0.104 -0.451,-0.056 -0.248,0.048 -4.25,0.094 -8.899,0.105 l -8.455,0.016 -14.267,28.694 -14.267,28.694 -14.355,-28.694 -14.363,-28.694 -9.221,-0.016 c -5.071,-0.011 -9.482,-0.07 -9.801,-0.129 -0.319,-0.06 -0.58,-0.035 -0.58,0.056 0,0.205 4.063,7.984 4.618,8.842 0.222,0.343 -0.817,-0.586 -2.305,-2.063 -4.796,-4.76 -10.06,-7.199 -18.966,-8.786 -2.978,-0.53 -4.156,-0.591 -10.946,-0.596 -6.72,-0.006 -8.04,0.063 -11.317,0.588 -11.09,1.777 -18.567,5.75 -22.738,12.09 -1.228,1.868 -2.604,5.241 -2.926,7.166 -0.095,0.567 -0.237,1.351 -0.314,1.741 l -0.145,0.709 h 8.89 8.882 l 0.177,-1.08 c 0.206,-1.289 1.159,-3.263 2.233,-4.619 1.01,-1.269 3.858,-3.157 5.965,-3.95 6.676,-2.513 17.206,-2.108 23.19,0.895 5.155,2.587 7.677,6.879 8.125,13.799 l 0.177,2.692 -8.358,0.008 c -21.426,0.011 -31.382,1.084 -39.737,4.272 -6.479,2.472 -11.09,6.53 -13.275,11.695 l -0.613,1.435 0.193,-1.677 c 0.382,-3.311 0.223,-11.296 -0.282,-14.186 -0.922,-5.275 -3.153,-10.957 -6.03,-15.331 -1.665,-2.531 -6.914,-7.697 -9.616,-9.471 -4.5,-2.954 -9.68,-5.103 -14.92,-6.182 -3.678,-0.757 -10.777,-0.93 -15.169,-0.371 -9.145,1.164 -15.904,4.263 -21.561,9.882 l -2.257,2.241 v -20.949 -20.949 h -8.383 -8.383 z m -42.25,40.559 c 5.822,-0.057 11.688,1.342 15.871,4.175 4.707,3.188 8.01,9.175 8.504,15.427 l 0.161,1.999 h -24.697 -24.697 l 0.185,-1.354 c 0.938,-6.928 4.966,-13.29 10.543,-16.66 3.889,-2.351 8.993,-3.536 14.13,-3.587 m 84.987,0.282 c 8.724,-0.107 16.999,3.875 21.521,10.535 4.753,6.999 6.292,17.252 3.966,26.421 -2.725,10.744 -10.614,17.762 -21.561,19.18 -1.05,0.136 -2.781,0.231 -3.845,0.218 -16.12,-0.206 -26.747,-12.383 -25.962,-29.75 0.675,-14.923 9.442,-24.925 23.17,-26.438 0.908,-0.1 1.814,-0.158 2.716,-0.169 m 105.44,29.96 -0.064,2.958 c -0.294,12.407 -6.791,20.517 -18.619,23.262 -2.982,0.692 -10.85,0.891 -13.727,0.347 -8.366,-1.583 -13.28,-6.993 -12.775,-14.06 0.295,-4.134 2.414,-7.162 6.368,-9.08 5.056,-2.459 11.569,-3.199 29.404,-3.345 l 9.414,-0.081"
       inkscape:connector-curvature="0"
       id="path47"
       style="opacity:0.2" />
    <path
       d="m 157.39,-273.11 -0.024,32.692 c -0.024,28.602 -0.069,32.34 -0.371,29.855 -2.208,-18.19 -12.646,-29.16 -30.814,-32.402 -3.777,-0.674 -12.229,-0.935 -16.636,-0.508 -11.12,1.077 -20.356,4.917 -26.14,10.857 -6.74,6.923 -10.05,15.418 -10.519,26.953 -0.434,10.768 2,19.737 7.27,26.76 5.852,7.797 15.78,12.751 28.28,14.11 3.219,0.351 11.37,0.35 14.597,0 12.149,-1.318 22.05,-6.05 27.2,-13 2.234,-3.01 3.788,-6.311 4.538,-9.648 l 0.242,-1.072 -8.681,0.008 -8.681,0.008 -0.758,1.693 c -1.652,3.697 -4.46,6.489 -8.528,8.479 -9.04,4.423 -21.61,3.344 -29.23,-2.515 -5.064,-3.895 -8.617,-10.853 -9.124,-17.861 l -0.072,-1.032 33.756,-0.065 33.764,-0.065 -0.169,13.219 c -0.093,7.271 -0.241,14.647 -0.331,16.386 l -0.161,3.16 8.221,-0.065 8.221,-0.072 0.169,-1.677 c 0.089,-0.922 0.244,-3.159 0.347,-4.973 l 0.185,-3.297 1.846,1.854 c 4.628,4.663 11.02,8.102 18.09,9.721 3.938,0.903 6.988,1.153 12.187,1.01 5.107,-0.143 7.684,-0.546 12.01,-1.886 3.136,-0.971 8.5,-3.704 11.07,-5.642 5.894,-4.45 10.286,-10.42 12.735,-17.289 l 0.83,-2.321 0.01,3.482 c 0.01,2.982 0.106,3.818 0.685,5.795 1.01,3.446 2.427,5.947 4.804,8.487 4.77,5.098 10.679,7.883 19.28,9.08 4.3,0.6 13.912,0.39 18.09,-0.395 7.829,-1.471 13.429,-4.389 18.78,-9.801 l 2.313,-2.346 0.185,3.426 c 0.103,1.882 0.265,4.172 0.355,5.094 l 0.161,1.677 7.834,0.072 7.827,0.065 -0.169,-1.225 c -0.092,-0.676 -0.259,-12.608 -0.371,-26.51 -0.195,-24.1 -0.224,-25.385 -0.725,-27.598 -0.289,-1.277 -0.719,-2.767 -0.951,-3.321 -0.232,-0.554 -0.392,-1.036 -0.355,-1.072 0.062,-0.059 15.258,28.489 26.824,50.4 l 4.828,9.156 -1.636,3.111 c -0.903,1.713 -3.88,7.348 -6.609,12.526 -2.729,5.178 -5.368,10.146 -5.86,11.03 l -0.895,1.612 9.463,-0.065 9.463,-0.072 0.959,-1.805 c 0.53,-0.993 3.791,-7.377 7.238,-14.186 3.448,-6.809 6.873,-13.541 7.617,-14.96 0.744,-1.419 3.935,-7.686 7.093,-13.928 6.182,-12.22 11.553,-22.769 15.355,-30.18 5.04,-9.822 13.533,-26.621 13.533,-26.76 0,-0.08 -0.203,-0.104 -0.451,-0.056 -0.248,0.048 -4.25,0.094 -8.899,0.105 l -8.455,0.016 -14.267,28.694 -14.267,28.694 -14.355,-28.694 -14.363,-28.694 -9.221,-0.016 c -5.071,-0.011 -9.482,-0.07 -9.801,-0.129 -0.319,-0.06 -0.58,-0.035 -0.58,0.056 0,0.205 4.063,7.984 4.618,8.842 0.222,0.343 -0.817,-0.586 -2.305,-2.063 -4.796,-4.76 -10.06,-7.199 -18.966,-8.786 -2.978,-0.53 -4.156,-0.591 -10.946,-0.596 -6.72,-0.006 -8.04,0.063 -11.317,0.588 -11.09,1.777 -18.567,5.75 -22.738,12.09 -1.228,1.868 -2.604,5.241 -2.926,7.166 -0.095,0.567 -0.237,1.351 -0.314,1.741 l -0.145,0.709 h 8.89 8.882 l 0.177,-1.08 c 0.206,-1.289 1.159,-3.263 2.233,-4.619 1.01,-1.269 3.858,-3.157 5.965,-3.95 6.676,-2.513 17.206,-2.108 23.19,0.895 5.155,2.587 7.677,6.879 8.125,13.799 l 0.177,2.692 -8.358,0.008 c -21.426,0.011 -31.382,1.084 -39.737,4.272 -6.479,2.472 -11.09,6.53 -13.275,11.695 l -0.613,1.435 0.194,-1.677 c 0.382,-3.311 0.223,-11.296 -0.282,-14.186 -0.922,-5.275 -3.153,-10.957 -6.03,-15.331 -1.665,-2.531 -6.914,-7.697 -9.616,-9.471 -4.5,-2.954 -9.68,-5.103 -14.92,-6.182 -3.678,-0.757 -10.777,-0.93 -15.169,-0.371 -9.145,1.164 -15.904,4.263 -21.561,9.882 l -2.257,2.241 v -20.949 -20.949 h -8.383 -8.383 z m -42.25,40.559 c 5.822,-0.057 11.688,1.342 15.871,4.175 4.707,3.188 8.01,9.175 8.504,15.427 l 0.161,1.999 H 114.979 90.283 l 0.185,-1.354 c 0.938,-6.928 4.966,-13.29 10.543,-16.66 3.889,-2.351 8.993,-3.536 14.13,-3.587 m 84.987,0.282 c 8.724,-0.107 16.999,3.875 21.521,10.535 4.753,6.999 6.292,17.252 3.966,26.421 -2.725,10.744 -10.614,17.762 -21.561,19.18 -1.05,0.136 -2.781,0.231 -3.845,0.218 -16.12,-0.206 -26.747,-12.383 -25.962,-29.75 0.675,-14.923 9.442,-24.925 23.17,-26.438 0.908,-0.1 1.814,-0.158 2.716,-0.169 m 105.44,29.96 -0.064,2.958 c -0.294,12.407 -6.791,20.517 -18.619,23.262 -2.982,0.692 -10.85,0.891 -13.727,0.347 -8.366,-1.583 -13.28,-6.993 -12.775,-14.06 0.295,-4.134 2.414,-7.162 6.368,-9.08 5.056,-2.459 11.569,-3.199 29.404,-3.345 l 9.414,-0.081"
       inkscape:connector-curvature="0"
       id="path49"
       style="fill:#dcdbdb" />
  </g>
  <path
     d="M 78.66,6 C 63.797,6 49.99,10.43 38.5,18.03 V 493.97 C 49.986,501.572 63.793,506 78.66,506 h 68.844 V 6 H 78.66"
     inkscape:connector-curvature="0"
     id="path51"
     style="opacity:0.05;fill:url(#1)" />
  <path
     d="m 147.5,6 v 500 h 109 V 6 h -109"
     inkscape:connector-curvature="0"
     id="path53"
     style="opacity:0.05;fill:url(#2)" />
  <path
     d="m 256.5,6 v 500 h 109 V 6 h -109"
     inkscape:connector-curvature="0"
     id="path55"
     style="opacity:0.05;fill:url(#3)" />
  <path
     d="m 365.5,6 v 500 h 67.844 c 14.854,0 28.643,-4.438 40.13,-12.03 V 18.03 C 461.992,10.437 448.204,6 433.354,6 H 365.51"
     inkscape:connector-curvature="0"
     id="path57"
     style="opacity:0.05;fill:url(#4)" />
  <path
     d="M 38.5,18.03 C 18.886,31.011 6,53.27 6,78.66 v 354.69 c 0,25.381 12.886,47.644 32.5,60.63 V 18.04"
     inkscape:connector-curvature="0"
     id="path59"
     style="opacity:0.05;fill:url(#6)" />
  <path
     d="m 473.47,18.03 v 475.94 c 19.627,-12.979 32.531,-35.23 32.531,-60.62 V 78.66 c 0,-25.391 -12.905,-47.646 -32.531,-60.62"
     inkscape:connector-curvature="0"
     id="path61"
     style="opacity:0.05;fill:url(#5)" />
</svg>
