<svg xmlns="http://www.w3.org/2000/svg" xmlns:xlink="http://www.w3.org/1999/xlink" viewBox="0 0 512 512"><defs><filter id="7"><feGaussianBlur stdDeviation="3.7725"/></filter><linearGradient id="8" y1="19.564" x2="0" y2="504.02" gradientUnits="userSpaceOnUse"><stop stop-color="#f3f3f3"/><stop offset=".5" stop-color="#eee"/><stop offset="1" stop-color="#ebebeb"/></linearGradient><linearGradient xlink:href="#0" id="5" gradientUnits="userSpaceOnUse" gradientTransform="matrix(1.02835 0 0 1.46193 209.19-118.25)" x1="257" x2="362"/><linearGradient xlink:href="#0" id="6" gradientUnits="userSpaceOnUse" gradientTransform="matrix(1.0381 0 0 1.46193-337.29-118.25)" x1="257" x2="362"/><linearGradient xlink:href="#0" id="4" gradientUnits="userSpaceOnUse" gradientTransform="matrix(1.02835 0 0 1.46193 101.22-118.25)" x1="257" x2="362"/><linearGradient xlink:href="#0" id="3" gradientUnits="userSpaceOnUse" gradientTransform="matrix(1.0381 0 0 1.46193-10.289-118.25)" x1="257" x2="362"/><linearGradient id="0"><stop/><stop offset="1" stop-color="#fff"/></linearGradient><linearGradient xlink:href="#0" id="2" gradientUnits="userSpaceOnUse" gradientTransform="matrix(1.0381 0 0 1.46193-119.29-118.25)" x1="257" x2="362"/><linearGradient xlink:href="#0" id="1" gradientUnits="userSpaceOnUse" gradientTransform="matrix(1.0381 0 0 1.46193-228.29-118.25)" x1="257" x2="362"/></defs><path d="m78.66 6c-.929 0-1.861.028-2.781.063-.073.003-.146-.003-.219 0-.668.027-1.337.08-2 .125-.376.025-.751.063-1.125.094-.645.053-1.297.086-1.938.156-.965.106-1.922.232-2.875.375-.052.008-.104.023-.156.031-1.082.165-2.154.351-3.219.563-.459.091-.919.182-1.375.281-.39.085-.769.19-1.156.281-.647.152-1.297.299-1.938.469-.898.238-1.804.479-2.688.75-.211.065-.414.152-.625.219-.991.314-1.966.645-2.938 1-.817.298-1.635.611-2.438.938-.29.118-.587.222-.875.344-.136.057-.27.129-.406.188-.082.035-.169.058-.25.094-.717.311-1.42.636-2.125.969-.147.069-.291.148-.438.219-.947.455-1.889.943-2.813 1.438-.271.145-.544.289-.813.438-.414.228-.81.483-1.219.719-.52.3-1.051.594-1.563.906-.738.452-1.467.898-2.188 1.375-.031.021-.062.042-.094.063-.456.303-.895.625-1.344.938-.123.086-.252.163-.375.25-.524.37-1.049.742-1.563 1.125-1.835 1.371-3.618 2.84-5.313 4.375-.017.015-.046.016-.063.031-.526.477-1.02.977-1.531 1.469-.524.505-1.054 1.011-1.563 1.531-.512.523-1 1.055-1.5 1.594-.941 1.022-1.837 2.05-2.719 3.125-.631.769-1.244 1.58-1.844 2.375-.111.148-.233.289-.344.438-.526.71-1.031 1.427-1.531 2.156-.11.16-.235.308-.344.469-.013.019-.018.043-.031.063-.084.125-.167.249-.25.375-.47.708-.929 1.431-1.375 2.156-.071.116-.148.227-.219.344-.575.948-1.124 1.899-1.656 2.875-.152.278-.289.564-.438.844-.18.341-.356.687-.531 1.031-.243.479-.486.952-.719 1.438-.426.885-.828 1.783-1.219 2.688-.24.556-.461 1.124-.688 1.688-.038.095-.087.186-.125.281-.246.621-.489 1.245-.719 1.875-.332.909-.641 1.825-.938 2.75-.11.345-.238.684-.344 1.031-.301.99-.585 1.992-.844 3-.008.032-.023.062-.031.094-.267 1.046-.497 2.092-.719 3.156-.034.166-.06.334-.094.5-.426 2.117-.762 4.257-1 6.438-.035.323-.063.645-.094.969-.09.938-.165 1.895-.219 2.844-.017.29-.018.584-.031.875-.051 1.119-.094 2.243-.094 3.375v354.69 6c0 40.24 32.411 72.66 72.66 72.66h354.69c40.24 0 72.66-32.411 72.66-72.66v-354.69-6c0-1.259-.031-2.507-.094-3.75-.016-.323-.042-.647-.063-.969-.058-.917-.127-1.843-.219-2.75-.02-.2-.041-.394-.063-.594-.246-2.245-.587-4.447-1.031-6.625-.021-.104-.041-.209-.063-.313-.227-1.087-.476-2.15-.75-3.219-.011-.042-.02-.083-.031-.125-.19-.732-.413-1.464-.625-2.188-.212-.724-.423-1.442-.656-2.156-.258-.789-.529-1.567-.813-2.344-.23-.63-.472-1.254-.719-1.875-.038-.096-.087-.186-.125-.281-.239-.594-.465-1.195-.719-1.781-.378-.871-.777-1.741-1.188-2.594-.233-.485-.475-.958-.719-1.438-.287-.564-.574-1.132-.875-1.688-.051-.094-.105-.188-.156-.281-.513-.936-1.041-1.871-1.594-2.781-.212-.35-.438-.685-.656-1.031-.405-.642-.795-1.278-1.219-1.906-.809-1.199-1.685-2.354-2.563-3.5-.262-.341-.514-.695-.781-1.031-.189-.238-.371-.483-.563-.719-.093-.114-.188-.231-.281-.344-2.71-3.286-5.696-6.301-8.938-9.06-.293-.249-.578-.505-.875-.75-.268-.221-.541-.439-.813-.656-.636-.509-1.284-1.012-1.938-1.5-3.17-2.368-6.55-4.481-10.09-6.313-.617-.319-1.248-.636-1.875-.938-.155-.074-.313-.145-.469-.219-.785-.371-1.575-.719-2.375-1.063-.488-.209-.975-.426-1.469-.625-.735-.296-1.472-.571-2.219-.844-.392-.143-.793-.27-1.188-.406-.718-.248-1.459-.524-2.188-.75-.114-.035-.23-.059-.344-.094-.488-.149-.977-.267-1.469-.406-.357-.1-.703-.217-1.063-.313-.019-.005-.043.005-.063 0-.837-.221-1.683-.433-2.531-.625-.032-.007-.062-.024-.094-.031-.651-.146-1.311-.278-1.969-.406-1-.197-2.01-.376-3.03-.531-.063-.01-.125-.022-.188-.031-.952-.143-1.88-.269-2.844-.375-.836-.091-1.687-.156-2.531-.219-.176-.013-.355-.019-.531-.031-.735-.049-1.478-.097-2.219-.125-.92-.034-1.853-.063-2.781-.063h-285.84-68.844" filter="url(#7)" fill-opacity=".176"/><rect width="500" height="500" x="6" y="12" rx="72.64" opacity=".15"/><rect rx="72.64" y="6" x="6" height="500" width="500" fill="url(#8)"/><rect width="435" height="435" x="38.5" y="38.5" rx="63.2" fill="#b5dd5e"/><path d="m101.69 38.5c-35.01 0-63.19 28.17-63.19 63.19v308.63c0 35.01 28.17 63.19 63.19 63.19h45.813v-435h-45.813" fill="#da6161"/><path d="m256.5 38.5v435h109v-435h-109" fill="#e2ae76"/><path d="m147.5 38.5v435h109v-435h-109" fill="#79abe3"/><path d="m101.69 38.5c-35.01 0-63.19 28.17-63.19 63.19v15c0-35.01 28.17-63.19 63.19-63.19h308.63c35.01 0 63.19 28.17 63.19 63.19v-15c0-35.01-28.17-63.19-63.19-63.19h-308.62" opacity=".2"/><path d="m78.66 6c-40.24 0-72.66 32.411-72.66 72.66v7c0-40.24 32.411-72.66 72.66-72.66h354.69c40.24 0 72.66 32.411 72.66 72.66v-7c0-40.24-32.411-72.66-72.66-72.66h-354.69" fill="#fff"/><g transform="matrix(1.23336 0 0 1.23336-40.02 500.87)"><path d="m172.39-258.11l-.024 32.692c-.024 28.602-.069 32.34-.371 29.855-2.208-18.19-12.646-29.16-30.814-32.402-3.777-.674-12.229-.935-16.636-.508-11.12 1.077-20.356 4.917-26.14 10.857-6.74 6.923-10.05 15.418-10.519 26.953-.434 10.768 2 19.737 7.27 26.76 5.851 7.797 15.78 12.751 28.28 14.11 3.219.351 11.369.35 14.597 0 12.149-1.318 22.05-6.05 27.2-13 2.234-3.01 3.788-6.311 4.538-9.648l.242-1.072-8.681.008-8.681.008-.758 1.693c-1.652 3.697-4.46 6.489-8.528 8.479-9.04 4.423-21.61 3.344-29.23-2.515-5.064-3.895-8.617-10.853-9.124-17.861l-.072-1.032 33.756-.065 33.764-.065-.169 13.219c-.093 7.271-.241 14.647-.331 16.386l-.161 3.16 8.221-.065 8.221-.072.169-1.677c.089-.922.244-3.159.347-4.973l.185-3.297 1.846 1.854c4.628 4.663 11.02 8.102 18.09 9.721 3.938.903 6.988 1.153 12.187 1.01 5.107-.143 7.684-.546 12.01-1.886 3.136-.971 8.5-3.704 11.07-5.642 5.894-4.45 10.286-10.42 12.735-17.289l.83-2.321.01 3.482c.01 2.982.106 3.818.685 5.795 1.01 3.446 2.427 5.947 4.804 8.487 4.77 5.098 10.679 7.883 19.28 9.08 4.3.6 13.912.39 18.09-.395 7.829-1.471 13.429-4.389 18.78-9.801l2.313-2.346.185 3.426c.103 1.882.265 4.172.355 5.094l.161 1.677 7.834.072 7.827.065-.169-1.225c-.092-.676-.259-12.608-.371-26.51-.195-24.1-.224-25.385-.725-27.598-.289-1.277-.719-2.767-.951-3.321-.232-.554-.392-1.036-.355-1.072.062-.059 15.258 28.489 26.824 50.4l4.828 9.156-1.636 3.111c-.903 1.713-3.88 7.348-6.609 12.526-2.729 5.178-5.368 10.146-5.86 11.03l-.895 1.612 9.463-.064 9.463-.073.959-1.805c.53-.993 3.791-7.377 7.238-14.186 3.448-6.809 6.873-13.541 7.617-14.96.744-1.419 3.935-7.686 7.093-13.928 6.182-12.22 11.553-22.769 15.355-30.18 5.04-9.822 13.533-26.621 13.533-26.76 0-.08-.203-.104-.451-.056-.248.048-4.25.094-8.899.105l-8.455.016-14.267 28.694-14.267 28.694-14.355-28.694-14.363-28.694-9.221-.016c-5.071-.011-9.482-.07-9.801-.129-.319-.06-.58-.035-.58.056 0 .205 4.063 7.984 4.618 8.842.222.343-.817-.586-2.305-2.063-4.796-4.76-10.06-7.199-18.966-8.786-2.978-.53-4.156-.591-10.946-.596-6.72-.006-8.04.063-11.317.588-11.09 1.777-18.567 5.75-22.738 12.09-1.228 1.868-2.604 5.241-2.926 7.166-.095.567-.237 1.351-.314 1.741l-.145.709h8.89 8.882l.177-1.08c.206-1.289 1.159-3.263 2.233-4.619 1.01-1.269 3.858-3.157 5.965-3.95 6.676-2.513 17.206-2.108 23.19.895 5.155 2.587 7.677 6.879 8.125 13.799l.177 2.692-8.358.008c-21.426.011-31.382 1.084-39.737 4.272-6.479 2.472-11.09 6.53-13.275 11.695l-.613 1.435.193-1.677c.382-3.311.223-11.296-.282-14.186-.922-5.275-3.153-10.957-6.03-15.331-1.665-2.531-6.914-7.697-9.616-9.471-4.5-2.954-9.68-5.103-14.92-6.182-3.678-.757-10.777-.93-15.169-.371-9.145 1.164-15.904 4.263-21.561 9.882l-2.257 2.241v-20.949-20.949h-8.383-8.383zm-42.25 40.559c5.822-.057 11.688 1.342 15.871 4.175 4.707 3.188 8.01 9.175 8.504 15.427l.161 1.999h-24.697-24.697l.185-1.354c.938-6.928 4.966-13.29 10.543-16.66 3.889-2.351 8.993-3.536 14.13-3.587m84.987.282c8.724-.107 16.999 3.875 21.521 10.535 4.753 6.999 6.292 17.252 3.966 26.421-2.725 10.744-10.614 17.762-21.561 19.18-1.05.136-2.781.231-3.845.218-16.12-.206-26.747-12.383-25.962-29.75.675-14.923 9.442-24.925 23.17-26.438.908-.1 1.814-.158 2.716-.169m105.44 29.96l-.064 2.958c-.294 12.407-6.791 20.517-18.619 23.262-2.982.692-10.85.891-13.727.347-8.366-1.583-13.28-6.993-12.775-14.06.295-4.134 2.414-7.162 6.368-9.08 5.056-2.459 11.569-3.199 29.404-3.345l9.414-.081" opacity=".2"/><path d="m157.39-273.11l-.024 32.692c-.024 28.602-.069 32.34-.371 29.855-2.208-18.19-12.646-29.16-30.814-32.402-3.777-.674-12.229-.935-16.636-.508-11.12 1.077-20.356 4.917-26.14 10.857-6.74 6.923-10.05 15.418-10.519 26.953-.434 10.768 2 19.737 7.27 26.76 5.852 7.797 15.78 12.751 28.28 14.11 3.219.351 11.37.35 14.597 0 12.149-1.318 22.05-6.05 27.2-13 2.234-3.01 3.788-6.311 4.538-9.648l.242-1.072-8.681.008-8.681.008-.758 1.693c-1.652 3.697-4.46 6.489-8.528 8.479-9.04 4.423-21.61 3.344-29.23-2.515-5.064-3.895-8.617-10.853-9.124-17.861l-.072-1.032 33.756-.065 33.764-.065-.169 13.219c-.093 7.271-.241 14.647-.331 16.386l-.161 3.16 8.221-.065 8.221-.072.169-1.677c.089-.922.244-3.159.347-4.973l.185-3.297 1.846 1.854c4.628 4.663 11.02 8.102 18.09 9.721 3.938.903 6.988 1.153 12.187 1.01 5.107-.143 7.684-.546 12.01-1.886 3.136-.971 8.5-3.704 11.07-5.642 5.894-4.45 10.286-10.42 12.735-17.289l.83-2.321.01 3.482c.01 2.982.106 3.818.685 5.795 1.01 3.446 2.427 5.947 4.804 8.487 4.77 5.098 10.679 7.883 19.28 9.08 4.3.6 13.912.39 18.09-.395 7.829-1.471 13.429-4.389 18.78-9.801l2.313-2.346.185 3.426c.103 1.882.265 4.172.355 5.094l.161 1.677 7.834.072 7.827.065-.169-1.225c-.092-.676-.259-12.608-.371-26.51-.195-24.1-.224-25.385-.725-27.598-.289-1.277-.719-2.767-.951-3.321-.232-.554-.392-1.036-.355-1.072.062-.059 15.258 28.489 26.824 50.4l4.828 9.156-1.636 3.111c-.903 1.713-3.88 7.348-6.609 12.526-2.729 5.178-5.368 10.146-5.86 11.03l-.895 1.612 9.463-.065 9.463-.072.959-1.805c.53-.993 3.791-7.377 7.238-14.186 3.448-6.809 6.873-13.541 7.617-14.96.744-1.419 3.935-7.686 7.093-13.928 6.182-12.22 11.553-22.769 15.355-30.18 5.04-9.822 13.533-26.621 13.533-26.76 0-.08-.203-.104-.451-.056-.248.048-4.25.094-8.899.105l-8.455.016-14.267 28.694-14.267 28.694-14.355-28.694-14.363-28.694-9.221-.016c-5.071-.011-9.482-.07-9.801-.129-.319-.06-.58-.035-.58.056 0 .205 4.063 7.984 4.618 8.842.222.343-.817-.586-2.305-2.063-4.796-4.76-10.06-7.199-18.966-8.786-2.978-.53-4.156-.591-10.946-.596-6.72-.006-8.04.063-11.317.588-11.09 1.777-18.567 5.75-22.738 12.09-1.228 1.868-2.604 5.241-2.926 7.166-.095.567-.237 1.351-.314 1.741l-.145.709h8.89 8.882l.177-1.08c.206-1.289 1.159-3.263 2.233-4.619 1.01-1.269 3.858-3.157 5.965-3.95 6.676-2.513 17.206-2.108 23.19.895 5.155 2.587 7.677 6.879 8.125 13.799l.177 2.692-8.358.008c-21.426.011-31.382 1.084-39.737 4.272-6.479 2.472-11.09 6.53-13.275 11.695l-.613 1.435.194-1.677c.382-3.311.223-11.296-.282-14.186-.922-5.275-3.153-10.957-6.03-15.331-1.665-2.531-6.914-7.697-9.616-9.471-4.5-2.954-9.68-5.103-14.92-6.182-3.678-.757-10.777-.93-15.169-.371-9.145 1.164-15.904 4.263-21.561 9.882l-2.257 2.241v-20.949-20.949h-8.383-8.383zm-42.25 40.559c5.822-.057 11.688 1.342 15.871 4.175 4.707 3.188 8.01 9.175 8.504 15.427l.161 1.999h-24.697-24.696l.185-1.354c.938-6.928 4.966-13.29 10.543-16.66 3.889-2.351 8.993-3.536 14.13-3.587m84.987.282c8.724-.107 16.999 3.875 21.521 10.535 4.753 6.999 6.292 17.252 3.966 26.421-2.725 10.744-10.614 17.762-21.561 19.18-1.05.136-2.781.231-3.845.218-16.12-.206-26.747-12.383-25.962-29.75.675-14.923 9.442-24.925 23.17-26.438.908-.1 1.814-.158 2.716-.169m105.44 29.96l-.064 2.958c-.294 12.407-6.791 20.517-18.619 23.262-2.982.692-10.85.891-13.727.347-8.366-1.583-13.28-6.993-12.775-14.06.295-4.134 2.414-7.162 6.368-9.08 5.056-2.459 11.569-3.199 29.404-3.345l9.414-.081" fill="#dcdbdb"/></g><path d="m78.66 6c-14.863 0-28.67 4.43-40.16 12.03v475.94c11.486 7.602 25.293 12.03 40.16 12.03h68.844v-500h-68.844" opacity=".05" fill="url(#1)"/><path d="m147.5 6v500h109v-500h-109" opacity=".05" fill="url(#2)"/><path d="m256.5 6v500h109v-500h-109" opacity=".05" fill="url(#3)"/><path d="m365.5 6v500h67.844c14.854 0 28.643-4.438 40.13-12.03v-475.94c-11.482-7.593-25.27-12.03-40.12-12.03h-67.844" opacity=".05" fill="url(#4)"/><path d="m38.5 18.03c-19.614 12.981-32.5 35.24-32.5 60.63v354.69c0 25.381 12.886 47.644 32.5 60.63v-475.94" opacity=".05" fill="url(#6)"/><path d="m473.47 18.03v475.94c19.627-12.979 32.531-35.23 32.531-60.62v-354.69c0-25.391-12.905-47.646-32.531-60.62" opacity=".05" fill="url(#5)"/></svg>