<?xml version="1.0" encoding="UTF-8" standalone="no"?>
<svg
   xmlns:dc="http://purl.org/dc/elements/1.1/"
   xmlns:cc="http://creativecommons.org/ns#"
   xmlns:rdf="http://www.w3.org/1999/02/22-rdf-syntax-ns#"
   xmlns:svg="http://www.w3.org/2000/svg"
   xmlns="http://www.w3.org/2000/svg"
   xmlns:xlink="http://www.w3.org/1999/xlink"
   xmlns:sodipodi="http://sodipodi.sourceforge.net/DTD/sodipodi-0.dtd"
   xmlns:inkscape="http://www.inkscape.org/namespaces/inkscape"
   viewBox="0 0 512 512"
   id="svg2"
   version="1.1"
   inkscape:version="0.48.4 r9939"
   width="100%"
   height="100%"
   sodipodi:docname="0 base.svg">
  <sodipodi:namedview
     pagecolor="#444444"
     bordercolor="#666666"
     borderopacity="1"
     objecttolerance="10"
     gridtolerance="10"
     guidetolerance="10"
     inkscape:pageopacity="0"
     inkscape:pageshadow="2"
     inkscape:window-width="1310"
     inkscape:window-height="718"
     id="namedview6"
     showgrid="false"
     showguides="true"
     inkscape:guide-bbox="true"
     inkscape:zoom="0.5181105"
     inkscape:cx="94.985559"
     inkscape:cy="208.84666"
     inkscape:window-x="54"
     inkscape:window-y="27"
     inkscape:window-maximized="1"
     inkscape:current-layer="svg2"
     inkscape:snap-midpoints="true"
     inkscape:snap-global="false">
    <sodipodi:guide
       id="guide2989"
       position="768.17591,433.35594"
       orientation="0,1" />
    <sodipodi:guide
       id="guide2995"
       position="473.05444,254.912"
       orientation="1,0" />
  </sodipodi:namedview>
  <metadata
     id="metadata10">
    <rdf:RDF>
      <cc:Work
         rdf:about="">
        <dc:format>image/svg+xml</dc:format>
        <dc:type
           rdf:resource="http://purl.org/dc/dcmitype/StillImage" />
        <dc:title></dc:title>
      </cc:Work>
    </rdf:RDF>
  </metadata>
  <defs
     id="defs8">
    <linearGradient
       id="linearGradient4379">
      <stop
         style="stop-color:#f3f3f3;stop-opacity:1;"
         offset="0"
         id="stop4381" />
      <stop
         id="stop4387"
         offset="0.5"
         style="stop-color:#eeeeee;stop-opacity:1;" />
      <stop
         style="stop-color:#ebebeb;stop-opacity:1;"
         offset="1"
         id="stop4383" />
    </linearGradient>
    <linearGradient
       id="linearGradient4996">
      <stop
         style="stop-color:#000000;stop-opacity:1;"
         offset="0"
         id="stop4998" />
      <stop
         style="stop-color:#ffffff;stop-opacity:1;"
         offset="1"
         id="stop5000" />
    </linearGradient>
    <linearGradient
       inkscape:collect="always"
       xlink:href="#linearGradient4996"
       id="linearGradient3108"
       gradientUnits="userSpaceOnUse"
       gradientTransform="matrix(1.0380952,0,0,1.4619252,-228.28943,-118.25286)"
       x1="257"
       y1="256"
       x2="362"
       y2="256" />
    <linearGradient
       inkscape:collect="always"
       xlink:href="#linearGradient4996"
       id="linearGradient3137"
       gradientUnits="userSpaceOnUse"
       gradientTransform="matrix(1.0380952,0,0,1.4619252,-119.28943,-118.25286)"
       x1="257"
       y1="256"
       x2="362"
       y2="256" />
    <linearGradient
       inkscape:collect="always"
       xlink:href="#linearGradient4996"
       id="linearGradient3141"
       gradientUnits="userSpaceOnUse"
       gradientTransform="matrix(1.0380952,0,0,1.4619252,-10.28943,-118.25286)"
       x1="257"
       y1="256"
       x2="362"
       y2="256" />
    <linearGradient
       inkscape:collect="always"
       xlink:href="#linearGradient4996"
       id="linearGradient3145"
       gradientUnits="userSpaceOnUse"
       gradientTransform="matrix(1.0283468,0,0,1.4619252,101.21591,-118.25286)"
       x1="257"
       y1="256"
       x2="362"
       y2="256" />
    <linearGradient
       inkscape:collect="always"
       xlink:href="#linearGradient4996"
       id="linearGradient3149"
       gradientUnits="userSpaceOnUse"
       gradientTransform="matrix(1.0283468,0,0,1.4619252,209.19233,-118.25286)"
       x1="257"
       y1="256"
       x2="362"
       y2="256" />
    <linearGradient
       inkscape:collect="always"
       xlink:href="#linearGradient4996"
       id="linearGradient3153"
       gradientUnits="userSpaceOnUse"
       gradientTransform="matrix(1.0380952,0,0,1.4619252,-337.28943,-118.25286)"
       x1="257"
       y1="256"
       x2="362"
       y2="256" />
    <filter
       inkscape:collect="always"
       id="filter4375">
      <feGaussianBlur
         inkscape:collect="always"
         stdDeviation="3.7725"
         id="feGaussianBlur4377" />
    </filter>
    <linearGradient
       inkscape:collect="always"
       xlink:href="#linearGradient4379"
       id="linearGradient4385"
       x1="243.40109"
       y1="19.563948"
       x2="243.40109"
       y2="504.01736"
       gradientUnits="userSpaceOnUse" />
    <linearGradient
       y2="256"
       x2="362"
       y1="256"
       x1="257"
       gradientTransform="matrix(1.0380952,0,0,1.4619252,-337.28943,-118.25286)"
       gradientUnits="userSpaceOnUse"
       id="linearGradient3153-4"
       xlink:href="#linearGradient4996-0"
       inkscape:collect="always" />
    <linearGradient
       y2="256"
       x2="362"
       y1="256"
       x1="257"
       gradientTransform="matrix(1.0283468,0,0,1.4619252,209.19233,-118.25286)"
       gradientUnits="userSpaceOnUse"
       id="linearGradient3149-3"
       xlink:href="#linearGradient4996-0"
       inkscape:collect="always" />
    <linearGradient
       y2="256"
       x2="362"
       y1="256"
       x1="257"
       gradientTransform="matrix(1.0283468,0,0,1.4619252,101.21591,-118.25286)"
       gradientUnits="userSpaceOnUse"
       id="linearGradient3145-0"
       xlink:href="#linearGradient4996-0"
       inkscape:collect="always" />
    <linearGradient
       y2="256"
       x2="362"
       y1="256"
       x1="257"
       gradientTransform="matrix(1.0380952,0,0,1.4619252,-10.28943,-118.25286)"
       gradientUnits="userSpaceOnUse"
       id="linearGradient3141-2"
       xlink:href="#linearGradient4996-0"
       inkscape:collect="always" />
    <linearGradient
       y2="256"
       x2="362"
       y1="256"
       x1="257"
       gradientTransform="matrix(1.0380952,0,0,1.4619252,-119.28943,-118.25286)"
       gradientUnits="userSpaceOnUse"
       id="linearGradient3137-1"
       xlink:href="#linearGradient4996-0"
       inkscape:collect="always" />
    <linearGradient
       y2="256"
       x2="362"
       y1="256"
       x1="257"
       gradientTransform="matrix(1.0380952,0,0,1.4619252,-228.28943,-118.25286)"
       gradientUnits="userSpaceOnUse"
       id="linearGradient3108-8"
       xlink:href="#linearGradient4996-0"
       inkscape:collect="always" />
    <linearGradient
       id="linearGradient4996-0">
      <stop
         id="stop4998-6"
         offset="0"
         style="stop-color:#000000;stop-opacity:1;" />
      <stop
         id="stop5000-5"
         offset="1"
         style="stop-color:#ffffff;stop-opacity:1;" />
    </linearGradient>
  </defs>
  <path
     style="opacity:1;fill:#000000;fill-opacity:0.17647059000000001;stroke:none;filter:url(#filter4375)"
     d="M 78.65625 6 C 77.727284 6 76.7954 6.028201 75.875 6.0625 C 75.802369 6.0652118 75.728825 6.059577 75.65625 6.0625 C 74.988725 6.0893847 74.318909 6.1428818 73.65625 6.1875 C 73.280206 6.2128391 72.905683 6.2502503 72.53125 6.28125 C 71.885867 6.3345848 71.234134 6.3675421 70.59375 6.4375 C 69.628992 6.5431372 68.67162 6.6697176 67.71875 6.8125 C 67.666309 6.8203518 67.614904 6.835787 67.5625 6.84375 C 66.480857 7.0082531 65.408958 7.1949037 64.34375 7.40625 C 63.884894 7.4971842 63.424398 7.5880194 62.96875 7.6875 C 62.579098 7.7726525 62.199755 7.8774077 61.8125 7.96875 C 61.165363 8.1211825 60.515221 8.2679802 59.875 8.4375 C 58.977088 8.6758086 58.071221 8.9162011 57.1875 9.1875 C 56.976031 9.2523648 56.773131 9.3395193 56.5625 9.40625 C 55.571868 9.72038 54.596482 10.051502 53.625 10.40625 C 52.80836 10.704455 51.989948 11.0175 51.1875 11.34375 C 50.897854 11.461445 50.600246 11.566197 50.3125 11.6875 C 50.176196 11.744981 50.042123 11.816716 49.90625 11.875 C 49.824668 11.909989 49.737675 11.933472 49.65625 11.96875 C 48.938842 12.279643 48.236264 12.604441 47.53125 12.9375 C 47.384379 13.006849 47.240073 13.085948 47.09375 13.15625 C 46.146324 13.611669 45.205003 14.099116 44.28125 14.59375 C 44.010496 14.738777 43.737417 14.882905 43.46875 15.03125 C 43.054856 15.259696 42.65884 15.513784 42.25 15.75 C 41.730466 16.0502 41.198724 16.34365 40.6875 16.65625 C 39.949085 17.107771 39.220561 17.554376 38.5 18.03125 C 38.468637 18.052007 38.437579 18.072946 38.40625 18.09375 C 37.950536 18.396369 37.510847 18.718679 37.0625 19.03125 C 36.93921 19.117203 36.810226 19.194551 36.6875 19.28125 C 36.163693 19.651283 35.638368 20.022798 35.125 20.40625 C 33.290177 21.777117 31.50659 23.24624 29.8125 24.78125 C 29.795638 24.79654 29.766847 24.797194 29.75 24.8125 C 29.224497 25.289542 28.729955 25.789121 28.21875 26.28125 C 27.694886 26.785782 27.164727 27.292488 26.65625 27.8125 C 26.144503 28.335837 25.652037 28.867606 25.15625 29.40625 C 24.215559 30.427897 23.318806 31.456477 22.4375 32.53125 C 21.806506 33.300601 21.193184 34.110796 20.59375 34.90625 C 20.48231 35.054221 20.360329 35.194896 20.25 35.34375 C 19.723598 36.053613 19.21948 36.770435 18.71875 37.5 C 18.60915 37.659719 18.48335 37.808107 18.375 37.96875 C 18.362086 37.987892 18.356646 38.012094 18.34375 38.03125 C 18.259632 38.156225 18.177108 38.280721 18.09375 38.40625 C 17.623298 39.114511 17.164683 39.836916 16.71875 40.5625 C 16.647328 40.678799 16.570784 40.789515 16.5 40.90625 C 15.924756 41.854127 15.376169 42.805321 14.84375 43.78125 C 14.692065 44.059253 14.554393 44.344787 14.40625 44.625 C 14.225983 44.96599 14.049974 45.312036 13.875 45.65625 C 13.63151 46.13532 13.389361 46.608561 13.15625 47.09375 C 12.730634 47.978942 12.32789 48.876356 11.9375 49.78125 C 11.697576 50.33769 11.476337 50.90513 11.25 51.46875 C 11.211649 51.564217 11.162958 51.654331 11.125 51.75 C 10.878581 52.371259 10.635931 52.995354 10.40625 53.625 C 10.074634 54.533596 9.7648227 55.449625 9.46875 56.375 C 9.3582604 56.72046 9.2304578 57.058529 9.125 57.40625 C 8.8244173 58.396667 8.5403511 59.398152 8.28125 60.40625 C 8.2731511 60.437819 8.2580577 60.468414 8.25 60.5 C 7.9825799 61.546421 7.7529168 62.591906 7.53125 63.65625 C 7.4967817 63.821826 7.4708457 63.990255 7.4375 64.15625 C 7.011883 66.273722 6.6758491 68.412789 6.4375 70.59375 C 6.4022606 70.916326 6.3747851 71.238642 6.34375 71.5625 C 6.2537906 72.500662 6.1792302 73.457785 6.125 74.40625 C 6.1084109 74.696568 6.1069502 74.990008 6.09375 75.28125 C 6.0430557 76.400053 6 77.5245 6 78.65625 L 6 433.34375 L 6 439.34375 C 6 479.58856 38.411442 512 78.65625 512 L 433.34375 512 C 473.58856 512 506 479.58856 506 439.34375 L 506 84.65625 L 506 78.65625 C 506 77.397481 505.96893 76.148858 505.90625 74.90625 C 505.88997 74.583084 505.8642 74.259513 505.84375 73.9375 C 505.7854 73.020381 505.7168 72.094823 505.625 71.1875 C 505.60482 70.987629 505.58428 70.793129 505.5625 70.59375 C 505.31685 68.348594 504.97537 66.146302 504.53125 63.96875 C 504.51005 63.864628 504.49039 63.760207 504.46875 63.65625 C 504.24208 62.56918 503.99317 61.505818 503.71875 60.4375 C 503.70802 60.395586 503.69831 60.354385 503.6875 60.3125 C 503.49794 59.580022 503.27406 58.848167 503.0625 58.125 C 502.85099 57.400787 502.63943 56.683269 502.40625 55.96875 C 502.14838 55.179706 501.87757 54.401717 501.59375 53.625 C 501.36407 52.995354 501.12142 52.371259 500.875 51.75 C 500.837 51.654331 500.7884 51.564216 500.75 51.46875 C 500.51143 50.874675 500.28491 50.273592 500.03125 49.6875 C 499.6536 48.816464 499.2541 47.946468 498.84375 47.09375 C 498.61064 46.608561 498.36849 46.13532 498.125 45.65625 C 497.83796 45.092248 497.55122 44.524042 497.25 43.96875 C 497.19912 43.874852 497.14503 43.781145 497.09375 43.6875 C 496.58077 42.751755 496.05244 41.816114 495.5 40.90625 C 495.28765 40.556046 495.06183 40.221258 494.84375 39.875 C 494.43899 39.233117 494.04913 38.596743 493.625 37.96875 C 492.81616 36.769544 491.93973 35.615178 491.0625 34.46875 C 490.80093 34.127365 490.54872 33.774036 490.28125 33.4375 C 490.09255 33.199768 489.91036 32.954032 489.71875 32.71875 C 489.62597 32.604964 489.53096 32.488208 489.4375 32.375 C 486.72765 29.088725 483.7416 26.073745 480.5 23.3125 C 480.20738 23.063287 479.92162 22.807113 479.625 22.5625 C 479.35716 22.341642 479.08356 22.123311 478.8125 21.90625 C 478.17676 21.397149 477.52808 20.89412 476.875 20.40625 C 473.70458 18.038152 470.32509 15.925311 466.78125 14.09375 C 466.16445 13.77467 465.53332 13.458103 464.90625 13.15625 C 464.75142 13.08186 464.59295 13.010824 464.4375 12.9375 C 463.65263 12.56654 462.86266 12.218496 462.0625 11.875 C 461.57467 11.666006 461.08708 11.448572 460.59375 11.25 C 459.85871 10.953561 459.12187 10.67922 458.375 10.40625 C 457.98321 10.263334 457.58245 10.13635 457.1875 10 C 456.46909 9.7515393 455.72856 9.4764502 455 9.25 C 454.8864 9.2148134 454.77009 9.1908956 454.65625 9.15625 C 454.16839 9.007218 453.67972 8.8890238 453.1875 8.75 C 452.83049 8.6495592 452.48425 8.5326228 452.125 8.4375 C 452.10552 8.4323219 452.08198 8.4426624 452.0625 8.4375 C 451.22583 8.2167138 450.37964 8.0040441 449.53125 7.8125 C 449.49951 7.8053012 449.46926 7.7884074 449.4375 7.78125 C 448.78627 7.6351458 448.12658 7.5035858 447.46875 7.375 C 446.46573 7.1778899 445.45509 6.9992871 444.4375 6.84375 C 444.37488 6.8342345 444.31267 6.8218566 444.25 6.8125 C 443.29794 6.6695311 442.37023 6.5432958 441.40625 6.4375 C 440.57048 6.3461977 439.71923 6.2816821 438.875 6.21875 C 438.69908 6.2055933 438.52002 6.1994068 438.34375 6.1875 C 437.60905 6.1380308 436.86567 6.0901545 436.125 6.0625 C 435.20525 6.0281378 434.27212 6 433.34375 6 L 147.5 6 L 78.65625 6 z "
     id="path3492" />
  <rect
     style="opacity:0.15;fill:#000000;fill-opacity:1;stroke:none"
     id="rect5028"
     width="500"
     height="500"
     x="6"
     y="12"
     rx="72.644058"
     ry="72.644058" />
  <rect
     ry="72.644058"
     rx="72.644058"
     y="6"
     x="6"
     height="500"
     width="500"
     id="rect4979"
     style="fill:url(#linearGradient4385);fill-opacity:1;stroke:none" />
  <rect
     style="fill:#68af4c;fill-opacity:1;stroke:none"
     id="rect4981"
     width="434.99997"
     height="434.99997"
     x="38.500011"
     y="38.500011"
     rx="63.200329"
     ry="63.200329" />
  <path
     style="fill:#000000;fill-opacity:1;stroke:none;opacity:0.2"
     d="M 101.6875 38.5 C 66.674518 38.5 38.5 66.674518 38.5 101.6875 L 38.5 116.6875 C 38.5 81.674518 66.674518 53.5 101.6875 53.5 L 410.3125 53.5 C 445.32548 53.5 473.5 81.674518 473.5 116.6875 L 473.5 101.6875 C 473.5 66.674518 445.32548 38.5 410.3125 38.5 L 101.6875 38.5 z "
     id="rect3187" />
  <path
     style="fill:#ffffff;fill-opacity:1;stroke:none"
     d="M 78.65625 6 C 38.411442 6 6 38.411442 6 78.65625 L 6 85.65625 C 6 45.411442 38.411442 13 78.65625 13 L 433.34375 13 C 473.58856 13 506 45.411442 506 85.65625 L 506 78.65625 C 506 38.411442 473.58856 6 433.34375 6 L 78.65625 6 z "
     id="rect4349" />
  <text
     style="font-size:129.22999573px;line-height:125%;letter-spacing:0;word-spacing:0;font-family:Gentium Book Basic"
     sodipodi:linespacing="125%"
     font-size="129.23"
     letter-spacing="0"
     line-height="125%"
     word-spacing="0"
     x="-459.5611"
     y="112.1469"
     id="text3051">
    <tspan
       x="-459.5611"
       y="112.1469"
       id="tspan3053" />
  </text>
  <text
     style="font-size:46.95375824px;text-anchor:middle;font-family:Arial"
     x="82.557625"
     y="100.86626"
     font-size="46.954"
     transform="scale(4.0128205,0.24920128)"
     id="text3055" />
  <text
     style="font-size:129.22999573px;line-height:125%;letter-spacing:0;word-spacing:0;font-family:Gentium Book Basic"
     sodipodi:linespacing="125%"
     font-size="129.23"
     letter-spacing="0"
     line-height="125%"
     word-spacing="0"
     x="121.70889"
     y="32.146896"
     id="text3057">
    <tspan
       x="121.70889"
       y="32.146896"
       id="tspan3059" />
  </text>
  <text
     style="font-size:46.95375824px;text-anchor:middle;font-family:Arial"
     x="227.40689"
     y="-220.16209"
     font-size="46.954"
     transform="scale(4.0128205,0.24920128)"
     id="text3061" />
  <text
     style="font-size:129.22999573px;line-height:125%;letter-spacing:0;word-spacing:0;font-family:Gentium Book Basic"
     sodipodi:linespacing="125%"
     font-size="129.23"
     letter-spacing="0"
     line-height="125%"
     word-spacing="0"
     x="-949.87115"
     y="-149.11409"
     id="text3063">
    <tspan
       x="-949.87115"
       y="-149.11409"
       id="tspan3065" />
  </text>
  <text
     style="font-size:46.95375824px;text-anchor:middle;font-family:Arial"
     x="-39.631752"
     y="-947.51837"
     font-size="46.954"
     transform="scale(4.0128205,0.24920128)"
     id="text3067" />
  <text
     style="font-size:129.22999573px;line-height:125%;letter-spacing:0;word-spacing:0;font-family:Gentium Book Basic"
     sodipodi:linespacing="125%"
     font-size="129.23"
     letter-spacing="0"
     line-height="125%"
     word-spacing="0"
     x="148.17886"
     y="-365.5831"
     id="text3069">
    <tspan
       x="148.17886"
       y="-365.5831"
       id="tspan3071" />
  </text>
  <text
     style="font-size:46.95375824px;text-anchor:middle;font-family:Arial"
     x="234.00684"
     y="-1816.184"
     font-size="46.954"
     transform="scale(4.0128205,0.24920128)"
     id="text3073" />
  <text
     style="font-size:129.22999573px;line-height:125%;letter-spacing:0;word-spacing:0;font-family:Gentium Book Basic"
     sodipodi:linespacing="125%"
     font-size="129.23"
     letter-spacing="0"
     line-height="125%"
     word-spacing="0"
     x="729.44891"
     y="-445.59311"
     id="text3075">
    <tspan
       x="729.44891"
       y="-445.59311"
       id="tspan3077" />
  </text>
  <text
     style="font-size:46.95375824px;text-anchor:middle;font-family:Arial"
     x="378.85614"
     y="-2137.2222"
     font-size="46.954"
     transform="scale(4.0128205,0.24920128)"
     id="text3079" />
  <text
     style="font-size:129.22999573px;line-height:125%;letter-spacing:0;word-spacing:0;font-family:Gentium Book Basic"
     sodipodi:linespacing="125%"
     font-size="129.23"
     letter-spacing="0"
     line-height="125%"
     word-spacing="0"
     x="340.32895"
     y="-917.9931"
     id="text3081">
    <tspan
       x="340.32895"
       y="-917.9931"
       id="tspan3083" />
  </text>
  <text
     style="font-size:46.95375824px;text-anchor:middle;font-family:Arial"
     x="281.8866"
     y="-4032.8726"
     font-size="46.954"
     transform="scale(4.0128205,0.24920128)"
     id="text3085" />
  <text
     style="font-size:129.22999573px;line-height:125%;letter-spacing:0;word-spacing:0;font-family:Gentium Book Basic"
     sodipodi:linespacing="125%"
     font-size="129.23"
     letter-spacing="0"
     line-height="125%"
     word-spacing="0"
     x="921.58893"
     y="-997.9931"
     id="text3087">
    <tspan
       x="921.58893"
       y="-997.9931"
       id="tspan3089" />
  </text>
  <text
     style="font-size:46.95375824px;text-anchor:middle;font-family:Arial"
     x="426.7359"
     y="-4353.9014"
     font-size="46.954"
     transform="scale(4.0128205,0.24920128)"
     id="text3091" />
  <text
     style="font-size:208.33000183px;line-height:125%;letter-spacing:0;word-spacing:0;font-family:Gentium Book Basic"
     sodipodi:linespacing="125%"
     font-size="208.33"
     letter-spacing="0"
     line-height="125%"
     word-spacing="0"
     x="-911.21112"
     y="416.7269"
     id="text3093">
    <tspan
       x="-911.21112"
       y="416.7269"
       id="tspan3095" />
  </text>
  <g
     id="g3173"
     transform="translate(484.78799,103.05057)">
    <path
       style="opacity:0.2;fill:#000000;fill-opacity:1"
       inkscape:connector-curvature="0"
       d="m -338.85566,62.796257 c 0,0 0,0 0.0212,-9.18e-4 l 31.89811,-1.492414 c 1.82787,-0.08591 3.22849,-1.636977 3.14715,-3.44337 3.6e-4,-0.01205 -1.66004,-27.216994 -2.01623,-34.793968 l -0.003,-0.08981 c -0.29109,-6.219098 0.76567,-11.702433 2.83535,-16.353102 l 0.99539,-2.0913163 c -0.12109,0.02528 -0.24092,0.09085 -0.35609,0.218487 l -59.1126,64.1129013 c -0.11668,0.104153 -0.1861,0.237466 -0.21464,0.371771 1.25214,-0.69159 2.96419,-1.63785 3.20687,-1.75784 5.2811,-2.676875 11.76565,-4.314032 19.6003,-4.680722 m 247.89354,-18.28059 c -3.16604,-13.390019 -11.54142,-19.67022 -18.95412,-21.947377 -7.99788,-2.46329 -24.08085,-4.651708 -44.23637,-6.065532 -16.21115,-1.137215 -35.15404,-0.09903 -46.5809,0.788078 -1.81286,-9.3075952 -8.81347,-17.5609083 -16.33691,-20.1800033 -20.04596,-6.967176 -50.3599,-3.638496 -58.06638,-1.094401 -6.1212,2.016561 -12.82367,5.87726 -16.3873,11.5077551 -2.39261,3.7621592 -3.83165,8.5055282 -3.53999,15.0255832 0.17237,3.689054 0.68246,12.375476 1.13815,20.091879 0.45639,7.74131 0.88251,14.665059 0.88443,14.712341 0.31954,6.896146 -5.02591,12.771071 -11.98367,13.105933 l -31.8984,1.491299 c -6.80573,0.318026 -11.95099,1.700279 -15.83721,3.683162 -3.89401,1.984976 -6.59749,4.542338 -8.60391,7.511569 -3.99394,5.897544 -4.40481,12.961918 -4.05147,20.135788 0,0 0.33712,5.86024 2.28677,17.14099 1.59003,8.72566 14.02234,69.62119 23.97442,87.84607 3.86027,7.09331 6.34726,10.00683 13.41362,12.88222 15.71873,5.85039 51.26283,11.51228 67.86096,12.83617 16.56713,1.3286 27.11048,5.25587 32.66752,-7.8965 0.0185,-0.0336 1.08409,-3.25859 2.5349,-7.98481 4.59236,-16.39133 4.66692,-30.74884 4.18182,-41.11243 -0.0494,-1.05381 1.5013,-1.17537 1.55288,-0.0732 0.34257,7.31655 0.15046,33.27572 20.11336,39.29969 7.87771,2.37599 24.0777,4.06466 40.50646,5.20689 14.85408,1.00018 25.84841,6.28947 27.614,44.04104 1.07542,22.97047 -3.62167,26.3464 -28.94538,27.5314 -20.5277,0.96097 -28.3238,1.85504 -29.09087,-14.38594 -0.61422,-13.12863 12.4864,-12.3624 22.1478,-12.81469 4.3157,-0.20167 1.03326,-3.25214 0.65539,-11.35146 -0.37714,-8.05649 4.46378,-12.95144 -0.32667,-12.84481 -33.45073,0.64783 -53.06845,2.44516 -51.12196,44.06035 1.76709,37.77507 16.61217,44.11526 64.0282,41.89536 37.17668,-1.73939 50.22556,-3.56536 63.35482,-51.72339 2.60029,-9.5067 8.609882,-38.42866 10.810486,-86.62291 C -75.80451,158.73922 -85.54997,67.419873 -90.96312,44.506428 M -151.0321,148.76116 c -4.59981,0.0555 -9.00406,0.55098 -13.09296,1.40285 0.72354,-9.38023 4.05169,-21.00454 17.76522,-21.16608 15.18037,-0.19014 17.97064,13.97808 18.4778,23.63912 -6.52345,-2.53933 -14.51891,-3.97685 -23.15006,-3.87589"
       id="path3171" />
    <path
       id="path3097"
       d="m -353.85566,47.796257 c 0,0 0,0 0.0212,-9.18e-4 l 31.89811,-1.492414 c 1.82787,-0.08591 3.22849,-1.636977 3.14715,-3.44337 3.6e-4,-0.01205 -1.66004,-27.216994 -2.01623,-34.7939679 l -0.003,-0.089807 c -0.29109,-6.2190983 0.76567,-11.7024328 2.83535,-16.3531021 l 0.99539,-2.091316 c -0.12109,0.02528 -0.24092,0.09085 -0.35609,0.218487 l -59.1126,64.112901 c -0.11668,0.104153 -0.1861,0.237466 -0.21464,0.371771 1.25214,-0.69159 2.96419,-1.63785 3.20687,-1.75784 5.2811,-2.676875 11.76565,-4.314032 19.6003,-4.680722 m 247.89354,-18.28059 C -109.12635,16.12535 -117.50173,9.8451488 -124.91443,7.5679925 -132.91231,5.1047017 -148.99528,2.9162845 -169.1508,1.50246 c -16.21115,-1.13721511 -35.15404,-0.099029 -46.5809,0.7880781 -1.81286,-9.3075953 -8.81347,-17.5609081 -16.33691,-20.1800031 -20.04596,-6.967176 -50.3599,-3.638496 -58.06638,-1.094401 -6.1212,2.016561 -12.82367,5.87726 -16.3873,11.5077548 -2.39261,3.762159 -3.83165,8.5055285 -3.53999,15.0255837 0.17237,3.6890535 0.68246,12.3754755 1.13815,20.0918785 0.45639,7.74131 0.88251,14.665059 0.88443,14.712341 0.31954,6.896146 -5.02591,12.771071 -11.98367,13.105933 l -31.8984,1.491299 c -6.80573,0.318026 -11.95099,1.700279 -15.83721,3.683162 -3.89401,1.984976 -6.59749,4.542338 -8.60391,7.511569 -3.99394,5.897544 -4.40481,12.961918 -4.05147,20.135788 0,0 0.33712,5.86024 2.28677,17.140987 1.59003,8.72566 14.02234,69.62119 23.97442,87.84607 3.86027,7.09331 6.34726,10.00683 13.41362,12.88222 15.71873,5.85039 51.26283,11.51228 67.86096,12.83617 16.56713,1.3286 27.11048,5.25587 32.66752,-7.8965 0.0185,-0.0336 1.08409,-3.25859 2.5349,-7.98481 4.59236,-16.39133 4.66692,-30.74884 4.18182,-41.11243 -0.0494,-1.05381 1.5013,-1.17537 1.55288,-0.0732 0.34257,7.31655 0.15046,33.27572 20.11336,39.29969 7.87771,2.37599 24.0777,4.06466 40.50646,5.20689 14.85408,1.00018 25.84841,6.28947 27.614,44.04104 1.07542,22.97047 -3.62167,26.3464 -28.94538,27.5314 -20.5277,0.96097 -28.3238,1.85504 -29.09087,-14.38594 -0.61422,-13.12863 12.4864,-12.3624 22.1478,-12.81469 4.3157,-0.20167 1.03326,-3.25214 0.65539,-11.35146 -0.37714,-8.05649 4.46378,-12.95144 -0.32667,-12.84481 -33.45073,0.64783 -53.06845,2.44516 -51.12196,44.06035 1.76709,37.77507 16.61217,44.11526 64.0282,41.89536 37.17668,-1.73939 50.22556,-3.56536 63.35482,-51.72339 2.60029,-9.5067 8.609882,-38.42866 10.810486,-86.62291 C -90.80451,143.73922 -100.54997,52.419873 -105.96312,29.506428 M -166.0321,133.76116 c -4.59981,0.0555 -9.00406,0.55098 -13.09296,1.40285 0.72354,-9.38023 4.05169,-21.00454 17.76522,-21.16608 15.18037,-0.19014 17.97064,13.97808 18.4778,23.63912 -6.52345,-2.53933 -14.51891,-3.97685 -23.15006,-3.87589"
       inkscape:connector-curvature="0"
       style="fill:#dcdbdb;fill-opacity:1" />
  </g>
  <g
     id="g3167">
    <path
       id="rect3068"
       d="M 78.65625 6 C 63.792798 6 49.986224 10.429561 38.5 18.03125 L 38.5 493.96875 C 49.986224 501.57044 63.792798 506 78.65625 506 L 147.5 506 L 147.5 6 L 78.65625 6 z "
       style="opacity:0.05000000000000000;fill:url(#linearGradient3108);fill-opacity:1;stroke:none" />
    <path
       inkscape:connector-curvature="0"
       style="opacity:0.05;fill:url(#linearGradient3137);fill-opacity:1;stroke:none"
       d="m 147.50001,6 0,500 109,0 0,-500 -109,0 z"
       id="path3135" />
    <path
       id="path3139"
       d="m 256.50001,6 0,500 109,0 0,-500 -109,0 z"
       style="opacity:0.05;fill:url(#linearGradient3141);fill-opacity:1;stroke:none"
       inkscape:connector-curvature="0" />
    <path
       id="path3143"
       d="M 365.5 6 L 365.5 506 L 433.34375 506 C 448.1977 506 461.98692 501.56151 473.46875 493.96875 L 473.46875 18.03125 C 461.98692 10.438491 448.1977 6 433.34375 6 L 365.5 6 z "
       style="opacity:0.05000000000000000;fill:url(#linearGradient3145);fill-opacity:1;stroke:none" />
    <path
       id="path3151"
       d="M 38.5 18.03125 C 18.885717 31.012164 6 53.274894 6 78.65625 L 6 433.34375 C 6 458.72511 18.885717 480.98784 38.5 493.96875 L 38.5 18.03125 z "
       style="opacity:0.05000000000000000;fill:url(#linearGradient3153);fill-opacity:1;stroke:none" />
    <path
       id="path3147"
       d="M 473.46875 18.03125 L 473.46875 493.96875 C 493.09542 480.98993 506 458.73461 506 433.34375 L 506 78.65625 C 506 53.265388 493.09542 31.010071 473.46875 18.03125 z "
       style="opacity:0.05000000000000000;fill:url(#linearGradient3149);fill-opacity:1;stroke:none" />
  </g>
</svg>
