<?xml version="1.0" encoding="UTF-8" standalone="no"?>
<svg
   xmlns:dc="http://purl.org/dc/elements/1.1/"
   xmlns:cc="http://creativecommons.org/ns#"
   xmlns:rdf="http://www.w3.org/1999/02/22-rdf-syntax-ns#"
   xmlns:svg="http://www.w3.org/2000/svg"
   xmlns="http://www.w3.org/2000/svg"
   xmlns:xlink="http://www.w3.org/1999/xlink"
   xmlns:sodipodi="http://sodipodi.sourceforge.net/DTD/sodipodi-0.dtd"
   xmlns:inkscape="http://www.inkscape.org/namespaces/inkscape"
   viewBox="0 0 512 512"
   id="svg2"
   version="1.1"
   inkscape:version="0.48.4 r9939"
   width="100%"
   height="100%"
   sodipodi:docname="base.svg">
  <sodipodi:namedview
     pagecolor="#444444"
     bordercolor="#666666"
     borderopacity="1"
     objecttolerance="10"
     gridtolerance="10"
     guidetolerance="10"
     inkscape:pageopacity="0"
     inkscape:pageshadow="2"
     inkscape:window-width="1310"
     inkscape:window-height="718"
     id="namedview6"
     showgrid="false"
     showguides="true"
     inkscape:guide-bbox="true"
     inkscape:zoom="0.73271889"
     inkscape:cx="215.30569"
     inkscape:cy="214.98228"
     inkscape:window-x="54"
     inkscape:window-y="27"
     inkscape:window-maximized="1"
     inkscape:current-layer="svg2"
     inkscape:snap-midpoints="true"
     inkscape:snap-global="false">
    <sodipodi:guide
       id="guide2989"
       position="522.57628,433.35594"
       orientation="0,1" />
    <sodipodi:guide
       id="guide2995"
       position="473.05444,254.912"
       orientation="1,0" />
  </sodipodi:namedview>
  <metadata
     id="metadata10">
    <rdf:RDF>
      <cc:Work
         rdf:about="">
        <dc:format>image/svg+xml</dc:format>
        <dc:type
           rdf:resource="http://purl.org/dc/dcmitype/StillImage" />
        <dc:title></dc:title>
      </cc:Work>
    </rdf:RDF>
  </metadata>
  <defs
     id="defs8">
    <linearGradient
       id="linearGradient4996">
      <stop
         style="stop-color:#000000;stop-opacity:1;"
         offset="0"
         id="stop4998" />
      <stop
         style="stop-color:#ffffff;stop-opacity:1;"
         offset="1"
         id="stop5000" />
    </linearGradient>
    <linearGradient
       inkscape:collect="always"
       xlink:href="#linearGradient4996"
       id="linearGradient3108"
       gradientUnits="userSpaceOnUse"
       gradientTransform="matrix(1.0380952,0,0,1.4619252,-228.28943,-118.25286)"
       x1="257"
       y1="256"
       x2="362"
       y2="256" />
    <linearGradient
       inkscape:collect="always"
       xlink:href="#linearGradient4996"
       id="linearGradient3137"
       gradientUnits="userSpaceOnUse"
       gradientTransform="matrix(1.0380952,0,0,1.4619252,-119.28943,-118.25286)"
       x1="257"
       y1="256"
       x2="362"
       y2="256" />
    <linearGradient
       inkscape:collect="always"
       xlink:href="#linearGradient4996"
       id="linearGradient3141"
       gradientUnits="userSpaceOnUse"
       gradientTransform="matrix(1.0380952,0,0,1.4619252,-10.28943,-118.25286)"
       x1="257"
       y1="256"
       x2="362"
       y2="256" />
    <linearGradient
       inkscape:collect="always"
       xlink:href="#linearGradient4996"
       id="linearGradient3145"
       gradientUnits="userSpaceOnUse"
       gradientTransform="matrix(1.0283468,0,0,1.4619252,101.21591,-118.25286)"
       x1="257"
       y1="256"
       x2="362"
       y2="256" />
    <linearGradient
       inkscape:collect="always"
       xlink:href="#linearGradient4996"
       id="linearGradient3149"
       gradientUnits="userSpaceOnUse"
       gradientTransform="matrix(1.0283468,0,0,1.4619252,209.19233,-118.25286)"
       x1="257"
       y1="256"
       x2="362"
       y2="256" />
    <linearGradient
       inkscape:collect="always"
       xlink:href="#linearGradient4996"
       id="linearGradient3153"
       gradientUnits="userSpaceOnUse"
       gradientTransform="matrix(1.0380952,0,0,1.4619252,-337.28943,-118.25286)"
       x1="257"
       y1="256"
       x2="362"
       y2="256" />
  </defs>
  <rect
     style="opacity:0.2;fill:#000000;fill-opacity:1;stroke:none"
     id="rect5028"
     width="500"
     height="500"
     x="6"
     y="12"
     rx="72.644058"
     ry="72.644058" />
  <rect
     ry="72.644058"
     rx="72.644058"
     y="6"
     x="6"
     height="500"
     width="500"
     id="rect4979"
     style="fill:#f3f3f3;fill-opacity:1;stroke:none" />
  <rect
     style="fill:#0078ad;fill-opacity:1;stroke:none"
     id="rect4981"
     width="434.99997"
     height="434.99997"
     x="38.500011"
     y="38.500011"
     rx="63.200329"
     ry="63.200329" />
  <path
     style="fill:#000000;fill-opacity:1;stroke:none;opacity:0.2"
     d="M 101.6875 38.5 C 66.674518 38.5 38.5 66.674518 38.5 101.6875 L 38.5 116.6875 C 38.5 81.674518 66.674518 53.5 101.6875 53.5 L 410.3125 53.5 C 445.32548 53.5 473.5 81.674518 473.5 116.6875 L 473.5 101.6875 C 473.5 66.674518 445.32548 38.5 410.3125 38.5 L 101.6875 38.5 z "
     id="rect3187" />
  <g
     id="g3084"
     transform="translate(299.97389,166.7627)">
    <g
       id="g3074"
       transform="matrix(5.2345326,0,0,5.2345326,-203.97732,-70.766824)"
       style="opacity:0.2;fill:#000000;fill-opacity:1">
      <g
         id="g3076"
         style="fill:#000000;fill-opacity:1">
        <path
           id="path3078"
           d="M 28.535,53.871 C 20.434,54.378 12.624,53.557 5.921,48.476 -0.589,43.542 -1.846,35.679 2.726,28.459 4.378,25.851 6.538,23.569 8.612,20.956 7.341,20.14 5.877,19.199 4.087,18.048 c 5.8,-1.513 11.266,-2.94 16.729,-4.367 -7.926,5.743 -13.51,12.75 -11.604,23.208 1.93,10.594 9.638,14.991 19.323,16.982 z"
           clip-rule="evenodd"
           inkscape:connector-curvature="0"
           style="fill:#000000;fill-opacity:1;fill-rule:evenodd" />
        <path
           id="path3080"
           d="m 42.886,50.303 c 8.658,-5.844 14.26,-13.327 11.701,-24.179 -2.312,-9.799 -9.81,-14.042 -19.633,-15.646 0.792,-0.25 1.122,-0.439 1.459,-0.449 6.999,-0.212 13.781,0.654 19.899,4.407 7.067,4.335 9.586,11.481 6.191,18.767 -1.4,3.009 -3.836,5.531 -5.828,8.257 -0.396,0.544 -0.908,1.005 -1.493,1.637 1.525,0.962 3.006,1.897 4.738,2.99 -5.651,1.489 -10.962,2.891 -16.275,4.279 -0.176,0.046 -0.383,-0.027 -0.759,-0.063 z"
           clip-rule="evenodd"
           inkscape:connector-curvature="0"
           style="fill:#000000;fill-opacity:1;fill-rule:evenodd" />
        <path
           id="path3082"
           d="M 40.586,38.635 C 36.819,42.914 32.065,44.628 26.49,43.708 21.186,42.834 18.366,37.777 19.67,31.872 21.408,24.007 29.999,18.2 37.875,19.565 c 4.494,0.78 6.31,5.075 3.267,8.501 -1.568,1.766 -3.913,3.018 -6.134,3.96 -2.251,0.956 -4.773,1.288 -7.196,1.805 -1.112,0.237 -1.591,0.674 -1.604,1.927 -0.05,4.76 3.244,7.271 7.894,5.655 1.638,-0.569 3.022,-1.859 4.55,-2.774 0.517,-0.31 1.117,-0.479 1.679,-0.711 0.084,0.236 0.169,0.47 0.255,0.707 z m -13.992,-5.85 c 4.57,-0.782 8.284,-2.279 9.694,-6.905 0.499,-1.633 0.682,-3.47 -1.059,-4.463 -1.769,-1.008 -3.307,-0.085 -4.536,1.304 -2.463,2.783 -3.449,6.181 -4.099,10.064 z"
           clip-rule="evenodd"
           inkscape:connector-curvature="0"
           style="fill:#000000;fill-opacity:1;fill-rule:evenodd" />
      </g>
    </g>
    <g
       style="fill:#dcdbdb;fill-opacity:1"
       transform="matrix(5.2345326,0,0,5.2345326,-218.97732,-85.766824)"
       id="g3053">
      <g
         style="fill:#dcdbdb;fill-opacity:1"
         id="g3055">
        <path
           style="fill:#dcdbdb;fill-opacity:1;fill-rule:evenodd"
           inkscape:connector-curvature="0"
           clip-rule="evenodd"
           d="M 28.535,53.871 C 20.434,54.378 12.624,53.557 5.921,48.476 -0.589,43.542 -1.846,35.679 2.726,28.459 4.378,25.851 6.538,23.569 8.612,20.956 7.341,20.14 5.877,19.199 4.087,18.048 c 5.8,-1.513 11.266,-2.94 16.729,-4.367 -7.926,5.743 -13.51,12.75 -11.604,23.208 1.93,10.594 9.638,14.991 19.323,16.982 z"
           id="path3057" />
        <path
           style="fill:#dcdbdb;fill-opacity:1;fill-rule:evenodd"
           inkscape:connector-curvature="0"
           clip-rule="evenodd"
           d="m 42.886,50.303 c 8.658,-5.844 14.26,-13.327 11.701,-24.179 -2.312,-9.799 -9.81,-14.042 -19.633,-15.646 0.792,-0.25 1.122,-0.439 1.459,-0.449 6.999,-0.212 13.781,0.654 19.899,4.407 7.067,4.335 9.586,11.481 6.191,18.767 -1.4,3.009 -3.836,5.531 -5.828,8.257 -0.396,0.544 -0.908,1.005 -1.493,1.637 1.525,0.962 3.006,1.897 4.738,2.99 -5.651,1.489 -10.962,2.891 -16.275,4.279 -0.176,0.046 -0.383,-0.027 -0.759,-0.063 z"
           id="path3059" />
        <path
           style="fill:#dcdbdb;fill-opacity:1;fill-rule:evenodd"
           inkscape:connector-curvature="0"
           clip-rule="evenodd"
           d="M 40.586,38.635 C 36.819,42.914 32.065,44.628 26.49,43.708 21.186,42.834 18.366,37.777 19.67,31.872 21.408,24.007 29.999,18.2 37.875,19.565 c 4.494,0.78 6.31,5.075 3.267,8.501 -1.568,1.766 -3.913,3.018 -6.134,3.96 -2.251,0.956 -4.773,1.288 -7.196,1.805 -1.112,0.237 -1.591,0.674 -1.604,1.927 -0.05,4.76 3.244,7.271 7.894,5.655 1.638,-0.569 3.022,-1.859 4.55,-2.774 0.517,-0.31 1.117,-0.479 1.679,-0.711 0.084,0.236 0.169,0.47 0.255,0.707 z m -13.992,-5.85 c 4.57,-0.782 8.284,-2.279 9.694,-6.905 0.499,-1.633 0.682,-3.47 -1.059,-4.463 -1.769,-1.008 -3.307,-0.085 -4.536,1.304 -2.463,2.783 -3.449,6.181 -4.099,10.064 z"
           id="path3061" />
      </g>
    </g>
  </g>
  <g
     id="g3167">
    <path
       id="rect3068"
       d="M 78.65625 6 C 63.792798 6 49.986224 10.429561 38.5 18.03125 L 38.5 493.96875 C 49.986224 501.57044 63.792798 506 78.65625 506 L 147.5 506 L 147.5 6 L 78.65625 6 z "
       style="opacity:0.05000000000000000;fill:url(#linearGradient3108);fill-opacity:1;stroke:none" />
    <path
       inkscape:connector-curvature="0"
       style="opacity:0.05;fill:url(#linearGradient3137);fill-opacity:1;stroke:none"
       d="m 147.50001,6 0,500 109,0 0,-500 -109,0 z"
       id="path3135" />
    <path
       id="path3139"
       d="m 256.50001,6 0,500 109,0 0,-500 -109,0 z"
       style="opacity:0.05;fill:url(#linearGradient3141);fill-opacity:1;stroke:none"
       inkscape:connector-curvature="0" />
    <path
       id="path3143"
       d="M 365.5 6 L 365.5 506 L 433.34375 506 C 448.1977 506 461.98692 501.56151 473.46875 493.96875 L 473.46875 18.03125 C 461.98692 10.438491 448.1977 6 433.34375 6 L 365.5 6 z "
       style="opacity:0.05000000000000000;fill:url(#linearGradient3145);fill-opacity:1;stroke:none" />
    <path
       id="path3151"
       d="M 38.5 18.03125 C 18.885717 31.012164 6 53.274894 6 78.65625 L 6 433.34375 C 6 458.72511 18.885717 480.98784 38.5 493.96875 L 38.5 18.03125 z "
       style="opacity:0.05000000000000000;fill:url(#linearGradient3153);fill-opacity:1;stroke:none" />
    <path
       id="path3147"
       d="M 473.46875 18.03125 L 473.46875 493.96875 C 493.09542 480.98993 506 458.73461 506 433.34375 L 506 78.65625 C 506 53.265388 493.09542 31.010071 473.46875 18.03125 z "
       style="opacity:0.05000000000000000;fill:url(#linearGradient3149);fill-opacity:1;stroke:none" />
  </g>
</svg>
