<?xml version="1.0" encoding="UTF-8" standalone="no"?>
<svg
   xmlns:dc="http://purl.org/dc/elements/1.1/"
   xmlns:cc="http://creativecommons.org/ns#"
   xmlns:rdf="http://www.w3.org/1999/02/22-rdf-syntax-ns#"
   xmlns:svg="http://www.w3.org/2000/svg"
   xmlns="http://www.w3.org/2000/svg"
   xmlns:xlink="http://www.w3.org/1999/xlink"
   xmlns:sodipodi="http://sodipodi.sourceforge.net/DTD/sodipodi-0.dtd"
   xmlns:inkscape="http://www.inkscape.org/namespaces/inkscape"
   viewBox="0 0 512 512"
   id="svg2"
   version="1.1"
   inkscape:version="0.48.4 r9939"
   width="100%"
   height="100%"
   sodipodi:docname="formspring.svg">
  <sodipodi:namedview
     pagecolor="#444444"
     bordercolor="#666666"
     borderopacity="1"
     objecttolerance="10"
     gridtolerance="10"
     guidetolerance="10"
     inkscape:pageopacity="0"
     inkscape:pageshadow="2"
     inkscape:window-width="1310"
     inkscape:window-height="718"
     id="namedview6"
     showgrid="false"
     showguides="true"
     inkscape:guide-bbox="true"
     inkscape:zoom="0.73271889"
     inkscape:cx="267.16732"
     inkscape:cy="251.83133"
     inkscape:window-x="54"
     inkscape:window-y="27"
     inkscape:window-maximized="1"
     inkscape:current-layer="svg2"
     inkscape:snap-midpoints="true"
     inkscape:snap-global="false">
    <sodipodi:guide
       id="guide2989"
       position="522.57628,433.35594"
       orientation="0,1" />
    <sodipodi:guide
       id="guide2995"
       position="473.05444,254.912"
       orientation="1,0" />
  </sodipodi:namedview>
  <metadata
     id="metadata10">
    <rdf:RDF>
      <cc:Work
         rdf:about="">
        <dc:format>image/svg+xml</dc:format>
        <dc:type
           rdf:resource="http://purl.org/dc/dcmitype/StillImage" />
        <dc:title></dc:title>
      </cc:Work>
    </rdf:RDF>
  </metadata>
  <defs
     id="defs8">
    <linearGradient
       id="linearGradient4996">
      <stop
         style="stop-color:#000000;stop-opacity:1;"
         offset="0"
         id="stop4998" />
      <stop
         style="stop-color:#ffffff;stop-opacity:1;"
         offset="1"
         id="stop5000" />
    </linearGradient>
    <linearGradient
       inkscape:collect="always"
       xlink:href="#linearGradient4996"
       id="linearGradient3108"
       gradientUnits="userSpaceOnUse"
       gradientTransform="matrix(1.0380952,0,0,1.4619252,-228.28943,-118.25286)"
       x1="257"
       y1="256"
       x2="362"
       y2="256" />
    <linearGradient
       inkscape:collect="always"
       xlink:href="#linearGradient4996"
       id="linearGradient3137"
       gradientUnits="userSpaceOnUse"
       gradientTransform="matrix(1.0380952,0,0,1.4619252,-119.28943,-118.25286)"
       x1="257"
       y1="256"
       x2="362"
       y2="256" />
    <linearGradient
       inkscape:collect="always"
       xlink:href="#linearGradient4996"
       id="linearGradient3141"
       gradientUnits="userSpaceOnUse"
       gradientTransform="matrix(1.0380952,0,0,1.4619252,-10.28943,-118.25286)"
       x1="257"
       y1="256"
       x2="362"
       y2="256" />
    <linearGradient
       inkscape:collect="always"
       xlink:href="#linearGradient4996"
       id="linearGradient3145"
       gradientUnits="userSpaceOnUse"
       gradientTransform="matrix(1.0283468,0,0,1.4619252,101.21591,-118.25286)"
       x1="257"
       y1="256"
       x2="362"
       y2="256" />
    <linearGradient
       inkscape:collect="always"
       xlink:href="#linearGradient4996"
       id="linearGradient3149"
       gradientUnits="userSpaceOnUse"
       gradientTransform="matrix(1.0283468,0,0,1.4619252,209.19233,-118.25286)"
       x1="257"
       y1="256"
       x2="362"
       y2="256" />
    <linearGradient
       inkscape:collect="always"
       xlink:href="#linearGradient4996"
       id="linearGradient3153"
       gradientUnits="userSpaceOnUse"
       gradientTransform="matrix(1.0380952,0,0,1.4619252,-337.28943,-118.25286)"
       x1="257"
       y1="256"
       x2="362"
       y2="256" />
  </defs>
  <rect
     style="opacity:0.2;fill:#000000;fill-opacity:1;stroke:none"
     id="rect5028"
     width="500"
     height="500"
     x="6"
     y="12"
     rx="72.644058"
     ry="72.644058" />
  <rect
     ry="72.644058"
     rx="72.644058"
     y="6"
     x="6"
     height="500"
     width="500"
     id="rect4979"
     style="fill:#f3f3f3;fill-opacity:1;stroke:none" />
  <rect
     style="fill:#7895a2;fill-opacity:1;stroke:none"
     id="rect4981"
     width="434.99997"
     height="434.99997"
     x="38.500011"
     y="38.500011"
     rx="63.200329"
     ry="63.200329" />
  <path
     style="fill:#000000;fill-opacity:1;stroke:none;opacity:0.2"
     d="M 101.6875 38.5 C 66.674518 38.5 38.5 66.674518 38.5 101.6875 L 38.5 116.6875 C 38.5 81.674518 66.674518 53.5 101.6875 53.5 L 410.3125 53.5 C 445.32548 53.5 473.5 81.674518 473.5 116.6875 L 473.5 101.6875 C 473.5 66.674518 445.32548 38.5 410.3125 38.5 L 101.6875 38.5 z "
     id="rect3187" />
  <g
     id="g3087"
     transform="translate(357.43235,103.31274)">
    <g
       id="g3077"
       transform="matrix(11.167783,0,0,11.167783,-7886.024,-13883.875)"
       style="opacity:0.2;fill:#000000;fill-opacity:1">
      <path
         style="fill:#000000;fill-opacity:1"
         inkscape:connector-curvature="0"
         id="path3079"
         d="m 703.387,1245.34 c 1.209,0.119 2.357,0.445 3.371,0.963 0.361,0.186 0.785,0.199 1.16,0.041 0.373,-0.16 0.656,-0.477 0.771,-0.865 0.199,-0.662 -0.127,-1.355 -0.738,-1.637 -1.672,-0.844 -3.607,-1.289 -5.6,-1.289 -2.73,0 -5.311,0.828 -7.266,2.332 -0.803,0.619 -1.465,1.32 -1.975,2.084 2.102,-1.244 4.643,-1.918 7.305,-1.918 1.011,0 2.007,0.097 2.972,0.289 z" />
      <path
         style="fill:#000000;fill-opacity:1"
         inkscape:connector-curvature="0"
         id="path3081"
         d="m 700.434,1248.318 c 1.857,0 3.646,0.414 5.172,1.197 0.021,0.01 0.043,0.02 0.064,0.029 1.045,0.551 1.777,1.313 2.096,2.143 1.113,0.99 1.893,2.184 2.26,3.48 0.43,-0.803 0.654,-1.668 0.654,-2.555 0,-2.236 -1.43,-4.305 -3.824,-5.533 -0.025,-0.014 -0.051,-0.025 -0.074,-0.037 -1.895,-0.955 -4.088,-1.459 -6.348,-1.459 -3.094,0 -6.02,0.939 -8.232,2.643 -0.984,0.756 -1.779,1.625 -2.369,2.57 2.35,-1.426 5.205,-2.211 8.205,-2.242 0.771,-0.154 1.575,-0.236 2.396,-0.236 z" />
      <path
         style="fill:#000000;fill-opacity:1"
         inkscape:connector-curvature="0"
         id="path3083"
         d="m 709.619,1262.992 c -0.617,-0.434 -1.471,-0.287 -1.906,0.33 -0.584,0.828 -1.203,1.457 -1.896,1.924 -0.836,0.564 -2.158,1.432 -2.172,1.441 -0.385,0.252 -0.617,0.682 -0.617,1.143 l 0.002,1.285 -3.363,-1.436 c -0.195,-0.082 -0.404,-0.119 -0.613,-0.107 -0.27,0.014 -0.541,0.021 -0.811,0.021 -3.98,0 -7.609,-1.635 -9.467,-4.268 -0.043,-0.061 -0.092,-0.111 -0.141,-0.162 -0.74,-1.094 -1.121,-2.271 -1.121,-3.5 0,-4.354 4.787,-7.895 10.672,-7.895 2.145,0 4.215,0.473 5.984,1.369 0.02,0.01 0.039,0.018 0.059,0.027 1.756,0.9 2.801,2.299 2.801,3.75 0,1.174 -0.67,2.307 -1.887,3.191 -1.35,0.979 -3.166,1.52 -5.115,1.52 -0.494,0 -0.988,-0.035 -1.467,-0.105 -0.004,0 -0.008,0 -0.014,0 -1.371,-0.209 -2.682,-0.662 -3.791,-1.311 0,0 -0.002,0 -0.002,0 -2.172,-1.285 -3.418,-3.178 -3.418,-5.205 0,-0.295 0.029,-0.59 0.082,-0.879 -1.117,0.727 -2.012,1.631 -2.604,2.652 0.559,2.316 2.193,4.416 4.609,5.826 0.02,0.012 0.041,0.016 0.061,0.025 1.387,0.791 2.998,1.346 4.674,1.6 0.01,0 0.018,0 0.027,0 0.604,0.086 1.223,0.131 1.842,0.131 2.521,0 4.908,-0.725 6.721,-2.041 1.945,-1.412 3.016,-3.332 3.016,-5.404 0,-2.521 -1.631,-4.848 -4.361,-6.221 -0.02,-0.01 -0.041,-0.02 -0.061,-0.029 -2.137,-1.068 -4.611,-1.631 -7.156,-1.631 -3.516,0 -6.836,1.064 -9.348,2.996 -2.617,2.014 -4.059,4.725 -4.059,7.633 0,1.826 0.59,3.625 1.703,5.203 0.057,0.078 0.121,0.145 0.189,0.209 2.395,3.244 6.801,5.252 11.57,5.252 0.211,0 0.424,0 0.637,-0.012 l 4.977,2.127 c 0.172,0.072 0.355,0.109 0.537,0.109 0.264,0 0.525,-0.076 0.752,-0.227 0.385,-0.252 0.615,-0.682 0.615,-1.141 l 0.002,-2.619 c 0.465,-0.305 1.102,-0.727 1.582,-1.051 0.961,-0.648 1.836,-1.527 2.605,-2.617 0.437,-0.614 0.288,-1.467 -0.329,-1.903 z" />
      <path
         style="fill:#000000;fill-opacity:1"
         inkscape:connector-curvature="0"
         id="path3085"
         d="m 700.402,1259.139 0.01,0 c 0.531,0.076 1.078,0.115 1.625,0.115 1.443,0 2.834,-0.273 4.064,-0.773 0.322,-0.502 0.494,-1.037 0.494,-1.58 0,-0.516 -0.158,-1.027 -0.451,-1.51 -1.098,0.713 -2.568,1.129 -4.107,1.129 -0.416,0 -0.832,-0.029 -1.23,-0.088 -2.795,-0.418 -4.992,-1.92 -5.822,-3.824 -0.922,0.225 -1.783,0.543 -2.566,0.938 1.167,2.825 4.171,5.02 7.983,5.591 z" />
    </g>
    <g
       style="fill:#dcdbdb;fill-opacity:1"
       transform="matrix(11.167783,0,0,11.167783,-7901.024,-13898.875)"
       id="g2642">
      <path
         d="m 703.387,1245.34 c 1.209,0.119 2.357,0.445 3.371,0.963 0.361,0.186 0.785,0.199 1.16,0.041 0.373,-0.16 0.656,-0.477 0.771,-0.865 0.199,-0.662 -0.127,-1.355 -0.738,-1.637 -1.672,-0.844 -3.607,-1.289 -5.6,-1.289 -2.73,0 -5.311,0.828 -7.266,2.332 -0.803,0.619 -1.465,1.32 -1.975,2.084 2.102,-1.244 4.643,-1.918 7.305,-1.918 1.011,0 2.007,0.097 2.972,0.289 z"
         id="path2644"
         inkscape:connector-curvature="0"
         style="fill:#dcdbdb;fill-opacity:1" />
      <path
         d="m 700.434,1248.318 c 1.857,0 3.646,0.414 5.172,1.197 0.021,0.01 0.043,0.02 0.064,0.029 1.045,0.551 1.777,1.313 2.096,2.143 1.113,0.99 1.893,2.184 2.26,3.48 0.43,-0.803 0.654,-1.668 0.654,-2.555 0,-2.236 -1.43,-4.305 -3.824,-5.533 -0.025,-0.014 -0.051,-0.025 -0.074,-0.037 -1.895,-0.955 -4.088,-1.459 -6.348,-1.459 -3.094,0 -6.02,0.939 -8.232,2.643 -0.984,0.756 -1.779,1.625 -2.369,2.57 2.35,-1.426 5.205,-2.211 8.205,-2.242 0.771,-0.154 1.575,-0.236 2.396,-0.236 z"
         id="path2646"
         inkscape:connector-curvature="0"
         style="fill:#dcdbdb;fill-opacity:1" />
      <path
         d="m 709.619,1262.992 c -0.617,-0.434 -1.471,-0.287 -1.906,0.33 -0.584,0.828 -1.203,1.457 -1.896,1.924 -0.836,0.564 -2.158,1.432 -2.172,1.441 -0.385,0.252 -0.617,0.682 -0.617,1.143 l 0.002,1.285 -3.363,-1.436 c -0.195,-0.082 -0.404,-0.119 -0.613,-0.107 -0.27,0.014 -0.541,0.021 -0.811,0.021 -3.98,0 -7.609,-1.635 -9.467,-4.268 -0.043,-0.061 -0.092,-0.111 -0.141,-0.162 -0.74,-1.094 -1.121,-2.271 -1.121,-3.5 0,-4.354 4.787,-7.895 10.672,-7.895 2.145,0 4.215,0.473 5.984,1.369 0.02,0.01 0.039,0.018 0.059,0.027 1.756,0.9 2.801,2.299 2.801,3.75 0,1.174 -0.67,2.307 -1.887,3.191 -1.35,0.979 -3.166,1.52 -5.115,1.52 -0.494,0 -0.988,-0.035 -1.467,-0.105 -0.004,0 -0.008,0 -0.014,0 -1.371,-0.209 -2.682,-0.662 -3.791,-1.311 0,0 -0.002,0 -0.002,0 -2.172,-1.285 -3.418,-3.178 -3.418,-5.205 0,-0.295 0.029,-0.59 0.082,-0.879 -1.117,0.727 -2.012,1.631 -2.604,2.652 0.559,2.316 2.193,4.416 4.609,5.826 0.02,0.012 0.041,0.016 0.061,0.025 1.387,0.791 2.998,1.346 4.674,1.6 0.01,0 0.018,0 0.027,0 0.604,0.086 1.223,0.131 1.842,0.131 2.521,0 4.908,-0.725 6.721,-2.041 1.945,-1.412 3.016,-3.332 3.016,-5.404 0,-2.521 -1.631,-4.848 -4.361,-6.221 -0.02,-0.01 -0.041,-0.02 -0.061,-0.029 -2.137,-1.068 -4.611,-1.631 -7.156,-1.631 -3.516,0 -6.836,1.064 -9.348,2.996 -2.617,2.014 -4.059,4.725 -4.059,7.633 0,1.826 0.59,3.625 1.703,5.203 0.057,0.078 0.121,0.145 0.189,0.209 2.395,3.244 6.801,5.252 11.57,5.252 0.211,0 0.424,0 0.637,-0.012 l 4.977,2.127 c 0.172,0.072 0.355,0.109 0.537,0.109 0.264,0 0.525,-0.076 0.752,-0.227 0.385,-0.252 0.615,-0.682 0.615,-1.141 l 0.002,-2.619 c 0.465,-0.305 1.102,-0.727 1.582,-1.051 0.961,-0.648 1.836,-1.527 2.605,-2.617 0.437,-0.614 0.288,-1.467 -0.329,-1.903 z"
         id="path2648"
         inkscape:connector-curvature="0"
         style="fill:#dcdbdb;fill-opacity:1" />
      <path
         d="m 700.402,1259.139 0.01,0 c 0.531,0.076 1.078,0.115 1.625,0.115 1.443,0 2.834,-0.273 4.064,-0.773 0.322,-0.502 0.494,-1.037 0.494,-1.58 0,-0.516 -0.158,-1.027 -0.451,-1.51 -1.098,0.713 -2.568,1.129 -4.107,1.129 -0.416,0 -0.832,-0.029 -1.23,-0.088 -2.795,-0.418 -4.992,-1.92 -5.822,-3.824 -0.922,0.225 -1.783,0.543 -2.566,0.938 1.167,2.825 4.171,5.02 7.983,5.591 z"
         id="path2650"
         inkscape:connector-curvature="0"
         style="fill:#dcdbdb;fill-opacity:1" />
    </g>
  </g>
  <g
     id="g3167">
    <path
       id="rect3068"
       d="M 78.65625 6 C 63.792798 6 49.986224 10.429561 38.5 18.03125 L 38.5 493.96875 C 49.986224 501.57044 63.792798 506 78.65625 506 L 147.5 506 L 147.5 6 L 78.65625 6 z "
       style="opacity:0.05000000000000000;fill:url(#linearGradient3108);fill-opacity:1;stroke:none" />
    <path
       inkscape:connector-curvature="0"
       style="opacity:0.05;fill:url(#linearGradient3137);fill-opacity:1;stroke:none"
       d="m 147.50001,6 0,500 109,0 0,-500 -109,0 z"
       id="path3135" />
    <path
       id="path3139"
       d="m 256.50001,6 0,500 109,0 0,-500 -109,0 z"
       style="opacity:0.05;fill:url(#linearGradient3141);fill-opacity:1;stroke:none"
       inkscape:connector-curvature="0" />
    <path
       id="path3143"
       d="M 365.5 6 L 365.5 506 L 433.34375 506 C 448.1977 506 461.98692 501.56151 473.46875 493.96875 L 473.46875 18.03125 C 461.98692 10.438491 448.1977 6 433.34375 6 L 365.5 6 z "
       style="opacity:0.05000000000000000;fill:url(#linearGradient3145);fill-opacity:1;stroke:none" />
    <path
       id="path3151"
       d="M 38.5 18.03125 C 18.885717 31.012164 6 53.274894 6 78.65625 L 6 433.34375 C 6 458.72511 18.885717 480.98784 38.5 493.96875 L 38.5 18.03125 z "
       style="opacity:0.05000000000000000;fill:url(#linearGradient3153);fill-opacity:1;stroke:none" />
    <path
       id="path3147"
       d="M 473.46875 18.03125 L 473.46875 493.96875 C 493.09542 480.98993 506 458.73461 506 433.34375 L 506 78.65625 C 506 53.265388 493.09542 31.010071 473.46875 18.03125 z "
       style="opacity:0.05000000000000000;fill:url(#linearGradient3149);fill-opacity:1;stroke:none" />
  </g>
</svg>
