<svg xmlns="http://www.w3.org/2000/svg" xmlns:xlink="http://www.w3.org/1999/xlink" viewBox="0 0 512 512"><defs><filter id="7"><feGaussianBlur stdDeviation="3.7725"/></filter><linearGradient id="8" y1="19.564" x2="0" y2="504.02" gradientUnits="userSpaceOnUse"><stop stop-color="#f3f3f3"/><stop offset=".5" stop-color="#eee"/><stop offset="1" stop-color="#ebebeb"/></linearGradient><linearGradient xlink:href="#0" id="5" gradientUnits="userSpaceOnUse" gradientTransform="matrix(1.02835 0 0 1.46193 209.19-118.25)" x1="257" x2="362"/><linearGradient xlink:href="#0" id="6" gradientUnits="userSpaceOnUse" gradientTransform="matrix(1.0381 0 0 1.46193-337.29-118.25)" x1="257" x2="362"/><linearGradient xlink:href="#0" id="4" gradientUnits="userSpaceOnUse" gradientTransform="matrix(1.02835 0 0 1.46193 101.22-118.25)" x1="257" x2="362"/><linearGradient xlink:href="#0" id="3" gradientUnits="userSpaceOnUse" gradientTransform="matrix(1.0381 0 0 1.46193-10.289-118.25)" x1="257" x2="362"/><linearGradient id="0"><stop/><stop offset="1" stop-color="#fff"/></linearGradient><linearGradient xlink:href="#0" id="2" gradientUnits="userSpaceOnUse" gradientTransform="matrix(1.0381 0 0 1.46193-119.29-118.25)" x1="257" x2="362"/><linearGradient xlink:href="#0" id="1" gradientUnits="userSpaceOnUse" gradientTransform="matrix(1.0381 0 0 1.46193-228.29-118.25)" x1="257" x2="362"/></defs><path d="m78.66 6c-.929 0-1.861.028-2.781.063-.073.003-.146-.003-.219 0-.668.027-1.337.08-2 .125-.376.025-.751.063-1.125.094-.645.053-1.297.086-1.938.156-.965.106-1.922.232-2.875.375-.052.008-.104.023-.156.031-1.082.165-2.154.351-3.219.563-.459.091-.919.182-1.375.281-.39.085-.769.19-1.156.281-.647.152-1.297.299-1.938.469-.898.238-1.804.479-2.688.75-.211.065-.414.152-.625.219-.991.314-1.966.645-2.938 1-.817.298-1.635.611-2.438.938-.29.118-.587.222-.875.344-.136.057-.27.129-.406.188-.082.035-.169.058-.25.094-.717.311-1.42.636-2.125.969-.147.069-.291.148-.438.219-.947.455-1.889.943-2.813 1.438-.271.145-.544.289-.813.438-.414.228-.81.483-1.219.719-.52.3-1.051.594-1.563.906-.738.452-1.467.898-2.188 1.375-.031.021-.062.042-.094.063-.456.303-.895.625-1.344.938-.123.086-.252.163-.375.25-.524.37-1.049.742-1.563 1.125-1.835 1.371-3.618 2.84-5.313 4.375-.017.015-.046.016-.063.031-.526.477-1.02.977-1.531 1.469-.524.505-1.054 1.011-1.563 1.531-.512.523-1 1.055-1.5 1.594-.941 1.022-1.837 2.05-2.719 3.125-.631.769-1.244 1.58-1.844 2.375-.111.148-.233.289-.344.438-.526.71-1.031 1.427-1.531 2.156-.11.16-.235.308-.344.469-.013.019-.018.043-.031.063-.084.125-.167.249-.25.375-.47.708-.929 1.431-1.375 2.156-.071.116-.148.227-.219.344-.575.948-1.124 1.899-1.656 2.875-.152.278-.289.564-.438.844-.18.341-.356.687-.531 1.031-.243.479-.486.952-.719 1.438-.426.885-.828 1.783-1.219 2.688-.24.556-.461 1.124-.688 1.688-.038.095-.087.186-.125.281-.246.621-.489 1.245-.719 1.875-.332.909-.641 1.825-.938 2.75-.11.345-.238.684-.344 1.031-.301.99-.585 1.992-.844 3-.008.032-.023.062-.031.094-.267 1.046-.497 2.092-.719 3.156-.034.166-.06.334-.094.5-.426 2.117-.762 4.257-1 6.438-.035.323-.063.645-.094.969-.09.938-.165 1.895-.219 2.844-.017.29-.018.584-.031.875-.051 1.119-.094 2.243-.094 3.375v354.69 6c0 40.24 32.411 72.66 72.66 72.66h354.69c40.24 0 72.66-32.411 72.66-72.66v-354.69-6c0-1.259-.031-2.507-.094-3.75-.016-.323-.042-.647-.063-.969-.058-.917-.127-1.843-.219-2.75-.02-.2-.041-.394-.063-.594-.246-2.245-.587-4.447-1.031-6.625-.021-.104-.041-.209-.063-.313-.227-1.087-.476-2.15-.75-3.219-.011-.042-.02-.083-.031-.125-.19-.732-.413-1.464-.625-2.188-.212-.724-.423-1.442-.656-2.156-.258-.789-.529-1.567-.813-2.344-.23-.63-.472-1.254-.719-1.875-.038-.096-.087-.186-.125-.281-.239-.594-.465-1.195-.719-1.781-.378-.871-.777-1.741-1.188-2.594-.233-.485-.475-.958-.719-1.438-.287-.564-.574-1.132-.875-1.688-.051-.094-.105-.188-.156-.281-.513-.936-1.041-1.871-1.594-2.781-.212-.35-.438-.685-.656-1.031-.405-.642-.795-1.278-1.219-1.906-.809-1.199-1.685-2.354-2.563-3.5-.262-.341-.514-.695-.781-1.031-.189-.238-.371-.483-.563-.719-.093-.114-.188-.231-.281-.344-2.71-3.286-5.696-6.301-8.938-9.06-.293-.249-.578-.505-.875-.75-.268-.221-.541-.439-.813-.656-.636-.509-1.284-1.012-1.938-1.5-3.17-2.368-6.55-4.481-10.09-6.313-.617-.319-1.248-.636-1.875-.938-.155-.074-.313-.145-.469-.219-.785-.371-1.575-.719-2.375-1.063-.488-.209-.975-.426-1.469-.625-.735-.296-1.472-.571-2.219-.844-.392-.143-.793-.27-1.188-.406-.718-.248-1.459-.524-2.188-.75-.114-.035-.23-.059-.344-.094-.488-.149-.977-.267-1.469-.406-.357-.1-.703-.217-1.063-.313-.019-.005-.043.005-.063 0-.837-.221-1.683-.433-2.531-.625-.032-.007-.062-.024-.094-.031-.651-.146-1.311-.278-1.969-.406-1-.197-2.01-.376-3.03-.531-.063-.01-.125-.022-.188-.031-.952-.143-1.88-.269-2.844-.375-.836-.091-1.687-.156-2.531-.219-.176-.013-.355-.019-.531-.031-.735-.049-1.478-.097-2.219-.125-.92-.034-1.853-.063-2.781-.063h-285.84-68.844" filter="url(#7)" fill-opacity=".176"/><rect width="500" height="500" x="6" y="12" rx="72.64" opacity=".15"/><rect rx="72.64" y="6" x="6" height="500" width="500" fill="url(#8)"/><rect width="435" height="435" x="38.5" y="38.5" rx="63.2" fill="#3392bb"/><path d="m101.69 38.5c-35.01 0-63.19 28.17-63.19 63.19v15c0-35.01 28.17-63.19 63.19-63.19h308.63c35.01 0 63.19 28.17 63.19 63.19v-15c0-35.01-28.17-63.19-63.19-63.19h-308.62" opacity=".2"/><path d="m78.66 6c-40.24 0-72.66 32.411-72.66 72.66v7c0-40.24 32.411-72.66 72.66-72.66h354.69c40.24 0 72.66 32.411 72.66 72.66v-7c0-40.24-32.411-72.66-72.66-72.66h-354.69" fill="#fff"/><g transform="translate(-7.5-7.5)"><g transform="matrix(1.75447 0 0 1.75447-178.14-266.17)" opacity=".2"><g transform="translate(-73.98 100.36)"><path d="m298.1 215.31c0-.732-.58-1.323-1.307-1.323h-15.851c-.724 0-1.313.591-1.313 1.323 0 .003.004 30.632.004 30.632h-24.707v-30.632c0-.732-.583-1.323-1.308-1.323h-15.85c-.721 0-1.309.591-1.309 1.323v82.942c0 .732.588 1.327 1.309 1.327h15.85c.725 0 1.308-.596 1.308-1.327v-35.477h24.707c0 0-.043 35.475-.043 35.477 0 .732.588 1.327 1.313 1.327h15.888c.726 0 1.307-.596 1.308-1.327v-82.942"/><path d="m358.34 241.27h-15.729c-.721 0-1.309.595-1.309 1.326v40.669c0 0-3.996 2.923-9.668 2.923-5.671 0-7.177-2.573-7.177-8.127 0-5.56 0-35.466 0-35.466 0-.732-.586-1.326-1.308-1.326h-15.964c-.721 0-1.311.595-1.311 1.326 0 0 0 21.658 0 38.15 0 16.495 9.193 20.53 21.84 20.53 10.375 0 18.74-5.732 18.74-5.732 0 0 .398 3.02.578 3.379.181.357.65.718 1.157.718l10.156-.045c.721 0 1.311-.596 1.311-1.324l-.005-55.678c0-.732-.588-1.326-1.313-1.326"/><path d="m395.13 286.14c-5.456-.166-9.156-2.642-9.156-2.642v-26.27c0 0 3.651-2.238 8.13-2.638 5.664-.507 11.122 1.204 11.122 14.716 0 14.248-2.463 17.06-10.1 16.83m6.204-46.732c-8.934 0-15.01 3.986-15.01 3.986v-28.09c0-.732-.585-1.323-1.308-1.323h-15.895c-.723 0-1.31.591-1.31 1.323v82.942c0 .732.587 1.327 1.312 1.327.001 0 11.02 0 11.03 0 .497 0 .873-.256 1.15-.704.274-.446.67-3.824.67-3.824 0 0 6.5 6.16 18.804 6.16 14.445 0 22.729-7.327 22.729-32.893 0-25.566-13.231-28.907-22.17-28.907"/></g><g transform="translate(97.31)"><path d="m153.02 249.48h-28.15c-.726 0-1.315.589-1.315 1.316v13.763c0 .726.589 1.317 1.315 1.317h10.982v17.1c0 0-2.466.841-9.283.841-8.04 0-19.278-2.939-19.278-27.645 0-24.712 11.699-27.963 22.683-27.963 9.508 0 13.604 1.674 16.21 2.481.819.251 1.576-.564 1.576-1.291l3.14-13.298c0-.34-.115-.749-.503-1.028-1.059-.755-7.516-4.368-23.829-4.368-18.793 0-38.07 7.995-38.07 46.43 0 38.437 22.07 44.16 40.669 44.16 15.399 0 24.741-6.581 24.741-6.581.385-.213.426-.751.426-.998v-42.926c0-.727-.588-1.316-1.314-1.316"/><path d="m182.93 226.19c0-5.707-4.576-10.32-10.221-10.32-5.64 0-10.219 4.612-10.219 10.32 0 5.702 4.579 10.326 10.219 10.326 5.645 0 10.221-4.625 10.221-10.326"/><path d="m181.8 280.75c0-2.125 0-38.29 0-38.29 0-.727-.587-1.321-1.311-1.321h-15.8c-.725 0-1.374.748-1.374 1.474 0 0 0 46.07 0 54.853 0 1.612 1 2.091 2.305 2.091 0 0 6.744 0 14.236 0 1.562 0 1.945-.767 1.945-2.117 0-2.94 0-14.458 0-16.694"/><path d="m227.36 241.14h-11.89c0 0-.018-15.704-.018-15.708 0-.594-.306-.891-.993-.891h-16.203c-.63 0-.968.277-.968.882v16.232c0 0-8.12 1.96-8.669 2.119-.547.159-.949.663-.949 1.264v10.2c0 .733.586 1.325 1.311 1.325h8.307c0 0 0 10.669 0 24.539 0 18.227 12.785 20.02 21.412 20.02 3.942 0 8.657-1.266 9.436-1.554.471-.173.744-.661.744-1.189l.013-11.221c0-.732-.618-1.324-1.314-1.324-.693 0-2.465.282-4.29.282-5.84 0-7.819-2.716-7.819-6.23 0-3.512-.001-23.32-.001-23.32h11.891c.725 0 1.311-.592 1.311-1.325v-12.777c0-.732-.587-1.322-1.311-1.322"/></g></g><g transform="matrix(1.75447 0 0 1.75447-193.14-281.17)" fill="#dcdbdb"><g transform="translate(-73.98 100.36)"><path d="m298.1 215.31c0-.732-.58-1.323-1.307-1.323h-15.851c-.724 0-1.313.591-1.313 1.323 0 .003.004 30.632.004 30.632h-24.707v-30.632c0-.732-.583-1.323-1.308-1.323h-15.85c-.721 0-1.309.591-1.309 1.323v82.942c0 .732.588 1.327 1.309 1.327h15.85c.725 0 1.308-.596 1.308-1.327v-35.477h24.707c0 0-.043 35.475-.043 35.477 0 .732.588 1.327 1.313 1.327h15.888c.726 0 1.307-.596 1.308-1.327v-82.942"/><path d="m358.34 241.27h-15.729c-.721 0-1.309.595-1.309 1.326v40.669c0 0-3.996 2.923-9.668 2.923-5.671 0-7.177-2.573-7.177-8.127 0-5.56 0-35.466 0-35.466 0-.732-.586-1.326-1.308-1.326h-15.964c-.721 0-1.311.595-1.311 1.326 0 0 0 21.658 0 38.15 0 16.495 9.193 20.53 21.84 20.53 10.375 0 18.74-5.732 18.74-5.732 0 0 .398 3.02.578 3.379.181.357.65.718 1.157.718l10.156-.045c.721 0 1.311-.596 1.311-1.324l-.005-55.678c0-.732-.588-1.326-1.313-1.326"/><path d="m395.13 286.14c-5.456-.166-9.156-2.642-9.156-2.642v-26.27c0 0 3.651-2.238 8.13-2.638 5.664-.507 11.122 1.204 11.122 14.716 0 14.248-2.463 17.06-10.1 16.83m6.204-46.732c-8.934 0-15.01 3.986-15.01 3.986v-28.09c0-.732-.585-1.323-1.308-1.323h-15.895c-.723 0-1.31.591-1.31 1.323v82.942c0 .732.587 1.327 1.312 1.327.001 0 11.02 0 11.03 0 .497 0 .873-.256 1.15-.704.274-.446.67-3.824.67-3.824 0 0 6.5 6.16 18.804 6.16 14.445 0 22.729-7.327 22.729-32.893 0-25.566-13.231-28.907-22.17-28.907"/></g><g transform="translate(97.31)"><path d="m153.02 249.48h-28.15c-.726 0-1.315.589-1.315 1.316v13.763c0 .726.589 1.317 1.315 1.317h10.982v17.1c0 0-2.466.841-9.283.841-8.04 0-19.278-2.939-19.278-27.645 0-24.712 11.699-27.963 22.683-27.963 9.508 0 13.604 1.674 16.21 2.481.819.251 1.576-.564 1.576-1.291l3.14-13.298c0-.34-.115-.749-.503-1.028-1.059-.755-7.516-4.368-23.829-4.368-18.793 0-38.07 7.995-38.07 46.43 0 38.437 22.07 44.16 40.669 44.16 15.399 0 24.741-6.581 24.741-6.581.385-.213.426-.751.426-.998v-42.926c0-.727-.588-1.316-1.314-1.316"/><path d="m182.93 226.19c0-5.707-4.576-10.32-10.221-10.32-5.64 0-10.219 4.612-10.219 10.32 0 5.702 4.579 10.326 10.219 10.326 5.645 0 10.221-4.625 10.221-10.326"/><path d="m181.8 280.75c0-2.125 0-38.29 0-38.29 0-.727-.587-1.321-1.311-1.321h-15.8c-.725 0-1.374.748-1.374 1.474 0 0 0 46.07 0 54.853 0 1.612 1 2.091 2.305 2.091 0 0 6.744 0 14.236 0 1.562 0 1.945-.767 1.945-2.117 0-2.94 0-14.458 0-16.694"/><path d="m227.36 241.14h-11.89c0 0-.018-15.704-.018-15.708 0-.594-.306-.891-.993-.891h-16.203c-.63 0-.968.277-.968.882v16.232c0 0-8.12 1.96-8.669 2.119-.547.159-.949.663-.949 1.264v10.2c0 .733.586 1.325 1.311 1.325h8.307c0 0 0 10.669 0 24.539 0 18.227 12.785 20.02 21.412 20.02 3.942 0 8.657-1.266 9.436-1.554.471-.173.744-.661.744-1.189l.013-11.221c0-.732-.618-1.324-1.314-1.324-.693 0-2.465.282-4.29.282-5.84 0-7.819-2.716-7.819-6.23 0-3.512-.001-23.32-.001-23.32h11.891c.725 0 1.311-.592 1.311-1.325v-12.777c0-.732-.587-1.322-1.311-1.322"/></g></g></g><path d="m78.66 6c-14.863 0-28.67 4.43-40.16 12.03v475.94c11.486 7.602 25.293 12.03 40.16 12.03h68.844v-500h-68.844" opacity=".05" fill="url(#1)"/><path d="m147.5 6v500h109v-500h-109" opacity=".05" fill="url(#2)"/><path d="m256.5 6v500h109v-500h-109" opacity=".05" fill="url(#3)"/><path d="m365.5 6v500h67.844c14.854 0 28.643-4.438 40.13-12.03v-475.94c-11.482-7.593-25.27-12.03-40.12-12.03h-67.844" opacity=".05" fill="url(#4)"/><path d="m38.5 18.03c-19.614 12.981-32.5 35.24-32.5 60.63v354.69c0 25.381 12.886 47.644 32.5 60.63v-475.94" opacity=".05" fill="url(#6)"/><path d="m473.47 18.03v475.94c19.627-12.979 32.531-35.23 32.531-60.62v-354.69c0-25.391-12.905-47.646-32.531-60.62" opacity=".05" fill="url(#5)"/></svg>