<?xml version="1.0" encoding="UTF-8" standalone="no"?>
<svg
   xmlns:dc="http://purl.org/dc/elements/1.1/"
   xmlns:cc="http://creativecommons.org/ns#"
   xmlns:rdf="http://www.w3.org/1999/02/22-rdf-syntax-ns#"
   xmlns:svg="http://www.w3.org/2000/svg"
   xmlns="http://www.w3.org/2000/svg"
   xmlns:xlink="http://www.w3.org/1999/xlink"
   xmlns:sodipodi="http://sodipodi.sourceforge.net/DTD/sodipodi-0.dtd"
   xmlns:inkscape="http://www.inkscape.org/namespaces/inkscape"
   viewBox="0 0 512 512"
   id="svg2"
   version="1.1"
   inkscape:version="0.48.4 r9939"
   width="100%"
   height="100%"
   sodipodi:docname="google-plus.svg">
  <sodipodi:namedview
     pagecolor="#444444"
     bordercolor="#666666"
     borderopacity="1"
     objecttolerance="10"
     gridtolerance="10"
     guidetolerance="10"
     inkscape:pageopacity="0"
     inkscape:pageshadow="2"
     inkscape:window-width="1310"
     inkscape:window-height="718"
     id="namedview6"
     showgrid="false"
     showguides="true"
     inkscape:guide-bbox="true"
     inkscape:zoom="0.5181105"
     inkscape:cx="441.05297"
     inkscape:cy="170.00329"
     inkscape:window-x="54"
     inkscape:window-y="27"
     inkscape:window-maximized="1"
     inkscape:current-layer="svg2"
     inkscape:snap-midpoints="true"
     inkscape:snap-global="false">
    <sodipodi:guide
       id="guide2989"
       position="522.57628,433.35594"
       orientation="0,1" />
    <sodipodi:guide
       id="guide2995"
       position="473.05444,254.912"
       orientation="1,0" />
  </sodipodi:namedview>
  <metadata
     id="metadata10">
    <rdf:RDF>
      <cc:Work
         rdf:about="">
        <dc:format>image/svg+xml</dc:format>
        <dc:type
           rdf:resource="http://purl.org/dc/dcmitype/StillImage" />
        <dc:title></dc:title>
      </cc:Work>
    </rdf:RDF>
  </metadata>
  <defs
     id="defs8">
    <linearGradient
       id="linearGradient4996">
      <stop
         style="stop-color:#000000;stop-opacity:1;"
         offset="0"
         id="stop4998" />
      <stop
         style="stop-color:#ffffff;stop-opacity:1;"
         offset="1"
         id="stop5000" />
    </linearGradient>
    <linearGradient
       inkscape:collect="always"
       xlink:href="#linearGradient4996"
       id="linearGradient3108"
       gradientUnits="userSpaceOnUse"
       gradientTransform="matrix(1.0380952,0,0,1.4619252,-228.28943,-118.25286)"
       x1="257"
       y1="256"
       x2="362"
       y2="256" />
    <linearGradient
       inkscape:collect="always"
       xlink:href="#linearGradient4996"
       id="linearGradient3137"
       gradientUnits="userSpaceOnUse"
       gradientTransform="matrix(1.0380952,0,0,1.4619252,-119.28943,-118.25286)"
       x1="257"
       y1="256"
       x2="362"
       y2="256" />
    <linearGradient
       inkscape:collect="always"
       xlink:href="#linearGradient4996"
       id="linearGradient3141"
       gradientUnits="userSpaceOnUse"
       gradientTransform="matrix(1.0380952,0,0,1.4619252,-10.28943,-118.25286)"
       x1="257"
       y1="256"
       x2="362"
       y2="256" />
    <linearGradient
       inkscape:collect="always"
       xlink:href="#linearGradient4996"
       id="linearGradient3145"
       gradientUnits="userSpaceOnUse"
       gradientTransform="matrix(1.0283468,0,0,1.4619252,101.21591,-118.25286)"
       x1="257"
       y1="256"
       x2="362"
       y2="256" />
    <linearGradient
       inkscape:collect="always"
       xlink:href="#linearGradient4996"
       id="linearGradient3149"
       gradientUnits="userSpaceOnUse"
       gradientTransform="matrix(1.0283468,0,0,1.4619252,209.19233,-118.25286)"
       x1="257"
       y1="256"
       x2="362"
       y2="256" />
    <linearGradient
       inkscape:collect="always"
       xlink:href="#linearGradient4996"
       id="linearGradient3153"
       gradientUnits="userSpaceOnUse"
       gradientTransform="matrix(1.0380952,0,0,1.4619252,-337.28943,-118.25286)"
       x1="257"
       y1="256"
       x2="362"
       y2="256" />
  </defs>
  <rect
     style="opacity:0.2;fill:#000000;fill-opacity:1;stroke:none"
     id="rect5028"
     width="500"
     height="500"
     x="6"
     y="12"
     rx="72.644058"
     ry="72.644058" />
  <rect
     ry="72.644058"
     rx="72.644058"
     y="6"
     x="6"
     height="500"
     width="500"
     id="rect4979"
     style="fill:#f3f3f3;fill-opacity:1;stroke:none" />
  <rect
     style="fill:#ec704c;fill-opacity:1;stroke:none"
     id="rect4981"
     width="434.99997"
     height="434.99997"
     x="38.500011"
     y="38.500011"
     rx="63.200329"
     ry="63.200329" />
  <path
     style="fill:#000000;fill-opacity:1;stroke:none;opacity:0.2"
     d="M 101.6875 38.5 C 66.674518 38.5 38.5 66.674518 38.5 101.6875 L 38.5 116.6875 C 38.5 81.674518 66.674518 53.5 101.6875 53.5 L 410.3125 53.5 C 445.32548 53.5 473.5 81.674518 473.5 116.6875 L 473.5 101.6875 C 473.5 66.674518 445.32548 38.5 410.3125 38.5 L 101.6875 38.5 z "
     id="rect3187" />
  <text
     style="font-size:129.22999573px;line-height:125%;letter-spacing:0;word-spacing:0;font-family:Gentium Book Basic"
     sodipodi:linespacing="125%"
     font-size="129.23"
     letter-spacing="0"
     line-height="125%"
     word-spacing="0"
     x="255.27524"
     y="86.114708"
     id="text3051">
    <tspan
       x="255.27524"
       y="86.114708"
       id="tspan3053" />
  </text>
  <text
     style="font-size:46.95375824px;text-anchor:middle;font-family:Arial"
     x="260.69577"
     y="-3.5962496"
     font-size="46.954"
     transform="scale(4.0128205,0.24920128)"
     id="text3055" />
  <text
     style="font-size:129.22999573px;line-height:125%;letter-spacing:0;word-spacing:0;font-family:Gentium Book Basic"
     sodipodi:linespacing="125%"
     font-size="129.23"
     letter-spacing="0"
     line-height="125%"
     word-spacing="0"
     x="836.54523"
     y="6.1147108"
     id="text3057">
    <tspan
       x="836.54523"
       y="6.1147108"
       id="tspan3059" />
  </text>
  <text
     style="font-size:46.95375824px;text-anchor:middle;font-family:Arial"
     x="405.54501"
     y="-324.6246"
     font-size="46.954"
     transform="scale(4.0128205,0.24920128)"
     id="text3061" />
  <text
     style="font-size:129.22999573px;line-height:125%;letter-spacing:0;word-spacing:0;font-family:Gentium Book Basic"
     sodipodi:linespacing="125%"
     font-size="129.23"
     letter-spacing="0"
     line-height="125%"
     word-spacing="0"
     x="-235.03477"
     y="-175.14629"
     id="text3063">
    <tspan
       x="-235.03477"
       y="-175.14629"
       id="tspan3065" />
  </text>
  <text
     style="font-size:46.95375824px;text-anchor:middle;font-family:Arial"
     x="138.50638"
     y="-1051.981"
     font-size="46.954"
     transform="scale(4.0128205,0.24920128)"
     id="text3067" />
  <text
     style="font-size:129.22999573px;line-height:125%;letter-spacing:0;word-spacing:0;font-family:Gentium Book Basic"
     sodipodi:linespacing="125%"
     font-size="129.23"
     letter-spacing="0"
     line-height="125%"
     word-spacing="0"
     x="863.0152"
     y="-391.6153"
     id="text3069">
    <tspan
       x="863.0152"
       y="-391.6153"
       id="tspan3071" />
  </text>
  <text
     style="font-size:46.95375824px;text-anchor:middle;font-family:Arial"
     x="412.14496"
     y="-1920.6465"
     font-size="46.954"
     transform="scale(4.0128205,0.24920128)"
     id="text3073" />
  <text
     style="font-size:129.22999573px;line-height:125%;letter-spacing:0;word-spacing:0;font-family:Gentium Book Basic"
     sodipodi:linespacing="125%"
     font-size="129.23"
     letter-spacing="0"
     line-height="125%"
     word-spacing="0"
     x="1444.2853"
     y="-471.62531"
     id="text3075">
    <tspan
       x="1444.2853"
       y="-471.62531"
       id="tspan3077" />
  </text>
  <text
     style="font-size:46.95375824px;text-anchor:middle;font-family:Arial"
     x="556.99426"
     y="-2241.6848"
     font-size="46.954"
     transform="scale(4.0128205,0.24920128)"
     id="text3079" />
  <text
     style="font-size:129.22999573px;line-height:125%;letter-spacing:0;word-spacing:0;font-family:Gentium Book Basic"
     sodipodi:linespacing="125%"
     font-size="129.23"
     letter-spacing="0"
     line-height="125%"
     word-spacing="0"
     x="1055.1653"
     y="-944.02533"
     id="text3081">
    <tspan
       x="1055.1653"
       y="-944.02533"
       id="tspan3083" />
  </text>
  <text
     style="font-size:46.95375824px;text-anchor:middle;font-family:Arial"
     x="460.02472"
     y="-4137.335"
     font-size="46.954"
     transform="scale(4.0128205,0.24920128)"
     id="text3085" />
  <text
     style="font-size:129.22999573px;line-height:125%;letter-spacing:0;word-spacing:0;font-family:Gentium Book Basic"
     sodipodi:linespacing="125%"
     font-size="129.23"
     letter-spacing="0"
     line-height="125%"
     word-spacing="0"
     x="1636.4253"
     y="-1024.0253"
     id="text3087">
    <tspan
       x="1636.4253"
       y="-1024.0253"
       id="tspan3089" />
  </text>
  <text
     style="font-size:46.95375824px;text-anchor:middle;font-family:Arial"
     x="604.87402"
     y="-4458.3633"
     font-size="46.954"
     transform="scale(4.0128205,0.24920128)"
     id="text3091" />
  <text
     style="font-size:208.33000183px;line-height:125%;letter-spacing:0;word-spacing:0;font-family:Gentium Book Basic"
     sodipodi:linespacing="125%"
     font-size="208.33"
     letter-spacing="0"
     line-height="125%"
     word-spacing="0"
     x="-196.37479"
     y="390.6947"
     id="text3093">
    <tspan
       x="-196.37479"
       y="390.6947"
       id="tspan3095" />
  </text>
  <g
     id="g3264"
     transform="translate(-7.5,-7.5)">
    <path
       style="opacity:0.2;fill:#000000;fill-opacity:1"
       inkscape:connector-curvature="0"
       d="m 209.07389,133.66034 c -9.84667,0 -20.5576,1.20862 -32.08641,3.61152 -11.28819,2.40289 -22.07196,7.81464 -32.39877,16.22532 -7.68551,6.72965 -13.48248,14.42619 -17.32468,23.08191 -3.8422,8.41178 -5.75723,16.81694 -5.75723,25.22872 0,6.96917 1.33555,13.91515 3.97796,20.88432 2.64131,6.72854 6.47137,12.77054 11.51557,18.05757 5.0431,5.28703 11.29261,9.61599 18.7386,12.98026 7.44488,3.12476 15.98801,4.65788 25.59628,4.65788 1.92165,0 3.83558,0 5.75723,0 1.92165,-0.24062 3.83558,-0.49227 5.75723,-0.73289 -0.96028,2.16337 -1.79141,4.32785 -2.51217,6.49013 -0.72075,1.92275 -1.09935,4.46582 -1.09935,7.58947 0,5.52986 1.0839,10.18222 3.24507,14.02773 2.40179,3.6049 4.94707,7.10383 7.58948,10.4681 -4.08282,0.24062 -8.91841,0.61811 -14.44827,1.09935 -5.51882,0.48013 -11.39415,1.31127 -17.63925,2.51216 -6.24399,1.202 -12.62043,2.78811 -19.10504,4.71087 -6.24399,2.16337 -12.11491,4.90512 -17.63925,8.26939 -10.56743,6.24841 -17.77059,13.44605 -21.61721,21.61722 -4.08282,8.41068 -6.12368,15.86108 -6.12368,22.35011 0,6.72854 1.58832,13.09615 4.71086,19.10504 3.12255,6.24841 7.90957,11.78599 14.39308,16.58957 6.48461,4.80689 14.52222,8.63143 24.12938,11.51557 9.84667,2.88413 21.2618,4.34441 34.22771,4.34441 15.37101,0 28.95172,-2.03865 40.72115,-6.12368 12.00785,-3.84551 21.96159,-9.0045 29.88992,-15.49684 7.92503,-6.24841 13.92288,-13.44605 18.0057,-21.61721 4.08282,-8.17117 6.12368,-16.50348 6.12368,-24.91416 0,-6.2484 -0.83113,-11.73301 -2.51216,-16.5399 -1.68104,-4.80689 -3.97466,-9.13585 -6.85658,-12.98026 -2.64241,-3.84551 -5.893,-7.47027 -9.7352,-10.83454 -3.60268,-3.36427 -7.30581,-6.73737 -11.14801,-10.10165 l -12.98026,-10.10164 c -1.92166,-1.68214 -3.96252,-3.59496 -6.12368,-5.75723 -2.16117,-2.40289 -3.24507,-5.65017 -3.24507,-9.7352 0,-4.08503 1.0839,-7.45813 3.24507,-10.10164 2.16116,-2.64351 4.4592,-5.13361 6.85658,-7.5376 3.8422,-2.88414 7.54643,-5.87865 11.14801,-9.0023 3.60268,-3.36427 6.85327,-6.98903 9.73519,-10.83454 2.88193,-4.08503 5.17555,-8.66676 6.85658,-13.71316 1.68104,-5.04641 2.51217,-10.9096 2.51217,-17.63925 0,-6.72854 -0.95807,-12.77055 -2.87862,-18.05757 -1.92165,-5.28703 -4.21527,-9.81577 -6.85658,-13.66129 -2.64241,-4.08503 -5.38857,-7.45813 -8.26939,-10.10164 -2.88193,-2.88414 -5.42831,-5.17445 -7.58948,-6.85658 h 22.35011 l 23.08301,-12.98026 H 209.0761 m -22.71656,11.88091 c 7.44488,0 13.94716,2.29031 19.47039,6.85658 5.76385,4.32565 10.55088,9.86323 14.39308,16.58957 3.8422,6.72854 6.7153,13.92729 8.63584,21.61721 1.92166,7.68992 2.87862,14.81471 2.87862,21.30264 0,3.36427 -0.45254,7.5674 -1.41282,12.61381 -0.96027,5.04641 -3.50665,9.57515 -7.58948,13.66128 -2.88192,2.88414 -6.58505,5.30027 -11.14801,7.22303 -4.32344,1.92276 -8.78375,2.87862 -13.3445,2.87862 -7.68551,0 -14.38204,-2.16448 -20.15141,-6.49013 -5.51882,-4.56627 -10.23741,-10.10386 -14.07961,-16.58957 -3.60269,-6.48903 -6.34885,-13.43391 -8.2694,-20.88431 -1.68103,-7.44931 -2.51217,-14.19551 -2.51217,-20.20329 0,-4.80579 0.50442,-9.46147 1.4658,-14.02774 1.2009,-4.56627 3.31129,-8.7694 6.43825,-12.61381 2.88193,-3.60489 6.63362,-6.52545 11.201,-8.68883 4.56296,-2.16227 9.22415,-3.24506 14.02773,-3.24506 m 172.15402,42.18585 v 55.01047 h -54.85374 v 25.70004 h 54.85374 v 54.53696 H 384.2169 V 268.4332 H 438.5 v -25.70003 h -54.2831 v -55.01048 h -25.70003 m -159.538,118.61044 h 5.02433 4.34441 c 1.2009,0 2.53645,0.12583 3.97797,0.36645 6.72413,4.80689 12.59505,9.13585 17.63925,12.98026 5.04309,3.84551 9.12591,7.54422 12.25177,11.14801 3.12255,3.60489 5.41507,7.22965 6.85658,10.83455 1.68103,3.84551 2.51217,8.04864 2.51217,12.61381 0,11.29481 -4.58724,20.5311 -13.71316,27.73758 -8.8853,7.4504 -21.96379,11.20099 -39.25536,11.20099 -19.45383,0 -34.95067,-4.0773 -46.47948,-12.25178 -11.28819,-8.17116 -16.90635,-18.7419 -16.90635,-31.71885 0,-6.48903 1.20972,-11.89968 3.61151,-16.22533 2.64131,-4.32565 5.64024,-7.95041 9.0023,-10.83454 3.36206,-2.88414 6.68881,-5.17445 10.04977,-6.85658 3.60268,-1.44152 6.40072,-2.52431 8.32238,-3.24507 3.8422,-1.202 7.8036,-2.28368 11.88091,-3.24506 4.08282,-0.72076 7.91288,-1.29913 11.51556,-1.77927 3.60269,-0.24062 6.72744,-0.49228 9.36875,-0.7329"
       id="path3262" />
    <path
       id="path3097"
       d="m 194.07389,118.66034 c -9.84667,0 -20.5576,1.20862 -32.08641,3.61152 -11.28819,2.40289 -22.07196,7.81464 -32.39877,16.22532 -7.68551,6.72965 -13.48248,14.42619 -17.32468,23.08191 -3.8422,8.41178 -5.75723,16.81694 -5.75723,25.22872 0,6.96917 1.33555,13.91515 3.97796,20.88432 2.64131,6.72854 6.47137,12.77054 11.51557,18.05757 5.0431,5.28703 11.29261,9.61599 18.7386,12.98026 7.44488,3.12476 15.98801,4.65788 25.59628,4.65788 1.92165,0 3.83558,0 5.75723,0 1.92165,-0.24062 3.83558,-0.49227 5.75723,-0.73289 -0.96028,2.16337 -1.79141,4.32785 -2.51217,6.49013 -0.72075,1.92275 -1.09935,4.46582 -1.09935,7.58947 0,5.52986 1.0839,10.18222 3.24507,14.02773 2.40179,3.6049 4.94707,7.10383 7.58948,10.4681 -4.08282,0.24062 -8.91841,0.61811 -14.44827,1.09935 -5.51882,0.48013 -11.39415,1.31127 -17.63925,2.51216 -6.24399,1.202 -12.62043,2.78811 -19.10504,4.71087 -6.24399,2.16337 -12.11491,4.90512 -17.63925,8.26939 -10.56743,6.24841 -17.77059,13.44605 -21.61721,21.61722 -4.08282,8.41068 -6.12368,15.86108 -6.12368,22.35011 0,6.72854 1.58832,13.09615 4.71086,19.10504 3.12255,6.24841 7.90957,11.78599 14.39308,16.58957 6.48461,4.80689 14.52222,8.63143 24.12938,11.51557 9.84667,2.88413 21.2618,4.34441 34.22771,4.34441 15.37101,0 28.95172,-2.03865 40.72115,-6.12368 12.00785,-3.84551 21.96159,-9.0045 29.88992,-15.49684 7.92503,-6.24841 13.92288,-13.44605 18.0057,-21.61721 4.08282,-8.17117 6.12368,-16.50348 6.12368,-24.91416 0,-6.2484 -0.83113,-11.73301 -2.51216,-16.5399 -1.68104,-4.80689 -3.97466,-9.13585 -6.85658,-12.98026 -2.64241,-3.84551 -5.893,-7.47027 -9.7352,-10.83454 -3.60268,-3.36427 -7.30581,-6.73737 -11.14801,-10.10165 l -12.98026,-10.10164 c -1.92166,-1.68214 -3.96252,-3.59496 -6.12368,-5.75723 -2.16117,-2.40289 -3.24507,-5.65017 -3.24507,-9.7352 0,-4.08503 1.0839,-7.45813 3.24507,-10.10164 2.16116,-2.64351 4.4592,-5.13361 6.85658,-7.5376 3.8422,-2.88414 7.54643,-5.87865 11.14801,-9.0023 3.60268,-3.36427 6.85327,-6.98903 9.73519,-10.83454 2.88193,-4.08503 5.17555,-8.66676 6.85658,-13.71316 1.68104,-5.04641 2.51217,-10.9096 2.51217,-17.63925 0,-6.72854 -0.95807,-12.77055 -2.87862,-18.05757 -1.92165,-5.28703 -4.21527,-9.81577 -6.85658,-13.66129 -2.64241,-4.08503 -5.38857,-7.45813 -8.26939,-10.10164 -2.88193,-2.88414 -5.42831,-5.17445 -7.58948,-6.85658 h 22.35011 l 23.08301,-12.98026 H 194.0761 m -22.71656,11.88091 c 7.44488,0 13.94716,2.29031 19.47039,6.85658 5.76385,4.32565 10.55088,9.86323 14.39308,16.58957 3.8422,6.72854 6.7153,13.92729 8.63584,21.61721 1.92166,7.68992 2.87862,14.81471 2.87862,21.30264 0,3.36427 -0.45254,7.5674 -1.41282,12.61381 -0.96027,5.04641 -3.50665,9.57515 -7.58948,13.66128 -2.88192,2.88414 -6.58505,5.30027 -11.14801,7.22303 -4.32344,1.92276 -8.78375,2.87862 -13.3445,2.87862 -7.68551,0 -14.38204,-2.16448 -20.15141,-6.49013 -5.51882,-4.56627 -10.23741,-10.10386 -14.07961,-16.58957 -3.60269,-6.48903 -6.34885,-13.43391 -8.2694,-20.88431 -1.68103,-7.44931 -2.51217,-14.19551 -2.51217,-20.20329 0,-4.80579 0.50442,-9.46147 1.4658,-14.02774 1.2009,-4.56627 3.31129,-8.7694 6.43825,-12.61381 2.88193,-3.60489 6.63362,-6.52545 11.201,-8.68883 4.56296,-2.16227 9.22415,-3.24506 14.02773,-3.24506 m 172.15402,42.18585 v 55.01047 h -54.85374 v 25.70004 h 54.85374 v 54.53696 H 369.2169 V 253.4332 H 423.5 v -25.70003 h -54.2831 v -55.01048 h -25.70003 m -159.538,118.61044 h 5.02433 4.34441 c 1.2009,0 2.53645,0.12583 3.97797,0.36645 6.72413,4.80689 12.59505,9.13585 17.63925,12.98026 5.04309,3.84551 9.12591,7.54422 12.25177,11.14801 3.12255,3.60489 5.41507,7.22965 6.85658,10.83455 1.68103,3.84551 2.51217,8.04864 2.51217,12.61381 0,11.29481 -4.58724,20.5311 -13.71316,27.73758 -8.8853,7.4504 -21.96379,11.20099 -39.25536,11.20099 -19.45383,0 -34.95067,-4.0773 -46.47948,-12.25178 -11.28819,-8.17116 -16.90635,-18.7419 -16.90635,-31.71885 0,-6.48903 1.20972,-11.89968 3.61151,-16.22533 2.64131,-4.32565 5.64024,-7.95041 9.0023,-10.83454 3.36206,-2.88414 6.68881,-5.17445 10.04977,-6.85658 3.60268,-1.44152 6.40072,-2.52431 8.32238,-3.24507 3.8422,-1.202 7.8036,-2.28368 11.88091,-3.24506 4.08282,-0.72076 7.91288,-1.29913 11.51556,-1.77927 3.60269,-0.24062 6.72744,-0.49228 9.36875,-0.7329"
       inkscape:connector-curvature="0"
       style="fill:#dcdbdb;fill-opacity:1" />
  </g>
  <g
     id="g3167">
    <path
       id="rect3068"
       d="M 78.65625 6 C 63.792798 6 49.986224 10.429561 38.5 18.03125 L 38.5 493.96875 C 49.986224 501.57044 63.792798 506 78.65625 506 L 147.5 506 L 147.5 6 L 78.65625 6 z "
       style="opacity:0.05000000000000000;fill:url(#linearGradient3108);fill-opacity:1;stroke:none" />
    <path
       inkscape:connector-curvature="0"
       style="opacity:0.05;fill:url(#linearGradient3137);fill-opacity:1;stroke:none"
       d="m 147.50001,6 0,500 109,0 0,-500 -109,0 z"
       id="path3135" />
    <path
       id="path3139"
       d="m 256.50001,6 0,500 109,0 0,-500 -109,0 z"
       style="opacity:0.05;fill:url(#linearGradient3141);fill-opacity:1;stroke:none"
       inkscape:connector-curvature="0" />
    <path
       id="path3143"
       d="M 365.5 6 L 365.5 506 L 433.34375 506 C 448.1977 506 461.98692 501.56151 473.46875 493.96875 L 473.46875 18.03125 C 461.98692 10.438491 448.1977 6 433.34375 6 L 365.5 6 z "
       style="opacity:0.05000000000000000;fill:url(#linearGradient3145);fill-opacity:1;stroke:none" />
    <path
       id="path3151"
       d="M 38.5 18.03125 C 18.885717 31.012164 6 53.274894 6 78.65625 L 6 433.34375 C 6 458.72511 18.885717 480.98784 38.5 493.96875 L 38.5 18.03125 z "
       style="opacity:0.05000000000000000;fill:url(#linearGradient3153);fill-opacity:1;stroke:none" />
    <path
       id="path3147"
       d="M 473.46875 18.03125 L 473.46875 493.96875 C 493.09542 480.98993 506 458.73461 506 433.34375 L 506 78.65625 C 506 53.265388 493.09542 31.010071 473.46875 18.03125 z "
       style="opacity:0.05000000000000000;fill:url(#linearGradient3149);fill-opacity:1;stroke:none" />
  </g>
</svg>
