<svg xmlns="http://www.w3.org/2000/svg" xmlns:xlink="http://www.w3.org/1999/xlink" viewBox="0 0 512 512"><defs><filter id="7"><feGaussianBlur stdDeviation="3.7725"/></filter><linearGradient id="8" y1="19.564" x2="0" y2="504.02" gradientUnits="userSpaceOnUse"><stop stop-color="#f3f3f3"/><stop offset=".5" stop-color="#eee"/><stop offset="1" stop-color="#ebebeb"/></linearGradient><linearGradient xlink:href="#0" id="5" gradientUnits="userSpaceOnUse" gradientTransform="matrix(1.02835 0 0 1.46193 209.19-118.25)" x1="257" x2="362"/><linearGradient xlink:href="#0" id="6" gradientUnits="userSpaceOnUse" gradientTransform="matrix(1.0381 0 0 1.46193-337.29-118.25)" x1="257" x2="362"/><linearGradient xlink:href="#0" id="4" gradientUnits="userSpaceOnUse" gradientTransform="matrix(1.02835 0 0 1.46193 101.22-118.25)" x1="257" x2="362"/><linearGradient xlink:href="#0" id="3" gradientUnits="userSpaceOnUse" gradientTransform="matrix(1.0381 0 0 1.46193-10.289-118.25)" x1="257" x2="362"/><linearGradient id="0"><stop/><stop offset="1" stop-color="#fff"/></linearGradient><linearGradient xlink:href="#0" id="2" gradientUnits="userSpaceOnUse" gradientTransform="matrix(1.0381 0 0 1.46193-119.29-118.25)" x1="257" x2="362"/><linearGradient xlink:href="#0" id="1" gradientUnits="userSpaceOnUse" gradientTransform="matrix(1.0381 0 0 1.46193-228.29-118.25)" x1="257" x2="362"/></defs><path d="m78.66 6c-.929 0-1.861.028-2.781.063-.073.003-.146-.003-.219 0-.668.027-1.337.08-2 .125-.376.025-.751.063-1.125.094-.645.053-1.297.086-1.938.156-.965.106-1.922.232-2.875.375-.052.008-.104.023-.156.031-1.082.165-2.154.351-3.219.563-.459.091-.919.182-1.375.281-.39.085-.769.19-1.156.281-.647.152-1.297.299-1.938.469-.898.238-1.804.479-2.688.75-.211.065-.414.152-.625.219-.991.314-1.966.645-2.938 1-.817.298-1.635.611-2.438.938-.29.118-.587.222-.875.344-.136.057-.27.129-.406.188-.082.035-.169.058-.25.094-.717.311-1.42.636-2.125.969-.147.069-.291.148-.438.219-.947.455-1.889.943-2.813 1.438-.271.145-.544.289-.813.438-.414.228-.81.483-1.219.719-.52.3-1.051.594-1.563.906-.738.452-1.467.898-2.188 1.375-.031.021-.062.042-.094.063-.456.303-.895.625-1.344.938-.123.086-.252.163-.375.25-.524.37-1.049.742-1.563 1.125-1.835 1.371-3.618 2.84-5.313 4.375-.017.015-.046.016-.063.031-.526.477-1.02.977-1.531 1.469-.524.505-1.054 1.011-1.563 1.531-.512.523-1 1.055-1.5 1.594-.941 1.022-1.837 2.05-2.719 3.125-.631.769-1.244 1.58-1.844 2.375-.111.148-.233.289-.344.438-.526.71-1.031 1.427-1.531 2.156-.11.16-.235.308-.344.469-.013.019-.018.043-.031.063-.084.125-.167.249-.25.375-.47.708-.929 1.431-1.375 2.156-.071.116-.148.227-.219.344-.575.948-1.124 1.899-1.656 2.875-.152.278-.289.564-.438.844-.18.341-.356.687-.531 1.031-.243.479-.486.952-.719 1.438-.426.885-.828 1.783-1.219 2.688-.24.556-.461 1.124-.688 1.688-.038.095-.087.186-.125.281-.246.621-.489 1.245-.719 1.875-.332.909-.641 1.825-.938 2.75-.11.345-.238.684-.344 1.031-.301.99-.585 1.992-.844 3-.008.032-.023.062-.031.094-.267 1.046-.497 2.092-.719 3.156-.034.166-.06.334-.094.5-.426 2.117-.762 4.257-1 6.438-.035.323-.063.645-.094.969-.09.938-.165 1.895-.219 2.844-.017.29-.018.584-.031.875-.051 1.119-.094 2.243-.094 3.375v354.69 6c0 40.24 32.411 72.66 72.66 72.66h354.69c40.24 0 72.66-32.411 72.66-72.66v-354.69-6c0-1.259-.031-2.507-.094-3.75-.016-.323-.042-.647-.063-.969-.058-.917-.127-1.843-.219-2.75-.02-.2-.041-.394-.063-.594-.246-2.245-.587-4.447-1.031-6.625-.021-.104-.041-.209-.063-.313-.227-1.087-.476-2.15-.75-3.219-.011-.042-.02-.083-.031-.125-.19-.732-.413-1.464-.625-2.188-.212-.724-.423-1.442-.656-2.156-.258-.789-.529-1.567-.813-2.344-.23-.63-.472-1.254-.719-1.875-.038-.096-.087-.186-.125-.281-.239-.594-.465-1.195-.719-1.781-.378-.871-.777-1.741-1.188-2.594-.233-.485-.475-.958-.719-1.438-.287-.564-.574-1.132-.875-1.688-.051-.094-.105-.188-.156-.281-.513-.936-1.041-1.871-1.594-2.781-.212-.35-.438-.685-.656-1.031-.405-.642-.795-1.278-1.219-1.906-.809-1.199-1.685-2.354-2.563-3.5-.262-.341-.514-.695-.781-1.031-.189-.238-.371-.483-.563-.719-.093-.114-.188-.231-.281-.344-2.71-3.286-5.696-6.301-8.938-9.06-.293-.249-.578-.505-.875-.75-.268-.221-.541-.439-.813-.656-.636-.509-1.284-1.012-1.938-1.5-3.17-2.368-6.55-4.481-10.09-6.313-.617-.319-1.248-.636-1.875-.938-.155-.074-.313-.145-.469-.219-.785-.371-1.575-.719-2.375-1.063-.488-.209-.975-.426-1.469-.625-.735-.296-1.472-.571-2.219-.844-.392-.143-.793-.27-1.188-.406-.718-.248-1.459-.524-2.188-.75-.114-.035-.23-.059-.344-.094-.488-.149-.977-.267-1.469-.406-.357-.1-.703-.217-1.063-.313-.019-.005-.043.005-.063 0-.837-.221-1.683-.433-2.531-.625-.032-.007-.062-.024-.094-.031-.651-.146-1.311-.278-1.969-.406-1-.197-2.01-.376-3.03-.531-.063-.01-.125-.022-.188-.031-.952-.143-1.88-.269-2.844-.375-.836-.091-1.687-.156-2.531-.219-.176-.013-.355-.019-.531-.031-.735-.049-1.478-.097-2.219-.125-.92-.034-1.853-.063-2.781-.063h-285.84-68.844" filter="url(#7)" fill-opacity=".176"/><rect width="500" height="500" x="6" y="12" rx="72.64" opacity=".15"/><rect rx="72.64" y="6" x="6" height="500" width="500" fill="url(#8)"/><rect width="435" height="435" x="38.5" y="38.5" rx="63.2" fill="#e8a441"/><path d="m101.69 38.5c-35.01 0-63.19 28.17-63.19 63.19v15c0-35.01 28.17-63.19 63.19-63.19h308.63c35.01 0 63.19 28.17 63.19 63.19v-15c0-35.01-28.17-63.19-63.19-63.19h-308.62" opacity=".2"/><path d="m78.66 6c-40.24 0-72.66 32.411-72.66 72.66v7c0-40.24 32.411-72.66 72.66-72.66h354.69c40.24 0 72.66 32.411 72.66 72.66v-7c0-40.24-32.411-72.66-72.66-72.66h-354.69" fill="#fff"/><g transform="translate(327.16 196.07)"><g transform="matrix(11.16638 0 0 11.16638-3032.93-13974.88)" opacity=".2"><path d="m260.59 1258.25c.445-2.537.646-4.586-1.893-3.03-2.539 1.559-3.563 2.762-3.563 2.762 0 0-.867.361-.646-.555.223-.914 1.514-8.08 1.625-9.264.111-1.18.236-1.18-.193-1.27-.429-.09-.719 0-.719 0 0 0-1.402.111-1.647 2.428-.245 2.314-2.493 15.428-2.493 15.428 0 0-.579 1.734.512 1.781 1.091.043 1.736.445 2.738-3.229 1-3.674 2.271-5.699 3.429-5.699 1.157 0 .867 1.248.557 3.072-.313 1.826-1.403 5.41-1.069 6.078.334.668.267.711 1.536.711 1.269 0 2.493-.223 2.093-1.336-.4-1.113-.713-5.341-.267-7.88" id="9"/><path d="m266.24 1254.54c-.544-.166-1.089 0-1.089 0 0 0-.477-.137-.986 1.088-.509 1.225-1.667 6.158-1.633 8.268.033 2.109.033 2.891.681 2.688.646-.205 2.585-.137 2.347-2.279-.237-2.143.137-5.137.477-6.873.34-1.736.747-2.732.203-2.896z" id="A"/><path d="m277.4 1253.89c-1.497-.033-3.846 1.021-4.491 1.328-.646.307-2.28.834-1.701-.758.578-1.59 1.531-3.359 1.531-3.359 0 0 .203-.611 1.667-.68 1.463-.068 4.898.953 5.613.137.715-.816.511-1.566.545-2.551.033-.988 0-1.143-.512-1.15-.51-.01-3.742.605-5.03.605-1.294 0-2.688-.104-3.232 1.225-.544 1.326-2.96 7.824-2.96 7.824 0 0-.238 2.109 1.634 1.158 1.87-.955 6.565-2.314 6.77.984.204 3.301-1.19 7.928-4.899 7.791-3.708-.135-2.994-1.463-2.382-2.654.612-1.189.409-2.039-.68-2.072-1.089-.035-3.198 1.291-2.042 3.502 1.157 2.213 2.145 2.994 5.479 3.03 3.334.033 8.03-4.084 8.199-9.355.169-5.274-2.01-4.969-3.505-5" id="B"/><path d="m268.28 1250.87c-.205-.512-1.028-.182-1.4-.469.005.01-.489-1.365-.933-1.307-.301.041-.357.68-.561.936-.382.479-1.577.184-1.68.84-.032.207.579.707.653.838.305.543-.367 1.207 0 1.682.242.311 1.028-.299 1.493-.281.098 0 .184.018.261.035.396.205 1.01.68 1.211.475.263-.258.011-.914-.033-1.289.32-.686 1.167-1.013.989-1.46" id="C"/></g><g transform="matrix(11.16638 0 0 11.16638-3047.93-13989.88)" fill="#dcdbdb"><use xlink:href="#9"/><use xlink:href="#A"/><use xlink:href="#B"/><use xlink:href="#C"/></g></g><path d="m78.66 6c-14.863 0-28.67 4.43-40.16 12.03v475.94c11.486 7.602 25.293 12.03 40.16 12.03h68.844v-500h-68.844" opacity=".05" fill="url(#1)"/><path d="m147.5 6v500h109v-500h-109" opacity=".05" fill="url(#2)"/><path d="m256.5 6v500h109v-500h-109" opacity=".05" fill="url(#3)"/><path d="m365.5 6v500h67.844c14.854 0 28.643-4.438 40.13-12.03v-475.94c-11.482-7.593-25.27-12.03-40.12-12.03h-67.844" opacity=".05" fill="url(#4)"/><path d="m38.5 18.03c-19.614 12.981-32.5 35.24-32.5 60.63v354.69c0 25.381 12.886 47.644 32.5 60.63v-475.94" opacity=".05" fill="url(#6)"/><path d="m473.47 18.03v475.94c19.627-12.979 32.531-35.23 32.531-60.62v-354.69c0-25.391-12.905-47.646-32.531-60.62" opacity=".05" fill="url(#5)"/></svg>