<?xml version="1.0" encoding="UTF-8" standalone="no"?>
<!-- Created with Inkscape (http://www.inkscape.org/) -->

<svg
   xmlns:dc="http://purl.org/dc/elements/1.1/"
   xmlns:cc="http://creativecommons.org/ns#"
   xmlns:rdf="http://www.w3.org/1999/02/22-rdf-syntax-ns#"
   xmlns:svg="http://www.w3.org/2000/svg"
   xmlns="http://www.w3.org/2000/svg"
   xmlns:xlink="http://www.w3.org/1999/xlink"
   xmlns:inkscape="http://www.inkscape.org/namespaces/inkscape"
   version="1.1"
   width="100%"
   height="100%"
   viewBox="0 0 512 512"
   id="svg2">
  <metadata
     id="metadata71">
    <rdf:RDF>
      <cc:Work
         rdf:about="">
        <dc:format>image/svg+xml</dc:format>
        <dc:type
           rdf:resource="http://purl.org/dc/dcmitype/StillImage" />
      </cc:Work>
    </rdf:RDF>
  </metadata>
  <defs
     id="defs4">
    <filter
       color-interpolation-filters="sRGB"
       id="7">
      <feGaussianBlur
         id="feGaussianBlur7"
         stdDeviation="3.7725" />
    </filter>
    <linearGradient
       y1="19.563999"
       x2="0"
       y2="504.01999"
       id="8"
       gradientUnits="userSpaceOnUse">
      <stop
         id="stop10"
         style="stop-color:#f3f3f3;stop-opacity:1"
         offset="0" />
      <stop
         id="stop12"
         style="stop-color:#eeeeee;stop-opacity:1"
         offset="0.5" />
      <stop
         id="stop14"
         style="stop-color:#ebebeb;stop-opacity:1"
         offset="1" />
    </linearGradient>
    <linearGradient
       x1="257"
       x2="362"
       id="5"
       xlink:href="#0"
       gradientUnits="userSpaceOnUse"
       gradientTransform="matrix(1.02835,0,0,1.46193,209.19,-118.25)" />
    <linearGradient
       x1="257"
       x2="362"
       id="6"
       xlink:href="#0"
       gradientUnits="userSpaceOnUse"
       gradientTransform="matrix(1.0381,0,0,1.46193,-337.29,-118.25)" />
    <linearGradient
       x1="257"
       x2="362"
       id="4"
       xlink:href="#0"
       gradientUnits="userSpaceOnUse"
       gradientTransform="matrix(1.02835,0,0,1.46193,101.22,-118.25)" />
    <linearGradient
       x1="257"
       x2="362"
       id="3"
       xlink:href="#0"
       gradientUnits="userSpaceOnUse"
       gradientTransform="matrix(1.0381,0,0,1.46193,-10.289,-118.25)" />
    <linearGradient
       id="0">
      <stop
         id="stop21"
         style="stop-color:#000000;stop-opacity:1"
         offset="0" />
      <stop
         id="stop23"
         style="stop-color:#ffffff;stop-opacity:1"
         offset="1" />
    </linearGradient>
    <linearGradient
       x1="257"
       x2="362"
       id="2"
       xlink:href="#0"
       gradientUnits="userSpaceOnUse"
       gradientTransform="matrix(1.0381,0,0,1.46193,-119.29,-118.25)" />
    <linearGradient
       x1="257"
       x2="362"
       id="1"
       xlink:href="#0"
       gradientUnits="userSpaceOnUse"
       gradientTransform="matrix(1.0381,0,0,1.46193,-228.29,-118.25)" />
  </defs>
  <path
     d="m 78.66,6 c -0.929,0 -1.861,0.028 -2.781,0.063 -0.073,0.003 -0.146,-0.003 -0.219,0 -0.668,0.027 -1.337,0.08 -2,0.125 -0.376,0.025 -0.751,0.063 -1.125,0.094 -0.645,0.053 -1.297,0.086 -1.938,0.156 -0.965,0.106 -1.922,0.232 -2.875,0.375 -0.052,0.008 -0.104,0.023 -0.156,0.031 -1.082,0.165 -2.154,0.351 -3.219,0.563 -0.459,0.091 -0.919,0.182 -1.375,0.281 -0.39,0.085 -0.769,0.19 -1.156,0.281 -0.647,0.152 -1.297,0.299 -1.938,0.469 -0.898,0.238 -1.804,0.479 -2.688,0.75 -0.211,0.065 -0.414,0.152 -0.625,0.219 -0.991,0.314 -1.966,0.645 -2.938,1 -0.817,0.298 -1.635,0.611 -2.438,0.938 -0.29,0.118 -0.587,0.222 -0.875,0.344 -0.136,0.057 -0.27,0.129 -0.406,0.188 -0.082,0.035 -0.169,0.058 -0.25,0.094 -0.717,0.311 -1.42,0.636 -2.125,0.969 -0.147,0.069 -0.291,0.148 -0.438,0.219 -0.947,0.455 -1.889,0.943 -2.813,1.438 -0.271,0.145 -0.544,0.289 -0.813,0.438 -0.414,0.228 -0.81,0.483 -1.219,0.719 -0.52,0.3 -1.051,0.594 -1.563,0.906 -0.738,0.452 -1.467,0.898 -2.188,1.375 -0.031,0.021 -0.062,0.042 -0.094,0.063 -0.456,0.303 -0.895,0.625 -1.344,0.938 -0.123,0.086 -0.252,0.163 -0.375,0.25 -0.524,0.37 -1.049,0.742 -1.563,1.125 -1.835,1.371 -3.618,2.84 -5.313,4.375 -0.017,0.015 -0.046,0.016 -0.063,0.031 -0.526,0.477 -1.02,0.977 -1.531,1.469 -0.524,0.505 -1.054,1.011 -1.563,1.531 -0.512,0.523 -1,1.055 -1.5,1.594 -0.941,1.022 -1.837,2.05 -2.719,3.125 -0.631,0.769 -1.244,1.58 -1.844,2.375 -0.111,0.148 -0.233,0.289 -0.344,0.438 -0.526,0.71 -1.031,1.427 -1.531,2.156 -0.11,0.16 -0.235,0.308 -0.344,0.469 -0.013,0.019 -0.018,0.043 -0.031,0.063 -0.084,0.125 -0.167,0.249 -0.25,0.375 -0.47,0.708 -0.929,1.431 -1.375,2.156 -0.071,0.116 -0.148,0.227 -0.219,0.344 -0.575,0.948 -1.124,1.899 -1.656,2.875 -0.152,0.278 -0.289,0.564 -0.438,0.844 -0.18,0.341 -0.356,0.687 -0.531,1.031 -0.243,0.479 -0.486,0.952 -0.719,1.438 -0.426,0.885 -0.828,1.783 -1.219,2.688 -0.24,0.556 -0.461,1.124 -0.688,1.688 -0.038,0.095 -0.087,0.186 -0.125,0.281 -0.246,0.621 -0.489,1.245 -0.719,1.875 -0.332,0.909 -0.641,1.825 -0.938,2.75 -0.11,0.345 -0.238,0.684 -0.344,1.031 -0.301,0.99 -0.585,1.992 -0.844,3 -0.008,0.032 -0.023,0.062 -0.031,0.094 -0.267,1.046 -0.497,2.092 -0.719,3.156 -0.034,0.166 -0.06,0.334 -0.094,0.5 -0.426,2.117 -0.762,4.257 -1,6.438 -0.035,0.323 -0.063,0.645 -0.094,0.969 -0.09,0.938 -0.165,1.895 -0.219,2.844 -0.017,0.29 -0.018,0.584 -0.031,0.875 -0.051,1.119 -0.094,2.243 -0.094,3.375 v 354.69 6 c 0,40.24 32.411,72.66 72.66,72.66 h 354.69 c 40.24,0 72.66,-32.411 72.66,-72.66 v -354.69 -6 c 0,-1.259 -0.031,-2.507 -0.094,-3.75 -0.016,-0.323 -0.042,-0.647 -0.063,-0.969 -0.058,-0.917 -0.127,-1.843 -0.219,-2.75 -0.02,-0.2 -0.041,-0.394 -0.063,-0.594 -0.246,-2.245 -0.587,-4.447 -1.031,-6.625 -0.021,-0.104 -0.041,-0.209 -0.063,-0.313 -0.227,-1.087 -0.476,-2.15 -0.75,-3.219 -0.011,-0.042 -0.02,-0.083 -0.031,-0.125 -0.19,-0.732 -0.413,-1.464 -0.625,-2.188 -0.212,-0.724 -0.423,-1.442 -0.656,-2.156 -0.258,-0.789 -0.529,-1.567 -0.813,-2.344 -0.23,-0.63 -0.472,-1.254 -0.719,-1.875 -0.038,-0.096 -0.087,-0.186 -0.125,-0.281 -0.239,-0.594 -0.465,-1.195 -0.719,-1.781 -0.378,-0.871 -0.777,-1.741 -1.188,-2.594 -0.233,-0.485 -0.475,-0.958 -0.719,-1.438 -0.287,-0.564 -0.574,-1.132 -0.875,-1.688 -0.051,-0.094 -0.105,-0.188 -0.156,-0.281 -0.513,-0.936 -1.041,-1.871 -1.594,-2.781 -0.212,-0.35 -0.438,-0.685 -0.656,-1.031 -0.405,-0.642 -0.795,-1.278 -1.219,-1.906 -0.809,-1.199 -1.685,-2.354 -2.563,-3.5 -0.262,-0.341 -0.514,-0.695 -0.781,-1.031 -0.189,-0.238 -0.371,-0.483 -0.563,-0.719 -0.093,-0.114 -0.188,-0.231 -0.281,-0.344 -2.71,-3.286 -5.696,-6.301 -8.938,-9.06 -0.293,-0.249 -0.578,-0.505 -0.875,-0.75 -0.268,-0.221 -0.541,-0.439 -0.813,-0.656 -0.636,-0.509 -1.284,-1.012 -1.938,-1.5 -3.17,-2.368 -6.55,-4.481 -10.09,-6.313 -0.617,-0.319 -1.248,-0.636 -1.875,-0.938 -0.155,-0.074 -0.313,-0.145 -0.469,-0.219 -0.785,-0.371 -1.575,-0.719 -2.375,-1.063 -0.488,-0.209 -0.975,-0.426 -1.469,-0.625 -0.735,-0.296 -1.472,-0.571 -2.219,-0.844 -0.392,-0.143 -0.793,-0.27 -1.188,-0.406 -0.718,-0.248 -1.459,-0.524 -2.188,-0.75 -0.114,-0.035 -0.23,-0.059 -0.344,-0.094 -0.488,-0.149 -0.977,-0.267 -1.469,-0.406 -0.357,-0.1 -0.703,-0.217 -1.063,-0.313 -0.019,-0.005 -0.043,0.005 -0.063,0 -0.837,-0.221 -1.683,-0.433 -2.531,-0.625 -0.032,-0.007 -0.062,-0.024 -0.094,-0.031 -0.651,-0.146 -1.311,-0.278 -1.969,-0.406 -1,-0.197 -2.01,-0.376 -3.03,-0.531 -0.063,-0.01 -0.125,-0.022 -0.188,-0.031 -0.952,-0.143 -1.88,-0.269 -2.844,-0.375 -0.836,-0.091 -1.687,-0.156 -2.531,-0.219 -0.176,-0.013 -0.355,-0.019 -0.531,-0.031 -0.735,-0.049 -1.478,-0.097 -2.219,-0.125 -0.92,-0.034 -1.853,-0.063 -2.781,-0.063 H 147.503 78.659"
     inkscape:connector-curvature="0"
     id="path27"
     style="fill-opacity:0.17600002;filter:url(#7)" />
  <rect
     width="500"
     height="500"
     rx="72.639999"
     x="6"
     y="12"
     id="rect29"
     style="opacity:0.15" />
  <rect
     width="500"
     height="500"
     rx="72.639999"
     x="6"
     y="6"
     id="rect31"
     style="fill:url(#8)" />
  <rect
     width="435"
     height="435"
     rx="63.200001"
     x="38.5"
     y="38.5"
     id="rect33"
     style="fill:#e8a441" />
  <path
     d="M 101.69,38.5 C 66.68,38.5 38.5,66.67 38.5,101.69 v 15 C 38.5,81.68 66.67,53.5 101.69,53.5 h 308.63 c 35.01,0 63.19,28.17 63.19,63.19 v -15 C 473.51,66.68 445.34,38.5 410.32,38.5 H 101.7"
     inkscape:connector-curvature="0"
     id="path35"
     style="opacity:0.2" />
  <path
     d="M 78.66,6 C 38.42,6 6,38.411 6,78.66 v 7 C 6,45.42 38.411,13 78.66,13 h 354.69 c 40.24,0 72.66,32.411 72.66,72.66 v -7 C 506.01,38.42 473.599,6 433.35,6 H 78.66"
     inkscape:connector-curvature="0"
     id="path37"
     style="fill:#ffffff" />
  <g
     transform="translate(327.16,196.07)"
     id="g39">
    <g
       transform="matrix(11.16638,0,0,11.16638,-3032.93,-13974.88)"
       id="g41"
       style="opacity:0.2">
      <path
         d="m 260.59,1258.25 c 0.445,-2.537 0.646,-4.586 -1.893,-3.03 -2.539,1.559 -3.563,2.762 -3.563,2.762 0,0 -0.867,0.361 -0.646,-0.555 0.223,-0.914 1.514,-8.08 1.625,-9.264 0.111,-1.18 0.236,-1.18 -0.193,-1.27 -0.429,-0.09 -0.719,0 -0.719,0 0,0 -1.402,0.111 -1.647,2.428 -0.245,2.314 -2.493,15.428 -2.493,15.428 0,0 -0.579,1.734 0.512,1.781 1.091,0.043 1.736,0.445 2.738,-3.229 1,-3.674 2.271,-5.699 3.429,-5.699 1.157,0 0.867,1.248 0.557,3.072 -0.313,1.826 -1.403,5.41 -1.069,6.078 0.334,0.668 0.267,0.711 1.536,0.711 1.269,0 2.493,-0.223 2.093,-1.336 -0.4,-1.113 -0.713,-5.341 -0.267,-7.88"
         inkscape:connector-curvature="0"
         id="9" />
      <path
         d="m 266.24,1254.54 c -0.544,-0.166 -1.089,0 -1.089,0 0,0 -0.477,-0.137 -0.986,1.088 -0.509,1.225 -1.667,6.158 -1.633,8.268 0.033,2.109 0.033,2.891 0.681,2.688 0.646,-0.205 2.585,-0.137 2.347,-2.279 -0.237,-2.143 0.137,-5.137 0.477,-6.873 0.34,-1.736 0.747,-2.732 0.203,-2.896 z"
         inkscape:connector-curvature="0"
         id="A" />
      <path
         d="m 277.4,1253.89 c -1.497,-0.033 -3.846,1.021 -4.491,1.328 -0.646,0.307 -2.28,0.834 -1.701,-0.758 0.578,-1.59 1.531,-3.359 1.531,-3.359 0,0 0.203,-0.611 1.667,-0.68 1.463,-0.068 4.898,0.953 5.613,0.137 0.715,-0.816 0.511,-1.566 0.545,-2.551 0.033,-0.988 0,-1.143 -0.512,-1.15 -0.51,-0.01 -3.742,0.605 -5.03,0.605 -1.294,0 -2.688,-0.104 -3.232,1.225 -0.544,1.326 -2.96,7.824 -2.96,7.824 0,0 -0.238,2.109 1.634,1.158 1.87,-0.955 6.565,-2.314 6.77,0.984 0.204,3.301 -1.19,7.928 -4.899,7.791 -3.708,-0.135 -2.994,-1.463 -2.382,-2.654 0.612,-1.189 0.409,-2.039 -0.68,-2.072 -1.089,-0.035 -3.198,1.291 -2.042,3.502 1.157,2.213 2.145,2.994 5.479,3.03 3.334,0.033 8.03,-4.084 8.199,-9.355 0.169,-5.274 -2.01,-4.969 -3.505,-5"
         inkscape:connector-curvature="0"
         id="B" />
      <path
         d="m 268.28,1250.87 c -0.205,-0.512 -1.028,-0.182 -1.4,-0.469 0.005,0.01 -0.489,-1.365 -0.933,-1.307 -0.301,0.041 -0.357,0.68 -0.561,0.936 -0.382,0.479 -1.577,0.184 -1.68,0.84 -0.032,0.207 0.579,0.707 0.653,0.838 0.305,0.543 -0.367,1.207 0,1.682 0.242,0.311 1.028,-0.299 1.493,-0.281 0.098,0 0.184,0.018 0.261,0.035 0.396,0.205 1.01,0.68 1.211,0.475 0.263,-0.258 0.011,-0.914 -0.033,-1.289 0.32,-0.686 1.167,-1.013 0.989,-1.46"
         inkscape:connector-curvature="0"
         id="C" />
    </g>
    <g
       transform="matrix(11.16638,0,0,11.16638,-3047.93,-13989.88)"
       id="g47"
       style="fill:#dcdbdb">
      <use
         id="use49"
         x="0"
         y="0"
         width="1"
         height="1"
         xlink:href="#9" />
      <use
         id="use51"
         x="0"
         y="0"
         width="1"
         height="1"
         xlink:href="#A" />
      <use
         id="use53"
         x="0"
         y="0"
         width="1"
         height="1"
         xlink:href="#B" />
      <use
         id="use55"
         x="0"
         y="0"
         width="1"
         height="1"
         xlink:href="#C" />
    </g>
  </g>
  <path
     d="M 78.66,6 C 63.797,6 49.99,10.43 38.5,18.03 V 493.97 C 49.986,501.572 63.793,506 78.66,506 h 68.844 V 6 H 78.66"
     inkscape:connector-curvature="0"
     id="path57"
     style="opacity:0.05;fill:url(#1)" />
  <path
     d="m 147.5,6 v 500 h 109 V 6 h -109"
     inkscape:connector-curvature="0"
     id="path59"
     style="opacity:0.05;fill:url(#2)" />
  <path
     d="m 256.5,6 v 500 h 109 V 6 h -109"
     inkscape:connector-curvature="0"
     id="path61"
     style="opacity:0.05;fill:url(#3)" />
  <path
     d="m 365.5,6 v 500 h 67.844 c 14.854,0 28.643,-4.438 40.13,-12.03 V 18.03 C 461.992,10.437 448.204,6 433.354,6 H 365.51"
     inkscape:connector-curvature="0"
     id="path63"
     style="opacity:0.05;fill:url(#4)" />
  <path
     d="M 38.5,18.03 C 18.886,31.011 6,53.27 6,78.66 v 354.69 c 0,25.381 12.886,47.644 32.5,60.63 V 18.04"
     inkscape:connector-curvature="0"
     id="path65"
     style="opacity:0.05;fill:url(#6)" />
  <path
     d="m 473.47,18.03 v 475.94 c 19.627,-12.979 32.531,-35.23 32.531,-60.62 V 78.66 c 0,-25.391 -12.905,-47.646 -32.531,-60.62"
     inkscape:connector-curvature="0"
     id="path67"
     style="opacity:0.05;fill:url(#5)" />
</svg>
