<?xml version="1.0" encoding="UTF-8" standalone="no"?>
<svg
   xmlns:dc="http://purl.org/dc/elements/1.1/"
   xmlns:cc="http://creativecommons.org/ns#"
   xmlns:rdf="http://www.w3.org/1999/02/22-rdf-syntax-ns#"
   xmlns:svg="http://www.w3.org/2000/svg"
   xmlns="http://www.w3.org/2000/svg"
   xmlns:xlink="http://www.w3.org/1999/xlink"
   xmlns:sodipodi="http://sodipodi.sourceforge.net/DTD/sodipodi-0.dtd"
   xmlns:inkscape="http://www.inkscape.org/namespaces/inkscape"
   viewBox="0 0 512 512"
   id="svg2"
   version="1.1"
   inkscape:version="0.48.4 r9939"
   width="100%"
   height="100%"
   sodipodi:docname="hi5.svg">
  <sodipodi:namedview
     pagecolor="#444444"
     bordercolor="#666666"
     borderopacity="1"
     objecttolerance="10"
     gridtolerance="10"
     guidetolerance="10"
     inkscape:pageopacity="0"
     inkscape:pageshadow="2"
     inkscape:window-width="1310"
     inkscape:window-height="718"
     id="namedview6"
     showgrid="false"
     showguides="true"
     inkscape:guide-bbox="true"
     inkscape:zoom="0.73271889"
     inkscape:cx="263.07299"
     inkscape:cy="280.49171"
     inkscape:window-x="54"
     inkscape:window-y="27"
     inkscape:window-maximized="1"
     inkscape:current-layer="svg2"
     inkscape:snap-midpoints="true"
     inkscape:snap-global="false">
    <sodipodi:guide
       id="guide2989"
       position="522.57628,433.35594"
       orientation="0,1" />
    <sodipodi:guide
       id="guide2995"
       position="473.05444,254.912"
       orientation="1,0" />
  </sodipodi:namedview>
  <metadata
     id="metadata10">
    <rdf:RDF>
      <cc:Work
         rdf:about="">
        <dc:format>image/svg+xml</dc:format>
        <dc:type
           rdf:resource="http://purl.org/dc/dcmitype/StillImage" />
        <dc:title></dc:title>
      </cc:Work>
    </rdf:RDF>
  </metadata>
  <defs
     id="defs8">
    <linearGradient
       id="linearGradient4996">
      <stop
         style="stop-color:#000000;stop-opacity:1;"
         offset="0"
         id="stop4998" />
      <stop
         style="stop-color:#ffffff;stop-opacity:1;"
         offset="1"
         id="stop5000" />
    </linearGradient>
    <linearGradient
       inkscape:collect="always"
       xlink:href="#linearGradient4996"
       id="linearGradient3108"
       gradientUnits="userSpaceOnUse"
       gradientTransform="matrix(1.0380952,0,0,1.4619252,-228.28943,-118.25286)"
       x1="257"
       y1="256"
       x2="362"
       y2="256" />
    <linearGradient
       inkscape:collect="always"
       xlink:href="#linearGradient4996"
       id="linearGradient3137"
       gradientUnits="userSpaceOnUse"
       gradientTransform="matrix(1.0380952,0,0,1.4619252,-119.28943,-118.25286)"
       x1="257"
       y1="256"
       x2="362"
       y2="256" />
    <linearGradient
       inkscape:collect="always"
       xlink:href="#linearGradient4996"
       id="linearGradient3141"
       gradientUnits="userSpaceOnUse"
       gradientTransform="matrix(1.0380952,0,0,1.4619252,-10.28943,-118.25286)"
       x1="257"
       y1="256"
       x2="362"
       y2="256" />
    <linearGradient
       inkscape:collect="always"
       xlink:href="#linearGradient4996"
       id="linearGradient3145"
       gradientUnits="userSpaceOnUse"
       gradientTransform="matrix(1.0283468,0,0,1.4619252,101.21591,-118.25286)"
       x1="257"
       y1="256"
       x2="362"
       y2="256" />
    <linearGradient
       inkscape:collect="always"
       xlink:href="#linearGradient4996"
       id="linearGradient3149"
       gradientUnits="userSpaceOnUse"
       gradientTransform="matrix(1.0283468,0,0,1.4619252,209.19233,-118.25286)"
       x1="257"
       y1="256"
       x2="362"
       y2="256" />
    <linearGradient
       inkscape:collect="always"
       xlink:href="#linearGradient4996"
       id="linearGradient3153"
       gradientUnits="userSpaceOnUse"
       gradientTransform="matrix(1.0380952,0,0,1.4619252,-337.28943,-118.25286)"
       x1="257"
       y1="256"
       x2="362"
       y2="256" />
  </defs>
  <rect
     style="opacity:0.2;fill:#000000;fill-opacity:1;stroke:none"
     id="rect5028"
     width="500"
     height="500"
     x="6"
     y="12"
     rx="72.644058"
     ry="72.644058" />
  <rect
     ry="72.644058"
     rx="72.644058"
     y="6"
     x="6"
     height="500"
     width="500"
     id="rect4979"
     style="fill:#f3f3f3;fill-opacity:1;stroke:none" />
  <rect
     style="fill:#f2a537;fill-opacity:1;stroke:none"
     id="rect4981"
     width="434.99997"
     height="434.99997"
     x="38.500011"
     y="38.500011"
     rx="63.200329"
     ry="63.200329" />
  <path
     style="fill:#000000;fill-opacity:1;stroke:none;opacity:0.2"
     d="M 101.6875 38.5 C 66.674518 38.5 38.5 66.674518 38.5 101.6875 L 38.5 116.6875 C 38.5 81.674518 66.674518 53.5 101.6875 53.5 L 410.3125 53.5 C 445.32548 53.5 473.5 81.674518 473.5 116.6875 L 473.5 101.6875 C 473.5 66.674518 445.32548 38.5 410.3125 38.5 L 101.6875 38.5 z "
     id="rect3187" />
  <g
     id="g3087"
     transform="translate(327.16143,196.06852)">
    <g
       id="g3077"
       transform="matrix(11.166375,0,0,11.166375,-3032.9333,-13974.878)"
       style="opacity:0.2;fill:#000000;fill-opacity:1">
      <path
         style="fill:#000000;fill-opacity:1"
         inkscape:connector-curvature="0"
         id="path3079"
         d="m 260.594,1258.25 c 0.445,-2.537 0.646,-4.586 -1.893,-3.027 -2.539,1.559 -3.563,2.762 -3.563,2.762 0,0 -0.867,0.361 -0.646,-0.555 0.223,-0.914 1.514,-8.084 1.625,-9.264 0.111,-1.18 0.236,-1.18 -0.193,-1.27 -0.429,-0.09 -0.719,0 -0.719,0 0,0 -1.402,0.111 -1.647,2.428 -0.245,2.314 -2.493,15.428 -2.493,15.428 0,0 -0.579,1.734 0.512,1.781 1.091,0.043 1.736,0.445 2.738,-3.229 1.002,-3.674 2.271,-5.699 3.429,-5.699 1.157,0 0.867,1.248 0.557,3.072 -0.313,1.826 -1.403,5.41 -1.069,6.078 0.334,0.668 0.267,0.711 1.536,0.711 1.269,0 2.493,-0.223 2.093,-1.336 -0.4,-1.113 -0.713,-5.341 -0.267,-7.88 z" />
      <path
         style="fill:#000000;fill-opacity:1"
         inkscape:connector-curvature="0"
         id="path3081"
         d="m 266.238,1254.535 c -0.544,-0.166 -1.089,0 -1.089,0 0,0 -0.477,-0.137 -0.986,1.088 -0.509,1.225 -1.667,6.158 -1.633,8.268 0.033,2.109 0.033,2.891 0.681,2.688 0.646,-0.205 2.585,-0.137 2.347,-2.279 -0.237,-2.143 0.137,-5.137 0.477,-6.873 0.34,-1.736 0.747,-2.732 0.203,-2.896 z" />
      <path
         style="fill:#000000;fill-opacity:1"
         inkscape:connector-curvature="0"
         id="path3083"
         d="m 277.398,1253.891 c -1.497,-0.033 -3.846,1.021 -4.491,1.328 -0.646,0.307 -2.28,0.834 -1.701,-0.758 0.578,-1.59 1.531,-3.359 1.531,-3.359 0,0 0.203,-0.611 1.667,-0.68 1.463,-0.068 4.898,0.953 5.613,0.137 0.715,-0.816 0.511,-1.566 0.545,-2.551 0.033,-0.988 0,-1.143 -0.512,-1.15 -0.51,-0.01 -3.742,0.605 -5.034,0.605 -1.294,0 -2.688,-0.104 -3.232,1.225 -0.544,1.326 -2.96,7.824 -2.96,7.824 0,0 -0.238,2.109 1.634,1.158 1.87,-0.955 6.565,-2.314 6.77,0.984 0.204,3.301 -1.19,7.928 -4.899,7.791 -3.708,-0.135 -2.994,-1.463 -2.382,-2.654 0.612,-1.189 0.409,-2.039 -0.68,-2.072 -1.089,-0.035 -3.198,1.291 -2.042,3.502 1.157,2.213 2.145,2.994 5.479,3.029 3.334,0.033 8.028,-4.084 8.199,-9.355 0.169,-5.274 -2.007,-4.969 -3.505,-5.004 z" />
      <path
         style="fill:#000000;fill-opacity:1"
         inkscape:connector-curvature="0"
         id="path3085"
         d="m 268.279,1250.867 c -0.205,-0.512 -1.028,-0.182 -1.4,-0.469 0.005,0.01 -0.489,-1.365 -0.933,-1.307 -0.301,0.041 -0.357,0.68 -0.561,0.936 -0.382,0.479 -1.577,0.184 -1.68,0.84 -0.032,0.207 0.579,0.707 0.653,0.838 0.305,0.543 -0.367,1.207 0,1.682 0.242,0.311 1.028,-0.299 1.493,-0.281 0.098,0 0.184,0.018 0.261,0.035 0.396,0.205 1.006,0.68 1.211,0.475 0.263,-0.258 0.011,-0.914 -0.033,-1.289 0.32,-0.686 1.167,-1.013 0.989,-1.46 z" />
    </g>
    <g
       style="fill:#dcdbdb;fill-opacity:1"
       transform="matrix(11.166375,0,0,11.166375,-3047.9333,-13989.878)"
       id="g2608">
      <path
         d="m 260.594,1258.25 c 0.445,-2.537 0.646,-4.586 -1.893,-3.027 -2.539,1.559 -3.563,2.762 -3.563,2.762 0,0 -0.867,0.361 -0.646,-0.555 0.223,-0.914 1.514,-8.084 1.625,-9.264 0.111,-1.18 0.236,-1.18 -0.193,-1.27 -0.429,-0.09 -0.719,0 -0.719,0 0,0 -1.402,0.111 -1.647,2.428 -0.245,2.314 -2.493,15.428 -2.493,15.428 0,0 -0.579,1.734 0.512,1.781 1.091,0.043 1.736,0.445 2.738,-3.229 1.002,-3.674 2.271,-5.699 3.429,-5.699 1.157,0 0.867,1.248 0.557,3.072 -0.313,1.826 -1.403,5.41 -1.069,6.078 0.334,0.668 0.267,0.711 1.536,0.711 1.269,0 2.493,-0.223 2.093,-1.336 -0.4,-1.113 -0.713,-5.341 -0.267,-7.88 z"
         id="path2610"
         inkscape:connector-curvature="0"
         style="fill:#dcdbdb;fill-opacity:1" />
      <path
         d="m 266.238,1254.535 c -0.544,-0.166 -1.089,0 -1.089,0 0,0 -0.477,-0.137 -0.986,1.088 -0.509,1.225 -1.667,6.158 -1.633,8.268 0.033,2.109 0.033,2.891 0.681,2.688 0.646,-0.205 2.585,-0.137 2.347,-2.279 -0.237,-2.143 0.137,-5.137 0.477,-6.873 0.34,-1.736 0.747,-2.732 0.203,-2.896 z"
         id="path2612"
         inkscape:connector-curvature="0"
         style="fill:#dcdbdb;fill-opacity:1" />
      <path
         d="m 277.398,1253.891 c -1.497,-0.033 -3.846,1.021 -4.491,1.328 -0.646,0.307 -2.28,0.834 -1.701,-0.758 0.578,-1.59 1.531,-3.359 1.531,-3.359 0,0 0.203,-0.611 1.667,-0.68 1.463,-0.068 4.898,0.953 5.613,0.137 0.715,-0.816 0.511,-1.566 0.545,-2.551 0.033,-0.988 0,-1.143 -0.512,-1.15 -0.51,-0.01 -3.742,0.605 -5.034,0.605 -1.294,0 -2.688,-0.104 -3.232,1.225 -0.544,1.326 -2.96,7.824 -2.96,7.824 0,0 -0.238,2.109 1.634,1.158 1.87,-0.955 6.565,-2.314 6.77,0.984 0.204,3.301 -1.19,7.928 -4.899,7.791 -3.708,-0.135 -2.994,-1.463 -2.382,-2.654 0.612,-1.189 0.409,-2.039 -0.68,-2.072 -1.089,-0.035 -3.198,1.291 -2.042,3.502 1.157,2.213 2.145,2.994 5.479,3.029 3.334,0.033 8.028,-4.084 8.199,-9.355 0.169,-5.274 -2.007,-4.969 -3.505,-5.004 z"
         id="path2614"
         inkscape:connector-curvature="0"
         style="fill:#dcdbdb;fill-opacity:1" />
      <path
         d="m 268.279,1250.867 c -0.205,-0.512 -1.028,-0.182 -1.4,-0.469 0.005,0.01 -0.489,-1.365 -0.933,-1.307 -0.301,0.041 -0.357,0.68 -0.561,0.936 -0.382,0.479 -1.577,0.184 -1.68,0.84 -0.032,0.207 0.579,0.707 0.653,0.838 0.305,0.543 -0.367,1.207 0,1.682 0.242,0.311 1.028,-0.299 1.493,-0.281 0.098,0 0.184,0.018 0.261,0.035 0.396,0.205 1.006,0.68 1.211,0.475 0.263,-0.258 0.011,-0.914 -0.033,-1.289 0.32,-0.686 1.167,-1.013 0.989,-1.46 z"
         id="path2616"
         inkscape:connector-curvature="0"
         style="fill:#dcdbdb;fill-opacity:1" />
    </g>
  </g>
  <g
     id="g3167">
    <path
       id="rect3068"
       d="M 78.65625 6 C 63.792798 6 49.986224 10.429561 38.5 18.03125 L 38.5 493.96875 C 49.986224 501.57044 63.792798 506 78.65625 506 L 147.5 506 L 147.5 6 L 78.65625 6 z "
       style="opacity:0.05000000000000000;fill:url(#linearGradient3108);fill-opacity:1;stroke:none" />
    <path
       inkscape:connector-curvature="0"
       style="opacity:0.05;fill:url(#linearGradient3137);fill-opacity:1;stroke:none"
       d="m 147.50001,6 0,500 109,0 0,-500 -109,0 z"
       id="path3135" />
    <path
       id="path3139"
       d="m 256.50001,6 0,500 109,0 0,-500 -109,0 z"
       style="opacity:0.05;fill:url(#linearGradient3141);fill-opacity:1;stroke:none"
       inkscape:connector-curvature="0" />
    <path
       id="path3143"
       d="M 365.5 6 L 365.5 506 L 433.34375 506 C 448.1977 506 461.98692 501.56151 473.46875 493.96875 L 473.46875 18.03125 C 461.98692 10.438491 448.1977 6 433.34375 6 L 365.5 6 z "
       style="opacity:0.05000000000000000;fill:url(#linearGradient3145);fill-opacity:1;stroke:none" />
    <path
       id="path3151"
       d="M 38.5 18.03125 C 18.885717 31.012164 6 53.274894 6 78.65625 L 6 433.34375 C 6 458.72511 18.885717 480.98784 38.5 493.96875 L 38.5 18.03125 z "
       style="opacity:0.05000000000000000;fill:url(#linearGradient3153);fill-opacity:1;stroke:none" />
    <path
       id="path3147"
       d="M 473.46875 18.03125 L 473.46875 493.96875 C 493.09542 480.98993 506 458.73461 506 433.34375 L 506 78.65625 C 506 53.265388 493.09542 31.010071 473.46875 18.03125 z "
       style="opacity:0.05000000000000000;fill:url(#linearGradient3149);fill-opacity:1;stroke:none" />
  </g>
</svg>
