<svg xmlns="http://www.w3.org/2000/svg" xmlns:xlink="http://www.w3.org/1999/xlink" viewBox="0 0 512 512"><defs><filter id="7"><feGaussianBlur stdDeviation="3.7725"/></filter><linearGradient id="8" y1="19.564" x2="0" y2="504.02" gradientUnits="userSpaceOnUse"><stop stop-color="#f3f3f3"/><stop offset=".5" stop-color="#eee"/><stop offset="1" stop-color="#ebebeb"/></linearGradient><linearGradient xlink:href="#0" id="5" gradientUnits="userSpaceOnUse" gradientTransform="matrix(1.02835 0 0 1.46193 209.19-118.25)" x1="257" x2="362"/><linearGradient xlink:href="#0" id="6" gradientUnits="userSpaceOnUse" gradientTransform="matrix(1.0381 0 0 1.46193-337.29-118.25)" x1="257" x2="362"/><linearGradient xlink:href="#0" id="4" gradientUnits="userSpaceOnUse" gradientTransform="matrix(1.02835 0 0 1.46193 101.22-118.25)" x1="257" x2="362"/><linearGradient xlink:href="#0" id="3" gradientUnits="userSpaceOnUse" gradientTransform="matrix(1.0381 0 0 1.46193-10.289-118.25)" x1="257" x2="362"/><linearGradient id="0"><stop/><stop offset="1" stop-color="#fff"/></linearGradient><linearGradient xlink:href="#0" id="2" gradientUnits="userSpaceOnUse" gradientTransform="matrix(1.0381 0 0 1.46193-119.29-118.25)" x1="257" x2="362"/><linearGradient xlink:href="#0" id="1" gradientUnits="userSpaceOnUse" gradientTransform="matrix(1.0381 0 0 1.46193-228.29-118.25)" x1="257" x2="362"/></defs><path d="m78.66 6c-.929 0-1.861.028-2.781.063-.073.003-.146-.003-.219 0-.668.027-1.337.08-2 .125-.376.025-.751.063-1.125.094-.645.053-1.297.086-1.938.156-.965.106-1.922.232-2.875.375-.052.008-.104.023-.156.031-1.082.165-2.154.351-3.219.563-.459.091-.919.182-1.375.281-.39.085-.769.19-1.156.281-.647.152-1.297.299-1.938.469-.898.238-1.804.479-2.688.75-.211.065-.414.152-.625.219-.991.314-1.966.645-2.938 1-.817.298-1.635.611-2.438.938-.29.118-.587.222-.875.344-.136.057-.27.129-.406.188-.082.035-.169.058-.25.094-.717.311-1.42.636-2.125.969-.147.069-.291.148-.438.219-.947.455-1.889.943-2.813 1.438-.271.145-.544.289-.813.438-.414.228-.81.483-1.219.719-.52.3-1.051.594-1.563.906-.738.452-1.467.898-2.188 1.375-.031.021-.062.042-.094.063-.456.303-.895.625-1.344.938-.123.086-.252.163-.375.25-.524.37-1.049.742-1.563 1.125-1.835 1.371-3.618 2.84-5.313 4.375-.017.015-.046.016-.063.031-.526.477-1.02.977-1.531 1.469-.524.505-1.054 1.011-1.563 1.531-.512.523-1 1.055-1.5 1.594-.941 1.022-1.837 2.05-2.719 3.125-.631.769-1.244 1.58-1.844 2.375-.111.148-.233.289-.344.438-.526.71-1.031 1.427-1.531 2.156-.11.16-.235.308-.344.469-.013.019-.018.043-.031.063-.084.125-.167.249-.25.375-.47.708-.929 1.431-1.375 2.156-.071.116-.148.227-.219.344-.575.948-1.124 1.899-1.656 2.875-.152.278-.289.564-.438.844-.18.341-.356.687-.531 1.031-.243.479-.486.952-.719 1.438-.426.885-.828 1.783-1.219 2.688-.24.556-.461 1.124-.688 1.688-.038.095-.087.186-.125.281-.246.621-.489 1.245-.719 1.875-.332.909-.641 1.825-.938 2.75-.11.345-.238.684-.344 1.031-.301.99-.585 1.992-.844 3-.008.032-.023.062-.031.094-.267 1.046-.497 2.092-.719 3.156-.034.166-.06.334-.094.5-.426 2.117-.762 4.257-1 6.438-.035.323-.063.645-.094.969-.09.938-.165 1.895-.219 2.844-.017.29-.018.584-.031.875-.051 1.119-.094 2.243-.094 3.375v354.69 6c0 40.24 32.411 72.66 72.66 72.66h354.69c40.24 0 72.66-32.411 72.66-72.66v-354.69-6c0-1.259-.031-2.507-.094-3.75-.016-.323-.042-.647-.063-.969-.058-.917-.127-1.843-.219-2.75-.02-.2-.041-.394-.063-.594-.246-2.245-.587-4.447-1.031-6.625-.021-.104-.041-.209-.063-.313-.227-1.087-.476-2.15-.75-3.219-.011-.042-.02-.083-.031-.125-.19-.732-.413-1.464-.625-2.188-.212-.724-.423-1.442-.656-2.156-.258-.789-.529-1.567-.813-2.344-.23-.63-.472-1.254-.719-1.875-.038-.096-.087-.186-.125-.281-.239-.594-.465-1.195-.719-1.781-.378-.871-.777-1.741-1.188-2.594-.233-.485-.475-.958-.719-1.438-.287-.564-.574-1.132-.875-1.688-.051-.094-.105-.188-.156-.281-.513-.936-1.041-1.871-1.594-2.781-.212-.35-.438-.685-.656-1.031-.405-.642-.795-1.278-1.219-1.906-.809-1.199-1.685-2.354-2.563-3.5-.262-.341-.514-.695-.781-1.031-.189-.238-.371-.483-.563-.719-.093-.114-.188-.231-.281-.344-2.71-3.286-5.696-6.301-8.938-9.06-.293-.249-.578-.505-.875-.75-.268-.221-.541-.439-.813-.656-.636-.509-1.284-1.012-1.938-1.5-3.17-2.368-6.55-4.481-10.09-6.313-.617-.319-1.248-.636-1.875-.938-.155-.074-.313-.145-.469-.219-.785-.371-1.575-.719-2.375-1.063-.488-.209-.975-.426-1.469-.625-.735-.296-1.472-.571-2.219-.844-.392-.143-.793-.27-1.188-.406-.718-.248-1.459-.524-2.188-.75-.114-.035-.23-.059-.344-.094-.488-.149-.977-.267-1.469-.406-.357-.1-.703-.217-1.063-.313-.019-.005-.043.005-.063 0-.837-.221-1.683-.433-2.531-.625-.032-.007-.062-.024-.094-.031-.651-.146-1.311-.278-1.969-.406-1-.197-2.01-.376-3.03-.531-.063-.01-.125-.022-.188-.031-.952-.143-1.88-.269-2.844-.375-.836-.091-1.687-.156-2.531-.219-.176-.013-.355-.019-.531-.031-.735-.049-1.478-.097-2.219-.125-.92-.034-1.853-.063-2.781-.063h-285.84-68.844" filter="url(#7)" fill-opacity=".176"/><rect width="500" height="500" x="6" y="12" rx="72.64" opacity=".15"/><rect rx="72.64" y="6" x="6" height="500" width="500" fill="url(#8)"/><rect width="435" height="435" x="38.5" y="38.5" rx="63.2" fill="#8db173"/><path d="m101.69 38.5c-35.01 0-63.19 28.17-63.19 63.19v15c0-35.01 28.17-63.19 63.19-63.19h308.63c35.01 0 63.19 28.17 63.19 63.19v-15c0-35.01-28.17-63.19-63.19-63.19h-308.62" opacity=".2"/><path d="m78.66 6c-40.24 0-72.66 32.411-72.66 72.66v7c0-40.24 32.411-72.66 72.66-72.66h354.69c40.24 0 72.66 32.411 72.66 72.66v-7c0-40.24-32.411-72.66-72.66-72.66h-354.69" fill="#fff"/><g transform="translate(716.19-73.1)"><path d="m-500.8 503.94c-.912-.154-3.891-.61-6.621-1.014-6.068-.898-14.847-3.901-20.408-6.98-9.561-5.295-19.1-18.12-23.12-31.08-.972-3.134-1.228-6.02-1.203-13.596.028-8.647.215-10.185 1.861-15.255 1.093-3.365 3.683-8.732 6.427-13.316 2.528-4.223 4.596-7.849 4.596-8.06 0-.208-2.164.16-4.808.819-2.645.659-7.07 1.395-9.831 1.636-6.484.566-20.852-1.222-25.825-3.213-9.752-3.905-17.736-13.52-19.893-23.959-2.429-11.754 3.214-25.421 14.66-35.507 2.884-2.541 5.207-4.845 5.162-5.12-.045-.275-2.657-1.175-5.805-2-7.494-1.964-12.317-4.534-19.02-10.132-6.617-5.527-11.554-12.513-13.727-19.423-1.228-3.907-1.492-6.243-1.47-13.05.023-7.201.261-8.988 1.811-13.596 5.535-16.455 18.443-29.858 35.401-36.759 13.174-5.361 26.451-5.814 40.26-1.373 3.306 1.063 6.107 1.838 6.224 1.721.117-.117-.816-1.741-2.074-3.61-7.553-11.223-10.548-30.16-7.01-44.32 4.372-17.501 15.609-27.905 31.803-29.445 9.498-.903 19.02 1.443 27.13 6.681 8.04 5.196 13.11 10.936 19.333 21.881l3.582 6.301.461-2.695c2.119-12.383 13.05-25.797 27.22-33.411 15.388-8.267 31.954-9.183 49.604-2.742 10.667 3.893 18.13 9.766 24.494 19.286 6.587 9.848 9.595 19.488 9.519 30.505-.054 7.863-1.526 14.372-4.902 21.679-1.442 3.12-2.459 5.835-2.261 6.03.198.198 3.719-.349 7.824-1.216 9.371-1.978 23.523-2.166 30.346-.404 15.33 3.96 25.848 14.941 29.05 30.331.969 4.652.961 5.456-.112 10.915-2.576 13.11-12.196 25.04-26.366 32.681-2.498 1.348-4.548 2.602-4.554 2.786-.006.184 3.209 1.889 7.144 3.789 10.395 5.02 17.392 11.89 23.969 23.546 10.977 19.45 7.503 45.872-8.349 63.5-5.913 6.577-16.596 12.822-25.54 14.93-11.799 2.782-31.15-.298-41.914-6.67-3.707-2.195-3.872-2.232-3.516-.793.205.83.7 4.741 1.099 8.69 1.247 12.349-.883 24.547-5.741 32.875-2.749 4.712-9.258 10.758-14.481 13.45-7.968 4.106-14.272 4.778-23.864 2.541-9.277-2.163-15.04-5.575-24.19-14.312l-5.177-4.946-.783 3.161c-1.25 5.04-5.7 13.626-9.567 18.449-6.955 8.674-17.403 15.366-28.318 18.14-4.987 1.267-15.37 2.202-18.533 1.668m9.336-20.457c12.21-2.588 21.338-9.477 26.775-20.21 1.648-3.252 1.693-3.697 1.693-16.631 0-8.789-.436-17.16-1.288-24.728-.709-6.291-1.604-15.617-1.991-20.724-.386-5.107-.868-10.815-1.07-12.685l-.368-3.399-3.776-.978c-2.077-.538-5.428-1.737-7.448-2.664l-3.671-1.686-22.07 25.803c-14.991 17.527-22.578 26.918-23.654 29.28-1.857 4.071-4.304 14.555-4.304 18.438 0 3.524 2.872 12.06 5.378 15.976 4.478 7.01 12.151 12.11 21.16 14.08 5.616 1.227 9.294 1.259 14.637.126m92-22.527c4.071-2.063 6.233-4.581 8.168-9.511 1.251-3.188 1.5-5.092 1.497-11.451-.003-6.727-.223-8.215-1.864-12.602-1.023-2.736-2.7-6.645-3.726-8.688-2.622-5.219-15.469-20.532-26.01-31l-8.907-8.848-3.247 1.633c-1.786.898-5.126 2.313-7.423 3.145-3.88 1.405-4.151 1.634-3.827 3.235.192.948 1.836 10.235 3.653 20.637 2.873 16.447 3.728 20.06 6.561 27.68 3.664 9.86 7.181 15.75 12.293 20.585 7.687 7.27 15.304 9 22.831 5.186m69.45-49.29c13.64-4.183 21.561-13.232 23.985-27.399 1.712-10 .167-16.521-5.997-25.312-3.894-5.554-8.352-9.595-13.406-12.152-3.859-1.953-4.096-1.985-15.526-2.139-8.979-.121-17.98.407-39.758 2.331l-28.15 2.487-1.089 3.638c-.599 2-1.734 4.894-2.523 6.429l-1.434 2.79 10.445 8.518c5.745 4.685 17.723 14.472 26.619 21.75 8.896 7.278 16.954 13.864 17.908 14.637 2.249 1.824 10.667 4.842 15.326 5.496 4.516.633 9.256.259 13.601-1.073m-117.22-42.538c8.15-2.537 17.896-11.184 20.803-18.46 1.309-3.276 1.544-5.059 1.557-11.817.015-7.806-.031-8.05-2.39-12.933-6.596-13.64-21.639-20.506-36.996-16.886-14.238 3.356-23.938 15.44-23.938 29.819 0 10.942 5.32 20.267 15.255 26.741 7.05 4.593 17.636 6.05 25.711 3.536m-92.03-43.89c18.422-2.212 33.906-4.242 34.409-4.512.504-.27 1.485-1.939 2.18-3.709.695-1.77 2.339-4.837 3.653-6.817 1.351-2.036 2.133-3.836 1.8-4.145-.324-.3-9.901-7.16-21.283-15.245-17.465-12.406-21.708-15.12-27.19-17.37-5.528-2.272-7.45-2.726-12.863-3.044-7.977-.468-11.501.319-20.343 4.54-10.381 4.956-16.214 11.575-19.719 22.378-3.357 10.345 2.037 23.852 11.275 28.23 3.03 1.438 10.471 3.531 12.933 3.639.912.04 16.73-1.737 35.15-3.949m161.5-8.25c16.415-1.991 32.16-4.218 34.994-4.948 6.97-1.797 17.285-7.204 22.11-11.588 2.155-1.959 4.958-5.294 6.228-7.41 1.955-3.256 2.312-4.465 2.321-7.87.013-4.848-1.436-8.108-5.218-11.742-3.845-3.694-8.627-5.319-16.838-5.72-7.989-.39-12.504.389-21.15 3.65-5.917 2.232-6.718 2.814-30.509 22.17-13.438 10.93-24.833 20.438-25.323 21.13-1.323 1.866.121 5.958 2.102 5.956.792-.001 14.871-1.631 31.29-3.622m-24.534-44.27c19.381-23.25 22.617-27.451 25.2-32.72 7.03-14.364 5.155-30.712-4.659-40.526-8.889-8.89-26.445-13-38.12-8.931-7.919 2.762-17.748 10.581-20.855 16.59-4.03 7.788-4.116 16.13-.595 56.33l2.459 28.07 4.355 2.222c2.395 1.222 5.4 2.974 6.677 3.894 1.277.92 2.542 1.687 2.813 1.705.27.018 10.498-11.971 22.728-26.642m-69.1 17.658c1.898-.647 3.103-1.455 3.103-2.081 0-2.078-9.359-55.02-10.349-58.54-1.575-5.605-7.14-16.466-10.697-20.877-5.749-7.131-12.998-11.423-20.464-12.12-4.048-.376-6.174.576-10.296 4.61-4.335 4.243-5.564 8.243-5.564 18.1 0 6.552.272 8.779 1.54 12.602 3.77 11.363 4.15 11.874 27.18 36.474 11.784 12.587 21.655 22.886 21.935 22.886.28 0 1.905-.476 3.611-1.057" opacity=".2"/><path d="m-515.8 488.94c-.912-.154-3.891-.61-6.621-1.014-6.068-.898-14.847-3.901-20.408-6.98-9.561-5.295-19.1-18.12-23.12-31.08-.972-3.134-1.228-6.02-1.203-13.596.028-8.647.215-10.185 1.861-15.255 1.093-3.365 3.683-8.732 6.427-13.316 2.528-4.223 4.596-7.849 4.596-8.06 0-.208-2.164.16-4.808.819-2.645.659-7.07 1.395-9.831 1.636-6.484.566-20.852-1.222-25.825-3.213-9.752-3.905-17.736-13.52-19.893-23.959-2.429-11.754 3.214-25.421 14.66-35.507 2.884-2.541 5.207-4.845 5.162-5.12-.045-.275-2.657-1.175-5.805-2-7.494-1.964-12.317-4.534-19.02-10.132-6.617-5.527-11.554-12.513-13.727-19.423-1.228-3.907-1.492-6.243-1.47-13.05.023-7.201.261-8.988 1.811-13.596 5.535-16.455 18.443-29.858 35.401-36.759 13.174-5.361 26.451-5.814 40.26-1.373 3.306 1.063 6.107 1.838 6.224 1.721.117-.117-.816-1.741-2.074-3.61-7.553-11.223-10.548-30.16-7.01-44.32 4.372-17.501 15.609-27.905 31.803-29.445 9.498-.903 19.02 1.443 27.13 6.681 8.04 5.196 13.11 10.936 19.333 21.881l3.582 6.301.461-2.695c2.119-12.383 13.05-25.797 27.22-33.411 15.388-8.267 31.954-9.183 49.604-2.742 10.667 3.893 18.13 9.766 24.494 19.286 6.587 9.848 9.595 19.488 9.519 30.505-.054 7.863-1.526 14.372-4.902 21.679-1.442 3.12-2.459 5.835-2.261 6.03.198.198 3.719-.349 7.824-1.216 9.371-1.978 23.523-2.166 30.346-.404 15.33 3.96 25.848 14.941 29.05 30.331.969 4.652.961 5.456-.112 10.915-2.576 13.11-12.196 25.04-26.366 32.681-2.498 1.348-4.548 2.602-4.554 2.786-.006.184 3.209 1.889 7.144 3.789 10.395 5.02 17.392 11.89 23.969 23.546 10.977 19.45 7.503 45.872-8.349 63.5-5.913 6.577-16.596 12.822-25.54 14.93-11.799 2.782-31.15-.298-41.914-6.67-3.707-2.195-3.872-2.232-3.516-.793.205.83.7 4.741 1.099 8.69 1.247 12.349-.883 24.547-5.741 32.875-2.749 4.712-9.258 10.758-14.481 13.45-7.968 4.106-14.272 4.778-23.864 2.541-9.277-2.163-15.04-5.575-24.19-14.312l-5.177-4.946-.783 3.161c-1.25 5.04-5.7 13.626-9.567 18.449-6.955 8.674-17.403 15.366-28.318 18.14-4.987 1.267-15.37 2.202-18.533 1.668m9.336-20.457c12.21-2.588 21.338-9.477 26.775-20.21 1.648-3.252 1.693-3.697 1.693-16.631 0-8.789-.436-17.16-1.288-24.728-.709-6.291-1.604-15.617-1.991-20.724-.386-5.107-.868-10.815-1.07-12.685l-.368-3.399-3.776-.978c-2.077-.538-5.428-1.737-7.448-2.664l-3.671-1.686-22.07 25.803c-14.991 17.527-22.578 26.918-23.654 29.28-1.857 4.071-4.304 14.555-4.304 18.438 0 3.524 2.872 12.06 5.378 15.976 4.478 7.01 12.151 12.11 21.16 14.08 5.616 1.227 9.294 1.259 14.637.126m92-22.527c4.071-2.063 6.233-4.581 8.168-9.511 1.251-3.188 1.5-5.092 1.497-11.451-.003-6.727-.223-8.215-1.864-12.602-1.023-2.736-2.7-6.645-3.726-8.688-2.622-5.219-15.469-20.532-26.01-31l-8.907-8.848-3.247 1.633c-1.786.898-5.126 2.313-7.423 3.145-3.88 1.405-4.151 1.634-3.827 3.235.192.948 1.836 10.235 3.653 20.637 2.873 16.447 3.728 20.06 6.561 27.68 3.664 9.86 7.181 15.75 12.293 20.585 7.687 7.27 15.304 9 22.831 5.186m69.45-49.29c13.64-4.183 21.561-13.232 23.985-27.399 1.712-10 .167-16.521-5.997-25.312-3.894-5.554-8.352-9.595-13.406-12.152-3.859-1.953-4.096-1.985-15.526-2.139-8.979-.121-17.98.407-39.758 2.331l-28.15 2.487-1.089 3.638c-.599 2-1.734 4.894-2.523 6.429l-1.434 2.79 10.445 8.518c5.745 4.685 17.723 14.472 26.619 21.75 8.896 7.278 16.954 13.864 17.908 14.637 2.249 1.824 10.667 4.842 15.326 5.496 4.516.633 9.256.259 13.601-1.073m-117.22-42.538c8.15-2.537 17.896-11.184 20.803-18.46 1.309-3.276 1.544-5.059 1.557-11.817.015-7.806-.031-8.05-2.39-12.933-6.596-13.64-21.639-20.506-36.996-16.886-14.238 3.356-23.938 15.44-23.938 29.819 0 10.942 5.32 20.267 15.255 26.741 7.05 4.593 17.636 6.05 25.711 3.536m-92.03-43.89c18.422-2.212 33.906-4.242 34.409-4.512.504-.27 1.485-1.939 2.18-3.709.695-1.77 2.339-4.837 3.653-6.817 1.351-2.036 2.133-3.836 1.8-4.145-.324-.3-9.901-7.16-21.283-15.245-17.465-12.406-21.708-15.12-27.19-17.37-5.528-2.272-7.45-2.726-12.863-3.044-7.977-.468-11.501.319-20.343 4.54-10.381 4.956-16.214 11.575-19.719 22.378-3.357 10.345 2.037 23.852 11.275 28.23 3.03 1.438 10.471 3.531 12.933 3.639.912.04 16.73-1.737 35.15-3.949m161.5-8.25c16.415-1.991 32.16-4.218 34.994-4.948 6.97-1.797 17.285-7.204 22.11-11.588 2.155-1.959 4.958-5.294 6.228-7.41 1.955-3.256 2.312-4.465 2.321-7.87.013-4.848-1.436-8.108-5.218-11.742-3.845-3.694-8.627-5.319-16.838-5.72-7.989-.39-12.504.389-21.15 3.65-5.917 2.232-6.718 2.814-30.509 22.17-13.438 10.93-24.833 20.438-25.323 21.13-1.323 1.866.121 5.958 2.102 5.956.792-.001 14.871-1.631 31.29-3.622m-24.534-44.27c19.381-23.25 22.617-27.451 25.2-32.72 7.03-14.364 5.155-30.712-4.659-40.526-8.889-8.89-26.445-13-38.12-8.931-7.919 2.762-17.748 10.581-20.855 16.59-4.03 7.788-4.116 16.13-.595 56.33l2.459 28.07 4.355 2.222c2.395 1.222 5.4 2.974 6.677 3.894 1.277.92 2.542 1.687 2.813 1.705.27.018 10.498-11.971 22.728-26.642m-69.1 17.658c1.898-.647 3.103-1.455 3.103-2.081 0-2.078-9.359-55.02-10.349-58.54-1.575-5.605-7.14-16.466-10.697-20.877-5.749-7.131-12.998-11.423-20.464-12.12-4.048-.376-6.174.576-10.296 4.61-4.335 4.243-5.564 8.243-5.564 18.1 0 6.552.272 8.779 1.54 12.602 3.77 11.363 4.15 11.874 27.18 36.474 11.784 12.587 21.655 22.886 21.935 22.886.28 0 1.905-.476 3.611-1.057" fill="#dcdbdb"/></g><path d="m78.66 6c-14.863 0-28.67 4.43-40.16 12.03v475.94c11.486 7.602 25.293 12.03 40.16 12.03h68.844v-500h-68.844" opacity=".05" fill="url(#1)"/><path d="m147.5 6v500h109v-500h-109" opacity=".05" fill="url(#2)"/><path d="m256.5 6v500h109v-500h-109" opacity=".05" fill="url(#3)"/><path d="m365.5 6v500h67.844c14.854 0 28.643-4.438 40.13-12.03v-475.94c-11.482-7.593-25.27-12.03-40.12-12.03h-67.844" opacity=".05" fill="url(#4)"/><path d="m38.5 18.03c-19.614 12.981-32.5 35.24-32.5 60.63v354.69c0 25.381 12.886 47.644 32.5 60.63v-475.94" opacity=".05" fill="url(#6)"/><path d="m473.47 18.03v475.94c19.627-12.979 32.531-35.23 32.531-60.62v-354.69c0-25.391-12.905-47.646-32.531-60.62" opacity=".05" fill="url(#5)"/></svg>