<?xml version="1.0" encoding="UTF-8" standalone="no"?>
<svg
   xmlns:dc="http://purl.org/dc/elements/1.1/"
   xmlns:cc="http://creativecommons.org/ns#"
   xmlns:rdf="http://www.w3.org/1999/02/22-rdf-syntax-ns#"
   xmlns:svg="http://www.w3.org/2000/svg"
   xmlns="http://www.w3.org/2000/svg"
   xmlns:xlink="http://www.w3.org/1999/xlink"
   xmlns:sodipodi="http://sodipodi.sourceforge.net/DTD/sodipodi-0.dtd"
   xmlns:inkscape="http://www.inkscape.org/namespaces/inkscape"
   viewBox="0 0 512 512"
   id="svg2"
   version="1.1"
   inkscape:version="0.48.4 r9939"
   width="100%"
   height="100%"
   sodipodi:docname="0 base.svg">
  <sodipodi:namedview
     pagecolor="#444444"
     bordercolor="#666666"
     borderopacity="1"
     objecttolerance="10"
     gridtolerance="10"
     guidetolerance="10"
     inkscape:pageopacity="0"
     inkscape:pageshadow="2"
     inkscape:window-width="1310"
     inkscape:window-height="718"
     id="namedview6"
     showgrid="false"
     showguides="true"
     inkscape:guide-bbox="true"
     inkscape:zoom="0.5181105"
     inkscape:cx="80.56468"
     inkscape:cy="196.15904"
     inkscape:window-x="54"
     inkscape:window-y="27"
     inkscape:window-maximized="1"
     inkscape:current-layer="svg2"
     inkscape:snap-midpoints="true"
     inkscape:snap-global="false">
    <sodipodi:guide
       id="guide2989"
       position="768.17591,433.35594"
       orientation="0,1" />
    <sodipodi:guide
       id="guide2995"
       position="473.05444,254.912"
       orientation="1,0" />
  </sodipodi:namedview>
  <metadata
     id="metadata10">
    <rdf:RDF>
      <cc:Work
         rdf:about="">
        <dc:format>image/svg+xml</dc:format>
        <dc:type
           rdf:resource="http://purl.org/dc/dcmitype/StillImage" />
        <dc:title></dc:title>
      </cc:Work>
    </rdf:RDF>
  </metadata>
  <defs
     id="defs8">
    <linearGradient
       id="linearGradient4379">
      <stop
         style="stop-color:#f3f3f3;stop-opacity:1;"
         offset="0"
         id="stop4381" />
      <stop
         id="stop4387"
         offset="0.5"
         style="stop-color:#eeeeee;stop-opacity:1;" />
      <stop
         style="stop-color:#ebebeb;stop-opacity:1;"
         offset="1"
         id="stop4383" />
    </linearGradient>
    <linearGradient
       id="linearGradient4996">
      <stop
         style="stop-color:#000000;stop-opacity:1;"
         offset="0"
         id="stop4998" />
      <stop
         style="stop-color:#ffffff;stop-opacity:1;"
         offset="1"
         id="stop5000" />
    </linearGradient>
    <linearGradient
       inkscape:collect="always"
       xlink:href="#linearGradient4996"
       id="linearGradient3108"
       gradientUnits="userSpaceOnUse"
       gradientTransform="matrix(1.0380952,0,0,1.4619252,-228.28943,-118.25286)"
       x1="257"
       y1="256"
       x2="362"
       y2="256" />
    <linearGradient
       inkscape:collect="always"
       xlink:href="#linearGradient4996"
       id="linearGradient3137"
       gradientUnits="userSpaceOnUse"
       gradientTransform="matrix(1.0380952,0,0,1.4619252,-119.28943,-118.25286)"
       x1="257"
       y1="256"
       x2="362"
       y2="256" />
    <linearGradient
       inkscape:collect="always"
       xlink:href="#linearGradient4996"
       id="linearGradient3141"
       gradientUnits="userSpaceOnUse"
       gradientTransform="matrix(1.0380952,0,0,1.4619252,-10.28943,-118.25286)"
       x1="257"
       y1="256"
       x2="362"
       y2="256" />
    <linearGradient
       inkscape:collect="always"
       xlink:href="#linearGradient4996"
       id="linearGradient3145"
       gradientUnits="userSpaceOnUse"
       gradientTransform="matrix(1.0283468,0,0,1.4619252,101.21591,-118.25286)"
       x1="257"
       y1="256"
       x2="362"
       y2="256" />
    <linearGradient
       inkscape:collect="always"
       xlink:href="#linearGradient4996"
       id="linearGradient3149"
       gradientUnits="userSpaceOnUse"
       gradientTransform="matrix(1.0283468,0,0,1.4619252,209.19233,-118.25286)"
       x1="257"
       y1="256"
       x2="362"
       y2="256" />
    <linearGradient
       inkscape:collect="always"
       xlink:href="#linearGradient4996"
       id="linearGradient3153"
       gradientUnits="userSpaceOnUse"
       gradientTransform="matrix(1.0380952,0,0,1.4619252,-337.28943,-118.25286)"
       x1="257"
       y1="256"
       x2="362"
       y2="256" />
    <filter
       inkscape:collect="always"
       id="filter4375">
      <feGaussianBlur
         inkscape:collect="always"
         stdDeviation="3.7725"
         id="feGaussianBlur4377" />
    </filter>
    <linearGradient
       inkscape:collect="always"
       xlink:href="#linearGradient4379"
       id="linearGradient4385"
       x1="243.40109"
       y1="19.563948"
       x2="243.40109"
       y2="504.01736"
       gradientUnits="userSpaceOnUse" />
    <linearGradient
       y2="256"
       x2="362"
       y1="256"
       x1="257"
       gradientTransform="matrix(1.0380952,0,0,1.4619252,-337.28943,-118.25286)"
       gradientUnits="userSpaceOnUse"
       id="linearGradient3153-0"
       xlink:href="#linearGradient4996-6"
       inkscape:collect="always" />
    <linearGradient
       y2="256"
       x2="362"
       y1="256"
       x1="257"
       gradientTransform="matrix(1.0283468,0,0,1.4619252,209.19233,-118.25286)"
       gradientUnits="userSpaceOnUse"
       id="linearGradient3149-4"
       xlink:href="#linearGradient4996-6"
       inkscape:collect="always" />
    <linearGradient
       y2="256"
       x2="362"
       y1="256"
       x1="257"
       gradientTransform="matrix(1.0283468,0,0,1.4619252,101.21591,-118.25286)"
       gradientUnits="userSpaceOnUse"
       id="linearGradient3145-0"
       xlink:href="#linearGradient4996-6"
       inkscape:collect="always" />
    <linearGradient
       y2="256"
       x2="362"
       y1="256"
       x1="257"
       gradientTransform="matrix(1.0380952,0,0,1.4619252,-10.28943,-118.25286)"
       gradientUnits="userSpaceOnUse"
       id="linearGradient3141-7"
       xlink:href="#linearGradient4996-6"
       inkscape:collect="always" />
    <linearGradient
       y2="256"
       x2="362"
       y1="256"
       x1="257"
       gradientTransform="matrix(1.0380952,0,0,1.4619252,-119.28943,-118.25286)"
       gradientUnits="userSpaceOnUse"
       id="linearGradient3137-7"
       xlink:href="#linearGradient4996-6"
       inkscape:collect="always" />
    <linearGradient
       y2="256"
       x2="362"
       y1="256"
       x1="257"
       gradientTransform="matrix(1.0380952,0,0,1.4619252,-228.28943,-118.25286)"
       gradientUnits="userSpaceOnUse"
       id="linearGradient3108-7"
       xlink:href="#linearGradient4996-6"
       inkscape:collect="always" />
    <linearGradient
       id="linearGradient4996-6">
      <stop
         id="stop4998-7"
         offset="0"
         style="stop-color:#000000;stop-opacity:1;" />
      <stop
         id="stop5000-6"
         offset="1"
         style="stop-color:#ffffff;stop-opacity:1;" />
    </linearGradient>
  </defs>
  <path
     style="opacity:1;fill:#000000;fill-opacity:0.17647059000000001;stroke:none;filter:url(#filter4375)"
     d="M 78.65625 6 C 77.727284 6 76.7954 6.028201 75.875 6.0625 C 75.802369 6.0652118 75.728825 6.059577 75.65625 6.0625 C 74.988725 6.0893847 74.318909 6.1428818 73.65625 6.1875 C 73.280206 6.2128391 72.905683 6.2502503 72.53125 6.28125 C 71.885867 6.3345848 71.234134 6.3675421 70.59375 6.4375 C 69.628992 6.5431372 68.67162 6.6697176 67.71875 6.8125 C 67.666309 6.8203518 67.614904 6.835787 67.5625 6.84375 C 66.480857 7.0082531 65.408958 7.1949037 64.34375 7.40625 C 63.884894 7.4971842 63.424398 7.5880194 62.96875 7.6875 C 62.579098 7.7726525 62.199755 7.8774077 61.8125 7.96875 C 61.165363 8.1211825 60.515221 8.2679802 59.875 8.4375 C 58.977088 8.6758086 58.071221 8.9162011 57.1875 9.1875 C 56.976031 9.2523648 56.773131 9.3395193 56.5625 9.40625 C 55.571868 9.72038 54.596482 10.051502 53.625 10.40625 C 52.80836 10.704455 51.989948 11.0175 51.1875 11.34375 C 50.897854 11.461445 50.600246 11.566197 50.3125 11.6875 C 50.176196 11.744981 50.042123 11.816716 49.90625 11.875 C 49.824668 11.909989 49.737675 11.933472 49.65625 11.96875 C 48.938842 12.279643 48.236264 12.604441 47.53125 12.9375 C 47.384379 13.006849 47.240073 13.085948 47.09375 13.15625 C 46.146324 13.611669 45.205003 14.099116 44.28125 14.59375 C 44.010496 14.738777 43.737417 14.882905 43.46875 15.03125 C 43.054856 15.259696 42.65884 15.513784 42.25 15.75 C 41.730466 16.0502 41.198724 16.34365 40.6875 16.65625 C 39.949085 17.107771 39.220561 17.554376 38.5 18.03125 C 38.468637 18.052007 38.437579 18.072946 38.40625 18.09375 C 37.950536 18.396369 37.510847 18.718679 37.0625 19.03125 C 36.93921 19.117203 36.810226 19.194551 36.6875 19.28125 C 36.163693 19.651283 35.638368 20.022798 35.125 20.40625 C 33.290177 21.777117 31.50659 23.24624 29.8125 24.78125 C 29.795638 24.79654 29.766847 24.797194 29.75 24.8125 C 29.224497 25.289542 28.729955 25.789121 28.21875 26.28125 C 27.694886 26.785782 27.164727 27.292488 26.65625 27.8125 C 26.144503 28.335837 25.652037 28.867606 25.15625 29.40625 C 24.215559 30.427897 23.318806 31.456477 22.4375 32.53125 C 21.806506 33.300601 21.193184 34.110796 20.59375 34.90625 C 20.48231 35.054221 20.360329 35.194896 20.25 35.34375 C 19.723598 36.053613 19.21948 36.770435 18.71875 37.5 C 18.60915 37.659719 18.48335 37.808107 18.375 37.96875 C 18.362086 37.987892 18.356646 38.012094 18.34375 38.03125 C 18.259632 38.156225 18.177108 38.280721 18.09375 38.40625 C 17.623298 39.114511 17.164683 39.836916 16.71875 40.5625 C 16.647328 40.678799 16.570784 40.789515 16.5 40.90625 C 15.924756 41.854127 15.376169 42.805321 14.84375 43.78125 C 14.692065 44.059253 14.554393 44.344787 14.40625 44.625 C 14.225983 44.96599 14.049974 45.312036 13.875 45.65625 C 13.63151 46.13532 13.389361 46.608561 13.15625 47.09375 C 12.730634 47.978942 12.32789 48.876356 11.9375 49.78125 C 11.697576 50.33769 11.476337 50.90513 11.25 51.46875 C 11.211649 51.564217 11.162958 51.654331 11.125 51.75 C 10.878581 52.371259 10.635931 52.995354 10.40625 53.625 C 10.074634 54.533596 9.7648227 55.449625 9.46875 56.375 C 9.3582604 56.72046 9.2304578 57.058529 9.125 57.40625 C 8.8244173 58.396667 8.5403511 59.398152 8.28125 60.40625 C 8.2731511 60.437819 8.2580577 60.468414 8.25 60.5 C 7.9825799 61.546421 7.7529168 62.591906 7.53125 63.65625 C 7.4967817 63.821826 7.4708457 63.990255 7.4375 64.15625 C 7.011883 66.273722 6.6758491 68.412789 6.4375 70.59375 C 6.4022606 70.916326 6.3747851 71.238642 6.34375 71.5625 C 6.2537906 72.500662 6.1792302 73.457785 6.125 74.40625 C 6.1084109 74.696568 6.1069502 74.990008 6.09375 75.28125 C 6.0430557 76.400053 6 77.5245 6 78.65625 L 6 433.34375 L 6 439.34375 C 6 479.58856 38.411442 512 78.65625 512 L 433.34375 512 C 473.58856 512 506 479.58856 506 439.34375 L 506 84.65625 L 506 78.65625 C 506 77.397481 505.96893 76.148858 505.90625 74.90625 C 505.88997 74.583084 505.8642 74.259513 505.84375 73.9375 C 505.7854 73.020381 505.7168 72.094823 505.625 71.1875 C 505.60482 70.987629 505.58428 70.793129 505.5625 70.59375 C 505.31685 68.348594 504.97537 66.146302 504.53125 63.96875 C 504.51005 63.864628 504.49039 63.760207 504.46875 63.65625 C 504.24208 62.56918 503.99317 61.505818 503.71875 60.4375 C 503.70802 60.395586 503.69831 60.354385 503.6875 60.3125 C 503.49794 59.580022 503.27406 58.848167 503.0625 58.125 C 502.85099 57.400787 502.63943 56.683269 502.40625 55.96875 C 502.14838 55.179706 501.87757 54.401717 501.59375 53.625 C 501.36407 52.995354 501.12142 52.371259 500.875 51.75 C 500.837 51.654331 500.7884 51.564216 500.75 51.46875 C 500.51143 50.874675 500.28491 50.273592 500.03125 49.6875 C 499.6536 48.816464 499.2541 47.946468 498.84375 47.09375 C 498.61064 46.608561 498.36849 46.13532 498.125 45.65625 C 497.83796 45.092248 497.55122 44.524042 497.25 43.96875 C 497.19912 43.874852 497.14503 43.781145 497.09375 43.6875 C 496.58077 42.751755 496.05244 41.816114 495.5 40.90625 C 495.28765 40.556046 495.06183 40.221258 494.84375 39.875 C 494.43899 39.233117 494.04913 38.596743 493.625 37.96875 C 492.81616 36.769544 491.93973 35.615178 491.0625 34.46875 C 490.80093 34.127365 490.54872 33.774036 490.28125 33.4375 C 490.09255 33.199768 489.91036 32.954032 489.71875 32.71875 C 489.62597 32.604964 489.53096 32.488208 489.4375 32.375 C 486.72765 29.088725 483.7416 26.073745 480.5 23.3125 C 480.20738 23.063287 479.92162 22.807113 479.625 22.5625 C 479.35716 22.341642 479.08356 22.123311 478.8125 21.90625 C 478.17676 21.397149 477.52808 20.89412 476.875 20.40625 C 473.70458 18.038152 470.32509 15.925311 466.78125 14.09375 C 466.16445 13.77467 465.53332 13.458103 464.90625 13.15625 C 464.75142 13.08186 464.59295 13.010824 464.4375 12.9375 C 463.65263 12.56654 462.86266 12.218496 462.0625 11.875 C 461.57467 11.666006 461.08708 11.448572 460.59375 11.25 C 459.85871 10.953561 459.12187 10.67922 458.375 10.40625 C 457.98321 10.263334 457.58245 10.13635 457.1875 10 C 456.46909 9.7515393 455.72856 9.4764502 455 9.25 C 454.8864 9.2148134 454.77009 9.1908956 454.65625 9.15625 C 454.16839 9.007218 453.67972 8.8890238 453.1875 8.75 C 452.83049 8.6495592 452.48425 8.5326228 452.125 8.4375 C 452.10552 8.4323219 452.08198 8.4426624 452.0625 8.4375 C 451.22583 8.2167138 450.37964 8.0040441 449.53125 7.8125 C 449.49951 7.8053012 449.46926 7.7884074 449.4375 7.78125 C 448.78627 7.6351458 448.12658 7.5035858 447.46875 7.375 C 446.46573 7.1778899 445.45509 6.9992871 444.4375 6.84375 C 444.37488 6.8342345 444.31267 6.8218566 444.25 6.8125 C 443.29794 6.6695311 442.37023 6.5432958 441.40625 6.4375 C 440.57048 6.3461977 439.71923 6.2816821 438.875 6.21875 C 438.69908 6.2055933 438.52002 6.1994068 438.34375 6.1875 C 437.60905 6.1380308 436.86567 6.0901545 436.125 6.0625 C 435.20525 6.0281378 434.27212 6 433.34375 6 L 147.5 6 L 78.65625 6 z "
     id="path3492" />
  <rect
     style="opacity:0.15;fill:#000000;fill-opacity:1;stroke:none"
     id="rect5028"
     width="500"
     height="500"
     x="6"
     y="12"
     rx="72.644058"
     ry="72.644058" />
  <rect
     ry="72.644058"
     rx="72.644058"
     y="6"
     x="6"
     height="500"
     width="500"
     id="rect4979"
     style="fill:url(#linearGradient4385);fill-opacity:1;stroke:none" />
  <rect
     style="fill:#8db173;fill-opacity:1;stroke:none"
     id="rect4981"
     width="434.99997"
     height="434.99997"
     x="38.500011"
     y="38.500011"
     rx="63.200329"
     ry="63.200329" />
  <path
     style="fill:#000000;fill-opacity:1;stroke:none;opacity:0.2"
     d="M 101.6875 38.5 C 66.674518 38.5 38.5 66.674518 38.5 101.6875 L 38.5 116.6875 C 38.5 81.674518 66.674518 53.5 101.6875 53.5 L 410.3125 53.5 C 445.32548 53.5 473.5 81.674518 473.5 116.6875 L 473.5 101.6875 C 473.5 66.674518 445.32548 38.5 410.3125 38.5 L 101.6875 38.5 z "
     id="rect3187" />
  <path
     style="fill:#ffffff;fill-opacity:1;stroke:none"
     d="M 78.65625 6 C 38.411442 6 6 38.411442 6 78.65625 L 6 85.65625 C 6 45.411442 38.411442 13 78.65625 13 L 433.34375 13 C 473.58856 13 506 45.411442 506 85.65625 L 506 78.65625 C 506 38.411442 473.58856 6 433.34375 6 L 78.65625 6 z "
     id="rect4349" />
  <g
     id="g3067"
     transform="translate(716.19181,-73.097495)">
    <path
       style="opacity:0.2;fill:#000000;fill-opacity:1"
       d="m -500.80121,503.94455 c -0.91196,-0.15378 -3.89132,-0.61 -6.62081,-1.01383 -6.06767,-0.89771 -14.84745,-3.90077 -20.40824,-6.98049 -9.56102,-5.29515 -19.09982,-18.11857 -23.11961,-31.08068 -0.97194,-3.13412 -1.22757,-6.02232 -1.20339,-13.59643 0.0276,-8.64747 0.21526,-10.18534 1.86131,-15.25454 1.0928,-3.36542 3.68299,-8.73221 6.42669,-13.31592 2.52785,-4.2231 4.59609,-7.84873 4.59609,-8.05695 0,-0.20821 -2.16382,0.16036 -4.80849,0.81906 -2.64468,0.6587 -7.06877,1.39488 -9.83132,1.63595 -6.48442,0.56586 -20.85151,-1.22166 -25.82529,-3.21312 -9.75235,-3.90477 -17.73574,-13.52006 -19.89259,-23.95887 -2.42855,-11.75384 3.21435,-25.42083 14.66025,-35.50681 2.88389,-2.54125 5.20672,-4.84524 5.16183,-5.11997 -0.0449,-0.27473 -2.65722,-1.17472 -5.8052,-1.99996 -7.49369,-1.96448 -12.31685,-4.53392 -19.01952,-10.13226 -6.61716,-5.52693 -11.55418,-12.51263 -13.72707,-19.42331 -1.22848,-3.90706 -1.49164,-6.2431 -1.47006,-13.04949 0.0228,-7.20078 0.26089,-8.98794 1.81112,-13.59644 5.53512,-16.45464 18.44314,-29.85773 35.40106,-36.75881 13.17363,-5.36104 26.45149,-5.81397 40.26027,-1.3733 3.30627,1.06323 6.10705,1.8375 6.22396,1.72059 0.11691,-0.11691 -0.81626,-1.7414 -2.07372,-3.60997 -7.5528,-11.22342 -10.54805,-30.16061 -7.01043,-44.32278 4.37161,-17.50086 15.60862,-27.90464 31.80308,-29.44484 9.49838,-0.90337 19.0242,1.44258 27.12936,6.68119 8.03988,5.19643 13.11054,10.93553 19.33295,21.8815 l 3.58178,6.30078 0.46121,-2.69472 c 2.11941,-12.38301 13.04714,-25.79653 27.21908,-33.41078 15.38757,-8.26736 31.95407,-9.18302 49.60378,-2.74167 10.66743,3.89313 18.1261,9.76586 24.49381,19.28568 6.58712,9.84786 9.59543,19.48829 9.5191,30.50496 -0.0544,7.86319 -1.52618,14.37162 -4.90205,21.67868 -1.44151,3.12016 -2.45891,5.83503 -2.26089,6.03306 0.19804,0.19803 3.71893,-0.34897 7.82422,-1.21555 9.37102,-1.97812 23.52252,-2.1663 30.34596,-0.40352 15.33008,3.9604 25.84779,14.94051 29.05338,30.33069 0.96901,4.65227 0.96077,5.45633 -0.11186,10.91547 -2.57607,13.11093 -12.19625,25.0351 -26.36624,32.68085 -2.49837,1.34806 -4.54756,2.60183 -4.55375,2.78618 -0.006,0.18434 3.20868,1.88939 7.14416,3.789 10.39522,5.01767 17.39153,11.89028 23.96942,23.54568 10.97689,19.44997 7.50308,45.87218 -8.34898,63.50348 -5.91328,6.577 -16.59577,12.82176 -25.54048,14.93044 -11.79899,2.78156 -31.15026,-0.29806 -41.9145,-6.6704 -3.70723,-2.19465 -3.87228,-2.2319 -3.51635,-0.79339 0.2054,0.83015 0.69985,4.74056 1.09876,8.6898 1.24733,12.34852 -0.88283,24.54728 -5.74073,32.87542 -2.74864,4.71213 -9.25835,10.75813 -14.48149,13.44992 -7.96781,4.10629 -14.27208,4.77756 -23.86408,2.54099 -9.27675,-2.16305 -15.0424,-5.5746 -24.18761,-14.31189 l -5.17652,-4.94562 -0.78298,3.16069 c -1.24961,5.04434 -5.70001,13.62611 -9.56736,18.44885 -6.9554,8.67366 -17.4034,15.36597 -28.31846,18.13899 -4.98708,1.26698 -15.36993,2.20171 -18.53256,1.66841 z m 9.33637,-20.45712 c 12.20968,-2.58824 21.3381,-9.47722 26.77497,-20.20636 1.64815,-3.25246 1.69338,-3.6967 1.69338,-16.6306 0,-8.78945 -0.4362,-17.16189 -1.2883,-24.72776 -0.70857,-6.29139 -1.60446,-15.61731 -1.99087,-20.72427 -0.38642,-5.10695 -0.86811,-10.81506 -1.07044,-12.6847 l -0.36786,-3.39933 -3.77624,-0.97806 c -2.07693,-0.53793 -5.4284,-1.73691 -7.4477,-2.6644 l -3.67145,-1.68634 -22.06962,25.80346 c -14.99122,17.5275 -22.57776,26.91759 -23.65394,29.27716 -1.85683,4.07123 -4.30385,14.55467 -4.30385,18.43846 0,3.52368 2.87233,12.05637 5.37812,15.97648 4.47816,7.00574 12.15144,12.11233 21.15704,14.08003 5.61582,1.22705 9.29415,1.25878 14.63676,0.12623 z m 92.00136,-22.52734 c 4.07067,-2.06277 6.23348,-4.58106 8.16824,-9.51082 1.25134,-3.18837 1.50018,-5.09174 1.49714,-11.45125 -0.003,-6.72671 -0.22328,-8.21458 -1.86374,-12.60157 -1.02304,-2.73587 -2.69967,-6.64528 -3.72584,-8.68759 -2.6221,-5.21855 -15.4695,-20.53176 -26.00923,-31.00119 l -8.90749,-8.84808 -3.24704,1.63318 c -1.78588,0.89824 -5.12623,2.31341 -7.42302,3.14479 -3.88028,1.40459 -4.15124,1.63369 -3.82677,3.23547 0.19207,0.94812 1.83573,10.23469 3.65258,20.63683 2.87258,16.44651 3.72819,20.05629 6.56075,27.67972 3.66369,9.86029 7.18083,15.74973 12.29304,20.58464 7.68675,7.26981 15.30441,9.00007 22.83138,5.18587 z m 69.44675,-49.29085 c 13.63955,-4.18347 21.5611,-13.23236 23.98517,-27.39857 1.71163,-10.00276 0.16735,-16.52099 -5.99696,-25.31248 -3.89404,-5.55364 -8.35198,-9.59462 -13.40601,-12.15209 -3.85919,-1.95287 -4.09598,-1.98549 -15.52567,-2.13896 -8.97894,-0.12057 -17.98013,0.4071 -39.75774,2.33068 l -28.15101,2.48652 -1.08902,3.63849 c -0.59896,2.00117 -1.73417,4.89401 -2.52269,6.42854 l -1.43367,2.79004 10.44486,8.51789 c 5.74468,4.68483 17.72326,14.47227 26.61906,21.74985 8.89581,7.27759 16.95419,13.86437 17.9075,14.63729 2.24923,1.82361 10.66736,4.84241 15.32554,5.49585 4.51566,0.63344 9.25632,0.25941 13.60064,-1.07305 z m -117.21779,-42.53832 c 8.15042,-2.53669 17.89565,-11.18448 20.80281,-18.46012 1.30896,-3.2759 1.54385,-5.05911 1.55657,-11.81698 0.0147,-7.80606 -0.0312,-8.05441 -2.39048,-12.93319 -6.59606,-13.64012 -21.63866,-20.50614 -36.99562,-16.88626 -14.23756,3.35603 -23.9384,15.44013 -23.9384,29.81945 0,10.94179 5.31954,20.2669 15.25454,26.74112 7.04791,4.59282 17.63615,6.04903 25.71058,3.53598 z m -92.03465,-43.88997 c 18.42151,-2.21171 33.90575,-4.24209 34.40942,-4.51197 0.50366,-0.26987 1.48457,-1.93875 2.17978,-3.70863 0.69521,-1.76988 2.33898,-4.83743 3.6528,-6.8168 1.35141,-2.03598 2.13294,-3.8359 1.79965,-4.14473 -0.324,-0.30025 -9.90127,-7.16047 -21.28281,-15.24495 -17.46501,-12.40566 -21.70771,-15.11574 -27.19286,-17.36975 -5.52819,-2.2717 -7.44995,-2.72647 -12.86309,-3.04399 -7.97673,-0.46789 -11.50127,0.31862 -20.34324,4.53964 -10.38139,4.95593 -16.21371,11.57452 -19.71911,22.37752 -3.35675,10.34492 2.03715,23.85223 11.27451,28.23341 3.03173,1.43793 10.47148,3.53122 12.93319,3.63897 0.91196,0.0399 16.73025,-1.73701 35.15176,-3.94872 z m 161.49911,-8.24977 c 16.4152,-1.99137 32.16235,-4.21785 34.99366,-4.94772 6.97005,-1.79679 17.28491,-7.20382 22.10664,-11.58826 2.15481,-1.95939 4.95756,-5.29378 6.22832,-7.40976 1.95548,-3.2561 2.31215,-4.46539 2.32134,-7.87039 0.0131,-4.84758 -1.43573,-8.10769 -5.21846,-11.74247 -3.84454,-3.69418 -8.62669,-5.31862 -16.8378,-5.71961 -7.98893,-0.39012 -12.50409,0.38913 -21.15101,3.6504 -5.91707,2.23168 -6.71831,2.8138 -30.50907,22.16539 -13.43783,10.93044 -24.83304,20.43837 -25.32268,21.12875 -1.3234,1.86592 0.121,5.95772 2.10237,5.95577 0.79247,-6.6e-4 14.87148,-1.63073 31.28669,-3.6221 z m -24.53415,-44.27471 c 19.38139,-23.24925 22.61694,-27.45077 25.19702,-32.71956 7.03396,-14.36403 5.15474,-30.71158 -4.65863,-40.52607 -8.88884,-8.88985 -26.44484,-13.00312 -38.12003,-8.9313 -7.91855,2.76166 -17.74775,10.58055 -20.85529,16.58987 -4.02743,7.78819 -4.11554,16.13406 -0.59471,56.3336 l 2.4589,28.07474 4.35543,2.22206 c 2.39549,1.22213 5.40005,2.97447 6.67679,3.8941 1.27673,0.91963 2.54237,1.68668 2.81251,1.70456 0.27015,0.0179 10.49775,-11.97101 22.72801,-26.642 z m -69.10094,17.65844 c 1.89827,-0.64681 3.10273,-1.45466 3.10273,-2.08104 0,-2.07843 -9.35924,-55.0208 -10.34936,-58.54314 -1.57542,-5.60459 -7.14027,-16.46572 -10.6966,-20.87699 -5.74933,-7.13147 -12.99753,-11.42348 -20.4639,-12.11766 -4.04786,-0.37634 -6.17413,0.57572 -10.29608,4.61024 -4.33516,4.24319 -5.56438,8.24253 -5.56438,18.10418 0,6.55236 0.27222,8.77936 1.54035,12.60157 3.77011,11.36336 4.15049,11.87378 27.18148,36.47399 11.78439,12.58733 21.65497,22.88605 21.9346,22.88605 0.27964,0 1.90466,-0.47574 3.61116,-1.0572 z"
       id="path3065"
       inkscape:connector-curvature="0" />
    <path
       inkscape:connector-curvature="0"
       id="path3063"
       d="m -515.80121,488.94455 c -0.91196,-0.15378 -3.89132,-0.61 -6.62081,-1.01383 -6.06767,-0.89771 -14.84745,-3.90077 -20.40824,-6.98049 -9.56102,-5.29515 -19.09982,-18.11857 -23.11961,-31.08068 -0.97194,-3.13412 -1.22757,-6.02232 -1.20339,-13.59643 0.0276,-8.64747 0.21526,-10.18534 1.86131,-15.25454 1.0928,-3.36542 3.68299,-8.73221 6.42669,-13.31592 2.52785,-4.2231 4.59609,-7.84873 4.59609,-8.05695 0,-0.20821 -2.16382,0.16036 -4.80849,0.81906 -2.64468,0.6587 -7.06877,1.39488 -9.83132,1.63595 -6.48442,0.56586 -20.85151,-1.22166 -25.82529,-3.21312 -9.75235,-3.90477 -17.73574,-13.52006 -19.89259,-23.95887 -2.42855,-11.75384 3.21435,-25.42083 14.66025,-35.50681 2.88389,-2.54125 5.20672,-4.84524 5.16183,-5.11997 -0.0449,-0.27473 -2.65722,-1.17472 -5.8052,-1.99996 -7.49369,-1.96448 -12.31685,-4.53392 -19.01952,-10.13226 -6.61716,-5.52693 -11.55418,-12.51263 -13.72707,-19.42331 -1.22848,-3.90706 -1.49164,-6.2431 -1.47006,-13.04949 0.0228,-7.20078 0.26089,-8.98794 1.81112,-13.59644 5.53512,-16.45464 18.44314,-29.85773 35.40106,-36.75881 13.17363,-5.36104 26.45149,-5.81397 40.26027,-1.3733 3.30627,1.06323 6.10705,1.8375 6.22396,1.72059 0.11691,-0.11691 -0.81626,-1.7414 -2.07372,-3.60997 -7.5528,-11.22342 -10.54805,-30.16061 -7.01043,-44.32278 4.37161,-17.50086 15.60862,-27.90464 31.80308,-29.44484 9.49838,-0.90337 19.0242,1.44258 27.12936,6.68119 8.03988,5.19643 13.11054,10.93553 19.33295,21.8815 l 3.58178,6.30078 0.46121,-2.69472 c 2.11941,-12.38301 13.04714,-25.79653 27.21908,-33.41078 15.38757,-8.26736 31.95407,-9.18302 49.60378,-2.74167 10.66743,3.89313 18.1261,9.76586 24.49381,19.28568 6.58712,9.84786 9.59543,19.48829 9.5191,30.50496 -0.0544,7.86319 -1.52618,14.37162 -4.90205,21.67868 -1.44151,3.12016 -2.45891,5.83503 -2.26089,6.03306 0.19804,0.19803 3.71893,-0.34897 7.82422,-1.21555 9.37102,-1.97812 23.52252,-2.1663 30.34596,-0.40352 15.33008,3.9604 25.84779,14.94051 29.05338,30.33069 0.96901,4.65227 0.96077,5.45633 -0.11186,10.91547 -2.57607,13.11093 -12.19625,25.0351 -26.36624,32.68085 -2.49837,1.34806 -4.54756,2.60183 -4.55375,2.78618 -0.006,0.18434 3.20868,1.88939 7.14416,3.789 10.39522,5.01767 17.39153,11.89028 23.96942,23.54568 10.97689,19.44997 7.50308,45.87218 -8.34898,63.50348 -5.91328,6.577 -16.59577,12.82176 -25.54048,14.93044 -11.79899,2.78156 -31.15026,-0.29806 -41.9145,-6.6704 -3.70723,-2.19465 -3.87228,-2.2319 -3.51635,-0.79339 0.2054,0.83015 0.69985,4.74056 1.09876,8.6898 1.24733,12.34852 -0.88283,24.54728 -5.74073,32.87542 -2.74864,4.71213 -9.25835,10.75813 -14.48149,13.44992 -7.96781,4.10629 -14.27208,4.77756 -23.86408,2.54099 -9.27675,-2.16305 -15.0424,-5.5746 -24.18761,-14.31189 l -5.17652,-4.94562 -0.78298,3.16069 c -1.24961,5.04434 -5.70001,13.62611 -9.56736,18.44885 -6.9554,8.67366 -17.4034,15.36597 -28.31846,18.13899 -4.98708,1.26698 -15.36993,2.20171 -18.53256,1.66841 z m 9.33637,-20.45712 c 12.20968,-2.58824 21.3381,-9.47722 26.77497,-20.20636 1.64815,-3.25246 1.69338,-3.6967 1.69338,-16.6306 0,-8.78945 -0.4362,-17.16189 -1.2883,-24.72776 -0.70857,-6.29139 -1.60446,-15.61731 -1.99087,-20.72427 -0.38642,-5.10695 -0.86811,-10.81506 -1.07044,-12.6847 l -0.36786,-3.39933 -3.77624,-0.97806 c -2.07693,-0.53793 -5.4284,-1.73691 -7.4477,-2.6644 l -3.67145,-1.68634 -22.06962,25.80346 c -14.99122,17.5275 -22.57776,26.91759 -23.65394,29.27716 -1.85683,4.07123 -4.30385,14.55467 -4.30385,18.43846 0,3.52368 2.87233,12.05637 5.37812,15.97648 4.47816,7.00574 12.15144,12.11233 21.15704,14.08003 5.61582,1.22705 9.29415,1.25878 14.63676,0.12623 z m 92.00136,-22.52734 c 4.07067,-2.06277 6.23348,-4.58106 8.16824,-9.51082 1.25134,-3.18837 1.50018,-5.09174 1.49714,-11.45125 -0.003,-6.72671 -0.22328,-8.21458 -1.86374,-12.60157 -1.02304,-2.73587 -2.69967,-6.64528 -3.72584,-8.68759 -2.6221,-5.21855 -15.4695,-20.53176 -26.00923,-31.00119 l -8.90749,-8.84808 -3.24704,1.63318 c -1.78588,0.89824 -5.12623,2.31341 -7.42302,3.14479 -3.88028,1.40459 -4.15124,1.63369 -3.82677,3.23547 0.19207,0.94812 1.83573,10.23469 3.65258,20.63683 2.87258,16.44651 3.72819,20.05629 6.56075,27.67972 3.66369,9.86029 7.18083,15.74973 12.29304,20.58464 7.68675,7.26981 15.30441,9.00007 22.83138,5.18587 z m 69.44675,-49.29085 c 13.63955,-4.18347 21.5611,-13.23236 23.98517,-27.39857 1.71163,-10.00276 0.16735,-16.52099 -5.99696,-25.31248 -3.89404,-5.55364 -8.35198,-9.59462 -13.40601,-12.15209 -3.85919,-1.95287 -4.09598,-1.98549 -15.52567,-2.13896 -8.97894,-0.12057 -17.98013,0.4071 -39.75774,2.33068 l -28.15101,2.48652 -1.08902,3.63849 c -0.59896,2.00117 -1.73417,4.89401 -2.52269,6.42854 l -1.43367,2.79004 10.44486,8.51789 c 5.74468,4.68483 17.72326,14.47227 26.61906,21.74985 8.89581,7.27759 16.95419,13.86437 17.9075,14.63729 2.24923,1.82361 10.66736,4.84241 15.32554,5.49585 4.51566,0.63344 9.25632,0.25941 13.60064,-1.07305 z m -117.21779,-42.53832 c 8.15042,-2.53669 17.89565,-11.18448 20.80281,-18.46012 1.30896,-3.2759 1.54385,-5.05911 1.55657,-11.81698 0.0147,-7.80606 -0.0312,-8.05441 -2.39048,-12.93319 -6.59606,-13.64012 -21.63866,-20.50614 -36.99562,-16.88626 -14.23756,3.35603 -23.9384,15.44013 -23.9384,29.81945 0,10.94179 5.31954,20.2669 15.25454,26.74112 7.04791,4.59282 17.63615,6.04903 25.71058,3.53598 z m -92.03465,-43.88997 c 18.42151,-2.21171 33.90575,-4.24209 34.40942,-4.51197 0.50366,-0.26987 1.48457,-1.93875 2.17978,-3.70863 0.69521,-1.76988 2.33898,-4.83743 3.6528,-6.8168 1.35141,-2.03598 2.13294,-3.8359 1.79965,-4.14473 -0.324,-0.30025 -9.90127,-7.16047 -21.28281,-15.24495 -17.46501,-12.40566 -21.70771,-15.11574 -27.19286,-17.36975 -5.52819,-2.2717 -7.44995,-2.72647 -12.86309,-3.04399 -7.97673,-0.46789 -11.50127,0.31862 -20.34324,4.53964 -10.38139,4.95593 -16.21371,11.57452 -19.71911,22.37752 -3.35675,10.34492 2.03715,23.85223 11.27451,28.23341 3.03173,1.43793 10.47148,3.53122 12.93319,3.63897 0.91196,0.0399 16.73025,-1.73701 35.15176,-3.94872 z m 161.49911,-8.24977 c 16.4152,-1.99137 32.16235,-4.21785 34.99366,-4.94772 6.97005,-1.79679 17.28491,-7.20382 22.10664,-11.58826 2.15481,-1.95939 4.95756,-5.29378 6.22832,-7.40976 1.95548,-3.2561 2.31215,-4.46539 2.32134,-7.87039 0.0131,-4.84758 -1.43573,-8.10769 -5.21846,-11.74247 -3.84454,-3.69418 -8.62669,-5.31862 -16.8378,-5.71961 -7.98893,-0.39012 -12.50409,0.38913 -21.15101,3.6504 -5.91707,2.23168 -6.71831,2.8138 -30.50907,22.16539 -13.43783,10.93044 -24.83304,20.43837 -25.32268,21.12875 -1.3234,1.86592 0.121,5.95772 2.10237,5.95577 0.79247,-6.6e-4 14.87148,-1.63073 31.28669,-3.6221 z m -24.53415,-44.27471 c 19.38139,-23.24925 22.61694,-27.45077 25.19702,-32.71956 7.03396,-14.36403 5.15474,-30.71158 -4.65863,-40.52607 -8.88884,-8.88985 -26.44484,-13.00312 -38.12003,-8.9313 -7.91855,2.76166 -17.74775,10.58055 -20.85529,16.58987 -4.02743,7.78819 -4.11554,16.13406 -0.59471,56.3336 l 2.4589,28.07474 4.35543,2.22206 c 2.39549,1.22213 5.40005,2.97447 6.67679,3.8941 1.27673,0.91963 2.54237,1.68668 2.81251,1.70456 0.27015,0.0179 10.49775,-11.97101 22.72801,-26.642 z m -69.10094,17.65844 c 1.89827,-0.64681 3.10273,-1.45466 3.10273,-2.08104 0,-2.07843 -9.35924,-55.0208 -10.34936,-58.54314 -1.57542,-5.60459 -7.14027,-16.46572 -10.6966,-20.87699 -5.74933,-7.13147 -12.99753,-11.42348 -20.4639,-12.11766 -4.04786,-0.37634 -6.17413,0.57572 -10.29608,4.61024 -4.33516,4.24319 -5.56438,8.24253 -5.56438,18.10418 0,6.55236 0.27222,8.77936 1.54035,12.60157 3.77011,11.36336 4.15049,11.87378 27.18148,36.47399 11.78439,12.58733 21.65497,22.88605 21.9346,22.88605 0.27964,0 1.90466,-0.47574 3.61116,-1.0572 z"
       style="fill:#dcdbdb;fill-opacity:1" />
  </g>
  <g
     id="g3167">
    <path
       id="rect3068"
       d="M 78.65625 6 C 63.792798 6 49.986224 10.429561 38.5 18.03125 L 38.5 493.96875 C 49.986224 501.57044 63.792798 506 78.65625 506 L 147.5 506 L 147.5 6 L 78.65625 6 z "
       style="opacity:0.05000000000000000;fill:url(#linearGradient3108);fill-opacity:1;stroke:none" />
    <path
       inkscape:connector-curvature="0"
       style="opacity:0.05;fill:url(#linearGradient3137);fill-opacity:1;stroke:none"
       d="m 147.50001,6 0,500 109,0 0,-500 -109,0 z"
       id="path3135" />
    <path
       id="path3139"
       d="m 256.50001,6 0,500 109,0 0,-500 -109,0 z"
       style="opacity:0.05;fill:url(#linearGradient3141);fill-opacity:1;stroke:none"
       inkscape:connector-curvature="0" />
    <path
       id="path3143"
       d="M 365.5 6 L 365.5 506 L 433.34375 506 C 448.1977 506 461.98692 501.56151 473.46875 493.96875 L 473.46875 18.03125 C 461.98692 10.438491 448.1977 6 433.34375 6 L 365.5 6 z "
       style="opacity:0.05000000000000000;fill:url(#linearGradient3145);fill-opacity:1;stroke:none" />
    <path
       id="path3151"
       d="M 38.5 18.03125 C 18.885717 31.012164 6 53.274894 6 78.65625 L 6 433.34375 C 6 458.72511 18.885717 480.98784 38.5 493.96875 L 38.5 18.03125 z "
       style="opacity:0.05000000000000000;fill:url(#linearGradient3153);fill-opacity:1;stroke:none" />
    <path
       id="path3147"
       d="M 473.46875 18.03125 L 473.46875 493.96875 C 493.09542 480.98993 506 458.73461 506 433.34375 L 506 78.65625 C 506 53.265388 493.09542 31.010071 473.46875 18.03125 z "
       style="opacity:0.05000000000000000;fill:url(#linearGradient3149);fill-opacity:1;stroke:none" />
  </g>
</svg>
