<?xml version="1.0" encoding="UTF-8" standalone="no"?>
<svg
   xmlns:dc="http://purl.org/dc/elements/1.1/"
   xmlns:cc="http://creativecommons.org/ns#"
   xmlns:rdf="http://www.w3.org/1999/02/22-rdf-syntax-ns#"
   xmlns:svg="http://www.w3.org/2000/svg"
   xmlns="http://www.w3.org/2000/svg"
   xmlns:xlink="http://www.w3.org/1999/xlink"
   xmlns:sodipodi="http://sodipodi.sourceforge.net/DTD/sodipodi-0.dtd"
   xmlns:inkscape="http://www.inkscape.org/namespaces/inkscape"
   viewBox="0 0 512 512"
   id="svg2"
   version="1.1"
   inkscape:version="0.48.4 r9939"
   width="100%"
   height="100%"
   sodipodi:docname="icq.svg">
  <sodipodi:namedview
     pagecolor="#444444"
     bordercolor="#666666"
     borderopacity="1"
     objecttolerance="10"
     gridtolerance="10"
     guidetolerance="10"
     inkscape:pageopacity="0"
     inkscape:pageshadow="2"
     inkscape:window-width="1310"
     inkscape:window-height="718"
     id="namedview6"
     showgrid="false"
     showguides="true"
     inkscape:guide-bbox="true"
     inkscape:zoom="0.5181105"
     inkscape:cx="357.37374"
     inkscape:cy="212.50739"
     inkscape:window-x="54"
     inkscape:window-y="27"
     inkscape:window-maximized="1"
     inkscape:current-layer="svg2"
     inkscape:snap-midpoints="true"
     inkscape:snap-global="false">
    <sodipodi:guide
       id="guide2989"
       position="522.57628,433.35594"
       orientation="0,1" />
    <sodipodi:guide
       id="guide2995"
       position="473.05444,254.912"
       orientation="1,0" />
  </sodipodi:namedview>
  <metadata
     id="metadata10">
    <rdf:RDF>
      <cc:Work
         rdf:about="">
        <dc:format>image/svg+xml</dc:format>
        <dc:type
           rdf:resource="http://purl.org/dc/dcmitype/StillImage" />
        <dc:title></dc:title>
      </cc:Work>
    </rdf:RDF>
  </metadata>
  <defs
     id="defs8">
    <linearGradient
       id="linearGradient4996">
      <stop
         style="stop-color:#000000;stop-opacity:1;"
         offset="0"
         id="stop4998" />
      <stop
         style="stop-color:#ffffff;stop-opacity:1;"
         offset="1"
         id="stop5000" />
    </linearGradient>
    <linearGradient
       inkscape:collect="always"
       xlink:href="#linearGradient4996"
       id="linearGradient3108"
       gradientUnits="userSpaceOnUse"
       gradientTransform="matrix(1.0380952,0,0,1.4619252,-228.28943,-118.25286)"
       x1="257"
       y1="256"
       x2="362"
       y2="256" />
    <linearGradient
       inkscape:collect="always"
       xlink:href="#linearGradient4996"
       id="linearGradient3137"
       gradientUnits="userSpaceOnUse"
       gradientTransform="matrix(1.0380952,0,0,1.4619252,-119.28943,-118.25286)"
       x1="257"
       y1="256"
       x2="362"
       y2="256" />
    <linearGradient
       inkscape:collect="always"
       xlink:href="#linearGradient4996"
       id="linearGradient3141"
       gradientUnits="userSpaceOnUse"
       gradientTransform="matrix(1.0380952,0,0,1.4619252,-10.28943,-118.25286)"
       x1="257"
       y1="256"
       x2="362"
       y2="256" />
    <linearGradient
       inkscape:collect="always"
       xlink:href="#linearGradient4996"
       id="linearGradient3145"
       gradientUnits="userSpaceOnUse"
       gradientTransform="matrix(1.0283468,0,0,1.4619252,101.21591,-118.25286)"
       x1="257"
       y1="256"
       x2="362"
       y2="256" />
    <linearGradient
       inkscape:collect="always"
       xlink:href="#linearGradient4996"
       id="linearGradient3149"
       gradientUnits="userSpaceOnUse"
       gradientTransform="matrix(1.0283468,0,0,1.4619252,209.19233,-118.25286)"
       x1="257"
       y1="256"
       x2="362"
       y2="256" />
    <linearGradient
       inkscape:collect="always"
       xlink:href="#linearGradient4996"
       id="linearGradient3153"
       gradientUnits="userSpaceOnUse"
       gradientTransform="matrix(1.0380952,0,0,1.4619252,-337.28943,-118.25286)"
       x1="257"
       y1="256"
       x2="362"
       y2="256" />
  </defs>
  <rect
     style="opacity:0.2;fill:#000000;fill-opacity:1;stroke:none"
     id="rect5028"
     width="500"
     height="500"
     x="6"
     y="12"
     rx="72.644058"
     ry="72.644058" />
  <rect
     ry="72.644058"
     rx="72.644058"
     y="6"
     x="6"
     height="500"
     width="500"
     id="rect4979"
     style="fill:#f3f3f3;fill-opacity:1;stroke:none" />
  <rect
     style="fill:#8db173;fill-opacity:1;stroke:none"
     id="rect4981"
     width="434.99997"
     height="434.99997"
     x="38.500011"
     y="38.500011"
     rx="63.200329"
     ry="63.200329" />
  <path
     style="fill:#000000;fill-opacity:1;stroke:none;opacity:0.2"
     d="M 101.6875 38.5 C 66.674518 38.5 38.5 66.674518 38.5 101.6875 L 38.5 116.6875 C 38.5 81.674518 66.674518 53.5 101.6875 53.5 L 410.3125 53.5 C 445.32548 53.5 473.5 81.674518 473.5 116.6875 L 473.5 101.6875 C 473.5 66.674518 445.32548 38.5 410.3125 38.5 L 101.6875 38.5 z "
     id="rect3187" />
  <g
     id="g3067"
     transform="translate(716.19181,-73.097495)">
    <path
       style="opacity:0.2;fill:#000000;fill-opacity:1"
       d="m -500.80121,503.94455 c -0.91196,-0.15378 -3.89132,-0.61 -6.62081,-1.01383 -6.06767,-0.89771 -14.84745,-3.90077 -20.40824,-6.98049 -9.56102,-5.29515 -19.09982,-18.11857 -23.11961,-31.08068 -0.97194,-3.13412 -1.22757,-6.02232 -1.20339,-13.59643 0.0276,-8.64747 0.21526,-10.18534 1.86131,-15.25454 1.0928,-3.36542 3.68299,-8.73221 6.42669,-13.31592 2.52785,-4.2231 4.59609,-7.84873 4.59609,-8.05695 0,-0.20821 -2.16382,0.16036 -4.80849,0.81906 -2.64468,0.6587 -7.06877,1.39488 -9.83132,1.63595 -6.48442,0.56586 -20.85151,-1.22166 -25.82529,-3.21312 -9.75235,-3.90477 -17.73574,-13.52006 -19.89259,-23.95887 -2.42855,-11.75384 3.21435,-25.42083 14.66025,-35.50681 2.88389,-2.54125 5.20672,-4.84524 5.16183,-5.11997 -0.0449,-0.27473 -2.65722,-1.17472 -5.8052,-1.99996 -7.49369,-1.96448 -12.31685,-4.53392 -19.01952,-10.13226 -6.61716,-5.52693 -11.55418,-12.51263 -13.72707,-19.42331 -1.22848,-3.90706 -1.49164,-6.2431 -1.47006,-13.04949 0.0228,-7.20078 0.26089,-8.98794 1.81112,-13.59644 5.53512,-16.45464 18.44314,-29.85773 35.40106,-36.75881 13.17363,-5.36104 26.45149,-5.81397 40.26027,-1.3733 3.30627,1.06323 6.10705,1.8375 6.22396,1.72059 0.11691,-0.11691 -0.81626,-1.7414 -2.07372,-3.60997 -7.5528,-11.22342 -10.54805,-30.16061 -7.01043,-44.32278 4.37161,-17.50086 15.60862,-27.90464 31.80308,-29.44484 9.49838,-0.90337 19.0242,1.44258 27.12936,6.68119 8.03988,5.19643 13.11054,10.93553 19.33295,21.8815 l 3.58178,6.30078 0.46121,-2.69472 c 2.11941,-12.38301 13.04714,-25.79653 27.21908,-33.41078 15.38757,-8.26736 31.95407,-9.18302 49.60378,-2.74167 10.66743,3.89313 18.1261,9.76586 24.49381,19.28568 6.58712,9.84786 9.59543,19.48829 9.5191,30.50496 -0.0544,7.86319 -1.52618,14.37162 -4.90205,21.67868 -1.44151,3.12016 -2.45891,5.83503 -2.26089,6.03306 0.19804,0.19803 3.71893,-0.34897 7.82422,-1.21555 9.37102,-1.97812 23.52252,-2.1663 30.34596,-0.40352 15.33008,3.9604 25.84779,14.94051 29.05338,30.33069 0.96901,4.65227 0.96077,5.45633 -0.11186,10.91547 -2.57607,13.11093 -12.19625,25.0351 -26.36624,32.68085 -2.49837,1.34806 -4.54756,2.60183 -4.55375,2.78618 -0.006,0.18434 3.20868,1.88939 7.14416,3.789 10.39522,5.01767 17.39153,11.89028 23.96942,23.54568 10.97689,19.44997 7.50308,45.87218 -8.34898,63.50348 -5.91328,6.577 -16.59577,12.82176 -25.54048,14.93044 -11.79899,2.78156 -31.15026,-0.29806 -41.9145,-6.6704 -3.70723,-2.19465 -3.87228,-2.2319 -3.51635,-0.79339 0.2054,0.83015 0.69985,4.74056 1.09876,8.6898 1.24733,12.34852 -0.88283,24.54728 -5.74073,32.87542 -2.74864,4.71213 -9.25835,10.75813 -14.48149,13.44992 -7.96781,4.10629 -14.27208,4.77756 -23.86408,2.54099 -9.27675,-2.16305 -15.0424,-5.5746 -24.18761,-14.31189 l -5.17652,-4.94562 -0.78298,3.16069 c -1.24961,5.04434 -5.70001,13.62611 -9.56736,18.44885 -6.9554,8.67366 -17.4034,15.36597 -28.31846,18.13899 -4.98708,1.26698 -15.36993,2.20171 -18.53256,1.66841 z m 9.33637,-20.45712 c 12.20968,-2.58824 21.3381,-9.47722 26.77497,-20.20636 1.64815,-3.25246 1.69338,-3.6967 1.69338,-16.6306 0,-8.78945 -0.4362,-17.16189 -1.2883,-24.72776 -0.70857,-6.29139 -1.60446,-15.61731 -1.99087,-20.72427 -0.38642,-5.10695 -0.86811,-10.81506 -1.07044,-12.6847 l -0.36786,-3.39933 -3.77624,-0.97806 c -2.07693,-0.53793 -5.4284,-1.73691 -7.4477,-2.6644 l -3.67145,-1.68634 -22.06962,25.80346 c -14.99122,17.5275 -22.57776,26.91759 -23.65394,29.27716 -1.85683,4.07123 -4.30385,14.55467 -4.30385,18.43846 0,3.52368 2.87233,12.05637 5.37812,15.97648 4.47816,7.00574 12.15144,12.11233 21.15704,14.08003 5.61582,1.22705 9.29415,1.25878 14.63676,0.12623 z m 92.00136,-22.52734 c 4.07067,-2.06277 6.23348,-4.58106 8.16824,-9.51082 1.25134,-3.18837 1.50018,-5.09174 1.49714,-11.45125 -0.003,-6.72671 -0.22328,-8.21458 -1.86374,-12.60157 -1.02304,-2.73587 -2.69967,-6.64528 -3.72584,-8.68759 -2.6221,-5.21855 -15.4695,-20.53176 -26.00923,-31.00119 l -8.90749,-8.84808 -3.24704,1.63318 c -1.78588,0.89824 -5.12623,2.31341 -7.42302,3.14479 -3.88028,1.40459 -4.15124,1.63369 -3.82677,3.23547 0.19207,0.94812 1.83573,10.23469 3.65258,20.63683 2.87258,16.44651 3.72819,20.05629 6.56075,27.67972 3.66369,9.86029 7.18083,15.74973 12.29304,20.58464 7.68675,7.26981 15.30441,9.00007 22.83138,5.18587 z m 69.44675,-49.29085 c 13.63955,-4.18347 21.5611,-13.23236 23.98517,-27.39857 1.71163,-10.00276 0.16735,-16.52099 -5.99696,-25.31248 -3.89404,-5.55364 -8.35198,-9.59462 -13.40601,-12.15209 -3.85919,-1.95287 -4.09598,-1.98549 -15.52567,-2.13896 -8.97894,-0.12057 -17.98013,0.4071 -39.75774,2.33068 l -28.15101,2.48652 -1.08902,3.63849 c -0.59896,2.00117 -1.73417,4.89401 -2.52269,6.42854 l -1.43367,2.79004 10.44486,8.51789 c 5.74468,4.68483 17.72326,14.47227 26.61906,21.74985 8.89581,7.27759 16.95419,13.86437 17.9075,14.63729 2.24923,1.82361 10.66736,4.84241 15.32554,5.49585 4.51566,0.63344 9.25632,0.25941 13.60064,-1.07305 z m -117.21779,-42.53832 c 8.15042,-2.53669 17.89565,-11.18448 20.80281,-18.46012 1.30896,-3.2759 1.54385,-5.05911 1.55657,-11.81698 0.0147,-7.80606 -0.0312,-8.05441 -2.39048,-12.93319 -6.59606,-13.64012 -21.63866,-20.50614 -36.99562,-16.88626 -14.23756,3.35603 -23.9384,15.44013 -23.9384,29.81945 0,10.94179 5.31954,20.2669 15.25454,26.74112 7.04791,4.59282 17.63615,6.04903 25.71058,3.53598 z m -92.03465,-43.88997 c 18.42151,-2.21171 33.90575,-4.24209 34.40942,-4.51197 0.50366,-0.26987 1.48457,-1.93875 2.17978,-3.70863 0.69521,-1.76988 2.33898,-4.83743 3.6528,-6.8168 1.35141,-2.03598 2.13294,-3.8359 1.79965,-4.14473 -0.324,-0.30025 -9.90127,-7.16047 -21.28281,-15.24495 -17.46501,-12.40566 -21.70771,-15.11574 -27.19286,-17.36975 -5.52819,-2.2717 -7.44995,-2.72647 -12.86309,-3.04399 -7.97673,-0.46789 -11.50127,0.31862 -20.34324,4.53964 -10.38139,4.95593 -16.21371,11.57452 -19.71911,22.37752 -3.35675,10.34492 2.03715,23.85223 11.27451,28.23341 3.03173,1.43793 10.47148,3.53122 12.93319,3.63897 0.91196,0.0399 16.73025,-1.73701 35.15176,-3.94872 z m 161.49911,-8.24977 c 16.4152,-1.99137 32.16235,-4.21785 34.99366,-4.94772 6.97005,-1.79679 17.28491,-7.20382 22.10664,-11.58826 2.15481,-1.95939 4.95756,-5.29378 6.22832,-7.40976 1.95548,-3.2561 2.31215,-4.46539 2.32134,-7.87039 0.0131,-4.84758 -1.43573,-8.10769 -5.21846,-11.74247 -3.84454,-3.69418 -8.62669,-5.31862 -16.8378,-5.71961 -7.98893,-0.39012 -12.50409,0.38913 -21.15101,3.6504 -5.91707,2.23168 -6.71831,2.8138 -30.50907,22.16539 -13.43783,10.93044 -24.83304,20.43837 -25.32268,21.12875 -1.3234,1.86592 0.121,5.95772 2.10237,5.95577 0.79247,-6.6e-4 14.87148,-1.63073 31.28669,-3.6221 z m -24.53415,-44.27471 c 19.38139,-23.24925 22.61694,-27.45077 25.19702,-32.71956 7.03396,-14.36403 5.15474,-30.71158 -4.65863,-40.52607 -8.88884,-8.88985 -26.44484,-13.00312 -38.12003,-8.9313 -7.91855,2.76166 -17.74775,10.58055 -20.85529,16.58987 -4.02743,7.78819 -4.11554,16.13406 -0.59471,56.3336 l 2.4589,28.07474 4.35543,2.22206 c 2.39549,1.22213 5.40005,2.97447 6.67679,3.8941 1.27673,0.91963 2.54237,1.68668 2.81251,1.70456 0.27015,0.0179 10.49775,-11.97101 22.72801,-26.642 z m -69.10094,17.65844 c 1.89827,-0.64681 3.10273,-1.45466 3.10273,-2.08104 0,-2.07843 -9.35924,-55.0208 -10.34936,-58.54314 -1.57542,-5.60459 -7.14027,-16.46572 -10.6966,-20.87699 -5.74933,-7.13147 -12.99753,-11.42348 -20.4639,-12.11766 -4.04786,-0.37634 -6.17413,0.57572 -10.29608,4.61024 -4.33516,4.24319 -5.56438,8.24253 -5.56438,18.10418 0,6.55236 0.27222,8.77936 1.54035,12.60157 3.77011,11.36336 4.15049,11.87378 27.18148,36.47399 11.78439,12.58733 21.65497,22.88605 21.9346,22.88605 0.27964,0 1.90466,-0.47574 3.61116,-1.0572 z"
       id="path3065"
       inkscape:connector-curvature="0" />
    <path
       inkscape:connector-curvature="0"
       id="path3063"
       d="m -515.80121,488.94455 c -0.91196,-0.15378 -3.89132,-0.61 -6.62081,-1.01383 -6.06767,-0.89771 -14.84745,-3.90077 -20.40824,-6.98049 -9.56102,-5.29515 -19.09982,-18.11857 -23.11961,-31.08068 -0.97194,-3.13412 -1.22757,-6.02232 -1.20339,-13.59643 0.0276,-8.64747 0.21526,-10.18534 1.86131,-15.25454 1.0928,-3.36542 3.68299,-8.73221 6.42669,-13.31592 2.52785,-4.2231 4.59609,-7.84873 4.59609,-8.05695 0,-0.20821 -2.16382,0.16036 -4.80849,0.81906 -2.64468,0.6587 -7.06877,1.39488 -9.83132,1.63595 -6.48442,0.56586 -20.85151,-1.22166 -25.82529,-3.21312 -9.75235,-3.90477 -17.73574,-13.52006 -19.89259,-23.95887 -2.42855,-11.75384 3.21435,-25.42083 14.66025,-35.50681 2.88389,-2.54125 5.20672,-4.84524 5.16183,-5.11997 -0.0449,-0.27473 -2.65722,-1.17472 -5.8052,-1.99996 -7.49369,-1.96448 -12.31685,-4.53392 -19.01952,-10.13226 -6.61716,-5.52693 -11.55418,-12.51263 -13.72707,-19.42331 -1.22848,-3.90706 -1.49164,-6.2431 -1.47006,-13.04949 0.0228,-7.20078 0.26089,-8.98794 1.81112,-13.59644 5.53512,-16.45464 18.44314,-29.85773 35.40106,-36.75881 13.17363,-5.36104 26.45149,-5.81397 40.26027,-1.3733 3.30627,1.06323 6.10705,1.8375 6.22396,1.72059 0.11691,-0.11691 -0.81626,-1.7414 -2.07372,-3.60997 -7.5528,-11.22342 -10.54805,-30.16061 -7.01043,-44.32278 4.37161,-17.50086 15.60862,-27.90464 31.80308,-29.44484 9.49838,-0.90337 19.0242,1.44258 27.12936,6.68119 8.03988,5.19643 13.11054,10.93553 19.33295,21.8815 l 3.58178,6.30078 0.46121,-2.69472 c 2.11941,-12.38301 13.04714,-25.79653 27.21908,-33.41078 15.38757,-8.26736 31.95407,-9.18302 49.60378,-2.74167 10.66743,3.89313 18.1261,9.76586 24.49381,19.28568 6.58712,9.84786 9.59543,19.48829 9.5191,30.50496 -0.0544,7.86319 -1.52618,14.37162 -4.90205,21.67868 -1.44151,3.12016 -2.45891,5.83503 -2.26089,6.03306 0.19804,0.19803 3.71893,-0.34897 7.82422,-1.21555 9.37102,-1.97812 23.52252,-2.1663 30.34596,-0.40352 15.33008,3.9604 25.84779,14.94051 29.05338,30.33069 0.96901,4.65227 0.96077,5.45633 -0.11186,10.91547 -2.57607,13.11093 -12.19625,25.0351 -26.36624,32.68085 -2.49837,1.34806 -4.54756,2.60183 -4.55375,2.78618 -0.006,0.18434 3.20868,1.88939 7.14416,3.789 10.39522,5.01767 17.39153,11.89028 23.96942,23.54568 10.97689,19.44997 7.50308,45.87218 -8.34898,63.50348 -5.91328,6.577 -16.59577,12.82176 -25.54048,14.93044 -11.79899,2.78156 -31.15026,-0.29806 -41.9145,-6.6704 -3.70723,-2.19465 -3.87228,-2.2319 -3.51635,-0.79339 0.2054,0.83015 0.69985,4.74056 1.09876,8.6898 1.24733,12.34852 -0.88283,24.54728 -5.74073,32.87542 -2.74864,4.71213 -9.25835,10.75813 -14.48149,13.44992 -7.96781,4.10629 -14.27208,4.77756 -23.86408,2.54099 -9.27675,-2.16305 -15.0424,-5.5746 -24.18761,-14.31189 l -5.17652,-4.94562 -0.78298,3.16069 c -1.24961,5.04434 -5.70001,13.62611 -9.56736,18.44885 -6.9554,8.67366 -17.4034,15.36597 -28.31846,18.13899 -4.98708,1.26698 -15.36993,2.20171 -18.53256,1.66841 z m 9.33637,-20.45712 c 12.20968,-2.58824 21.3381,-9.47722 26.77497,-20.20636 1.64815,-3.25246 1.69338,-3.6967 1.69338,-16.6306 0,-8.78945 -0.4362,-17.16189 -1.2883,-24.72776 -0.70857,-6.29139 -1.60446,-15.61731 -1.99087,-20.72427 -0.38642,-5.10695 -0.86811,-10.81506 -1.07044,-12.6847 l -0.36786,-3.39933 -3.77624,-0.97806 c -2.07693,-0.53793 -5.4284,-1.73691 -7.4477,-2.6644 l -3.67145,-1.68634 -22.06962,25.80346 c -14.99122,17.5275 -22.57776,26.91759 -23.65394,29.27716 -1.85683,4.07123 -4.30385,14.55467 -4.30385,18.43846 0,3.52368 2.87233,12.05637 5.37812,15.97648 4.47816,7.00574 12.15144,12.11233 21.15704,14.08003 5.61582,1.22705 9.29415,1.25878 14.63676,0.12623 z m 92.00136,-22.52734 c 4.07067,-2.06277 6.23348,-4.58106 8.16824,-9.51082 1.25134,-3.18837 1.50018,-5.09174 1.49714,-11.45125 -0.003,-6.72671 -0.22328,-8.21458 -1.86374,-12.60157 -1.02304,-2.73587 -2.69967,-6.64528 -3.72584,-8.68759 -2.6221,-5.21855 -15.4695,-20.53176 -26.00923,-31.00119 l -8.90749,-8.84808 -3.24704,1.63318 c -1.78588,0.89824 -5.12623,2.31341 -7.42302,3.14479 -3.88028,1.40459 -4.15124,1.63369 -3.82677,3.23547 0.19207,0.94812 1.83573,10.23469 3.65258,20.63683 2.87258,16.44651 3.72819,20.05629 6.56075,27.67972 3.66369,9.86029 7.18083,15.74973 12.29304,20.58464 7.68675,7.26981 15.30441,9.00007 22.83138,5.18587 z m 69.44675,-49.29085 c 13.63955,-4.18347 21.5611,-13.23236 23.98517,-27.39857 1.71163,-10.00276 0.16735,-16.52099 -5.99696,-25.31248 -3.89404,-5.55364 -8.35198,-9.59462 -13.40601,-12.15209 -3.85919,-1.95287 -4.09598,-1.98549 -15.52567,-2.13896 -8.97894,-0.12057 -17.98013,0.4071 -39.75774,2.33068 l -28.15101,2.48652 -1.08902,3.63849 c -0.59896,2.00117 -1.73417,4.89401 -2.52269,6.42854 l -1.43367,2.79004 10.44486,8.51789 c 5.74468,4.68483 17.72326,14.47227 26.61906,21.74985 8.89581,7.27759 16.95419,13.86437 17.9075,14.63729 2.24923,1.82361 10.66736,4.84241 15.32554,5.49585 4.51566,0.63344 9.25632,0.25941 13.60064,-1.07305 z m -117.21779,-42.53832 c 8.15042,-2.53669 17.89565,-11.18448 20.80281,-18.46012 1.30896,-3.2759 1.54385,-5.05911 1.55657,-11.81698 0.0147,-7.80606 -0.0312,-8.05441 -2.39048,-12.93319 -6.59606,-13.64012 -21.63866,-20.50614 -36.99562,-16.88626 -14.23756,3.35603 -23.9384,15.44013 -23.9384,29.81945 0,10.94179 5.31954,20.2669 15.25454,26.74112 7.04791,4.59282 17.63615,6.04903 25.71058,3.53598 z m -92.03465,-43.88997 c 18.42151,-2.21171 33.90575,-4.24209 34.40942,-4.51197 0.50366,-0.26987 1.48457,-1.93875 2.17978,-3.70863 0.69521,-1.76988 2.33898,-4.83743 3.6528,-6.8168 1.35141,-2.03598 2.13294,-3.8359 1.79965,-4.14473 -0.324,-0.30025 -9.90127,-7.16047 -21.28281,-15.24495 -17.46501,-12.40566 -21.70771,-15.11574 -27.19286,-17.36975 -5.52819,-2.2717 -7.44995,-2.72647 -12.86309,-3.04399 -7.97673,-0.46789 -11.50127,0.31862 -20.34324,4.53964 -10.38139,4.95593 -16.21371,11.57452 -19.71911,22.37752 -3.35675,10.34492 2.03715,23.85223 11.27451,28.23341 3.03173,1.43793 10.47148,3.53122 12.93319,3.63897 0.91196,0.0399 16.73025,-1.73701 35.15176,-3.94872 z m 161.49911,-8.24977 c 16.4152,-1.99137 32.16235,-4.21785 34.99366,-4.94772 6.97005,-1.79679 17.28491,-7.20382 22.10664,-11.58826 2.15481,-1.95939 4.95756,-5.29378 6.22832,-7.40976 1.95548,-3.2561 2.31215,-4.46539 2.32134,-7.87039 0.0131,-4.84758 -1.43573,-8.10769 -5.21846,-11.74247 -3.84454,-3.69418 -8.62669,-5.31862 -16.8378,-5.71961 -7.98893,-0.39012 -12.50409,0.38913 -21.15101,3.6504 -5.91707,2.23168 -6.71831,2.8138 -30.50907,22.16539 -13.43783,10.93044 -24.83304,20.43837 -25.32268,21.12875 -1.3234,1.86592 0.121,5.95772 2.10237,5.95577 0.79247,-6.6e-4 14.87148,-1.63073 31.28669,-3.6221 z m -24.53415,-44.27471 c 19.38139,-23.24925 22.61694,-27.45077 25.19702,-32.71956 7.03396,-14.36403 5.15474,-30.71158 -4.65863,-40.52607 -8.88884,-8.88985 -26.44484,-13.00312 -38.12003,-8.9313 -7.91855,2.76166 -17.74775,10.58055 -20.85529,16.58987 -4.02743,7.78819 -4.11554,16.13406 -0.59471,56.3336 l 2.4589,28.07474 4.35543,2.22206 c 2.39549,1.22213 5.40005,2.97447 6.67679,3.8941 1.27673,0.91963 2.54237,1.68668 2.81251,1.70456 0.27015,0.0179 10.49775,-11.97101 22.72801,-26.642 z m -69.10094,17.65844 c 1.89827,-0.64681 3.10273,-1.45466 3.10273,-2.08104 0,-2.07843 -9.35924,-55.0208 -10.34936,-58.54314 -1.57542,-5.60459 -7.14027,-16.46572 -10.6966,-20.87699 -5.74933,-7.13147 -12.99753,-11.42348 -20.4639,-12.11766 -4.04786,-0.37634 -6.17413,0.57572 -10.29608,4.61024 -4.33516,4.24319 -5.56438,8.24253 -5.56438,18.10418 0,6.55236 0.27222,8.77936 1.54035,12.60157 3.77011,11.36336 4.15049,11.87378 27.18148,36.47399 11.78439,12.58733 21.65497,22.88605 21.9346,22.88605 0.27964,0 1.90466,-0.47574 3.61116,-1.0572 z"
       style="fill:#dcdbdb;fill-opacity:1" />
  </g>
  <g
     id="g3167">
    <path
       id="rect3068"
       d="M 78.65625 6 C 63.792798 6 49.986224 10.429561 38.5 18.03125 L 38.5 493.96875 C 49.986224 501.57044 63.792798 506 78.65625 506 L 147.5 506 L 147.5 6 L 78.65625 6 z "
       style="opacity:0.05000000000000000;fill:url(#linearGradient3108);fill-opacity:1;stroke:none" />
    <path
       inkscape:connector-curvature="0"
       style="opacity:0.05;fill:url(#linearGradient3137);fill-opacity:1;stroke:none"
       d="m 147.50001,6 0,500 109,0 0,-500 -109,0 z"
       id="path3135" />
    <path
       id="path3139"
       d="m 256.50001,6 0,500 109,0 0,-500 -109,0 z"
       style="opacity:0.05;fill:url(#linearGradient3141);fill-opacity:1;stroke:none"
       inkscape:connector-curvature="0" />
    <path
       id="path3143"
       d="M 365.5 6 L 365.5 506 L 433.34375 506 C 448.1977 506 461.98692 501.56151 473.46875 493.96875 L 473.46875 18.03125 C 461.98692 10.438491 448.1977 6 433.34375 6 L 365.5 6 z "
       style="opacity:0.05000000000000000;fill:url(#linearGradient3145);fill-opacity:1;stroke:none" />
    <path
       id="path3151"
       d="M 38.5 18.03125 C 18.885717 31.012164 6 53.274894 6 78.65625 L 6 433.34375 C 6 458.72511 18.885717 480.98784 38.5 493.96875 L 38.5 18.03125 z "
       style="opacity:0.05000000000000000;fill:url(#linearGradient3153);fill-opacity:1;stroke:none" />
    <path
       id="path3147"
       d="M 473.46875 18.03125 L 473.46875 493.96875 C 493.09542 480.98993 506 458.73461 506 433.34375 L 506 78.65625 C 506 53.265388 493.09542 31.010071 473.46875 18.03125 z "
       style="opacity:0.05000000000000000;fill:url(#linearGradient3149);fill-opacity:1;stroke:none" />
  </g>
</svg>
