<?xml version="1.0" encoding="UTF-8" standalone="no"?>
<!-- Created with Inkscape (http://www.inkscape.org/) -->

<svg
   xmlns:dc="http://purl.org/dc/elements/1.1/"
   xmlns:cc="http://creativecommons.org/ns#"
   xmlns:rdf="http://www.w3.org/1999/02/22-rdf-syntax-ns#"
   xmlns:svg="http://www.w3.org/2000/svg"
   xmlns="http://www.w3.org/2000/svg"
   xmlns:xlink="http://www.w3.org/1999/xlink"
   xmlns:inkscape="http://www.inkscape.org/namespaces/inkscape"
   version="1.1"
   width="100%"
   height="100%"
   viewBox="0 0 512 512"
   id="svg2">
  <metadata
     id="metadata59">
    <rdf:RDF>
      <cc:Work
         rdf:about="">
        <dc:format>image/svg+xml</dc:format>
        <dc:type
           rdf:resource="http://purl.org/dc/dcmitype/StillImage" />
      </cc:Work>
    </rdf:RDF>
  </metadata>
  <defs
     id="defs4">
    <filter
       color-interpolation-filters="sRGB"
       id="7">
      <feGaussianBlur
         id="feGaussianBlur7"
         stdDeviation="3.7725" />
    </filter>
    <linearGradient
       y1="19.563999"
       x2="0"
       y2="504.01999"
       id="8"
       gradientUnits="userSpaceOnUse">
      <stop
         id="stop10"
         style="stop-color:#f3f3f3;stop-opacity:1"
         offset="0" />
      <stop
         id="stop12"
         style="stop-color:#eeeeee;stop-opacity:1"
         offset="0.5" />
      <stop
         id="stop14"
         style="stop-color:#ebebeb;stop-opacity:1"
         offset="1" />
    </linearGradient>
    <linearGradient
       x1="257"
       x2="362"
       id="5"
       xlink:href="#0"
       gradientUnits="userSpaceOnUse"
       gradientTransform="matrix(1.02835,0,0,1.46193,209.19,-118.25)" />
    <linearGradient
       x1="257"
       x2="362"
       id="6"
       xlink:href="#0"
       gradientUnits="userSpaceOnUse"
       gradientTransform="matrix(1.0381,0,0,1.46193,-337.29,-118.25)" />
    <linearGradient
       x1="257"
       x2="362"
       id="4"
       xlink:href="#0"
       gradientUnits="userSpaceOnUse"
       gradientTransform="matrix(1.02835,0,0,1.46193,101.22,-118.25)" />
    <linearGradient
       x1="257"
       x2="362"
       id="3"
       xlink:href="#0"
       gradientUnits="userSpaceOnUse"
       gradientTransform="matrix(1.0381,0,0,1.46193,-10.289,-118.25)" />
    <linearGradient
       id="0">
      <stop
         id="stop21"
         style="stop-color:#000000;stop-opacity:1"
         offset="0" />
      <stop
         id="stop23"
         style="stop-color:#ffffff;stop-opacity:1"
         offset="1" />
    </linearGradient>
    <linearGradient
       x1="257"
       x2="362"
       id="2"
       xlink:href="#0"
       gradientUnits="userSpaceOnUse"
       gradientTransform="matrix(1.0381,0,0,1.46193,-119.29,-118.25)" />
    <linearGradient
       x1="257"
       x2="362"
       id="1"
       xlink:href="#0"
       gradientUnits="userSpaceOnUse"
       gradientTransform="matrix(1.0381,0,0,1.46193,-228.29,-118.25)" />
  </defs>
  <path
     d="m 78.66,6 c -0.929,0 -1.861,0.028 -2.781,0.063 -0.073,0.003 -0.146,-0.003 -0.219,0 -0.668,0.027 -1.337,0.08 -2,0.125 -0.376,0.025 -0.751,0.063 -1.125,0.094 -0.645,0.053 -1.297,0.086 -1.938,0.156 -0.965,0.106 -1.922,0.232 -2.875,0.375 -0.052,0.008 -0.104,0.023 -0.156,0.031 -1.082,0.165 -2.154,0.351 -3.219,0.563 -0.459,0.091 -0.919,0.182 -1.375,0.281 -0.39,0.085 -0.769,0.19 -1.156,0.281 -0.647,0.152 -1.297,0.299 -1.938,0.469 -0.898,0.238 -1.804,0.479 -2.688,0.75 -0.211,0.065 -0.414,0.152 -0.625,0.219 -0.991,0.314 -1.966,0.645 -2.938,1 -0.817,0.298 -1.635,0.611 -2.438,0.938 -0.29,0.118 -0.587,0.222 -0.875,0.344 -0.136,0.057 -0.27,0.129 -0.406,0.188 -0.082,0.035 -0.169,0.058 -0.25,0.094 -0.717,0.311 -1.42,0.636 -2.125,0.969 -0.147,0.069 -0.291,0.148 -0.438,0.219 -0.947,0.455 -1.889,0.943 -2.813,1.438 -0.271,0.145 -0.544,0.289 -0.813,0.438 -0.414,0.228 -0.81,0.483 -1.219,0.719 -0.52,0.3 -1.051,0.594 -1.563,0.906 -0.738,0.452 -1.467,0.898 -2.188,1.375 -0.031,0.021 -0.062,0.042 -0.094,0.063 -0.456,0.303 -0.895,0.625 -1.344,0.938 -0.123,0.086 -0.252,0.163 -0.375,0.25 -0.524,0.37 -1.049,0.742 -1.563,1.125 -1.835,1.371 -3.618,2.84 -5.313,4.375 -0.017,0.015 -0.046,0.016 -0.063,0.031 -0.526,0.477 -1.02,0.977 -1.531,1.469 -0.524,0.505 -1.054,1.011 -1.563,1.531 -0.512,0.523 -1,1.055 -1.5,1.594 -0.941,1.022 -1.837,2.05 -2.719,3.125 -0.631,0.769 -1.244,1.58 -1.844,2.375 -0.111,0.148 -0.233,0.289 -0.344,0.438 -0.526,0.71 -1.031,1.427 -1.531,2.156 -0.11,0.16 -0.235,0.308 -0.344,0.469 -0.013,0.019 -0.018,0.043 -0.031,0.063 -0.084,0.125 -0.167,0.249 -0.25,0.375 -0.47,0.708 -0.929,1.431 -1.375,2.156 -0.071,0.116 -0.148,0.227 -0.219,0.344 -0.575,0.948 -1.124,1.899 -1.656,2.875 -0.152,0.278 -0.289,0.564 -0.438,0.844 -0.18,0.341 -0.356,0.687 -0.531,1.031 -0.243,0.479 -0.486,0.952 -0.719,1.438 -0.426,0.885 -0.828,1.783 -1.219,2.688 -0.24,0.556 -0.461,1.124 -0.688,1.688 -0.038,0.095 -0.087,0.186 -0.125,0.281 -0.246,0.621 -0.489,1.245 -0.719,1.875 -0.332,0.909 -0.641,1.825 -0.938,2.75 -0.11,0.345 -0.238,0.684 -0.344,1.031 -0.301,0.99 -0.585,1.992 -0.844,3 -0.008,0.032 -0.023,0.062 -0.031,0.094 -0.267,1.046 -0.497,2.092 -0.719,3.156 -0.034,0.166 -0.06,0.334 -0.094,0.5 -0.426,2.117 -0.762,4.257 -1,6.438 -0.035,0.323 -0.063,0.645 -0.094,0.969 -0.09,0.938 -0.165,1.895 -0.219,2.844 -0.017,0.29 -0.018,0.584 -0.031,0.875 -0.051,1.119 -0.094,2.243 -0.094,3.375 v 354.69 6 c 0,40.24 32.411,72.66 72.66,72.66 h 354.69 c 40.24,0 72.66,-32.411 72.66,-72.66 v -354.69 -6 c 0,-1.259 -0.031,-2.507 -0.094,-3.75 -0.016,-0.323 -0.042,-0.647 -0.063,-0.969 -0.058,-0.917 -0.127,-1.843 -0.219,-2.75 -0.02,-0.2 -0.041,-0.394 -0.063,-0.594 -0.246,-2.245 -0.587,-4.447 -1.031,-6.625 -0.021,-0.104 -0.041,-0.209 -0.063,-0.313 -0.227,-1.087 -0.476,-2.15 -0.75,-3.219 -0.011,-0.042 -0.02,-0.083 -0.031,-0.125 -0.19,-0.732 -0.413,-1.464 -0.625,-2.188 -0.212,-0.724 -0.423,-1.442 -0.656,-2.156 -0.258,-0.789 -0.529,-1.567 -0.813,-2.344 -0.23,-0.63 -0.472,-1.254 -0.719,-1.875 -0.038,-0.096 -0.087,-0.186 -0.125,-0.281 -0.239,-0.594 -0.465,-1.195 -0.719,-1.781 -0.378,-0.871 -0.777,-1.741 -1.188,-2.594 -0.233,-0.485 -0.475,-0.958 -0.719,-1.438 -0.287,-0.564 -0.574,-1.132 -0.875,-1.688 -0.051,-0.094 -0.105,-0.188 -0.156,-0.281 -0.513,-0.936 -1.041,-1.871 -1.594,-2.781 -0.212,-0.35 -0.438,-0.685 -0.656,-1.031 -0.405,-0.642 -0.795,-1.278 -1.219,-1.906 -0.809,-1.199 -1.685,-2.354 -2.563,-3.5 -0.262,-0.341 -0.514,-0.695 -0.781,-1.031 -0.189,-0.238 -0.371,-0.483 -0.563,-0.719 -0.093,-0.114 -0.188,-0.231 -0.281,-0.344 -2.71,-3.286 -5.696,-6.301 -8.938,-9.06 -0.293,-0.249 -0.578,-0.505 -0.875,-0.75 -0.268,-0.221 -0.541,-0.439 -0.813,-0.656 -0.636,-0.509 -1.284,-1.012 -1.938,-1.5 -3.17,-2.368 -6.55,-4.481 -10.09,-6.313 -0.617,-0.319 -1.248,-0.636 -1.875,-0.938 -0.155,-0.074 -0.313,-0.145 -0.469,-0.219 -0.785,-0.371 -1.575,-0.719 -2.375,-1.063 -0.488,-0.209 -0.975,-0.426 -1.469,-0.625 -0.735,-0.296 -1.472,-0.571 -2.219,-0.844 -0.392,-0.143 -0.793,-0.27 -1.188,-0.406 -0.718,-0.248 -1.459,-0.524 -2.188,-0.75 -0.114,-0.035 -0.23,-0.059 -0.344,-0.094 -0.488,-0.149 -0.977,-0.267 -1.469,-0.406 -0.357,-0.1 -0.703,-0.217 -1.063,-0.313 -0.019,-0.005 -0.043,0.005 -0.063,0 -0.837,-0.221 -1.683,-0.433 -2.531,-0.625 -0.032,-0.007 -0.062,-0.024 -0.094,-0.031 -0.651,-0.146 -1.311,-0.278 -1.969,-0.406 -1,-0.197 -2.01,-0.376 -3.03,-0.531 -0.063,-0.01 -0.125,-0.022 -0.188,-0.031 -0.952,-0.143 -1.88,-0.269 -2.844,-0.375 -0.836,-0.091 -1.687,-0.156 -2.531,-0.219 -0.176,-0.013 -0.355,-0.019 -0.531,-0.031 -0.735,-0.049 -1.478,-0.097 -2.219,-0.125 -0.92,-0.034 -1.853,-0.063 -2.781,-0.063 H 147.503 78.659"
     inkscape:connector-curvature="0"
     id="path27"
     style="fill-opacity:0.17600002;filter:url(#7)" />
  <rect
     width="500"
     height="500"
     rx="72.639999"
     x="6"
     y="12"
     id="rect29"
     style="opacity:0.15" />
  <rect
     width="500"
     height="500"
     rx="72.639999"
     x="6"
     y="6"
     id="rect31"
     style="fill:url(#8)" />
  <rect
     width="435"
     height="435"
     rx="63.200001"
     x="38.5"
     y="38.5"
     id="rect33"
     style="fill:#8db173" />
  <path
     d="M 101.69,38.5 C 66.68,38.5 38.5,66.67 38.5,101.69 v 15 C 38.5,81.68 66.67,53.5 101.69,53.5 h 308.63 c 35.01,0 63.19,28.17 63.19,63.19 v -15 C 473.51,66.68 445.34,38.5 410.32,38.5 H 101.7"
     inkscape:connector-curvature="0"
     id="path35"
     style="opacity:0.2" />
  <path
     d="M 78.66,6 C 38.42,6 6,38.411 6,78.66 v 7 C 6,45.42 38.411,13 78.66,13 h 354.69 c 40.24,0 72.66,32.411 72.66,72.66 v -7 C 506.01,38.42 473.599,6 433.35,6 H 78.66"
     inkscape:connector-curvature="0"
     id="path37"
     style="fill:#ffffff" />
  <g
     transform="translate(716.19,-73.1)"
     id="g39">
    <path
       d="m -500.8,503.94 c -0.912,-0.154 -3.891,-0.61 -6.621,-1.014 -6.068,-0.898 -14.847,-3.901 -20.408,-6.98 -9.561,-5.295 -19.1,-18.12 -23.12,-31.08 -0.972,-3.134 -1.228,-6.02 -1.203,-13.596 0.028,-8.647 0.215,-10.185 1.861,-15.255 1.093,-3.365 3.683,-8.732 6.427,-13.316 2.528,-4.223 4.596,-7.849 4.596,-8.06 0,-0.208 -2.164,0.16 -4.808,0.819 -2.645,0.659 -7.07,1.395 -9.831,1.636 -6.484,0.566 -20.852,-1.222 -25.825,-3.213 -9.752,-3.905 -17.736,-13.52 -19.893,-23.959 -2.429,-11.754 3.214,-25.421 14.66,-35.507 2.884,-2.541 5.207,-4.845 5.162,-5.12 -0.045,-0.275 -2.657,-1.175 -5.805,-2 -7.494,-1.964 -12.317,-4.534 -19.02,-10.132 -6.617,-5.527 -11.554,-12.513 -13.727,-19.423 -1.228,-3.907 -1.492,-6.243 -1.47,-13.05 0.023,-7.201 0.261,-8.988 1.811,-13.596 5.535,-16.455 18.443,-29.858 35.401,-36.759 13.174,-5.361 26.451,-5.814 40.26,-1.373 3.306,1.063 6.107,1.838 6.224,1.721 0.117,-0.117 -0.816,-1.741 -2.074,-3.61 -7.553,-11.223 -10.548,-30.16 -7.01,-44.32 4.372,-17.501 15.609,-27.905 31.803,-29.445 9.498,-0.903 19.02,1.443 27.13,6.681 8.04,5.196 13.11,10.936 19.333,21.881 l 3.582,6.301 0.461,-2.695 c 2.119,-12.383 13.05,-25.797 27.22,-33.411 15.388,-8.267 31.954,-9.183 49.604,-2.742 10.667,3.893 18.13,9.766 24.494,19.286 6.587,9.848 9.595,19.488 9.519,30.505 -0.054,7.863 -1.526,14.372 -4.902,21.679 -1.442,3.12 -2.459,5.835 -2.261,6.03 0.198,0.198 3.719,-0.349 7.824,-1.216 9.371,-1.978 23.523,-2.166 30.346,-0.404 15.33,3.96 25.848,14.941 29.05,30.331 0.969,4.652 0.961,5.456 -0.112,10.915 -2.576,13.11 -12.196,25.04 -26.366,32.681 -2.498,1.348 -4.548,2.602 -4.554,2.786 -0.006,0.184 3.209,1.889 7.144,3.789 10.395,5.02 17.392,11.89 23.969,23.546 10.977,19.45 7.503,45.872 -8.349,63.5 -5.913,6.577 -16.596,12.822 -25.54,14.93 -11.799,2.782 -31.15,-0.298 -41.914,-6.67 -3.707,-2.195 -3.872,-2.232 -3.516,-0.793 0.205,0.83 0.7,4.741 1.099,8.69 1.247,12.349 -0.883,24.547 -5.741,32.875 -2.749,4.712 -9.258,10.758 -14.481,13.45 -7.968,4.106 -14.272,4.778 -23.864,2.541 -9.277,-2.163 -15.04,-5.575 -24.19,-14.312 l -5.177,-4.946 -0.783,3.161 c -1.25,5.04 -5.7,13.626 -9.567,18.449 -6.955,8.674 -17.403,15.366 -28.318,18.14 -4.987,1.267 -15.37,2.202 -18.533,1.668 m 9.336,-20.457 c 12.21,-2.588 21.338,-9.477 26.775,-20.21 1.648,-3.252 1.693,-3.697 1.693,-16.631 0,-8.789 -0.436,-17.16 -1.288,-24.728 -0.709,-6.291 -1.604,-15.617 -1.991,-20.724 -0.386,-5.107 -0.868,-10.815 -1.07,-12.685 l -0.368,-3.399 -3.776,-0.978 c -2.077,-0.538 -5.428,-1.737 -7.448,-2.664 l -3.671,-1.686 -22.07,25.803 c -14.991,17.527 -22.578,26.918 -23.654,29.28 -1.857,4.071 -4.304,14.555 -4.304,18.438 0,3.524 2.872,12.06 5.378,15.976 4.478,7.01 12.151,12.11 21.16,14.08 5.616,1.227 9.294,1.259 14.637,0.126 m 92,-22.527 c 4.071,-2.063 6.233,-4.581 8.168,-9.511 1.251,-3.188 1.5,-5.092 1.497,-11.451 -0.003,-6.727 -0.223,-8.215 -1.864,-12.602 -1.023,-2.736 -2.7,-6.645 -3.726,-8.688 -2.622,-5.219 -15.469,-20.532 -26.01,-31 l -8.907,-8.848 -3.247,1.633 c -1.786,0.898 -5.126,2.313 -7.423,3.145 -3.88,1.405 -4.151,1.634 -3.827,3.235 0.192,0.948 1.836,10.235 3.653,20.637 2.873,16.447 3.728,20.06 6.561,27.68 3.664,9.86 7.181,15.75 12.293,20.585 7.687,7.27 15.304,9 22.831,5.186 m 69.45,-49.29 c 13.64,-4.183 21.561,-13.232 23.985,-27.399 1.712,-10 0.167,-16.521 -5.997,-25.312 -3.894,-5.554 -8.352,-9.595 -13.406,-12.152 -3.859,-1.953 -4.096,-1.985 -15.526,-2.139 -8.979,-0.121 -17.98,0.407 -39.758,2.331 l -28.15,2.487 -1.089,3.638 c -0.599,2 -1.734,4.894 -2.523,6.429 l -1.434,2.79 10.445,8.518 c 5.745,4.685 17.723,14.472 26.619,21.75 8.896,7.278 16.954,13.864 17.908,14.637 2.249,1.824 10.667,4.842 15.326,5.496 4.516,0.633 9.256,0.259 13.601,-1.073 m -117.22,-42.538 c 8.15,-2.537 17.896,-11.184 20.803,-18.46 1.309,-3.276 1.544,-5.059 1.557,-11.817 0.015,-7.806 -0.031,-8.05 -2.39,-12.933 -6.596,-13.64 -21.639,-20.506 -36.996,-16.886 -14.238,3.356 -23.938,15.44 -23.938,29.819 0,10.942 5.32,20.267 15.255,26.741 7.05,4.593 17.636,6.05 25.711,3.536 m -92.03,-43.89 c 18.422,-2.212 33.906,-4.242 34.409,-4.512 0.504,-0.27 1.485,-1.939 2.18,-3.709 0.695,-1.77 2.339,-4.837 3.653,-6.817 1.351,-2.036 2.133,-3.836 1.8,-4.145 -0.324,-0.3 -9.901,-7.16 -21.283,-15.245 -17.465,-12.406 -21.708,-15.12 -27.19,-17.37 -5.528,-2.272 -7.45,-2.726 -12.863,-3.044 -7.977,-0.468 -11.501,0.319 -20.343,4.54 -10.381,4.956 -16.214,11.575 -19.719,22.378 -3.357,10.345 2.037,23.852 11.275,28.23 3.03,1.438 10.471,3.531 12.933,3.639 0.912,0.04 16.73,-1.737 35.15,-3.949 m 161.5,-8.25 c 16.415,-1.991 32.16,-4.218 34.994,-4.948 6.97,-1.797 17.285,-7.204 22.11,-11.588 2.155,-1.959 4.958,-5.294 6.228,-7.41 1.955,-3.256 2.312,-4.465 2.321,-7.87 0.013,-4.848 -1.436,-8.108 -5.218,-11.742 -3.845,-3.694 -8.627,-5.319 -16.838,-5.72 -7.989,-0.39 -12.504,0.389 -21.15,3.65 -5.917,2.232 -6.718,2.814 -30.509,22.17 -13.438,10.93 -24.833,20.438 -25.323,21.13 -1.323,1.866 0.121,5.958 2.102,5.956 0.792,-10e-4 14.871,-1.631 31.29,-3.622 m -24.534,-44.27 c 19.381,-23.25 22.617,-27.451 25.2,-32.72 7.03,-14.364 5.155,-30.712 -4.659,-40.526 -8.889,-8.89 -26.445,-13 -38.12,-8.931 -7.919,2.762 -17.748,10.581 -20.855,16.59 -4.03,7.788 -4.116,16.13 -0.595,56.33 l 2.459,28.07 4.355,2.222 c 2.395,1.222 5.4,2.974 6.677,3.894 1.277,0.92 2.542,1.687 2.813,1.705 0.27,0.018 10.498,-11.971 22.728,-26.642 m -69.1,17.658 c 1.898,-0.647 3.103,-1.455 3.103,-2.081 0,-2.078 -9.359,-55.02 -10.349,-58.54 -1.575,-5.605 -7.14,-16.466 -10.697,-20.877 -5.749,-7.131 -12.998,-11.423 -20.464,-12.12 -4.048,-0.376 -6.174,0.576 -10.296,4.61 -4.335,4.243 -5.564,8.243 -5.564,18.1 0,6.552 0.272,8.779 1.54,12.602 3.77,11.363 4.15,11.874 27.18,36.474 11.784,12.587 21.655,22.886 21.935,22.886 0.28,0 1.905,-0.476 3.611,-1.057"
       inkscape:connector-curvature="0"
       id="path41"
       style="opacity:0.2" />
    <path
       d="m -515.8,488.94 c -0.912,-0.154 -3.891,-0.61 -6.621,-1.014 -6.068,-0.898 -14.847,-3.901 -20.408,-6.98 -9.561,-5.295 -19.1,-18.12 -23.12,-31.08 -0.972,-3.134 -1.228,-6.02 -1.203,-13.596 0.028,-8.647 0.215,-10.185 1.861,-15.255 1.093,-3.365 3.683,-8.732 6.427,-13.316 2.528,-4.223 4.596,-7.849 4.596,-8.06 0,-0.208 -2.164,0.16 -4.808,0.819 -2.645,0.659 -7.07,1.395 -9.831,1.636 -6.484,0.566 -20.852,-1.222 -25.825,-3.213 -9.752,-3.905 -17.736,-13.52 -19.893,-23.959 -2.429,-11.754 3.214,-25.421 14.66,-35.507 2.884,-2.541 5.207,-4.845 5.162,-5.12 -0.045,-0.275 -2.657,-1.175 -5.805,-2 -7.494,-1.964 -12.317,-4.534 -19.02,-10.132 -6.617,-5.527 -11.554,-12.513 -13.727,-19.423 -1.228,-3.907 -1.492,-6.243 -1.47,-13.05 0.023,-7.201 0.261,-8.988 1.811,-13.596 5.535,-16.455 18.443,-29.858 35.401,-36.759 13.174,-5.361 26.451,-5.814 40.26,-1.373 3.306,1.063 6.107,1.838 6.224,1.721 0.117,-0.117 -0.816,-1.741 -2.074,-3.61 -7.553,-11.223 -10.548,-30.16 -7.01,-44.32 4.372,-17.501 15.609,-27.905 31.803,-29.445 9.498,-0.903 19.02,1.443 27.13,6.681 8.04,5.196 13.11,10.936 19.333,21.881 l 3.582,6.301 0.461,-2.695 c 2.119,-12.383 13.05,-25.797 27.22,-33.411 15.388,-8.267 31.954,-9.183 49.604,-2.742 10.667,3.893 18.13,9.766 24.494,19.286 6.587,9.848 9.595,19.488 9.519,30.505 -0.054,7.863 -1.526,14.372 -4.902,21.679 -1.442,3.12 -2.459,5.835 -2.261,6.03 0.198,0.198 3.719,-0.349 7.824,-1.216 9.371,-1.978 23.523,-2.166 30.346,-0.404 15.33,3.96 25.848,14.941 29.05,30.331 0.969,4.652 0.961,5.456 -0.112,10.915 -2.576,13.11 -12.196,25.04 -26.366,32.681 -2.498,1.348 -4.548,2.602 -4.554,2.786 -0.006,0.184 3.209,1.889 7.144,3.789 10.395,5.02 17.392,11.89 23.969,23.546 10.977,19.45 7.503,45.872 -8.349,63.5 -5.913,6.577 -16.596,12.822 -25.54,14.93 -11.799,2.782 -31.15,-0.298 -41.914,-6.67 -3.707,-2.195 -3.872,-2.232 -3.516,-0.793 0.205,0.83 0.7,4.741 1.099,8.69 1.247,12.349 -0.883,24.547 -5.741,32.875 -2.749,4.712 -9.258,10.758 -14.481,13.45 -7.968,4.106 -14.272,4.778 -23.864,2.541 -9.277,-2.163 -15.04,-5.575 -24.19,-14.312 l -5.177,-4.946 -0.783,3.161 c -1.25,5.04 -5.7,13.626 -9.567,18.449 -6.955,8.674 -17.403,15.366 -28.318,18.14 -4.987,1.267 -15.37,2.202 -18.533,1.668 m 9.336,-20.457 c 12.21,-2.588 21.338,-9.477 26.775,-20.21 1.648,-3.252 1.693,-3.697 1.693,-16.631 0,-8.789 -0.436,-17.16 -1.288,-24.728 -0.709,-6.291 -1.604,-15.617 -1.991,-20.724 -0.386,-5.107 -0.868,-10.815 -1.07,-12.685 l -0.368,-3.399 -3.776,-0.978 c -2.077,-0.538 -5.428,-1.737 -7.448,-2.664 l -3.671,-1.686 -22.07,25.803 c -14.991,17.527 -22.578,26.918 -23.654,29.28 -1.857,4.071 -4.304,14.555 -4.304,18.438 0,3.524 2.872,12.06 5.378,15.976 4.478,7.01 12.151,12.11 21.16,14.08 5.616,1.227 9.294,1.259 14.637,0.126 m 92,-22.527 c 4.071,-2.063 6.233,-4.581 8.168,-9.511 1.251,-3.188 1.5,-5.092 1.497,-11.451 -0.003,-6.727 -0.223,-8.215 -1.864,-12.602 -1.023,-2.736 -2.7,-6.645 -3.726,-8.688 -2.622,-5.219 -15.469,-20.532 -26.01,-31 l -8.907,-8.848 -3.247,1.633 c -1.786,0.898 -5.126,2.313 -7.423,3.145 -3.88,1.405 -4.151,1.634 -3.827,3.235 0.192,0.948 1.836,10.235 3.653,20.637 2.873,16.447 3.728,20.06 6.561,27.68 3.664,9.86 7.181,15.75 12.293,20.585 7.687,7.27 15.304,9 22.831,5.186 m 69.45,-49.29 c 13.64,-4.183 21.561,-13.232 23.985,-27.399 1.712,-10 0.167,-16.521 -5.997,-25.312 -3.894,-5.554 -8.352,-9.595 -13.406,-12.152 -3.859,-1.953 -4.096,-1.985 -15.526,-2.139 -8.979,-0.121 -17.98,0.407 -39.758,2.331 l -28.15,2.487 -1.089,3.638 c -0.599,2 -1.734,4.894 -2.523,6.429 l -1.434,2.79 10.445,8.518 c 5.745,4.685 17.723,14.472 26.619,21.75 8.896,7.278 16.954,13.864 17.908,14.637 2.249,1.824 10.667,4.842 15.326,5.496 4.516,0.633 9.256,0.259 13.601,-1.073 m -117.22,-42.538 c 8.15,-2.537 17.896,-11.184 20.803,-18.46 1.309,-3.276 1.544,-5.059 1.557,-11.817 0.015,-7.806 -0.031,-8.05 -2.39,-12.933 -6.596,-13.64 -21.639,-20.506 -36.996,-16.886 -14.238,3.356 -23.938,15.44 -23.938,29.819 0,10.942 5.32,20.267 15.255,26.741 7.05,4.593 17.636,6.05 25.711,3.536 m -92.03,-43.89 c 18.422,-2.212 33.906,-4.242 34.409,-4.512 0.504,-0.27 1.485,-1.939 2.18,-3.709 0.695,-1.77 2.339,-4.837 3.653,-6.817 1.351,-2.036 2.133,-3.836 1.8,-4.145 -0.324,-0.3 -9.901,-7.16 -21.283,-15.245 -17.465,-12.406 -21.708,-15.12 -27.19,-17.37 -5.528,-2.272 -7.45,-2.726 -12.863,-3.044 -7.977,-0.468 -11.501,0.319 -20.343,4.54 -10.381,4.956 -16.214,11.575 -19.719,22.378 -3.357,10.345 2.037,23.852 11.275,28.23 3.03,1.438 10.471,3.531 12.933,3.639 0.912,0.04 16.73,-1.737 35.15,-3.949 m 161.5,-8.25 c 16.415,-1.991 32.16,-4.218 34.994,-4.948 6.97,-1.797 17.285,-7.204 22.11,-11.588 2.155,-1.959 4.958,-5.294 6.228,-7.41 1.955,-3.256 2.312,-4.465 2.321,-7.87 0.013,-4.848 -1.436,-8.108 -5.218,-11.742 -3.845,-3.694 -8.627,-5.319 -16.838,-5.72 -7.989,-0.39 -12.504,0.389 -21.15,3.65 -5.917,2.232 -6.718,2.814 -30.509,22.17 -13.438,10.93 -24.833,20.438 -25.323,21.13 -1.323,1.866 0.121,5.958 2.102,5.956 0.792,-10e-4 14.871,-1.631 31.29,-3.622 m -24.534,-44.27 c 19.381,-23.25 22.617,-27.451 25.2,-32.72 7.03,-14.364 5.155,-30.712 -4.659,-40.526 -8.889,-8.89 -26.445,-13 -38.12,-8.931 -7.919,2.762 -17.748,10.581 -20.855,16.59 -4.03,7.788 -4.116,16.13 -0.595,56.33 l 2.459,28.07 4.355,2.222 c 2.395,1.222 5.4,2.974 6.677,3.894 1.277,0.92 2.542,1.687 2.813,1.705 0.27,0.018 10.498,-11.971 22.728,-26.642 m -69.1,17.658 c 1.898,-0.647 3.103,-1.455 3.103,-2.081 0,-2.078 -9.359,-55.02 -10.349,-58.54 -1.575,-5.605 -7.14,-16.466 -10.697,-20.877 -5.749,-7.131 -12.998,-11.423 -20.464,-12.12 -4.048,-0.376 -6.174,0.576 -10.296,4.61 -4.335,4.243 -5.564,8.243 -5.564,18.1 0,6.552 0.272,8.779 1.54,12.602 3.77,11.363 4.15,11.874 27.18,36.474 11.784,12.587 21.655,22.886 21.935,22.886 0.28,0 1.905,-0.476 3.611,-1.057"
       inkscape:connector-curvature="0"
       id="path43"
       style="fill:#dcdbdb" />
  </g>
  <path
     d="M 78.66,6 C 63.797,6 49.99,10.43 38.5,18.03 V 493.97 C 49.986,501.572 63.793,506 78.66,506 h 68.844 V 6 H 78.66"
     inkscape:connector-curvature="0"
     id="path45"
     style="opacity:0.05;fill:url(#1)" />
  <path
     d="m 147.5,6 v 500 h 109 V 6 h -109"
     inkscape:connector-curvature="0"
     id="path47"
     style="opacity:0.05;fill:url(#2)" />
  <path
     d="m 256.5,6 v 500 h 109 V 6 h -109"
     inkscape:connector-curvature="0"
     id="path49"
     style="opacity:0.05;fill:url(#3)" />
  <path
     d="m 365.5,6 v 500 h 67.844 c 14.854,0 28.643,-4.438 40.13,-12.03 V 18.03 C 461.992,10.437 448.204,6 433.354,6 H 365.51"
     inkscape:connector-curvature="0"
     id="path51"
     style="opacity:0.05;fill:url(#4)" />
  <path
     d="M 38.5,18.03 C 18.886,31.011 6,53.27 6,78.66 v 354.69 c 0,25.381 12.886,47.644 32.5,60.63 V 18.04"
     inkscape:connector-curvature="0"
     id="path53"
     style="opacity:0.05;fill:url(#6)" />
  <path
     d="m 473.47,18.03 v 475.94 c 19.627,-12.979 32.531,-35.23 32.531,-60.62 V 78.66 c 0,-25.391 -12.905,-47.646 -32.531,-60.62"
     inkscape:connector-curvature="0"
     id="path55"
     style="opacity:0.05;fill:url(#5)" />
</svg>
