<?xml version="1.0" encoding="UTF-8" standalone="no"?>
<svg
   xmlns:dc="http://purl.org/dc/elements/1.1/"
   xmlns:cc="http://creativecommons.org/ns#"
   xmlns:rdf="http://www.w3.org/1999/02/22-rdf-syntax-ns#"
   xmlns:svg="http://www.w3.org/2000/svg"
   xmlns="http://www.w3.org/2000/svg"
   xmlns:xlink="http://www.w3.org/1999/xlink"
   xmlns:sodipodi="http://sodipodi.sourceforge.net/DTD/sodipodi-0.dtd"
   xmlns:inkscape="http://www.inkscape.org/namespaces/inkscape"
   viewBox="0 0 512 512"
   id="svg2"
   version="1.1"
   inkscape:version="0.48.4 r9939"
   width="100%"
   height="100%"
   sodipodi:docname="identica.svg">
  <sodipodi:namedview
     pagecolor="#444444"
     bordercolor="#666666"
     borderopacity="1"
     objecttolerance="10"
     gridtolerance="10"
     guidetolerance="10"
     inkscape:pageopacity="0"
     inkscape:pageshadow="2"
     inkscape:window-width="1310"
     inkscape:window-height="718"
     id="namedview6"
     showgrid="false"
     showguides="true"
     inkscape:guide-bbox="true"
     inkscape:zoom="0.5181105"
     inkscape:cx="581.53618"
     inkscape:cy="136.63243"
     inkscape:window-x="54"
     inkscape:window-y="27"
     inkscape:window-maximized="1"
     inkscape:current-layer="svg2"
     inkscape:snap-midpoints="true"
     inkscape:snap-global="false">
    <sodipodi:guide
       id="guide2989"
       position="522.57628,433.35594"
       orientation="0,1" />
    <sodipodi:guide
       id="guide2995"
       position="473.05444,254.912"
       orientation="1,0" />
  </sodipodi:namedview>
  <metadata
     id="metadata10">
    <rdf:RDF>
      <cc:Work
         rdf:about="">
        <dc:format>image/svg+xml</dc:format>
        <dc:type
           rdf:resource="http://purl.org/dc/dcmitype/StillImage" />
        <dc:title />
      </cc:Work>
    </rdf:RDF>
  </metadata>
  <defs
     id="defs8">
    <linearGradient
       id="linearGradient4996">
      <stop
         style="stop-color:#000000;stop-opacity:1;"
         offset="0"
         id="stop4998" />
      <stop
         style="stop-color:#ffffff;stop-opacity:1;"
         offset="1"
         id="stop5000" />
    </linearGradient>
    <linearGradient
       inkscape:collect="always"
       xlink:href="#linearGradient4996"
       id="linearGradient3108"
       gradientUnits="userSpaceOnUse"
       gradientTransform="matrix(1.0380952,0,0,1.4619252,-228.28943,-118.25286)"
       x1="257"
       y1="256"
       x2="362"
       y2="256" />
    <linearGradient
       inkscape:collect="always"
       xlink:href="#linearGradient4996"
       id="linearGradient3137"
       gradientUnits="userSpaceOnUse"
       gradientTransform="matrix(1.0380952,0,0,1.4619252,-119.28943,-118.25286)"
       x1="257"
       y1="256"
       x2="362"
       y2="256" />
    <linearGradient
       inkscape:collect="always"
       xlink:href="#linearGradient4996"
       id="linearGradient3141"
       gradientUnits="userSpaceOnUse"
       gradientTransform="matrix(1.0380952,0,0,1.4619252,-10.28943,-118.25286)"
       x1="257"
       y1="256"
       x2="362"
       y2="256" />
    <linearGradient
       inkscape:collect="always"
       xlink:href="#linearGradient4996"
       id="linearGradient3145"
       gradientUnits="userSpaceOnUse"
       gradientTransform="matrix(1.0283468,0,0,1.4619252,101.21591,-118.25286)"
       x1="257"
       y1="256"
       x2="362"
       y2="256" />
    <linearGradient
       inkscape:collect="always"
       xlink:href="#linearGradient4996"
       id="linearGradient3149"
       gradientUnits="userSpaceOnUse"
       gradientTransform="matrix(1.0283468,0,0,1.4619252,209.19233,-118.25286)"
       x1="257"
       y1="256"
       x2="362"
       y2="256" />
    <linearGradient
       inkscape:collect="always"
       xlink:href="#linearGradient4996"
       id="linearGradient3153"
       gradientUnits="userSpaceOnUse"
       gradientTransform="matrix(1.0380952,0,0,1.4619252,-337.28943,-118.25286)"
       x1="257"
       y1="256"
       x2="362"
       y2="256" />
  </defs>
  <rect
     style="opacity:0.2;fill:#000000;fill-opacity:1;stroke:none"
     id="rect5028"
     width="500"
     height="500"
     x="6"
     y="12"
     rx="72.644058"
     ry="72.644058" />
  <rect
     ry="72.644058"
     rx="72.644058"
     y="6"
     x="6"
     height="500"
     width="500"
     id="rect4979"
     style="fill:#f3f3f3;fill-opacity:1;stroke:none" />
  <rect
     style="fill:#49a026;fill-opacity:1;stroke:none"
     id="rect4981"
     width="434.99997"
     height="434.99997"
     x="38.500011"
     y="38.500011"
     rx="63.200329"
     ry="63.200329" />
  <path
     style="fill:#000000;fill-opacity:1;stroke:none;opacity:0.2"
     d="M 101.6875 38.5 C 66.674518 38.5 38.5 66.674518 38.5 101.6875 L 38.5 116.6875 C 38.5 81.674518 66.674518 53.5 101.6875 53.5 L 410.3125 53.5 C 445.32548 53.5 473.5 81.674518 473.5 116.6875 L 473.5 101.6875 C 473.5 66.674518 445.32548 38.5 410.3125 38.5 L 101.6875 38.5 z "
     id="rect3187" />
  <g
     id="g3048"
     transform="translate(447.76191,-80.639134)">
    <path
       style="opacity:0.2;fill:#000000;fill-opacity:1"
       d="m -293.15075,497.33708 c 52.0904,-14.10369 52.6032,-14.18454 65.6258,-10.34538 47.34746,13.95842 83.77776,10.88653 124.74553,-10.5189 63.82041,-33.34578 96.967529,-108.53011 79.063367,-179.3315 -7.499454,-29.65635 -20.941875,-52.81204 -43.799053,-75.44759 -56.610444,-56.0615 -142.633474,-60.25191 -206.579254,-10.06306 -26.54516,20.83438 -45.32007,50.73195 -54.56982,86.89809 -6.29766,24.62361 -6.5655,45.46579 -0.94073,73.20571 l 4.25817,21.00025 -12.12112,57.75092 c -6.66658,31.76299 -12.12108,58.63675 -12.12108,59.71948 0,2.57087 -3.69552,3.41346 56.43819,-12.86802 z m 10.18284,-68.96326 c 12.54138,-29.89542 13.94456,-35.52028 9.53999,-38.24247 -1.42447,-0.88035 -5.11154,-9.9024 -8.19346,-20.04899 -25.80396,-84.95391 52.20564,-164.65742 136.19052,-139.1478 78.911744,23.96872 103.936751,125.64613 45.34496,184.23792 -19.95289,19.95289 -42.58387,29.61222 -72.31338,30.86476 -19.99839,0.84253 -26.2672,0.0291 -40.83447,-5.29876 l -17.20922,-6.29409 -31.35388,12.31478 c -17.24465,6.77314 -31.792,11.91303 -32.32745,11.42202 -0.53545,-0.49101 4.48492,-13.90435 11.15639,-29.80737 z"
       id="path3046"
       inkscape:connector-curvature="0" />
    <path
       inkscape:connector-curvature="0"
       id="path3044"
       d="m -308.15075,482.33708 c 52.0904,-14.10369 52.6032,-14.18454 65.6258,-10.34538 47.34746,13.95842 83.77776,10.88653 124.74553,-10.5189 63.82041,-33.34578 96.967529,-108.53011 79.063367,-179.3315 -7.499454,-29.65635 -20.941875,-52.81204 -43.799053,-75.44759 -56.610444,-56.0615 -142.633474,-60.25191 -206.579254,-10.06306 -26.54516,20.83438 -45.32007,50.73195 -54.56982,86.89809 -6.29766,24.62361 -6.5655,45.46579 -0.94073,73.20571 l 4.25817,21.00025 -12.12112,57.75092 c -6.66658,31.76299 -12.12108,58.63675 -12.12108,59.71948 0,2.57087 -3.69552,3.41346 56.43819,-12.86802 z m 10.18284,-68.96326 c 12.54138,-29.89542 13.94456,-35.52028 9.53999,-38.24247 -1.42447,-0.88035 -5.11154,-9.9024 -8.19346,-20.04899 -25.80396,-84.95391 52.20564,-164.65742 136.19052,-139.1478 78.911744,23.96872 103.936751,125.64613 45.34496,184.23792 -19.95289,19.95289 -42.58387,29.61222 -72.31338,30.86476 -19.99839,0.84253 -26.2672,0.0291 -40.83447,-5.29876 l -17.20922,-6.29409 -31.35388,12.31478 c -17.24465,6.77314 -31.792,11.91303 -32.32745,11.42202 -0.53545,-0.49101 4.48492,-13.90435 11.15639,-29.80737 z"
       style="fill:#dcdbdb;fill-opacity:1" />
  </g>
  <g
     id="g3167">
    <path
       id="rect3068"
       d="M 78.65625 6 C 63.792798 6 49.986224 10.429561 38.5 18.03125 L 38.5 493.96875 C 49.986224 501.57044 63.792798 506 78.65625 506 L 147.5 506 L 147.5 6 L 78.65625 6 z "
       style="opacity:0.05000000000000000;fill:url(#linearGradient3108);fill-opacity:1;stroke:none" />
    <path
       inkscape:connector-curvature="0"
       style="opacity:0.05;fill:url(#linearGradient3137);fill-opacity:1;stroke:none"
       d="m 147.50001,6 0,500 109,0 0,-500 -109,0 z"
       id="path3135" />
    <path
       id="path3139"
       d="m 256.50001,6 0,500 109,0 0,-500 -109,0 z"
       style="opacity:0.05;fill:url(#linearGradient3141);fill-opacity:1;stroke:none"
       inkscape:connector-curvature="0" />
    <path
       id="path3143"
       d="M 365.5 6 L 365.5 506 L 433.34375 506 C 448.1977 506 461.98692 501.56151 473.46875 493.96875 L 473.46875 18.03125 C 461.98692 10.438491 448.1977 6 433.34375 6 L 365.5 6 z "
       style="opacity:0.05000000000000000;fill:url(#linearGradient3145);fill-opacity:1;stroke:none" />
    <path
       id="path3151"
       d="M 38.5 18.03125 C 18.885717 31.012164 6 53.274894 6 78.65625 L 6 433.34375 C 6 458.72511 18.885717 480.98784 38.5 493.96875 L 38.5 18.03125 z "
       style="opacity:0.05000000000000000;fill:url(#linearGradient3153);fill-opacity:1;stroke:none" />
    <path
       id="path3147"
       d="M 473.46875 18.03125 L 473.46875 493.96875 C 493.09542 480.98993 506 458.73461 506 433.34375 L 506 78.65625 C 506 53.265388 493.09542 31.010071 473.46875 18.03125 z "
       style="opacity:0.05000000000000000;fill:url(#linearGradient3149);fill-opacity:1;stroke:none" />
  </g>
</svg>
