<?xml version="1.0" encoding="UTF-8" standalone="no"?>
<svg
   xmlns:dc="http://purl.org/dc/elements/1.1/"
   xmlns:cc="http://creativecommons.org/ns#"
   xmlns:rdf="http://www.w3.org/1999/02/22-rdf-syntax-ns#"
   xmlns:svg="http://www.w3.org/2000/svg"
   xmlns="http://www.w3.org/2000/svg"
   xmlns:xlink="http://www.w3.org/1999/xlink"
   xmlns:sodipodi="http://sodipodi.sourceforge.net/DTD/sodipodi-0.dtd"
   xmlns:inkscape="http://www.inkscape.org/namespaces/inkscape"
   viewBox="0 0 512 512"
   id="svg2"
   version="1.1"
   inkscape:version="0.48.4 r9939"
   width="100%"
   height="100%"
   sodipodi:docname="base.svg">
  <sodipodi:namedview
     pagecolor="#444444"
     bordercolor="#666666"
     borderopacity="1"
     objecttolerance="10"
     gridtolerance="10"
     guidetolerance="10"
     inkscape:pageopacity="0"
     inkscape:pageshadow="2"
     inkscape:window-width="1310"
     inkscape:window-height="718"
     id="namedview6"
     showgrid="false"
     showguides="true"
     inkscape:guide-bbox="true"
     inkscape:zoom="0.5181105"
     inkscape:cx="147.2901"
     inkscape:cy="301.54067"
     inkscape:window-x="54"
     inkscape:window-y="27"
     inkscape:window-maximized="1"
     inkscape:current-layer="svg2"
     inkscape:snap-midpoints="true"
     inkscape:snap-global="false">
    <sodipodi:guide
       id="guide2989"
       position="522.57628,433.35594"
       orientation="0,1" />
    <sodipodi:guide
       id="guide2995"
       position="473.05444,254.912"
       orientation="1,0" />
  </sodipodi:namedview>
  <metadata
     id="metadata10">
    <rdf:RDF>
      <cc:Work
         rdf:about="">
        <dc:format>image/svg+xml</dc:format>
        <dc:type
           rdf:resource="http://purl.org/dc/dcmitype/StillImage" />
        <dc:title></dc:title>
      </cc:Work>
    </rdf:RDF>
  </metadata>
  <defs
     id="defs8">
    <linearGradient
       id="linearGradient4996">
      <stop
         style="stop-color:#000000;stop-opacity:1;"
         offset="0"
         id="stop4998" />
      <stop
         style="stop-color:#ffffff;stop-opacity:1;"
         offset="1"
         id="stop5000" />
    </linearGradient>
    <linearGradient
       inkscape:collect="always"
       xlink:href="#linearGradient4996"
       id="linearGradient3108"
       gradientUnits="userSpaceOnUse"
       gradientTransform="matrix(1.0380952,0,0,1.4619252,-228.28943,-118.25286)"
       x1="257"
       y1="256"
       x2="362"
       y2="256" />
    <linearGradient
       inkscape:collect="always"
       xlink:href="#linearGradient4996"
       id="linearGradient3137"
       gradientUnits="userSpaceOnUse"
       gradientTransform="matrix(1.0380952,0,0,1.4619252,-119.28943,-118.25286)"
       x1="257"
       y1="256"
       x2="362"
       y2="256" />
    <linearGradient
       inkscape:collect="always"
       xlink:href="#linearGradient4996"
       id="linearGradient3141"
       gradientUnits="userSpaceOnUse"
       gradientTransform="matrix(1.0380952,0,0,1.4619252,-10.28943,-118.25286)"
       x1="257"
       y1="256"
       x2="362"
       y2="256" />
    <linearGradient
       inkscape:collect="always"
       xlink:href="#linearGradient4996"
       id="linearGradient3145"
       gradientUnits="userSpaceOnUse"
       gradientTransform="matrix(1.0283468,0,0,1.4619252,101.21591,-118.25286)"
       x1="257"
       y1="256"
       x2="362"
       y2="256" />
    <linearGradient
       inkscape:collect="always"
       xlink:href="#linearGradient4996"
       id="linearGradient3149"
       gradientUnits="userSpaceOnUse"
       gradientTransform="matrix(1.0283468,0,0,1.4619252,209.19233,-118.25286)"
       x1="257"
       y1="256"
       x2="362"
       y2="256" />
    <linearGradient
       inkscape:collect="always"
       xlink:href="#linearGradient4996"
       id="linearGradient3153"
       gradientUnits="userSpaceOnUse"
       gradientTransform="matrix(1.0380952,0,0,1.4619252,-337.28943,-118.25286)"
       x1="257"
       y1="256"
       x2="362"
       y2="256" />
  </defs>
  <rect
     style="opacity:0.2;fill:#000000;fill-opacity:1;stroke:none"
     id="rect5028"
     width="500"
     height="500"
     x="6"
     y="12"
     rx="72.644058"
     ry="72.644058" />
  <rect
     ry="72.644058"
     rx="72.644058"
     y="6"
     x="6"
     height="500"
     width="500"
     id="rect4979"
     style="fill:#f3f3f3;fill-opacity:1;stroke:none" />
  <rect
     style="fill:#e3ac3c;fill-opacity:1;stroke:none"
     id="rect4981"
     width="434.99997"
     height="434.99997"
     x="38.500011"
     y="38.500011"
     rx="63.200329"
     ry="63.200329" />
  <path
     style="fill:#000000;fill-opacity:1;stroke:none;opacity:0.2"
     d="M 101.6875 38.5 C 66.674518 38.5 38.5 66.674518 38.5 101.6875 L 38.5 116.6875 C 38.5 81.674518 66.674518 53.5 101.6875 53.5 L 410.3125 53.5 C 445.32548 53.5 473.5 81.674518 473.5 116.6875 L 473.5 101.6875 C 473.5 66.674518 445.32548 38.5 410.3125 38.5 L 101.6875 38.5 z "
     id="rect3187" />
  <g
     id="g3068"
     transform="matrix(1.1174805,0,0,1.1174805,546.75354,36.501651)">
    <g
       id="g3058"
       transform="matrix(11.165719,0,0,11.165719,-14793.482,-12867.288)"
       style="opacity:0.2;fill:#000000;fill-opacity:1">
      <rect
         style="fill:#000000;fill-opacity:1"
         id="rect3060"
         height="11.898"
         width="2.9159999"
         y="1164.707"
         x="1287.27" />
      <polygon
         style="fill:#000000;fill-opacity:1"
         id="polygon3062"
         points="1296.371,1170.32 1295.395,1164.707 1291.643,1164.707 1291.643,1176.605 1294.268,1176.605 1294.268,1169.928 1295.504,1176.605 1297.305,1176.605 1298.51,1169.928 1298.51,1176.605 1300.996,1176.605 1300.996,1164.707 1297.045,1164.707 " />
      <path
         style="fill:#000000;fill-opacity:1"
         inkscape:connector-curvature="0"
         id="path3064"
         d="m 1305.797,1164.707 h -3.262 v 11.898 h 3.279 c 1.863,0 2.486,-0.205 3.006,-0.617 0.518,-0.412 0.777,-0.99 0.777,-1.73 v -7.201 c 0,-0.797 -0.277,-1.389 -0.832,-1.771 -0.554,-0.386 -1.027,-0.579 -2.968,-0.579 z m 0.672,9.402 c 0,0.563 -0.629,0.488 -1.127,0.488 v -7.992 c 0.498,0 1.127,-0.053 1.127,0.527 v 6.977 z" />
      <path
         style="fill:#000000;fill-opacity:1"
         inkscape:connector-curvature="0"
         id="path3066"
         d="m 1315.467,1166.605 c -0.813,-0.037 -1.65,0.488 -1.951,0.826 v -2.725 h -2.982 v 11.898 h 2.408 c 0,0 0.184,-0.709 0.387,-0.619 0.205,0.088 1.238,0.523 1.951,0.523 0.713,0 1.004,-0.047 1.348,-0.193 0.426,-0.283 0.641,-0.668 0.641,-1.154 v -6.92 c 0.073,-0.997 -0.99,-1.598 -1.802,-1.636 z m -1.133,7.946 c 0,0.293 -0.135,0.496 -0.406,0.496 -0.275,0 -0.414,-0.203 -0.414,-0.496 l 0,-6.012 c 0,-0.281 0.137,-0.422 0.414,-0.422 0.271,0 0.408,0.146 0.408,0.439 l 0,5.995 z" />
    </g>
    <g
       style="fill:#dcdbdb;fill-opacity:1"
       transform="matrix(11.165719,0,0,11.165719,-14808.482,-12882.288)"
       id="g2438">
      <rect
         x="1287.27"
         y="1164.707"
         width="2.9159999"
         height="11.898"
         id="rect2440"
         style="fill:#dcdbdb;fill-opacity:1" />
      <polygon
         points="1297.045,1164.707 1296.371,1170.32 1295.395,1164.707 1291.643,1164.707 1291.643,1176.605 1294.268,1176.605 1294.268,1169.928 1295.504,1176.605 1297.305,1176.605 1298.51,1169.928 1298.51,1176.605 1300.996,1176.605 1300.996,1164.707 "
         id="polygon2442"
         style="fill:#dcdbdb;fill-opacity:1" />
      <path
         d="m 1305.797,1164.707 h -3.262 v 11.898 h 3.279 c 1.863,0 2.486,-0.205 3.006,-0.617 0.518,-0.412 0.777,-0.99 0.777,-1.73 v -7.201 c 0,-0.797 -0.277,-1.389 -0.832,-1.771 -0.554,-0.386 -1.027,-0.579 -2.968,-0.579 z m 0.672,9.402 c 0,0.563 -0.629,0.488 -1.127,0.488 v -7.992 c 0.498,0 1.127,-0.053 1.127,0.527 v 6.977 z"
         id="path2444"
         inkscape:connector-curvature="0"
         style="fill:#dcdbdb;fill-opacity:1" />
      <path
         d="m 1315.467,1166.605 c -0.813,-0.037 -1.65,0.488 -1.951,0.826 v -2.725 h -2.982 v 11.898 h 2.408 c 0,0 0.184,-0.709 0.387,-0.619 0.205,0.088 1.238,0.523 1.951,0.523 0.713,0 1.004,-0.047 1.348,-0.193 0.426,-0.283 0.641,-0.668 0.641,-1.154 v -6.92 c 0.073,-0.997 -0.99,-1.598 -1.802,-1.636 z m -1.133,7.946 c 0,0.293 -0.135,0.496 -0.406,0.496 -0.275,0 -0.414,-0.203 -0.414,-0.496 l 0,-6.012 c 0,-0.281 0.137,-0.422 0.414,-0.422 0.271,0 0.408,0.146 0.408,0.439 l 0,5.995 z"
         id="path2446"
         inkscape:connector-curvature="0"
         style="fill:#dcdbdb;fill-opacity:1" />
    </g>
  </g>
  <g
     id="g3167">
    <path
       id="rect3068"
       d="M 78.65625 6 C 63.792798 6 49.986224 10.429561 38.5 18.03125 L 38.5 493.96875 C 49.986224 501.57044 63.792798 506 78.65625 506 L 147.5 506 L 147.5 6 L 78.65625 6 z "
       style="opacity:0.05000000000000000;fill:url(#linearGradient3108);fill-opacity:1;stroke:none" />
    <path
       inkscape:connector-curvature="0"
       style="opacity:0.05;fill:url(#linearGradient3137);fill-opacity:1;stroke:none"
       d="m 147.50001,6 0,500 109,0 0,-500 -109,0 z"
       id="path3135" />
    <path
       id="path3139"
       d="m 256.50001,6 0,500 109,0 0,-500 -109,0 z"
       style="opacity:0.05;fill:url(#linearGradient3141);fill-opacity:1;stroke:none"
       inkscape:connector-curvature="0" />
    <path
       id="path3143"
       d="M 365.5 6 L 365.5 506 L 433.34375 506 C 448.1977 506 461.98692 501.56151 473.46875 493.96875 L 473.46875 18.03125 C 461.98692 10.438491 448.1977 6 433.34375 6 L 365.5 6 z "
       style="opacity:0.05000000000000000;fill:url(#linearGradient3145);fill-opacity:1;stroke:none" />
    <path
       id="path3151"
       d="M 38.5 18.03125 C 18.885717 31.012164 6 53.274894 6 78.65625 L 6 433.34375 C 6 458.72511 18.885717 480.98784 38.5 493.96875 L 38.5 18.03125 z "
       style="opacity:0.05000000000000000;fill:url(#linearGradient3153);fill-opacity:1;stroke:none" />
    <path
       id="path3147"
       d="M 473.46875 18.03125 L 473.46875 493.96875 C 493.09542 480.98993 506 458.73461 506 433.34375 L 506 78.65625 C 506 53.265388 493.09542 31.010071 473.46875 18.03125 z "
       style="opacity:0.05000000000000000;fill:url(#linearGradient3149);fill-opacity:1;stroke:none" />
  </g>
</svg>
