<svg xmlns="http://www.w3.org/2000/svg" xmlns:xlink="http://www.w3.org/1999/xlink" viewBox="0 0 512 512"><defs><filter id="7"><feGaussianBlur stdDeviation="3.7725"/></filter><linearGradient id="8" y1="19.564" x2="0" y2="504.02" gradientUnits="userSpaceOnUse"><stop stop-color="#f3f3f3"/><stop offset=".5" stop-color="#eee"/><stop offset="1" stop-color="#ebebeb"/></linearGradient><linearGradient xlink:href="#0" id="5" gradientUnits="userSpaceOnUse" gradientTransform="matrix(1.02835 0 0 1.46193 209.19-118.25)" x1="257" x2="362"/><linearGradient xlink:href="#0" id="6" gradientUnits="userSpaceOnUse" gradientTransform="matrix(1.0381 0 0 1.46193-337.29-118.25)" x1="257" x2="362"/><linearGradient xlink:href="#0" id="4" gradientUnits="userSpaceOnUse" gradientTransform="matrix(1.02835 0 0 1.46193 101.22-118.25)" x1="257" x2="362"/><linearGradient xlink:href="#0" id="3" gradientUnits="userSpaceOnUse" gradientTransform="matrix(1.0381 0 0 1.46193-10.289-118.25)" x1="257" x2="362"/><linearGradient id="0"><stop/><stop offset="1" stop-color="#fff"/></linearGradient><linearGradient xlink:href="#0" id="2" gradientUnits="userSpaceOnUse" gradientTransform="matrix(1.0381 0 0 1.46193-119.29-118.25)" x1="257" x2="362"/><linearGradient xlink:href="#0" id="1" gradientUnits="userSpaceOnUse" gradientTransform="matrix(1.0381 0 0 1.46193-228.29-118.25)" x1="257" x2="362"/></defs><path d="m78.66 6c-.929 0-1.861.028-2.781.063-.073.003-.146-.003-.219 0-.668.027-1.337.08-2 .125-.376.025-.751.063-1.125.094-.645.053-1.297.086-1.938.156-.965.106-1.922.232-2.875.375-.052.008-.104.023-.156.031-1.082.165-2.154.351-3.219.563-.459.091-.919.182-1.375.281-.39.085-.769.19-1.156.281-.647.152-1.297.299-1.938.469-.898.238-1.804.479-2.688.75-.211.065-.414.152-.625.219-.991.314-1.966.645-2.938 1-.817.298-1.635.611-2.438.938-.29.118-.587.222-.875.344-.136.057-.27.129-.406.188-.082.035-.169.058-.25.094-.717.311-1.42.636-2.125.969-.147.069-.291.148-.438.219-.947.455-1.889.943-2.813 1.438-.271.145-.544.289-.813.438-.414.228-.81.483-1.219.719-.52.3-1.051.594-1.563.906-.738.452-1.467.898-2.188 1.375-.031.021-.062.042-.094.063-.456.303-.895.625-1.344.938-.123.086-.252.163-.375.25-.524.37-1.049.742-1.563 1.125-1.835 1.371-3.618 2.84-5.313 4.375-.017.015-.046.016-.063.031-.526.477-1.02.977-1.531 1.469-.524.505-1.054 1.011-1.563 1.531-.512.523-1 1.055-1.5 1.594-.941 1.022-1.837 2.05-2.719 3.125-.631.769-1.244 1.58-1.844 2.375-.111.148-.233.289-.344.438-.526.71-1.031 1.427-1.531 2.156-.11.16-.235.308-.344.469-.013.019-.018.043-.031.063-.084.125-.167.249-.25.375-.47.708-.929 1.431-1.375 2.156-.071.116-.148.227-.219.344-.575.948-1.124 1.899-1.656 2.875-.152.278-.289.564-.438.844-.18.341-.356.687-.531 1.031-.243.479-.486.952-.719 1.438-.426.885-.828 1.783-1.219 2.688-.24.556-.461 1.124-.688 1.688-.038.095-.087.186-.125.281-.246.621-.489 1.245-.719 1.875-.332.909-.641 1.825-.938 2.75-.11.345-.238.684-.344 1.031-.301.99-.585 1.992-.844 3-.008.032-.023.062-.031.094-.267 1.046-.497 2.092-.719 3.156-.034.166-.06.334-.094.5-.426 2.117-.762 4.257-1 6.438-.035.323-.063.645-.094.969-.09.938-.165 1.895-.219 2.844-.017.29-.018.584-.031.875-.051 1.119-.094 2.243-.094 3.375v354.69 6c0 40.24 32.411 72.66 72.66 72.66h354.69c40.24 0 72.66-32.411 72.66-72.66v-354.69-6c0-1.259-.031-2.507-.094-3.75-.016-.323-.042-.647-.063-.969-.058-.917-.127-1.843-.219-2.75-.02-.2-.041-.394-.063-.594-.246-2.245-.587-4.447-1.031-6.625-.021-.104-.041-.209-.063-.313-.227-1.087-.476-2.15-.75-3.219-.011-.042-.02-.083-.031-.125-.19-.732-.413-1.464-.625-2.188-.212-.724-.423-1.442-.656-2.156-.258-.789-.529-1.567-.813-2.344-.23-.63-.472-1.254-.719-1.875-.038-.096-.087-.186-.125-.281-.239-.594-.465-1.195-.719-1.781-.378-.871-.777-1.741-1.188-2.594-.233-.485-.475-.958-.719-1.438-.287-.564-.574-1.132-.875-1.688-.051-.094-.105-.188-.156-.281-.513-.936-1.041-1.871-1.594-2.781-.212-.35-.438-.685-.656-1.031-.405-.642-.795-1.278-1.219-1.906-.809-1.199-1.685-2.354-2.563-3.5-.262-.341-.514-.695-.781-1.031-.189-.238-.371-.483-.563-.719-.093-.114-.188-.231-.281-.344-2.71-3.286-5.696-6.301-8.938-9.06-.293-.249-.578-.505-.875-.75-.268-.221-.541-.439-.813-.656-.636-.509-1.284-1.012-1.938-1.5-3.17-2.368-6.55-4.481-10.09-6.313-.617-.319-1.248-.636-1.875-.938-.155-.074-.313-.145-.469-.219-.785-.371-1.575-.719-2.375-1.063-.488-.209-.975-.426-1.469-.625-.735-.296-1.472-.571-2.219-.844-.392-.143-.793-.27-1.188-.406-.718-.248-1.459-.524-2.188-.75-.114-.035-.23-.059-.344-.094-.488-.149-.977-.267-1.469-.406-.357-.1-.703-.217-1.063-.313-.019-.005-.043.005-.063 0-.837-.221-1.683-.433-2.531-.625-.032-.007-.062-.024-.094-.031-.651-.146-1.311-.278-1.969-.406-1-.197-2.01-.376-3.03-.531-.063-.01-.125-.022-.188-.031-.952-.143-1.88-.269-2.844-.375-.836-.091-1.687-.156-2.531-.219-.176-.013-.355-.019-.531-.031-.735-.049-1.478-.097-2.219-.125-.92-.034-1.853-.063-2.781-.063h-285.84-68.844" filter="url(#7)" fill-opacity=".176"/><rect width="500" height="500" x="6" y="12" rx="72.64" opacity=".15"/><rect rx="72.64" y="6" x="6" height="500" width="500" fill="url(#8)"/><rect width="435" height="435" x="38.5" y="38.5" rx="63.2" fill="#7fca9f"/><path d="m101.69 38.5c-35.01 0-63.19 28.17-63.19 63.19v15c0-35.01 28.17-63.19 63.19-63.19h308.63c35.01 0 63.19 28.17 63.19 63.19v-15c0-35.01-28.17-63.19-63.19-63.19h-308.62" opacity=".2"/><path d="m78.66 6c-40.24 0-72.66 32.411-72.66 72.66v7c0-40.24 32.411-72.66 72.66-72.66h354.69c40.24 0 72.66 32.411 72.66 72.66v-7c0-40.24-32.411-72.66-72.66-72.66h-354.69" fill="#fff"/><g transform="translate(549.73 104.01)" fill-rule="evenodd"><path d="m-418.41 80.65c-7.569 25.34-1.387 53.925 18.603 73.93l6.433 6.438 33.08 33.09 35.02 35.01 33.04-33.11-34.981-34.997-33.08-33.09-6.464-6.464c-10.704-10.704-10.715-28.18.058-38.954 10.736-10.751 28.13-10.751 38.87-.01l2.56 2.57 33.07-33.09-2.575-2.581c-18.854-18.875-45.31-25.476-69.5-19.796-3.449-21.325-21.927-37.599-44.2-37.609-24.753 0-44.811 20.11-44.811 44.869 0 21.377 14.908 39.26 34.887 43.791m97.05 8.328l33.08-33.08 6.438-6.433c19.917-19.933 48.29-26.2 73.5-18.797 3.01-21.838 21.754-38.677 44.39-38.677 24.759 0 44.817 20.09 44.817 44.869 0 22.79-16.938 41.608-38.902 44.492 7.197 25.15.911 53.34-18.865 73.17l-2.565 2.596-33.04-33.12 2.544-2.57c10.741-10.741 10.741-28.17.011-38.907-10.694-10.71-28.04-10.725-38.829.058l-6.438 6.438-33.08 33.1-34.976 35.01-33.07-33.1 35-35.04m202.64 193.15c0 24.79-20.07 44.859-44.801 44.859-21.712 0-39.802-15.415-43.937-35.913-25.423 7.831-54.26 1.665-74.39-18.483l-2.523-2.533 33.05-33.11 2.523 2.544c10.736 10.746 28.15 10.746 38.87.011 10.699-10.715 10.741-28.08-.052-38.881l-6.47-6.48-33.04-33.11-34.913-34.997 33.08-33.08 34.871 34.971 33.06 33.11 6.48 6.501c19.03 19.04 25.601 45.811 19.66 70.17 21.785 3.052 38.53 21.791 38.53 44.43m-136.51-49.09l-33.05 33.11-6.491 6.491c-19.08 19.12-46.01 25.612-70.44 19.545-4.575 19.948-22.398 34.793-43.686 34.803-24.759 0-44.822-20.08-44.822-44.859 0-21.21 14.709-39 34.463-43.676-6.245-24.586.246-51.742 19.456-70.983l2.528-2.523 33.07 33.08-2.554 2.544c-10.73 10.757-10.73 28.16.016 38.923 10.762 10.778 28.21 10.767 38.912.042l6.464-6.491 33.04-33.09 34.924-35.01 33.03 33.11-34.866 34.976" opacity=".2"/><path d="m-433.41 65.65c-7.569 25.34-1.387 53.925 18.603 73.93l6.433 6.438 33.08 33.09 35.02 35.01 33.04-33.11-34.981-34.997-33.08-33.09-6.464-6.464c-10.704-10.704-10.715-28.18.058-38.954 10.736-10.751 28.13-10.751 38.87-.01l2.56 2.57 33.07-33.09-2.575-2.581c-18.854-18.875-45.31-25.476-69.5-19.796-3.449-21.325-21.927-37.599-44.2-37.609-24.753 0-44.811 20.11-44.811 44.869 0 21.377 14.908 39.26 34.887 43.791m97.05 8.328l33.08-33.08 6.438-6.433c19.917-19.933 48.29-26.2 73.5-18.797 3.01-21.838 21.754-38.677 44.39-38.677 24.759 0 44.817 20.09 44.817 44.869 0 22.79-16.938 41.608-38.902 44.492 7.197 25.15.911 53.34-18.865 73.17l-2.565 2.596-33.04-33.12 2.544-2.57c10.741-10.741 10.741-28.17.011-38.907-10.694-10.71-28.04-10.725-38.829.058l-6.438 6.438-33.08 33.1-34.976 35.01-33.07-33.1 35-35.04m202.64 193.15c0 24.79-20.07 44.859-44.801 44.859-21.712 0-39.802-15.415-43.937-35.913-25.423 7.831-54.26 1.665-74.39-18.483l-2.523-2.533 33.05-33.11 2.523 2.544c10.736 10.746 28.15 10.746 38.87.011 10.699-10.715 10.741-28.08-.052-38.881l-6.47-6.48-33.04-33.11-34.913-34.997 33.08-33.08 34.871 34.971 33.06 33.11 6.48 6.501c19.03 19.04 25.601 45.811 19.66 70.17 21.785 3.052 38.53 21.791 38.53 44.43m-136.51-49.09l-33.05 33.11-6.491 6.491c-19.08 19.12-46.01 25.612-70.44 19.545-4.575 19.948-22.398 34.793-43.686 34.803-24.759 0-44.822-20.08-44.822-44.859 0-21.21 14.709-39 34.463-43.676-6.245-24.586.246-51.742 19.456-70.983l2.528-2.523 33.07 33.08-2.554 2.544c-10.73 10.757-10.73 28.16.016 38.923 10.762 10.778 28.21 10.767 38.912.042l6.464-6.491 33.04-33.09 34.924-35.01 33.03 33.11-34.866 34.976" fill="#dcdbdb"/></g><path d="m78.66 6c-14.863 0-28.67 4.43-40.16 12.03v475.94c11.486 7.602 25.293 12.03 40.16 12.03h68.844v-500h-68.844" opacity=".05" fill="url(#1)"/><path d="m147.5 6v500h109v-500h-109" opacity=".05" fill="url(#2)"/><path d="m256.5 6v500h109v-500h-109" opacity=".05" fill="url(#3)"/><path d="m365.5 6v500h67.844c14.854 0 28.643-4.438 40.13-12.03v-475.94c-11.482-7.593-25.27-12.03-40.12-12.03h-67.844" opacity=".05" fill="url(#4)"/><path d="m38.5 18.03c-19.614 12.981-32.5 35.24-32.5 60.63v354.69c0 25.381 12.886 47.644 32.5 60.63v-475.94" opacity=".05" fill="url(#6)"/><path d="m473.47 18.03v475.94c19.627-12.979 32.531-35.23 32.531-60.62v-354.69c0-25.391-12.905-47.646-32.531-60.62" opacity=".05" fill="url(#5)"/></svg>