<?xml version="1.0" encoding="UTF-8" standalone="no"?>
<svg
   xmlns:dc="http://purl.org/dc/elements/1.1/"
   xmlns:cc="http://creativecommons.org/ns#"
   xmlns:rdf="http://www.w3.org/1999/02/22-rdf-syntax-ns#"
   xmlns:svg="http://www.w3.org/2000/svg"
   xmlns="http://www.w3.org/2000/svg"
   xmlns:xlink="http://www.w3.org/1999/xlink"
   xmlns:sodipodi="http://sodipodi.sourceforge.net/DTD/sodipodi-0.dtd"
   xmlns:inkscape="http://www.inkscape.org/namespaces/inkscape"
   viewBox="0 0 512 512"
   id="svg2"
   version="1.1"
   inkscape:version="0.48.4 r9939"
   width="100%"
   height="100%"
   sodipodi:docname="base.svg">
  <sodipodi:namedview
     pagecolor="#444444"
     bordercolor="#666666"
     borderopacity="1"
     objecttolerance="10"
     gridtolerance="10"
     guidetolerance="10"
     inkscape:pageopacity="0"
     inkscape:pageshadow="2"
     inkscape:window-width="1310"
     inkscape:window-height="718"
     id="namedview6"
     showgrid="false"
     showguides="true"
     inkscape:guide-bbox="true"
     inkscape:zoom="0.73271889"
     inkscape:cx="168.90317"
     inkscape:cy="294.13951"
     inkscape:window-x="54"
     inkscape:window-y="27"
     inkscape:window-maximized="1"
     inkscape:current-layer="svg2"
     inkscape:snap-midpoints="true"
     inkscape:snap-global="false">
    <sodipodi:guide
       id="guide2989"
       position="522.57628,433.35594"
       orientation="0,1" />
    <sodipodi:guide
       id="guide2995"
       position="473.05444,254.912"
       orientation="1,0" />
  </sodipodi:namedview>
  <metadata
     id="metadata10">
    <rdf:RDF>
      <cc:Work
         rdf:about="">
        <dc:format>image/svg+xml</dc:format>
        <dc:type
           rdf:resource="http://purl.org/dc/dcmitype/StillImage" />
        <dc:title></dc:title>
      </cc:Work>
    </rdf:RDF>
  </metadata>
  <defs
     id="defs8">
    <linearGradient
       id="linearGradient4996">
      <stop
         style="stop-color:#000000;stop-opacity:1;"
         offset="0"
         id="stop4998" />
      <stop
         style="stop-color:#ffffff;stop-opacity:1;"
         offset="1"
         id="stop5000" />
    </linearGradient>
    <linearGradient
       inkscape:collect="always"
       xlink:href="#linearGradient4996"
       id="linearGradient3108"
       gradientUnits="userSpaceOnUse"
       gradientTransform="matrix(1.0380952,0,0,1.4619252,-228.28943,-118.25286)"
       x1="257"
       y1="256"
       x2="362"
       y2="256" />
    <linearGradient
       inkscape:collect="always"
       xlink:href="#linearGradient4996"
       id="linearGradient3137"
       gradientUnits="userSpaceOnUse"
       gradientTransform="matrix(1.0380952,0,0,1.4619252,-119.28943,-118.25286)"
       x1="257"
       y1="256"
       x2="362"
       y2="256" />
    <linearGradient
       inkscape:collect="always"
       xlink:href="#linearGradient4996"
       id="linearGradient3141"
       gradientUnits="userSpaceOnUse"
       gradientTransform="matrix(1.0380952,0,0,1.4619252,-10.28943,-118.25286)"
       x1="257"
       y1="256"
       x2="362"
       y2="256" />
    <linearGradient
       inkscape:collect="always"
       xlink:href="#linearGradient4996"
       id="linearGradient3145"
       gradientUnits="userSpaceOnUse"
       gradientTransform="matrix(1.0283468,0,0,1.4619252,101.21591,-118.25286)"
       x1="257"
       y1="256"
       x2="362"
       y2="256" />
    <linearGradient
       inkscape:collect="always"
       xlink:href="#linearGradient4996"
       id="linearGradient3149"
       gradientUnits="userSpaceOnUse"
       gradientTransform="matrix(1.0283468,0,0,1.4619252,209.19233,-118.25286)"
       x1="257"
       y1="256"
       x2="362"
       y2="256" />
    <linearGradient
       inkscape:collect="always"
       xlink:href="#linearGradient4996"
       id="linearGradient3153"
       gradientUnits="userSpaceOnUse"
       gradientTransform="matrix(1.0380952,0,0,1.4619252,-337.28943,-118.25286)"
       x1="257"
       y1="256"
       x2="362"
       y2="256" />
  </defs>
  <rect
     style="opacity:0.2;fill:#000000;fill-opacity:1;stroke:none"
     id="rect5028"
     width="500"
     height="500"
     x="6"
     y="12"
     rx="72.644058"
     ry="72.644058" />
  <rect
     ry="72.644058"
     rx="72.644058"
     y="6"
     x="6"
     height="500"
     width="500"
     id="rect4979"
     style="fill:#f3f3f3;fill-opacity:1;stroke:none" />
  <rect
     style="fill:#7fca9f;fill-opacity:1;stroke:none"
     id="rect4981"
     width="434.99997"
     height="434.99997"
     x="38.500011"
     y="38.500011"
     rx="63.200329"
     ry="63.200329" />
  <path
     style="fill:#000000;fill-opacity:1;stroke:none;opacity:0.2"
     d="M 101.6875 38.5 C 66.674518 38.5 38.5 66.674518 38.5 101.6875 L 38.5 116.6875 C 38.5 81.674518 66.674518 53.5 101.6875 53.5 L 410.3125 53.5 C 445.32548 53.5 473.5 81.674518 473.5 116.6875 L 473.5 101.6875 C 473.5 66.674518 445.32548 38.5 410.3125 38.5 L 101.6875 38.5 z "
     id="rect3187" />
  <g
     id="g3045"
     transform="translate(549.72954,104.01258)">
    <path
       id="path3043"
       d="m -418.41323,80.647261 c -7.56891,25.339609 -1.38711,53.924529 18.60297,73.930309 l 6.43304,6.43828 33.07602,33.09172 35.0232,35.01274 33.03938,-33.11266 -34.98133,-34.99703 -33.08125,-33.08648 -6.46445,-6.46446 c -10.7043,-10.70429 -10.71477,-28.176638 0.0576,-38.954216 10.73571,-10.751406 28.13477,-10.751406 38.87047,-0.01047 l 2.55961,2.570078 33.06555,-33.091716 -2.57531,-2.58055 c -18.85422,-18.87516 -45.31399,-25.4757 -69.4968,-19.79641 -3.44945,-21.3248398 -21.9268,-37.59851 -44.2043,-37.60898 -24.75336,0 -44.81148,20.11047 -44.81148,44.86906 0,21.37719 14.9075,39.257815 34.88711,43.790784 z m 97.04531,8.32789 33.07602,-33.081254 6.43828,-6.43304 c 19.91679,-19.9325 48.28711,-26.20328 73.49586,-18.79664 3.00976,-21.8378198 21.75406,-38.6768 44.3875,-38.6768 24.75859,0 44.81672,20.08953 44.81672,44.86906 0,22.79047 -16.93844,41.608049 -38.90188,44.49219 7.19727,25.151173 0.91078,53.343513 -18.86468,73.166093 l -2.56485,2.59625 -33.04461,-33.12312 2.54391,-2.57008 c 10.74094,-10.74094 10.74094,-28.166174 0.0105,-38.907112 -10.69383,-10.709531 -28.04055,-10.725234 -38.8286,0.05758 l -6.43828,6.438282 -33.08125,33.09695 -34.97609,35.0075 -33.07078,-33.09695 35.00226,-35.038907 z m 202.63836,193.153679 c 0,24.79 -20.06859,44.85859 -44.80101,44.85859 -21.71219,0 -39.80219,-15.41523 -43.93735,-35.91305 -25.42336,7.83063 -54.26477,1.66453 -74.3857,-18.48258 l -2.52297,-2.53343 33.04984,-33.11266 2.52297,2.5439 c 10.7357,10.74618 28.14524,10.74618 38.87047,0.0105 10.69906,-10.71476 10.74094,-28.08242 -0.0523,-38.88093 l -6.46968,-6.48016 -33.03938,-33.11266 -34.91328,-34.99703 33.08125,-33.081247 34.87141,34.970857 33.05507,33.10742 6.48016,6.5011 c 19.02695,19.03742 25.60133,45.81125 19.66031,70.17203 21.78547,3.05164 38.53024,21.7907 38.53024,44.42938 z m -136.50727,-49.09321 -33.04984,33.11266 -6.49062,6.49062 c -19.0793,19.11594 -46.01016,25.6118 -70.44422,19.54516 -4.57485,19.9482 -22.39789,34.79289 -43.6861,34.80336 -24.75859,0 -44.82195,-20.07906 -44.82195,-44.85859 0,-21.21493 14.70859,-39.00133 34.46312,-43.67563 -6.2446,-24.58586 0.24602,-51.7418 19.45618,-70.98336 l 2.5282,-2.52297 33.07078,33.08125 -2.55437,2.54391 c -10.73047,10.75664 -10.73047,28.1557 0.0157,38.92281 10.76187,10.77758 28.20805,10.76711 38.91234,0.0419 l 6.46446,-6.49063 33.04461,-33.09171 34.92375,-35.0075 33.03414,33.11265 -34.86618,34.9761 z"
       clip-rule="evenodd"
       inkscape:connector-curvature="0"
       style="opacity:0.2;fill:#000000;fill-opacity:1;fill-rule:evenodd" />
    <path
       style="fill:#dcdbdb;fill-opacity:1;fill-rule:evenodd"
       inkscape:connector-curvature="0"
       clip-rule="evenodd"
       d="m -433.41323,65.647261 c -7.56891,25.339609 -1.38711,53.924529 18.60297,73.930309 l 6.43304,6.43828 33.07602,33.09172 35.0232,35.01274 33.03938,-33.11266 -34.98133,-34.99703 -33.08125,-33.08648 -6.46445,-6.46446 c -10.7043,-10.704294 -10.71477,-28.176638 0.0576,-38.954216 10.73571,-10.751406 28.13477,-10.751406 38.87047,-0.01047 l 2.55961,2.570078 33.06555,-33.091716 -2.57531,-2.58055 c -18.85422,-18.87516 -45.31399,-25.4756998 -69.4968,-19.79641 -3.44945,-21.3248398 -21.9268,-37.59851 -44.2043,-37.60898 -24.75336,0 -44.81148,20.1104702 -44.81148,44.86906 0,21.37719 14.9075,39.257815 34.88711,43.790784 z m 97.04531,8.32789 33.07602,-33.081254 6.43828,-6.43304 c 19.91679,-19.9325 48.28711,-26.2032798 73.49586,-18.79664 3.00976,-21.8378198 21.75406,-38.6768 44.3875,-38.6768 24.75859,0 44.81672,20.0895302 44.81672,44.86906 0,22.79047 -16.93844,41.608049 -38.90188,44.49219 7.19727,25.151172 0.91078,53.343513 -18.86468,73.166093 l -2.56485,2.59625 -33.04461,-33.12312 2.54391,-2.57008 c 10.74094,-10.74094 10.74094,-28.166174 0.0105,-38.907112 -10.69383,-10.709531 -28.04055,-10.725234 -38.8286,0.05758 l -6.43828,6.438282 -33.08125,33.09695 -34.97609,35.0075 -33.07078,-33.09695 35.00226,-35.038907 z m 202.63836,193.153679 c 0,24.79 -20.06859,44.85859 -44.80101,44.85859 -21.71219,0 -39.80219,-15.41523 -43.93735,-35.91305 -25.42336,7.83063 -54.26477,1.66453 -74.3857,-18.48258 l -2.52297,-2.53343 33.04984,-33.11266 2.52297,2.5439 c 10.7357,10.74618 28.14524,10.74618 38.87047,0.0105 10.69906,-10.71476 10.74094,-28.08242 -0.0523,-38.88093 l -6.46968,-6.48016 -33.03938,-33.11266 -34.91328,-34.99703 33.08125,-33.081247 34.87141,34.970857 33.05507,33.10742 6.48016,6.5011 c 19.02695,19.03742 25.60133,45.81125 19.66031,70.17203 21.78547,3.05164 38.53024,21.7907 38.53024,44.42938 z m -136.50727,-49.09321 -33.04984,33.11266 -6.49062,6.49062 c -19.0793,19.11594 -46.01016,25.6118 -70.44422,19.54516 -4.57485,19.9482 -22.39789,34.79289 -43.6861,34.80336 -24.75859,0 -44.82195,-20.07906 -44.82195,-44.85859 0,-21.21493 14.70859,-39.00133 34.46312,-43.67563 -6.2446,-24.58586 0.24602,-51.7418 19.45618,-70.98336 l 2.5282,-2.52297 33.07078,33.08125 -2.55437,2.54391 c -10.73047,10.75664 -10.73047,28.1557 0.0157,38.92281 10.76187,10.77758 28.20805,10.76711 38.91234,0.0419 l 6.46446,-6.49063 33.04461,-33.09171 34.92375,-35.0075 33.03414,33.11265 -34.86618,34.9761 z"
       id="path3034" />
  </g>
  <g
     id="g3167">
    <path
       id="rect3068"
       d="M 78.65625 6 C 63.792798 6 49.986224 10.429561 38.5 18.03125 L 38.5 493.96875 C 49.986224 501.57044 63.792798 506 78.65625 506 L 147.5 506 L 147.5 6 L 78.65625 6 z "
       style="opacity:0.05000000000000000;fill:url(#linearGradient3108);fill-opacity:1;stroke:none" />
    <path
       inkscape:connector-curvature="0"
       style="opacity:0.05;fill:url(#linearGradient3137);fill-opacity:1;stroke:none"
       d="m 147.50001,6 0,500 109,0 0,-500 -109,0 z"
       id="path3135" />
    <path
       id="path3139"
       d="m 256.50001,6 0,500 109,0 0,-500 -109,0 z"
       style="opacity:0.05;fill:url(#linearGradient3141);fill-opacity:1;stroke:none"
       inkscape:connector-curvature="0" />
    <path
       id="path3143"
       d="M 365.5 6 L 365.5 506 L 433.34375 506 C 448.1977 506 461.98692 501.56151 473.46875 493.96875 L 473.46875 18.03125 C 461.98692 10.438491 448.1977 6 433.34375 6 L 365.5 6 z "
       style="opacity:0.05000000000000000;fill:url(#linearGradient3145);fill-opacity:1;stroke:none" />
    <path
       id="path3151"
       d="M 38.5 18.03125 C 18.885717 31.012164 6 53.274894 6 78.65625 L 6 433.34375 C 6 458.72511 18.885717 480.98784 38.5 493.96875 L 38.5 18.03125 z "
       style="opacity:0.05000000000000000;fill:url(#linearGradient3153);fill-opacity:1;stroke:none" />
    <path
       id="path3147"
       d="M 473.46875 18.03125 L 473.46875 493.96875 C 493.09542 480.98993 506 458.73461 506 433.34375 L 506 78.65625 C 506 53.265388 493.09542 31.010071 473.46875 18.03125 z "
       style="opacity:0.05000000000000000;fill:url(#linearGradient3149);fill-opacity:1;stroke:none" />
  </g>
</svg>
