<?xml version="1.0" encoding="UTF-8" standalone="no"?>
<svg
   xmlns:dc="http://purl.org/dc/elements/1.1/"
   xmlns:cc="http://creativecommons.org/ns#"
   xmlns:rdf="http://www.w3.org/1999/02/22-rdf-syntax-ns#"
   xmlns:svg="http://www.w3.org/2000/svg"
   xmlns="http://www.w3.org/2000/svg"
   xmlns:xlink="http://www.w3.org/1999/xlink"
   xmlns:sodipodi="http://sodipodi.sourceforge.net/DTD/sodipodi-0.dtd"
   xmlns:inkscape="http://www.inkscape.org/namespaces/inkscape"
   viewBox="0 0 512 512"
   id="svg2"
   version="1.1"
   inkscape:version="0.48.4 r9939"
   width="100%"
   height="100%"
   sodipodi:docname="base.svg">
  <sodipodi:namedview
     pagecolor="#444444"
     bordercolor="#666666"
     borderopacity="1"
     objecttolerance="10"
     gridtolerance="10"
     guidetolerance="10"
     inkscape:pageopacity="0"
     inkscape:pageshadow="2"
     inkscape:window-width="1310"
     inkscape:window-height="718"
     id="namedview6"
     showgrid="false"
     showguides="true"
     inkscape:guide-bbox="true"
     inkscape:zoom="0.5181105"
     inkscape:cx="402.60142"
     inkscape:cy="205.65711"
     inkscape:window-x="54"
     inkscape:window-y="27"
     inkscape:window-maximized="1"
     inkscape:current-layer="svg2"
     inkscape:snap-midpoints="true"
     inkscape:snap-global="false">
    <sodipodi:guide
       id="guide2989"
       position="522.57628,433.35594"
       orientation="0,1" />
    <sodipodi:guide
       id="guide2995"
       position="473.05444,254.912"
       orientation="1,0" />
  </sodipodi:namedview>
  <metadata
     id="metadata10">
    <rdf:RDF>
      <cc:Work
         rdf:about="">
        <dc:format>image/svg+xml</dc:format>
        <dc:type
           rdf:resource="http://purl.org/dc/dcmitype/StillImage" />
        <dc:title></dc:title>
      </cc:Work>
    </rdf:RDF>
  </metadata>
  <defs
     id="defs8">
    <linearGradient
       id="linearGradient4996">
      <stop
         style="stop-color:#000000;stop-opacity:1;"
         offset="0"
         id="stop4998" />
      <stop
         style="stop-color:#ffffff;stop-opacity:1;"
         offset="1"
         id="stop5000" />
    </linearGradient>
    <linearGradient
       inkscape:collect="always"
       xlink:href="#linearGradient4996"
       id="linearGradient3108"
       gradientUnits="userSpaceOnUse"
       gradientTransform="matrix(1.0380952,0,0,1.4619252,-228.28943,-118.25286)"
       x1="257"
       y1="256"
       x2="362"
       y2="256" />
    <linearGradient
       inkscape:collect="always"
       xlink:href="#linearGradient4996"
       id="linearGradient3137"
       gradientUnits="userSpaceOnUse"
       gradientTransform="matrix(1.0380952,0,0,1.4619252,-119.28943,-118.25286)"
       x1="257"
       y1="256"
       x2="362"
       y2="256" />
    <linearGradient
       inkscape:collect="always"
       xlink:href="#linearGradient4996"
       id="linearGradient3141"
       gradientUnits="userSpaceOnUse"
       gradientTransform="matrix(1.0380952,0,0,1.4619252,-10.28943,-118.25286)"
       x1="257"
       y1="256"
       x2="362"
       y2="256" />
    <linearGradient
       inkscape:collect="always"
       xlink:href="#linearGradient4996"
       id="linearGradient3145"
       gradientUnits="userSpaceOnUse"
       gradientTransform="matrix(1.0283468,0,0,1.4619252,101.21591,-118.25286)"
       x1="257"
       y1="256"
       x2="362"
       y2="256" />
    <linearGradient
       inkscape:collect="always"
       xlink:href="#linearGradient4996"
       id="linearGradient3149"
       gradientUnits="userSpaceOnUse"
       gradientTransform="matrix(1.0283468,0,0,1.4619252,209.19233,-118.25286)"
       x1="257"
       y1="256"
       x2="362"
       y2="256" />
    <linearGradient
       inkscape:collect="always"
       xlink:href="#linearGradient4996"
       id="linearGradient3153"
       gradientUnits="userSpaceOnUse"
       gradientTransform="matrix(1.0380952,0,0,1.4619252,-337.28943,-118.25286)"
       x1="257"
       y1="256"
       x2="362"
       y2="256" />
  </defs>
  <rect
     style="opacity:0.2;fill:#000000;fill-opacity:1;stroke:none"
     id="rect5028"
     width="500"
     height="500"
     x="6"
     y="12"
     rx="72.644058"
     ry="72.644058" />
  <rect
     ry="72.644058"
     rx="72.644058"
     y="6"
     x="6"
     height="500"
     width="500"
     id="rect4979"
     style="fill:#f3f3f3;fill-opacity:1;stroke:none" />
  <rect
     style="fill:#cd1d31;fill-opacity:1;stroke:none"
     id="rect4981"
     width="434.99997"
     height="434.99997"
     x="38.500011"
     y="38.500011"
     rx="63.200329"
     ry="63.200329" />
  <path
     style="fill:#000000;fill-opacity:1;stroke:none;opacity:0.2"
     d="M 101.6875 38.5 C 66.674518 38.5 38.5 66.674518 38.5 101.6875 L 38.5 116.6875 C 38.5 81.674518 66.674518 53.5 101.6875 53.5 L 410.3125 53.5 C 445.32548 53.5 473.5 81.674518 473.5 116.6875 L 473.5 101.6875 C 473.5 66.674518 445.32548 38.5 410.3125 38.5 L 101.6875 38.5 z "
     id="rect3187" />
  <g
     id="g3053"
     transform="translate(412.62912,95.609501)">
    <g
       style="opacity:0.2;fill:#000000"
       id="g3049"
       transform="matrix(11.166667,0,0,11.166667,-12762.382,-10963.769)">
      <path
         style="fill:#000000"
         inkscape:connector-curvature="0"
         id="path3051"
         d="m 1138.295,1003.057 c -2.08,-0.07 -2.713,-1.174 -3.506,-2.98 -1.342,-3.063 -2.869,-6.637 -2.883,-6.672 -1.533,-3.537 -4.572,-5.564 -8.338,-5.564 -4.977,0 -9.023,4.049 -9.023,9.025 0,4.975 4.047,9.023 9.023,9.023 2.713,0 5.256,-1.203 6.977,-3.301 0.051,-0.063 0.063,-0.145 0.031,-0.217 l -1.137,-2.625 c -0.033,-0.072 -0.105,-0.121 -0.186,-0.125 -0.082,-0.004 -0.156,0.041 -0.193,0.111 -1.072,2.053 -3.178,3.328 -5.492,3.328 -3.414,0 -6.191,-2.779 -6.191,-6.195 0,-3.416 2.777,-6.193 6.191,-6.193 2.484,0 4.762,1.475 5.668,3.676 l 2.813,6.418 0.324,0.721 c 1.273,2.963 3.141,4.291 6.068,4.301 3.48,0 6.104,-2.307 6.104,-5.363 0,-3.07 -1.697,-4.223 -4.627,-5.178 -0.264,-0.086 -0.518,-0.166 -0.762,-0.244 -1.869,-0.586 -2.994,-0.941 -2.994,-2.395 0,-1.178 0.908,-2.033 2.162,-2.033 0.961,0 1.676,0.398 2.318,1.297 0.061,0.084 0.172,0.113 0.266,0.064 l 1.887,-0.961 c 0.049,-0.025 0.088,-0.072 0.104,-0.127 0.018,-0.055 0.01,-0.113 -0.018,-0.164 -1.01,-1.793 -2.465,-2.664 -4.451,-2.664 -3.021,0 -4.975,1.826 -4.975,4.654 0,2.893 1.889,4.064 5.373,5.209 2.02,0.674 2.912,1.031 2.912,2.467 0,1.615 -1.457,2.775 -3.445,2.707 z" />
    </g>
    <g
       style="fill:#dcdbdb;fill-opacity:1"
       transform="matrix(11.166667,0,0,11.166667,-12777.382,-10978.769)"
       id="g1967">
      <path
         d="m 1138.295,1003.057 c -2.08,-0.07 -2.713,-1.174 -3.506,-2.98 -1.342,-3.063 -2.869,-6.637 -2.883,-6.672 -1.533,-3.537 -4.572,-5.564 -8.338,-5.564 -4.977,0 -9.023,4.049 -9.023,9.025 0,4.975 4.047,9.023 9.023,9.023 2.713,0 5.256,-1.203 6.977,-3.301 0.051,-0.063 0.063,-0.145 0.031,-0.217 l -1.137,-2.625 c -0.033,-0.072 -0.105,-0.121 -0.186,-0.125 -0.082,-0.004 -0.156,0.041 -0.193,0.111 -1.072,2.053 -3.178,3.328 -5.492,3.328 -3.414,0 -6.191,-2.779 -6.191,-6.195 0,-3.416 2.777,-6.193 6.191,-6.193 2.484,0 4.762,1.475 5.668,3.676 l 2.813,6.418 0.324,0.721 c 1.273,2.963 3.141,4.291 6.068,4.301 3.48,0 6.104,-2.307 6.104,-5.363 0,-3.07 -1.697,-4.223 -4.627,-5.178 -0.264,-0.086 -0.518,-0.166 -0.762,-0.244 -1.869,-0.586 -2.994,-0.941 -2.994,-2.395 0,-1.178 0.908,-2.033 2.162,-2.033 0.961,0 1.676,0.398 2.318,1.297 0.061,0.084 0.172,0.113 0.266,0.064 l 1.887,-0.961 c 0.049,-0.025 0.088,-0.072 0.104,-0.127 0.018,-0.055 0.01,-0.113 -0.018,-0.164 -1.01,-1.793 -2.465,-2.664 -4.451,-2.664 -3.021,0 -4.975,1.826 -4.975,4.654 0,2.893 1.889,4.064 5.373,5.209 2.02,0.674 2.912,1.031 2.912,2.467 0,1.615 -1.457,2.775 -3.445,2.707 z"
         id="path1969"
         inkscape:connector-curvature="0"
         style="fill:#dcdbdb;fill-opacity:1" />
    </g>
  </g>
  <g
     id="g3167">
    <path
       id="rect3068"
       d="M 78.65625 6 C 63.792798 6 49.986224 10.429561 38.5 18.03125 L 38.5 493.96875 C 49.986224 501.57044 63.792798 506 78.65625 506 L 147.5 506 L 147.5 6 L 78.65625 6 z "
       style="opacity:0.05000000000000000;fill:url(#linearGradient3108);fill-opacity:1;stroke:none" />
    <path
       inkscape:connector-curvature="0"
       style="opacity:0.05;fill:url(#linearGradient3137);fill-opacity:1;stroke:none"
       d="m 147.50001,6 0,500 109,0 0,-500 -109,0 z"
       id="path3135" />
    <path
       id="path3139"
       d="m 256.50001,6 0,500 109,0 0,-500 -109,0 z"
       style="opacity:0.05;fill:url(#linearGradient3141);fill-opacity:1;stroke:none"
       inkscape:connector-curvature="0" />
    <path
       id="path3143"
       d="M 365.5 6 L 365.5 506 L 433.34375 506 C 448.1977 506 461.98692 501.56151 473.46875 493.96875 L 473.46875 18.03125 C 461.98692 10.438491 448.1977 6 433.34375 6 L 365.5 6 z "
       style="opacity:0.05000000000000000;fill:url(#linearGradient3145);fill-opacity:1;stroke:none" />
    <path
       id="path3151"
       d="M 38.5 18.03125 C 18.885717 31.012164 6 53.274894 6 78.65625 L 6 433.34375 C 6 458.72511 18.885717 480.98784 38.5 493.96875 L 38.5 18.03125 z "
       style="opacity:0.05000000000000000;fill:url(#linearGradient3153);fill-opacity:1;stroke:none" />
    <path
       id="path3147"
       d="M 473.46875 18.03125 L 473.46875 493.96875 C 493.09542 480.98993 506 458.73461 506 433.34375 L 506 78.65625 C 506 53.265388 493.09542 31.010071 473.46875 18.03125 z "
       style="opacity:0.05000000000000000;fill:url(#linearGradient3149);fill-opacity:1;stroke:none" />
  </g>
</svg>
