<?xml version="1.0" encoding="UTF-8" standalone="no"?>
<svg
   xmlns:dc="http://purl.org/dc/elements/1.1/"
   xmlns:cc="http://creativecommons.org/ns#"
   xmlns:rdf="http://www.w3.org/1999/02/22-rdf-syntax-ns#"
   xmlns:svg="http://www.w3.org/2000/svg"
   xmlns="http://www.w3.org/2000/svg"
   xmlns:xlink="http://www.w3.org/1999/xlink"
   xmlns:sodipodi="http://sodipodi.sourceforge.net/DTD/sodipodi-0.dtd"
   xmlns:inkscape="http://www.inkscape.org/namespaces/inkscape"
   viewBox="0 0 512 512"
   id="svg2"
   version="1.1"
   inkscape:version="0.48.4 r9939"
   width="100%"
   height="100%"
   sodipodi:docname="logo.svg">
  <sodipodi:namedview
     pagecolor="#444444"
     bordercolor="#666666"
     borderopacity="1"
     objecttolerance="10"
     gridtolerance="10"
     guidetolerance="10"
     inkscape:pageopacity="0"
     inkscape:pageshadow="2"
     inkscape:window-width="1310"
     inkscape:window-height="718"
     id="namedview6"
     showgrid="false"
     showguides="true"
     inkscape:guide-bbox="true"
     inkscape:zoom="1"
     inkscape:cx="153.6622"
     inkscape:cy="275.21117"
     inkscape:window-x="54"
     inkscape:window-y="27"
     inkscape:window-maximized="1"
     inkscape:current-layer="svg2">
    <sodipodi:guide
       id="guide2989"
       position="522.57628,433.35594"
       orientation="0,1" />
    <sodipodi:guide
       id="guide2991"
       position="267.59322,40.983051"
       orientation="0,1" />
    <sodipodi:guide
       id="guide2993"
       position="46.980654,274.88477"
       orientation="1,0" />
    <sodipodi:guide
       id="guide2995"
       position="473,257.5"
       orientation="1,0" />
    <sodipodi:guide
       orientation="0,1"
       position="366.64407,622.64407"
       id="guide3124" />
  </sodipodi:namedview>
  <metadata
     id="metadata10">
    <rdf:RDF>
      <cc:Work
         rdf:about="">
        <dc:format>image/svg+xml</dc:format>
        <dc:type
           rdf:resource="http://purl.org/dc/dcmitype/StillImage" />
        <dc:title />
      </cc:Work>
    </rdf:RDF>
  </metadata>
  <defs
     id="defs8">
    <linearGradient
       id="linearGradient4996-6">
      <stop
         id="stop4998-5"
         offset="0"
         style="stop-color:#000000;stop-opacity:1;" />
      <stop
         id="stop5000-7"
         offset="1"
         style="stop-color:#ffffff;stop-opacity:1;" />
    </linearGradient>
    <linearGradient
       inkscape:collect="always"
       xlink:href="#linearGradient4996-6"
       id="linearGradient3091"
       gradientUnits="userSpaceOnUse"
       gradientTransform="matrix(1,0,0,1.4619252,210.00099,-120.86596)"
       x1="257"
       y1="256"
       x2="362"
       y2="256" />
    <linearGradient
       inkscape:collect="always"
       xlink:href="#linearGradient4996-6"
       id="linearGradient3093"
       gradientUnits="userSpaceOnUse"
       gradientTransform="matrix(1,0,0,1.4619252,-209.999,-121.25286)"
       x1="257"
       y1="256"
       x2="362"
       y2="256" />
    <linearGradient
       inkscape:collect="always"
       xlink:href="#linearGradient4996-6"
       id="linearGradient3095"
       gradientUnits="userSpaceOnUse"
       gradientTransform="matrix(1,0,0,1.4619252,-104.999,-121.25286)"
       x1="257"
       y1="256"
       x2="362"
       y2="256" />
    <linearGradient
       inkscape:collect="always"
       xlink:href="#linearGradient4996-6"
       id="linearGradient3097"
       gradientUnits="userSpaceOnUse"
       gradientTransform="matrix(1,0,0,1.4619252,9.9807e-4,-121.25286)"
       x1="257"
       y1="256"
       x2="362"
       y2="256" />
    <linearGradient
       inkscape:collect="always"
       xlink:href="#linearGradient4996-6"
       id="linearGradient3099"
       gradientUnits="userSpaceOnUse"
       gradientTransform="matrix(1,0,0,1.4619252,105.001,-120.86596)"
       x1="257"
       y1="256"
       x2="362"
       y2="256" />
    <linearGradient
       inkscape:collect="always"
       xlink:href="#linearGradient4996-6"
       id="linearGradient3101"
       gradientUnits="userSpaceOnUse"
       gradientTransform="matrix(1,0,0,1.4619252,-315.03517,-121.25286)"
       x1="257"
       y1="256"
       x2="362"
       y2="256" />
  </defs>
  <path
     sodipodi:nodetypes="ccssssccccccccssssccccccsscccccsccscccccssss"
     inkscape:connector-curvature="0"
     id="path3027"
     d="m 1163.0394,105.78382 0,10.10872 -28.1872,0 c -21.1313,0 -38.1201,17.01819 -38.1201,38.14944 l 0,186.235 c 0,21.13124 16.9888,38.14943 38.1201,38.14943 l 28.0114,0 0,0.90837 0.058,0 0.2344,12.9508 c 0,10.83928 11.9684,20.45523 25.4454,14.27218 5.3346,-2.39093 12.8294,-5.84016 23.6039,-10.81461 l 35.278,-17.25813 0,-0.0582 73.6326,0 c 21.1313,0 38.1492,-17.01817 38.1494,-38.14943 l 0,-186.23499 c 0,-21.13126 -17.0181,-38.14945 -38.1494,-38.14945 l -74.4531,0 -24.0265,-10.48964 c -13.1287,-5.910915 -28.438,-12.806505 -34.1681,-15.390245 -12.1829,-5.91746 -25.4235,6.82314 -25.4289,15.770695 z m 54.2063,34.63341 c 7.0076,2.43274 14.1596,4.6444 21.1255,7.11999 20.4611,0.0202 41.7345,-2e-5 60.3009,0 16.0371,0 28.9491,12.91186 28.9491,28.94904 l 0,141.34643 c 0,16.03714 -12.912,28.94903 -28.9491,28.94903 -19.3776,0.0825 -40.0652,-0.076 -58.9238,-0.0582 -7.4386,3.23676 -15.145,6.59823 -22.4904,9.79279 -22.8169,6.11376 -21.4001,-9.73776 -21.4001,-20.82728 -0.1019,-19.00182 -0.1483,-47.60723 -0.1483,-87.12279 0,-38.78032 0.033,-73.30517 0.084,-94.54518 0,-13.58563 8.6531,-17.0333 21.4518,-13.6039 z m -59.9199,7.12006 5.5378,0 c 0.2736,0 0.1758,-9.4e-4 0.1758,1.69943 l 0,98.6846 0,98.68458 c 0,0.22457 -0.048,0.17582 -0.1758,0.17582 l -5.5378,0 c -16.0372,0 -28.949,-12.91189 -28.949,-28.94903 l 0,-141.34636 c 0,-16.0372 12.9117,-28.94904 28.949,-28.94904 z"
     style="fill:#000000;fill-opacity:1;stroke:none" />
  <path
     style="fill:#000000;fill-opacity:1;stroke:none"
     d="m -467.13711,115.13922 c -0.66385,0 -1.31301,0.0288 -1.96875,0.0625 -0.12633,0.006 -0.24931,0.0248 -0.375,0.0312 -0.19713,0.0121 -0.39743,0.0162 -0.59375,0.0312 -0.0207,10e-4 -0.0418,-0.001 -0.0625,0 -0.29127,0.0183 -0.58458,0.0334 -0.875,0.0625 -0.0104,10e-4 -0.0209,-0.001 -0.0312,0 -0.13736,0.0139 -0.26988,0.0462 -0.40625,0.0625 -0.0308,0.004 -0.063,-0.004 -0.0937,0 -1.12166,0.12874 -2.22317,0.30845 -3.3125,0.53125 -0.60833,0.12442 -1.21551,0.25379 -1.8125,0.40625 -0.01,0.003 -0.0214,-0.003 -0.0312,0 -0.0541,0.0139 -0.10224,0.048 -0.15625,0.0625 -0.55987,0.14605 -1.10725,0.29882 -1.65625,0.46875 -0.59774,0.18532 -1.16544,0.3803 -1.75,0.59375 -0.56496,0.20596 -1.13516,0.42482 -1.6875,0.65625 -0.0214,0.009 -0.041,0.0222 -0.0625,0.0312 -0.22454,0.0948 -0.43545,0.21359 -0.65625,0.3125 -0.23186,0.10295 -0.45809,0.20511 -0.6875,0.3125 -0.10131,0.0477 -0.21125,0.0764 -0.3125,0.125 -0.008,0.004 -0.0229,-0.004 -0.0312,0 -0.29681,0.14275 -0.58126,0.31428 -0.875,0.46875 -0.15442,0.079 -0.31556,0.13769 -0.46875,0.21875 -0.0942,0.0507 -0.18773,0.10561 -0.28125,0.15625 -0.008,0.004 -0.0232,-0.004 -0.0312,0 -0.14849,0.0806 -0.29144,0.16716 -0.4375,0.25 -0.27446,0.15331 -0.54231,0.30892 -0.8125,0.46875 -0.10414,0.0624 -0.20831,0.12436 -0.3125,0.1875 -0.007,0.005 -0.0238,-0.005 -0.0312,0 -0.19368,0.11757 -0.37547,0.24987 -0.5625,0.375 -0.32619,0.20551 -0.64946,0.40998 -0.96875,0.625 -0.031,0.021 -0.0628,0.0413 -0.0937,0.0625 -0.0934,0.0633 -0.18845,0.12338 -0.28125,0.1875 -0.37879,0.2617 -0.75658,0.53758 -1.125,0.8125 -0.48801,0.36416 -0.96851,0.73832 -1.4375,1.125 -0.46445,0.38303 -0.92951,0.78323 -1.375,1.1875 -0.44524,0.40448 -0.887,0.82501 -1.3125,1.25 -0.005,0.005 0.005,0.026 0,0.0312 -0.428,0.42801 -0.87501,0.8649 -1.28125,1.3125 -0.005,0.006 0.005,0.0257 0,0.0312 -0.40562,0.44747 -0.80239,0.87666 -1.1875,1.34375 -0.005,0.006 0.005,0.0251 0,0.0312 -0.33429,0.40547 -0.68251,0.79939 -1,1.21875 -0.005,0.006 0.005,0.0248 0,0.0312 -0.31705,0.41936 -0.63774,0.84852 -0.9375,1.28125 -0.005,0.007 0.005,0.0243 0,0.0312 -0.2993,0.43269 -0.59348,0.86696 -0.875,1.3125 -0.005,0.007 0.005,0.0239 0,0.0312 -0.28117,0.44567 -0.58085,0.88575 -0.84375,1.34375 -0.004,0.008 0.004,0.0236 0,0.0312 -0.26245,0.45799 -0.53756,0.9052 -0.78125,1.375 -0.004,0.008 0.004,0.0231 0,0.0312 -0.49073,0.9478 -0.93237,1.91351 -1.34375,2.90625 -0.004,0.009 0.004,0.0224 0,0.0312 -0.20348,0.49211 -0.41051,0.99762 -0.59375,1.5 -0.003,0.009 0.003,0.0222 0,0.0312 -0.18278,0.50232 -0.3692,0.98792 -0.53125,1.5 -0.003,0.01 0.003,0.0217 0,0.0312 -0.1617,0.51235 -0.32829,1.0409 -0.46875,1.5625 -0.003,0.01 0.003,0.0217 0,0.0312 -0.14001,0.52158 -0.28796,1.03218 -0.40625,1.5625 -0.002,0.01 0.002,0.0213 0,0.0312 -0.11786,0.53041 -0.21686,1.0551 -0.3125,1.59375 -0.002,0.0102 0.002,0.0211 0,0.0312 -0.0952,0.53885 -0.17749,1.07841 -0.25,1.625 -0.003,0.0202 0.003,0.0423 0,0.0625 -0.0703,0.53676 -0.13955,1.08128 -0.1875,1.625 -9.4e-4,0.0105 9.3e-4,0.0207 0,0.0312 -0.0484,0.55429 -0.10031,1.12648 -0.125,1.6875 -4.6e-4,0.0103 4.5e-4,0.0209 0,0.0312 -0.0242,0.56109 -0.0312,1.12019 -0.0312,1.6875 -1e-5,0.0105 0,0.0207 0,0.0312 l 0,186.21875 0,0.0312 c 4.6e-4,0.56719 0.007,1.12658 0.0312,1.6875 4.5e-4,0.0104 -4.6e-4,0.0209 0,0.0312 0.0251,0.56085 0.0761,1.13342 0.125,1.6875 8.9e-4,0.0102 -9e-4,0.021 0,0.0312 0.0493,0.55364 0.115,1.07862 0.1875,1.625 0.003,0.0204 -0.003,0.0421 0,0.0625 0.072,0.5363 0.15608,1.09619 0.25,1.625 0.002,0.0101 -0.002,0.0211 0,0.0312 0.0961,0.53837 0.19423,1.06363 0.3125,1.59375 0.002,0.01 -0.002,0.0212 0,0.0312 0.1187,0.53003 0.26584,1.04122 0.40625,1.5625 0.003,0.01 -0.003,0.0215 0,0.0312 0.14086,0.5213 0.30667,1.05045 0.46875,1.5625 0.003,0.009 -0.003,0.0218 0,0.0312 0.16244,0.51178 0.3481,0.99796 0.53125,1.5 0.003,0.009 -0.003,0.0219 0,0.0312 0.18361,0.5021 0.38991,1.00816 0.59375,1.5 0.004,0.009 -0.004,0.0224 0,0.0312 0.41138,0.99274 0.85302,1.95845 1.34375,2.90625 0.004,0.008 -0.004,0.0228 0,0.0312 0.24402,0.46962 0.51848,0.91714 0.78125,1.375 0.005,0.008 -0.005,0.0233 0,0.0312 0.26321,0.45788 0.56228,0.89815 0.84375,1.34375 0.005,0.007 -0.005,0.0238 0,0.0312 0.28182,0.44548 0.57542,0.8798 0.875,1.3125 0.005,0.007 -0.005,0.0241 0,0.0312 0.30004,0.43274 0.62018,0.86179 0.9375,1.28125 0.005,0.007 -0.005,0.0245 0,0.0312 0.31775,0.41947 0.66546,0.81308 1,1.21875 0.005,0.006 -0.005,0.025 0,0.0312 0.38537,0.46729 0.7816,0.89677 1.1875,1.34375 0.005,0.006 -0.005,0.0254 0,0.0312 0.4065,0.44711 0.85297,0.88425 1.28125,1.3125 0.005,0.005 -0.005,0.026 0,0.0312 0.4255,0.42499 0.86726,0.84552 1.3125,1.25 0.44549,0.40427 0.91055,0.80447 1.375,1.1875 0.41153,0.3393 0.82379,0.678 1.25,1 0.0595,0.0456 0.12736,0.08 0.1875,0.125 0.36842,0.27492 0.74621,0.5508 1.125,0.8125 0.0928,0.0641 0.18784,0.12419 0.28125,0.1875 0.0309,0.0212 0.0627,0.0415 0.0937,0.0625 0.31929,0.21502 0.64256,0.41949 0.96875,0.625 0.18703,0.12513 0.36882,0.25743 0.5625,0.375 0.007,0.005 0.0242,-0.005 0.0312,0 0.10419,0.0631 0.20836,0.12511 0.3125,0.1875 0.27019,0.15983 0.53804,0.31544 0.8125,0.46875 0.14606,0.0828 0.28901,0.16945 0.4375,0.25 0.008,0.004 0.0231,-0.004 0.0312,0 0.0935,0.0506 0.187,0.10555 0.28125,0.15625 0.15319,0.0811 0.31433,0.13972 0.46875,0.21875 0.29374,0.15447 0.57819,0.326 0.875,0.46875 0.008,0.004 0.0233,-0.004 0.0312,0 0.10125,0.0486 0.21119,0.0773 0.3125,0.125 0.22941,0.10739 0.45564,0.20955 0.6875,0.3125 0.2208,0.0989 0.43171,0.21775 0.65625,0.3125 0.0215,0.009 0.0411,0.0222 0.0625,0.0312 0.55234,0.23143 1.12254,0.45029 1.6875,0.65625 0.57566,0.20975 1.1616,0.41121 1.75,0.59375 0.549,0.16993 1.09638,0.3227 1.65625,0.46875 0.054,0.0145 0.10211,0.0486 0.15625,0.0625 0.01,0.003 0.0215,-0.002 0.0312,0 0.59699,0.15246 1.20417,0.28183 1.8125,0.40625 0.15562,0.0318 0.31243,0.0638 0.46875,0.0937 0.93794,0.17973 1.88233,0.32715 2.84375,0.4375 0.0308,0.004 0.0629,-0.004 0.0937,0 0.13637,0.0163 0.26889,0.0486 0.40625,0.0625 0.0103,10e-4 0.0208,-10e-4 0.0312,0 0.29042,0.0291 0.58373,0.0442 0.875,0.0625 0.0207,10e-4 0.0418,-10e-4 0.0625,0 0.19632,0.015 0.39662,0.0192 0.59375,0.0312 0.12569,0.006 0.24867,0.0249 0.375,0.0312 0.65574,0.0337 1.3049,0.0625 1.96875,0.0625 71.78562,0 122.47971,0 186.28125,0 0.0105,0 0.0207,10e-6 0.0312,0 0.0105,-1e-5 0.0208,2e-5 0.0312,0 0.65138,-0.001 1.29387,-0.0294 1.9375,-0.0625 0.48361,-0.0247 0.96018,-0.057 1.4375,-0.0937 0.15566,-0.012 0.31323,-0.0156 0.46875,-0.0312 0.0103,-10e-4 0.0209,10e-4 0.0312,0 0.36926,-0.0376 0.72982,-0.10504 1.09375,-0.15625 0.0306,-0.004 0.0632,0.004 0.0937,0 0.23104,-0.0307 0.45779,-0.0589 0.6875,-0.0937 0.0102,-0.002 0.0212,0.002 0.0312,0 0.1561,-0.0238 0.31114,-0.0667 0.46875,-0.0937 0.15575,-0.0267 0.31293,-0.0335 0.46875,-0.0625 0.31649,-0.0563 0.6238,-0.1235 0.9375,-0.1875 0.01,-0.002 0.0214,0.002 0.0312,0 0.22215,-0.0454 0.43657,-0.10904 0.65625,-0.15625 0.38393,-0.0858 0.77691,-0.15288 1.15625,-0.25 0.01,-0.003 0.0214,0.003 0.0312,0 0.11508,-0.0295 0.22925,-0.0616 0.34375,-0.0937 0.0317,-0.009 0.062,-0.0222 0.0937,-0.0312 0.45789,-0.12342 0.89311,-0.26655 1.34375,-0.40625 0.0735,-0.0227 0.14595,-0.0397 0.21875,-0.0625 0.52225,-0.16537 1.05072,-0.34449 1.5625,-0.53125 0.58489,-0.21311 1.14779,-0.44708 1.71875,-0.6875 0.57221,-0.24131 1.1297,-0.48186 1.6875,-0.75 0.009,-0.004 0.0226,0.004 0.0312,0 0.32609,-0.15679 0.6467,-0.32968 0.96875,-0.5 0.0826,-0.0437 0.16786,-0.081 0.25,-0.125 0.13683,-0.072 0.27041,-0.14513 0.40625,-0.21875 0.008,-0.004 0.0232,0.004 0.0312,0 0.33023,-0.17905 0.64788,-0.37303 0.96875,-0.5625 0.19766,-0.11499 0.39837,-0.22534 0.59375,-0.34375 0.008,-0.005 0.0236,0.005 0.0312,0 0.25835,-0.15671 0.5021,-0.33129 0.75,-0.5 0.25146,-0.16087 0.50264,-0.33345 0.75,-0.5 0.007,-0.005 0.024,0.005 0.0312,0 0.1914,-0.12914 0.37461,-0.27084 0.5625,-0.40625 0.30923,-0.21671 0.60393,-0.43072 0.90625,-0.65625 0.007,-0.005 0.0246,0.005 0.0312,0 0.11902,-0.0889 0.22715,-0.19005 0.34375,-0.28125 0.36001,-0.2756 0.71295,-0.55583 1.0625,-0.84375 0.0632,-0.0521 0.12444,-0.10452 0.1875,-0.15625 0.0224,-0.0187 0.0402,-0.0438 0.0625,-0.0625 0.38923,-0.31928 0.78177,-0.62855 1.15625,-0.96875 0.45134,-0.40959 0.8814,-0.81938 1.3125,-1.25 0.005,-0.005 -0.005,-0.026 0,-0.0312 0.42828,-0.42825 0.87475,-0.86539 1.28125,-1.3125 0.005,-0.006 -0.005,-0.0254 0,-0.0312 0.4059,-0.44698 0.80213,-0.87646 1.1875,-1.34375 0.005,-0.006 -0.005,-0.025 0,-0.0312 0.33413,-0.40567 0.68257,-0.79928 1,-1.21875 0.005,-0.007 -0.005,-0.0245 0,-0.0312 0.317,-0.41946 0.63769,-0.84851 0.9375,-1.28125 0.005,-0.007 -0.005,-0.0241 0,-0.0312 0.29936,-0.4327 0.59333,-0.86702 0.875,-1.3125 0.005,-0.007 -0.005,-0.0238 0,-0.0312 0.28132,-0.4456 0.58062,-0.88587 0.84375,-1.34375 0.005,-0.008 -0.005,-0.0232 0,-0.0312 0.26261,-0.45771 0.50607,-0.90554 0.75,-1.375 0.004,-0.008 -0.004,-0.0229 0,-0.0312 0.49079,-0.94793 0.96341,-1.91336 1.375,-2.90625 0.004,-0.009 -0.004,-0.0224 0,-0.0312 0.20392,-0.49184 0.41003,-0.9979 0.59375,-1.5 0.003,-0.009 -0.003,-0.0219 0,-0.0312 0.18326,-0.50204 0.36868,-0.98822 0.53125,-1.5 0.003,-0.009 -0.003,-0.0218 0,-0.0312 0.16221,-0.51205 0.32776,-1.0412 0.46875,-1.5625 0.003,-0.01 -0.003,-0.0215 0,-0.0312 0.14055,-0.52128 0.28741,-1.03247 0.40625,-1.5625 0.002,-0.01 -0.002,-0.0212 0,-0.0312 0.11841,-0.53012 0.2163,-1.05538 0.3125,-1.59375 0.002,-0.0101 -0.002,-0.0211 0,-0.0312 0.094,-0.52881 0.17786,-1.0887 0.25,-1.625 0.003,-0.0204 -0.003,-0.0421 0,-0.0625 0.0726,-0.54637 0.13813,-1.07136 0.1875,-1.625 9e-4,-0.0102 -8.9e-4,-0.021 0,-0.0312 0.0489,-0.55408 0.0998,-1.12665 0.125,-1.6875 4.6e-4,-0.0104 -4.5e-4,-0.0209 0,-0.0312 0.0247,-0.56092 0.0308,-1.12031 0.0312,-1.6875 l 0,-0.0312 0,-186.21875 c 0,-0.0105 1e-5,-0.0207 0,-0.0312 0,-0.56731 -0.007,-1.12642 -0.0312,-1.6875 -4.6e-4,-0.0103 4.6e-4,-0.0209 0,-0.0312 -0.0247,-0.56102 -0.0765,-1.13321 -0.125,-1.6875 -9.3e-4,-0.0105 9.4e-4,-0.0207 0,-0.0312 -0.048,-0.54372 -0.11706,-1.08824 -0.1875,-1.625 -0.003,-0.0202 0.003,-0.0423 0,-0.0625 -0.0726,-0.54659 -0.15464,-1.08615 -0.25,-1.625 -0.002,-0.0102 0.002,-0.0211 0,-0.0312 -0.0958,-0.53865 -0.1945,-1.06334 -0.3125,-1.59375 -0.002,-0.01 0.002,-0.0213 0,-0.0312 -0.11843,-0.53032 -0.26611,-1.04092 -0.40625,-1.5625 -0.003,-0.01 0.003,-0.0217 0,-0.0312 -0.1406,-0.5216 -0.30693,-1.05015 -0.46875,-1.5625 -0.003,-0.01 0.003,-0.0217 0,-0.0312 -0.16218,-0.51208 -0.34837,-0.99768 -0.53125,-1.5 -0.003,-0.009 0.003,-0.0222 0,-0.0312 -0.18335,-0.50238 -0.39019,-1.00789 -0.59375,-1.5 -0.004,-0.009 0.004,-0.0224 0,-0.0312 -0.41159,-0.99289 -0.88421,-1.95832 -1.375,-2.90625 -0.004,-0.008 0.004,-0.023 0,-0.0312 -0.2436,-0.46965 -0.48772,-0.91716 -0.75,-1.375 -0.004,-0.008 0.004,-0.0236 0,-0.0312 -0.26282,-0.458 -0.56273,-0.89808 -0.84375,-1.34375 -0.005,-0.007 0.005,-0.0238 0,-0.0312 -0.28138,-0.44554 -0.57593,-0.87981 -0.875,-1.3125 -0.005,-0.007 0.005,-0.0243 0,-0.0312 -0.29953,-0.43273 -0.62077,-0.86189 -0.9375,-1.28125 -0.005,-0.006 0.005,-0.0248 0,-0.0312 -0.31717,-0.41936 -0.66612,-0.81328 -1,-1.21875 -0.005,-0.006 0.005,-0.0251 0,-0.0312 -0.38511,-0.46709 -0.78188,-0.89628 -1.1875,-1.34375 -0.005,-0.006 0.005,-0.0257 0,-0.0312 -0.40624,-0.4476 -0.85325,-0.88449 -1.28125,-1.3125 -0.005,-0.005 0.005,-0.026 0,-0.0312 -0.4311,-0.43062 -0.86116,-0.84041 -1.3125,-1.25 -0.37448,-0.3402 -0.76702,-0.64947 -1.15625,-0.96875 -0.0227,-0.0186 -0.0397,-0.0438 -0.0625,-0.0625 -0.0625,-0.0522 -0.12463,-0.10447 -0.1875,-0.15625 -0.34991,-0.28821 -0.70629,-0.56513 -1.0625,-0.84375 -0.1166,-0.0912 -0.22473,-0.19233 -0.34375,-0.28125 -0.007,-0.005 -0.0242,0.005 -0.0312,0 -0.29792,-0.22227 -0.60326,-0.43789 -0.90625,-0.65625 -0.18789,-0.13541 -0.3711,-0.27711 -0.5625,-0.40625 -0.007,-0.005 -0.0242,0.005 -0.0312,0 -0.25004,-0.16845 -0.5021,-0.33129 -0.75,-0.5 -0.2479,-0.16871 -0.49165,-0.34329 -0.75,-0.5 -0.008,-0.005 -0.0233,0.005 -0.0312,0 -0.19624,-0.11886 -0.39723,-0.22771 -0.59375,-0.34375 -0.32087,-0.18947 -0.63852,-0.38345 -0.96875,-0.5625 -0.008,-0.004 -0.0233,0.004 -0.0312,0 -0.1342,-0.0726 -0.27066,-0.14615 -0.40625,-0.21875 -0.0815,-0.0429 -0.16811,-0.0827 -0.25,-0.125 -0.32205,-0.17032 -0.64266,-0.34321 -0.96875,-0.5 -0.009,-0.004 -0.0223,0.004 -0.0312,0 -0.0717,-0.0344 -0.14708,-0.0598 -0.21875,-0.0937 -0.48865,-0.23118 -0.96916,-0.44556 -1.46875,-0.65625 -0.56199,-0.23665 -1.14323,-0.47736 -1.71875,-0.6875 -0.58315,-0.21281 -1.18456,-0.40877 -1.78125,-0.59375 -0.44448,-0.13751 -0.89309,-0.27716 -1.34375,-0.40625 -0.0314,-0.008 -0.0623,-0.0229 -0.0937,-0.0312 -0.1145,-0.0322 -0.22867,-0.0642 -0.34375,-0.0937 -0.01,-0.003 -0.0213,0.003 -0.0312,0 -0.38245,-0.0978 -0.77099,-0.16721 -1.15625,-0.25 -0.21968,-0.0472 -0.4341,-0.11089 -0.65625,-0.15625 -0.01,-0.002 -0.0213,0.002 -0.0312,0 -0.30695,-0.0624 -0.62214,-0.12885 -0.9375,-0.1875 -0.15522,-0.0276 -0.31288,-0.0367 -0.46875,-0.0625 -0.15761,-0.027 -0.31265,-0.0699 -0.46875,-0.0937 -0.0101,-0.002 -0.0211,0.002 -0.0312,0 -0.22836,-0.0347 -0.45906,-0.0611 -0.6875,-0.0937 -0.0306,-0.004 -0.0631,0.004 -0.0937,0 -0.36393,-0.0512 -0.72449,-0.11869 -1.09375,-0.15625 -0.0103,-0.001 -0.0209,0.001 -0.0312,0 -0.15552,-0.0157 -0.31309,-0.0192 -0.46875,-0.0312 -0.4826,-0.0427 -0.98125,-0.069 -1.46875,-0.0937 -0.63344,-0.0321 -1.26531,-0.0615 -1.90625,-0.0625 -0.021,-3e-5 -0.0415,0 -0.0625,0 -64.31383,0 -133.30032,0 -186.25,0 -0.0105,0 -0.0208,-1e-5 -0.0312,0 z m 134.65625,31.625 c 10.26172,-0.0103 19.32867,0.0312 29.1875,0.0312 3.00696,0 5.90295,0.43855 8.625,1.28125 1.8147,0.5618 3.5471,1.29884 5.1875,2.1875 1.2303,0.66649 2.41777,1.41842 3.53125,2.25 1.11348,0.83158 2.14442,1.76943 3.125,2.75 5.22974,5.22973 8.46875,12.45018 8.46875,20.46875 l 0,141.34375 c 0,7.01627 -2.47293,13.43293 -6.59375,18.4375 -0.58869,0.71398 -1.22128,1.37753 -1.875,2.03125 -0.98058,0.98057 -2.01152,1.91842 -3.125,2.75 -1.11348,0.83158 -2.30095,1.58351 -3.53125,2.25 -1.6404,0.88866 -3.3728,1.6257 -5.1875,2.1875 -2.72205,0.8427 -5.61804,1.28125 -8.625,1.28125 l -5.34375,0 c -47.17385,-0.15065 -94.00258,0.15164 -136.03125,-10e-5 -3.00696,0 -5.90295,-0.43855 -8.625,-1.28125 -1.8147,-0.5618 -3.5471,-1.29884 -5.1875,-2.1875 -1.2303,-0.66649 -2.41777,-1.41842 -3.53125,-2.25 -1.11348,-0.83158 -2.14442,-1.76943 -3.125,-2.75 -0.32159,-0.32159 -0.6626,-0.63228 -0.96875,-0.96875 -0.005,-0.006 0.005,-0.0254 0,-0.0312 -0.3109,-0.34222 -0.61191,-0.67426 -0.90625,-1.03125 -4.12082,-5.00457 -6.59375,-11.42123 -6.59375,-18.4375 l 0,-141.34375 c 0,-7.52549 2.82756,-14.36481 7.5,-19.5 0.30589,-0.33718 0.64741,-0.64643 0.96875,-0.96875 0.98058,-0.98057 2.01152,-1.91842 3.125,-2.75 1.11348,-0.83158 2.30095,-1.58351 3.53125,-2.25 1.6404,-0.88866 3.3728,-1.6257 5.1875,-2.1875 2.72205,-0.8427 5.61804,-1.28125 8.625,-1.28125 40.66304,-0.0449 81.79657,0.0569 112.1875,-0.0313 z"
     id="path3029"
     inkscape:connector-curvature="0"
     sodipodi:nodetypes="cccccccccscccccccccccccccccccccccscccccccccccccccccccccccccccccccccccccscccccccccccccccccccccccccccccccccccccccccccccccccccccccccccccccccccccccccccsccccccccccccccccccccccccccccccccccccccccccccccccccccccccccccccccccccccccccccccscccccccccccccccccccccccccccccccccscccccsccsccsccsccccccccccccccccccccccccccscccccccsssssscsssssccsssscccssccsssccc" />
  <path
     style="fill:#000000;fill-opacity:1;stroke:none"
     d="m -307.36716,87.810183 c 9.81262,0.235638 18.55811,10.011362 18.5625,17.281247 0.37586,47.47688 -0.0229,97.71554 0,142.125 -0.39777,50.29739 0.62293,98.73116 -0.125,144.375 0,10.83928 -11.96047,20.4643 -25.4375,14.28125 -5.3346,-2.39093 -12.8505,-5.83805 -23.625,-10.8125 l -35.28125,-17.25 0,-0.0625 -2.1875,0 0,-31.6875 c 3.29078,-0.005 6.73737,-0.0343 9.9375,-0.0312 7.4386,3.23676 15.1546,6.61794 22.5,9.8125 22.8169,6.11376 21.375,-9.75423 21.375,-20.84375 0.1019,-19.00182 0.15625,-47.60944 0.15625,-87.125 0,-38.78032 -0.0115,-73.29124 -0.0625,-94.53125 0,-10.18922 -4.88561,-14.68404 -12.71875,-14.84375 -2.61105,-0.0532 -5.55033,0.3614 -8.75,1.21875 -7.0076,2.43274 -14.1591,4.64941 -21.125,7.125 -3.83778,0.004 -7.44012,-10e-4 -11.3125,0 l 0,-31.625 3.03125,0 24.03125,-10.5 c 13.1287,-5.910962 28.42615,-12.822557 34.15625,-15.406297 2.2843,-1.109524 4.61055,-1.554378 6.875,-1.5 z"
     id="path3031"
     inkscape:connector-curvature="0" />
  <path
     id="path3048"
     d="m -441.58324,87.794902 c -9.81262,0.235638 -18.55811,10.011367 -18.5625,17.281248 -0.37586,47.47688 0.0229,97.71554 0,142.125 0.39777,50.29739 -0.62293,98.73116 0.125,144.375 0,10.83928 11.96047,20.4643 25.4375,14.28125 5.3346,-2.39093 12.8505,-5.83805 23.625,-10.8125 l 35.28125,-17.25 0,-0.0625 2.1875,0 0,-31.6875 c -3.29078,-0.005 -6.73737,-0.0343 -9.9375,-0.0312 -7.4386,3.23676 -15.1546,6.61794 -22.5,9.8125 -22.8169,6.11376 -21.375,-9.75423 -21.375,-20.84375 -0.1019,-19.00182 -0.15625,-47.60944 -0.15625,-87.125 0,-38.78032 0.0115,-73.29124 0.0625,-94.53125 0,-10.18922 4.88561,-14.68404 12.71875,-14.84375 2.61105,-0.0532 5.55033,0.3614 8.75,1.21875 7.0076,2.43274 14.1591,4.64941 21.125,7.125 3.83778,0.004 7.44012,-0.001 11.3125,0 l 0,-31.625 -3.03125,0 -24.03125,-10.5 c -13.1287,-5.910961 -28.42615,-12.822558 -34.15625,-15.406298 -2.2843,-1.109524 -4.61055,-1.554378 -6.875,-1.5 z"
     style="fill:#000000;fill-opacity:1;stroke:none"
     inkscape:connector-curvature="0" />
  <path
     sodipodi:nodetypes="cccccccccscccccccccccccccccccccccscccccccccccccccccccccccccccccccccccccscccccccccccccccccccccccccccccccccccccccccccccccccccccccccccccccccccccccccccsccccccccccccccccccccccccccccccccccccccccccccccccccccccccccccccccccccccccccccccscccccccccccccccccccccccccccccccccscccccsccsccsccsccccccccccccccccccccccccccscccccccsssssscsssssccsssscccssccsssccc"
     inkscape:connector-curvature="0"
     id="path3050"
     d="m -467.13711,489.13922 c -0.66385,0 -1.31301,0.0288 -1.96875,0.0625 -0.12633,0.006 -0.24931,0.0248 -0.375,0.0312 -0.19713,0.0121 -0.39743,0.0162 -0.59375,0.0312 -0.0207,0.001 -0.0418,-10e-4 -0.0625,0 -0.29127,0.0183 -0.58458,0.0334 -0.875,0.0625 -0.0104,0.001 -0.0209,-10e-4 -0.0312,0 -0.13736,0.0139 -0.26988,0.0462 -0.40625,0.0625 -0.0308,0.004 -0.063,-0.004 -0.0937,0 -1.12166,0.12874 -2.22317,0.30845 -3.3125,0.53125 -0.60833,0.12442 -1.21551,0.25379 -1.8125,0.40625 -0.01,0.003 -0.0214,-0.003 -0.0312,0 -0.0541,0.0139 -0.10224,0.048 -0.15625,0.0625 -0.55987,0.14605 -1.10725,0.29882 -1.65625,0.46875 -0.59774,0.18532 -1.16544,0.3803 -1.75,0.59375 -0.56496,0.20596 -1.13516,0.42482 -1.6875,0.65625 -0.0214,0.009 -0.041,0.0222 -0.0625,0.0312 -0.22454,0.0948 -0.43545,0.21359 -0.65625,0.3125 -0.23186,0.10295 -0.45809,0.20511 -0.6875,0.3125 -0.10131,0.0477 -0.21125,0.0764 -0.3125,0.125 -0.008,0.004 -0.0229,-0.004 -0.0312,0 -0.29681,0.14275 -0.58126,0.31428 -0.875,0.46875 -0.15442,0.079 -0.31556,0.13769 -0.46875,0.21875 -0.0942,0.0507 -0.18773,0.10561 -0.28125,0.15625 -0.008,0.004 -0.0232,-0.004 -0.0312,0 -0.14849,0.0806 -0.29144,0.16716 -0.4375,0.25 -0.27446,0.15331 -0.54231,0.30892 -0.8125,0.46875 -0.10414,0.0624 -0.20831,0.12436 -0.3125,0.1875 -0.007,0.005 -0.0238,-0.005 -0.0312,0 -0.19368,0.11757 -0.37547,0.24987 -0.5625,0.375 -0.32619,0.20551 -0.64946,0.40998 -0.96875,0.625 -0.031,0.021 -0.0628,0.0413 -0.0937,0.0625 -0.0934,0.0633 -0.18845,0.12338 -0.28125,0.1875 -0.37879,0.2617 -0.75658,0.53758 -1.125,0.8125 -0.48801,0.36416 -0.96851,0.73832 -1.4375,1.125 -0.46445,0.38303 -0.92951,0.78323 -1.375,1.1875 -0.44524,0.40448 -0.887,0.82501 -1.3125,1.25 -0.005,0.005 0.005,0.026 0,0.0312 -0.428,0.42801 -0.87501,0.8649 -1.28125,1.3125 -0.005,0.006 0.005,0.0257 0,0.0312 -0.40562,0.44747 -0.80239,0.87666 -1.1875,1.34375 -0.005,0.006 0.005,0.0251 0,0.0312 -0.33429,0.40547 -0.68251,0.79939 -1,1.21875 -0.005,0.006 0.005,0.0248 0,0.0312 -0.31705,0.41936 -0.63774,0.84852 -0.9375,1.28125 -0.005,0.007 0.005,0.0243 0,0.0312 -0.2993,0.43269 -0.59348,0.86696 -0.875,1.3125 -0.005,0.007 0.005,0.0239 0,0.0312 -0.28117,0.44567 -0.58085,0.88575 -0.84375,1.34375 -0.004,0.008 0.004,0.0236 0,0.0312 -0.26245,0.45799 -0.53756,0.9052 -0.78125,1.375 -0.004,0.008 0.004,0.0231 0,0.0312 -0.49073,0.9478 -0.93237,1.91351 -1.34375,2.90625 -0.004,0.009 0.004,0.0224 0,0.0312 -0.20348,0.49211 -0.41051,0.99762 -0.59375,1.5 -0.003,0.009 0.003,0.0222 0,0.0312 -0.18278,0.50232 -0.3692,0.98792 -0.53125,1.5 -0.003,0.01 0.003,0.0217 0,0.0312 -0.1617,0.51235 -0.32829,1.0409 -0.46875,1.5625 -0.003,0.01 0.003,0.0217 0,0.0312 -0.14001,0.52158 -0.28796,1.03218 -0.40625,1.5625 -0.002,0.01 0.002,0.0213 0,0.0312 -0.11786,0.53041 -0.21686,1.0551 -0.3125,1.59375 -0.002,0.0102 0.002,0.0211 0,0.0312 -0.0952,0.53885 -0.17749,1.07841 -0.25,1.625 -0.003,0.0202 0.003,0.0423 0,0.0625 -0.0703,0.53676 -0.13955,1.08128 -0.1875,1.625 -9.4e-4,0.0105 9.3e-4,0.0207 0,0.0312 -0.0484,0.55429 -0.10031,1.12648 -0.125,1.6875 -4.6e-4,0.0103 4.5e-4,0.0209 0,0.0312 -0.0242,0.56109 -0.0312,1.12019 -0.0312,1.6875 -1e-5,0.0105 0,0.0207 0,0.0312 l 0,186.21875 0,0.0312 c 4.6e-4,0.56719 0.007,1.12658 0.0312,1.6875 4.5e-4,0.0104 -4.6e-4,0.0209 0,0.0312 0.0251,0.56085 0.0761,1.13342 0.125,1.6875 8.9e-4,0.0102 -9e-4,0.021 0,0.0312 0.0493,0.55364 0.115,1.07862 0.1875,1.625 0.003,0.0204 -0.003,0.0421 0,0.0625 0.072,0.5363 0.15608,1.09619 0.25,1.625 0.002,0.0101 -0.002,0.0211 0,0.0312 0.0961,0.53837 0.19423,1.06363 0.3125,1.59375 0.002,0.01 -0.002,0.0212 0,0.0312 0.1187,0.53003 0.26584,1.04122 0.40625,1.5625 0.003,0.01 -0.003,0.0215 0,0.0312 0.14086,0.5213 0.30667,1.05045 0.46875,1.5625 0.003,0.009 -0.003,0.0218 0,0.0312 0.16244,0.51178 0.3481,0.99796 0.53125,1.5 0.003,0.009 -0.003,0.0219 0,0.0312 0.18361,0.5021 0.38991,1.00816 0.59375,1.5 0.004,0.009 -0.004,0.0224 0,0.0312 0.41138,0.99274 0.85302,1.95845 1.34375,2.90625 0.004,0.008 -0.004,0.0228 0,0.0312 0.24402,0.46962 0.51848,0.91714 0.78125,1.375 0.005,0.008 -0.005,0.0233 0,0.0312 0.26321,0.45788 0.56228,0.89815 0.84375,1.34375 0.005,0.007 -0.005,0.0238 0,0.0312 0.28182,0.44548 0.57542,0.8798 0.875,1.3125 0.005,0.007 -0.005,0.0241 0,0.0312 0.30004,0.43274 0.62018,0.86179 0.9375,1.28125 0.005,0.007 -0.005,0.0245 0,0.0312 0.31775,0.41947 0.66546,0.81308 1,1.21875 0.005,0.006 -0.005,0.025 0,0.0312 0.38537,0.46729 0.7816,0.89677 1.1875,1.34375 0.005,0.006 -0.005,0.0254 0,0.0312 0.4065,0.44711 0.85297,0.88425 1.28125,1.3125 0.005,0.005 -0.005,0.026 0,0.0312 0.4255,0.42499 0.86726,0.84552 1.3125,1.25 0.44549,0.40427 0.91055,0.80447 1.375,1.1875 0.41153,0.3393 0.82379,0.678 1.25,1 0.0595,0.0456 0.12736,0.08 0.1875,0.125 0.36842,0.27492 0.74621,0.5508 1.125,0.8125 0.0928,0.0641 0.18784,0.12419 0.28125,0.1875 0.0309,0.0212 0.0627,0.0415 0.0937,0.0625 0.31929,0.21502 0.64256,0.41949 0.96875,0.625 0.18703,0.12513 0.36882,0.25743 0.5625,0.375 0.007,0.005 0.0242,-0.005 0.0312,0 0.10419,0.0631 0.20836,0.12511 0.3125,0.1875 0.27019,0.15983 0.53804,0.31544 0.8125,0.46875 0.14606,0.0828 0.28901,0.16945 0.4375,0.25 0.008,0.004 0.0231,-0.004 0.0312,0 0.0935,0.0506 0.187,0.10555 0.28125,0.15625 0.15319,0.0811 0.31433,0.13972 0.46875,0.21875 0.29374,0.15447 0.57819,0.326 0.875,0.46875 0.008,0.004 0.0233,-0.004 0.0312,0 0.10125,0.0486 0.21119,0.0773 0.3125,0.125 0.22941,0.10739 0.45564,0.20955 0.6875,0.3125 0.2208,0.0989 0.43171,0.21775 0.65625,0.3125 0.0215,0.009 0.0411,0.0222 0.0625,0.0312 0.55234,0.23143 1.12254,0.45029 1.6875,0.65625 0.57566,0.20975 1.1616,0.41121 1.75,0.59375 0.549,0.16993 1.09638,0.3227 1.65625,0.46875 0.054,0.0145 0.10211,0.0486 0.15625,0.0625 0.01,0.003 0.0215,-0.002 0.0312,0 0.59699,0.15246 1.20417,0.28183 1.8125,0.40625 0.15562,0.0318 0.31243,0.0638 0.46875,0.0937 0.93794,0.17973 1.88233,0.32715 2.84375,0.4375 0.0308,0.004 0.0629,-0.004 0.0937,0 0.13637,0.0163 0.26889,0.0486 0.40625,0.0625 0.0103,0.001 0.0208,-10e-4 0.0312,0 0.29042,0.0291 0.58373,0.0442 0.875,0.0625 0.0207,0.001 0.0418,-10e-4 0.0625,0 0.19632,0.015 0.39662,0.0192 0.59375,0.0312 0.12569,0.006 0.24867,0.0249 0.375,0.0312 0.65574,0.0337 1.3049,0.0625 1.96875,0.0625 71.78562,0 122.47971,0 186.28125,0 0.0105,0 0.0207,10e-6 0.0312,0 0.0105,-10e-6 0.0208,2e-5 0.0312,0 0.65138,-10e-4 1.29387,-0.0294 1.9375,-0.0625 0.48361,-0.0247 0.96018,-0.057 1.4375,-0.0937 0.15566,-0.012 0.31323,-0.0156 0.46875,-0.0312 0.0103,-10e-4 0.0209,0.001 0.0312,0 0.36926,-0.0376 0.72982,-0.10504 1.09375,-0.15625 0.0306,-0.004 0.0632,0.004 0.0937,0 0.23104,-0.0307 0.45779,-0.0589 0.6875,-0.0937 0.0102,-0.002 0.0212,0.002 0.0312,0 0.1561,-0.0238 0.31114,-0.0667 0.46875,-0.0937 0.15575,-0.0267 0.31293,-0.0335 0.46875,-0.0625 0.31649,-0.0563 0.6238,-0.1235 0.9375,-0.1875 0.01,-0.002 0.0214,0.002 0.0312,0 0.22215,-0.0454 0.43657,-0.10904 0.65625,-0.15625 0.38393,-0.0858 0.77691,-0.15288 1.15625,-0.25 0.01,-0.003 0.0214,0.003 0.0312,0 0.11508,-0.0295 0.22925,-0.0616 0.34375,-0.0937 0.0317,-0.009 0.062,-0.0222 0.0937,-0.0312 0.45789,-0.12342 0.89311,-0.26655 1.34375,-0.40625 0.0735,-0.0227 0.14595,-0.0397 0.21875,-0.0625 0.52225,-0.16537 1.05072,-0.34449 1.5625,-0.53125 0.58489,-0.21311 1.14779,-0.44708 1.71875,-0.6875 0.57221,-0.24131 1.1297,-0.48186 1.6875,-0.75 0.009,-0.004 0.0226,0.004 0.0312,0 0.32609,-0.15679 0.6467,-0.32968 0.96875,-0.5 0.0826,-0.0437 0.16786,-0.081 0.25,-0.125 0.13683,-0.072 0.27041,-0.14513 0.40625,-0.21875 0.008,-0.004 0.0232,0.004 0.0312,0 0.33023,-0.17905 0.64788,-0.37303 0.96875,-0.5625 0.19766,-0.11499 0.39837,-0.22534 0.59375,-0.34375 0.008,-0.005 0.0236,0.005 0.0312,0 0.25835,-0.15671 0.5021,-0.33129 0.75,-0.5 0.25146,-0.16087 0.50264,-0.33345 0.75,-0.5 0.007,-0.005 0.024,0.005 0.0312,0 0.1914,-0.12914 0.37461,-0.27084 0.5625,-0.40625 0.30923,-0.21671 0.60393,-0.43072 0.90625,-0.65625 0.007,-0.005 0.0246,0.005 0.0312,0 0.11902,-0.0889 0.22715,-0.19005 0.34375,-0.28125 0.36001,-0.2756 0.71295,-0.55583 1.0625,-0.84375 0.0632,-0.0521 0.12444,-0.10452 0.1875,-0.15625 0.0224,-0.0187 0.0402,-0.0438 0.0625,-0.0625 0.38923,-0.31928 0.78177,-0.62855 1.15625,-0.96875 0.45134,-0.40959 0.8814,-0.81938 1.3125,-1.25 0.005,-0.005 -0.005,-0.026 0,-0.0312 0.42828,-0.42825 0.87475,-0.86539 1.28125,-1.3125 0.005,-0.006 -0.005,-0.0254 0,-0.0312 0.4059,-0.44698 0.80213,-0.87646 1.1875,-1.34375 0.005,-0.006 -0.005,-0.025 0,-0.0312 0.33413,-0.40567 0.68257,-0.79928 1,-1.21875 0.005,-0.007 -0.005,-0.0245 0,-0.0312 0.317,-0.41946 0.63769,-0.84851 0.9375,-1.28125 0.005,-0.007 -0.005,-0.0241 0,-0.0312 0.29936,-0.4327 0.59333,-0.86702 0.875,-1.3125 0.005,-0.007 -0.005,-0.0238 0,-0.0312 0.28132,-0.4456 0.58062,-0.88587 0.84375,-1.34375 0.005,-0.008 -0.005,-0.0232 0,-0.0312 0.26261,-0.45771 0.50607,-0.90554 0.75,-1.375 0.004,-0.008 -0.004,-0.0229 0,-0.0312 0.49079,-0.94793 0.96341,-1.91336 1.375,-2.90625 0.004,-0.009 -0.004,-0.0224 0,-0.0312 0.20392,-0.49184 0.41003,-0.9979 0.59375,-1.5 0.003,-0.009 -0.003,-0.0219 0,-0.0312 0.18326,-0.50204 0.36868,-0.98822 0.53125,-1.5 0.003,-0.009 -0.003,-0.0218 0,-0.0312 0.16221,-0.51205 0.32776,-1.0412 0.46875,-1.5625 0.003,-0.01 -0.003,-0.0215 0,-0.0312 0.14055,-0.52128 0.28741,-1.03247 0.40625,-1.5625 0.002,-0.01 -0.002,-0.0212 0,-0.0312 0.11841,-0.53012 0.2163,-1.05538 0.3125,-1.59375 0.002,-0.0101 -0.002,-0.0211 0,-0.0312 0.094,-0.52881 0.17786,-1.0887 0.25,-1.625 0.003,-0.0204 -0.003,-0.0421 0,-0.0625 0.0726,-0.54637 0.13813,-1.07136 0.1875,-1.625 9e-4,-0.0102 -8.9e-4,-0.021 0,-0.0312 0.0489,-0.55408 0.0998,-1.12665 0.125,-1.6875 4.6e-4,-0.0104 -4.5e-4,-0.0209 0,-0.0312 0.0247,-0.56092 0.0308,-1.12031 0.0312,-1.6875 l 0,-0.0312 0,-186.21875 c 0,-0.0105 1e-5,-0.0207 0,-0.0312 0,-0.56731 -0.007,-1.12642 -0.0312,-1.6875 -4.6e-4,-0.0103 4.6e-4,-0.0209 0,-0.0312 -0.0247,-0.56102 -0.0765,-1.13321 -0.125,-1.6875 -9.3e-4,-0.0105 9.4e-4,-0.0207 0,-0.0312 -0.048,-0.54372 -0.11706,-1.08824 -0.1875,-1.625 -0.003,-0.0202 0.003,-0.0423 0,-0.0625 -0.0726,-0.54659 -0.15464,-1.08615 -0.25,-1.625 -0.002,-0.0102 0.002,-0.0211 0,-0.0312 -0.0958,-0.53865 -0.1945,-1.06334 -0.3125,-1.59375 -0.002,-0.01 0.002,-0.0213 0,-0.0312 -0.11843,-0.53032 -0.26611,-1.04092 -0.40625,-1.5625 -0.003,-0.01 0.003,-0.0217 0,-0.0312 -0.1406,-0.5216 -0.30693,-1.05015 -0.46875,-1.5625 -0.003,-0.01 0.003,-0.0217 0,-0.0312 -0.16218,-0.51208 -0.34837,-0.99768 -0.53125,-1.5 -0.003,-0.009 0.003,-0.0222 0,-0.0312 -0.18335,-0.50238 -0.39019,-1.00789 -0.59375,-1.5 -0.004,-0.009 0.004,-0.0224 0,-0.0312 -0.41159,-0.99289 -0.88421,-1.95832 -1.375,-2.90625 -0.004,-0.008 0.004,-0.023 0,-0.0312 -0.2436,-0.46965 -0.48772,-0.91716 -0.75,-1.375 -0.004,-0.008 0.004,-0.0236 0,-0.0312 -0.26282,-0.458 -0.56273,-0.89808 -0.84375,-1.34375 -0.005,-0.007 0.005,-0.0238 0,-0.0312 -0.28138,-0.44554 -0.57593,-0.87981 -0.875,-1.3125 -0.005,-0.007 0.005,-0.0243 0,-0.0312 -0.29953,-0.43273 -0.62077,-0.86189 -0.9375,-1.28125 -0.005,-0.006 0.005,-0.0248 0,-0.0312 -0.31717,-0.41936 -0.66612,-0.81328 -1,-1.21875 -0.005,-0.006 0.005,-0.0251 0,-0.0312 -0.38511,-0.46709 -0.78188,-0.89628 -1.1875,-1.34375 -0.005,-0.006 0.005,-0.0257 0,-0.0312 -0.40624,-0.4476 -0.85325,-0.88449 -1.28125,-1.3125 -0.005,-0.005 0.005,-0.026 0,-0.0312 -0.4311,-0.43062 -0.86116,-0.84041 -1.3125,-1.25 -0.37448,-0.3402 -0.76702,-0.64947 -1.15625,-0.96875 -0.0227,-0.0186 -0.0397,-0.0438 -0.0625,-0.0625 -0.0625,-0.0522 -0.12463,-0.10447 -0.1875,-0.15625 -0.34991,-0.28821 -0.70629,-0.56513 -1.0625,-0.84375 -0.1166,-0.0912 -0.22473,-0.19233 -0.34375,-0.28125 -0.007,-0.005 -0.0242,0.005 -0.0312,0 -0.29792,-0.22227 -0.60326,-0.43789 -0.90625,-0.65625 -0.18789,-0.13541 -0.3711,-0.27711 -0.5625,-0.40625 -0.007,-0.005 -0.0242,0.005 -0.0312,0 -0.25004,-0.16845 -0.5021,-0.33129 -0.75,-0.5 -0.2479,-0.16871 -0.49165,-0.34329 -0.75,-0.5 -0.008,-0.005 -0.0233,0.005 -0.0312,0 -0.19624,-0.11886 -0.39723,-0.22771 -0.59375,-0.34375 -0.32087,-0.18947 -0.63852,-0.38345 -0.96875,-0.5625 -0.008,-0.004 -0.0233,0.004 -0.0312,0 -0.1342,-0.0726 -0.27066,-0.14615 -0.40625,-0.21875 -0.0815,-0.0429 -0.16811,-0.0827 -0.25,-0.125 -0.32205,-0.17032 -0.64266,-0.34321 -0.96875,-0.5 -0.009,-0.004 -0.0223,0.004 -0.0312,0 -0.0717,-0.0344 -0.14708,-0.0598 -0.21875,-0.0937 -0.48865,-0.23118 -0.96916,-0.44556 -1.46875,-0.65625 -0.56199,-0.23665 -1.14323,-0.47736 -1.71875,-0.6875 -0.58315,-0.21281 -1.18456,-0.40877 -1.78125,-0.59375 -0.44448,-0.13751 -0.89309,-0.27716 -1.34375,-0.40625 -0.0314,-0.008 -0.0623,-0.0229 -0.0937,-0.0312 -0.1145,-0.0322 -0.22867,-0.0642 -0.34375,-0.0937 -0.01,-0.003 -0.0213,0.003 -0.0312,0 -0.38245,-0.0978 -0.77099,-0.16721 -1.15625,-0.25 -0.21968,-0.0472 -0.4341,-0.11089 -0.65625,-0.15625 -0.01,-0.002 -0.0213,0.002 -0.0312,0 -0.30695,-0.0624 -0.62214,-0.12885 -0.9375,-0.1875 -0.15522,-0.0276 -0.31288,-0.0367 -0.46875,-0.0625 -0.15761,-0.027 -0.31265,-0.0699 -0.46875,-0.0937 -0.0101,-0.002 -0.0211,0.002 -0.0312,0 -0.22836,-0.0347 -0.45906,-0.0611 -0.6875,-0.0937 -0.0306,-0.004 -0.0631,0.004 -0.0937,0 -0.36393,-0.0512 -0.72449,-0.11869 -1.09375,-0.15625 -0.0103,-10e-4 -0.0209,0.001 -0.0312,0 -0.15552,-0.0157 -0.31309,-0.0192 -0.46875,-0.0312 -0.4826,-0.0427 -0.98125,-0.069 -1.46875,-0.0937 -0.63344,-0.0321 -1.26531,-0.0615 -1.90625,-0.0625 -0.021,-3e-5 -0.0415,0 -0.0625,0 -64.31383,0 -133.30032,0 -186.25,0 -0.0105,0 -0.0208,-1e-5 -0.0312,0 z m 134.65625,31.625 c 10.26172,-0.0103 19.32867,0.0312 29.1875,0.0312 3.00696,0 5.90295,0.43855 8.625,1.28125 1.8147,0.5618 3.5471,1.29884 5.1875,2.1875 1.2303,0.66649 2.41777,1.41842 3.53125,2.25 1.11348,0.83158 2.14442,1.76943 3.125,2.75 5.22974,5.22973 8.46875,12.45018 8.46875,20.46875 l 0,141.34375 c 0,7.01627 -2.47293,13.43293 -6.59375,18.4375 -0.58869,0.71398 -1.22128,1.37753 -1.875,2.03125 -0.98058,0.98057 -2.01152,1.91842 -3.125,2.75 -1.11348,0.83158 -2.30095,1.58351 -3.53125,2.25 -1.6404,0.88866 -3.3728,1.6257 -5.1875,2.1875 -2.72205,0.8427 -5.61804,1.28125 -8.625,1.28125 l -5.34375,0 c -47.17385,-0.15065 -94.00258,0.15164 -136.03125,-1e-4 -3.00696,0 -5.90295,-0.43855 -8.625,-1.28125 -1.8147,-0.5618 -3.5471,-1.29884 -5.1875,-2.1875 -1.2303,-0.66649 -2.41777,-1.41842 -3.53125,-2.25 -1.11348,-0.83158 -2.14442,-1.76943 -3.125,-2.75 -0.32159,-0.32159 -0.6626,-0.63228 -0.96875,-0.96875 -0.005,-0.006 0.005,-0.0254 0,-0.0312 -0.3109,-0.34222 -0.61191,-0.67426 -0.90625,-1.03125 -4.12082,-5.00457 -6.59375,-11.42123 -6.59375,-18.4375 l 0,-141.34375 c 0,-7.52549 2.82756,-14.36481 7.5,-19.5 0.30589,-0.33718 0.64741,-0.64643 0.96875,-0.96875 0.98058,-0.98057 2.01152,-1.91842 3.125,-2.75 1.11348,-0.83158 2.30095,-1.58351 3.53125,-2.25 1.6404,-0.88866 3.3728,-1.6257 5.1875,-2.1875 2.72205,-0.8427 5.61804,-1.28125 8.625,-1.28125 40.66304,-0.0449 81.79657,0.0569 112.1875,-0.0313 z"
     style="fill:#000000;fill-opacity:1;stroke:none" />
  <path
     inkscape:connector-curvature="0"
     style="fill:#000000;fill-opacity:1;stroke:none"
     d="m -423.19846,461.7949 c -9.81262,0.23564 -18.55811,10.01137 -18.5625,17.28125 -0.37586,47.47688 0.0229,97.71554 0,142.125 0.39777,50.29739 -0.62293,98.73116 0.125,144.375 0,10.83928 11.96047,20.4643 25.4375,14.28125 5.3346,-2.39093 12.8505,-5.83805 23.625,-10.8125 l 35.28125,-17.25 0,-0.0625 2.1875,0 0,-31.6875 c -3.29078,-0.005 -6.73737,-0.0343 -9.9375,-0.0312 -7.4386,3.23676 -15.1546,6.61794 -22.5,9.8125 -22.8169,6.11376 -21.375,-9.75423 -21.375,-20.84375 -0.1019,-19.00182 -0.15625,-47.60944 -0.15625,-87.125 0,-38.78032 0.0115,-73.29124 0.0625,-94.53125 0,-10.18922 4.88561,-14.68404 12.71875,-14.84375 2.61105,-0.0532 5.55033,0.3614 8.75,1.21875 7.0076,2.43274 14.1591,4.64941 21.125,7.125 3.83778,0.004 7.44012,-10e-4 11.3125,0 l 0,-31.625 -3.03125,0 -24.03125,-10.5 c -13.1287,-5.91096 -28.42615,-12.82256 -34.15625,-15.4063 -2.2843,-1.10952 -4.61055,-1.55438 -6.875,-1.5 z"
     id="path3054" />
  <path
     sodipodi:nodetypes="cccccccccscccccccccccccccccccccccscccccccccccccccccccccccccccccccccccccscccccccccccccccccccccccccccccccccccccccccccccccccccccccccccccccccccccccccccsccccccccccccccccccccccccccccccccccccccccccccccccccccccccccccccccccccccccccccccscccccccccccccccccccccccccccccccccscccccsccsccsccsccccccccccccccccccccccccccscccccccsssssscsssssccsssscccssccsssccc"
     inkscape:connector-curvature="0"
     id="path3056"
     d="m -467.13711,-332.86078 c -0.66385,0 -1.31301,0.0288 -1.96875,0.0625 -0.12633,0.006 -0.24931,0.0248 -0.375,0.0312 -0.19713,0.0121 -0.39743,0.0162 -0.59375,0.0312 -0.0207,0.001 -0.0418,-10e-4 -0.0625,0 -0.29127,0.0183 -0.58458,0.0334 -0.875,0.0625 -0.0104,0.001 -0.0209,-10e-4 -0.0312,0 -0.13736,0.0139 -0.26988,0.0462 -0.40625,0.0625 -0.0308,0.004 -0.063,-0.004 -0.0937,0 -1.12166,0.12874 -2.22317,0.30845 -3.3125,0.53125 -0.60833,0.12442 -1.21551,0.25379 -1.8125,0.40625 -0.01,0.003 -0.0214,-0.003 -0.0312,0 -0.0541,0.0139 -0.10224,0.048 -0.15625,0.0625 -0.55987,0.14605 -1.10725,0.29882 -1.65625,0.46875 -0.59774,0.18532 -1.16544,0.3803 -1.75,0.59375 -0.56496,0.20596 -1.13516,0.42482 -1.6875,0.65625 -0.0214,0.009 -0.041,0.0222 -0.0625,0.0312 -0.22454,0.0948 -0.43545,0.21359 -0.65625,0.3125 -0.23186,0.10295 -0.45809,0.20511 -0.6875,0.3125 -0.10131,0.0477 -0.21125,0.0764 -0.3125,0.125 -0.008,0.004 -0.0229,-0.004 -0.0312,0 -0.29681,0.14275 -0.58126,0.31428 -0.875,0.46875 -0.15442,0.079 -0.31556,0.13769 -0.46875,0.21875 -0.0942,0.0507 -0.18773,0.10561 -0.28125,0.15625 -0.008,0.004 -0.0232,-0.004 -0.0312,0 -0.14849,0.0806 -0.29144,0.16716 -0.4375,0.25 -0.27446,0.15331 -0.54231,0.30892 -0.8125,0.46875 -0.10414,0.0624 -0.20831,0.12436 -0.3125,0.1875 -0.007,0.005 -0.0238,-0.005 -0.0312,0 -0.19368,0.11757 -0.37547,0.24987 -0.5625,0.375 -0.32619,0.20551 -0.64946,0.40998 -0.96875,0.625 -0.031,0.021 -0.0628,0.0413 -0.0937,0.0625 -0.0934,0.0633 -0.18845,0.12338 -0.28125,0.1875 -0.37879,0.2617 -0.75658,0.53758 -1.125,0.8125 -0.48801,0.36416 -0.96851,0.73832 -1.4375,1.125 -0.46445,0.38303 -0.92951,0.78323 -1.375,1.1875 -0.44524,0.40448 -0.887,0.82501 -1.3125,1.25 -0.005,0.005 0.005,0.026 0,0.0312 -0.428,0.42801 -0.87501,0.8649 -1.28125,1.3125 -0.005,0.006 0.005,0.0257 0,0.0312 -0.40562,0.44747 -0.80239,0.87666 -1.1875,1.34375 -0.005,0.006 0.005,0.0251 0,0.0312 -0.33429,0.40547 -0.68251,0.79939 -1,1.21875 -0.005,0.006 0.005,0.0248 0,0.0312 -0.31705,0.41936 -0.63774,0.84852 -0.9375,1.28125 -0.005,0.007 0.005,0.0243 0,0.0312 -0.2993,0.43269 -0.59348,0.86696 -0.875,1.3125 -0.005,0.007 0.005,0.0239 0,0.0312 -0.28117,0.44567 -0.58085,0.88575 -0.84375,1.34375 -0.004,0.008 0.004,0.0236 0,0.0312 -0.26245,0.45799 -0.53756,0.9052 -0.78125,1.375 -0.004,0.008 0.004,0.0231 0,0.0312 -0.49073,0.9478 -0.93237,1.91351 -1.34375,2.90625 -0.004,0.009 0.004,0.0224 0,0.0312 -0.20348,0.49211 -0.41051,0.99762 -0.59375,1.5 -0.003,0.009 0.003,0.0222 0,0.0312 -0.18278,0.50232 -0.3692,0.98792 -0.53125,1.5 -0.003,0.01 0.003,0.0217 0,0.0312 -0.1617,0.51235 -0.32829,1.0409 -0.46875,1.5625 -0.003,0.01 0.003,0.0217 0,0.0312 -0.14001,0.52158 -0.28796,1.03218 -0.40625,1.5625 -0.002,0.01 0.002,0.0213 0,0.0312 -0.11786,0.53041 -0.21686,1.0551 -0.3125,1.59375 -0.002,0.0102 0.002,0.0211 0,0.0312 -0.0952,0.53885 -0.17749,1.07841 -0.25,1.625 -0.003,0.0202 0.003,0.0423 0,0.0625 -0.0703,0.53676 -0.13955,1.08128 -0.1875,1.625 -9.4e-4,0.0105 9.3e-4,0.0207 0,0.0312 -0.0484,0.55429 -0.10031,1.12648 -0.125,1.6875 -4.6e-4,0.0103 4.5e-4,0.0209 0,0.0312 -0.0242,0.56109 -0.0312,1.12019 -0.0312,1.6875 -1e-5,0.0105 0,0.0207 0,0.0312 l 0,186.21875 0,0.0312 c 4.6e-4,0.56719 0.007,1.12658 0.0312,1.6875 4.5e-4,0.0104 -4.6e-4,0.0209 0,0.0312 0.0251,0.56085 0.0761,1.13342 0.125,1.6875 8.9e-4,0.0102 -9e-4,0.021 0,0.0312 0.0493,0.55364 0.115,1.07862 0.1875,1.625 0.003,0.0204 -0.003,0.0421 0,0.0625 0.072,0.5363 0.15608,1.09619 0.25,1.625 0.002,0.0101 -0.002,0.0211 0,0.0312 0.0961,0.53837 0.19423,1.06363 0.3125,1.59375 0.002,0.01 -0.002,0.0212 0,0.0312 0.1187,0.530032 0.26584,1.041222 0.40625,1.562502 0.003,0.01 -0.003,0.0215 0,0.0312 0.14086,0.5213 0.30667,1.05045 0.46875,1.5625 0.003,0.009 -0.003,0.0218 0,0.0312 0.16244,0.51178 0.3481,0.99796 0.53125,1.5 0.003,0.009 -0.003,0.0219 0,0.0312 0.18361,0.5021 0.38991,1.00816 0.59375,1.5 0.004,0.009 -0.004,0.0224 0,0.0312 0.41138,0.99274 0.85302,1.95845 1.34375,2.90625 0.004,0.008 -0.004,0.0228 0,0.0312 0.24402,0.46962 0.51848,0.91714 0.78125,1.375 0.005,0.008 -0.005,0.0233 0,0.0312 0.26321,0.45788 0.56228,0.89815 0.84375,1.34375 0.005,0.007 -0.005,0.0238 0,0.0312 0.28182,0.44548 0.57542,0.8798 0.875,1.3125 0.005,0.007 -0.005,0.0241 0,0.0312 0.30004,0.43274 0.62018,0.86179 0.9375,1.28125 0.005,0.007 -0.005,0.0245 0,0.0312 0.31775,0.41947 0.66546,0.81308 1,1.21875 0.005,0.006 -0.005,0.025 0,0.0312 0.38537,0.46729 0.7816,0.89677 1.1875,1.34375 0.005,0.006 -0.005,0.0254 0,0.0312 0.4065,0.44711 0.85297,0.88425 1.28125,1.3125 0.005,0.005 -0.005,0.026 0,0.0312 0.4255,0.42499 0.86726,0.84552 1.3125,1.25 0.44549,0.40427 0.91055,0.80447 1.375,1.1875 0.41153,0.3393 0.82379,0.678 1.25,1 0.0595,0.0456 0.12736,0.08 0.1875,0.125 0.36842,0.27492 0.74621,0.5508 1.125,0.8125 0.0928,0.0641 0.18784,0.12419 0.28125,0.1875 0.0309,0.0212 0.0627,0.0415 0.0937,0.0625 0.31929,0.21502 0.64256,0.41949 0.96875,0.625 0.18703,0.12513 0.36882,0.25743 0.5625,0.375 0.007,0.005 0.0242,-0.005 0.0312,0 0.10419,0.0631 0.20836,0.12511 0.3125,0.1875 0.27019,0.15983 0.53804,0.31544 0.8125,0.46875 0.14606,0.0828 0.28901,0.16945 0.4375,0.25 0.008,0.004 0.0231,-0.004 0.0312,0 0.0935,0.0506 0.187,0.10555 0.28125,0.15625 0.15319,0.0811 0.31433,0.13972 0.46875,0.21875 0.29374,0.15447 0.57819,0.326 0.875,0.46875 0.008,0.004 0.0233,-0.004 0.0312,0 0.10125,0.0486 0.21119,0.0773 0.3125,0.125 0.22941,0.10739 0.45564,0.20955 0.6875,0.3125 0.2208,0.0989 0.43171,0.21775 0.65625,0.3125 0.0215,0.009 0.0411,0.0222 0.0625,0.0312 0.55234,0.23143 1.12254,0.45029 1.6875,0.65625 0.57566,0.20975 1.1616,0.41121 1.75,0.59375 0.549,0.16993 1.09638,0.3227 1.65625,0.46875 0.054,0.0145 0.10211,0.0486 0.15625,0.0625 0.01,0.003 0.0215,-0.002 0.0312,0 0.59699,0.15246 1.20417,0.28183 1.8125,0.40625 0.15562,0.0318 0.31243,0.0638 0.46875,0.0937 0.93794,0.17973 1.88233,0.32715 2.84375,0.4375 0.0308,0.004 0.0629,-0.004 0.0937,0 0.13637,0.0163 0.26889,0.0486 0.40625,0.0625 0.0103,0.001 0.0208,-10e-4 0.0312,0 0.29042,0.0291 0.58373,0.0442 0.875,0.0625 0.0207,0.001 0.0418,-10e-4 0.0625,0 0.19632,0.015 0.39662,0.0192 0.59375,0.0312 0.12569,0.006 0.24867,0.0249 0.375,0.0312 0.65574,0.0337 1.3049,0.0625 1.96875,0.0625 71.78562,0 122.47971,0 186.28125,0 0.0105,0 0.0207,10e-6 0.0312,0 0.0105,-1e-5 0.0208,2e-5 0.0312,0 0.65138,-0.001 1.29387,-0.0294 1.9375,-0.0625 0.48361,-0.0247 0.96018,-0.057 1.4375,-0.0937 0.15566,-0.012 0.31323,-0.0156 0.46875,-0.0312 0.0103,-10e-4 0.0209,0.001 0.0312,0 0.36926,-0.0376 0.72982,-0.10504 1.09375,-0.15625 0.0306,-0.004 0.0632,0.004 0.0937,0 0.23104,-0.0307 0.45779,-0.0589 0.6875,-0.0937 0.0102,-0.002 0.0212,0.002 0.0312,0 0.1561,-0.0238 0.31114,-0.0667 0.46875,-0.0937 0.15575,-0.0267 0.31293,-0.0335 0.46875,-0.0625 0.31649,-0.0563 0.6238,-0.1235 0.9375,-0.1875 0.01,-0.002 0.0214,0.002 0.0312,0 0.22215,-0.0454 0.43657,-0.10904 0.65625,-0.15625 0.38393,-0.0858 0.77691,-0.15288 1.15625,-0.25 0.01,-0.003 0.0214,0.003 0.0312,0 0.11508,-0.0295 0.22925,-0.0616 0.34375,-0.0937 0.0317,-0.009 0.062,-0.0222 0.0937,-0.0312 0.45789,-0.12342 0.89311,-0.26655 1.34375,-0.40625 0.0735,-0.0227 0.14595,-0.0397 0.21875,-0.0625 0.52225,-0.16537 1.05072,-0.34449 1.5625,-0.53125 0.58489,-0.21311 1.14779,-0.44708 1.71875,-0.6875 0.57221,-0.24131 1.1297,-0.48186 1.6875,-0.75 0.009,-0.004 0.0226,0.004 0.0312,0 0.32609,-0.15679 0.6467,-0.32968 0.96875,-0.5 0.0826,-0.0437 0.16786,-0.081 0.25,-0.125 0.13683,-0.072 0.27041,-0.14513 0.40625,-0.21875 0.008,-0.004 0.0232,0.004 0.0312,0 0.33023,-0.17905 0.64788,-0.37303 0.96875,-0.5625 0.19766,-0.11499 0.39837,-0.22534 0.59375,-0.34375 0.008,-0.005 0.0236,0.005 0.0312,0 0.25835,-0.15671 0.5021,-0.33129 0.75,-0.5 0.25146,-0.16087 0.50264,-0.33345 0.75,-0.5 0.007,-0.005 0.024,0.005 0.0312,0 0.1914,-0.12914 0.37461,-0.27084 0.5625,-0.40625 0.30923,-0.21671 0.60393,-0.43072 0.90625,-0.65625 0.007,-0.005 0.0246,0.005 0.0312,0 0.11902,-0.0889 0.22715,-0.19005 0.34375,-0.28125 0.36001,-0.2756 0.71295,-0.55583 1.0625,-0.84375 0.0632,-0.0521 0.12444,-0.10452 0.1875,-0.15625 0.0224,-0.0187 0.0402,-0.0438 0.0625,-0.0625 0.38923,-0.31928 0.78177,-0.62855 1.15625,-0.96875 0.45134,-0.40959 0.8814,-0.81938 1.3125,-1.25 0.005,-0.005 -0.005,-0.026 0,-0.0312 0.42828,-0.42825 0.87475,-0.86539 1.28125,-1.3125 0.005,-0.006 -0.005,-0.0254 0,-0.0312 0.4059,-0.44698 0.80213,-0.87646 1.1875,-1.34375 0.005,-0.006 -0.005,-0.025 0,-0.0312 0.33413,-0.40567 0.68257,-0.79928 1,-1.21875 0.005,-0.007 -0.005,-0.0245 0,-0.0312 0.317,-0.41946 0.63769,-0.84851 0.9375,-1.28125 0.005,-0.007 -0.005,-0.0241 0,-0.0312 0.29936,-0.4327 0.59333,-0.86702 0.875,-1.3125 0.005,-0.007 -0.005,-0.0238 0,-0.0312 0.28132,-0.4456 0.58062,-0.88587 0.84375,-1.34375 0.005,-0.008 -0.005,-0.0232 0,-0.0312 0.26261,-0.45771 0.50607,-0.90554 0.75,-1.375 0.004,-0.008 -0.004,-0.0229 0,-0.0312 0.49079,-0.94793 0.96341,-1.91336 1.375,-2.90625 0.004,-0.009 -0.004,-0.0224 0,-0.0312 0.20392,-0.49184 0.41003,-0.9979 0.59375,-1.5 0.003,-0.009 -0.003,-0.0219 0,-0.0312 0.18326,-0.50204 0.36868,-0.98822 0.53125,-1.5 0.003,-0.009 -0.003,-0.0218 0,-0.0312 0.16221,-0.51205 0.32776,-1.0412 0.46875,-1.5625 0.003,-0.01 -0.003,-0.0215 0,-0.0312 0.14055,-0.52128 0.28741,-1.03247 0.40625,-1.562502 0.002,-0.01 -0.002,-0.0212 0,-0.0312 0.11841,-0.53012 0.2163,-1.05538 0.3125,-1.59375 0.002,-0.0101 -0.002,-0.0211 0,-0.0312 0.094,-0.52881 0.17786,-1.0887 0.25,-1.625 0.003,-0.0204 -0.003,-0.0421 0,-0.0625 0.0726,-0.54637 0.13813,-1.07136 0.1875,-1.625 9e-4,-0.0102 -8.9e-4,-0.021 0,-0.0312 0.0489,-0.55408 0.0998,-1.12665 0.125,-1.6875 4.6e-4,-0.0104 -4.5e-4,-0.0209 0,-0.0312 0.0247,-0.56092 0.0308,-1.12031 0.0312,-1.6875 l 0,-0.0312 0,-186.21875 c 0,-0.0105 1e-5,-0.0207 0,-0.0312 0,-0.56731 -0.007,-1.12642 -0.0312,-1.6875 -4.6e-4,-0.0103 4.6e-4,-0.0209 0,-0.0312 -0.0247,-0.56102 -0.0765,-1.13321 -0.125,-1.6875 -9.3e-4,-0.0105 9.4e-4,-0.0207 0,-0.0312 -0.048,-0.54372 -0.11706,-1.08824 -0.1875,-1.625 -0.003,-0.0202 0.003,-0.0423 0,-0.0625 -0.0726,-0.54659 -0.15464,-1.08615 -0.25,-1.625 -0.002,-0.0102 0.002,-0.0211 0,-0.0312 -0.0958,-0.53865 -0.1945,-1.06334 -0.3125,-1.59375 -0.002,-0.01 0.002,-0.0213 0,-0.0312 -0.11843,-0.53032 -0.26611,-1.04092 -0.40625,-1.5625 -0.003,-0.01 0.003,-0.0217 0,-0.0312 -0.1406,-0.5216 -0.30693,-1.05015 -0.46875,-1.5625 -0.003,-0.01 0.003,-0.0217 0,-0.0312 -0.16218,-0.51208 -0.34837,-0.99768 -0.53125,-1.5 -0.003,-0.009 0.003,-0.0222 0,-0.0312 -0.18335,-0.50238 -0.39019,-1.00789 -0.59375,-1.5 -0.004,-0.009 0.004,-0.0224 0,-0.0312 -0.41159,-0.99289 -0.88421,-1.95832 -1.375,-2.90625 -0.004,-0.008 0.004,-0.023 0,-0.0312 -0.2436,-0.46965 -0.48772,-0.91716 -0.75,-1.375 -0.004,-0.008 0.004,-0.0236 0,-0.0312 -0.26282,-0.458 -0.56273,-0.89808 -0.84375,-1.34375 -0.005,-0.007 0.005,-0.0238 0,-0.0312 -0.28138,-0.44554 -0.57593,-0.87981 -0.875,-1.3125 -0.005,-0.007 0.005,-0.0243 0,-0.0312 -0.29953,-0.43273 -0.62077,-0.86189 -0.9375,-1.28125 -0.005,-0.006 0.005,-0.0248 0,-0.0312 -0.31717,-0.41936 -0.66612,-0.81328 -1,-1.21875 -0.005,-0.006 0.005,-0.0251 0,-0.0312 -0.38511,-0.46709 -0.78188,-0.89628 -1.1875,-1.34375 -0.005,-0.006 0.005,-0.0257 0,-0.0312 -0.40624,-0.4476 -0.85325,-0.88449 -1.28125,-1.3125 -0.005,-0.005 0.005,-0.026 0,-0.0312 -0.4311,-0.43062 -0.86116,-0.84041 -1.3125,-1.25 -0.37448,-0.3402 -0.76702,-0.64947 -1.15625,-0.96875 -0.0227,-0.0186 -0.0397,-0.0438 -0.0625,-0.0625 -0.0625,-0.0522 -0.12463,-0.10447 -0.1875,-0.15625 -0.34991,-0.28821 -0.70629,-0.56513 -1.0625,-0.84375 -0.1166,-0.0912 -0.22473,-0.19233 -0.34375,-0.28125 -0.007,-0.005 -0.0242,0.005 -0.0312,0 -0.29792,-0.22227 -0.60326,-0.43789 -0.90625,-0.65625 -0.18789,-0.13541 -0.3711,-0.27711 -0.5625,-0.40625 -0.007,-0.005 -0.0242,0.005 -0.0312,0 -0.25004,-0.16845 -0.5021,-0.33129 -0.75,-0.5 -0.2479,-0.16871 -0.49165,-0.34329 -0.75,-0.5 -0.008,-0.005 -0.0233,0.005 -0.0312,0 -0.19624,-0.11886 -0.39723,-0.22771 -0.59375,-0.34375 -0.32087,-0.18947 -0.63852,-0.38345 -0.96875,-0.5625 -0.008,-0.004 -0.0233,0.004 -0.0312,0 -0.1342,-0.0726 -0.27066,-0.14615 -0.40625,-0.21875 -0.0815,-0.0429 -0.16811,-0.0827 -0.25,-0.125 -0.32205,-0.17032 -0.64266,-0.34321 -0.96875,-0.5 -0.009,-0.004 -0.0223,0.004 -0.0312,0 -0.0717,-0.0344 -0.14708,-0.0598 -0.21875,-0.0937 -0.48865,-0.23118 -0.96916,-0.44556 -1.46875,-0.65625 -0.56199,-0.23665 -1.14323,-0.47736 -1.71875,-0.6875 -0.58315,-0.21281 -1.18456,-0.40877 -1.78125,-0.59375 -0.44448,-0.13751 -0.89309,-0.27716 -1.34375,-0.40625 -0.0314,-0.008 -0.0623,-0.0229 -0.0937,-0.0312 -0.1145,-0.0322 -0.22867,-0.0642 -0.34375,-0.0937 -0.01,-0.003 -0.0213,0.003 -0.0312,0 -0.38245,-0.0978 -0.77099,-0.16721 -1.15625,-0.25 -0.21968,-0.0472 -0.4341,-0.11089 -0.65625,-0.15625 -0.01,-0.002 -0.0213,0.002 -0.0312,0 -0.30695,-0.0624 -0.62214,-0.12885 -0.9375,-0.1875 -0.15522,-0.0276 -0.31288,-0.0367 -0.46875,-0.0625 -0.15761,-0.027 -0.31265,-0.0699 -0.46875,-0.0937 -0.0101,-0.002 -0.0211,0.002 -0.0312,0 -0.22836,-0.0347 -0.45906,-0.0611 -0.6875,-0.0937 -0.0306,-0.004 -0.0631,0.004 -0.0937,0 -0.36393,-0.0512 -0.72449,-0.11869 -1.09375,-0.15625 -0.0103,-10e-4 -0.0209,0.001 -0.0312,0 -0.15552,-0.0157 -0.31309,-0.0192 -0.46875,-0.0312 -0.4826,-0.0427 -0.98125,-0.069 -1.46875,-0.0937 -0.63344,-0.0321 -1.26531,-0.0615 -1.90625,-0.0625 -0.021,-3e-5 -0.0415,0 -0.0625,0 -64.31383,0 -133.30032,0 -186.25,0 -0.0105,0 -0.0208,-1e-5 -0.0312,0 z m 134.65625,31.625 c 10.26172,-0.0103 19.32867,0.0312 29.1875,0.0312 3.00696,0 5.90295,0.43855 8.625,1.28125 1.8147,0.5618 3.5471,1.29884 5.1875,2.1875 1.2303,0.66649 2.41777,1.41842 3.53125,2.25 1.11348,0.83158 2.14442,1.76943 3.125,2.75 5.22974,5.22973 8.46875,12.45018 8.46875,20.46875 l 0,141.34375 c 0,7.01627 -2.47293,13.43293 -6.59375,18.4375 -0.58869,0.71398 -1.22128,1.37753 -1.875,2.03125 -0.98058,0.98057 -2.01152,1.91842 -3.125,2.75 -1.11348,0.83158 -2.30095,1.58351 -3.53125,2.25 -1.6404,0.88866 -3.3728,1.6257 -5.1875,2.1875 -2.72205,0.8427 -5.61804,1.28125 -8.625,1.28125 l -5.34375,0 c -47.17385,-0.15065 -94.00258,0.15164 -136.03125,-10e-5 -3.00696,0 -5.90295,-0.43855 -8.625,-1.28125 -1.8147,-0.5618 -3.5471,-1.29884 -5.1875,-2.1875 -1.2303,-0.66649 -2.41777,-1.41842 -3.53125,-2.25 -1.11348,-0.83158 -2.14442,-1.76943 -3.125,-2.75 -0.32159,-0.32159 -0.6626,-0.63228 -0.96875,-0.96875 -0.005,-0.006 0.005,-0.0254 0,-0.0312 -0.3109,-0.34222 -0.61191,-0.67426 -0.90625,-1.03125 -4.12082,-5.00457 -6.59375,-11.42123 -6.59375,-18.4375 l 0,-141.34375 c 0,-7.52549 2.82756,-14.36481 7.5,-19.5 0.30589,-0.33718 0.64741,-0.64643 0.96875,-0.96875 0.98058,-0.98057 2.01152,-1.91842 3.125,-2.75 1.11348,-0.83158 2.30095,-1.58351 3.53125,-2.25 1.6404,-0.88866 3.3728,-1.6257 5.1875,-2.1875 2.72205,-0.8427 5.61804,-1.28125 8.625,-1.28125 40.66304,-0.0449 81.79657,0.0569 112.1875,-0.0313 z"
     style="fill:#000000;fill-opacity:1;stroke:none" />
  <path
     inkscape:connector-curvature="0"
     id="path3058"
     d="m -356.73633,-360.18981 c -9.81262,0.23563 -18.55811,10.01136 -18.5625,17.28124 -0.37586,47.47688 0.0229,97.71554 0,142.125 0.39777,50.29739 -0.62293,98.73116 0.125,144.375002 0,10.83928 11.96047,20.4643 25.4375,14.28125 5.3346,-2.39093 12.8505,-5.83805 23.625,-10.8125 l 35.28125,-17.25 0,-0.0625 2.1875,0 0,-31.687502 c -3.29078,-0.005 -6.73737,-0.0343 -9.9375,-0.0312 -7.4386,3.236762 -15.1546,6.617942 -22.5,9.812502 -22.8169,6.11376 -21.375,-9.754232 -21.375,-20.843752 -0.1019,-19.00182 -0.15625,-47.60944 -0.15625,-87.125 0,-38.78032 0.0115,-73.29124 0.0625,-94.53125 0,-10.18922 4.88561,-14.68404 12.71875,-14.84375 2.61105,-0.0532 5.55033,0.3614 8.75,1.21875 7.0076,2.43274 14.1591,4.64941 21.125,7.125 3.83778,0.004 7.44012,-10e-4 11.3125,0 l 0,-31.625 -3.03125,0 -24.03125,-10.5 c -13.1287,-5.91096 -28.42615,-12.82255 -34.15625,-15.40629 -2.2843,-1.10953 -4.61055,-1.55438 -6.875,-1.5 z"
     style="fill:#000000;fill-opacity:1;stroke:none" />
  <path
     inkscape:connector-curvature="0"
     style="fill:#000000;fill-opacity:1;stroke:none"
     d="m -441.58324,-360.2051 c -9.81262,0.23564 -18.55811,10.01137 -18.5625,17.28125 -0.37586,47.47688 0.0229,97.71554 0,142.125 0.39777,50.29739 -0.62293,98.73116 0.125,144.375002 0,10.83928 11.96047,20.4643 25.4375,14.28125 5.3346,-2.39093 12.8505,-5.83805 23.625,-10.8125 l 35.28125,-17.25 0,-0.0625 2.1875,0 0,-31.687502 c -3.29078,-0.005 -6.73737,-0.0343 -9.9375,-0.0312 -7.4386,3.236762 -15.1546,6.617942 -22.5,9.812502 -22.8169,6.11376 -21.375,-9.754232 -21.375,-20.843752 -0.1019,-19.00182 -0.15625,-47.60944 -0.15625,-87.125 0,-38.78032 0.0115,-73.29124 0.0625,-94.53125 0,-10.18922 4.88561,-14.68404 12.71875,-14.84375 2.61105,-0.0532 5.55033,0.3614 8.75,1.21875 7.0076,2.43274 14.1591,4.64941 21.125,7.125 3.83778,0.004 7.44012,-10e-4 11.3125,0 l 0,-31.625 -3.03125,0 -24.03125,-10.5 c -13.1287,-5.91096 -28.42615,-12.82256 -34.15625,-15.4063 -2.2843,-1.10952 -4.61055,-1.55437 -6.875,-1.5 z"
     id="path3060" />
  <path
     sodipodi:type="arc"
     style="fill:#000000;fill-opacity:1;stroke:none"
     id="path3026"
     sodipodi:cx="888"
     sodipodi:cy="-454"
     sodipodi:rx="128"
     sodipodi:ry="128"
     d="m 1016,-454 a 128,128 0 1 1 -256,0 128,128 0 1 1 256,0 z"
     transform="matrix(0.1796875,0,0,0.1796875,638.4375,-152.42188)" />
  <path
     transform="matrix(0.1640625,0,0,0.1640625,652.3125,-159.51563)"
     d="m 1016,-454 a 128,128 0 1 1 -256,0 128,128 0 1 1 256,0 z"
     sodipodi:ry="128"
     sodipodi:rx="128"
     sodipodi:cy="-454"
     sodipodi:cx="888"
     id="path3028"
     style="fill:#f37257;fill-opacity:1;stroke:none"
     sodipodi:type="arc" />
  <rect
     style="opacity:0.2;fill:#000000;fill-opacity:1;stroke:none"
     id="rect5028-2"
     width="500"
     height="500"
     x="5.9999919"
     y="9"
     rx="72.644058"
     ry="72.644058" />
  <rect
     ry="72.644058"
     rx="72.644058"
     y="3"
     x="5.9999919"
     height="500"
     width="500"
     id="rect4979-4"
     style="fill:#f3f3f3;fill-opacity:1;stroke:none" />
  <rect
     style="fill:#cd1d31;fill-opacity:1;stroke:none"
     id="rect4981-8"
     width="434.99997"
     height="434.99997"
     x="38.500008"
     y="38.500011"
     rx="63.200329"
     ry="63.200329" />
  <g
     id="g3034"
     transform="translate(-0.50955,-1.8241519)">
    <path
       style="opacity:0.2;fill:#000000;fill-opacity:1;stroke:none"
       d="m 196.00522,115.91815 0,10.58257 -29.50846,0 c -22.1218,0 -39.90698,17.81591 -39.90698,39.93769 l 0,194.96477 c 0,22.12177 17.78518,39.93769 39.90698,39.93769 l 29.32442,0 0,0.95094 0.0608,0 0.24538,13.55788 c 0,11.34737 12.52943,21.41407 26.6382,14.94118 5.58465,-2.50301 13.43077,-6.11391 24.71033,-11.32154 l 36.93165,-18.06711 0,-0.061 77.08413,0 c 22.12183,0 39.93744,-17.81589 39.93765,-39.93769 l 0,-194.96475 c 0,-22.12179 -17.81582,-39.93771 -39.93765,-39.93771 l -77.94309,0 -25.15274,-10.98134 C 244.65166,109.33181 228.62473,102.11299 222.62603,99.408141 209.87202,93.2133 196.01077,106.55112 196.00512,115.91808 z m 56.74725,36.25685 c 7.33609,2.54678 14.82334,4.86211 22.11576,7.45374 21.42022,0.0211 43.69081,-2e-5 63.12751,0 16.78883,0 30.30609,13.5171 30.30609,30.30603 l 0,147.97204 c 0,16.78888 -13.51726,30.30602 -30.30609,30.30602 -20.28592,0.0864 -41.94325,-0.0796 -61.68585,-0.061 -7.78729,3.38849 -15.85492,6.90753 -23.54464,10.25183 -23.88645,6.40034 -22.40323,-10.19422 -22.40323,-21.80356 -0.10668,-19.89253 -0.15525,-49.83882 -0.15525,-91.20667 0,-40.59815 0.0345,-76.74136 0.0879,-98.97699 0,-14.22246 9.05871,-17.83173 22.45735,-14.24158 z m -62.7286,7.45381 5.79731,0 c 0.28643,0 0.18404,-9.8e-4 0.18404,1.7791 l 0,103.31044 0,103.31041 c 0,0.23511 -0.0502,0.18407 -0.18404,0.18407 l -5.79731,0 c -16.78903,0 -30.30605,-13.51714 -30.30605,-30.30602 l 0,-147.97197 c 0,-16.78895 13.51694,-30.30603 30.30605,-30.30603 z"
       id="path3032"
       inkscape:connector-curvature="0"
       sodipodi:nodetypes="ccssssccccccccssssccccccsscccccsccscccccssss" />
    <path
       sodipodi:nodetypes="ccssssccccccccssssccccccsscccccsccscccccssss"
       inkscape:connector-curvature="0"
       id="rect4915"
       d="m 181.00522,100.91815 0,10.58257 -29.50846,0 c -22.1218,0 -39.90698,17.81591 -39.90698,39.93769 l 0,194.96477 c 0,22.12177 17.78518,39.93769 39.90698,39.93769 l 29.32442,0 0,0.95094 0.0608,0 0.24538,13.55788 c 0,11.34737 12.52943,21.41407 26.6382,14.94118 5.58465,-2.50301 13.43077,-6.11391 24.71033,-11.32154 l 36.93165,-18.06711 0,-0.061 77.08413,0 c 22.12183,0 39.93744,-17.81589 39.93765,-39.93769 l 0,-194.96475 c 0,-22.12179 -17.81582,-39.93771 -39.93765,-39.93771 l -77.94309,0 -25.15274,-10.98134 C 229.65166,94.331814 213.62473,87.112993 207.62603,84.408141 194.87202,78.2133 181.01077,91.551116 181.00512,100.91808 z m 56.74725,36.25685 c 7.33609,2.54678 14.82334,4.86211 22.11576,7.45374 21.42022,0.0211 43.69081,-2e-5 63.12751,0 16.78883,0 30.30609,13.5171 30.30609,30.30603 l 0,147.97204 c 0,16.78888 -13.51726,30.30602 -30.30609,30.30602 -20.28592,0.0864 -41.94325,-0.0796 -61.68585,-0.061 -7.78729,3.38849 -15.85492,6.90753 -23.54464,10.25183 -23.88645,6.40034 -22.40323,-10.19422 -22.40323,-21.80356 -0.10668,-19.89253 -0.15525,-49.83882 -0.15525,-91.20667 0,-40.59815 0.0345,-76.74136 0.0879,-98.97699 0,-14.22246 9.05871,-17.83173 22.45735,-14.24158 z m -62.7286,7.45381 5.79731,0 c 0.28643,0 0.18404,-9.8e-4 0.18404,1.7791 l 0,103.31044 0,103.31041 c 0,0.23511 -0.0502,0.18407 -0.18404,0.18407 l -5.79731,0 c -16.78903,0 -30.30605,-13.51714 -30.30605,-30.30602 l 0,-147.97197 c 0,-16.78895 13.51694,-30.30603 30.30605,-30.30603 z"
       style="fill:#dcdbdb;fill-opacity:1;stroke:none" />
  </g>
  <path
     style="fill:#000000;fill-opacity:1;stroke:none;opacity:0.2"
     d="M 101.6875 38.5 C 66.674518 38.5 38.5 66.674518 38.5 101.6875 L 38.5 116.6875 C 38.5 81.674518 66.674518 53.5 101.6875 53.5 L 410.3125 53.5 C 445.32548 53.5 473.5 81.674518 473.5 116.6875 L 473.5 101.6875 C 473.5 66.674518 445.32548 38.5 410.3125 38.5 L 101.6875 38.5 z "
     id="rect3119" />
  <g
     id="g3045">
    <path
       inkscape:connector-curvature="0"
       id="rect3076"
       d="m 467,11.21875 0,483.5625 c 23.2111,-12.09908 39,-36.3533 39,-64.4375 l 0,-354.6875 c 0,-28.084196 -15.7889,-52.338422 -39,-64.4375 z"
       style="opacity:0.05;fill:url(#linearGradient3091);fill-opacity:1;stroke:none" />
    <path
       inkscape:connector-curvature="0"
       id="rect3060"
       d="M 78.65625,3 C 67.297276,3 56.556884,5.6087684 47,10.21875 l 0,485.5625 C 56.556884,500.39123 67.297276,503 78.65625,503 L 152,503 152,3 78.65625,3 z"
       style="opacity:0.05;fill:url(#linearGradient3093);fill-opacity:1;stroke:none" />
    <path
       inkscape:connector-curvature="0"
       id="rect3064"
       d="m 152,3 0,500 105,0 0,-500 -105,0 z"
       style="opacity:0.05;fill:url(#linearGradient3095);fill-opacity:1;stroke:none" />
    <path
       inkscape:connector-curvature="0"
       id="rect3068"
       d="m 257,3 0,500 105,0 0,-500 -105,0 z"
       style="opacity:0.05;fill:url(#linearGradient3097);fill-opacity:1;stroke:none" />
    <path
       inkscape:connector-curvature="0"
       id="rect3072"
       d="m 362,3 0,500 71.34375,0 c 12.16061,0 23.60572,-2.97978 33.65625,-8.21875 l 0,-483.5625 C 456.94947,5.979782 445.50436,3 433.34375,3 L 362,3 z"
       style="opacity:0.05;fill:url(#linearGradient3099);fill-opacity:1;stroke:none" />
    <path
       inkscape:connector-curvature="0"
       id="rect3099"
       d="M 46.96875,10.21875 C 22.679281,21.94693 6,46.780396 6,75.65625 l 0,354.6875 c 0,28.87585 16.679281,53.70932 40.96875,65.4375 l 0,-485.5625 z"
       style="opacity:0.05;fill:url(#linearGradient3101);fill-opacity:1;stroke:none" />
  </g>
</svg>
