<?xml version="1.0" encoding="UTF-8" standalone="no"?>
<svg
   xmlns:dc="http://purl.org/dc/elements/1.1/"
   xmlns:cc="http://creativecommons.org/ns#"
   xmlns:rdf="http://www.w3.org/1999/02/22-rdf-syntax-ns#"
   xmlns:svg="http://www.w3.org/2000/svg"
   xmlns="http://www.w3.org/2000/svg"
   xmlns:xlink="http://www.w3.org/1999/xlink"
   xmlns:sodipodi="http://sodipodi.sourceforge.net/DTD/sodipodi-0.dtd"
   xmlns:inkscape="http://www.inkscape.org/namespaces/inkscape"
   viewBox="0 0 512 512"
   id="svg2"
   version="1.1"
   inkscape:version="0.48.4 r9939"
   width="100%"
   height="100%"
   sodipodi:docname="base.svg">
  <sodipodi:namedview
     pagecolor="#444444"
     bordercolor="#666666"
     borderopacity="1"
     objecttolerance="10"
     gridtolerance="10"
     guidetolerance="10"
     inkscape:pageopacity="0"
     inkscape:pageshadow="2"
     inkscape:window-width="1310"
     inkscape:window-height="718"
     id="namedview6"
     showgrid="false"
     showguides="true"
     inkscape:guide-bbox="true"
     inkscape:zoom="0.5181105"
     inkscape:cx="29.019228"
     inkscape:cy="161.17848"
     inkscape:window-x="54"
     inkscape:window-y="27"
     inkscape:window-maximized="1"
     inkscape:current-layer="svg2"
     inkscape:snap-midpoints="true"
     inkscape:snap-global="false">
    <sodipodi:guide
       id="guide2989"
       position="522.57628,433.35594"
       orientation="0,1" />
    <sodipodi:guide
       id="guide2995"
       position="473.05444,254.912"
       orientation="1,0" />
  </sodipodi:namedview>
  <metadata
     id="metadata10">
    <rdf:RDF>
      <cc:Work
         rdf:about="">
        <dc:format>image/svg+xml</dc:format>
        <dc:type
           rdf:resource="http://purl.org/dc/dcmitype/StillImage" />
        <dc:title></dc:title>
      </cc:Work>
    </rdf:RDF>
  </metadata>
  <defs
     id="defs8">
    <linearGradient
       id="linearGradient4996">
      <stop
         style="stop-color:#000000;stop-opacity:1;"
         offset="0"
         id="stop4998" />
      <stop
         style="stop-color:#ffffff;stop-opacity:1;"
         offset="1"
         id="stop5000" />
    </linearGradient>
    <linearGradient
       inkscape:collect="always"
       xlink:href="#linearGradient4996"
       id="linearGradient3108"
       gradientUnits="userSpaceOnUse"
       gradientTransform="matrix(1.0380952,0,0,1.4619252,-228.28943,-118.25286)"
       x1="257"
       y1="256"
       x2="362"
       y2="256" />
    <linearGradient
       inkscape:collect="always"
       xlink:href="#linearGradient4996"
       id="linearGradient3137"
       gradientUnits="userSpaceOnUse"
       gradientTransform="matrix(1.0380952,0,0,1.4619252,-119.28943,-118.25286)"
       x1="257"
       y1="256"
       x2="362"
       y2="256" />
    <linearGradient
       inkscape:collect="always"
       xlink:href="#linearGradient4996"
       id="linearGradient3141"
       gradientUnits="userSpaceOnUse"
       gradientTransform="matrix(1.0380952,0,0,1.4619252,-10.28943,-118.25286)"
       x1="257"
       y1="256"
       x2="362"
       y2="256" />
    <linearGradient
       inkscape:collect="always"
       xlink:href="#linearGradient4996"
       id="linearGradient3145"
       gradientUnits="userSpaceOnUse"
       gradientTransform="matrix(1.0283468,0,0,1.4619252,101.21591,-118.25286)"
       x1="257"
       y1="256"
       x2="362"
       y2="256" />
    <linearGradient
       inkscape:collect="always"
       xlink:href="#linearGradient4996"
       id="linearGradient3149"
       gradientUnits="userSpaceOnUse"
       gradientTransform="matrix(1.0283468,0,0,1.4619252,209.19233,-118.25286)"
       x1="257"
       y1="256"
       x2="362"
       y2="256" />
    <linearGradient
       inkscape:collect="always"
       xlink:href="#linearGradient4996"
       id="linearGradient3153"
       gradientUnits="userSpaceOnUse"
       gradientTransform="matrix(1.0380952,0,0,1.4619252,-337.28943,-118.25286)"
       x1="257"
       y1="256"
       x2="362"
       y2="256" />
  </defs>
  <rect
     style="opacity:0.2;fill:#000000;fill-opacity:1;stroke:none"
     id="rect5028"
     width="500"
     height="500"
     x="6"
     y="12"
     rx="72.644058"
     ry="72.644058" />
  <rect
     ry="72.644058"
     rx="72.644058"
     y="6"
     x="6"
     height="500"
     width="500"
     id="rect4979"
     style="fill:#f3f3f3;fill-opacity:1;stroke:none" />
  <rect
     style="fill:#4f52b5;fill-opacity:1;stroke:none"
     id="rect4981"
     width="434.99997"
     height="434.99997"
     x="38.500011"
     y="38.500011"
     rx="63.200329"
     ry="63.200329" />
  <path
     style="fill:#000000;fill-opacity:1;stroke:none;opacity:0.2"
     d="M 101.6875 38.5 C 66.674518 38.5 38.5 66.674518 38.5 101.6875 L 38.5 116.6875 C 38.5 81.674518 66.674518 53.5 101.6875 53.5 L 410.3125 53.5 C 445.32548 53.5 473.5 81.674518 473.5 116.6875 L 473.5 101.6875 C 473.5 66.674518 445.32548 38.5 410.3125 38.5 L 101.6875 38.5 z "
     id="rect3187" />
  <g
     id="g3078"
     transform="matrix(1.0807878,0,0,1.0807878,435.96884,23.217018)">
    <g
       id="g3064"
       transform="matrix(11.167039,0,0,11.167039,-13737.114,-12849.895)"
       style="opacity:0.2;fill:#000000;fill-opacity:1">
      <ellipse
         d="m 1230.4331,1166.252 c 0,2.6266 -2.1374,4.756 -4.774,4.756 -2.6366,0 -4.774,-2.1294 -4.774,-4.756 0,-2.6267 2.1374,-4.756 4.774,-4.756 2.6366,0 4.774,2.1293 4.774,4.756 z"
         style="fill:#000000;fill-opacity:1"
         sodipodi:ry="4.756"
         sodipodi:rx="4.7740002"
         sodipodi:cy="1166.252"
         sodipodi:cx="1225.6591"
         id="ellipse3066"
         ry="4.756"
         rx="4.7740002"
         cy="1166.252"
         cx="1225.6591" />
      <ellipse
         d="m 1219.205,1167.608 c 0,2.3638 -1.9247,4.28 -4.299,4.28 -2.3743,0 -4.299,-1.9162 -4.299,-4.28 0,-2.3637 1.9247,-4.28 4.299,-4.28 2.3743,0 4.299,1.9163 4.299,4.28 z"
         style="fill:#000000;fill-opacity:1"
         sodipodi:ry="4.2800002"
         sodipodi:rx="4.2989998"
         sodipodi:cy="1167.608"
         sodipodi:cx="1214.906"
         id="ellipse3068"
         ry="4.2800002"
         rx="4.2989998"
         cy="1167.608"
         cx="1214.906" />
      <ellipse
         d="m 1209.023,1168.829 c 0,2.1268 -1.7313,3.851 -3.867,3.851 -2.1357,0 -3.867,-1.7242 -3.867,-3.851 0,-2.1269 1.7313,-3.851 3.867,-3.851 2.1357,0 3.867,1.7241 3.867,3.851 z"
         style="fill:#000000;fill-opacity:1"
         sodipodi:ry="3.8510001"
         sodipodi:rx="3.8670001"
         sodipodi:cy="1168.829"
         sodipodi:cx="1205.156"
         id="ellipse3070"
         ry="3.8510001"
         rx="3.8670001"
         cy="1168.829"
         cx="1205.156" />
      <path
         style="fill:#000000;fill-opacity:1"
         inkscape:connector-curvature="0"
         id="path3072"
         d="m 1209.018,1179.818 c 0.215,0 0.389,-0.174 0.389,-0.385 v -1.498 c 0,-2.223 -1.799,-4.375 -4.25,-4.375 -2.451,0 -4.248,2.152 -4.248,4.375 v 1.498 c 0,0.211 0.172,0.385 0.385,0.385 h 0.139 7.451 0.134 z" />
      <path
         style="fill:#000000;fill-opacity:1"
         inkscape:connector-curvature="0"
         id="path3074"
         d="m 1219.199,1179.818 c 0.236,0 0.43,-0.193 0.43,-0.43 v -1.662 c 0,-2.471 -1.996,-4.861 -4.723,-4.861 -2.723,0 -4.721,2.391 -4.721,4.861 v 1.662 c 0,0.236 0.191,0.43 0.43,0.43 h 0.152 8.281 0.151 z" />
      <path
         style="fill:#000000;fill-opacity:1"
         inkscape:connector-curvature="0"
         id="path3076"
         d="m 1225.66,1172.092 c -3.027,0 -5.246,2.656 -5.246,5.402 v 1.848 c 0,0.262 0.213,0.477 0.477,0.477 h 0.168 9.201 0.168 c 0.264,0 0.48,-0.215 0.48,-0.477 v -1.848 c 0,-2.746 -2.22,-5.402 -5.248,-5.402 z" />
    </g>
    <g
       style="fill:#dcdbdb;fill-opacity:1"
       transform="matrix(11.167039,0,0,11.167039,-13752.114,-12864.895)"
       id="g2394">
      <ellipse
         cx="1225.6591"
         cy="1166.252"
         rx="4.7740002"
         ry="4.756"
         id="ellipse2396"
         sodipodi:cx="1225.6591"
         sodipodi:cy="1166.252"
         sodipodi:rx="4.7740002"
         sodipodi:ry="4.756"
         style="fill:#dcdbdb;fill-opacity:1"
         d="m 1230.4331,1166.252 c 0,2.6266 -2.1374,4.756 -4.774,4.756 -2.6366,0 -4.774,-2.1294 -4.774,-4.756 0,-2.6267 2.1374,-4.756 4.774,-4.756 2.6366,0 4.774,2.1293 4.774,4.756 z" />
      <ellipse
         cx="1214.906"
         cy="1167.608"
         rx="4.2989998"
         ry="4.2800002"
         id="ellipse2398"
         sodipodi:cx="1214.906"
         sodipodi:cy="1167.608"
         sodipodi:rx="4.2989998"
         sodipodi:ry="4.2800002"
         style="fill:#dcdbdb;fill-opacity:1"
         d="m 1219.205,1167.608 c 0,2.3638 -1.9247,4.28 -4.299,4.28 -2.3743,0 -4.299,-1.9162 -4.299,-4.28 0,-2.3637 1.9247,-4.28 4.299,-4.28 2.3743,0 4.299,1.9163 4.299,4.28 z" />
      <ellipse
         cx="1205.156"
         cy="1168.829"
         rx="3.8670001"
         ry="3.8510001"
         id="ellipse2400"
         sodipodi:cx="1205.156"
         sodipodi:cy="1168.829"
         sodipodi:rx="3.8670001"
         sodipodi:ry="3.8510001"
         style="fill:#dcdbdb;fill-opacity:1"
         d="m 1209.023,1168.829 c 0,2.1268 -1.7313,3.851 -3.867,3.851 -2.1357,0 -3.867,-1.7242 -3.867,-3.851 0,-2.1269 1.7313,-3.851 3.867,-3.851 2.1357,0 3.867,1.7241 3.867,3.851 z" />
      <path
         d="m 1209.018,1179.818 c 0.215,0 0.389,-0.174 0.389,-0.385 v -1.498 c 0,-2.223 -1.799,-4.375 -4.25,-4.375 -2.451,0 -4.248,2.152 -4.248,4.375 v 1.498 c 0,0.211 0.172,0.385 0.385,0.385 h 0.139 7.451 0.134 z"
         id="path2402"
         inkscape:connector-curvature="0"
         style="fill:#dcdbdb;fill-opacity:1" />
      <path
         d="m 1219.199,1179.818 c 0.236,0 0.43,-0.193 0.43,-0.43 v -1.662 c 0,-2.471 -1.996,-4.861 -4.723,-4.861 -2.723,0 -4.721,2.391 -4.721,4.861 v 1.662 c 0,0.236 0.191,0.43 0.43,0.43 h 0.152 8.281 0.151 z"
         id="path2404"
         inkscape:connector-curvature="0"
         style="fill:#dcdbdb;fill-opacity:1" />
      <path
         d="m 1225.66,1172.092 c -3.027,0 -5.246,2.656 -5.246,5.402 v 1.848 c 0,0.262 0.213,0.477 0.477,0.477 h 0.168 9.201 0.168 c 0.264,0 0.48,-0.215 0.48,-0.477 v -1.848 c 0,-2.746 -2.22,-5.402 -5.248,-5.402 z"
         id="path2406"
         inkscape:connector-curvature="0"
         style="fill:#dcdbdb;fill-opacity:1" />
    </g>
  </g>
  <g
     id="g3167">
    <path
       id="rect3068"
       d="M 78.65625 6 C 63.792798 6 49.986224 10.429561 38.5 18.03125 L 38.5 493.96875 C 49.986224 501.57044 63.792798 506 78.65625 506 L 147.5 506 L 147.5 6 L 78.65625 6 z "
       style="opacity:0.05000000000000000;fill:url(#linearGradient3108);fill-opacity:1;stroke:none" />
    <path
       inkscape:connector-curvature="0"
       style="opacity:0.05;fill:url(#linearGradient3137);fill-opacity:1;stroke:none"
       d="m 147.50001,6 0,500 109,0 0,-500 -109,0 z"
       id="path3135" />
    <path
       id="path3139"
       d="m 256.50001,6 0,500 109,0 0,-500 -109,0 z"
       style="opacity:0.05;fill:url(#linearGradient3141);fill-opacity:1;stroke:none"
       inkscape:connector-curvature="0" />
    <path
       id="path3143"
       d="M 365.5 6 L 365.5 506 L 433.34375 506 C 448.1977 506 461.98692 501.56151 473.46875 493.96875 L 473.46875 18.03125 C 461.98692 10.438491 448.1977 6 433.34375 6 L 365.5 6 z "
       style="opacity:0.05000000000000000;fill:url(#linearGradient3145);fill-opacity:1;stroke:none" />
    <path
       id="path3151"
       d="M 38.5 18.03125 C 18.885717 31.012164 6 53.274894 6 78.65625 L 6 433.34375 C 6 458.72511 18.885717 480.98784 38.5 493.96875 L 38.5 18.03125 z "
       style="opacity:0.05000000000000000;fill:url(#linearGradient3153);fill-opacity:1;stroke:none" />
    <path
       id="path3147"
       d="M 473.46875 18.03125 L 473.46875 493.96875 C 493.09542 480.98993 506 458.73461 506 433.34375 L 506 78.65625 C 506 53.265388 493.09542 31.010071 473.46875 18.03125 z "
       style="opacity:0.05000000000000000;fill:url(#linearGradient3149);fill-opacity:1;stroke:none" />
  </g>
</svg>
