<?xml version="1.0" encoding="UTF-8" standalone="no"?>
<svg
   xmlns:dc="http://purl.org/dc/elements/1.1/"
   xmlns:cc="http://creativecommons.org/ns#"
   xmlns:rdf="http://www.w3.org/1999/02/22-rdf-syntax-ns#"
   xmlns:svg="http://www.w3.org/2000/svg"
   xmlns="http://www.w3.org/2000/svg"
   xmlns:xlink="http://www.w3.org/1999/xlink"
   xmlns:sodipodi="http://sodipodi.sourceforge.net/DTD/sodipodi-0.dtd"
   xmlns:inkscape="http://www.inkscape.org/namespaces/inkscape"
   viewBox="0 0 512 512"
   id="svg2"
   version="1.1"
   inkscape:version="0.48.4 r9939"
   width="100%"
   height="100%"
   sodipodi:docname="netflix_B.svg">
  <sodipodi:namedview
     pagecolor="#444444"
     bordercolor="#666666"
     borderopacity="1"
     objecttolerance="10"
     gridtolerance="10"
     guidetolerance="10"
     inkscape:pageopacity="0"
     inkscape:pageshadow="2"
     inkscape:window-width="1310"
     inkscape:window-height="718"
     id="namedview6"
     showgrid="false"
     showguides="true"
     inkscape:guide-bbox="true"
     inkscape:zoom="0.73271889"
     inkscape:cx="169.47099"
     inkscape:cy="178.32164"
     inkscape:window-x="54"
     inkscape:window-y="27"
     inkscape:window-maximized="1"
     inkscape:current-layer="svg2"
     inkscape:snap-midpoints="true"
     inkscape:snap-global="false">
    <sodipodi:guide
       id="guide2989"
       position="522.57628,433.35594"
       orientation="0,1" />
    <sodipodi:guide
       id="guide2995"
       position="472.21384,526.80503"
       orientation="1,0" />
  </sodipodi:namedview>
  <metadata
     id="metadata10">
    <rdf:RDF>
      <cc:Work
         rdf:about="">
        <dc:format>image/svg+xml</dc:format>
        <dc:type
           rdf:resource="http://purl.org/dc/dcmitype/StillImage" />
        <dc:title />
      </cc:Work>
    </rdf:RDF>
  </metadata>
  <defs
     id="defs8">
    <linearGradient
       id="linearGradient4996">
      <stop
         style="stop-color:#000000;stop-opacity:1;"
         offset="0"
         id="stop4998" />
      <stop
         style="stop-color:#ffffff;stop-opacity:1;"
         offset="1"
         id="stop5000" />
    </linearGradient>
    <linearGradient
       inkscape:collect="always"
       xlink:href="#linearGradient4996"
       id="linearGradient3108"
       gradientUnits="userSpaceOnUse"
       gradientTransform="matrix(1.0380952,0,0,1.4619252,-228.28943,-118.25286)"
       x1="257"
       y1="256"
       x2="362"
       y2="256" />
    <linearGradient
       inkscape:collect="always"
       xlink:href="#linearGradient4996"
       id="linearGradient3137"
       gradientUnits="userSpaceOnUse"
       gradientTransform="matrix(1.0380952,0,0,1.4619252,-119.28943,-118.25286)"
       x1="257"
       y1="256"
       x2="362"
       y2="256" />
    <linearGradient
       inkscape:collect="always"
       xlink:href="#linearGradient4996"
       id="linearGradient3141"
       gradientUnits="userSpaceOnUse"
       gradientTransform="matrix(1.0380952,0,0,1.4619252,-10.28943,-118.25286)"
       x1="257"
       y1="256"
       x2="362"
       y2="256" />
    <linearGradient
       inkscape:collect="always"
       xlink:href="#linearGradient4996"
       id="linearGradient3145"
       gradientUnits="userSpaceOnUse"
       gradientTransform="matrix(1.0283468,0,0,1.4619252,101.21591,-118.25286)"
       x1="257"
       y1="256"
       x2="362"
       y2="256" />
    <linearGradient
       inkscape:collect="always"
       xlink:href="#linearGradient4996"
       id="linearGradient3149"
       gradientUnits="userSpaceOnUse"
       gradientTransform="matrix(1.0283468,0,0,1.4619252,209.19233,-118.25286)"
       x1="257"
       y1="256"
       x2="362"
       y2="256" />
    <linearGradient
       inkscape:collect="always"
       xlink:href="#linearGradient4996"
       id="linearGradient3153"
       gradientUnits="userSpaceOnUse"
       gradientTransform="matrix(1.0380952,0,0,1.4619252,-337.28943,-118.25286)"
       x1="257"
       y1="256"
       x2="362"
       y2="256" />
  </defs>
  <rect
     style="opacity:0.2;fill:#000000;fill-opacity:1;stroke:none"
     id="rect5028"
     width="500"
     height="500"
     x="6"
     y="12"
     rx="72.644058"
     ry="72.644058" />
  <rect
     ry="72.644058"
     rx="72.644058"
     y="6"
     x="6"
     height="500"
     width="500"
     id="rect4979"
     style="fill:#f3f3f3;fill-opacity:1;stroke:none" />
  <rect
     style="fill:#ee3424;fill-opacity:1;stroke:none"
     id="rect4981"
     width="434.99997"
     height="434.99997"
     x="38.500011"
     y="38.500011"
     rx="63.200329"
     ry="63.200329" />
  <path
     style="fill:#000000;fill-opacity:1;stroke:none;opacity:0.2"
     d="M 101.6875 38.5 C 66.674518 38.5 38.5 66.674518 38.5 101.6875 L 38.5 116.6875 C 38.5 81.674518 66.674518 53.5 101.6875 53.5 L 410.3125 53.5 C 445.32548 53.5 473.5 81.674518 473.5 116.6875 L 473.5 101.6875 C 473.5 66.674518 445.32548 38.5 410.3125 38.5 L 101.6875 38.5 z "
     id="rect3187" />
  <g
     id="g3229"
     transform="translate(38.205032,-9.727129)">
    <g
       style="opacity:0.2;fill:#000000"
       id="g3223"
       transform="translate(-24.578617,31.377359)">
      <path
         style="fill:#000000"
         id="path3225"
         d="m 252.78766,74.34977 v 5.79512 c 0,0 -0.022,10.22389 -0.022,19.11073 -8.90149,-9.84659 -22.43688,-24.90585 -22.43688,-24.90585 h -61.80124 l 0.0293,306.88155 35.60229,28.11845 37.11883,-4.65222 c 0,0 0.15752,-16.20584 0.26375,-27.20266 12.19101,10.02975 28.88405,23.72631 28.88405,23.72631 l 60.79387,-6.19441 V 105.93723 L 298.22917,74.4157 252.78763,74.3498 z"
         inkscape:connector-curvature="0" />
      <path
         id="path3227"
         d="m 262.91264,315.06725 -2.0587,0.24177 -35.51437,-232.70981 -47.28412,-0.0513 0.022,292.10068 c 0,0 9.38502,-1.3517 29.36392,-3.6192 l -2.0587,-222.02803 2.04771,-0.19414 33.78536,218.74583 c 0,0 11.54629,-1.35904 50.81175,-5.24566 V 82.56991 H 261.865 l 1.04766,232.49734 z"
         inkscape:connector-curvature="0"
         style="fill:#000000;fill-opacity:1" />
    </g>
    <g
       transform="translate(-39.578617,16.377359)"
       id="g3219">
      <path
         inkscape:connector-curvature="0"
         d="m 252.78766,74.34977 v 5.79512 c 0,0 -0.022,10.22389 -0.022,19.11073 -8.90149,-9.84659 -22.43688,-24.90585 -22.43688,-24.90585 h -61.80124 l 0.0293,306.88155 35.60229,28.11845 37.11883,-4.65222 c 0,0 0.15752,-16.20584 0.26375,-27.20266 12.19101,10.02975 28.88405,23.72631 28.88405,23.72631 l 60.79387,-6.19441 V 105.93723 L 298.22917,74.4157 252.78763,74.3498 z"
         id="path3039" />
      <path
         style="fill:#dcdbdb;fill-opacity:1"
         inkscape:connector-curvature="0"
         d="m 262.91264,315.06725 -2.0587,0.24177 -35.51437,-232.70981 -47.28412,-0.0513 0.022,292.10068 c 0,0 9.38502,-1.3517 29.36392,-3.6192 l -2.0587,-222.02803 2.04771,-0.19414 33.78536,218.74583 c 0,0 11.54629,-1.35904 50.81175,-5.24566 V 82.56991 H 261.865 l 1.04766,232.49734 z"
         id="path3057" />
    </g>
  </g>
  <g
     id="g3167">
    <path
       id="rect3068"
       d="M 78.65625 6 C 63.792798 6 49.986224 10.429561 38.5 18.03125 L 38.5 493.96875 C 49.986224 501.57044 63.792798 506 78.65625 506 L 147.5 506 L 147.5 6 L 78.65625 6 z "
       style="opacity:0.05000000000000000;fill:url(#linearGradient3108);fill-opacity:1;stroke:none" />
    <path
       inkscape:connector-curvature="0"
       style="opacity:0.05;fill:url(#linearGradient3137);fill-opacity:1;stroke:none"
       d="m 147.50001,6 0,500 109,0 0,-500 -109,0 z"
       id="path3135" />
    <path
       id="path3139"
       d="m 256.50001,6 0,500 109,0 0,-500 -109,0 z"
       style="opacity:0.05;fill:url(#linearGradient3141);fill-opacity:1;stroke:none"
       inkscape:connector-curvature="0" />
    <path
       id="path3143"
       d="M 365.5 6 L 365.5 506 L 433.34375 506 C 448.1977 506 461.98692 501.56151 473.46875 493.96875 L 473.46875 18.03125 C 461.98692 10.438491 448.1977 6 433.34375 6 L 365.5 6 z "
       style="opacity:0.05000000000000000;fill:url(#linearGradient3145);fill-opacity:1;stroke:none" />
    <path
       id="path3151"
       d="M 38.5 18.03125 C 18.885717 31.012164 6 53.274894 6 78.65625 L 6 433.34375 C 6 458.72511 18.885717 480.98784 38.5 493.96875 L 38.5 18.03125 z "
       style="opacity:0.05000000000000000;fill:url(#linearGradient3153);fill-opacity:1;stroke:none" />
    <path
       id="path3147"
       d="M 473.46875 18.03125 L 473.46875 493.96875 C 493.09542 480.98993 506 458.73461 506 433.34375 L 506 78.65625 C 506 53.265388 493.09542 31.010071 473.46875 18.03125 z "
       style="opacity:0.05000000000000000;fill:url(#linearGradient3149);fill-opacity:1;stroke:none" />
  </g>
</svg>
