<?xml version="1.0" encoding="UTF-8" standalone="no"?>
<svg
   xmlns:dc="http://purl.org/dc/elements/1.1/"
   xmlns:cc="http://creativecommons.org/ns#"
   xmlns:rdf="http://www.w3.org/1999/02/22-rdf-syntax-ns#"
   xmlns:svg="http://www.w3.org/2000/svg"
   xmlns="http://www.w3.org/2000/svg"
   xmlns:xlink="http://www.w3.org/1999/xlink"
   xmlns:sodipodi="http://sodipodi.sourceforge.net/DTD/sodipodi-0.dtd"
   xmlns:inkscape="http://www.inkscape.org/namespaces/inkscape"
   viewBox="0 0 512 512"
   id="svg2"
   version="1.1"
   inkscape:version="0.48.4 r9939"
   width="100%"
   height="100%"
   sodipodi:docname="netflix_C.svg">
  <sodipodi:namedview
     pagecolor="#444444"
     bordercolor="#666666"
     borderopacity="1"
     objecttolerance="10"
     gridtolerance="10"
     guidetolerance="10"
     inkscape:pageopacity="0"
     inkscape:pageshadow="2"
     inkscape:window-width="1310"
     inkscape:window-height="718"
     id="namedview6"
     showgrid="false"
     showguides="true"
     inkscape:guide-bbox="true"
     inkscape:zoom="0.36635945"
     inkscape:cx="706.62834"
     inkscape:cy="55.353636"
     inkscape:window-x="54"
     inkscape:window-y="27"
     inkscape:window-maximized="1"
     inkscape:current-layer="svg2"
     inkscape:snap-midpoints="true"
     inkscape:snap-global="false">
    <sodipodi:guide
       id="guide2989"
       position="522.57628,433.35594"
       orientation="0,1" />
    <sodipodi:guide
       id="guide2995"
       position="473.05444,254.912"
       orientation="1,0" />
  </sodipodi:namedview>
  <metadata
     id="metadata10">
    <rdf:RDF>
      <cc:Work
         rdf:about="">
        <dc:format>image/svg+xml</dc:format>
        <dc:type
           rdf:resource="http://purl.org/dc/dcmitype/StillImage" />
        <dc:title />
      </cc:Work>
    </rdf:RDF>
  </metadata>
  <defs
     id="defs8">
    <linearGradient
       id="linearGradient4996">
      <stop
         style="stop-color:#000000;stop-opacity:1;"
         offset="0"
         id="stop4998" />
      <stop
         style="stop-color:#ffffff;stop-opacity:1;"
         offset="1"
         id="stop5000" />
    </linearGradient>
    <linearGradient
       inkscape:collect="always"
       xlink:href="#linearGradient4996"
       id="linearGradient3108"
       gradientUnits="userSpaceOnUse"
       gradientTransform="matrix(1.0380952,0,0,1.4619252,-228.28943,-118.25286)"
       x1="257"
       y1="256"
       x2="362"
       y2="256" />
    <linearGradient
       inkscape:collect="always"
       xlink:href="#linearGradient4996"
       id="linearGradient3137"
       gradientUnits="userSpaceOnUse"
       gradientTransform="matrix(1.0380952,0,0,1.4619252,-119.28943,-118.25286)"
       x1="257"
       y1="256"
       x2="362"
       y2="256" />
    <linearGradient
       inkscape:collect="always"
       xlink:href="#linearGradient4996"
       id="linearGradient3141"
       gradientUnits="userSpaceOnUse"
       gradientTransform="matrix(1.0380952,0,0,1.4619252,-10.28943,-118.25286)"
       x1="257"
       y1="256"
       x2="362"
       y2="256" />
    <linearGradient
       inkscape:collect="always"
       xlink:href="#linearGradient4996"
       id="linearGradient3145"
       gradientUnits="userSpaceOnUse"
       gradientTransform="matrix(1.0283468,0,0,1.4619252,101.21591,-118.25286)"
       x1="257"
       y1="256"
       x2="362"
       y2="256" />
    <linearGradient
       inkscape:collect="always"
       xlink:href="#linearGradient4996"
       id="linearGradient3149"
       gradientUnits="userSpaceOnUse"
       gradientTransform="matrix(1.0283468,0,0,1.4619252,209.19233,-118.25286)"
       x1="257"
       y1="256"
       x2="362"
       y2="256" />
    <linearGradient
       inkscape:collect="always"
       xlink:href="#linearGradient4996"
       id="linearGradient3153"
       gradientUnits="userSpaceOnUse"
       gradientTransform="matrix(1.0380952,0,0,1.4619252,-337.28943,-118.25286)"
       x1="257"
       y1="256"
       x2="362"
       y2="256" />
    <linearGradient
       y2="256"
       x2="362"
       y1="256"
       x1="257"
       gradientTransform="matrix(1.0380952,0,0,1.4619252,-337.28943,-118.25286)"
       gradientUnits="userSpaceOnUse"
       id="linearGradient3153-4"
       xlink:href="#linearGradient4996-9"
       inkscape:collect="always" />
    <linearGradient
       y2="256"
       x2="362"
       y1="256"
       x1="257"
       gradientTransform="matrix(1.0283468,0,0,1.4619252,209.19233,-118.25286)"
       gradientUnits="userSpaceOnUse"
       id="linearGradient3149-1"
       xlink:href="#linearGradient4996-9"
       inkscape:collect="always" />
    <linearGradient
       y2="256"
       x2="362"
       y1="256"
       x1="257"
       gradientTransform="matrix(1.0283468,0,0,1.4619252,101.21591,-118.25286)"
       gradientUnits="userSpaceOnUse"
       id="linearGradient3145-2"
       xlink:href="#linearGradient4996-9"
       inkscape:collect="always" />
    <linearGradient
       y2="256"
       x2="362"
       y1="256"
       x1="257"
       gradientTransform="matrix(1.0380952,0,0,1.4619252,-10.28943,-118.25286)"
       gradientUnits="userSpaceOnUse"
       id="linearGradient3141-2"
       xlink:href="#linearGradient4996-9"
       inkscape:collect="always" />
    <linearGradient
       y2="256"
       x2="362"
       y1="256"
       x1="257"
       gradientTransform="matrix(1.0380952,0,0,1.4619252,-119.28943,-118.25286)"
       gradientUnits="userSpaceOnUse"
       id="linearGradient3137-0"
       xlink:href="#linearGradient4996-9"
       inkscape:collect="always" />
    <linearGradient
       y2="256"
       x2="362"
       y1="256"
       x1="257"
       gradientTransform="matrix(1.0380952,0,0,1.4619252,-228.28943,-118.25286)"
       gradientUnits="userSpaceOnUse"
       id="linearGradient3108-0"
       xlink:href="#linearGradient4996-9"
       inkscape:collect="always" />
    <linearGradient
       id="linearGradient4996-9">
      <stop
         id="stop4998-4"
         offset="0"
         style="stop-color:#000000;stop-opacity:1;" />
      <stop
         id="stop5000-8"
         offset="1"
         style="stop-color:#ffffff;stop-opacity:1;" />
    </linearGradient>
  </defs>
  <rect
     style="opacity:0.2;fill:#000000;fill-opacity:1;stroke:none"
     id="rect5028"
     width="500"
     height="500"
     x="6"
     y="12"
     rx="72.644058"
     ry="72.644058" />
  <rect
     ry="72.644058"
     rx="72.644058"
     y="6"
     x="6"
     height="500"
     width="500"
     id="rect4979"
     style="fill:#f3f3f3;fill-opacity:1;stroke:none" />
  <rect
     style="fill:#ee3424;fill-opacity:1;stroke:none"
     id="rect4981"
     width="434.99997"
     height="434.99997"
     x="38.500011"
     y="38.500011"
     rx="63.200329"
     ry="63.200329" />
  <path
     style="fill:#000000;fill-opacity:1;stroke:none;opacity:0.2"
     d="M 101.6875 38.5 C 66.674518 38.5 38.5 66.674518 38.5 101.6875 L 38.5 116.6875 C 38.5 81.674518 66.674518 53.5 101.6875 53.5 L 410.3125 53.5 C 445.32548 53.5 473.5 81.674518 473.5 116.6875 L 473.5 101.6875 C 473.5 66.674518 445.32548 38.5 410.3125 38.5 L 101.6875 38.5 z "
     id="rect3187" />
  <path
     inkscape:connector-curvature="0"
     id="path3265"
     d="m 82.489418,214.09478 0.03869,98.8105 c 0,0 3.154501,-0.47206 9.912023,-1.23899 l -0.69694,-75.07584 0.69694,-0.0775 11.422068,73.99171 c 0,0 3.91029,-0.4665 17.19116,-1.78107 l 0,-94.59015 -10.22178,0 0.38719,78.63799 -0.69694,0.0774 -12.041557,-78.71541 -15.990885,-0.0387 z m 94.241672,0 -22.80541,0.0387 0,91.91854 c 0,0 5.85926,-0.3847 22.76669,-1.47131 l 0,-9.06021 -12.77722,0.89053 0,-31.63329 12.77722,-0.0387 0,-9.17636 -12.81594,0 0,-32.33023 12.85465,0 0,-9.13765 z m 109.07099,0 -22.80541,0.0387 0,87.65948 9.98947,0 0,-37.01522 12.77722,-0.0387 0,-9.17636 -12.81594,0 0,-32.33023 12.85466,0 0,-9.13765 z m 31.32353,0 0,88.43385 c 0,0 6.73275,0.16697 22.92156,0.89054 l 0,-8.94405 c 0,0 -1.82754,-0.1905 -13.00953,-0.58079 l 0,-79.79954 -9.91203,0 z m 60.595,0 -9.87331,0.0387 0,90.83441 c 0,0 3.64732,0.16479 9.87331,0.61951 l 0,-91.49264 z m 32.71741,0 8.55687,43.67487 -8.24712,51.03143 10.60898,1.00669 5.45935,-42.08738 0.65822,0.0387 5.30448,43.24895 11.61565,1.27772 -8.28582,-53.27714 8.40198,-44.91386 -11.11231,0 -5.57551,35.31159 -0.65822,0 -5.80782,-35.31159 -10.91873,0 z m -208.65585,0.0387 0,9.09894 10.72512,0 0,79.60594 c 0,0 2.30269,-0.17873 9.83459,-0.34847 l 0.0775,-79.21875 10.87999,0 0,-9.13766 -31.51714,0 z"
     style="opacity:0.2;fill:#000000" />
  <path
     style="fill:#dcdbdb;fill-opacity:1"
     d="m 67.489418,199.09478 0.03869,98.8105 c 0,0 3.154501,-0.47206 9.912023,-1.23899 l -0.69694,-75.07584 0.69694,-0.0775 11.422068,73.99171 c 0,0 3.910292,-0.4665 17.19116,-1.78107 l 0,-94.59015 -10.221777,0 0.38719,78.63799 -0.69694,0.0774 -12.04156,-78.71541 -15.990885,-0.0387 z m 94.241672,0 -22.80541,0.0387 0,91.91854 c 0,0 5.85926,-0.3847 22.76669,-1.47131 l 0,-9.06021 -12.77722,0.89053 0,-31.63329 12.77722,-0.0387 0,-9.17636 -12.81594,0 0,-32.33023 12.85465,0 0,-9.13765 z m 109.07099,0 -22.80541,0.0387 0,87.65948 9.98947,0 0,-37.01522 12.77722,-0.0387 0,-9.17636 -12.81594,0 0,-32.33023 12.85466,0 0,-9.13765 z m 31.32353,0 0,88.43385 c 0,0 6.73275,0.16697 22.92156,0.89054 l 0,-8.94405 c 0,0 -1.82754,-0.1905 -13.00953,-0.58079 l 0,-79.79954 -9.91203,0 z m 60.595,0 -9.87331,0.0387 0,90.83441 c 0,0 3.64732,0.16479 9.87331,0.61951 l 0,-91.49264 z m 32.71741,0 8.55687,43.67487 -8.24712,51.03143 10.60898,1.00669 5.45935,-42.08738 0.65822,0.0387 5.30448,43.24895 11.61565,1.27772 -8.28582,-53.27714 8.40198,-44.91386 -11.11231,0 -5.57551,35.31159 -0.65822,0 -5.80782,-35.31159 -10.91873,0 z m -208.65585,0.0387 0,9.09894 10.72512,0 0,79.60594 c 0,0 2.30269,-0.17873 9.83459,-0.34847 l 0.0775,-79.21875 10.87999,0 0,-9.13766 -31.51714,0 z"
     id="path3053"
     inkscape:connector-curvature="0" />
  <g
     id="g3167">
    <path
       id="rect3068"
       d="M 78.65625 6 C 63.792798 6 49.986224 10.429561 38.5 18.03125 L 38.5 493.96875 C 49.986224 501.57044 63.792798 506 78.65625 506 L 147.5 506 L 147.5 6 L 78.65625 6 z "
       style="opacity:0.05000000000000000;fill:url(#linearGradient3108);fill-opacity:1;stroke:none" />
    <path
       inkscape:connector-curvature="0"
       style="opacity:0.05;fill:url(#linearGradient3137);fill-opacity:1;stroke:none"
       d="m 147.50001,6 0,500 109,0 0,-500 -109,0 z"
       id="path3135" />
    <path
       id="path3139"
       d="m 256.50001,6 0,500 109,0 0,-500 -109,0 z"
       style="opacity:0.05;fill:url(#linearGradient3141);fill-opacity:1;stroke:none"
       inkscape:connector-curvature="0" />
    <path
       id="path3143"
       d="M 365.5 6 L 365.5 506 L 433.34375 506 C 448.1977 506 461.98692 501.56151 473.46875 493.96875 L 473.46875 18.03125 C 461.98692 10.438491 448.1977 6 433.34375 6 L 365.5 6 z "
       style="opacity:0.05000000000000000;fill:url(#linearGradient3145);fill-opacity:1;stroke:none" />
    <path
       id="path3151"
       d="M 38.5 18.03125 C 18.885717 31.012164 6 53.274894 6 78.65625 L 6 433.34375 C 6 458.72511 18.885717 480.98784 38.5 493.96875 L 38.5 18.03125 z "
       style="opacity:0.05000000000000000;fill:url(#linearGradient3153);fill-opacity:1;stroke:none" />
    <path
       id="path3147"
       d="M 473.46875 18.03125 L 473.46875 493.96875 C 493.09542 480.98993 506 458.73461 506 433.34375 L 506 78.65625 C 506 53.265388 493.09542 31.010071 473.46875 18.03125 z "
       style="opacity:0.05000000000000000;fill:url(#linearGradient3149);fill-opacity:1;stroke:none" />
  </g>
</svg>
