<?xml version="1.0" encoding="UTF-8" standalone="no"?>
<svg
   xmlns:dc="http://purl.org/dc/elements/1.1/"
   xmlns:cc="http://creativecommons.org/ns#"
   xmlns:rdf="http://www.w3.org/1999/02/22-rdf-syntax-ns#"
   xmlns:svg="http://www.w3.org/2000/svg"
   xmlns="http://www.w3.org/2000/svg"
   xmlns:xlink="http://www.w3.org/1999/xlink"
   xmlns:sodipodi="http://sodipodi.sourceforge.net/DTD/sodipodi-0.dtd"
   xmlns:inkscape="http://www.inkscape.org/namespaces/inkscape"
   viewBox="0 0 512 512"
   id="svg2"
   version="1.1"
   inkscape:version="0.48.4 r9939"
   width="100%"
   height="100%"
   sodipodi:docname="newsvine.svg">
  <sodipodi:namedview
     pagecolor="#444444"
     bordercolor="#666666"
     borderopacity="1"
     objecttolerance="10"
     gridtolerance="10"
     guidetolerance="10"
     inkscape:pageopacity="0"
     inkscape:pageshadow="2"
     inkscape:window-width="1310"
     inkscape:window-height="718"
     id="namedview6"
     showgrid="false"
     showguides="true"
     inkscape:guide-bbox="true"
     inkscape:zoom="0.73271889"
     inkscape:cx="242.60129"
     inkscape:cy="305.05775"
     inkscape:window-x="54"
     inkscape:window-y="27"
     inkscape:window-maximized="1"
     inkscape:current-layer="svg2"
     inkscape:snap-midpoints="true"
     inkscape:snap-global="false">
    <sodipodi:guide
       id="guide2989"
       position="522.57628,433.35594"
       orientation="0,1" />
    <sodipodi:guide
       id="guide2995"
       position="473.05444,254.912"
       orientation="1,0" />
  </sodipodi:namedview>
  <metadata
     id="metadata10">
    <rdf:RDF>
      <cc:Work
         rdf:about="">
        <dc:format>image/svg+xml</dc:format>
        <dc:type
           rdf:resource="http://purl.org/dc/dcmitype/StillImage" />
        <dc:title></dc:title>
      </cc:Work>
    </rdf:RDF>
  </metadata>
  <defs
     id="defs8">
    <linearGradient
       id="linearGradient4996">
      <stop
         style="stop-color:#000000;stop-opacity:1;"
         offset="0"
         id="stop4998" />
      <stop
         style="stop-color:#ffffff;stop-opacity:1;"
         offset="1"
         id="stop5000" />
    </linearGradient>
    <linearGradient
       inkscape:collect="always"
       xlink:href="#linearGradient4996"
       id="linearGradient3108"
       gradientUnits="userSpaceOnUse"
       gradientTransform="matrix(1.0380952,0,0,1.4619252,-228.28943,-118.25286)"
       x1="257"
       y1="256"
       x2="362"
       y2="256" />
    <linearGradient
       inkscape:collect="always"
       xlink:href="#linearGradient4996"
       id="linearGradient3137"
       gradientUnits="userSpaceOnUse"
       gradientTransform="matrix(1.0380952,0,0,1.4619252,-119.28943,-118.25286)"
       x1="257"
       y1="256"
       x2="362"
       y2="256" />
    <linearGradient
       inkscape:collect="always"
       xlink:href="#linearGradient4996"
       id="linearGradient3141"
       gradientUnits="userSpaceOnUse"
       gradientTransform="matrix(1.0380952,0,0,1.4619252,-10.28943,-118.25286)"
       x1="257"
       y1="256"
       x2="362"
       y2="256" />
    <linearGradient
       inkscape:collect="always"
       xlink:href="#linearGradient4996"
       id="linearGradient3145"
       gradientUnits="userSpaceOnUse"
       gradientTransform="matrix(1.0283468,0,0,1.4619252,101.21591,-118.25286)"
       x1="257"
       y1="256"
       x2="362"
       y2="256" />
    <linearGradient
       inkscape:collect="always"
       xlink:href="#linearGradient4996"
       id="linearGradient3149"
       gradientUnits="userSpaceOnUse"
       gradientTransform="matrix(1.0283468,0,0,1.4619252,209.19233,-118.25286)"
       x1="257"
       y1="256"
       x2="362"
       y2="256" />
    <linearGradient
       inkscape:collect="always"
       xlink:href="#linearGradient4996"
       id="linearGradient3153"
       gradientUnits="userSpaceOnUse"
       gradientTransform="matrix(1.0380952,0,0,1.4619252,-337.28943,-118.25286)"
       x1="257"
       y1="256"
       x2="362"
       y2="256" />
  </defs>
  <rect
     style="opacity:0.2;fill:#000000;fill-opacity:1;stroke:none"
     id="rect5028"
     width="500"
     height="500"
     x="6"
     y="12"
     rx="72.644058"
     ry="72.644058" />
  <rect
     ry="72.644058"
     rx="72.644058"
     y="6"
     x="6"
     height="500"
     width="500"
     id="rect4979"
     style="fill:#f3f3f3;fill-opacity:1;stroke:none" />
  <rect
     style="fill:#4c7649;fill-opacity:1;stroke:none"
     id="rect4981"
     width="434.99997"
     height="434.99997"
     x="38.500011"
     y="38.500011"
     rx="63.200329"
     ry="63.200329" />
  <path
     style="fill:#000000;fill-opacity:1;stroke:none;opacity:0.2"
     d="M 101.6875 38.5 C 66.674518 38.5 38.5 66.674518 38.5 101.6875 L 38.5 116.6875 C 38.5 81.674518 66.674518 53.5 101.6875 53.5 L 410.3125 53.5 C 445.32548 53.5 473.5 81.674518 473.5 116.6875 L 473.5 101.6875 C 473.5 66.674518 445.32548 38.5 410.3125 38.5 L 101.6875 38.5 z "
     id="rect3187" />
  <g
     id="g3072"
     transform="translate(454.95434,284.78628)">
    <g
       id="g3068"
       transform="matrix(11.166667,0,0,11.166667,-19555.432,-13093.612)"
       style="opacity:0.2;fill:#000000;fill-opacity:1">
      <path
         style="fill:#000000;fill-opacity:1"
         inkscape:connector-curvature="0"
         id="path3070"
         d="m 1738.744,1164.248 c 0.324,0.197 0.697,0.313 1.104,0.313 1.172,0 2.123,-0.951 2.123,-2.125 0,-1.172 -0.951,-2.125 -2.123,-2.125 -1.174,0 -2.125,0.953 -2.125,2.125 0,0.1 0.01,0.199 0.021,0.295 l -2.621,1.898 v -8.973 h -2.068 v 4.734 l -2.641,-1.906 c 0.025,-0.127 0.039,-0.256 0.039,-0.393 0,-1.172 -0.953,-2.125 -2.125,-2.125 -1.174,0 -2.123,0.953 -2.123,2.125 0,1.174 0.949,2.127 2.123,2.127 0.369,0 0.719,-0.098 1.021,-0.262 l 3.705,2.678 v 5.916 l -2.635,-1.908 c 0.021,-0.115 0.033,-0.236 0.033,-0.355 0,-1.178 -0.953,-2.129 -2.125,-2.129 -1.174,0 -2.123,0.951 -2.123,2.129 0,1.17 0.949,2.121 2.123,2.121 0.381,0 0.74,-0.1 1.049,-0.277 l 3.678,2.662 v 6.305 l -2.631,-1.904 c 0.018,-0.113 0.029,-0.23 0.029,-0.348 0,-1.176 -0.953,-2.127 -2.125,-2.127 -1.174,0 -2.123,0.951 -2.123,2.127 0,1.172 0.949,2.123 2.123,2.123 0.385,0 0.744,-0.105 1.057,-0.283 l 3.67,2.656 v 6.314 h 0.17 1.816 0.082 v -2.08 l 3.586,-2.596 c 0.328,0.207 0.717,0.332 1.139,0.332 1.172,0 2.123,-0.951 2.123,-2.125 0,-1.174 -0.951,-2.125 -2.123,-2.125 -1.174,0 -2.125,0.951 -2.125,2.125 0,0.084 0.01,0.17 0.014,0.252 l -2.613,1.895 v -6.305 l 3.592,-2.604 c 0.33,0.205 0.715,0.328 1.133,0.328 1.172,0 2.123,-0.951 2.123,-2.125 0,-1.174 -0.951,-2.127 -2.123,-2.127 -1.174,0 -2.125,0.953 -2.125,2.127 0,0.088 0.01,0.174 0.018,0.262 l -2.617,1.895 v -5.912 l 3.62,-2.625 z" />
    </g>
    <g
       style="fill:#dcdbdb;fill-opacity:1"
       transform="matrix(11.166667,0,0,11.166667,-19570.432,-13108.612)"
       id="g2368">
      <path
         d="m 1738.744,1164.248 c 0.324,0.197 0.697,0.313 1.104,0.313 1.172,0 2.123,-0.951 2.123,-2.125 0,-1.172 -0.951,-2.125 -2.123,-2.125 -1.174,0 -2.125,0.953 -2.125,2.125 0,0.1 0.01,0.199 0.021,0.295 l -2.621,1.898 v -8.973 h -2.068 v 4.734 l -2.641,-1.906 c 0.025,-0.127 0.039,-0.256 0.039,-0.393 0,-1.172 -0.953,-2.125 -2.125,-2.125 -1.174,0 -2.123,0.953 -2.123,2.125 0,1.174 0.949,2.127 2.123,2.127 0.369,0 0.719,-0.098 1.021,-0.262 l 3.705,2.678 v 5.916 l -2.635,-1.908 c 0.021,-0.115 0.033,-0.236 0.033,-0.355 0,-1.178 -0.953,-2.129 -2.125,-2.129 -1.174,0 -2.123,0.951 -2.123,2.129 0,1.17 0.949,2.121 2.123,2.121 0.381,0 0.74,-0.1 1.049,-0.277 l 3.678,2.662 v 6.305 l -2.631,-1.904 c 0.018,-0.113 0.029,-0.23 0.029,-0.348 0,-1.176 -0.953,-2.127 -2.125,-2.127 -1.174,0 -2.123,0.951 -2.123,2.127 0,1.172 0.949,2.123 2.123,2.123 0.385,0 0.744,-0.105 1.057,-0.283 l 3.67,2.656 v 6.314 h 0.17 1.816 0.082 v -2.08 l 3.586,-2.596 c 0.328,0.207 0.717,0.332 1.139,0.332 1.172,0 2.123,-0.951 2.123,-2.125 0,-1.174 -0.951,-2.125 -2.123,-2.125 -1.174,0 -2.125,0.951 -2.125,2.125 0,0.084 0.01,0.17 0.014,0.252 l -2.613,1.895 v -6.305 l 3.592,-2.604 c 0.33,0.205 0.715,0.328 1.133,0.328 1.172,0 2.123,-0.951 2.123,-2.125 0,-1.174 -0.951,-2.127 -2.123,-2.127 -1.174,0 -2.125,0.953 -2.125,2.127 0,0.088 0.01,0.174 0.018,0.262 l -2.617,1.895 v -5.912 l 3.62,-2.625 z"
         id="path2370"
         inkscape:connector-curvature="0"
         style="fill:#dcdbdb;fill-opacity:1" />
    </g>
  </g>
  <g
     id="g3167">
    <path
       id="rect3068"
       d="M 78.65625 6 C 63.792798 6 49.986224 10.429561 38.5 18.03125 L 38.5 493.96875 C 49.986224 501.57044 63.792798 506 78.65625 506 L 147.5 506 L 147.5 6 L 78.65625 6 z "
       style="opacity:0.05000000000000000;fill:url(#linearGradient3108);fill-opacity:1;stroke:none" />
    <path
       inkscape:connector-curvature="0"
       style="opacity:0.05;fill:url(#linearGradient3137);fill-opacity:1;stroke:none"
       d="m 147.50001,6 0,500 109,0 0,-500 -109,0 z"
       id="path3135" />
    <path
       id="path3139"
       d="m 256.50001,6 0,500 109,0 0,-500 -109,0 z"
       style="opacity:0.05;fill:url(#linearGradient3141);fill-opacity:1;stroke:none"
       inkscape:connector-curvature="0" />
    <path
       id="path3143"
       d="M 365.5 6 L 365.5 506 L 433.34375 506 C 448.1977 506 461.98692 501.56151 473.46875 493.96875 L 473.46875 18.03125 C 461.98692 10.438491 448.1977 6 433.34375 6 L 365.5 6 z "
       style="opacity:0.05000000000000000;fill:url(#linearGradient3145);fill-opacity:1;stroke:none" />
    <path
       id="path3151"
       d="M 38.5 18.03125 C 18.885717 31.012164 6 53.274894 6 78.65625 L 6 433.34375 C 6 458.72511 18.885717 480.98784 38.5 493.96875 L 38.5 18.03125 z "
       style="opacity:0.05000000000000000;fill:url(#linearGradient3153);fill-opacity:1;stroke:none" />
    <path
       id="path3147"
       d="M 473.46875 18.03125 L 473.46875 493.96875 C 493.09542 480.98993 506 458.73461 506 433.34375 L 506 78.65625 C 506 53.265388 493.09542 31.010071 473.46875 18.03125 z "
       style="opacity:0.05000000000000000;fill:url(#linearGradient3149);fill-opacity:1;stroke:none" />
  </g>
</svg>
