<?xml version="1.0" encoding="UTF-8" standalone="no"?>
<svg
   xmlns:dc="http://purl.org/dc/elements/1.1/"
   xmlns:cc="http://creativecommons.org/ns#"
   xmlns:rdf="http://www.w3.org/1999/02/22-rdf-syntax-ns#"
   xmlns:svg="http://www.w3.org/2000/svg"
   xmlns="http://www.w3.org/2000/svg"
   xmlns:xlink="http://www.w3.org/1999/xlink"
   xmlns:sodipodi="http://sodipodi.sourceforge.net/DTD/sodipodi-0.dtd"
   xmlns:inkscape="http://www.inkscape.org/namespaces/inkscape"
   viewBox="0 0 512 512"
   id="svg2"
   version="1.1"
   inkscape:version="0.48.4 r9939"
   width="100%"
   height="100%"
   sodipodi:docname="paypal.svg">
  <sodipodi:namedview
     pagecolor="#444444"
     bordercolor="#666666"
     borderopacity="1"
     objecttolerance="10"
     gridtolerance="10"
     guidetolerance="10"
     inkscape:pageopacity="0"
     inkscape:pageshadow="2"
     inkscape:window-width="1310"
     inkscape:window-height="718"
     id="namedview6"
     showgrid="false"
     showguides="true"
     inkscape:guide-bbox="true"
     inkscape:zoom="0.5181105"
     inkscape:cx="92.835896"
     inkscape:cy="133.95137"
     inkscape:window-x="54"
     inkscape:window-y="27"
     inkscape:window-maximized="1"
     inkscape:current-layer="svg2"
     inkscape:snap-midpoints="true"
     inkscape:snap-global="false">
    <sodipodi:guide
       id="guide2989"
       position="768.17591,433.35594"
       orientation="0,1" />
    <sodipodi:guide
       id="guide2995"
       position="473.05444,254.912"
       orientation="1,0" />
  </sodipodi:namedview>
  <metadata
     id="metadata10">
    <rdf:RDF>
      <cc:Work
         rdf:about="">
        <dc:format>image/svg+xml</dc:format>
        <dc:type
           rdf:resource="http://purl.org/dc/dcmitype/StillImage" />
        <dc:title></dc:title>
      </cc:Work>
    </rdf:RDF>
  </metadata>
  <defs
     id="defs8">
    <linearGradient
       id="linearGradient4379">
      <stop
         style="stop-color:#f3f3f3;stop-opacity:1;"
         offset="0"
         id="stop4381" />
      <stop
         id="stop4387"
         offset="0.5"
         style="stop-color:#eeeeee;stop-opacity:1;" />
      <stop
         style="stop-color:#ebebeb;stop-opacity:1;"
         offset="1"
         id="stop4383" />
    </linearGradient>
    <linearGradient
       id="linearGradient4996">
      <stop
         style="stop-color:#000000;stop-opacity:1;"
         offset="0"
         id="stop4998" />
      <stop
         style="stop-color:#ffffff;stop-opacity:1;"
         offset="1"
         id="stop5000" />
    </linearGradient>
    <linearGradient
       inkscape:collect="always"
       xlink:href="#linearGradient4996"
       id="linearGradient3108"
       gradientUnits="userSpaceOnUse"
       gradientTransform="matrix(1.0380952,0,0,1.4619252,-228.28943,-118.25286)"
       x1="257"
       y1="256"
       x2="362"
       y2="256" />
    <linearGradient
       inkscape:collect="always"
       xlink:href="#linearGradient4996"
       id="linearGradient3137"
       gradientUnits="userSpaceOnUse"
       gradientTransform="matrix(1.0380952,0,0,1.4619252,-119.28943,-118.25286)"
       x1="257"
       y1="256"
       x2="362"
       y2="256" />
    <linearGradient
       inkscape:collect="always"
       xlink:href="#linearGradient4996"
       id="linearGradient3141"
       gradientUnits="userSpaceOnUse"
       gradientTransform="matrix(1.0380952,0,0,1.4619252,-10.28943,-118.25286)"
       x1="257"
       y1="256"
       x2="362"
       y2="256" />
    <linearGradient
       inkscape:collect="always"
       xlink:href="#linearGradient4996"
       id="linearGradient3145"
       gradientUnits="userSpaceOnUse"
       gradientTransform="matrix(1.0283468,0,0,1.4619252,101.21591,-118.25286)"
       x1="257"
       y1="256"
       x2="362"
       y2="256" />
    <linearGradient
       inkscape:collect="always"
       xlink:href="#linearGradient4996"
       id="linearGradient3149"
       gradientUnits="userSpaceOnUse"
       gradientTransform="matrix(1.0283468,0,0,1.4619252,209.19233,-118.25286)"
       x1="257"
       y1="256"
       x2="362"
       y2="256" />
    <linearGradient
       inkscape:collect="always"
       xlink:href="#linearGradient4996"
       id="linearGradient3153"
       gradientUnits="userSpaceOnUse"
       gradientTransform="matrix(1.0380952,0,0,1.4619252,-337.28943,-118.25286)"
       x1="257"
       y1="256"
       x2="362"
       y2="256" />
    <filter
       inkscape:collect="always"
       id="filter4375">
      <feGaussianBlur
         inkscape:collect="always"
         stdDeviation="3.7725"
         id="feGaussianBlur4377" />
    </filter>
    <linearGradient
       inkscape:collect="always"
       xlink:href="#linearGradient4379"
       id="linearGradient4385"
       x1="243.40109"
       y1="19.563948"
       x2="243.40109"
       y2="504.01736"
       gradientUnits="userSpaceOnUse" />
    <linearGradient
       id="linearGradient4996-9">
      <stop
         id="stop4998-7"
         offset="0"
         style="stop-color:#000000;stop-opacity:1;" />
      <stop
         id="stop5000-6"
         offset="1"
         style="stop-color:#ffffff;stop-opacity:1;" />
    </linearGradient>
    <linearGradient
       y2="256"
       x2="362"
       y1="256"
       x1="257"
       gradientTransform="matrix(1.0380952,0,0,1.4619252,-337.28943,-118.25286)"
       gradientUnits="userSpaceOnUse"
       id="linearGradient3153-0"
       xlink:href="#linearGradient4996-8"
       inkscape:collect="always" />
    <linearGradient
       y2="256"
       x2="362"
       y1="256"
       x1="257"
       gradientTransform="matrix(1.0283468,0,0,1.4619252,209.19233,-118.25286)"
       gradientUnits="userSpaceOnUse"
       id="linearGradient3149-1"
       xlink:href="#linearGradient4996-8"
       inkscape:collect="always" />
    <linearGradient
       y2="256"
       x2="362"
       y1="256"
       x1="257"
       gradientTransform="matrix(1.0283468,0,0,1.4619252,101.21591,-118.25286)"
       gradientUnits="userSpaceOnUse"
       id="linearGradient3145-6"
       xlink:href="#linearGradient4996-8"
       inkscape:collect="always" />
    <linearGradient
       y2="256"
       x2="362"
       y1="256"
       x1="257"
       gradientTransform="matrix(1.0380952,0,0,1.4619252,-10.28943,-118.25286)"
       gradientUnits="userSpaceOnUse"
       id="linearGradient3141-9"
       xlink:href="#linearGradient4996-8"
       inkscape:collect="always" />
    <linearGradient
       y2="256"
       x2="362"
       y1="256"
       x1="257"
       gradientTransform="matrix(1.0380952,0,0,1.4619252,-119.28943,-118.25286)"
       gradientUnits="userSpaceOnUse"
       id="linearGradient3137-94"
       xlink:href="#linearGradient4996-8"
       inkscape:collect="always" />
    <linearGradient
       y2="256"
       x2="362"
       y1="256"
       x1="257"
       gradientTransform="matrix(1.0380952,0,0,1.4619252,-228.28943,-118.25286)"
       gradientUnits="userSpaceOnUse"
       id="linearGradient3108-0"
       xlink:href="#linearGradient4996-8"
       inkscape:collect="always" />
    <linearGradient
       id="linearGradient4996-8">
      <stop
         id="stop4998-1"
         offset="0"
         style="stop-color:#000000;stop-opacity:1;" />
      <stop
         id="stop5000-3"
         offset="1"
         style="stop-color:#ffffff;stop-opacity:1;" />
    </linearGradient>
  </defs>
  <path
     style="opacity:1;fill:#000000;fill-opacity:0.17647059000000001;stroke:none;filter:url(#filter4375)"
     d="M 78.65625 6 C 77.727284 6 76.7954 6.028201 75.875 6.0625 C 75.802369 6.0652118 75.728825 6.059577 75.65625 6.0625 C 74.988725 6.0893847 74.318909 6.1428818 73.65625 6.1875 C 73.280206 6.2128391 72.905683 6.2502503 72.53125 6.28125 C 71.885867 6.3345848 71.234134 6.3675421 70.59375 6.4375 C 69.628992 6.5431372 68.67162 6.6697176 67.71875 6.8125 C 67.666309 6.8203518 67.614904 6.835787 67.5625 6.84375 C 66.480857 7.0082531 65.408958 7.1949037 64.34375 7.40625 C 63.884894 7.4971842 63.424398 7.5880194 62.96875 7.6875 C 62.579098 7.7726525 62.199755 7.8774077 61.8125 7.96875 C 61.165363 8.1211825 60.515221 8.2679802 59.875 8.4375 C 58.977088 8.6758086 58.071221 8.9162011 57.1875 9.1875 C 56.976031 9.2523648 56.773131 9.3395193 56.5625 9.40625 C 55.571868 9.72038 54.596482 10.051502 53.625 10.40625 C 52.80836 10.704455 51.989948 11.0175 51.1875 11.34375 C 50.897854 11.461445 50.600246 11.566197 50.3125 11.6875 C 50.176196 11.744981 50.042123 11.816716 49.90625 11.875 C 49.824668 11.909989 49.737675 11.933472 49.65625 11.96875 C 48.938842 12.279643 48.236264 12.604441 47.53125 12.9375 C 47.384379 13.006849 47.240073 13.085948 47.09375 13.15625 C 46.146324 13.611669 45.205003 14.099116 44.28125 14.59375 C 44.010496 14.738777 43.737417 14.882905 43.46875 15.03125 C 43.054856 15.259696 42.65884 15.513784 42.25 15.75 C 41.730466 16.0502 41.198724 16.34365 40.6875 16.65625 C 39.949085 17.107771 39.220561 17.554376 38.5 18.03125 C 38.468637 18.052007 38.437579 18.072946 38.40625 18.09375 C 37.950536 18.396369 37.510847 18.718679 37.0625 19.03125 C 36.93921 19.117203 36.810226 19.194551 36.6875 19.28125 C 36.163693 19.651283 35.638368 20.022798 35.125 20.40625 C 33.290177 21.777117 31.50659 23.24624 29.8125 24.78125 C 29.795638 24.79654 29.766847 24.797194 29.75 24.8125 C 29.224497 25.289542 28.729955 25.789121 28.21875 26.28125 C 27.694886 26.785782 27.164727 27.292488 26.65625 27.8125 C 26.144503 28.335837 25.652037 28.867606 25.15625 29.40625 C 24.215559 30.427897 23.318806 31.456477 22.4375 32.53125 C 21.806506 33.300601 21.193184 34.110796 20.59375 34.90625 C 20.48231 35.054221 20.360329 35.194896 20.25 35.34375 C 19.723598 36.053613 19.21948 36.770435 18.71875 37.5 C 18.60915 37.659719 18.48335 37.808107 18.375 37.96875 C 18.362086 37.987892 18.356646 38.012094 18.34375 38.03125 C 18.259632 38.156225 18.177108 38.280721 18.09375 38.40625 C 17.623298 39.114511 17.164683 39.836916 16.71875 40.5625 C 16.647328 40.678799 16.570784 40.789515 16.5 40.90625 C 15.924756 41.854127 15.376169 42.805321 14.84375 43.78125 C 14.692065 44.059253 14.554393 44.344787 14.40625 44.625 C 14.225983 44.96599 14.049974 45.312036 13.875 45.65625 C 13.63151 46.13532 13.389361 46.608561 13.15625 47.09375 C 12.730634 47.978942 12.32789 48.876356 11.9375 49.78125 C 11.697576 50.33769 11.476337 50.90513 11.25 51.46875 C 11.211649 51.564217 11.162958 51.654331 11.125 51.75 C 10.878581 52.371259 10.635931 52.995354 10.40625 53.625 C 10.074634 54.533596 9.7648227 55.449625 9.46875 56.375 C 9.3582604 56.72046 9.2304578 57.058529 9.125 57.40625 C 8.8244173 58.396667 8.5403511 59.398152 8.28125 60.40625 C 8.2731511 60.437819 8.2580577 60.468414 8.25 60.5 C 7.9825799 61.546421 7.7529168 62.591906 7.53125 63.65625 C 7.4967817 63.821826 7.4708457 63.990255 7.4375 64.15625 C 7.011883 66.273722 6.6758491 68.412789 6.4375 70.59375 C 6.4022606 70.916326 6.3747851 71.238642 6.34375 71.5625 C 6.2537906 72.500662 6.1792302 73.457785 6.125 74.40625 C 6.1084109 74.696568 6.1069502 74.990008 6.09375 75.28125 C 6.0430557 76.400053 6 77.5245 6 78.65625 L 6 433.34375 L 6 439.34375 C 6 479.58856 38.411442 512 78.65625 512 L 433.34375 512 C 473.58856 512 506 479.58856 506 439.34375 L 506 84.65625 L 506 78.65625 C 506 77.397481 505.96893 76.148858 505.90625 74.90625 C 505.88997 74.583084 505.8642 74.259513 505.84375 73.9375 C 505.7854 73.020381 505.7168 72.094823 505.625 71.1875 C 505.60482 70.987629 505.58428 70.793129 505.5625 70.59375 C 505.31685 68.348594 504.97537 66.146302 504.53125 63.96875 C 504.51005 63.864628 504.49039 63.760207 504.46875 63.65625 C 504.24208 62.56918 503.99317 61.505818 503.71875 60.4375 C 503.70802 60.395586 503.69831 60.354385 503.6875 60.3125 C 503.49794 59.580022 503.27406 58.848167 503.0625 58.125 C 502.85099 57.400787 502.63943 56.683269 502.40625 55.96875 C 502.14838 55.179706 501.87757 54.401717 501.59375 53.625 C 501.36407 52.995354 501.12142 52.371259 500.875 51.75 C 500.837 51.654331 500.7884 51.564216 500.75 51.46875 C 500.51143 50.874675 500.28491 50.273592 500.03125 49.6875 C 499.6536 48.816464 499.2541 47.946468 498.84375 47.09375 C 498.61064 46.608561 498.36849 46.13532 498.125 45.65625 C 497.83796 45.092248 497.55122 44.524042 497.25 43.96875 C 497.19912 43.874852 497.14503 43.781145 497.09375 43.6875 C 496.58077 42.751755 496.05244 41.816114 495.5 40.90625 C 495.28765 40.556046 495.06183 40.221258 494.84375 39.875 C 494.43899 39.233117 494.04913 38.596743 493.625 37.96875 C 492.81616 36.769544 491.93973 35.615178 491.0625 34.46875 C 490.80093 34.127365 490.54872 33.774036 490.28125 33.4375 C 490.09255 33.199768 489.91036 32.954032 489.71875 32.71875 C 489.62597 32.604964 489.53096 32.488208 489.4375 32.375 C 486.72765 29.088725 483.7416 26.073745 480.5 23.3125 C 480.20738 23.063287 479.92162 22.807113 479.625 22.5625 C 479.35716 22.341642 479.08356 22.123311 478.8125 21.90625 C 478.17676 21.397149 477.52808 20.89412 476.875 20.40625 C 473.70458 18.038152 470.32509 15.925311 466.78125 14.09375 C 466.16445 13.77467 465.53332 13.458103 464.90625 13.15625 C 464.75142 13.08186 464.59295 13.010824 464.4375 12.9375 C 463.65263 12.56654 462.86266 12.218496 462.0625 11.875 C 461.57467 11.666006 461.08708 11.448572 460.59375 11.25 C 459.85871 10.953561 459.12187 10.67922 458.375 10.40625 C 457.98321 10.263334 457.58245 10.13635 457.1875 10 C 456.46909 9.7515393 455.72856 9.4764502 455 9.25 C 454.8864 9.2148134 454.77009 9.1908956 454.65625 9.15625 C 454.16839 9.007218 453.67972 8.8890238 453.1875 8.75 C 452.83049 8.6495592 452.48425 8.5326228 452.125 8.4375 C 452.10552 8.4323219 452.08198 8.4426624 452.0625 8.4375 C 451.22583 8.2167138 450.37964 8.0040441 449.53125 7.8125 C 449.49951 7.8053012 449.46926 7.7884074 449.4375 7.78125 C 448.78627 7.6351458 448.12658 7.5035858 447.46875 7.375 C 446.46573 7.1778899 445.45509 6.9992871 444.4375 6.84375 C 444.37488 6.8342345 444.31267 6.8218566 444.25 6.8125 C 443.29794 6.6695311 442.37023 6.5432958 441.40625 6.4375 C 440.57048 6.3461977 439.71923 6.2816821 438.875 6.21875 C 438.69908 6.2055933 438.52002 6.1994068 438.34375 6.1875 C 437.60905 6.1380308 436.86567 6.0901545 436.125 6.0625 C 435.20525 6.0281378 434.27212 6 433.34375 6 L 147.5 6 L 78.65625 6 z "
     id="path3492" />
  <rect
     style="opacity:0.15;fill:#000000;fill-opacity:1;stroke:none"
     id="rect5028"
     width="500"
     height="500"
     x="6"
     y="12"
     rx="72.644058"
     ry="72.644058" />
  <rect
     ry="72.644058"
     rx="72.644058"
     y="6"
     x="6"
     height="500"
     width="500"
     id="rect4979"
     style="fill:url(#linearGradient4385);fill-opacity:1;stroke:none" />
  <g
     id="g3167">
    <path
       id="rect3068"
       d="M 78.65625 6 C 63.792798 6 49.986224 10.429561 38.5 18.03125 L 38.5 493.96875 C 49.986224 501.57044 63.792798 506 78.65625 506 L 147.5 506 L 147.5 6 L 78.65625 6 z "
       style="opacity:0.05000000000000000;fill:url(#linearGradient3108);fill-opacity:1;stroke:none" />
    <path
       inkscape:connector-curvature="0"
       style="opacity:0.05;fill:url(#linearGradient3137);fill-opacity:1;stroke:none"
       d="m 147.50001,6 0,500 109,0 0,-500 -109,0 z"
       id="path3135" />
    <path
       id="path3139"
       d="m 256.50001,6 0,500 109,0 0,-500 -109,0 z"
       style="opacity:0.05;fill:url(#linearGradient3141);fill-opacity:1;stroke:none"
       inkscape:connector-curvature="0" />
    <path
       id="path3143"
       d="M 365.5 6 L 365.5 506 L 433.34375 506 C 448.1977 506 461.98692 501.56151 473.46875 493.96875 L 473.46875 18.03125 C 461.98692 10.438491 448.1977 6 433.34375 6 L 365.5 6 z "
       style="opacity:0.05000000000000000;fill:url(#linearGradient3145);fill-opacity:1;stroke:none" />
    <path
       id="path3151"
       d="M 38.5 18.03125 C 18.885717 31.012164 6 53.274894 6 78.65625 L 6 433.34375 C 6 458.72511 18.885717 480.98784 38.5 493.96875 L 38.5 18.03125 z "
       style="opacity:0.05000000000000000;fill:url(#linearGradient3153);fill-opacity:1;stroke:none" />
    <path
       id="path3147"
       d="M 473.46875 18.03125 L 473.46875 493.96875 C 493.09542 480.98993 506 458.73461 506 433.34375 L 506 78.65625 C 506 53.265388 493.09542 31.010071 473.46875 18.03125 z "
       style="opacity:0.05000000000000000;fill:url(#linearGradient3149);fill-opacity:1;stroke:none" />
  </g>
  <rect
     style="fill:#336699;fill-opacity:1;stroke:none"
     id="rect4981"
     width="434.99997"
     height="434.99997"
     x="38.500011"
     y="38.500011"
     rx="63.200329"
     ry="63.200329" />
  <path
     style="fill:#000000;fill-opacity:1;stroke:none;opacity:0.2"
     d="M 101.6875 38.5 C 66.674518 38.5 38.5 66.674518 38.5 101.6875 L 38.5 116.6875 C 38.5 81.674518 66.674518 53.5 101.6875 53.5 L 410.3125 53.5 C 445.32548 53.5 473.5 81.674518 473.5 116.6875 L 473.5 101.6875 C 473.5 66.674518 445.32548 38.5 410.3125 38.5 L 101.6875 38.5 z "
     id="rect3187" />
  <path
     style="fill:#ffffff;fill-opacity:1;stroke:none"
     d="M 78.65625 6 C 38.411442 6 6 38.411442 6 78.65625 L 6 85.65625 C 6 45.411442 38.411442 13 78.65625 13 L 433.34375 13 C 473.58856 13 506 45.411442 506 85.65625 L 506 78.65625 C 506 38.411442 473.58856 6 433.34375 6 L 78.65625 6 z "
     id="rect4349" />
  <g
     id="g3239"
     transform="translate(684.01147,197.53108)">
    <path
       inkscape:connector-curvature="0"
       style="opacity:0.2;fill:#000000;fill-opacity:1"
       d="m -432.33698,-101.53108 c -58.56398,0 -66.52803,0.10432 -66.82393,0.87539 -0.18471,0.48145 -0.66213,0.87545 -1.07602,0.87545 -1.8262,0 -6.87076,3.33243 -9.97614,6.60209 -3.58364,3.77314 -5.42892,7.18935 -6.23744,11.489976 -0.2715,1.444392 -0.75801,3.676777 -1.07602,4.960734 -0.31797,1.283877 -0.87209,3.64759 -1.24019,5.252523 -0.36816,1.60496 -1.08178,4.625151 -1.56847,6.711575 -0.48661,2.08645 -1.21402,5.539167 -1.62314,7.659949 -0.40904,2.120888 -0.92119,4.129027 -1.13083,4.468288 -0.35296,0.570997 -0.90226,3.054976 -2.91807,12.967221 -0.86375,4.24748 -1.82156,8.19275 -3.0457,12.602398 -0.45329,1.633133 -0.82075,3.501122 -0.82075,4.15824 0,0.657199 -0.38125,2.469079 -0.83888,4.030645 -0.45761,1.561539 -1.37674,5.274379 -2.04266,8.243554 -0.66583,2.969147 -1.75982,7.827687 -2.42568,10.796888 -0.66589,2.969067 -1.58508,6.6819344 -2.04266,8.2435536 -0.45761,1.5615125 -0.82072,3.6624894 -0.82072,4.6689184 0,1.006268 -0.39593,2.582281 -0.87543,3.501681 -0.47949,0.919401 -0.87542,2.508581 -0.87542,3.538119 0,1.029618 -0.36999,3.028695 -0.82067,4.45011 -0.45073,1.421442 -1.40347,5.216113 -2.11561,8.425979 -0.71213,3.209893 -1.65526,7.004456 -2.0974,8.425872 -0.44207,1.421415 -0.80247,3.333357 -0.80247,4.249506 0,0.916096 -0.3504,2.518177 -0.78421,3.556324 -0.4338,1.038308 -0.9919,3.197019 -1.2219,4.796648 -0.23003,1.599548 -0.78064,4.198489 -1.24019,5.781405 -0.45974,1.582996 -0.83901,3.582073 -0.83901,4.450056 5e-5,0.868064 -0.39593,2.345295 -0.87542,3.264615 -0.4795,0.919428 -0.87542,2.366352 -0.87542,3.228125 0,0.861853 -0.28524,2.306352 -0.6383,3.209893 -0.35307,0.903568 -0.99215,3.479825 -1.42257,5.726763 -0.43042,2.246912 -1.0753,5.267103 -1.42256,6.711575 -0.34723,1.444445 -0.91108,3.808104 -1.25845,5.25255 -0.34728,1.444418 -1.01098,4.201981 -1.47725,6.12797 -0.46625,1.925855 -1.19709,5.208676 -1.62314,7.295156 -0.4261,2.08645 -1.10631,5.10664 -1.49557,6.71157 -0.38921,1.60496 -1.04036,4.36247 -1.45905,6.12797 -0.41867,1.76537 -1.22583,5.0483 -1.78725,7.29518 -0.56157,2.24691 -1.11494,4.87315 -1.24019,5.83618 -0.12528,0.9629 -0.60794,3.06393 -1.05785,4.66889 -0.44993,1.60494 -1.10542,4.23122 -1.45905,5.83616 -0.35355,1.60496 -0.98798,4.49385 -1.42251,6.41978 -0.43468,1.92589 -1.20842,5.34006 -1.71443,7.58697 -0.50593,2.24686 -1.46353,6.44889 -2.13379,9.33786 -0.67023,2.88892 -1.50567,6.56567 -1.84203,8.1706 -0.33638,1.60496 -0.97678,3.97606 -1.42261,5.27079 -0.44583,1.29467 -0.80247,3.2141 -0.80247,4.26763 0,1.05363 -0.23669,2.37219 -0.52888,2.9181 -0.29216,0.54592 -0.93547,2.82857 -1.42256,5.07015 -0.48714,2.24164 -1.31259,5.90549 -1.8238,8.1524 -0.51118,2.24694 -1.41584,6.43969 -2.02437,9.31957 -0.60855,2.87994 -1.38476,5.33726 -1.73263,5.45313 -0.74103,0.24709 -0.90152,10.6146 -0.1642,10.6146 0.26149,0 0.90466,0.88376 1.42251,1.96965 1.2113,2.54003 4.91585,5.65231 7.80586,6.54741 3.54937,1.10206 55.72619,1.09972 59.94824,0 5.6879,-1.48153 12.79698,-7.09549 15.21046,-12.00057 1.61021,-3.27253 3.69714,-10.89465 4.96073,-18.11027 0.25295,-1.44447 0.92489,-4.33339 1.47728,-6.41976 1.64271,-6.2042 2.51714,-9.88711 3.82997,-16.04944 0.68377,-3.20989 1.59022,-7.14927 2.02442,-8.75423 1.41497,-5.23 2.20968,-8.70172 2.66275,-11.74526 0.24469,-1.64414 0.70401,-3.4826 1.02133,-4.08529 0.31727,-0.60277 0.77005,-2.53875 1.00307,-4.30414 0.23323,-1.76551 0.77613,-4.09718 1.22196,-5.17963 0.44588,-1.08236 0.8207,-2.50311 0.8207,-3.15517 0,-2.48816 3.1319,-7.74524 6.76629,-11.34405 2.03624,-2.01632 3.96199,-3.66577 4.26769,-3.66577 0.30565,0 0.90719,-0.32844 1.33137,-0.72954 0.42416,-0.40129 2.109,-1.18909 3.75701,-1.75084 2.54689,-0.86812 5.39275,-1.02647 18.96754,-1.07605 8.78409,-0.0328 18.47142,-0.27582 21.52077,-0.54717 3.04943,-0.27113 10.1596,-0.90293 15.79411,-1.38607 5.63449,-0.4832 11.41227,-1.13013 12.83955,-1.45905 1.42723,-0.32892 3.595,-0.6125 4.83306,-0.62007 1.238,-0.0107 3.99559,-0.40691 6.12791,-0.87545 2.13241,-0.46845 5.32919,-1.12565 7.09458,-1.47723 8.79525,-1.75183 21.08379,-4.96724 25.09546,-6.56567 0.80246,-0.31951 2.24694,-0.80038 3.20989,-1.05784 2.22063,-0.59365 6.40403,-2.08155 9.04605,-3.22813 1.12347,-0.48759 3.06614,-1.33716 4.3224,-1.87851 9.71564,-4.18644 30.51591,-16.245885 34.06853,-19.751699 0.40928,-0.403632 1.96192,-1.717736 3.46522,-2.936362 6.21987,-5.042164 10.77967,-9.405486 15.04631,-14.407934 1.60496,-1.881769 3.19121,-3.723769 3.51994,-4.085287 2.94012,-3.233909 9.81874,-13.967092 12.25594,-19.113423 0.8154,-1.721814 1.70963,-3.530868 1.96968,-4.012359 1.32676,-2.456418 2.47835,-5.358502 3.59287,-9.04602 0.67913,-2.246912 1.60698,-4.946207 2.06088,-6.000294 0.45391,-1.054114 0.82076,-2.372696 0.82076,-2.936363 0,-0.563587 0.41584,-2.591663 0.93009,-4.504751 0.93315,-3.471962 1.38873,-6.968793 2.64452,-20.663687 0.66319,-7.232248 0.59045,-8.563571 -1.2037,-26.153144 -0.27066,-2.653635 -0.78072,-5.542499 -1.13075,-6.419785 -0.35006,-0.877287 -0.87891,-2.655502 -1.18547,-3.939432 -0.30637,-1.283904 -0.98324,-3.516289 -1.49551,-4.960734 -3.64581,-10.280027 -8.98666,-18.607863 -17.01605,-26.536252 -4.84199,-4.781107 -13.44178,-11.398698 -14.82748,-11.398698 -0.30826,0 -0.56537,-0.218835 -0.56537,-0.492472 0,-0.273483 -1.77272,-1.345761 -3.93938,-2.370912 -2.16671,-1.025202 -4.33333,-2.064072 -4.81482,-2.316212 -3.11338,-1.6306 -4.84444,-2.40741 -5.36197,-2.40741 -0.32658,0 -1.41417,-0.35571 -2.42566,-0.80247 -2.70268,-1.19417 -7.32063,-2.68996 -10.19503,-3.3011 -1.38564,-0.29462 -2.82697,-0.72296 -3.19166,-0.94837 -0.67926,-0.41961 -6.1522,-1.57083 -12.38356,-2.58978 -1.92591,-0.31482 -4.81482,-0.83935 -6.41976,-1.16724 -1.60496,-0.32798 -6.98881,-0.87122 -11.96412,-1.20371 -5.84045,-0.39047 -9.5064,-0.8917 -10.34091,-1.42258 -1.09236,-0.69477 -11.60117,-0.82065 -67.79059,-0.82065 z m 14.33506,62.20968 c 2.78643,-0.01333 6.43602,-0.01333 11.27108,0 19.12454,0.05224 19.67845,0.09302 25.38725,1.586675 8.92999,2.336471 11.28309,3.039542 11.74526,3.501682 0.23349,0.233495 2.13421,1.234352 4.23119,2.225108 4.58802,2.16772 11.21358,8.581482 13.715,13.277242 4.65087,8.730855 5.05522,25.2702325 0.91191,37.424325 -3.24463,9.517622 -10.91345,20.085093 -18.2745,25.168412 -7.01037,4.841054 -8.29721,5.631339 -12.62068,7.659949 -10.83156,5.082093 -22.86142,7.937025 -37.93498,9.027735 -9.58196,0.693396 -25.53784,0.614311 -28.2506,-0.145801 -6.95008,-1.947633 -12.70491,-10.642131 -10.94279,-16.523598 0.37215,-1.241816 0.67479,-2.828251 0.67479,-3.519861 0,-0.691876 0.49466,-3.169297 1.11256,-5.489696 0.61781,-2.320399 1.44498,-5.52608 1.82377,-7.13104 0.37871,-1.604986 1.05761,-4.49385 1.51372,-6.419732 0.45628,-1.926016 1.175,-5.077535 1.60496,-7.003417 0.42994,-1.925909 1.07811,-4.6835251 1.4408,-6.1279169 0.36277,-1.4445251 1.59752,-6.6969951 2.73568,-11.6723081 1.1382,-4.975341 2.44986,-10.38574 2.9181,-12.018874 0.46846,-1.633187 0.85721,-3.677576 0.85721,-4.541215 0,-1.718562 2.57549,-7.135598 4.81483,-10.122097 0.77949,-1.039587 2.44994,-2.684849 3.70229,-3.64759 1.25237,-0.962768 2.57831,-2.000889 2.9363,-2.297982 0.35806,-0.29696 1.93378,-1.146819 3.50169,-1.896749 2.11497,-1.011653 2.76588,-1.268124 11.12516,-1.313144 z"
       id="path3231" />
    <path
       id="path3052-5"
       d="m -447.33698,-116.53108 c -58.56398,0 -66.52803,0.10432 -66.82393,0.87539 -0.18471,0.48145 -0.66213,0.87545 -1.07602,0.87545 -1.8262,0 -6.87076,3.33243 -9.97614,6.60209 -3.58364,3.77314 -5.42892,7.18935 -6.23744,11.489976 -0.2715,1.444392 -0.75801,3.676777 -1.07602,4.960734 -0.31797,1.283877 -0.87209,3.64759 -1.24019,5.252523 -0.36816,1.60496 -1.08178,4.625151 -1.56847,6.711575 -0.48661,2.08645 -1.21402,5.539167 -1.62314,7.659949 -0.40904,2.120888 -0.92119,4.129027 -1.13083,4.468288 -0.35296,0.570997 -0.90226,3.054976 -2.91807,12.967221 -0.86375,4.24748 -1.82156,8.19275 -3.0457,12.602398 -0.45329,1.633133 -0.82075,3.501122 -0.82075,4.15824 0,0.657199 -0.38125,2.469079 -0.83888,4.030645 -0.45761,1.561539 -1.37674,5.274379 -2.04266,8.243554 -0.66583,2.969147 -1.75982,7.827687 -2.42568,10.796888 -0.66589,2.969067 -1.58508,6.6819344 -2.04266,8.2435536 -0.45761,1.5615125 -0.82072,3.6624897 -0.82072,4.668918 0,1.00626847 -0.39593,2.58228121 -0.87543,3.5016819 -0.47949,0.9194008 -0.87542,2.508581 -0.87542,3.5381189 0,1.029618 -0.36999,3.0286942 -0.82067,4.4501096 -0.45073,1.421442 -1.40347,5.216113 -2.11561,8.425979 -0.71213,3.209893 -1.65526,7.004456 -2.0974,8.425872 -0.44207,1.421415 -0.80247,3.333357 -0.80247,4.249506 0,0.916096 -0.3504,2.518177 -0.78421,3.556324 -0.4338,1.038308 -0.9919,3.197019 -1.2219,4.796648 -0.23003,1.599548 -0.78064,4.198489 -1.24019,5.781405 -0.45974,1.582996 -0.83901,3.582073 -0.83901,4.450056 5e-5,0.868064 -0.39593,2.345295 -0.87542,3.264615 -0.4795,0.919428 -0.87542,2.366352 -0.87542,3.228125 0,0.861853 -0.28524,2.306352 -0.6383,3.209893 -0.35307,0.903568 -0.99215,3.479825 -1.42257,5.726763 -0.43042,2.246912 -1.0753,5.267103 -1.42256,6.711575 -0.34723,1.444445 -0.91108,3.808104 -1.25845,5.25255 -0.34728,1.444418 -1.01098,4.201981 -1.47725,6.12797 -0.46625,1.925855 -1.19709,5.208675 -1.62314,7.295152 -0.4261,2.086451 -1.10631,5.106642 -1.49557,6.711575 -0.38921,1.60496 -1.04036,4.362469 -1.45905,6.127969 -0.41867,1.76537 -1.22583,5.0483 -1.78725,7.29518 -0.56157,2.24691 -1.11494,4.87315 -1.24019,5.83618 -0.12528,0.9629 -0.60794,3.06393 -1.05785,4.66889 -0.44993,1.60494 -1.10542,4.23122 -1.45905,5.83616 -0.35355,1.60496 -0.98798,4.49385 -1.42251,6.41978 -0.43468,1.92589 -1.20842,5.34006 -1.71443,7.58697 -0.50593,2.24686 -1.46353,6.44889 -2.13379,9.33786 -0.67023,2.88892 -1.50567,6.56567 -1.84203,8.1706 -0.33638,1.60496 -0.97678,3.97606 -1.42261,5.27079 -0.44583,1.29467 -0.80247,3.2141 -0.80247,4.26763 0,1.05363 -0.23669,2.37219 -0.52888,2.9181 -0.29216,0.54592 -0.93547,2.82857 -1.42256,5.07015 -0.48714,2.24164 -1.31259,5.90549 -1.8238,8.1524 -0.51118,2.24694 -1.41584,6.43969 -2.02437,9.31957 -0.60855,2.87994 -1.38476,5.33726 -1.73263,5.45313 -0.74103,0.24709 -0.90152,10.6146 -0.1642,10.6146 0.26149,0 0.90466,0.88376 1.42251,1.96965 1.2113,2.54003 4.91585,5.65231 7.80586,6.54741 3.54937,1.10206 55.72619,1.09972 59.94824,0 5.6879,-1.48153 12.79698,-7.09549 15.21046,-12.00057 1.61021,-3.27253 3.69714,-10.89465 4.96073,-18.11027 0.25295,-1.44447 0.92489,-4.33339 1.47728,-6.41976 1.64271,-6.2042 2.51714,-9.88711 3.82997,-16.04944 0.68377,-3.20989 1.59022,-7.14927 2.02442,-8.75423 1.41497,-5.23 2.20968,-8.70172 2.66275,-11.74526 0.24469,-1.64414 0.70401,-3.4826 1.02133,-4.08529 0.31727,-0.60277 0.77005,-2.53875 1.00307,-4.30414 0.23323,-1.76551 0.77613,-4.09718 1.22196,-5.17963 0.44588,-1.08236 0.8207,-2.50311 0.8207,-3.15517 0,-2.48816 3.1319,-7.74524 6.76629,-11.34405 2.03624,-2.01632 3.96199,-3.66577 4.26769,-3.66577 0.30565,0 0.90719,-0.32844 1.33137,-0.72954 0.42416,-0.40129 2.109,-1.18909 3.75701,-1.75084 2.54689,-0.86812 5.39275,-1.02647 18.96754,-1.07605 8.78409,-0.0328 18.47142,-0.27582 21.52077,-0.54717 3.04943,-0.27113 10.1596,-0.90293 15.79411,-1.38607 5.63449,-0.4832 11.41227,-1.13013 12.83955,-1.45905 1.42723,-0.32892 3.595,-0.6125 4.83306,-0.62007 1.238,-0.0107 3.99559,-0.40691 6.12791,-0.87545 2.13241,-0.46845 5.32919,-1.12565 7.09458,-1.47723 8.79525,-1.75183 21.08379,-4.967236 25.09546,-6.565666 0.80246,-0.31951 2.24694,-0.800387 3.20989,-1.057845 2.22063,-0.593654 6.40403,-2.081546 9.04605,-3.228125 1.12347,-0.487594 3.06614,-1.33716 4.3224,-1.878517 9.71564,-4.186441 30.51591,-16.245882 34.06853,-19.751696 0.40928,-0.403632 1.96192,-1.717736 3.46522,-2.936362 6.21987,-5.042164 10.77967,-9.405486 15.04631,-14.407934 1.60496,-1.881769 3.19121,-3.723769 3.51994,-4.085287 2.94012,-3.233909 9.81874,-13.967092 12.25594,-19.113423 0.8154,-1.721814 1.70963,-3.530868 1.96968,-4.012359 1.32676,-2.456418 2.47835,-5.358502 3.59287,-9.04602 0.67913,-2.246912 1.60698,-4.946207 2.06088,-6.000294 0.45391,-1.054114 0.82076,-2.3726956 0.82076,-2.9363626 0,-0.5635871 0.41584,-2.5916637 0.93009,-4.5047518 0.93315,-3.4719619 1.38873,-6.9687926 2.64452,-20.6636866 0.66319,-7.232248 0.59045,-8.563571 -1.2037,-26.153144 -0.27066,-2.653635 -0.78072,-5.542499 -1.13075,-6.419785 -0.35006,-0.877287 -0.87891,-2.655502 -1.18547,-3.939432 -0.30637,-1.283904 -0.98324,-3.516289 -1.49551,-4.960734 -3.64581,-10.280027 -8.98666,-18.607863 -17.01605,-26.536252 -4.84199,-4.781107 -13.44178,-11.398698 -14.82748,-11.398698 -0.30826,0 -0.56537,-0.218835 -0.56537,-0.492472 0,-0.273483 -1.77272,-1.345761 -3.93938,-2.370912 -2.16671,-1.025202 -4.33333,-2.064072 -4.81482,-2.316212 -3.11338,-1.6306 -4.84444,-2.40741 -5.36197,-2.40741 -0.32658,0 -1.41417,-0.35571 -2.42566,-0.80247 -2.70268,-1.19417 -7.32063,-2.68996 -10.19503,-3.3011 -1.38564,-0.29462 -2.82697,-0.72296 -3.19166,-0.94837 -0.67926,-0.41961 -6.1522,-1.57083 -12.38356,-2.58978 -1.92591,-0.31482 -4.81482,-0.83935 -6.41976,-1.16724 -1.60496,-0.32798 -6.98881,-0.87122 -11.96412,-1.20371 -5.84045,-0.39047 -9.5064,-0.8917 -10.34091,-1.42258 -1.09236,-0.69477 -11.60117,-0.82065 -67.79059,-0.82065 z m 14.33506,62.20968 c 2.78643,-0.01333 6.43602,-0.01333 11.27108,0 19.12454,0.05224 19.67845,0.09302 25.38725,1.586675 8.92999,2.336471 11.28309,3.039542 11.74526,3.501682 0.23349,0.233495 2.13421,1.234352 4.23119,2.225108 4.58802,2.16772 11.21358,8.581482 13.715,13.277242 4.65087,8.730855 5.05522,25.2702325 0.91191,37.4243248 -3.24463,9.5176222 -10.91345,20.0850932 -18.2745,25.1684122 -7.01037,4.841054 -8.29721,5.631339 -12.62068,7.659949 -10.83156,5.082093 -22.86142,7.937025 -37.93498,9.027735 -9.58196,0.693396 -25.53784,0.614311 -28.2506,-0.145801 -6.95008,-1.947633 -12.70491,-10.642131 -10.94279,-16.523598 0.37215,-1.241816 0.67479,-2.828251 0.67479,-3.519861 0,-0.691876 0.49466,-3.169297 1.11256,-5.489696 0.61781,-2.320399 1.44498,-5.52608 1.82377,-7.13104 0.37871,-1.604986 1.05761,-4.4938498 1.51372,-6.4197322 0.45628,-1.9260156 1.175,-5.0775347 1.60496,-7.00341708 0.42994,-1.92590902 1.07811,-4.68352482 1.4408,-6.12791662 0.36277,-1.4445251 1.59752,-6.6969951 2.73568,-11.6723081 1.1382,-4.975341 2.44986,-10.38574 2.9181,-12.018874 0.46846,-1.633187 0.85721,-3.677576 0.85721,-4.541215 0,-1.718562 2.57549,-7.135598 4.81483,-10.122097 0.77949,-1.039587 2.44994,-2.684849 3.70229,-3.64759 1.25237,-0.962768 2.57831,-2.000889 2.9363,-2.297982 0.35806,-0.29696 1.93378,-1.146819 3.50169,-1.896749 2.11497,-1.011653 2.76588,-1.268124 11.12516,-1.313144 z"
       style="fill:#dcdbdb;fill-opacity:1"
       inkscape:connector-curvature="0" />
  </g>
</svg>
