<svg xmlns="http://www.w3.org/2000/svg" xmlns:xlink="http://www.w3.org/1999/xlink" viewBox="0 0 512 512"><defs><filter id="7"><feGaussianBlur stdDeviation="3.7725"/></filter><linearGradient id="8" y1="19.564" x2="0" y2="504.02" gradientUnits="userSpaceOnUse"><stop stop-color="#f3f3f3"/><stop offset=".5" stop-color="#eee"/><stop offset="1" stop-color="#ebebeb"/></linearGradient><linearGradient xlink:href="#0" id="5" gradientUnits="userSpaceOnUse" gradientTransform="matrix(1.02835 0 0 1.46193 209.19-118.25)" x1="257" x2="362"/><linearGradient xlink:href="#0" id="6" gradientUnits="userSpaceOnUse" gradientTransform="matrix(1.0381 0 0 1.46193-337.29-118.25)" x1="257" x2="362"/><linearGradient xlink:href="#0" id="4" gradientUnits="userSpaceOnUse" gradientTransform="matrix(1.02835 0 0 1.46193 101.22-118.25)" x1="257" x2="362"/><linearGradient xlink:href="#0" id="3" gradientUnits="userSpaceOnUse" gradientTransform="matrix(1.0381 0 0 1.46193-10.289-118.25)" x1="257" x2="362"/><linearGradient id="0"><stop/><stop offset="1" stop-color="#fff"/></linearGradient><linearGradient xlink:href="#0" id="2" gradientUnits="userSpaceOnUse" gradientTransform="matrix(1.0381 0 0 1.46193-119.29-118.25)" x1="257" x2="362"/><linearGradient xlink:href="#0" id="1" gradientUnits="userSpaceOnUse" gradientTransform="matrix(1.0381 0 0 1.46193-228.29-118.25)" x1="257" x2="362"/></defs><path d="m78.66 6c-.929 0-1.861.028-2.781.063-.073.003-.146-.003-.219 0-.668.027-1.337.08-2 .125-.376.025-.751.063-1.125.094-.645.053-1.297.086-1.938.156-.965.106-1.922.232-2.875.375-.052.008-.104.023-.156.031-1.082.165-2.154.351-3.219.563-.459.091-.919.182-1.375.281-.39.085-.769.19-1.156.281-.647.152-1.297.299-1.938.469-.898.238-1.804.479-2.688.75-.211.065-.414.152-.625.219-.991.314-1.966.645-2.938 1-.817.298-1.635.611-2.438.938-.29.118-.587.222-.875.344-.136.057-.27.129-.406.188-.082.035-.169.058-.25.094-.717.311-1.42.636-2.125.969-.147.069-.291.148-.438.219-.947.455-1.889.943-2.813 1.438-.271.145-.544.289-.813.438-.414.228-.81.483-1.219.719-.52.3-1.051.594-1.563.906-.738.452-1.467.898-2.188 1.375-.031.021-.062.042-.094.063-.456.303-.895.625-1.344.938-.123.086-.252.163-.375.25-.524.37-1.049.742-1.563 1.125-1.835 1.371-3.618 2.84-5.313 4.375-.017.015-.046.016-.063.031-.526.477-1.02.977-1.531 1.469-.524.505-1.054 1.011-1.563 1.531-.512.523-1 1.055-1.5 1.594-.941 1.022-1.837 2.05-2.719 3.125-.631.769-1.244 1.58-1.844 2.375-.111.148-.233.289-.344.438-.526.71-1.031 1.427-1.531 2.156-.11.16-.235.308-.344.469-.013.019-.018.043-.031.063-.084.125-.167.249-.25.375-.47.708-.929 1.431-1.375 2.156-.071.116-.148.227-.219.344-.575.948-1.124 1.899-1.656 2.875-.152.278-.289.564-.438.844-.18.341-.356.687-.531 1.031-.243.479-.486.952-.719 1.438-.426.885-.828 1.783-1.219 2.688-.24.556-.461 1.124-.688 1.688-.038.095-.087.186-.125.281-.246.621-.489 1.245-.719 1.875-.332.909-.641 1.825-.938 2.75-.11.345-.238.684-.344 1.031-.301.99-.585 1.992-.844 3-.008.032-.023.062-.031.094-.267 1.046-.497 2.092-.719 3.156-.034.166-.06.334-.094.5-.426 2.117-.762 4.257-1 6.438-.035.323-.063.645-.094.969-.09.938-.165 1.895-.219 2.844-.017.29-.018.584-.031.875-.051 1.119-.094 2.243-.094 3.375v354.69 6c0 40.24 32.411 72.66 72.66 72.66h354.69c40.24 0 72.66-32.411 72.66-72.66v-354.69-6c0-1.259-.031-2.507-.094-3.75-.016-.323-.042-.647-.063-.969-.058-.917-.127-1.843-.219-2.75-.02-.2-.041-.394-.063-.594-.246-2.245-.587-4.447-1.031-6.625-.021-.104-.041-.209-.063-.313-.227-1.087-.476-2.15-.75-3.219-.011-.042-.02-.083-.031-.125-.19-.732-.413-1.464-.625-2.188-.212-.724-.423-1.442-.656-2.156-.258-.789-.529-1.567-.813-2.344-.23-.63-.472-1.254-.719-1.875-.038-.096-.087-.186-.125-.281-.239-.594-.465-1.195-.719-1.781-.378-.871-.777-1.741-1.188-2.594-.233-.485-.475-.958-.719-1.438-.287-.564-.574-1.132-.875-1.688-.051-.094-.105-.188-.156-.281-.513-.936-1.041-1.871-1.594-2.781-.212-.35-.438-.685-.656-1.031-.405-.642-.795-1.278-1.219-1.906-.809-1.199-1.685-2.354-2.563-3.5-.262-.341-.514-.695-.781-1.031-.189-.238-.371-.483-.563-.719-.093-.114-.188-.231-.281-.344-2.71-3.286-5.696-6.301-8.938-9.06-.293-.249-.578-.505-.875-.75-.268-.221-.541-.439-.813-.656-.636-.509-1.284-1.012-1.938-1.5-3.17-2.368-6.55-4.481-10.09-6.313-.617-.319-1.248-.636-1.875-.938-.155-.074-.313-.145-.469-.219-.785-.371-1.575-.719-2.375-1.063-.488-.209-.975-.426-1.469-.625-.735-.296-1.472-.571-2.219-.844-.392-.143-.793-.27-1.188-.406-.718-.248-1.459-.524-2.188-.75-.114-.035-.23-.059-.344-.094-.488-.149-.977-.267-1.469-.406-.357-.1-.703-.217-1.063-.313-.019-.005-.043.005-.063 0-.837-.221-1.683-.433-2.531-.625-.032-.007-.062-.024-.094-.031-.651-.146-1.311-.278-1.969-.406-1-.197-2.01-.376-3.03-.531-.063-.01-.125-.022-.188-.031-.952-.143-1.88-.269-2.844-.375-.836-.091-1.687-.156-2.531-.219-.176-.013-.355-.019-.531-.031-.735-.049-1.478-.097-2.219-.125-.92-.034-1.853-.063-2.781-.063h-285.84-68.844" filter="url(#7)" fill-opacity=".176"/><rect width="500" height="500" x="6" y="12" rx="72.64" opacity=".15"/><rect rx="72.64" y="6" x="6" height="500" width="500" fill="url(#8)"/><path d="m78.66 6c-14.863 0-28.67 4.43-40.16 12.03v475.94c11.486 7.602 25.293 12.03 40.16 12.03h68.844v-500h-68.844" opacity=".05" fill="url(#1)"/><path d="m147.5 6v500h109v-500h-109" opacity=".05" fill="url(#2)"/><path d="m256.5 6v500h109v-500h-109" opacity=".05" fill="url(#3)"/><path d="m365.5 6v500h67.844c14.854 0 28.643-4.438 40.13-12.03v-475.94c-11.482-7.593-25.27-12.03-40.12-12.03h-67.844" opacity=".05" fill="url(#4)"/><path d="m38.5 18.03c-19.614 12.981-32.5 35.24-32.5 60.63v354.69c0 25.381 12.886 47.644 32.5 60.63v-475.94" opacity=".05" fill="url(#6)"/><path d="m473.47 18.03v475.94c19.627-12.979 32.531-35.23 32.531-60.62v-354.69c0-25.391-12.905-47.646-32.531-60.62" opacity=".05" fill="url(#5)"/><rect width="435" height="435" x="38.5" y="38.5" rx="63.2" fill="#369"/><path d="m101.69 38.5c-35.01 0-63.19 28.17-63.19 63.19v15c0-35.01 28.17-63.19 63.19-63.19h308.63c35.01 0 63.19 28.17 63.19 63.19v-15c0-35.01-28.17-63.19-63.19-63.19h-308.62" opacity=".2"/><path d="m78.66 6c-40.24 0-72.66 32.411-72.66 72.66v7c0-40.24 32.411-72.66 72.66-72.66h354.69c40.24 0 72.66 32.411 72.66 72.66v-7c0-40.24-32.411-72.66-72.66-72.66h-354.69" fill="#fff"/><g transform="translate(684.01 197.53)"><path d="m-432.34-101.53c-58.56 0-66.53.104-66.824.875-.185.481-.662.875-1.076.875-1.826 0-6.871 3.332-9.976 6.602-3.584 3.773-5.429 7.189-6.237 11.49-.271 1.444-.758 3.677-1.076 4.961-.318 1.284-.872 3.648-1.24 5.253-.368 1.605-1.082 4.625-1.568 6.712-.487 2.086-1.214 5.539-1.623 7.66-.409 2.121-.921 4.129-1.131 4.468-.353.571-.902 3.055-2.918 12.967-.864 4.247-1.822 8.193-3.046 12.602-.453 1.633-.821 3.501-.821 4.158 0 .657-.381 2.469-.839 4.03-.458 1.562-1.377 5.274-2.043 8.244-.666 2.969-1.76 7.828-2.426 10.797-.666 2.969-1.585 6.682-2.043 8.244-.458 1.562-.821 3.662-.821 4.669 0 1.01-.396 2.582-.875 3.502-.479.919-.875 2.509-.875 3.538 0 1.03-.37 3.03-.821 4.45-.451 1.421-1.403 5.216-2.116 8.426-.712 3.21-1.655 7-2.097 8.426-.442 1.421-.802 3.333-.802 4.25 0 .916-.35 2.518-.784 3.556-.434 1.038-.992 3.197-1.222 4.797-.23 1.6-.781 4.198-1.24 5.781-.46 1.583-.839 3.582-.839 4.45 0 .868-.396 2.345-.875 3.265-.48.919-.875 2.366-.875 3.228 0 .862-.285 2.306-.638 3.21-.353.904-.992 3.48-1.423 5.727-.43 2.247-1.075 5.267-1.423 6.712-.347 1.444-.911 3.808-1.258 5.253-.347 1.444-1.01 4.202-1.477 6.128-.466 1.926-1.197 5.209-1.623 7.295-.426 2.086-1.106 5.107-1.496 6.712-.389 1.605-1.04 4.362-1.459 6.128-.419 1.765-1.226 5.05-1.787 7.295-.562 2.247-1.115 4.873-1.24 5.836-.125.963-.608 3.064-1.058 4.669-.45 1.605-1.105 4.231-1.459 5.836-.354 1.605-.988 4.494-1.423 6.42-.435 1.926-1.208 5.34-1.714 7.587-.506 2.247-1.464 6.449-2.134 9.338-.67 2.889-1.506 6.566-1.842 8.171-.336 1.605-.977 3.976-1.423 5.271-.446 1.295-.802 3.214-.802 4.268 0 1.054-.237 2.372-.529 2.918-.292.546-.935 2.829-1.423 5.07-.487 2.242-1.313 5.905-1.824 8.152-.511 2.247-1.416 6.44-2.024 9.32-.609 2.88-1.385 5.337-1.733 5.453-.741.247-.902 10.615-.164 10.615.261 0 .905.884 1.423 1.97 1.211 2.54 4.916 5.652 7.806 6.547 3.549 1.102 55.726 1.1 59.948 0 5.688-1.482 12.797-7.095 15.21-12 1.61-3.273 3.697-10.895 4.961-18.11.253-1.444.925-4.333 1.477-6.42 1.643-6.204 2.517-9.887 3.83-16.05.684-3.21 1.59-7.149 2.024-8.754 1.415-5.23 2.21-8.702 2.663-11.745.245-1.644.704-3.483 1.021-4.085.317-.603.77-2.539 1-4.304.233-1.766.776-4.097 1.222-5.18.446-1.082.821-2.503.821-3.155 0-2.488 3.132-7.745 6.766-11.344 2.036-2.02 3.962-3.666 4.268-3.666.306 0 .907-.328 1.331-.73.424-.401 2.109-1.189 3.757-1.751 2.547-.868 5.393-1.026 18.968-1.076 8.784-.033 18.471-.276 21.521-.547 3.049-.271 10.16-.903 15.794-1.386 5.634-.483 11.412-1.13 12.84-1.459 1.427-.329 3.595-.612 4.833-.62 1.238-.011 3.996-.407 6.128-.875 2.132-.468 5.329-1.126 7.095-1.477 8.795-1.752 21.08-4.967 25.1-6.566.802-.32 2.247-.8 3.21-1.058 2.221-.594 6.404-2.082 9.05-3.228 1.123-.488 3.066-1.337 4.322-1.879 9.716-4.186 30.516-16.246 34.07-19.752.409-.404 1.962-1.718 3.465-2.936 6.22-5.04 10.78-9.405 15.05-14.408 1.605-1.882 3.191-3.724 3.52-4.085 2.94-3.234 9.819-13.967 12.256-19.11.815-1.722 1.71-3.531 1.97-4.01 1.327-2.456 2.478-5.359 3.593-9.05.679-2.247 1.607-4.946 2.061-6 .454-1.054.821-2.373.821-2.936 0-.564.416-2.592.93-4.505.933-3.472 1.389-6.969 2.645-20.664.663-7.232.59-8.564-1.204-26.15-.271-2.654-.781-5.542-1.131-6.42-.35-.877-.879-2.656-1.185-3.939-.306-1.284-.983-3.516-1.496-4.961-3.646-10.28-8.987-18.608-17.02-26.536-4.842-4.781-13.442-11.399-14.827-11.399-.308 0-.565-.219-.565-.492 0-.273-1.773-1.346-3.939-2.371-2.167-1.025-4.333-2.064-4.815-2.316-3.113-1.631-4.844-2.407-5.362-2.407-.327 0-1.414-.356-2.426-.802-2.703-1.194-7.321-2.69-10.195-3.301-1.386-.295-2.827-.723-3.192-.948-.679-.42-6.152-1.571-12.384-2.59-1.926-.315-4.815-.839-6.42-1.167-1.605-.328-6.989-.871-11.964-1.204-5.84-.39-9.506-.892-10.341-1.423-1.092-.695-11.601-.821-67.791-.821m14.335 62.21c2.786-.013 6.436-.013 11.271 0 19.12.052 19.678.093 25.387 1.587 8.93 2.336 11.283 3.04 11.745 3.502.233.233 2.134 1.234 4.231 2.225 4.588 2.168 11.214 8.581 13.715 13.277 4.651 8.731 5.055 25.27.912 37.424-3.245 9.518-10.913 20.09-18.274 25.17-7.01 4.841-8.297 5.631-12.621 7.66-10.832 5.082-22.861 7.937-37.935 9.03-9.582.693-25.538.614-28.25-.146-6.95-1.948-12.705-10.642-10.943-16.524.372-1.242.675-2.828.675-3.52 0-.692.495-3.169 1.113-5.49.618-2.32 1.445-5.526 1.824-7.131.379-1.605 1.058-4.494 1.514-6.42.456-1.926 1.175-5.078 1.605-7 .43-1.926 1.078-4.684 1.441-6.128.363-1.445 1.598-6.697 2.736-11.672 1.138-4.975 2.45-10.386 2.918-12.02.468-1.633.857-3.678.857-4.541 0-1.719 2.575-7.136 4.815-10.122.779-1.04 2.45-2.685 3.702-3.648 1.252-.963 2.578-2 2.936-2.298.358-.297 1.934-1.147 3.502-1.897 2.115-1.012 2.766-1.268 11.125-1.313" opacity=".2"/><path d="m-447.34-116.53c-58.56 0-66.53.104-66.824.875-.185.481-.662.875-1.076.875-1.826 0-6.871 3.332-9.976 6.602-3.584 3.773-5.429 7.189-6.237 11.49-.271 1.444-.758 3.677-1.076 4.961-.318 1.284-.872 3.648-1.24 5.253-.368 1.605-1.082 4.625-1.568 6.712-.487 2.086-1.214 5.539-1.623 7.66-.409 2.121-.921 4.129-1.131 4.468-.353.571-.902 3.055-2.918 12.967-.864 4.247-1.822 8.193-3.046 12.602-.453 1.633-.821 3.501-.821 4.158 0 .657-.381 2.469-.839 4.03-.458 1.562-1.377 5.274-2.043 8.244-.666 2.969-1.76 7.828-2.426 10.797-.666 2.969-1.585 6.682-2.043 8.244-.458 1.562-.821 3.662-.821 4.669 0 1.01-.396 2.582-.875 3.502-.479.919-.875 2.509-.875 3.538 0 1.03-.37 3.03-.821 4.45-.451 1.421-1.403 5.216-2.116 8.426-.712 3.21-1.655 7-2.097 8.426-.442 1.421-.802 3.333-.802 4.25 0 .916-.35 2.518-.784 3.556-.434 1.038-.992 3.197-1.222 4.797-.23 1.6-.781 4.198-1.24 5.781-.46 1.583-.839 3.582-.839 4.45 0 .868-.396 2.345-.875 3.265-.48.919-.875 2.366-.875 3.228 0 .862-.285 2.306-.638 3.21-.353.904-.992 3.48-1.423 5.727-.43 2.247-1.075 5.267-1.423 6.712-.347 1.444-.911 3.808-1.258 5.253-.347 1.444-1.01 4.202-1.477 6.128-.466 1.926-1.197 5.209-1.623 7.295-.426 2.086-1.106 5.107-1.496 6.712-.389 1.605-1.04 4.362-1.459 6.128-.419 1.765-1.226 5.05-1.787 7.295-.562 2.247-1.115 4.873-1.24 5.836-.125.963-.608 3.064-1.058 4.669-.45 1.605-1.105 4.231-1.459 5.836-.354 1.605-.988 4.494-1.423 6.42-.435 1.926-1.208 5.34-1.714 7.587-.506 2.247-1.464 6.449-2.134 9.338-.67 2.889-1.506 6.566-1.842 8.171-.336 1.605-.977 3.976-1.423 5.271-.446 1.295-.802 3.214-.802 4.268 0 1.054-.237 2.372-.529 2.918-.292.546-.935 2.829-1.423 5.07-.487 2.242-1.313 5.905-1.824 8.152-.511 2.247-1.416 6.44-2.024 9.32-.609 2.88-1.385 5.337-1.733 5.453-.741.247-.902 10.615-.164 10.615.261 0 .905.884 1.423 1.97 1.211 2.54 4.916 5.652 7.806 6.547 3.549 1.102 55.726 1.1 59.948 0 5.688-1.482 12.797-7.095 15.21-12 1.61-3.273 3.697-10.895 4.961-18.11.253-1.444.925-4.333 1.477-6.42 1.643-6.204 2.517-9.887 3.83-16.05.684-3.21 1.59-7.149 2.024-8.754 1.415-5.23 2.21-8.702 2.663-11.745.245-1.644.704-3.483 1.021-4.085.317-.603.77-2.539 1-4.304.233-1.766.776-4.097 1.222-5.18.446-1.082.821-2.503.821-3.155 0-2.488 3.132-7.745 6.766-11.344 2.036-2.02 3.962-3.666 4.268-3.666.306 0 .907-.328 1.331-.73.424-.401 2.109-1.189 3.757-1.751 2.547-.868 5.393-1.026 18.968-1.076 8.784-.033 18.471-.276 21.521-.547 3.049-.271 10.16-.903 15.794-1.386 5.634-.483 11.412-1.13 12.84-1.459 1.427-.329 3.595-.612 4.833-.62 1.238-.011 3.996-.407 6.128-.875 2.132-.468 5.329-1.126 7.095-1.477 8.795-1.752 21.08-4.967 25.1-6.566.802-.32 2.247-.8 3.21-1.058 2.221-.594 6.404-2.082 9.05-3.228 1.123-.488 3.066-1.337 4.322-1.879 9.716-4.186 30.516-16.246 34.07-19.752.409-.404 1.962-1.718 3.465-2.936 6.22-5.04 10.78-9.405 15.05-14.408 1.605-1.882 3.191-3.724 3.52-4.085 2.94-3.234 9.819-13.967 12.256-19.11.815-1.722 1.71-3.531 1.97-4.01 1.327-2.456 2.478-5.359 3.593-9.05.679-2.247 1.607-4.946 2.061-6 .454-1.054.821-2.373.821-2.936 0-.564.416-2.592.93-4.505.933-3.472 1.389-6.969 2.645-20.664.663-7.232.59-8.564-1.204-26.15-.271-2.654-.781-5.542-1.131-6.42-.35-.877-.879-2.656-1.185-3.939-.306-1.284-.983-3.516-1.496-4.961-3.646-10.28-8.987-18.608-17.02-26.536-4.842-4.781-13.442-11.399-14.827-11.399-.308 0-.565-.219-.565-.492 0-.273-1.773-1.346-3.939-2.371-2.167-1.025-4.333-2.064-4.815-2.316-3.113-1.631-4.844-2.407-5.362-2.407-.327 0-1.414-.356-2.426-.802-2.703-1.194-7.321-2.69-10.195-3.301-1.386-.295-2.827-.723-3.192-.948-.679-.42-6.152-1.571-12.384-2.59-1.926-.315-4.815-.839-6.42-1.167-1.605-.328-6.989-.871-11.964-1.204-5.84-.39-9.506-.892-10.341-1.423-1.092-.695-11.601-.821-67.791-.821m14.335 62.21c2.786-.013 6.436-.013 11.271 0 19.12.052 19.678.093 25.387 1.587 8.93 2.336 11.283 3.04 11.745 3.502.233.233 2.134 1.234 4.231 2.225 4.588 2.168 11.214 8.581 13.715 13.277 4.651 8.731 5.055 25.27.912 37.424-3.245 9.518-10.913 20.09-18.274 25.17-7.01 4.841-8.297 5.631-12.621 7.66-10.832 5.082-22.861 7.937-37.935 9.03-9.582.693-25.538.614-28.25-.146-6.95-1.948-12.705-10.642-10.943-16.524.372-1.242.675-2.828.675-3.52 0-.692.495-3.169 1.113-5.49.618-2.32 1.445-5.526 1.824-7.131.379-1.605 1.058-4.494 1.514-6.42.456-1.926 1.175-5.078 1.605-7 .43-1.926 1.078-4.684 1.441-6.128.363-1.445 1.598-6.697 2.736-11.672 1.138-4.975 2.45-10.386 2.918-12.02.468-1.633.857-3.678.857-4.541 0-1.719 2.575-7.136 4.815-10.122.779-1.04 2.45-2.685 3.702-3.648 1.252-.963 2.578-2 2.936-2.298.358-.297 1.934-1.147 3.502-1.897 2.115-1.012 2.766-1.268 11.125-1.313" fill="#dcdbdb"/></g></svg>