<?xml version="1.0" encoding="UTF-8" standalone="no"?>
<svg
   xmlns:dc="http://purl.org/dc/elements/1.1/"
   xmlns:cc="http://creativecommons.org/ns#"
   xmlns:rdf="http://www.w3.org/1999/02/22-rdf-syntax-ns#"
   xmlns:svg="http://www.w3.org/2000/svg"
   xmlns="http://www.w3.org/2000/svg"
   xmlns:xlink="http://www.w3.org/1999/xlink"
   xmlns:sodipodi="http://sodipodi.sourceforge.net/DTD/sodipodi-0.dtd"
   xmlns:inkscape="http://www.inkscape.org/namespaces/inkscape"
   viewBox="0 0 512 512"
   id="svg2"
   version="1.1"
   inkscape:version="0.48.4 r9939"
   width="100%"
   height="100%"
   sodipodi:docname="base.svg">
  <sodipodi:namedview
     pagecolor="#444444"
     bordercolor="#666666"
     borderopacity="1"
     objecttolerance="10"
     gridtolerance="10"
     guidetolerance="10"
     inkscape:pageopacity="0"
     inkscape:pageshadow="2"
     inkscape:window-width="1310"
     inkscape:window-height="718"
     id="namedview6"
     showgrid="false"
     showguides="true"
     inkscape:guide-bbox="true"
     inkscape:zoom="0.36635945"
     inkscape:cx="317.03963"
     inkscape:cy="553.55216"
     inkscape:window-x="54"
     inkscape:window-y="27"
     inkscape:window-maximized="1"
     inkscape:current-layer="svg2"
     inkscape:snap-midpoints="true"
     inkscape:snap-global="false">
    <sodipodi:guide
       id="guide2989"
       position="522.57628,433.35594"
       orientation="0,1" />
    <sodipodi:guide
       id="guide2995"
       position="473.05444,254.912"
       orientation="1,0" />
  </sodipodi:namedview>
  <metadata
     id="metadata10">
    <rdf:RDF>
      <cc:Work
         rdf:about="">
        <dc:format>image/svg+xml</dc:format>
        <dc:type
           rdf:resource="http://purl.org/dc/dcmitype/StillImage" />
        <dc:title></dc:title>
      </cc:Work>
    </rdf:RDF>
  </metadata>
  <defs
     id="defs8">
    <linearGradient
       id="linearGradient4996">
      <stop
         style="stop-color:#000000;stop-opacity:1;"
         offset="0"
         id="stop4998" />
      <stop
         style="stop-color:#ffffff;stop-opacity:1;"
         offset="1"
         id="stop5000" />
    </linearGradient>
    <linearGradient
       inkscape:collect="always"
       xlink:href="#linearGradient4996"
       id="linearGradient3108"
       gradientUnits="userSpaceOnUse"
       gradientTransform="matrix(1.0380952,0,0,1.4619252,-228.28943,-118.25286)"
       x1="257"
       y1="256"
       x2="362"
       y2="256" />
    <linearGradient
       inkscape:collect="always"
       xlink:href="#linearGradient4996"
       id="linearGradient3137"
       gradientUnits="userSpaceOnUse"
       gradientTransform="matrix(1.0380952,0,0,1.4619252,-119.28943,-118.25286)"
       x1="257"
       y1="256"
       x2="362"
       y2="256" />
    <linearGradient
       inkscape:collect="always"
       xlink:href="#linearGradient4996"
       id="linearGradient3141"
       gradientUnits="userSpaceOnUse"
       gradientTransform="matrix(1.0380952,0,0,1.4619252,-10.28943,-118.25286)"
       x1="257"
       y1="256"
       x2="362"
       y2="256" />
    <linearGradient
       inkscape:collect="always"
       xlink:href="#linearGradient4996"
       id="linearGradient3145"
       gradientUnits="userSpaceOnUse"
       gradientTransform="matrix(1.0283468,0,0,1.4619252,101.21591,-118.25286)"
       x1="257"
       y1="256"
       x2="362"
       y2="256" />
    <linearGradient
       inkscape:collect="always"
       xlink:href="#linearGradient4996"
       id="linearGradient3149"
       gradientUnits="userSpaceOnUse"
       gradientTransform="matrix(1.0283468,0,0,1.4619252,209.19233,-118.25286)"
       x1="257"
       y1="256"
       x2="362"
       y2="256" />
    <linearGradient
       inkscape:collect="always"
       xlink:href="#linearGradient4996"
       id="linearGradient3153"
       gradientUnits="userSpaceOnUse"
       gradientTransform="matrix(1.0380952,0,0,1.4619252,-337.28943,-118.25286)"
       x1="257"
       y1="256"
       x2="362"
       y2="256" />
  </defs>
  <rect
     style="opacity:0.2;fill:#000000;fill-opacity:1;stroke:none"
     id="rect5028"
     width="500"
     height="500"
     x="6"
     y="12"
     rx="72.644058"
     ry="72.644058" />
  <rect
     ry="72.644058"
     rx="72.644058"
     y="6"
     x="6"
     height="500"
     width="500"
     id="rect4979"
     style="fill:#f3f3f3;fill-opacity:1;stroke:none" />
  <rect
     style="fill:#d23638;fill-opacity:1;stroke:none"
     id="rect4981"
     width="434.99997"
     height="434.99997"
     x="38.500011"
     y="38.500011"
     rx="63.200329"
     ry="63.200329" />
  <path
     style="fill:#000000;fill-opacity:1;stroke:none;opacity:0.2"
     d="M 101.6875 38.5 C 66.674518 38.5 38.5 66.674518 38.5 101.6875 L 38.5 116.6875 C 38.5 81.674518 66.674518 53.5 101.6875 53.5 L 410.3125 53.5 C 445.32548 53.5 473.5 81.674518 473.5 116.6875 L 473.5 101.6875 C 473.5 66.674518 445.32548 38.5 410.3125 38.5 L 101.6875 38.5 z "
     id="rect3187" />
  <g
     id="g3054"
     transform="translate(610.22098,660.65153)">
    <path
       inkscape:connector-curvature="0"
       style="opacity:0.2;fill:#000000;fill-opacity:1"
       d="m -412.63336,-234.78953 c 6.72077,-8.73415 16.137,-23.75534 21.59494,-34.44924 6.42175,-12.58229 9.30227,-21.36209 17.04117,-51.94131 3.31201,-13.08696 6.21831,-23.77961 6.45844,-23.76144 0.24014,0.0182 1.69561,1.74547 3.23439,3.83845 3.32426,4.52152 13.85906,11.79525 20.95086,14.46549 18.14824,6.83327 41.53261,5.24197 61.67471,-4.19694 23.50128,-11.01306 42.68433,-32.59717 53.55299,-60.25594 11.28238,-28.71161 14.39032,-65.10433 7.6928,-90.07932 -9.31419,-34.73253 -38.03284,-64.32798 -74.2051,-76.47061 -42.0069,-14.10124 -95.9118,-6.44294 -130.76995,18.57859 -33.8139,24.27195 -53.27884,63.0921 -50.90495,101.52291 1.95884,31.71169 14.48512,54.43104 36.04313,65.37269 4.62655,2.34819 9.08549,2.42115 11.11204,0.18185 1.4843,-1.64013 6.54831,-19.5809 6.58653,-23.33471 0.0105,-1.03303 -1.70048,-4.17665 -3.80219,-6.98583 -5.17595,-6.91821 -8.76319,-14.32903 -10.5913,-21.8804 -2.26799,-9.36831 -1.45539,-29.11096 1.65686,-40.25467 12.32774,-44.14066 52.62022,-70.73775 100.76212,-66.51312 38.19043,3.35135 63.04667,24.51615 69.13037,58.8637 2.14857,12.1305 0.58524,37.44216 -3.32785,53.88061 -9.69471,40.72637 -34.86425,66.06136 -61.38653,61.79008 -14.38893,-2.31727 -24.34143,-12.30692 -25.71119,-25.80712 -0.63087,-6.21787 0.41061,-10.9524 7.94162,-36.10204 7.87723,-26.30584 9.36605,-33.05258 9.34583,-42.35161 -0.0223,-10.26915 -2.29484,-16.61766 -7.98545,-22.30828 -5.38122,-5.38122 -11.02105,-7.3106 -19.73512,-6.75137 -14.86974,0.95428 -26.89432,12.28263 -32.69942,30.8061 -3.86106,12.32024 -3.09132,32.45455 1.72537,45.13105 l 1.62264,4.27046 -11.32539,47.77727 c -6.22897,26.2775 -12.28077,52.29466 -13.44845,57.81592 -4.1457,19.60246 -4.64157,38.16101 -1.67473,62.67874 0.65522,5.41468 1.42832,10.22835 1.718,10.69706 1.28367,2.07702 4.02764,0.57514 7.72281,-4.22702 z"
       id="path3050" />
    <path
       inkscape:connector-curvature="0"
       id="path3044"
       d="m -427.63336,-249.78953 c 6.72077,-8.73415 16.137,-23.75534 21.59494,-34.44924 6.42175,-12.58229 9.30227,-21.36209 17.04117,-51.94131 3.31201,-13.08696 6.21831,-23.77961 6.45844,-23.76144 0.24014,0.0182 1.69561,1.74547 3.23439,3.83845 3.32426,4.52152 13.85906,11.79525 20.95086,14.46549 18.14824,6.83327 41.53261,5.24197 61.67471,-4.19694 23.50128,-11.01306 42.68433,-32.59717 53.55299,-60.25594 11.28238,-28.71161 14.39032,-65.10433 7.6928,-90.07932 -9.31419,-34.73253 -38.03284,-64.32798 -74.2051,-76.47061 -42.0069,-14.10124 -95.9118,-6.44294 -130.76995,18.57859 -33.8139,24.27195 -53.27884,63.0921 -50.90495,101.52291 1.95884,31.71169 14.48512,54.43104 36.04313,65.37269 4.62655,2.34819 9.08549,2.42115 11.11204,0.18185 1.4843,-1.64013 6.54831,-19.5809 6.58653,-23.33471 0.0105,-1.03303 -1.70048,-4.17665 -3.80219,-6.98583 -5.17595,-6.91821 -8.76319,-14.32903 -10.5913,-21.8804 -2.26799,-9.36831 -1.45539,-29.11096 1.65686,-40.25467 12.32774,-44.14066 52.62022,-70.73775 100.76212,-66.51312 38.19043,3.35135 63.04667,24.51615 69.13037,58.8637 2.14857,12.1305 0.58524,37.44216 -3.32785,53.88061 -9.69471,40.72637 -34.86425,66.06136 -61.38653,61.79008 -14.38893,-2.31727 -24.34143,-12.30692 -25.71119,-25.80712 -0.63087,-6.21787 0.41061,-10.9524 7.94162,-36.10204 7.87723,-26.30584 9.36605,-33.05258 9.34583,-42.35161 -0.0223,-10.26915 -2.29484,-16.61766 -7.98545,-22.30828 -5.38122,-5.38122 -11.02105,-7.3106 -19.73512,-6.75137 -14.86974,0.95428 -26.89432,12.28263 -32.69942,30.8061 -3.86106,12.32024 -3.09132,32.45455 1.72537,45.13105 l 1.62264,4.27046 -11.32539,47.77727 c -6.22897,26.2775 -12.28077,52.29466 -13.44845,57.81592 -4.1457,19.60246 -4.64157,38.16101 -1.67473,62.67874 0.65522,5.41468 1.42832,10.22835 1.718,10.69706 1.28367,2.07702 4.02764,0.57514 7.72281,-4.22702 z"
       style="fill:#dcdbdb;fill-opacity:1" />
  </g>
  <g
     id="g3167">
    <path
       id="rect3068"
       d="M 78.65625 6 C 63.792798 6 49.986224 10.429561 38.5 18.03125 L 38.5 493.96875 C 49.986224 501.57044 63.792798 506 78.65625 506 L 147.5 506 L 147.5 6 L 78.65625 6 z "
       style="opacity:0.05000000000000000;fill:url(#linearGradient3108);fill-opacity:1;stroke:none" />
    <path
       inkscape:connector-curvature="0"
       style="opacity:0.05;fill:url(#linearGradient3137);fill-opacity:1;stroke:none"
       d="m 147.50001,6 0,500 109,0 0,-500 -109,0 z"
       id="path3135" />
    <path
       id="path3139"
       d="m 256.50001,6 0,500 109,0 0,-500 -109,0 z"
       style="opacity:0.05;fill:url(#linearGradient3141);fill-opacity:1;stroke:none"
       inkscape:connector-curvature="0" />
    <path
       id="path3143"
       d="M 365.5 6 L 365.5 506 L 433.34375 506 C 448.1977 506 461.98692 501.56151 473.46875 493.96875 L 473.46875 18.03125 C 461.98692 10.438491 448.1977 6 433.34375 6 L 365.5 6 z "
       style="opacity:0.05000000000000000;fill:url(#linearGradient3145);fill-opacity:1;stroke:none" />
    <path
       id="path3151"
       d="M 38.5 18.03125 C 18.885717 31.012164 6 53.274894 6 78.65625 L 6 433.34375 C 6 458.72511 18.885717 480.98784 38.5 493.96875 L 38.5 18.03125 z "
       style="opacity:0.05000000000000000;fill:url(#linearGradient3153);fill-opacity:1;stroke:none" />
    <path
       id="path3147"
       d="M 473.46875 18.03125 L 473.46875 493.96875 C 493.09542 480.98993 506 458.73461 506 433.34375 L 506 78.65625 C 506 53.265388 493.09542 31.010071 473.46875 18.03125 z "
       style="opacity:0.05000000000000000;fill:url(#linearGradient3149);fill-opacity:1;stroke:none" />
  </g>
</svg>
