<?xml version="1.0" encoding="UTF-8" standalone="no"?>
<svg
   xmlns:dc="http://purl.org/dc/elements/1.1/"
   xmlns:cc="http://creativecommons.org/ns#"
   xmlns:rdf="http://www.w3.org/1999/02/22-rdf-syntax-ns#"
   xmlns:svg="http://www.w3.org/2000/svg"
   xmlns="http://www.w3.org/2000/svg"
   xmlns:xlink="http://www.w3.org/1999/xlink"
   xmlns:sodipodi="http://sodipodi.sourceforge.net/DTD/sodipodi-0.dtd"
   xmlns:inkscape="http://www.inkscape.org/namespaces/inkscape"
   viewBox="0 0 512 512"
   id="svg2"
   version="1.1"
   inkscape:version="0.48.4 r9939"
   width="100%"
   height="100%"
   sodipodi:docname="reddit_B.svg">
  <sodipodi:namedview
     pagecolor="#444444"
     bordercolor="#666666"
     borderopacity="1"
     objecttolerance="10"
     gridtolerance="10"
     guidetolerance="10"
     inkscape:pageopacity="0"
     inkscape:pageshadow="2"
     inkscape:window-width="1310"
     inkscape:window-height="718"
     id="namedview6"
     showgrid="false"
     showguides="true"
     inkscape:guide-bbox="true"
     inkscape:zoom="0.73271889"
     inkscape:cx="387.679"
     inkscape:cy="337.44987"
     inkscape:window-x="54"
     inkscape:window-y="27"
     inkscape:window-maximized="1"
     inkscape:current-layer="svg2"
     inkscape:snap-midpoints="true"
     inkscape:snap-global="false">
    <sodipodi:guide
       id="guide2989"
       position="522.57628,433.35594"
       orientation="0,1" />
    <sodipodi:guide
       id="guide2995"
       position="473.05444,254.912"
       orientation="1,0" />
  </sodipodi:namedview>
  <metadata
     id="metadata10">
    <rdf:RDF>
      <cc:Work
         rdf:about="">
        <dc:format>image/svg+xml</dc:format>
        <dc:type
           rdf:resource="http://purl.org/dc/dcmitype/StillImage" />
        <dc:title></dc:title>
      </cc:Work>
    </rdf:RDF>
  </metadata>
  <defs
     id="defs8">
    <linearGradient
       id="linearGradient4996">
      <stop
         style="stop-color:#000000;stop-opacity:1;"
         offset="0"
         id="stop4998" />
      <stop
         style="stop-color:#ffffff;stop-opacity:1;"
         offset="1"
         id="stop5000" />
    </linearGradient>
    <linearGradient
       inkscape:collect="always"
       xlink:href="#linearGradient4996"
       id="linearGradient3108"
       gradientUnits="userSpaceOnUse"
       gradientTransform="matrix(1.0380952,0,0,1.4619252,-228.28943,-118.25286)"
       x1="257"
       y1="256"
       x2="362"
       y2="256" />
    <linearGradient
       inkscape:collect="always"
       xlink:href="#linearGradient4996"
       id="linearGradient3137"
       gradientUnits="userSpaceOnUse"
       gradientTransform="matrix(1.0380952,0,0,1.4619252,-119.28943,-118.25286)"
       x1="257"
       y1="256"
       x2="362"
       y2="256" />
    <linearGradient
       inkscape:collect="always"
       xlink:href="#linearGradient4996"
       id="linearGradient3141"
       gradientUnits="userSpaceOnUse"
       gradientTransform="matrix(1.0380952,0,0,1.4619252,-10.28943,-118.25286)"
       x1="257"
       y1="256"
       x2="362"
       y2="256" />
    <linearGradient
       inkscape:collect="always"
       xlink:href="#linearGradient4996"
       id="linearGradient3145"
       gradientUnits="userSpaceOnUse"
       gradientTransform="matrix(1.0283468,0,0,1.4619252,101.21591,-118.25286)"
       x1="257"
       y1="256"
       x2="362"
       y2="256" />
    <linearGradient
       inkscape:collect="always"
       xlink:href="#linearGradient4996"
       id="linearGradient3149"
       gradientUnits="userSpaceOnUse"
       gradientTransform="matrix(1.0283468,0,0,1.4619252,209.19233,-118.25286)"
       x1="257"
       y1="256"
       x2="362"
       y2="256" />
    <linearGradient
       inkscape:collect="always"
       xlink:href="#linearGradient4996"
       id="linearGradient3153"
       gradientUnits="userSpaceOnUse"
       gradientTransform="matrix(1.0380952,0,0,1.4619252,-337.28943,-118.25286)"
       x1="257"
       y1="256"
       x2="362"
       y2="256" />
  </defs>
  <rect
     style="opacity:0.2;fill:#000000;fill-opacity:1;stroke:none"
     id="rect5028"
     width="500"
     height="500"
     x="6"
     y="12"
     rx="72.644058"
     ry="72.644058" />
  <rect
     ry="72.644058"
     rx="72.644058"
     y="6"
     x="6"
     height="500"
     width="500"
     id="rect4979"
     style="fill:#f3f3f3;fill-opacity:1;stroke:none" />
  <rect
     style="fill:#e4a146;fill-opacity:1;stroke:none"
     id="rect4981"
     width="434.99997"
     height="434.99997"
     x="38.500011"
     y="38.500011"
     rx="63.200329"
     ry="63.200329" />
  <path
     style="fill:#000000;fill-opacity:1;stroke:none;opacity:0.2"
     d="M 101.6875 38.5 C 66.674518 38.5 38.5 66.674518 38.5 101.6875 L 38.5 116.6875 C 38.5 81.674518 66.674518 53.5 101.6875 53.5 L 410.3125 53.5 C 445.32548 53.5 473.5 81.674518 473.5 116.6875 L 473.5 101.6875 C 473.5 66.674518 445.32548 38.5 410.3125 38.5 L 101.6875 38.5 z "
     id="rect3187" />
  <g
     id="g3181">
    <path
       inkscape:connector-curvature="0"
       style="opacity:0.2;fill:#000000;fill-opacity:1"
       d="m 380,122.15625 c -13.17586,0 -24.48194,8.08058 -29.15625,19.59375 l -64.96875,-15.46875 -26.96875,76.6875 c -38.38245,0.70586 -73.21216,11.10781 -99.21875,27.71875 -7.01143,-6.07026 -15.74505,-9.53125 -25.125,-9.53125 -21.28524,0 -38.5625,17.30861 -38.5625,38.5625 0,13.20719 6.75443,25.30084 17.75,32.375 -0.6745,3.85865 -1.0625,7.73476 -1.0625,11.6875 0,37.86486 31.25982,70.98011 77.3125,88.28125 8.18144,3.05976 8.62617,3.10763 15.59375,5.09375 17.74034,4.95664 37.12436,7.6875 57.53125,7.6875 19.90489,0 38.91727,-2.66932 56.3125,-7.375 16.98193,-5.19793 2.14265,-0.20672 16.78125,-5.40625 46.13111,-17.28544 77.4375,-50.38506 77.4375,-88.28125 0,-3.85864 -0.35702,-7.50116 -0.96875,-11.25 C 423.96541,285.51982 431,273.11417 431,259.71875 c 0,-21.25389 -17.32432,-38.5625 -38.5625,-38.5625 -9.47409,0 -18.39471,3.53853 -25.4375,9.75 -25.09683,-16.10901 -58.37349,-26.44772 -95.21875,-27.84375 l 22,-62.375 54.6875,13.09375 c 0.0312,17.3325 14.15168,31.40625 31.53125,31.40625 17.37954,0 31.5,-14.08906 31.5,-31.5 0,-17.36387 -14.12046,-31.53125 -31.5,-31.53125 z m 0,12.125 c 10.69751,0 19.375,8.72441 19.375,19.40625 0,10.68184 -8.69319,19.375 -19.375,19.375 -10.68184,0 -19.40625,-8.69316 -19.40625,-19.375 0,-10.68184 8.70871,-19.40625 19.40625,-19.40625 z m -245.4375,99 c 5.39584,0 10.56122,1.59792 14.9375,4.5625 -15.26202,11.82687 -26.49328,26.03335 -32.28125,41.6875 -5.67813,-4.94094 -9.09375,-12.09521 -9.09375,-19.8125 0,-14.58752 11.81862,-26.4375 26.4375,-26.4375 z m 257.78125,0 c 14.58751,0 26.53125,11.84994 26.53125,26.4375 0,7.93685 -3.68005,15.16836 -9.65625,20.125 -5.69383,-15.65415 -16.73821,-29.89162 -31.9375,-41.78125 4.39195,-3.10572 9.54119,-4.78125 15.0625,-4.78125 z m -177,29.03125 c 13.09826,0 23.71875,10.62049 23.71875,23.71875 0,13.09826 -10.62049,23.71875 -23.71875,23.71875 -13.09826,0 -23.71875,-10.62049 -23.71875,-23.71875 0,-13.09826 10.62049,-23.71875 23.71875,-23.71875 z m 99,0 c 13.09825,0 23.71875,10.62049 23.71875,23.71875 0,13.09826 -10.6205,23.71875 -23.71875,23.71875 -13.09826,0 -23.71875,-10.62049 -23.71875,-23.71875 0,-13.09826 10.62049,-23.71875 23.71875,-23.71875 z m -101.625,77.5 c 1.69067,0.0241 3.4014,0.82913 4.59375,2.21875 0.36076,0.36077 13.2659,14.0625 45.59375,14.0625 32.89255,0 47.31203,-14.24924 47.4375,-14.40625 l 0,-0.0937 c 2.33715,-2.29008 6.16261,-2.32145 8.5625,0 2.39985,2.32146 2.50883,6.14695 0.21875,8.5625 -0.70583,0.72157 -17.77353,17.96875 -56.21875,17.96875 -38.63342,0 -54.16937,-17.45027 -54.8125,-18.1875 -2.18025,-2.54105 -1.79106,-6.38222 0.75,-8.5625 0.94112,-0.81761 2.00641,-1.39549 3.15625,-1.53125 0.23955,-0.0283 0.47723,-0.0347 0.71875,-0.0312 z"
       id="path3179" />
    <path
       id="path3170"
       d="M 365 107.15625 C 351.82414 107.15625 340.51806 115.23683 335.84375 126.75 L 270.875 111.28125 L 243.90625 187.96875 C 205.5238 188.67461 170.69409 199.07656 144.6875 215.6875 C 137.67607 209.61724 128.94245 206.15625 119.5625 206.15625 C 98.27726 206.15625 81 223.46486 81 244.71875 C 81 257.92594 87.75443 270.01959 98.75 277.09375 C 98.0755 280.9524 97.6875 284.82851 97.6875 288.78125 C 97.6875 326.64611 128.94732 359.76136 175 377.0625 C 183.18144 380.12226 183.62617 380.17013 190.59375 382.15625 C 208.33409 387.11289 227.71811 389.84375 248.125 389.84375 C 268.02989 389.84375 287.04227 387.17443 304.4375 382.46875 C 321.41943 377.27082 306.58015 382.26203 321.21875 377.0625 C 367.34986 359.77706 398.65625 326.67744 398.65625 288.78125 C 398.65625 284.92261 398.29923 281.28009 397.6875 277.53125 C 408.96541 270.51982 416 258.11417 416 244.71875 C 416 223.46486 398.67568 206.15625 377.4375 206.15625 C 367.96341 206.15625 359.04279 209.69478 352 215.90625 C 326.90317 199.79724 293.62651 189.45853 256.78125 188.0625 L 278.78125 125.6875 L 333.46875 138.78125 C 333.49995 156.11375 347.62043 170.1875 365 170.1875 C 382.37954 170.1875 396.5 156.09844 396.5 138.6875 C 396.5 121.32363 382.37954 107.15625 365 107.15625 z M 365 119.28125 C 375.69751 119.28125 384.375 128.00566 384.375 138.6875 C 384.375 149.36934 375.68181 158.0625 365 158.0625 C 354.31816 158.0625 345.59375 149.36934 345.59375 138.6875 C 345.59375 128.00566 354.30246 119.28125 365 119.28125 z M 119.5625 218.28125 C 124.95834 218.28125 130.12372 219.87917 134.5 222.84375 C 119.23798 234.67062 108.00672 248.8771 102.21875 264.53125 C 96.54062 259.59031 93.125 252.43604 93.125 244.71875 C 93.125 230.13123 104.94362 218.28125 119.5625 218.28125 z M 377.34375 218.28125 C 391.93126 218.28125 403.875 230.13119 403.875 244.71875 C 403.875 252.6556 400.19495 259.88711 394.21875 264.84375 C 388.52492 249.1896 377.48054 234.95213 362.28125 223.0625 C 366.6732 219.95678 371.82244 218.28125 377.34375 218.28125 z M 200.34375 247.3125 C 213.44201 247.3125 224.0625 257.93299 224.0625 271.03125 C 224.0625 284.12951 213.44201 294.75 200.34375 294.75 C 187.24549 294.75 176.625 284.12951 176.625 271.03125 C 176.625 257.93299 187.24549 247.3125 200.34375 247.3125 z M 299.34375 247.3125 C 312.442 247.3125 323.0625 257.93299 323.0625 271.03125 C 323.0625 284.12951 312.442 294.75 299.34375 294.75 C 286.24549 294.75 275.625 284.12951 275.625 271.03125 C 275.625 257.93299 286.24549 247.3125 299.34375 247.3125 z M 197.71875 324.8125 C 199.40942 324.83659 201.12015 325.64163 202.3125 327.03125 C 202.67326 327.39202 215.5784 341.09375 247.90625 341.09375 C 280.7988 341.09375 295.21828 326.84451 295.34375 326.6875 L 295.34375 326.59375 C 297.6809 324.30367 301.50636 324.2723 303.90625 326.59375 C 306.3061 328.91521 306.41508 332.7407 304.125 335.15625 C 303.41917 335.87782 286.35147 353.125 247.90625 353.125 C 209.27283 353.125 193.73688 335.67473 193.09375 334.9375 C 190.9135 332.39645 191.30269 328.55528 193.84375 326.375 C 194.78487 325.55739 195.85016 324.97951 197 324.84375 C 197.23955 324.81547 197.47723 324.80906 197.71875 324.8125 z "
       style="fill:#dcdbdb;fill-opacity:1" />
  </g>
  <g
     id="g3167">
    <path
       id="rect3068"
       d="M 78.65625 6 C 63.792798 6 49.986224 10.429561 38.5 18.03125 L 38.5 493.96875 C 49.986224 501.57044 63.792798 506 78.65625 506 L 147.5 506 L 147.5 6 L 78.65625 6 z "
       style="opacity:0.05000000000000000;fill:url(#linearGradient3108);fill-opacity:1;stroke:none" />
    <path
       inkscape:connector-curvature="0"
       style="opacity:0.05;fill:url(#linearGradient3137);fill-opacity:1;stroke:none"
       d="m 147.50001,6 0,500 109,0 0,-500 -109,0 z"
       id="path3135" />
    <path
       id="path3139"
       d="m 256.50001,6 0,500 109,0 0,-500 -109,0 z"
       style="opacity:0.05;fill:url(#linearGradient3141);fill-opacity:1;stroke:none"
       inkscape:connector-curvature="0" />
    <path
       id="path3143"
       d="M 365.5 6 L 365.5 506 L 433.34375 506 C 448.1977 506 461.98692 501.56151 473.46875 493.96875 L 473.46875 18.03125 C 461.98692 10.438491 448.1977 6 433.34375 6 L 365.5 6 z "
       style="opacity:0.05000000000000000;fill:url(#linearGradient3145);fill-opacity:1;stroke:none" />
    <path
       id="path3151"
       d="M 38.5 18.03125 C 18.885717 31.012164 6 53.274894 6 78.65625 L 6 433.34375 C 6 458.72511 18.885717 480.98784 38.5 493.96875 L 38.5 18.03125 z "
       style="opacity:0.05000000000000000;fill:url(#linearGradient3153);fill-opacity:1;stroke:none" />
    <path
       id="path3147"
       d="M 473.46875 18.03125 L 473.46875 493.96875 C 493.09542 480.98993 506 458.73461 506 433.34375 L 506 78.65625 C 506 53.265388 493.09542 31.010071 473.46875 18.03125 z "
       style="opacity:0.05000000000000000;fill:url(#linearGradient3149);fill-opacity:1;stroke:none" />
  </g>
</svg>
