<?xml version="1.0" encoding="UTF-8" standalone="no"?>
<svg
   xmlns:dc="http://purl.org/dc/elements/1.1/"
   xmlns:cc="http://creativecommons.org/ns#"
   xmlns:rdf="http://www.w3.org/1999/02/22-rdf-syntax-ns#"
   xmlns:svg="http://www.w3.org/2000/svg"
   xmlns="http://www.w3.org/2000/svg"
   xmlns:xlink="http://www.w3.org/1999/xlink"
   xmlns:sodipodi="http://sodipodi.sourceforge.net/DTD/sodipodi-0.dtd"
   xmlns:inkscape="http://www.inkscape.org/namespaces/inkscape"
   viewBox="0 0 512 512"
   id="svg2"
   version="1.1"
   inkscape:version="0.48.4 r9939"
   width="100%"
   height="100%"
   sodipodi:docname="0 base.svg">
  <sodipodi:namedview
     pagecolor="#444444"
     bordercolor="#666666"
     borderopacity="1"
     objecttolerance="10"
     gridtolerance="10"
     guidetolerance="10"
     inkscape:pageopacity="0"
     inkscape:pageshadow="2"
     inkscape:window-width="1310"
     inkscape:window-height="718"
     id="namedview6"
     showgrid="false"
     showguides="true"
     inkscape:guide-bbox="true"
     inkscape:zoom="0.36635945"
     inkscape:cx="-153.94512"
     inkscape:cy="129.17775"
     inkscape:window-x="54"
     inkscape:window-y="27"
     inkscape:window-maximized="1"
     inkscape:current-layer="svg2"
     inkscape:snap-midpoints="true"
     inkscape:snap-global="false">
    <sodipodi:guide
       id="guide2989"
       position="768.17591,433.35594"
       orientation="0,1" />
    <sodipodi:guide
       id="guide2995"
       position="473.05444,254.912"
       orientation="1,0" />
  </sodipodi:namedview>
  <metadata
     id="metadata10">
    <rdf:RDF>
      <cc:Work
         rdf:about="">
        <dc:format>image/svg+xml</dc:format>
        <dc:type
           rdf:resource="http://purl.org/dc/dcmitype/StillImage" />
        <dc:title></dc:title>
      </cc:Work>
    </rdf:RDF>
  </metadata>
  <defs
     id="defs8">
    <linearGradient
       id="linearGradient4379">
      <stop
         style="stop-color:#f3f3f3;stop-opacity:1;"
         offset="0"
         id="stop4381" />
      <stop
         id="stop4387"
         offset="0.5"
         style="stop-color:#eeeeee;stop-opacity:1;" />
      <stop
         style="stop-color:#ebebeb;stop-opacity:1;"
         offset="1"
         id="stop4383" />
    </linearGradient>
    <linearGradient
       id="linearGradient4996">
      <stop
         style="stop-color:#000000;stop-opacity:1;"
         offset="0"
         id="stop4998" />
      <stop
         style="stop-color:#ffffff;stop-opacity:1;"
         offset="1"
         id="stop5000" />
    </linearGradient>
    <linearGradient
       inkscape:collect="always"
       xlink:href="#linearGradient4996"
       id="linearGradient3108"
       gradientUnits="userSpaceOnUse"
       gradientTransform="matrix(1.0380952,0,0,1.4619252,-228.28943,-118.25286)"
       x1="257"
       y1="256"
       x2="362"
       y2="256" />
    <linearGradient
       inkscape:collect="always"
       xlink:href="#linearGradient4996"
       id="linearGradient3137"
       gradientUnits="userSpaceOnUse"
       gradientTransform="matrix(1.0380952,0,0,1.4619252,-119.28943,-118.25286)"
       x1="257"
       y1="256"
       x2="362"
       y2="256" />
    <linearGradient
       inkscape:collect="always"
       xlink:href="#linearGradient4996"
       id="linearGradient3141"
       gradientUnits="userSpaceOnUse"
       gradientTransform="matrix(1.0380952,0,0,1.4619252,-10.28943,-118.25286)"
       x1="257"
       y1="256"
       x2="362"
       y2="256" />
    <linearGradient
       inkscape:collect="always"
       xlink:href="#linearGradient4996"
       id="linearGradient3145"
       gradientUnits="userSpaceOnUse"
       gradientTransform="matrix(1.0283468,0,0,1.4619252,101.21591,-118.25286)"
       x1="257"
       y1="256"
       x2="362"
       y2="256" />
    <linearGradient
       inkscape:collect="always"
       xlink:href="#linearGradient4996"
       id="linearGradient3149"
       gradientUnits="userSpaceOnUse"
       gradientTransform="matrix(1.0283468,0,0,1.4619252,209.19233,-118.25286)"
       x1="257"
       y1="256"
       x2="362"
       y2="256" />
    <linearGradient
       inkscape:collect="always"
       xlink:href="#linearGradient4996"
       id="linearGradient3153"
       gradientUnits="userSpaceOnUse"
       gradientTransform="matrix(1.0380952,0,0,1.4619252,-337.28943,-118.25286)"
       x1="257"
       y1="256"
       x2="362"
       y2="256" />
    <filter
       inkscape:collect="always"
       id="filter4375">
      <feGaussianBlur
         inkscape:collect="always"
         stdDeviation="3.7725"
         id="feGaussianBlur4377" />
    </filter>
    <linearGradient
       inkscape:collect="always"
       xlink:href="#linearGradient4379"
       id="linearGradient4385"
       x1="243.40109"
       y1="19.563948"
       x2="243.40109"
       y2="504.01736"
       gradientUnits="userSpaceOnUse" />
    <linearGradient
       y2="256"
       x2="362"
       y1="256"
       x1="257"
       gradientTransform="matrix(1.0380952,0,0,1.4619252,-337.28943,-118.25286)"
       gradientUnits="userSpaceOnUse"
       id="linearGradient3153-5"
       xlink:href="#linearGradient4996-8"
       inkscape:collect="always" />
    <linearGradient
       y2="256"
       x2="362"
       y1="256"
       x1="257"
       gradientTransform="matrix(1.0283468,0,0,1.4619252,209.19233,-118.25286)"
       gradientUnits="userSpaceOnUse"
       id="linearGradient3149-1"
       xlink:href="#linearGradient4996-8"
       inkscape:collect="always" />
    <linearGradient
       y2="256"
       x2="362"
       y1="256"
       x1="257"
       gradientTransform="matrix(1.0283468,0,0,1.4619252,101.21591,-118.25286)"
       gradientUnits="userSpaceOnUse"
       id="linearGradient3145-3"
       xlink:href="#linearGradient4996-8"
       inkscape:collect="always" />
    <linearGradient
       y2="256"
       x2="362"
       y1="256"
       x1="257"
       gradientTransform="matrix(1.0380952,0,0,1.4619252,-10.28943,-118.25286)"
       gradientUnits="userSpaceOnUse"
       id="linearGradient3141-8"
       xlink:href="#linearGradient4996-8"
       inkscape:collect="always" />
    <linearGradient
       y2="256"
       x2="362"
       y1="256"
       x1="257"
       gradientTransform="matrix(1.0380952,0,0,1.4619252,-119.28943,-118.25286)"
       gradientUnits="userSpaceOnUse"
       id="linearGradient3137-6"
       xlink:href="#linearGradient4996-8"
       inkscape:collect="always" />
    <linearGradient
       y2="256"
       x2="362"
       y1="256"
       x1="257"
       gradientTransform="matrix(1.0380952,0,0,1.4619252,-228.28943,-118.25286)"
       gradientUnits="userSpaceOnUse"
       id="linearGradient3108-7"
       xlink:href="#linearGradient4996-8"
       inkscape:collect="always" />
    <linearGradient
       id="linearGradient4996-8">
      <stop
         id="stop4998-6"
         offset="0"
         style="stop-color:#000000;stop-opacity:1;" />
      <stop
         id="stop5000-4"
         offset="1"
         style="stop-color:#ffffff;stop-opacity:1;" />
    </linearGradient>
  </defs>
  <path
     style="opacity:1;fill:#000000;fill-opacity:0.17647059000000001;stroke:none;filter:url(#filter4375)"
     d="M 78.65625 6 C 77.727284 6 76.7954 6.028201 75.875 6.0625 C 75.802369 6.0652118 75.728825 6.059577 75.65625 6.0625 C 74.988725 6.0893847 74.318909 6.1428818 73.65625 6.1875 C 73.280206 6.2128391 72.905683 6.2502503 72.53125 6.28125 C 71.885867 6.3345848 71.234134 6.3675421 70.59375 6.4375 C 69.628992 6.5431372 68.67162 6.6697176 67.71875 6.8125 C 67.666309 6.8203518 67.614904 6.835787 67.5625 6.84375 C 66.480857 7.0082531 65.408958 7.1949037 64.34375 7.40625 C 63.884894 7.4971842 63.424398 7.5880194 62.96875 7.6875 C 62.579098 7.7726525 62.199755 7.8774077 61.8125 7.96875 C 61.165363 8.1211825 60.515221 8.2679802 59.875 8.4375 C 58.977088 8.6758086 58.071221 8.9162011 57.1875 9.1875 C 56.976031 9.2523648 56.773131 9.3395193 56.5625 9.40625 C 55.571868 9.72038 54.596482 10.051502 53.625 10.40625 C 52.80836 10.704455 51.989948 11.0175 51.1875 11.34375 C 50.897854 11.461445 50.600246 11.566197 50.3125 11.6875 C 50.176196 11.744981 50.042123 11.816716 49.90625 11.875 C 49.824668 11.909989 49.737675 11.933472 49.65625 11.96875 C 48.938842 12.279643 48.236264 12.604441 47.53125 12.9375 C 47.384379 13.006849 47.240073 13.085948 47.09375 13.15625 C 46.146324 13.611669 45.205003 14.099116 44.28125 14.59375 C 44.010496 14.738777 43.737417 14.882905 43.46875 15.03125 C 43.054856 15.259696 42.65884 15.513784 42.25 15.75 C 41.730466 16.0502 41.198724 16.34365 40.6875 16.65625 C 39.949085 17.107771 39.220561 17.554376 38.5 18.03125 C 38.468637 18.052007 38.437579 18.072946 38.40625 18.09375 C 37.950536 18.396369 37.510847 18.718679 37.0625 19.03125 C 36.93921 19.117203 36.810226 19.194551 36.6875 19.28125 C 36.163693 19.651283 35.638368 20.022798 35.125 20.40625 C 33.290177 21.777117 31.50659 23.24624 29.8125 24.78125 C 29.795638 24.79654 29.766847 24.797194 29.75 24.8125 C 29.224497 25.289542 28.729955 25.789121 28.21875 26.28125 C 27.694886 26.785782 27.164727 27.292488 26.65625 27.8125 C 26.144503 28.335837 25.652037 28.867606 25.15625 29.40625 C 24.215559 30.427897 23.318806 31.456477 22.4375 32.53125 C 21.806506 33.300601 21.193184 34.110796 20.59375 34.90625 C 20.48231 35.054221 20.360329 35.194896 20.25 35.34375 C 19.723598 36.053613 19.21948 36.770435 18.71875 37.5 C 18.60915 37.659719 18.48335 37.808107 18.375 37.96875 C 18.362086 37.987892 18.356646 38.012094 18.34375 38.03125 C 18.259632 38.156225 18.177108 38.280721 18.09375 38.40625 C 17.623298 39.114511 17.164683 39.836916 16.71875 40.5625 C 16.647328 40.678799 16.570784 40.789515 16.5 40.90625 C 15.924756 41.854127 15.376169 42.805321 14.84375 43.78125 C 14.692065 44.059253 14.554393 44.344787 14.40625 44.625 C 14.225983 44.96599 14.049974 45.312036 13.875 45.65625 C 13.63151 46.13532 13.389361 46.608561 13.15625 47.09375 C 12.730634 47.978942 12.32789 48.876356 11.9375 49.78125 C 11.697576 50.33769 11.476337 50.90513 11.25 51.46875 C 11.211649 51.564217 11.162958 51.654331 11.125 51.75 C 10.878581 52.371259 10.635931 52.995354 10.40625 53.625 C 10.074634 54.533596 9.7648227 55.449625 9.46875 56.375 C 9.3582604 56.72046 9.2304578 57.058529 9.125 57.40625 C 8.8244173 58.396667 8.5403511 59.398152 8.28125 60.40625 C 8.2731511 60.437819 8.2580577 60.468414 8.25 60.5 C 7.9825799 61.546421 7.7529168 62.591906 7.53125 63.65625 C 7.4967817 63.821826 7.4708457 63.990255 7.4375 64.15625 C 7.011883 66.273722 6.6758491 68.412789 6.4375 70.59375 C 6.4022606 70.916326 6.3747851 71.238642 6.34375 71.5625 C 6.2537906 72.500662 6.1792302 73.457785 6.125 74.40625 C 6.1084109 74.696568 6.1069502 74.990008 6.09375 75.28125 C 6.0430557 76.400053 6 77.5245 6 78.65625 L 6 433.34375 L 6 439.34375 C 6 479.58856 38.411442 512 78.65625 512 L 433.34375 512 C 473.58856 512 506 479.58856 506 439.34375 L 506 84.65625 L 506 78.65625 C 506 77.397481 505.96893 76.148858 505.90625 74.90625 C 505.88997 74.583084 505.8642 74.259513 505.84375 73.9375 C 505.7854 73.020381 505.7168 72.094823 505.625 71.1875 C 505.60482 70.987629 505.58428 70.793129 505.5625 70.59375 C 505.31685 68.348594 504.97537 66.146302 504.53125 63.96875 C 504.51005 63.864628 504.49039 63.760207 504.46875 63.65625 C 504.24208 62.56918 503.99317 61.505818 503.71875 60.4375 C 503.70802 60.395586 503.69831 60.354385 503.6875 60.3125 C 503.49794 59.580022 503.27406 58.848167 503.0625 58.125 C 502.85099 57.400787 502.63943 56.683269 502.40625 55.96875 C 502.14838 55.179706 501.87757 54.401717 501.59375 53.625 C 501.36407 52.995354 501.12142 52.371259 500.875 51.75 C 500.837 51.654331 500.7884 51.564216 500.75 51.46875 C 500.51143 50.874675 500.28491 50.273592 500.03125 49.6875 C 499.6536 48.816464 499.2541 47.946468 498.84375 47.09375 C 498.61064 46.608561 498.36849 46.13532 498.125 45.65625 C 497.83796 45.092248 497.55122 44.524042 497.25 43.96875 C 497.19912 43.874852 497.14503 43.781145 497.09375 43.6875 C 496.58077 42.751755 496.05244 41.816114 495.5 40.90625 C 495.28765 40.556046 495.06183 40.221258 494.84375 39.875 C 494.43899 39.233117 494.04913 38.596743 493.625 37.96875 C 492.81616 36.769544 491.93973 35.615178 491.0625 34.46875 C 490.80093 34.127365 490.54872 33.774036 490.28125 33.4375 C 490.09255 33.199768 489.91036 32.954032 489.71875 32.71875 C 489.62597 32.604964 489.53096 32.488208 489.4375 32.375 C 486.72765 29.088725 483.7416 26.073745 480.5 23.3125 C 480.20738 23.063287 479.92162 22.807113 479.625 22.5625 C 479.35716 22.341642 479.08356 22.123311 478.8125 21.90625 C 478.17676 21.397149 477.52808 20.89412 476.875 20.40625 C 473.70458 18.038152 470.32509 15.925311 466.78125 14.09375 C 466.16445 13.77467 465.53332 13.458103 464.90625 13.15625 C 464.75142 13.08186 464.59295 13.010824 464.4375 12.9375 C 463.65263 12.56654 462.86266 12.218496 462.0625 11.875 C 461.57467 11.666006 461.08708 11.448572 460.59375 11.25 C 459.85871 10.953561 459.12187 10.67922 458.375 10.40625 C 457.98321 10.263334 457.58245 10.13635 457.1875 10 C 456.46909 9.7515393 455.72856 9.4764502 455 9.25 C 454.8864 9.2148134 454.77009 9.1908956 454.65625 9.15625 C 454.16839 9.007218 453.67972 8.8890238 453.1875 8.75 C 452.83049 8.6495592 452.48425 8.5326228 452.125 8.4375 C 452.10552 8.4323219 452.08198 8.4426624 452.0625 8.4375 C 451.22583 8.2167138 450.37964 8.0040441 449.53125 7.8125 C 449.49951 7.8053012 449.46926 7.7884074 449.4375 7.78125 C 448.78627 7.6351458 448.12658 7.5035858 447.46875 7.375 C 446.46573 7.1778899 445.45509 6.9992871 444.4375 6.84375 C 444.37488 6.8342345 444.31267 6.8218566 444.25 6.8125 C 443.29794 6.6695311 442.37023 6.5432958 441.40625 6.4375 C 440.57048 6.3461977 439.71923 6.2816821 438.875 6.21875 C 438.69908 6.2055933 438.52002 6.1994068 438.34375 6.1875 C 437.60905 6.1380308 436.86567 6.0901545 436.125 6.0625 C 435.20525 6.0281378 434.27212 6 433.34375 6 L 147.5 6 L 78.65625 6 z "
     id="path3492" />
  <rect
     style="opacity:0.15;fill:#000000;fill-opacity:1;stroke:none"
     id="rect5028"
     width="500"
     height="500"
     x="6"
     y="12"
     rx="72.644058"
     ry="72.644058" />
  <rect
     ry="72.644058"
     rx="72.644058"
     y="6"
     x="6"
     height="500"
     width="500"
     id="rect4979"
     style="fill:url(#linearGradient4385);fill-opacity:1;stroke:none" />
  <rect
     style="fill:#e4a146;fill-opacity:1;stroke:none"
     id="rect4981"
     width="434.99997"
     height="434.99997"
     x="38.500011"
     y="38.500011"
     rx="63.200329"
     ry="63.200329" />
  <path
     style="fill:#000000;fill-opacity:1;stroke:none;opacity:0.2"
     d="M 101.6875 38.5 C 66.674518 38.5 38.5 66.674518 38.5 101.6875 L 38.5 116.6875 C 38.5 81.674518 66.674518 53.5 101.6875 53.5 L 410.3125 53.5 C 445.32548 53.5 473.5 81.674518 473.5 116.6875 L 473.5 101.6875 C 473.5 66.674518 445.32548 38.5 410.3125 38.5 L 101.6875 38.5 z "
     id="rect3187" />
  <path
     style="fill:#ffffff;fill-opacity:1;stroke:none"
     d="M 78.65625 6 C 38.411442 6 6 38.411442 6 78.65625 L 6 85.65625 C 6 45.411442 38.411442 13 78.65625 13 L 433.34375 13 C 473.58856 13 506 45.411442 506 85.65625 L 506 78.65625 C 506 38.411442 473.58856 6 433.34375 6 L 78.65625 6 z "
     id="rect4349" />
  <g
     id="g3094"
     transform="translate(447.3125,149.40586)">
    <path
       style="opacity:0.2;fill:#000000;fill-opacity:1"
       d="m -67.326079,-27.249212 c -13.175861,0 -24.460831,8.090775 -29.135141,19.603944 l -64.98545,-15.488199 -26.96897,76.682833 c -38.38245,0.705863 -73.20453,11.116185 -99.21112,27.727125 -7.01143,-6.070265 -15.74776,-9.531199 -25.12771,-9.531199 -21.28524,0 -38.55803,17.304152 -38.55803,38.558038 0,13.20719 6.76712,25.31025 17.76269,32.38441 -0.6745,3.85865 -1.08309,7.74464 -1.08309,11.69738 0,37.86486 31.28001,70.97077 77.33269,88.27191 8.18144,3.05976 8.62892,3.1044 15.5965,5.09052 17.74034,4.95664 37.10524,7.68995 57.51213,7.68995 19.90489,0 38.92549,-2.65934 56.32072,-7.36502 16.98193,-5.19793 2.14931,-0.21592 16.78791,-5.41545 46.13111,-17.28544 77.440996,-50.37572 77.440996,-88.27191 0,-3.85864 -0.363052,-7.5153 -0.974781,-11.26414 11.277904,-7.01143 18.304235,-19.42223 18.304235,-32.81765 0,-21.253886 -17.319853,-38.558038 -38.558034,-38.558038 -9.474082,0 -18.409841,3.536352 -25.452635,9.747817 C -105.42,65.3841 -138.68159,55.053701 -175.52685,53.657675 l 21.98674,-62.386033 54.69609,13.105399 c 0.0312,17.332503 14.138371,31.409635 31.517941,31.409635 17.379536,0 31.517944,-14.107008 31.517944,-31.517944 0,-17.36387 -14.138408,-31.517944 -31.517944,-31.517944 z m 0,12.130618 c 10.697506,0 19.387326,8.705485 19.387326,19.387326 0,10.68184 -8.70552,19.387326 -19.387326,19.387326 -10.681841,0 -19.387331,-8.705486 -19.387331,-19.387326 0,-10.681841 8.68979,-19.387326 19.387331,-19.387326 z M -184.19158,65.571674 c 76.31004,0 138.419009,39.796226 138.419009,88.813446 0,49.01726 -62.108969,88.92176 -138.419009,88.92176 -76.27868,0 -138.3107,-39.9045 -138.3107,-88.92176 0,-49.01722 62.03202,-88.813446 138.3107,-88.813446 z m -128.56289,18.304235 c 5.39584,0 10.57038,1.584398 14.94666,4.548982 -15.26202,11.826869 -26.48814,26.044849 -32.27611,41.698999 -5.67813,-4.94094 -9.09796,-12.10327 -9.09796,-19.82056 0,-14.587522 11.80853,-26.427421 26.42741,-26.427421 z m 257.775627,0 c 14.587518,0 26.535725,11.839864 26.535725,26.427421 0,7.93685 -3.663307,15.18885 -9.639508,20.14549 -5.693835,-15.65415 -16.751898,-29.91768 -31.95118,-41.807311 4.391942,-3.105715 9.53366,-4.7656 15.054963,-4.7656 z M -231.95589,112.90274 c -13.09826,0 -23.71969,10.62143 -23.71969,23.71969 0,13.09826 10.62143,23.71969 23.71969,23.71969 13.09826,0 23.71969,-10.62143 23.71969,-23.71969 0,-13.09826 -10.62143,-23.71969 -23.71969,-23.71969 z m 98.99451,0 c -13.09826,0 -23.71969,10.62143 -23.71969,23.71969 0,13.09826 10.62143,23.71969 23.71969,23.71969 13.09825,0 23.71969,-10.62143 23.71969,-23.71969 0,-13.09826 -10.62144,-23.71969 -23.71969,-23.71969 z m -102.35209,77.54931 c -1.14984,0.13576 -2.19984,0.69872 -3.14096,1.51633 -2.54106,2.18028 -2.93842,6.01536 -0.75817,8.55641 0.64313,0.73723 16.17098,18.19593 54.8044,18.19593 38.44522,0 55.50659,-17.25774 56.21242,-17.97931 2.29008,-2.41555 2.18323,-6.23496 -0.21662,-8.55642 -2.39989,-2.32145 -6.21927,-2.29008 -8.55642,0 l 0,0.10831 c -0.12547,0.15701 -14.54683,14.40511 -47.43938,14.40511 -32.32785,0 -45.23736,-13.71941 -45.59812,-14.08018 -1.36269,-1.58814 -3.39072,-2.39243 -5.30715,-2.16618 z"
       id="path3092"
       inkscape:connector-curvature="0" />
    <path
       inkscape:connector-curvature="0"
       id="circle2562"
       d="m -82.326079,-42.249212 c -13.175861,0 -24.460831,8.090775 -29.135141,19.603944 l -64.98545,-15.488199 -26.96897,76.682833 c -38.38245,0.705863 -73.20453,11.116185 -99.21112,27.727125 -7.01143,-6.070265 -15.74776,-9.531199 -25.12771,-9.531199 -21.28524,0 -38.55803,17.304152 -38.55803,38.558034 0,13.207194 6.76712,25.310254 17.76269,32.384414 -0.6745,3.85865 -1.08309,7.74464 -1.08309,11.69738 0,37.86486 31.28001,70.97077 77.33269,88.27191 8.18144,3.05976 8.62892,3.1044 15.5965,5.09052 17.74034,4.95664 37.10524,7.68995 57.51213,7.68995 19.90489,0 38.92549,-2.65934 56.32072,-7.36502 16.98193,-5.19793 2.14931,-0.21592 16.78791,-5.41545 46.13111,-17.28544 77.440996,-50.37572 77.440996,-88.27191 0,-3.85864 -0.363052,-7.5153 -0.974781,-11.26414 11.277904,-7.01143 18.304235,-19.42223 18.304235,-32.817654 0,-21.253882 -17.319853,-38.558034 -38.558034,-38.558034 -9.474082,0 -18.409841,3.536352 -25.452635,9.747817 C -120.42,50.3841 -153.68159,40.053701 -190.52685,38.657675 l 21.98674,-62.386033 54.69609,13.105399 c 0.0312,17.3325035 14.138371,31.409635 31.517941,31.409635 17.379536,0 31.517944,-14.1070075 31.517944,-31.517944 0,-17.36387 -14.138408,-31.517944 -31.517944,-31.517944 z m 0,12.130618 c 10.697506,0 19.387326,8.705485 19.387326,19.387326 0,10.68184036 -8.70552,19.387326 -19.387326,19.387326 -10.681841,0 -19.387331,-8.70548564 -19.387331,-19.387326 0,-10.681841 8.68979,-19.387326 19.387331,-19.387326 z M -199.19158,50.571674 c 76.31004,0 138.419009,39.796224 138.419009,88.813446 0,49.01726 -62.108969,88.92176 -138.419009,88.92176 -76.27868,0 -138.3107,-39.9045 -138.3107,-88.92176 0,-49.017222 62.03202,-88.813446 138.3107,-88.813446 z m -128.56289,18.304235 c 5.39584,0 10.57038,1.584398 14.94666,4.548982 -15.26202,11.826867 -26.48814,26.044852 -32.27611,41.698999 -5.67813,-4.94094 -9.09796,-12.10327 -9.09796,-19.820564 0,-14.587518 11.80853,-26.427417 26.42741,-26.427417 z m 257.775627,0 c 14.587518,0 26.535725,11.839864 26.535725,26.427417 0,7.936854 -3.663307,15.188854 -9.639508,20.145494 -5.693835,-15.65415 -16.751898,-29.917677 -31.95118,-41.807311 4.391942,-3.105715 9.53366,-4.7656 15.054963,-4.7656 z M -246.95589,97.902744 c -13.09826,0 -23.71969,10.621426 -23.71969,23.719686 0,13.09826 10.62143,23.71969 23.71969,23.71969 13.09826,0 23.71969,-10.62143 23.71969,-23.71969 0,-13.09826 -10.62143,-23.719686 -23.71969,-23.719686 z m 98.99451,0 c -13.09826,0 -23.71969,10.621426 -23.71969,23.719686 0,13.09826 10.62143,23.71969 23.71969,23.71969 13.09825,0 23.71969,-10.62143 23.71969,-23.71969 0,-13.09826 -10.62144,-23.719686 -23.71969,-23.719686 z m -102.35209,77.549306 c -1.14984,0.13576 -2.19984,0.69872 -3.14096,1.51633 -2.54106,2.18028 -2.93842,6.01536 -0.75817,8.55641 0.64313,0.73723 16.17098,18.19593 54.8044,18.19593 38.44522,0 55.50659,-17.25774 56.21242,-17.97931 2.29008,-2.41555 2.18323,-6.23496 -0.21662,-8.55642 -2.39989,-2.32145 -6.21927,-2.29008 -8.55642,0 l 0,0.10831 c -0.12547,0.15701 -14.54683,14.40511 -47.43938,14.40511 -32.32785,0 -45.23736,-13.71941 -45.59812,-14.08018 -1.36269,-1.58814 -3.39072,-2.39243 -5.30715,-2.16618 z"
       style="fill:#dcdbdb;fill-opacity:1" />
  </g>
  <g
     id="g3167">
    <path
       id="rect3068"
       d="M 78.65625 6 C 63.792798 6 49.986224 10.429561 38.5 18.03125 L 38.5 493.96875 C 49.986224 501.57044 63.792798 506 78.65625 506 L 147.5 506 L 147.5 6 L 78.65625 6 z "
       style="opacity:0.05000000000000000;fill:url(#linearGradient3108);fill-opacity:1;stroke:none" />
    <path
       inkscape:connector-curvature="0"
       style="opacity:0.05;fill:url(#linearGradient3137);fill-opacity:1;stroke:none"
       d="m 147.50001,6 0,500 109,0 0,-500 -109,0 z"
       id="path3135" />
    <path
       id="path3139"
       d="m 256.50001,6 0,500 109,0 0,-500 -109,0 z"
       style="opacity:0.05;fill:url(#linearGradient3141);fill-opacity:1;stroke:none"
       inkscape:connector-curvature="0" />
    <path
       id="path3143"
       d="M 365.5 6 L 365.5 506 L 433.34375 506 C 448.1977 506 461.98692 501.56151 473.46875 493.96875 L 473.46875 18.03125 C 461.98692 10.438491 448.1977 6 433.34375 6 L 365.5 6 z "
       style="opacity:0.05000000000000000;fill:url(#linearGradient3145);fill-opacity:1;stroke:none" />
    <path
       id="path3151"
       d="M 38.5 18.03125 C 18.885717 31.012164 6 53.274894 6 78.65625 L 6 433.34375 C 6 458.72511 18.885717 480.98784 38.5 493.96875 L 38.5 18.03125 z "
       style="opacity:0.05000000000000000;fill:url(#linearGradient3153);fill-opacity:1;stroke:none" />
    <path
       id="path3147"
       d="M 473.46875 18.03125 L 473.46875 493.96875 C 493.09542 480.98993 506 458.73461 506 433.34375 L 506 78.65625 C 506 53.265388 493.09542 31.010071 473.46875 18.03125 z "
       style="opacity:0.05000000000000000;fill:url(#linearGradient3149);fill-opacity:1;stroke:none" />
  </g>
</svg>
