<?xml version="1.0" encoding="UTF-8" standalone="no"?>
<svg
   xmlns:dc="http://purl.org/dc/elements/1.1/"
   xmlns:cc="http://creativecommons.org/ns#"
   xmlns:rdf="http://www.w3.org/1999/02/22-rdf-syntax-ns#"
   xmlns:svg="http://www.w3.org/2000/svg"
   xmlns="http://www.w3.org/2000/svg"
   xmlns:xlink="http://www.w3.org/1999/xlink"
   xmlns:sodipodi="http://sodipodi.sourceforge.net/DTD/sodipodi-0.dtd"
   xmlns:inkscape="http://www.inkscape.org/namespaces/inkscape"
   viewBox="0 0 512 512"
   id="svg2"
   version="1.1"
   inkscape:version="0.48.4 r9939"
   width="100%"
   height="100%"
   sodipodi:docname="base.svg">
  <sodipodi:namedview
     pagecolor="#444444"
     bordercolor="#666666"
     borderopacity="1"
     objecttolerance="10"
     gridtolerance="10"
     guidetolerance="10"
     inkscape:pageopacity="0"
     inkscape:pageshadow="2"
     inkscape:window-width="1310"
     inkscape:window-height="718"
     id="namedview6"
     showgrid="false"
     showguides="true"
     inkscape:guide-bbox="true"
     inkscape:zoom="0.73271889"
     inkscape:cx="553.72216"
     inkscape:cy="276.0342"
     inkscape:window-x="54"
     inkscape:window-y="27"
     inkscape:window-maximized="1"
     inkscape:current-layer="svg2"
     inkscape:snap-midpoints="true"
     inkscape:snap-global="false">
    <sodipodi:guide
       id="guide2989"
       position="522.57628,433.35594"
       orientation="0,1" />
    <sodipodi:guide
       id="guide2995"
       position="473.05444,254.912"
       orientation="1,0" />
  </sodipodi:namedview>
  <metadata
     id="metadata10">
    <rdf:RDF>
      <cc:Work
         rdf:about="">
        <dc:format>image/svg+xml</dc:format>
        <dc:type
           rdf:resource="http://purl.org/dc/dcmitype/StillImage" />
        <dc:title></dc:title>
      </cc:Work>
    </rdf:RDF>
  </metadata>
  <defs
     id="defs8">
    <linearGradient
       id="linearGradient4996">
      <stop
         style="stop-color:#000000;stop-opacity:1;"
         offset="0"
         id="stop4998" />
      <stop
         style="stop-color:#ffffff;stop-opacity:1;"
         offset="1"
         id="stop5000" />
    </linearGradient>
    <linearGradient
       inkscape:collect="always"
       xlink:href="#linearGradient4996"
       id="linearGradient3108"
       gradientUnits="userSpaceOnUse"
       gradientTransform="matrix(1.0380952,0,0,1.4619252,-228.28943,-118.25286)"
       x1="257"
       y1="256"
       x2="362"
       y2="256" />
    <linearGradient
       inkscape:collect="always"
       xlink:href="#linearGradient4996"
       id="linearGradient3137"
       gradientUnits="userSpaceOnUse"
       gradientTransform="matrix(1.0380952,0,0,1.4619252,-119.28943,-118.25286)"
       x1="257"
       y1="256"
       x2="362"
       y2="256" />
    <linearGradient
       inkscape:collect="always"
       xlink:href="#linearGradient4996"
       id="linearGradient3141"
       gradientUnits="userSpaceOnUse"
       gradientTransform="matrix(1.0380952,0,0,1.4619252,-10.28943,-118.25286)"
       x1="257"
       y1="256"
       x2="362"
       y2="256" />
    <linearGradient
       inkscape:collect="always"
       xlink:href="#linearGradient4996"
       id="linearGradient3145"
       gradientUnits="userSpaceOnUse"
       gradientTransform="matrix(1.0283468,0,0,1.4619252,101.21591,-118.25286)"
       x1="257"
       y1="256"
       x2="362"
       y2="256" />
    <linearGradient
       inkscape:collect="always"
       xlink:href="#linearGradient4996"
       id="linearGradient3149"
       gradientUnits="userSpaceOnUse"
       gradientTransform="matrix(1.0283468,0,0,1.4619252,209.19233,-118.25286)"
       x1="257"
       y1="256"
       x2="362"
       y2="256" />
    <linearGradient
       inkscape:collect="always"
       xlink:href="#linearGradient4996"
       id="linearGradient3153"
       gradientUnits="userSpaceOnUse"
       gradientTransform="matrix(1.0380952,0,0,1.4619252,-337.28943,-118.25286)"
       x1="257"
       y1="256"
       x2="362"
       y2="256" />
  </defs>
  <rect
     style="opacity:0.2;fill:#000000;fill-opacity:1;stroke:none"
     id="rect5028"
     width="500"
     height="500"
     x="6"
     y="12"
     rx="72.644058"
     ry="72.644058" />
  <rect
     ry="72.644058"
     rx="72.644058"
     y="6"
     x="6"
     height="500"
     width="500"
     id="rect4979"
     style="fill:#f3f3f3;fill-opacity:1;stroke:none" />
  <rect
     style="fill:#e4a146;fill-opacity:1;stroke:none"
     id="rect4981"
     width="434.99997"
     height="434.99997"
     x="38.500011"
     y="38.500011"
     rx="63.200329"
     ry="63.200329" />
  <path
     style="fill:#000000;fill-opacity:1;stroke:none;opacity:0.2"
     d="M 101.6875 38.5 C 66.674518 38.5 38.5 66.674518 38.5 101.6875 L 38.5 116.6875 C 38.5 81.674518 66.674518 53.5 101.6875 53.5 L 410.3125 53.5 C 445.32548 53.5 473.5 81.674518 473.5 116.6875 L 473.5 101.6875 C 473.5 66.674518 445.32548 38.5 410.3125 38.5 L 101.6875 38.5 z "
     id="rect3187" />
  <g
     id="g3094"
     transform="translate(447.3125,149.40586)">
    <path
       style="opacity:0.2;fill:#000000;fill-opacity:1"
       d="m -67.326079,-27.249212 c -13.175861,0 -24.460831,8.090775 -29.135141,19.603944 l -64.98545,-15.488199 -26.96897,76.682833 c -38.38245,0.705863 -73.20453,11.116185 -99.21112,27.727125 -7.01143,-6.070265 -15.74776,-9.531199 -25.12771,-9.531199 -21.28524,0 -38.55803,17.304152 -38.55803,38.558038 0,13.20719 6.76712,25.31025 17.76269,32.38441 -0.6745,3.85865 -1.08309,7.74464 -1.08309,11.69738 0,37.86486 31.28001,70.97077 77.33269,88.27191 8.18144,3.05976 8.62892,3.1044 15.5965,5.09052 17.74034,4.95664 37.10524,7.68995 57.51213,7.68995 19.90489,0 38.92549,-2.65934 56.32072,-7.36502 16.98193,-5.19793 2.14931,-0.21592 16.78791,-5.41545 46.13111,-17.28544 77.440996,-50.37572 77.440996,-88.27191 0,-3.85864 -0.363052,-7.5153 -0.974781,-11.26414 11.277904,-7.01143 18.304235,-19.42223 18.304235,-32.81765 0,-21.253886 -17.319853,-38.558038 -38.558034,-38.558038 -9.474082,0 -18.409841,3.536352 -25.452635,9.747817 C -105.42,65.3841 -138.68159,55.053701 -175.52685,53.657675 l 21.98674,-62.386033 54.69609,13.105399 c 0.0312,17.332503 14.138371,31.409635 31.517941,31.409635 17.379536,0 31.517944,-14.107008 31.517944,-31.517944 0,-17.36387 -14.138408,-31.517944 -31.517944,-31.517944 z m 0,12.130618 c 10.697506,0 19.387326,8.705485 19.387326,19.387326 0,10.68184 -8.70552,19.387326 -19.387326,19.387326 -10.681841,0 -19.387331,-8.705486 -19.387331,-19.387326 0,-10.681841 8.68979,-19.387326 19.387331,-19.387326 z M -184.19158,65.571674 c 76.31004,0 138.419009,39.796226 138.419009,88.813446 0,49.01726 -62.108969,88.92176 -138.419009,88.92176 -76.27868,0 -138.3107,-39.9045 -138.3107,-88.92176 0,-49.01722 62.03202,-88.813446 138.3107,-88.813446 z m -128.56289,18.304235 c 5.39584,0 10.57038,1.584398 14.94666,4.548982 -15.26202,11.826869 -26.48814,26.044849 -32.27611,41.698999 -5.67813,-4.94094 -9.09796,-12.10327 -9.09796,-19.82056 0,-14.587522 11.80853,-26.427421 26.42741,-26.427421 z m 257.775627,0 c 14.587518,0 26.535725,11.839864 26.535725,26.427421 0,7.93685 -3.663307,15.18885 -9.639508,20.14549 -5.693835,-15.65415 -16.751898,-29.91768 -31.95118,-41.807311 4.391942,-3.105715 9.53366,-4.7656 15.054963,-4.7656 z M -231.95589,112.90274 c -13.09826,0 -23.71969,10.62143 -23.71969,23.71969 0,13.09826 10.62143,23.71969 23.71969,23.71969 13.09826,0 23.71969,-10.62143 23.71969,-23.71969 0,-13.09826 -10.62143,-23.71969 -23.71969,-23.71969 z m 98.99451,0 c -13.09826,0 -23.71969,10.62143 -23.71969,23.71969 0,13.09826 10.62143,23.71969 23.71969,23.71969 13.09825,0 23.71969,-10.62143 23.71969,-23.71969 0,-13.09826 -10.62144,-23.71969 -23.71969,-23.71969 z m -102.35209,77.54931 c -1.14984,0.13576 -2.19984,0.69872 -3.14096,1.51633 -2.54106,2.18028 -2.93842,6.01536 -0.75817,8.55641 0.64313,0.73723 16.17098,18.19593 54.8044,18.19593 38.44522,0 55.50659,-17.25774 56.21242,-17.97931 2.29008,-2.41555 2.18323,-6.23496 -0.21662,-8.55642 -2.39989,-2.32145 -6.21927,-2.29008 -8.55642,0 l 0,0.10831 c -0.12547,0.15701 -14.54683,14.40511 -47.43938,14.40511 -32.32785,0 -45.23736,-13.71941 -45.59812,-14.08018 -1.36269,-1.58814 -3.39072,-2.39243 -5.30715,-2.16618 z"
       id="path3092"
       inkscape:connector-curvature="0" />
    <path
       inkscape:connector-curvature="0"
       id="circle2562"
       d="m -82.326079,-42.249212 c -13.175861,0 -24.460831,8.090775 -29.135141,19.603944 l -64.98545,-15.488199 -26.96897,76.682833 c -38.38245,0.705863 -73.20453,11.116185 -99.21112,27.727125 -7.01143,-6.070265 -15.74776,-9.531199 -25.12771,-9.531199 -21.28524,0 -38.55803,17.304152 -38.55803,38.558034 0,13.207194 6.76712,25.310254 17.76269,32.384414 -0.6745,3.85865 -1.08309,7.74464 -1.08309,11.69738 0,37.86486 31.28001,70.97077 77.33269,88.27191 8.18144,3.05976 8.62892,3.1044 15.5965,5.09052 17.74034,4.95664 37.10524,7.68995 57.51213,7.68995 19.90489,0 38.92549,-2.65934 56.32072,-7.36502 16.98193,-5.19793 2.14931,-0.21592 16.78791,-5.41545 46.13111,-17.28544 77.440996,-50.37572 77.440996,-88.27191 0,-3.85864 -0.363052,-7.5153 -0.974781,-11.26414 11.277904,-7.01143 18.304235,-19.42223 18.304235,-32.817654 0,-21.253882 -17.319853,-38.558034 -38.558034,-38.558034 -9.474082,0 -18.409841,3.536352 -25.452635,9.747817 C -120.42,50.3841 -153.68159,40.053701 -190.52685,38.657675 l 21.98674,-62.386033 54.69609,13.105399 c 0.0312,17.3325035 14.138371,31.409635 31.517941,31.409635 17.379536,0 31.517944,-14.1070075 31.517944,-31.517944 0,-17.36387 -14.138408,-31.517944 -31.517944,-31.517944 z m 0,12.130618 c 10.697506,0 19.387326,8.705485 19.387326,19.387326 0,10.68184036 -8.70552,19.387326 -19.387326,19.387326 -10.681841,0 -19.387331,-8.70548564 -19.387331,-19.387326 0,-10.681841 8.68979,-19.387326 19.387331,-19.387326 z M -199.19158,50.571674 c 76.31004,0 138.419009,39.796224 138.419009,88.813446 0,49.01726 -62.108969,88.92176 -138.419009,88.92176 -76.27868,0 -138.3107,-39.9045 -138.3107,-88.92176 0,-49.017222 62.03202,-88.813446 138.3107,-88.813446 z m -128.56289,18.304235 c 5.39584,0 10.57038,1.584398 14.94666,4.548982 -15.26202,11.826867 -26.48814,26.044852 -32.27611,41.698999 -5.67813,-4.94094 -9.09796,-12.10327 -9.09796,-19.820564 0,-14.587518 11.80853,-26.427417 26.42741,-26.427417 z m 257.775627,0 c 14.587518,0 26.535725,11.839864 26.535725,26.427417 0,7.936854 -3.663307,15.188854 -9.639508,20.145494 -5.693835,-15.65415 -16.751898,-29.917677 -31.95118,-41.807311 4.391942,-3.105715 9.53366,-4.7656 15.054963,-4.7656 z M -246.95589,97.902744 c -13.09826,0 -23.71969,10.621426 -23.71969,23.719686 0,13.09826 10.62143,23.71969 23.71969,23.71969 13.09826,0 23.71969,-10.62143 23.71969,-23.71969 0,-13.09826 -10.62143,-23.719686 -23.71969,-23.719686 z m 98.99451,0 c -13.09826,0 -23.71969,10.621426 -23.71969,23.719686 0,13.09826 10.62143,23.71969 23.71969,23.71969 13.09825,0 23.71969,-10.62143 23.71969,-23.71969 0,-13.09826 -10.62144,-23.719686 -23.71969,-23.719686 z m -102.35209,77.549306 c -1.14984,0.13576 -2.19984,0.69872 -3.14096,1.51633 -2.54106,2.18028 -2.93842,6.01536 -0.75817,8.55641 0.64313,0.73723 16.17098,18.19593 54.8044,18.19593 38.44522,0 55.50659,-17.25774 56.21242,-17.97931 2.29008,-2.41555 2.18323,-6.23496 -0.21662,-8.55642 -2.39989,-2.32145 -6.21927,-2.29008 -8.55642,0 l 0,0.10831 c -0.12547,0.15701 -14.54683,14.40511 -47.43938,14.40511 -32.32785,0 -45.23736,-13.71941 -45.59812,-14.08018 -1.36269,-1.58814 -3.39072,-2.39243 -5.30715,-2.16618 z"
       style="fill:#dcdbdb;fill-opacity:1" />
  </g>
  <g
     id="g3167">
    <path
       id="rect3068"
       d="M 78.65625 6 C 63.792798 6 49.986224 10.429561 38.5 18.03125 L 38.5 493.96875 C 49.986224 501.57044 63.792798 506 78.65625 506 L 147.5 506 L 147.5 6 L 78.65625 6 z "
       style="opacity:0.05000000000000000;fill:url(#linearGradient3108);fill-opacity:1;stroke:none" />
    <path
       inkscape:connector-curvature="0"
       style="opacity:0.05;fill:url(#linearGradient3137);fill-opacity:1;stroke:none"
       d="m 147.50001,6 0,500 109,0 0,-500 -109,0 z"
       id="path3135" />
    <path
       id="path3139"
       d="m 256.50001,6 0,500 109,0 0,-500 -109,0 z"
       style="opacity:0.05;fill:url(#linearGradient3141);fill-opacity:1;stroke:none"
       inkscape:connector-curvature="0" />
    <path
       id="path3143"
       d="M 365.5 6 L 365.5 506 L 433.34375 506 C 448.1977 506 461.98692 501.56151 473.46875 493.96875 L 473.46875 18.03125 C 461.98692 10.438491 448.1977 6 433.34375 6 L 365.5 6 z "
       style="opacity:0.05000000000000000;fill:url(#linearGradient3145);fill-opacity:1;stroke:none" />
    <path
       id="path3151"
       d="M 38.5 18.03125 C 18.885717 31.012164 6 53.274894 6 78.65625 L 6 433.34375 C 6 458.72511 18.885717 480.98784 38.5 493.96875 L 38.5 18.03125 z "
       style="opacity:0.05000000000000000;fill:url(#linearGradient3153);fill-opacity:1;stroke:none" />
    <path
       id="path3147"
       d="M 473.46875 18.03125 L 473.46875 493.96875 C 493.09542 480.98993 506 458.73461 506 433.34375 L 506 78.65625 C 506 53.265388 493.09542 31.010071 473.46875 18.03125 z "
       style="opacity:0.05000000000000000;fill:url(#linearGradient3149);fill-opacity:1;stroke:none" />
  </g>
</svg>
