<?xml version="1.0" encoding="UTF-8" standalone="no"?>
<svg
   xmlns:dc="http://purl.org/dc/elements/1.1/"
   xmlns:cc="http://creativecommons.org/ns#"
   xmlns:rdf="http://www.w3.org/1999/02/22-rdf-syntax-ns#"
   xmlns:svg="http://www.w3.org/2000/svg"
   xmlns="http://www.w3.org/2000/svg"
   xmlns:xlink="http://www.w3.org/1999/xlink"
   xmlns:sodipodi="http://sodipodi.sourceforge.net/DTD/sodipodi-0.dtd"
   xmlns:inkscape="http://www.inkscape.org/namespaces/inkscape"
   viewBox="0 0 512 512"
   id="svg2"
   version="1.1"
   inkscape:version="0.48.4 r9939"
   width="100%"
   height="100%"
   sodipodi:docname="share.svg">
  <sodipodi:namedview
     pagecolor="#444444"
     bordercolor="#666666"
     borderopacity="1"
     objecttolerance="10"
     gridtolerance="10"
     guidetolerance="10"
     inkscape:pageopacity="0"
     inkscape:pageshadow="2"
     inkscape:window-width="1310"
     inkscape:window-height="718"
     id="namedview6"
     showgrid="false"
     showguides="true"
     inkscape:guide-bbox="true"
     inkscape:zoom="0.5181105"
     inkscape:cx="29.518954"
     inkscape:cy="225.32933"
     inkscape:window-x="54"
     inkscape:window-y="27"
     inkscape:window-maximized="1"
     inkscape:current-layer="svg2"
     inkscape:snap-midpoints="true"
     inkscape:snap-global="false">
    <sodipodi:guide
       id="guide2989"
       position="522.57628,433.35594"
       orientation="0,1" />
    <sodipodi:guide
       id="guide2995"
       position="473.05444,254.912"
       orientation="1,0" />
  </sodipodi:namedview>
  <metadata
     id="metadata10">
    <rdf:RDF>
      <cc:Work
         rdf:about="">
        <dc:format>image/svg+xml</dc:format>
        <dc:type
           rdf:resource="http://purl.org/dc/dcmitype/StillImage" />
        <dc:title />
      </cc:Work>
    </rdf:RDF>
  </metadata>
  <defs
     id="defs8">
    <linearGradient
       id="linearGradient4996">
      <stop
         style="stop-color:#000000;stop-opacity:1;"
         offset="0"
         id="stop4998" />
      <stop
         style="stop-color:#ffffff;stop-opacity:1;"
         offset="1"
         id="stop5000" />
    </linearGradient>
    <linearGradient
       inkscape:collect="always"
       xlink:href="#linearGradient4996"
       id="linearGradient3108"
       gradientUnits="userSpaceOnUse"
       gradientTransform="matrix(1.0380952,0,0,1.4619252,-228.28943,-118.25286)"
       x1="257"
       y1="256"
       x2="362"
       y2="256" />
    <linearGradient
       inkscape:collect="always"
       xlink:href="#linearGradient4996"
       id="linearGradient3137"
       gradientUnits="userSpaceOnUse"
       gradientTransform="matrix(1.0380952,0,0,1.4619252,-119.28943,-118.25286)"
       x1="257"
       y1="256"
       x2="362"
       y2="256" />
    <linearGradient
       inkscape:collect="always"
       xlink:href="#linearGradient4996"
       id="linearGradient3141"
       gradientUnits="userSpaceOnUse"
       gradientTransform="matrix(1.0380952,0,0,1.4619252,-10.28943,-118.25286)"
       x1="257"
       y1="256"
       x2="362"
       y2="256" />
    <linearGradient
       inkscape:collect="always"
       xlink:href="#linearGradient4996"
       id="linearGradient3145"
       gradientUnits="userSpaceOnUse"
       gradientTransform="matrix(1.0283468,0,0,1.4619252,101.21591,-118.25286)"
       x1="257"
       y1="256"
       x2="362"
       y2="256" />
    <linearGradient
       inkscape:collect="always"
       xlink:href="#linearGradient4996"
       id="linearGradient3149"
       gradientUnits="userSpaceOnUse"
       gradientTransform="matrix(1.0283468,0,0,1.4619252,209.19233,-118.25286)"
       x1="257"
       y1="256"
       x2="362"
       y2="256" />
    <linearGradient
       inkscape:collect="always"
       xlink:href="#linearGradient4996"
       id="linearGradient3153"
       gradientUnits="userSpaceOnUse"
       gradientTransform="matrix(1.0380952,0,0,1.4619252,-337.28943,-118.25286)"
       x1="257"
       y1="256"
       x2="362"
       y2="256" />
  </defs>
  <rect
     style="opacity:0.2;fill:#000000;fill-opacity:1;stroke:none"
     id="rect5028"
     width="500"
     height="500"
     x="6"
     y="12"
     rx="72.644058"
     ry="72.644058" />
  <rect
     ry="72.644058"
     rx="72.644058"
     y="6"
     x="6"
     height="500"
     width="500"
     id="rect4979"
     style="fill:#f3f3f3;fill-opacity:1;stroke:none" />
  <rect
     style="fill:#0078ad;fill-opacity:1;stroke:none"
     id="rect4981"
     width="434.99997"
     height="434.99997"
     x="38.500011"
     y="38.500011"
     rx="63.200329"
     ry="63.200329" />
  <path
     style="fill:#000000;fill-opacity:1;stroke:none;opacity:0.2"
     d="M 101.6875 38.5 C 66.674518 38.5 38.5 66.674518 38.5 101.6875 L 38.5 116.6875 C 38.5 81.674518 66.674518 53.5 101.6875 53.5 L 410.3125 53.5 C 445.32548 53.5 473.5 81.674518 473.5 116.6875 L 473.5 101.6875 C 473.5 66.674518 445.32548 38.5 410.3125 38.5 L 101.6875 38.5 z "
     id="rect3187" />
  <text
     style="font-size:129.22999573px;line-height:125%;letter-spacing:0;word-spacing:0;font-family:Gentium Book Basic"
     sodipodi:linespacing="125%"
     font-size="129.23"
     letter-spacing="0"
     line-height="125%"
     word-spacing="0"
     x="204.77838"
     y="204.85052"
     id="text3056">
    <tspan
       x="204.77838"
       y="204.85052"
       id="tspan3058" />
  </text>
  <text
     style="font-size:46.95375824px;text-anchor:middle;font-family:Arial"
     x="248.11188"
     y="472.88049"
     font-size="46.954"
     transform="scale(4.0128205,0.24920128)"
     id="text3060" />
  <text
     style="font-size:129.22999573px;line-height:125%;letter-spacing:0;word-spacing:0;font-family:Gentium Book Basic"
     sodipodi:linespacing="125%"
     font-size="129.23"
     letter-spacing="0"
     line-height="125%"
     word-spacing="0"
     x="786.0484"
     y="124.85053"
     id="text3062">
    <tspan
       x="786.0484"
       y="124.85053"
       id="tspan3064" />
  </text>
  <text
     style="font-size:46.95375824px;text-anchor:middle;font-family:Arial"
     x="392.96115"
     y="151.84233"
     font-size="46.954"
     transform="scale(4.0128205,0.24920128)"
     id="text3066" />
  <text
     style="font-size:129.22999573px;line-height:125%;letter-spacing:0;word-spacing:0;font-family:Gentium Book Basic"
     sodipodi:linespacing="125%"
     font-size="129.23"
     letter-spacing="0"
     line-height="125%"
     word-spacing="0"
     x="-285.53165"
     y="-56.409447"
     id="text3068">
    <tspan
       x="-285.53165"
       y="-56.409447"
       id="tspan3070" />
  </text>
  <text
     style="font-size:46.95375824px;text-anchor:middle;font-family:Arial"
     x="125.92249"
     y="-575.50403"
     font-size="46.954"
     transform="scale(4.0128205,0.24920128)"
     id="text3072" />
  <text
     style="font-size:129.22999573px;line-height:125%;letter-spacing:0;word-spacing:0;font-family:Gentium Book Basic"
     sodipodi:linespacing="125%"
     font-size="129.23"
     letter-spacing="0"
     line-height="125%"
     word-spacing="0"
     x="812.51837"
     y="-272.87946"
     id="text3074">
    <tspan
       x="812.51837"
       y="-272.87946"
       id="tspan3076" />
  </text>
  <text
     style="font-size:46.95375824px;text-anchor:middle;font-family:Arial"
     x="399.56107"
     y="-1444.1796"
     font-size="46.954"
     transform="scale(4.0128205,0.24920128)"
     id="text3078" />
  <text
     style="font-size:129.22999573px;line-height:125%;letter-spacing:0;word-spacing:0;font-family:Gentium Book Basic"
     sodipodi:linespacing="125%"
     font-size="129.23"
     letter-spacing="0"
     line-height="125%"
     word-spacing="0"
     x="1393.7883"
     y="-352.87943"
     id="text3080">
    <tspan
       x="1393.7883"
       y="-352.87943"
       id="tspan3082" />
  </text>
  <text
     style="font-size:46.95375824px;text-anchor:middle;font-family:Arial"
     x="544.4104"
     y="-1765.2079"
     font-size="46.954"
     transform="scale(4.0128205,0.24920128)"
     id="text3084" />
  <text
     style="font-size:129.22999573px;line-height:125%;letter-spacing:0;word-spacing:0;font-family:Gentium Book Basic"
     sodipodi:linespacing="125%"
     font-size="129.23"
     letter-spacing="0"
     line-height="125%"
     word-spacing="0"
     x="1004.6684"
     y="-825.27942"
     id="text3086">
    <tspan
       x="1004.6684"
       y="-825.27942"
       id="tspan3088" />
  </text>
  <text
     style="font-size:46.95375824px;text-anchor:middle;font-family:Arial"
     x="447.44083"
     y="-3660.8582"
     font-size="46.954"
     transform="scale(4.0128205,0.24920128)"
     id="text3090" />
  <text
     style="font-size:129.22999573px;line-height:125%;letter-spacing:0;word-spacing:0;font-family:Gentium Book Basic"
     sodipodi:linespacing="125%"
     font-size="129.23"
     letter-spacing="0"
     line-height="125%"
     word-spacing="0"
     x="1585.9283"
     y="-905.28943"
     id="text3092">
    <tspan
       x="1585.9283"
       y="-905.28943"
       id="tspan3094" />
  </text>
  <text
     style="font-size:46.95375824px;text-anchor:middle;font-family:Arial"
     x="592.29016"
     y="-3981.8967"
     font-size="46.954"
     transform="scale(4.0128205,0.24920128)"
     id="text3096" />
  <text
     style="font-size:208.33000183px;line-height:125%;letter-spacing:0;word-spacing:0;font-family:Gentium Book Basic"
     sodipodi:linespacing="125%"
     font-size="208.33"
     letter-spacing="0"
     line-height="125%"
     word-spacing="0"
     x="-246.87164"
     y="509.4306"
     id="text3098">
    <tspan
       x="-246.87164"
       y="509.4306"
       id="tspan3100" />
  </text>
  <text
     style="font-size:129.22999573px;line-height:125%;letter-spacing:0;word-spacing:0;font-family:Gentium Book Basic"
     sodipodi:linespacing="125%"
     y="179.34439"
     x="-637.75049"
     word-spacing="0"
     line-height="125%"
     letter-spacing="0"
     font-size="129.23"
     id="text3207">
    <tspan
       y="179.34439"
       x="-637.75049"
       id="tspan3209" />
  </text>
  <text
     style="font-size:46.95375824px;text-anchor:middle;font-family:Arial"
     transform="scale(4.0128205,0.24920128)"
     font-size="46.954"
     y="370.5253"
     x="38.150723"
     id="text3211" />
  <text
     style="font-size:129.22999573px;line-height:125%;letter-spacing:0;word-spacing:0;font-family:Gentium Book Basic"
     sodipodi:linespacing="125%"
     y="99.344391"
     x="-56.480457"
     word-spacing="0"
     line-height="125%"
     letter-spacing="0"
     font-size="129.23"
     id="text3213">
    <tspan
       y="99.344391"
       x="-56.480457"
       id="tspan3215" />
  </text>
  <text
     style="font-size:46.95375824px;text-anchor:middle;font-family:Arial"
     transform="scale(4.0128205,0.24920128)"
     font-size="46.954"
     y="49.486908"
     x="182.99998"
     id="text3217" />
  <text
     style="font-size:129.22999573px;line-height:125%;letter-spacing:0;word-spacing:0;font-family:Gentium Book Basic"
     sodipodi:linespacing="125%"
     y="-81.915611"
     x="-1128.0604"
     word-spacing="0"
     line-height="125%"
     letter-spacing="0"
     font-size="129.23"
     id="text3219">
    <tspan
       y="-81.915611"
       x="-1128.0604"
       id="tspan3221" />
  </text>
  <text
     style="font-size:46.95375824px;text-anchor:middle;font-family:Arial"
     transform="scale(4.0128205,0.24920128)"
     font-size="46.954"
     y="-677.84937"
     x="-84.038651"
     id="text3223" />
  <text
     style="font-size:129.22999573px;line-height:125%;letter-spacing:0;word-spacing:0;font-family:Gentium Book Basic"
     sodipodi:linespacing="125%"
     y="-298.38559"
     x="-30.010485"
     word-spacing="0"
     line-height="125%"
     letter-spacing="0"
     font-size="129.23"
     id="text3225">
    <tspan
       y="-298.38559"
       x="-30.010485"
       id="tspan3227" />
  </text>
  <text
     style="font-size:46.95375824px;text-anchor:middle;font-family:Arial"
     transform="scale(4.0128205,0.24920128)"
     font-size="46.954"
     y="-1546.5249"
     x="189.59993"
     id="text3229" />
  <text
     style="font-size:129.22999573px;line-height:125%;letter-spacing:0;word-spacing:0;font-family:Gentium Book Basic"
     sodipodi:linespacing="125%"
     y="-378.38562"
     x="551.25952"
     word-spacing="0"
     line-height="125%"
     letter-spacing="0"
     font-size="129.23"
     id="text3231">
    <tspan
       y="-378.38562"
       x="551.25952"
       id="tspan3233" />
  </text>
  <text
     style="font-size:46.95375824px;text-anchor:middle;font-family:Arial"
     transform="scale(4.0128205,0.24920128)"
     font-size="46.954"
     y="-1867.5532"
     x="334.44919"
     id="text3235" />
  <text
     style="font-size:129.22999573px;line-height:125%;letter-spacing:0;word-spacing:0;font-family:Gentium Book Basic"
     sodipodi:linespacing="125%"
     y="-850.78558"
     x="162.13954"
     word-spacing="0"
     line-height="125%"
     letter-spacing="0"
     font-size="129.23"
     id="text3237">
    <tspan
       y="-850.78558"
       x="162.13954"
       id="tspan3239" />
  </text>
  <text
     style="font-size:46.95375824px;text-anchor:middle;font-family:Arial"
     transform="scale(4.0128205,0.24920128)"
     font-size="46.954"
     y="-3763.1936"
     x="237.47969"
     id="text3241" />
  <text
     style="font-size:129.22999573px;line-height:125%;letter-spacing:0;word-spacing:0;font-family:Gentium Book Basic"
     sodipodi:linespacing="125%"
     y="-930.79559"
     x="743.39954"
     word-spacing="0"
     line-height="125%"
     letter-spacing="0"
     font-size="129.23"
     id="text3243">
    <tspan
       y="-930.79559"
       x="743.39954"
       id="tspan3245" />
  </text>
  <text
     style="font-size:46.95375824px;text-anchor:middle;font-family:Arial"
     transform="scale(4.0128205,0.24920128)"
     font-size="46.954"
     y="-4084.2219"
     x="382.32895"
     id="text3247" />
  <text
     style="font-size:208.33000183px;line-height:125%;letter-spacing:0;word-spacing:0;font-family:Gentium Book Basic"
     sodipodi:linespacing="125%"
     y="483.92441"
     x="-1089.4005"
     word-spacing="0"
     line-height="125%"
     letter-spacing="0"
     font-size="208.33"
     id="text3249">
    <tspan
       y="483.92441"
       x="-1089.4005"
       id="tspan3251" />
  </text>
  <g
     id="g3439"
     transform="translate(201.42358,-94.650105)">
    <path
       style="opacity:0.2;fill:#000000;fill-opacity:1"
       inkscape:connector-curvature="0"
       d="m 171.11547,191.29166 c -32.28398,0 -58.45238,26.16997 -58.45238,58.45238 0,0.79697 0.0483,1.59395 0.0795,2.38235 l -122.030936,61.3894 c -10.174438,-8.57738 -23.336546,-13.73938 -37.682816,-13.73938 -32.283975,0 -58.452378,26.16996 -58.452378,58.45238 0,32.28397 26.169961,58.45238 58.452378,58.45238 14.557393,0 27.889335,-5.33262 38.121423,-14.13982 0.778275,0.34512 1.357891,0.5726 2.263151,0.99251 4.167936,1.93439 9.681297,4.63381 16.0827792,7.78353 12.8029648,6.29475 29.1210188,14.50286 45.1928918,22.67824 27.863626,14.17098 51.341957,26.30552 58.055067,29.78322 -0.0436,0.93096 -0.0795,1.83778 -0.0795,2.77966 0,32.28397 26.16996,58.45238 58.45238,58.45238 32.28397,0 58.45238,-26.16996 58.45238,-58.45238 0,-32.28398 -26.16997,-58.45238 -58.45238,-58.45238 -13.9918,0 -26.82827,4.94465 -36.88818,13.14419 L 11.488973,359.46359 c 0.0086,-0.41446 0,-0.81411 0,-1.23091 0,-0.61077 -0.02103,-1.22077 -0.03973,-1.82688 4.896351,-2.52803 30.531105,-15.75246 59.761191,-30.6168 16.068757,-8.17149 32.386806,-16.41465 45.192886,-22.7172 6.40149,-3.14737 11.91407,-5.80939 16.08278,-7.74378 0.54378,-0.25241 0.85462,-0.37005 1.3501,-0.59598 10.12302,8.40287 23.10361,13.46204 37.28784,13.46204 32.28397,0 58.45238,-26.16996 58.45238,-58.45237 0,-32.28398 -26.16996,-58.45239 -58.45238,-58.45239"
       id="path3437" />
    <path
       id="path3315"
       d="m 156.11547,176.29166 c -32.28398,0 -58.452382,26.16997 -58.452382,58.45238 0,0.79697 0.0483,1.59395 0.07946,2.38235 l -122.030934,61.3894 c -10.174438,-8.57738 -23.336546,-13.73938 -37.682816,-13.73938 -32.283975,0 -58.452378,26.16996 -58.452378,58.45238 0,32.28397 26.169961,58.45238 58.452378,58.45238 14.557393,0 27.889335,-5.33262 38.121423,-14.13982 0.778275,0.34512 1.357891,0.5726 2.263151,0.99251 4.167936,1.93439 9.681297,4.63381 16.0827792,7.78353 12.8029646,6.29475 29.1210188,14.50286 45.1928918,22.67824 27.863626,14.17098 51.34196,26.30552 58.055064,29.78322 -0.04363,0.93096 -0.07946,1.83778 -0.07946,2.77966 0,32.28397 26.169963,58.45238 58.452383,58.45238 32.28397,0 58.45238,-26.16996 58.45238,-58.45238 0,-32.28398 -26.16997,-58.45238 -58.45238,-58.45238 -13.9918,0 -26.82827,4.94465 -36.88818,13.14419 L -3.511027,344.46359 c 0.00857,-0.41446 0,-0.81411 0,-1.23091 0,-0.61077 -0.021035,-1.22077 -0.039732,-1.82688 4.896351,-2.52803 30.531105,-15.75246 59.761191,-30.6168 16.068757,-8.17149 32.386811,-16.41465 45.192888,-22.7172 6.40149,-3.14737 11.91407,-5.80939 16.08278,-7.74378 0.54378,-0.25241 0.85462,-0.37005 1.3501,-0.59598 10.12302,8.40287 23.10361,13.46204 37.28784,13.46204 32.28397,0 58.45238,-26.16996 58.45238,-58.45237 0,-32.28398 -26.16996,-58.45239 -58.45238,-58.45239"
       inkscape:connector-curvature="0"
       style="fill:#dcdbdb;fill-opacity:1" />
  </g>
  <g
     id="g3167">
    <path
       id="rect3068"
       d="M 78.65625 6 C 63.792798 6 49.986224 10.429561 38.5 18.03125 L 38.5 493.96875 C 49.986224 501.57044 63.792798 506 78.65625 506 L 147.5 506 L 147.5 6 L 78.65625 6 z "
       style="opacity:0.05000000000000000;fill:url(#linearGradient3108);fill-opacity:1;stroke:none" />
    <path
       inkscape:connector-curvature="0"
       style="opacity:0.05;fill:url(#linearGradient3137);fill-opacity:1;stroke:none"
       d="m 147.50001,6 0,500 109,0 0,-500 -109,0 z"
       id="path3135" />
    <path
       id="path3139"
       d="m 256.50001,6 0,500 109,0 0,-500 -109,0 z"
       style="opacity:0.05;fill:url(#linearGradient3141);fill-opacity:1;stroke:none"
       inkscape:connector-curvature="0" />
    <path
       id="path3143"
       d="M 365.5 6 L 365.5 506 L 433.34375 506 C 448.1977 506 461.98692 501.56151 473.46875 493.96875 L 473.46875 18.03125 C 461.98692 10.438491 448.1977 6 433.34375 6 L 365.5 6 z "
       style="opacity:0.05000000000000000;fill:url(#linearGradient3145);fill-opacity:1;stroke:none" />
    <path
       id="path3151"
       d="M 38.5 18.03125 C 18.885717 31.012164 6 53.274894 6 78.65625 L 6 433.34375 C 6 458.72511 18.885717 480.98784 38.5 493.96875 L 38.5 18.03125 z "
       style="opacity:0.05000000000000000;fill:url(#linearGradient3153);fill-opacity:1;stroke:none" />
    <path
       id="path3147"
       d="M 473.46875 18.03125 L 473.46875 493.96875 C 493.09542 480.98993 506 458.73461 506 433.34375 L 506 78.65625 C 506 53.265388 493.09542 31.010071 473.46875 18.03125 z "
       style="opacity:0.05000000000000000;fill:url(#linearGradient3149);fill-opacity:1;stroke:none" />
  </g>
</svg>
