<svg xmlns="http://www.w3.org/2000/svg" xmlns:xlink="http://www.w3.org/1999/xlink" viewBox="0 0 512 512"><defs><filter id="7"><feGaussianBlur stdDeviation="3.7725"/></filter><linearGradient id="8" y1="19.564" x2="0" y2="504.02" gradientUnits="userSpaceOnUse"><stop stop-color="#f3f3f3"/><stop offset=".5" stop-color="#eee"/><stop offset="1" stop-color="#ebebeb"/></linearGradient><linearGradient xlink:href="#0" id="5" gradientUnits="userSpaceOnUse" gradientTransform="matrix(1.02835 0 0 1.46193 209.19-118.25)" x1="257" x2="362"/><linearGradient xlink:href="#0" id="6" gradientUnits="userSpaceOnUse" gradientTransform="matrix(1.0381 0 0 1.46193-337.29-118.25)" x1="257" x2="362"/><linearGradient xlink:href="#0" id="4" gradientUnits="userSpaceOnUse" gradientTransform="matrix(1.02835 0 0 1.46193 101.22-118.25)" x1="257" x2="362"/><linearGradient xlink:href="#0" id="3" gradientUnits="userSpaceOnUse" gradientTransform="matrix(1.0381 0 0 1.46193-10.289-118.25)" x1="257" x2="362"/><linearGradient id="0"><stop/><stop offset="1" stop-color="#fff"/></linearGradient><linearGradient xlink:href="#0" id="2" gradientUnits="userSpaceOnUse" gradientTransform="matrix(1.0381 0 0 1.46193-119.29-118.25)" x1="257" x2="362"/><linearGradient xlink:href="#0" id="1" gradientUnits="userSpaceOnUse" gradientTransform="matrix(1.0381 0 0 1.46193-228.29-118.25)" x1="257" x2="362"/></defs><path d="m78.66 6c-.929 0-1.861.028-2.781.063-.073.003-.146-.003-.219 0-.668.027-1.337.08-2 .125-.376.025-.751.063-1.125.094-.645.053-1.297.086-1.938.156-.965.106-1.922.232-2.875.375-.052.008-.104.023-.156.031-1.082.165-2.154.351-3.219.563-.459.091-.919.182-1.375.281-.39.085-.769.19-1.156.281-.647.152-1.297.299-1.938.469-.898.238-1.804.479-2.688.75-.211.065-.414.152-.625.219-.991.314-1.966.645-2.938 1-.817.298-1.635.611-2.438.938-.29.118-.587.222-.875.344-.136.057-.27.129-.406.188-.082.035-.169.058-.25.094-.717.311-1.42.636-2.125.969-.147.069-.291.148-.438.219-.947.455-1.889.943-2.813 1.438-.271.145-.544.289-.813.438-.414.228-.81.483-1.219.719-.52.3-1.051.594-1.563.906-.738.452-1.467.898-2.188 1.375-.031.021-.062.042-.094.063-.456.303-.895.625-1.344.938-.123.086-.252.163-.375.25-.524.37-1.049.742-1.563 1.125-1.835 1.371-3.618 2.84-5.313 4.375-.017.015-.046.016-.063.031-.526.477-1.02.977-1.531 1.469-.524.505-1.054 1.011-1.563 1.531-.512.523-1 1.055-1.5 1.594-.941 1.022-1.837 2.05-2.719 3.125-.631.769-1.244 1.58-1.844 2.375-.111.148-.233.289-.344.438-.526.71-1.031 1.427-1.531 2.156-.11.16-.235.308-.344.469-.013.019-.018.043-.031.063-.084.125-.167.249-.25.375-.47.708-.929 1.431-1.375 2.156-.071.116-.148.227-.219.344-.575.948-1.124 1.899-1.656 2.875-.152.278-.289.564-.438.844-.18.341-.356.687-.531 1.031-.243.479-.486.952-.719 1.438-.426.885-.828 1.783-1.219 2.688-.24.556-.461 1.124-.688 1.688-.038.095-.087.186-.125.281-.246.621-.489 1.245-.719 1.875-.332.909-.641 1.825-.938 2.75-.11.345-.238.684-.344 1.031-.301.99-.585 1.992-.844 3-.008.032-.023.062-.031.094-.267 1.046-.497 2.092-.719 3.156-.034.166-.06.334-.094.5-.426 2.117-.762 4.257-1 6.438-.035.323-.063.645-.094.969-.09.938-.165 1.895-.219 2.844-.017.29-.018.584-.031.875-.051 1.119-.094 2.243-.094 3.375v354.69 6c0 40.24 32.411 72.66 72.66 72.66h354.69c40.24 0 72.66-32.411 72.66-72.66v-354.69-6c0-1.259-.031-2.507-.094-3.75-.016-.323-.042-.647-.063-.969-.058-.917-.127-1.843-.219-2.75-.02-.2-.041-.394-.063-.594-.246-2.245-.587-4.447-1.031-6.625-.021-.104-.041-.209-.063-.313-.227-1.087-.476-2.15-.75-3.219-.011-.042-.02-.083-.031-.125-.19-.732-.413-1.464-.625-2.188-.212-.724-.423-1.442-.656-2.156-.258-.789-.529-1.567-.813-2.344-.23-.63-.472-1.254-.719-1.875-.038-.096-.087-.186-.125-.281-.239-.594-.465-1.195-.719-1.781-.378-.871-.777-1.741-1.188-2.594-.233-.485-.475-.958-.719-1.438-.287-.564-.574-1.132-.875-1.688-.051-.094-.105-.188-.156-.281-.513-.936-1.041-1.871-1.594-2.781-.212-.35-.438-.685-.656-1.031-.405-.642-.795-1.278-1.219-1.906-.809-1.199-1.685-2.354-2.563-3.5-.262-.341-.514-.695-.781-1.031-.189-.238-.371-.483-.563-.719-.093-.114-.188-.231-.281-.344-2.71-3.286-5.696-6.301-8.938-9.06-.293-.249-.578-.505-.875-.75-.268-.221-.541-.439-.813-.656-.636-.509-1.284-1.012-1.938-1.5-3.17-2.368-6.55-4.481-10.09-6.313-.617-.319-1.248-.636-1.875-.938-.155-.074-.313-.145-.469-.219-.785-.371-1.575-.719-2.375-1.063-.488-.209-.975-.426-1.469-.625-.735-.296-1.472-.571-2.219-.844-.392-.143-.793-.27-1.188-.406-.718-.248-1.459-.524-2.188-.75-.114-.035-.23-.059-.344-.094-.488-.149-.977-.267-1.469-.406-.357-.1-.703-.217-1.063-.313-.019-.005-.043.005-.063 0-.837-.221-1.683-.433-2.531-.625-.032-.007-.062-.024-.094-.031-.651-.146-1.311-.278-1.969-.406-1-.197-2.01-.376-3.03-.531-.063-.01-.125-.022-.188-.031-.952-.143-1.88-.269-2.844-.375-.836-.091-1.687-.156-2.531-.219-.176-.013-.355-.019-.531-.031-.735-.049-1.478-.097-2.219-.125-.92-.034-1.853-.063-2.781-.063h-285.84-68.844" filter="url(#7)" fill-opacity=".176"/><rect width="500" height="500" x="6" y="12" rx="72.64" opacity=".15"/><rect rx="72.64" y="6" x="6" height="500" width="500" fill="url(#8)"/><rect width="435" height="435" x="38.5" y="38.5" rx="63.2" fill="#f38725"/><path d="m101.69 38.5c-35.01 0-63.19 28.17-63.19 63.19v15c0-35.01 28.17-63.19 63.19-63.19h308.63c35.01 0 63.19 28.17 63.19 63.19v-15c0-35.01-28.17-63.19-63.19-63.19h-308.62" opacity=".2"/><path d="m78.66 6c-40.24 0-72.66 32.411-72.66 72.66v7c0-40.24 32.411-72.66 72.66-72.66h354.69c40.24 0 72.66 32.411 72.66 72.66v-7c0-40.24-32.411-72.66-72.66-72.66h-354.69" fill="#fff"/><g transform="matrix(1.04412 0 0 1.22166 452.85 33.25)"><g transform="matrix(11.16629 0 0 11.16629-13758.22-11911.78)" opacity=".2"><path d="m1227.22 1082.9c-.506 0-.99.102-1.428.285-.295-3.326-3.082-5.934-6.482-5.934-.834 0-1.646.164-2.361.441-.279.107-.352.217-.355.434v11.711c0 .225.178.414.398.436.01 0 10.162.01 10.229.01 2.037 0 3.689-1.65 3.689-3.689 0-2.038-1.653-3.69-3.69-3.69z" id="9"/><path d="m1207.62 1086.83l-.266-4.959c-.01-.125-.105-.223-.227-.223-.122 0-.221.098-.227.223l-.234 4.959.234 3.203c.01.127.105.225.227.225.122 0 .221-.098.227-.225l.266-3.203" id="A"/><path d="m1206.41 1086.82l-.283-3.047c-.01-.113-.094-.199-.201-.199-.107 0-.195.086-.201.199l-.25 3.047.25 3.205c.01.111.094.197.201.197.107 0 .193-.086.201-.197l.283-3.205" id="B"/><path d="m1208.85 1086.83l-.248-6.09c-.01-.141-.119-.252-.254-.252-.135 0-.246.111-.252.252l-.219 6.09.219 3.184c.01.139.117.25.252.25.135 0 .246-.111.254-.25l.248-3.186z" id="C"/><path d="m1202.36 1089.58c.063 0 .115-.049.123-.121l.336-2.635-.334-2.695c-.01-.072-.063-.121-.125-.121-.064 0-.117.051-.125.121l-.297 2.695.297 2.635c.01.07.061.121.125.121" id="D"/><path d="m1203.54 1090.05c.078 0 .141-.061.15-.145l.318-3.082-.318-3.197c-.01-.086-.072-.148-.15-.148-.078 0-.143.063-.15.148l-.279 3.197.279 3.08c.01.086.072.147.15.147" id="E"/><path d="m1211.11 1080.01c-.01-.168-.137-.301-.303-.301-.166 0-.299.133-.305.301l-.189 6.822.189 3.131c.01.168.139.301.305.301.166 0 .297-.133.303-.303l.215-3.131-.215-6.822z" id="F"/><path d="m1204.72 1090.17c.092 0 .166-.074.176-.172l.299-3.178-.299-3.285c-.01-.098-.084-.172-.176-.172-.094 0-.17.074-.176.174l-.266 3.283.266 3.178c.01.098.082.172.176.172" id="G"/><path d="m1210.08 1086.83l-.23-6.6c-.01-.156-.129-.277-.277-.277-.152 0-.273.121-.279.277l-.205 6.6.205 3.15c.01.154.127.273.279.273.148 0 .271-.119.277-.275l.23-3.15z" id="H"/><path d="m1212.58 1086.83l-.195-6.648c0-.184-.148-.326-.33-.326-.18 0-.324.145-.328.326l-.174 6.648.174 3.102c0 .182.148.326.328.326.182 0 .326-.145.33-.328l.195-3.102z" id="I"/><path d="m1201.25 1085.04c-.063 0-.111.049-.121.117l-.219 1.666.219 1.637c.01.068.059.117.121.117.061 0 .109-.047.119-.115l.26-1.639-.26-1.666c-.01-.07-.058-.117-.119-.117" id="J"/><path d="m1215.12 1086.83l-.16-7.621c0-.209-.176-.379-.381-.379-.209 0-.379.17-.381.379l-.145 7.621c0 0 .145 3.063.145 3.063 0 .207.172.377.381.377.205 0 .377-.17.381-.379l.16-3.063z" id="K"/><path d="m1215.84 1078.11c-.221 0-.404.184-.408.406l-.166 8.313.166 3.02c0 .221.188.402.408.402.219 0 .402-.182.406-.404l.182-3.02-.182-8.313c0-.222-.187-.406-.406-.406z" id="L"/><path d="m1213.85 1086.83l-.18-6.404c0-.199-.16-.355-.354-.355-.197 0-.352.156-.355.355l-.158 6.404.158 3.084c0 .193.158.35.355.35.193 0 .35-.156.354-.354l.18-3.084z" id="M"/></g><g transform="matrix(11.16629 0 0 11.16629-13773.22-11926.78)" fill="#dcdbdb"><use xlink:href="#9"/><use xlink:href="#A"/><use xlink:href="#B"/><use xlink:href="#C"/><use xlink:href="#D"/><use xlink:href="#E"/><use xlink:href="#F"/><use xlink:href="#G"/><use xlink:href="#H"/><use xlink:href="#I"/><use xlink:href="#J"/><use xlink:href="#K"/><use xlink:href="#L"/><use xlink:href="#M"/></g></g><path d="m78.66 6c-14.863 0-28.67 4.43-40.16 12.03v475.94c11.486 7.602 25.293 12.03 40.16 12.03h68.844v-500h-68.844" opacity=".05" fill="url(#1)"/><path d="m147.5 6v500h109v-500h-109" opacity=".05" fill="url(#2)"/><path d="m256.5 6v500h109v-500h-109" opacity=".05" fill="url(#3)"/><path d="m365.5 6v500h67.844c14.854 0 28.643-4.438 40.13-12.03v-475.94c-11.482-7.593-25.27-12.03-40.12-12.03h-67.844" opacity=".05" fill="url(#4)"/><path d="m38.5 18.03c-19.614 12.981-32.5 35.24-32.5 60.63v354.69c0 25.381 12.886 47.644 32.5 60.63v-475.94" opacity=".05" fill="url(#6)"/><path d="m473.47 18.03v475.94c19.627-12.979 32.531-35.23 32.531-60.62v-354.69c0-25.391-12.905-47.646-32.531-60.62" opacity=".05" fill="url(#5)"/></svg>