<?xml version="1.0" encoding="UTF-8" standalone="no"?>
<!-- Created with Inkscape (http://www.inkscape.org/) -->

<svg
   xmlns:dc="http://purl.org/dc/elements/1.1/"
   xmlns:cc="http://creativecommons.org/ns#"
   xmlns:rdf="http://www.w3.org/1999/02/22-rdf-syntax-ns#"
   xmlns:svg="http://www.w3.org/2000/svg"
   xmlns="http://www.w3.org/2000/svg"
   xmlns:xlink="http://www.w3.org/1999/xlink"
   xmlns:inkscape="http://www.inkscape.org/namespaces/inkscape"
   version="1.1"
   width="100%"
   height="100%"
   viewBox="0 0 512 512"
   id="svg2">
  <metadata
     id="metadata101">
    <rdf:RDF>
      <cc:Work
         rdf:about="">
        <dc:format>image/svg+xml</dc:format>
        <dc:type
           rdf:resource="http://purl.org/dc/dcmitype/StillImage" />
      </cc:Work>
    </rdf:RDF>
  </metadata>
  <defs
     id="defs4">
    <filter
       color-interpolation-filters="sRGB"
       id="7">
      <feGaussianBlur
         id="feGaussianBlur7"
         stdDeviation="3.7725" />
    </filter>
    <linearGradient
       y1="19.563999"
       x2="0"
       y2="504.01999"
       id="8"
       gradientUnits="userSpaceOnUse">
      <stop
         id="stop10"
         style="stop-color:#f3f3f3;stop-opacity:1"
         offset="0" />
      <stop
         id="stop12"
         style="stop-color:#eeeeee;stop-opacity:1"
         offset="0.5" />
      <stop
         id="stop14"
         style="stop-color:#ebebeb;stop-opacity:1"
         offset="1" />
    </linearGradient>
    <linearGradient
       x1="257"
       x2="362"
       id="5"
       xlink:href="#0"
       gradientUnits="userSpaceOnUse"
       gradientTransform="matrix(1.02835,0,0,1.46193,209.19,-118.25)" />
    <linearGradient
       x1="257"
       x2="362"
       id="6"
       xlink:href="#0"
       gradientUnits="userSpaceOnUse"
       gradientTransform="matrix(1.0381,0,0,1.46193,-337.29,-118.25)" />
    <linearGradient
       x1="257"
       x2="362"
       id="4"
       xlink:href="#0"
       gradientUnits="userSpaceOnUse"
       gradientTransform="matrix(1.02835,0,0,1.46193,101.22,-118.25)" />
    <linearGradient
       x1="257"
       x2="362"
       id="3"
       xlink:href="#0"
       gradientUnits="userSpaceOnUse"
       gradientTransform="matrix(1.0381,0,0,1.46193,-10.289,-118.25)" />
    <linearGradient
       id="0">
      <stop
         id="stop21"
         style="stop-color:#000000;stop-opacity:1"
         offset="0" />
      <stop
         id="stop23"
         style="stop-color:#ffffff;stop-opacity:1"
         offset="1" />
    </linearGradient>
    <linearGradient
       x1="257"
       x2="362"
       id="2"
       xlink:href="#0"
       gradientUnits="userSpaceOnUse"
       gradientTransform="matrix(1.0381,0,0,1.46193,-119.29,-118.25)" />
    <linearGradient
       x1="257"
       x2="362"
       id="1"
       xlink:href="#0"
       gradientUnits="userSpaceOnUse"
       gradientTransform="matrix(1.0381,0,0,1.46193,-228.29,-118.25)" />
  </defs>
  <path
     d="m 78.66,6 c -0.929,0 -1.861,0.028 -2.781,0.063 -0.073,0.003 -0.146,-0.003 -0.219,0 -0.668,0.027 -1.337,0.08 -2,0.125 -0.376,0.025 -0.751,0.063 -1.125,0.094 -0.645,0.053 -1.297,0.086 -1.938,0.156 -0.965,0.106 -1.922,0.232 -2.875,0.375 -0.052,0.008 -0.104,0.023 -0.156,0.031 -1.082,0.165 -2.154,0.351 -3.219,0.563 -0.459,0.091 -0.919,0.182 -1.375,0.281 -0.39,0.085 -0.769,0.19 -1.156,0.281 -0.647,0.152 -1.297,0.299 -1.938,0.469 -0.898,0.238 -1.804,0.479 -2.688,0.75 -0.211,0.065 -0.414,0.152 -0.625,0.219 -0.991,0.314 -1.966,0.645 -2.938,1 -0.817,0.298 -1.635,0.611 -2.438,0.938 -0.29,0.118 -0.587,0.222 -0.875,0.344 -0.136,0.057 -0.27,0.129 -0.406,0.188 -0.082,0.035 -0.169,0.058 -0.25,0.094 -0.717,0.311 -1.42,0.636 -2.125,0.969 -0.147,0.069 -0.291,0.148 -0.438,0.219 -0.947,0.455 -1.889,0.943 -2.813,1.438 -0.271,0.145 -0.544,0.289 -0.813,0.438 -0.414,0.228 -0.81,0.483 -1.219,0.719 -0.52,0.3 -1.051,0.594 -1.563,0.906 -0.738,0.452 -1.467,0.898 -2.188,1.375 -0.031,0.021 -0.062,0.042 -0.094,0.063 -0.456,0.303 -0.895,0.625 -1.344,0.938 -0.123,0.086 -0.252,0.163 -0.375,0.25 -0.524,0.37 -1.049,0.742 -1.563,1.125 -1.835,1.371 -3.618,2.84 -5.313,4.375 -0.017,0.015 -0.046,0.016 -0.063,0.031 -0.526,0.477 -1.02,0.977 -1.531,1.469 -0.524,0.505 -1.054,1.011 -1.563,1.531 -0.512,0.523 -1,1.055 -1.5,1.594 -0.941,1.022 -1.837,2.05 -2.719,3.125 -0.631,0.769 -1.244,1.58 -1.844,2.375 -0.111,0.148 -0.233,0.289 -0.344,0.438 -0.526,0.71 -1.031,1.427 -1.531,2.156 -0.11,0.16 -0.235,0.308 -0.344,0.469 -0.013,0.019 -0.018,0.043 -0.031,0.063 -0.084,0.125 -0.167,0.249 -0.25,0.375 -0.47,0.708 -0.929,1.431 -1.375,2.156 -0.071,0.116 -0.148,0.227 -0.219,0.344 -0.575,0.948 -1.124,1.899 -1.656,2.875 -0.152,0.278 -0.289,0.564 -0.438,0.844 -0.18,0.341 -0.356,0.687 -0.531,1.031 -0.243,0.479 -0.486,0.952 -0.719,1.438 -0.426,0.885 -0.828,1.783 -1.219,2.688 -0.24,0.556 -0.461,1.124 -0.688,1.688 -0.038,0.095 -0.087,0.186 -0.125,0.281 -0.246,0.621 -0.489,1.245 -0.719,1.875 -0.332,0.909 -0.641,1.825 -0.938,2.75 -0.11,0.345 -0.238,0.684 -0.344,1.031 -0.301,0.99 -0.585,1.992 -0.844,3 -0.008,0.032 -0.023,0.062 -0.031,0.094 -0.267,1.046 -0.497,2.092 -0.719,3.156 -0.034,0.166 -0.06,0.334 -0.094,0.5 -0.426,2.117 -0.762,4.257 -1,6.438 -0.035,0.323 -0.063,0.645 -0.094,0.969 -0.09,0.938 -0.165,1.895 -0.219,2.844 -0.017,0.29 -0.018,0.584 -0.031,0.875 -0.051,1.119 -0.094,2.243 -0.094,3.375 v 354.69 6 c 0,40.24 32.411,72.66 72.66,72.66 h 354.69 c 40.24,0 72.66,-32.411 72.66,-72.66 v -354.69 -6 c 0,-1.259 -0.031,-2.507 -0.094,-3.75 -0.016,-0.323 -0.042,-0.647 -0.063,-0.969 -0.058,-0.917 -0.127,-1.843 -0.219,-2.75 -0.02,-0.2 -0.041,-0.394 -0.063,-0.594 -0.246,-2.245 -0.587,-4.447 -1.031,-6.625 -0.021,-0.104 -0.041,-0.209 -0.063,-0.313 -0.227,-1.087 -0.476,-2.15 -0.75,-3.219 -0.011,-0.042 -0.02,-0.083 -0.031,-0.125 -0.19,-0.732 -0.413,-1.464 -0.625,-2.188 -0.212,-0.724 -0.423,-1.442 -0.656,-2.156 -0.258,-0.789 -0.529,-1.567 -0.813,-2.344 -0.23,-0.63 -0.472,-1.254 -0.719,-1.875 -0.038,-0.096 -0.087,-0.186 -0.125,-0.281 -0.239,-0.594 -0.465,-1.195 -0.719,-1.781 -0.378,-0.871 -0.777,-1.741 -1.188,-2.594 -0.233,-0.485 -0.475,-0.958 -0.719,-1.438 -0.287,-0.564 -0.574,-1.132 -0.875,-1.688 -0.051,-0.094 -0.105,-0.188 -0.156,-0.281 -0.513,-0.936 -1.041,-1.871 -1.594,-2.781 -0.212,-0.35 -0.438,-0.685 -0.656,-1.031 -0.405,-0.642 -0.795,-1.278 -1.219,-1.906 -0.809,-1.199 -1.685,-2.354 -2.563,-3.5 -0.262,-0.341 -0.514,-0.695 -0.781,-1.031 -0.189,-0.238 -0.371,-0.483 -0.563,-0.719 -0.093,-0.114 -0.188,-0.231 -0.281,-0.344 -2.71,-3.286 -5.696,-6.301 -8.938,-9.06 -0.293,-0.249 -0.578,-0.505 -0.875,-0.75 -0.268,-0.221 -0.541,-0.439 -0.813,-0.656 -0.636,-0.509 -1.284,-1.012 -1.938,-1.5 -3.17,-2.368 -6.55,-4.481 -10.09,-6.313 -0.617,-0.319 -1.248,-0.636 -1.875,-0.938 -0.155,-0.074 -0.313,-0.145 -0.469,-0.219 -0.785,-0.371 -1.575,-0.719 -2.375,-1.063 -0.488,-0.209 -0.975,-0.426 -1.469,-0.625 -0.735,-0.296 -1.472,-0.571 -2.219,-0.844 -0.392,-0.143 -0.793,-0.27 -1.188,-0.406 -0.718,-0.248 -1.459,-0.524 -2.188,-0.75 -0.114,-0.035 -0.23,-0.059 -0.344,-0.094 -0.488,-0.149 -0.977,-0.267 -1.469,-0.406 -0.357,-0.1 -0.703,-0.217 -1.063,-0.313 -0.019,-0.005 -0.043,0.005 -0.063,0 -0.837,-0.221 -1.683,-0.433 -2.531,-0.625 -0.032,-0.007 -0.062,-0.024 -0.094,-0.031 -0.651,-0.146 -1.311,-0.278 -1.969,-0.406 -1,-0.197 -2.01,-0.376 -3.03,-0.531 -0.063,-0.01 -0.125,-0.022 -0.188,-0.031 -0.952,-0.143 -1.88,-0.269 -2.844,-0.375 -0.836,-0.091 -1.687,-0.156 -2.531,-0.219 -0.176,-0.013 -0.355,-0.019 -0.531,-0.031 -0.735,-0.049 -1.478,-0.097 -2.219,-0.125 -0.92,-0.034 -1.853,-0.063 -2.781,-0.063 H 147.503 78.659"
     inkscape:connector-curvature="0"
     id="path27"
     style="fill-opacity:0.17600002;filter:url(#7)" />
  <rect
     width="500"
     height="500"
     rx="72.639999"
     x="6"
     y="12"
     id="rect29"
     style="opacity:0.15" />
  <rect
     width="500"
     height="500"
     rx="72.639999"
     x="6"
     y="6"
     id="rect31"
     style="fill:url(#8)" />
  <rect
     width="435"
     height="435"
     rx="63.200001"
     x="38.5"
     y="38.5"
     id="rect33"
     style="fill:#f38725" />
  <path
     d="M 101.69,38.5 C 66.68,38.5 38.5,66.67 38.5,101.69 v 15 C 38.5,81.68 66.67,53.5 101.69,53.5 h 308.63 c 35.01,0 63.19,28.17 63.19,63.19 v -15 C 473.51,66.68 445.34,38.5 410.32,38.5 H 101.7"
     inkscape:connector-curvature="0"
     id="path35"
     style="opacity:0.2" />
  <path
     d="M 78.66,6 C 38.42,6 6,38.411 6,78.66 v 7 C 6,45.42 38.411,13 78.66,13 h 354.69 c 40.24,0 72.66,32.411 72.66,72.66 v -7 C 506.01,38.42 473.599,6 433.35,6 H 78.66"
     inkscape:connector-curvature="0"
     id="path37"
     style="fill:#ffffff" />
  <g
     transform="matrix(1.04412,0,0,1.22166,452.85,33.25)"
     id="g39">
    <g
       transform="matrix(11.16629,0,0,11.16629,-13758.22,-11911.78)"
       id="g41"
       style="opacity:0.2">
      <path
         d="m 1227.22,1082.9 c -0.506,0 -0.99,0.102 -1.428,0.285 -0.295,-3.326 -3.082,-5.934 -6.482,-5.934 -0.834,0 -1.646,0.164 -2.361,0.441 -0.279,0.107 -0.352,0.217 -0.355,0.434 v 11.711 c 0,0.225 0.178,0.414 0.398,0.436 0.01,0 10.162,0.01 10.229,0.01 2.037,0 3.689,-1.65 3.689,-3.689 0,-2.038 -1.653,-3.69 -3.69,-3.69 z"
         inkscape:connector-curvature="0"
         id="9" />
      <path
         d="m 1207.62,1086.83 -0.266,-4.959 c -0.01,-0.125 -0.105,-0.223 -0.227,-0.223 -0.122,0 -0.221,0.098 -0.227,0.223 l -0.234,4.959 0.234,3.203 c 0.01,0.127 0.105,0.225 0.227,0.225 0.122,0 0.221,-0.098 0.227,-0.225 l 0.266,-3.203"
         inkscape:connector-curvature="0"
         id="A" />
      <path
         d="m 1206.41,1086.82 -0.283,-3.047 c -0.01,-0.113 -0.094,-0.199 -0.201,-0.199 -0.107,0 -0.195,0.086 -0.201,0.199 l -0.25,3.047 0.25,3.205 c 0.01,0.111 0.094,0.197 0.201,0.197 0.107,0 0.193,-0.086 0.201,-0.197 l 0.283,-3.205"
         inkscape:connector-curvature="0"
         id="B" />
      <path
         d="m 1208.85,1086.83 -0.248,-6.09 c -0.01,-0.141 -0.119,-0.252 -0.254,-0.252 -0.135,0 -0.246,0.111 -0.252,0.252 l -0.219,6.09 0.219,3.184 c 0.01,0.139 0.117,0.25 0.252,0.25 0.135,0 0.246,-0.111 0.254,-0.25 l 0.248,-3.186 z"
         inkscape:connector-curvature="0"
         id="C" />
      <path
         d="m 1202.36,1089.58 c 0.063,0 0.115,-0.049 0.123,-0.121 l 0.336,-2.635 -0.334,-2.695 c -0.01,-0.072 -0.063,-0.121 -0.125,-0.121 -0.064,0 -0.117,0.051 -0.125,0.121 l -0.297,2.695 0.297,2.635 c 0.01,0.07 0.061,0.121 0.125,0.121"
         inkscape:connector-curvature="0"
         id="D" />
      <path
         d="m 1203.54,1090.05 c 0.078,0 0.141,-0.061 0.15,-0.145 l 0.318,-3.082 -0.318,-3.197 c -0.01,-0.086 -0.072,-0.148 -0.15,-0.148 -0.078,0 -0.143,0.063 -0.15,0.148 l -0.279,3.197 0.279,3.08 c 0.01,0.086 0.072,0.147 0.15,0.147"
         inkscape:connector-curvature="0"
         id="E" />
      <path
         d="m 1211.11,1080.01 c -0.01,-0.168 -0.137,-0.301 -0.303,-0.301 -0.166,0 -0.299,0.133 -0.305,0.301 l -0.189,6.822 0.189,3.131 c 0.01,0.168 0.139,0.301 0.305,0.301 0.166,0 0.297,-0.133 0.303,-0.303 l 0.215,-3.131 -0.215,-6.822 z"
         inkscape:connector-curvature="0"
         id="F" />
      <path
         d="m 1204.72,1090.17 c 0.092,0 0.166,-0.074 0.176,-0.172 l 0.299,-3.178 -0.299,-3.285 c -0.01,-0.098 -0.084,-0.172 -0.176,-0.172 -0.094,0 -0.17,0.074 -0.176,0.174 l -0.266,3.283 0.266,3.178 c 0.01,0.098 0.082,0.172 0.176,0.172"
         inkscape:connector-curvature="0"
         id="G" />
      <path
         d="m 1210.08,1086.83 -0.23,-6.6 c -0.01,-0.156 -0.129,-0.277 -0.277,-0.277 -0.152,0 -0.273,0.121 -0.279,0.277 l -0.205,6.6 0.205,3.15 c 0.01,0.154 0.127,0.273 0.279,0.273 0.148,0 0.271,-0.119 0.277,-0.275 l 0.23,-3.15 z"
         inkscape:connector-curvature="0"
         id="H" />
      <path
         d="m 1212.58,1086.83 -0.195,-6.648 c 0,-0.184 -0.148,-0.326 -0.33,-0.326 -0.18,0 -0.324,0.145 -0.328,0.326 l -0.174,6.648 0.174,3.102 c 0,0.182 0.148,0.326 0.328,0.326 0.182,0 0.326,-0.145 0.33,-0.328 l 0.195,-3.102 z"
         inkscape:connector-curvature="0"
         id="I" />
      <path
         d="m 1201.25,1085.04 c -0.063,0 -0.111,0.049 -0.121,0.117 l -0.219,1.666 0.219,1.637 c 0.01,0.068 0.059,0.117 0.121,0.117 0.061,0 0.109,-0.047 0.119,-0.115 l 0.26,-1.639 -0.26,-1.666 c -0.01,-0.07 -0.058,-0.117 -0.119,-0.117"
         inkscape:connector-curvature="0"
         id="J" />
      <path
         d="m 1215.12,1086.83 -0.16,-7.621 c 0,-0.209 -0.176,-0.379 -0.381,-0.379 -0.209,0 -0.379,0.17 -0.381,0.379 l -0.145,7.621 c 0,0 0.145,3.063 0.145,3.063 0,0.207 0.172,0.377 0.381,0.377 0.205,0 0.377,-0.17 0.381,-0.379 l 0.16,-3.063 z"
         inkscape:connector-curvature="0"
         id="K" />
      <path
         d="m 1215.84,1078.11 c -0.221,0 -0.404,0.184 -0.408,0.406 l -0.166,8.313 0.166,3.02 c 0,0.221 0.188,0.402 0.408,0.402 0.219,0 0.402,-0.182 0.406,-0.404 l 0.182,-3.02 -0.182,-8.313 c 0,-0.222 -0.187,-0.406 -0.406,-0.406 z"
         inkscape:connector-curvature="0"
         id="L" />
      <path
         d="m 1213.85,1086.83 -0.18,-6.404 c 0,-0.199 -0.16,-0.355 -0.354,-0.355 -0.197,0 -0.352,0.156 -0.355,0.355 l -0.158,6.404 0.158,3.084 c 0,0.193 0.158,0.35 0.355,0.35 0.193,0 0.35,-0.156 0.354,-0.354 l 0.18,-3.084 z"
         inkscape:connector-curvature="0"
         id="M" />
    </g>
    <g
       transform="matrix(11.16629,0,0,11.16629,-13773.22,-11926.78)"
       id="g57"
       style="fill:#dcdbdb">
      <use
         id="use59"
         x="0"
         y="0"
         width="1"
         height="1"
         xlink:href="#9" />
      <use
         id="use61"
         x="0"
         y="0"
         width="1"
         height="1"
         xlink:href="#A" />
      <use
         id="use63"
         x="0"
         y="0"
         width="1"
         height="1"
         xlink:href="#B" />
      <use
         id="use65"
         x="0"
         y="0"
         width="1"
         height="1"
         xlink:href="#C" />
      <use
         id="use67"
         x="0"
         y="0"
         width="1"
         height="1"
         xlink:href="#D" />
      <use
         id="use69"
         x="0"
         y="0"
         width="1"
         height="1"
         xlink:href="#E" />
      <use
         id="use71"
         x="0"
         y="0"
         width="1"
         height="1"
         xlink:href="#F" />
      <use
         id="use73"
         x="0"
         y="0"
         width="1"
         height="1"
         xlink:href="#G" />
      <use
         id="use75"
         x="0"
         y="0"
         width="1"
         height="1"
         xlink:href="#H" />
      <use
         id="use77"
         x="0"
         y="0"
         width="1"
         height="1"
         xlink:href="#I" />
      <use
         id="use79"
         x="0"
         y="0"
         width="1"
         height="1"
         xlink:href="#J" />
      <use
         id="use81"
         x="0"
         y="0"
         width="1"
         height="1"
         xlink:href="#K" />
      <use
         id="use83"
         x="0"
         y="0"
         width="1"
         height="1"
         xlink:href="#L" />
      <use
         id="use85"
         x="0"
         y="0"
         width="1"
         height="1"
         xlink:href="#M" />
    </g>
  </g>
  <path
     d="M 78.66,6 C 63.797,6 49.99,10.43 38.5,18.03 V 493.97 C 49.986,501.572 63.793,506 78.66,506 h 68.844 V 6 H 78.66"
     inkscape:connector-curvature="0"
     id="path87"
     style="opacity:0.05;fill:url(#1)" />
  <path
     d="m 147.5,6 v 500 h 109 V 6 h -109"
     inkscape:connector-curvature="0"
     id="path89"
     style="opacity:0.05;fill:url(#2)" />
  <path
     d="m 256.5,6 v 500 h 109 V 6 h -109"
     inkscape:connector-curvature="0"
     id="path91"
     style="opacity:0.05;fill:url(#3)" />
  <path
     d="m 365.5,6 v 500 h 67.844 c 14.854,0 28.643,-4.438 40.13,-12.03 V 18.03 C 461.992,10.437 448.204,6 433.354,6 H 365.51"
     inkscape:connector-curvature="0"
     id="path93"
     style="opacity:0.05;fill:url(#4)" />
  <path
     d="M 38.5,18.03 C 18.886,31.011 6,53.27 6,78.66 v 354.69 c 0,25.381 12.886,47.644 32.5,60.63 V 18.04"
     inkscape:connector-curvature="0"
     id="path95"
     style="opacity:0.05;fill:url(#6)" />
  <path
     d="m 473.47,18.03 v 475.94 c 19.627,-12.979 32.531,-35.23 32.531,-60.62 V 78.66 c 0,-25.391 -12.905,-47.646 -32.531,-60.62"
     inkscape:connector-curvature="0"
     id="path97"
     style="opacity:0.05;fill:url(#5)" />
</svg>
