<?xml version="1.0" encoding="UTF-8" standalone="no"?>
<svg
   xmlns:dc="http://purl.org/dc/elements/1.1/"
   xmlns:cc="http://creativecommons.org/ns#"
   xmlns:rdf="http://www.w3.org/1999/02/22-rdf-syntax-ns#"
   xmlns:svg="http://www.w3.org/2000/svg"
   xmlns="http://www.w3.org/2000/svg"
   xmlns:xlink="http://www.w3.org/1999/xlink"
   xmlns:sodipodi="http://sodipodi.sourceforge.net/DTD/sodipodi-0.dtd"
   xmlns:inkscape="http://www.inkscape.org/namespaces/inkscape"
   viewBox="0 0 512 512"
   id="svg2"
   version="1.1"
   inkscape:version="0.48.4 r9939"
   width="100%"
   height="100%"
   sodipodi:docname="base.svg">
  <sodipodi:namedview
     pagecolor="#444444"
     bordercolor="#666666"
     borderopacity="1"
     objecttolerance="10"
     gridtolerance="10"
     guidetolerance="10"
     inkscape:pageopacity="0"
     inkscape:pageshadow="2"
     inkscape:window-width="1310"
     inkscape:window-height="718"
     id="namedview6"
     showgrid="false"
     showguides="true"
     inkscape:guide-bbox="true"
     inkscape:zoom="0.73271889"
     inkscape:cx="277.63807"
     inkscape:cy="327.29933"
     inkscape:window-x="54"
     inkscape:window-y="27"
     inkscape:window-maximized="1"
     inkscape:current-layer="svg2"
     inkscape:snap-midpoints="true"
     inkscape:snap-global="false">
    <sodipodi:guide
       id="guide2989"
       position="522.57628,433.35594"
       orientation="0,1" />
    <sodipodi:guide
       id="guide2995"
       position="473.05444,254.912"
       orientation="1,0" />
  </sodipodi:namedview>
  <metadata
     id="metadata10">
    <rdf:RDF>
      <cc:Work
         rdf:about="">
        <dc:format>image/svg+xml</dc:format>
        <dc:type
           rdf:resource="http://purl.org/dc/dcmitype/StillImage" />
        <dc:title></dc:title>
      </cc:Work>
    </rdf:RDF>
  </metadata>
  <defs
     id="defs8">
    <linearGradient
       id="linearGradient4996">
      <stop
         style="stop-color:#000000;stop-opacity:1;"
         offset="0"
         id="stop4998" />
      <stop
         style="stop-color:#ffffff;stop-opacity:1;"
         offset="1"
         id="stop5000" />
    </linearGradient>
    <linearGradient
       inkscape:collect="always"
       xlink:href="#linearGradient4996"
       id="linearGradient3108"
       gradientUnits="userSpaceOnUse"
       gradientTransform="matrix(1.0380952,0,0,1.4619252,-228.28943,-118.25286)"
       x1="257"
       y1="256"
       x2="362"
       y2="256" />
    <linearGradient
       inkscape:collect="always"
       xlink:href="#linearGradient4996"
       id="linearGradient3137"
       gradientUnits="userSpaceOnUse"
       gradientTransform="matrix(1.0380952,0,0,1.4619252,-119.28943,-118.25286)"
       x1="257"
       y1="256"
       x2="362"
       y2="256" />
    <linearGradient
       inkscape:collect="always"
       xlink:href="#linearGradient4996"
       id="linearGradient3141"
       gradientUnits="userSpaceOnUse"
       gradientTransform="matrix(1.0380952,0,0,1.4619252,-10.28943,-118.25286)"
       x1="257"
       y1="256"
       x2="362"
       y2="256" />
    <linearGradient
       inkscape:collect="always"
       xlink:href="#linearGradient4996"
       id="linearGradient3145"
       gradientUnits="userSpaceOnUse"
       gradientTransform="matrix(1.0283468,0,0,1.4619252,101.21591,-118.25286)"
       x1="257"
       y1="256"
       x2="362"
       y2="256" />
    <linearGradient
       inkscape:collect="always"
       xlink:href="#linearGradient4996"
       id="linearGradient3149"
       gradientUnits="userSpaceOnUse"
       gradientTransform="matrix(1.0283468,0,0,1.4619252,209.19233,-118.25286)"
       x1="257"
       y1="256"
       x2="362"
       y2="256" />
    <linearGradient
       inkscape:collect="always"
       xlink:href="#linearGradient4996"
       id="linearGradient3153"
       gradientUnits="userSpaceOnUse"
       gradientTransform="matrix(1.0380952,0,0,1.4619252,-337.28943,-118.25286)"
       x1="257"
       y1="256"
       x2="362"
       y2="256" />
  </defs>
  <rect
     style="opacity:0.2;fill:#000000;fill-opacity:1;stroke:none"
     id="rect5028"
     width="500"
     height="500"
     x="6"
     y="12"
     rx="72.644058"
     ry="72.644058" />
  <rect
     ry="72.644058"
     rx="72.644058"
     y="6"
     x="6"
     height="500"
     width="500"
     id="rect4979"
     style="fill:#f3f3f3;fill-opacity:1;stroke:none" />
  <rect
     style="fill:#f38725;fill-opacity:1;stroke:none"
     id="rect4981"
     width="434.99997"
     height="434.99997"
     x="38.500011"
     y="38.500011"
     rx="63.200329"
     ry="63.200329" />
  <path
     style="fill:#000000;fill-opacity:1;stroke:none;opacity:0.2"
     d="M 101.6875 38.5 C 66.674518 38.5 38.5 66.674518 38.5 101.6875 L 38.5 116.6875 C 38.5 81.674518 66.674518 53.5 101.6875 53.5 L 410.3125 53.5 C 445.32548 53.5 473.5 81.674518 473.5 116.6875 L 473.5 101.6875 C 473.5 66.674518 445.32548 38.5 410.3125 38.5 L 101.6875 38.5 z "
     id="rect3187" />
  <g
     id="g3118"
     transform="matrix(1.0441163,0,0,1.2216638,452.84851,33.24514)">
    <g
       id="g3088"
       transform="matrix(11.166294,0,0,11.166294,-13758.223,-11911.779)"
       style="opacity:0.2;fill:#000000;fill-opacity:1">
      <path
         style="fill:#000000;fill-opacity:1"
         inkscape:connector-curvature="0"
         id="path3090"
         d="m 1227.219,1082.896 c -0.506,0 -0.99,0.102 -1.428,0.285 -0.295,-3.326 -3.082,-5.934 -6.482,-5.934 -0.834,0 -1.646,0.164 -2.361,0.441 -0.279,0.107 -0.352,0.217 -0.355,0.434 v 11.711 c 0,0.225 0.178,0.414 0.398,0.436 0.01,0 10.162,0.01 10.229,0.01 2.037,0 3.689,-1.65 3.689,-3.689 0,-2.038 -1.653,-3.69 -3.69,-3.69 z" />
      <path
         style="fill:#000000;fill-opacity:1"
         inkscape:connector-curvature="0"
         id="path3092"
         d="m 1207.621,1086.825 -0.266,-4.959 c -0.01,-0.125 -0.105,-0.223 -0.227,-0.223 -0.122,0 -0.221,0.098 -0.227,0.223 l -0.234,4.959 0.234,3.203 c 0.01,0.127 0.105,0.225 0.227,0.225 0.122,0 0.221,-0.098 0.227,-0.225 l 0,0 0.266,-3.203 z" />
      <path
         style="fill:#000000;fill-opacity:1"
         inkscape:connector-curvature="0"
         id="path3094"
         d="m 1206.406,1086.823 -0.283,-3.047 c -0.01,-0.113 -0.094,-0.199 -0.201,-0.199 -0.107,0 -0.195,0.086 -0.201,0.199 l -0.25,3.047 0.25,3.205 c 0.01,0.111 0.094,0.197 0.201,0.197 0.107,0 0.193,-0.086 0.201,-0.197 l 0,0 0.283,-3.205 z" />
      <path
         style="fill:#000000;fill-opacity:1"
         inkscape:connector-curvature="0"
         id="path3096"
         d="m 1208.848,1086.825 -0.248,-6.09 c -0.01,-0.141 -0.119,-0.252 -0.254,-0.252 -0.135,0 -0.246,0.111 -0.252,0.252 l -0.219,6.09 0.219,3.184 c 0.01,0.139 0.117,0.25 0.252,0.25 0.135,0 0.246,-0.111 0.254,-0.25 v 0 l 0.248,-3.186 z" />
      <path
         style="fill:#000000;fill-opacity:1"
         inkscape:connector-curvature="0"
         id="path3098"
         d="m 1202.357,1089.579 c 0.063,0 0.115,-0.049 0.123,-0.121 l 0.336,-2.635 -0.334,-2.695 c -0.01,-0.072 -0.063,-0.121 -0.125,-0.121 -0.064,0 -0.117,0.051 -0.125,0.121 l -0.297,2.695 0.297,2.635 c 0.01,0.07 0.061,0.121 0.125,0.121 z" />
      <path
         style="fill:#000000;fill-opacity:1"
         inkscape:connector-curvature="0"
         id="path3100"
         d="m 1203.535,1090.05 c 0.078,0 0.141,-0.061 0.15,-0.145 l 0.318,-3.082 -0.318,-3.197 c -0.01,-0.086 -0.072,-0.148 -0.15,-0.148 -0.078,0 -0.143,0.063 -0.15,0.148 l -0.279,3.197 0.279,3.08 c 0.01,0.086 0.072,0.147 0.15,0.147 z" />
      <path
         style="fill:#000000;fill-opacity:1"
         inkscape:connector-curvature="0"
         id="path3102"
         d="m 1211.113,1080.005 c -0.01,-0.168 -0.137,-0.301 -0.303,-0.301 -0.166,0 -0.299,0.133 -0.305,0.301 l -0.189,6.822 0.189,3.131 c 0.01,0.168 0.139,0.301 0.305,0.301 0.166,0 0.297,-0.133 0.303,-0.303 v 0 l 0.215,-3.131 -0.215,-6.822 z" />
      <path
         style="fill:#000000;fill-opacity:1"
         inkscape:connector-curvature="0"
         id="path3104"
         d="m 1204.725,1090.173 c 0.092,0 0.166,-0.074 0.176,-0.172 l 0.299,-3.178 -0.299,-3.285 c -0.01,-0.098 -0.084,-0.172 -0.176,-0.172 -0.094,0 -0.17,0.074 -0.176,0.174 l -0.266,3.283 0.266,3.178 c 0.01,0.098 0.082,0.172 0.176,0.172 z" />
      <path
         style="fill:#000000;fill-opacity:1"
         inkscape:connector-curvature="0"
         id="path3106"
         d="m 1210.082,1086.827 -0.23,-6.6 c -0.01,-0.156 -0.129,-0.277 -0.277,-0.277 -0.152,0 -0.273,0.121 -0.279,0.277 l -0.205,6.6 0.205,3.15 c 0.01,0.154 0.127,0.273 0.279,0.273 0.148,0 0.271,-0.119 0.277,-0.275 v 0 l 0.23,-3.15 z" />
      <path
         style="fill:#000000;fill-opacity:1"
         inkscape:connector-curvature="0"
         id="path3108"
         d="m 1212.58,1086.827 -0.195,-6.648 c 0,-0.184 -0.148,-0.326 -0.33,-0.326 -0.18,0 -0.324,0.145 -0.328,0.326 l -0.174,6.648 0.174,3.102 c 0,0.182 0.148,0.326 0.328,0.326 0.182,0 0.326,-0.145 0.33,-0.328 v 0 l 0.195,-3.102 z" />
      <path
         style="fill:#000000;fill-opacity:1"
         inkscape:connector-curvature="0"
         id="path3110"
         d="m 1201.248,1085.04 c -0.063,0 -0.111,0.049 -0.121,0.117 l -0.219,1.666 0.219,1.637 c 0.01,0.068 0.059,0.117 0.121,0.117 0.061,0 0.109,-0.047 0.119,-0.115 l 0.26,-1.639 -0.26,-1.666 c -0.01,-0.07 -0.058,-0.117 -0.119,-0.117 z" />
      <path
         style="fill:#000000;fill-opacity:1"
         inkscape:connector-curvature="0"
         id="path3112"
         d="m 1215.119,1086.827 -0.16,-7.621 c 0,-0.209 -0.176,-0.379 -0.381,-0.379 -0.209,0 -0.379,0.17 -0.381,0.379 l -0.145,7.621 c 0,0 0.145,3.063 0.145,3.063 0,0.207 0.172,0.377 0.381,0.377 0.205,0 0.377,-0.17 0.381,-0.379 v 0 l 0.16,-3.063 z" />
      <path
         style="fill:#000000;fill-opacity:1"
         inkscape:connector-curvature="0"
         id="path3114"
         d="m 1215.838,1078.11 c -0.221,0 -0.404,0.184 -0.408,0.406 l -0.166,8.313 0.166,3.018 c 0,0.221 0.188,0.402 0.408,0.402 0.219,0 0.402,-0.182 0.406,-0.404 v 0 l 0.182,-3.018 -0.182,-8.313 c 0,-0.222 -0.187,-0.406 -0.406,-0.406 z" />
      <path
         style="fill:#000000;fill-opacity:1"
         inkscape:connector-curvature="0"
         id="path3116"
         d="m 1213.846,1086.827 -0.18,-6.404 c 0,-0.199 -0.16,-0.355 -0.354,-0.355 -0.197,0 -0.352,0.156 -0.355,0.355 l -0.158,6.404 0.158,3.084 c 0,0.193 0.158,0.35 0.355,0.35 0.193,0 0.35,-0.156 0.354,-0.354 v 0 l 0.18,-3.084 z" />
    </g>
    <g
       style="fill:#dcdbdb;fill-opacity:1"
       transform="matrix(11.166294,0,0,11.166294,-13773.223,-11926.779)"
       id="g2210">
      <path
         d="m 1227.219,1082.896 c -0.506,0 -0.99,0.102 -1.428,0.285 -0.295,-3.326 -3.082,-5.934 -6.482,-5.934 -0.834,0 -1.646,0.164 -2.361,0.441 -0.279,0.107 -0.352,0.217 -0.355,0.434 v 11.711 c 0,0.225 0.178,0.414 0.398,0.436 0.01,0 10.162,0.01 10.229,0.01 2.037,0 3.689,-1.65 3.689,-3.689 0,-2.038 -1.653,-3.69 -3.69,-3.69 z"
         id="path2212"
         inkscape:connector-curvature="0"
         style="fill:#dcdbdb;fill-opacity:1" />
      <path
         d="m 1207.621,1086.825 -0.266,-4.959 c -0.01,-0.125 -0.105,-0.223 -0.227,-0.223 -0.122,0 -0.221,0.098 -0.227,0.223 l -0.234,4.959 0.234,3.203 c 0.01,0.127 0.105,0.225 0.227,0.225 0.122,0 0.221,-0.098 0.227,-0.225 l 0,0 0.266,-3.203 z"
         id="path2214"
         inkscape:connector-curvature="0"
         style="fill:#dcdbdb;fill-opacity:1" />
      <path
         d="m 1206.406,1086.823 -0.283,-3.047 c -0.01,-0.113 -0.094,-0.199 -0.201,-0.199 -0.107,0 -0.195,0.086 -0.201,0.199 l -0.25,3.047 0.25,3.205 c 0.01,0.111 0.094,0.197 0.201,0.197 0.107,0 0.193,-0.086 0.201,-0.197 l 0,0 0.283,-3.205 z"
         id="path2216"
         inkscape:connector-curvature="0"
         style="fill:#dcdbdb;fill-opacity:1" />
      <path
         d="m 1208.848,1086.825 -0.248,-6.09 c -0.01,-0.141 -0.119,-0.252 -0.254,-0.252 -0.135,0 -0.246,0.111 -0.252,0.252 l -0.219,6.09 0.219,3.184 c 0.01,0.139 0.117,0.25 0.252,0.25 0.135,0 0.246,-0.111 0.254,-0.25 v 0 l 0.248,-3.186 z"
         id="path2218"
         inkscape:connector-curvature="0"
         style="fill:#dcdbdb;fill-opacity:1" />
      <path
         d="m 1202.357,1089.579 c 0.063,0 0.115,-0.049 0.123,-0.121 l 0.336,-2.635 -0.334,-2.695 c -0.01,-0.072 -0.063,-0.121 -0.125,-0.121 -0.064,0 -0.117,0.051 -0.125,0.121 l -0.297,2.695 0.297,2.635 c 0.01,0.07 0.061,0.121 0.125,0.121 z"
         id="path2220"
         inkscape:connector-curvature="0"
         style="fill:#dcdbdb;fill-opacity:1" />
      <path
         d="m 1203.535,1090.05 c 0.078,0 0.141,-0.061 0.15,-0.145 l 0.318,-3.082 -0.318,-3.197 c -0.01,-0.086 -0.072,-0.148 -0.15,-0.148 -0.078,0 -0.143,0.063 -0.15,0.148 l -0.279,3.197 0.279,3.08 c 0.01,0.086 0.072,0.147 0.15,0.147 z"
         id="path2222"
         inkscape:connector-curvature="0"
         style="fill:#dcdbdb;fill-opacity:1" />
      <path
         d="m 1211.113,1080.005 c -0.01,-0.168 -0.137,-0.301 -0.303,-0.301 -0.166,0 -0.299,0.133 -0.305,0.301 l -0.189,6.822 0.189,3.131 c 0.01,0.168 0.139,0.301 0.305,0.301 0.166,0 0.297,-0.133 0.303,-0.303 v 0 l 0.215,-3.131 -0.215,-6.822 z"
         id="path2224"
         inkscape:connector-curvature="0"
         style="fill:#dcdbdb;fill-opacity:1" />
      <path
         d="m 1204.725,1090.173 c 0.092,0 0.166,-0.074 0.176,-0.172 l 0.299,-3.178 -0.299,-3.285 c -0.01,-0.098 -0.084,-0.172 -0.176,-0.172 -0.094,0 -0.17,0.074 -0.176,0.174 l -0.266,3.283 0.266,3.178 c 0.01,0.098 0.082,0.172 0.176,0.172 z"
         id="path2226"
         inkscape:connector-curvature="0"
         style="fill:#dcdbdb;fill-opacity:1" />
      <path
         d="m 1210.082,1086.827 -0.23,-6.6 c -0.01,-0.156 -0.129,-0.277 -0.277,-0.277 -0.152,0 -0.273,0.121 -0.279,0.277 l -0.205,6.6 0.205,3.15 c 0.01,0.154 0.127,0.273 0.279,0.273 0.148,0 0.271,-0.119 0.277,-0.275 v 0 l 0.23,-3.15 z"
         id="path2228"
         inkscape:connector-curvature="0"
         style="fill:#dcdbdb;fill-opacity:1" />
      <path
         d="m 1212.58,1086.827 -0.195,-6.648 c 0,-0.184 -0.148,-0.326 -0.33,-0.326 -0.18,0 -0.324,0.145 -0.328,0.326 l -0.174,6.648 0.174,3.102 c 0,0.182 0.148,0.326 0.328,0.326 0.182,0 0.326,-0.145 0.33,-0.328 v 0 l 0.195,-3.102 z"
         id="path2230"
         inkscape:connector-curvature="0"
         style="fill:#dcdbdb;fill-opacity:1" />
      <path
         d="m 1201.248,1085.04 c -0.063,0 -0.111,0.049 -0.121,0.117 l -0.219,1.666 0.219,1.637 c 0.01,0.068 0.059,0.117 0.121,0.117 0.061,0 0.109,-0.047 0.119,-0.115 l 0.26,-1.639 -0.26,-1.666 c -0.01,-0.07 -0.058,-0.117 -0.119,-0.117 z"
         id="path2232"
         inkscape:connector-curvature="0"
         style="fill:#dcdbdb;fill-opacity:1" />
      <path
         d="m 1215.119,1086.827 -0.16,-7.621 c 0,-0.209 -0.176,-0.379 -0.381,-0.379 -0.209,0 -0.379,0.17 -0.381,0.379 l -0.145,7.621 c 0,0 0.145,3.063 0.145,3.063 0,0.207 0.172,0.377 0.381,0.377 0.205,0 0.377,-0.17 0.381,-0.379 v 0 l 0.16,-3.063 z"
         id="path2234"
         inkscape:connector-curvature="0"
         style="fill:#dcdbdb;fill-opacity:1" />
      <path
         d="m 1215.838,1078.11 c -0.221,0 -0.404,0.184 -0.408,0.406 l -0.166,8.313 0.166,3.018 c 0,0.221 0.188,0.402 0.408,0.402 0.219,0 0.402,-0.182 0.406,-0.404 v 0 l 0.182,-3.018 -0.182,-8.313 c 0,-0.222 -0.187,-0.406 -0.406,-0.406 z"
         id="path2236"
         inkscape:connector-curvature="0"
         style="fill:#dcdbdb;fill-opacity:1" />
      <path
         d="m 1213.846,1086.827 -0.18,-6.404 c 0,-0.199 -0.16,-0.355 -0.354,-0.355 -0.197,0 -0.352,0.156 -0.355,0.355 l -0.158,6.404 0.158,3.084 c 0,0.193 0.158,0.35 0.355,0.35 0.193,0 0.35,-0.156 0.354,-0.354 v 0 l 0.18,-3.084 z"
         id="path2238"
         inkscape:connector-curvature="0"
         style="fill:#dcdbdb;fill-opacity:1" />
    </g>
  </g>
  <g
     id="g3167">
    <path
       id="rect3068"
       d="M 78.65625 6 C 63.792798 6 49.986224 10.429561 38.5 18.03125 L 38.5 493.96875 C 49.986224 501.57044 63.792798 506 78.65625 506 L 147.5 506 L 147.5 6 L 78.65625 6 z "
       style="opacity:0.05000000000000000;fill:url(#linearGradient3108);fill-opacity:1;stroke:none" />
    <path
       inkscape:connector-curvature="0"
       style="opacity:0.05;fill:url(#linearGradient3137);fill-opacity:1;stroke:none"
       d="m 147.50001,6 0,500 109,0 0,-500 -109,0 z"
       id="path3135" />
    <path
       id="path3139"
       d="m 256.50001,6 0,500 109,0 0,-500 -109,0 z"
       style="opacity:0.05;fill:url(#linearGradient3141);fill-opacity:1;stroke:none"
       inkscape:connector-curvature="0" />
    <path
       id="path3143"
       d="M 365.5 6 L 365.5 506 L 433.34375 506 C 448.1977 506 461.98692 501.56151 473.46875 493.96875 L 473.46875 18.03125 C 461.98692 10.438491 448.1977 6 433.34375 6 L 365.5 6 z "
       style="opacity:0.05000000000000000;fill:url(#linearGradient3145);fill-opacity:1;stroke:none" />
    <path
       id="path3151"
       d="M 38.5 18.03125 C 18.885717 31.012164 6 53.274894 6 78.65625 L 6 433.34375 C 6 458.72511 18.885717 480.98784 38.5 493.96875 L 38.5 18.03125 z "
       style="opacity:0.05000000000000000;fill:url(#linearGradient3153);fill-opacity:1;stroke:none" />
    <path
       id="path3147"
       d="M 473.46875 18.03125 L 473.46875 493.96875 C 493.09542 480.98993 506 458.73461 506 433.34375 L 506 78.65625 C 506 53.265388 493.09542 31.010071 473.46875 18.03125 z "
       style="opacity:0.05000000000000000;fill:url(#linearGradient3149);fill-opacity:1;stroke:none" />
  </g>
</svg>
