<?xml version="1.0" encoding="UTF-8" standalone="no"?>
<svg
   xmlns:dc="http://purl.org/dc/elements/1.1/"
   xmlns:cc="http://creativecommons.org/ns#"
   xmlns:rdf="http://www.w3.org/1999/02/22-rdf-syntax-ns#"
   xmlns:svg="http://www.w3.org/2000/svg"
   xmlns="http://www.w3.org/2000/svg"
   xmlns:xlink="http://www.w3.org/1999/xlink"
   xmlns:sodipodi="http://sodipodi.sourceforge.net/DTD/sodipodi-0.dtd"
   xmlns:inkscape="http://www.inkscape.org/namespaces/inkscape"
   viewBox="0 0 512 512"
   id="svg2"
   version="1.1"
   inkscape:version="0.48.4 r9939"
   width="100%"
   height="100%"
   sodipodi:docname="base.svg">
  <sodipodi:namedview
     pagecolor="#444444"
     bordercolor="#666666"
     borderopacity="1"
     objecttolerance="10"
     gridtolerance="10"
     guidetolerance="10"
     inkscape:pageopacity="0"
     inkscape:pageshadow="2"
     inkscape:window-width="1310"
     inkscape:window-height="718"
     id="namedview6"
     showgrid="false"
     showguides="true"
     inkscape:guide-bbox="true"
     inkscape:zoom="0.36635945"
     inkscape:cx="321.42593"
     inkscape:cy="115.2724"
     inkscape:window-x="54"
     inkscape:window-y="27"
     inkscape:window-maximized="1"
     inkscape:current-layer="svg2"
     inkscape:snap-midpoints="true"
     inkscape:snap-global="false">
    <sodipodi:guide
       id="guide2989"
       position="522.57628,433.35594"
       orientation="0,1" />
    <sodipodi:guide
       id="guide2995"
       position="473.05444,254.912"
       orientation="1,0" />
  </sodipodi:namedview>
  <metadata
     id="metadata10">
    <rdf:RDF>
      <cc:Work
         rdf:about="">
        <dc:format>image/svg+xml</dc:format>
        <dc:type
           rdf:resource="http://purl.org/dc/dcmitype/StillImage" />
        <dc:title></dc:title>
      </cc:Work>
    </rdf:RDF>
  </metadata>
  <defs
     id="defs8">
    <linearGradient
       id="linearGradient4996">
      <stop
         style="stop-color:#000000;stop-opacity:1;"
         offset="0"
         id="stop4998" />
      <stop
         style="stop-color:#ffffff;stop-opacity:1;"
         offset="1"
         id="stop5000" />
    </linearGradient>
    <linearGradient
       inkscape:collect="always"
       xlink:href="#linearGradient4996"
       id="linearGradient3108"
       gradientUnits="userSpaceOnUse"
       gradientTransform="matrix(1.0380952,0,0,1.4619252,-228.28943,-118.25286)"
       x1="257"
       y1="256"
       x2="362"
       y2="256" />
    <linearGradient
       inkscape:collect="always"
       xlink:href="#linearGradient4996"
       id="linearGradient3137"
       gradientUnits="userSpaceOnUse"
       gradientTransform="matrix(1.0380952,0,0,1.4619252,-119.28943,-118.25286)"
       x1="257"
       y1="256"
       x2="362"
       y2="256" />
    <linearGradient
       inkscape:collect="always"
       xlink:href="#linearGradient4996"
       id="linearGradient3141"
       gradientUnits="userSpaceOnUse"
       gradientTransform="matrix(1.0380952,0,0,1.4619252,-10.28943,-118.25286)"
       x1="257"
       y1="256"
       x2="362"
       y2="256" />
    <linearGradient
       inkscape:collect="always"
       xlink:href="#linearGradient4996"
       id="linearGradient3145"
       gradientUnits="userSpaceOnUse"
       gradientTransform="matrix(1.0283468,0,0,1.4619252,101.21591,-118.25286)"
       x1="257"
       y1="256"
       x2="362"
       y2="256" />
    <linearGradient
       inkscape:collect="always"
       xlink:href="#linearGradient4996"
       id="linearGradient3149"
       gradientUnits="userSpaceOnUse"
       gradientTransform="matrix(1.0283468,0,0,1.4619252,209.19233,-118.25286)"
       x1="257"
       y1="256"
       x2="362"
       y2="256" />
    <linearGradient
       inkscape:collect="always"
       xlink:href="#linearGradient4996"
       id="linearGradient3153"
       gradientUnits="userSpaceOnUse"
       gradientTransform="matrix(1.0380952,0,0,1.4619252,-337.28943,-118.25286)"
       x1="257"
       y1="256"
       x2="362"
       y2="256" />
  </defs>
  <rect
     style="opacity:0.2;fill:#000000;fill-opacity:1;stroke:none"
     id="rect5028"
     width="500"
     height="500"
     x="6"
     y="12"
     rx="72.644058"
     ry="72.644058" />
  <rect
     ry="72.644058"
     rx="72.644058"
     y="6"
     x="6"
     height="500"
     width="500"
     id="rect4979"
     style="fill:#f3f3f3;fill-opacity:1;stroke:none" />
  <rect
     style="fill:#37a943;fill-opacity:1;stroke:none"
     id="rect4981"
     width="434.99997"
     height="434.99997"
     x="38.500011"
     y="38.500011"
     rx="63.200329"
     ry="63.200329" />
  <path
     style="fill:#000000;fill-opacity:1;stroke:none;opacity:0.2"
     d="M 101.6875 38.5 C 66.674518 38.5 38.5 66.674518 38.5 101.6875 L 38.5 116.6875 C 38.5 81.674518 66.674518 53.5 101.6875 53.5 L 410.3125 53.5 C 445.32548 53.5 473.5 81.674518 473.5 116.6875 L 473.5 101.6875 C 473.5 66.674518 445.32548 38.5 410.3125 38.5 L 101.6875 38.5 z "
     id="rect3187" />
  <g
     id="g3832"
     transform="translate(-7.4999993,-7.4999988)">
    <path
       id="path3830"
       d="m 354.96587,382.65967 c -2.09869,-0.0619 -4.19065,-0.68413 -6.08755,-1.88121 -0.0204,0 -2.44847,-1.56653 -7.43285,-4.28229 -4.99111,-2.72262 -12.34325,-6.47133 -21.50485,-10.40476 -18.303,-7.92157 -43.92449,-16.69138 -72.55952,-20.05703 -8.79162,-1.0261 -17.25365,-1.65544 -25.3457,-1.92224 -36.39076,-1.21765 -64.99213,4.28914 -76.64928,7.01176 -3.90141,0.90979 -5.6974,1.46391 -5.70412,1.46391 -6.49114,1.93592 -13.28498,-1.86068 -15.19531,-8.45514 -1.89019,-6.60817 1.82288,-13.53097 8.3073,-15.46006 0.82735,-0.23944 37.7226,-11.17776 90.01497,-9.46074 8.71763,0.30098 17.88594,0.96458 27.35694,2.07958 63.53248,7.55901 110.82025,37.89766 111.6947,38.356 5.7445,3.65978 7.47995,11.34876 3.88796,17.17023 -2.3812,3.9129 -6.5584,5.98565 -10.78269,5.84199 z m 44.54335,-73.46263 c -3.00005,4.86375 -8.20643,7.47693 -13.48677,7.29222 -2.62336,-0.089 -5.24001,-0.86877 -7.60775,-2.37374 -0.0143,0.0204 -0.55154,-0.35574 -1.9978,-1.21079 -1.45966,-0.86192 -3.65252,-2.12748 -6.50458,-3.68033 -5.7445,-3.13306 -14.16617,-7.44272 -24.72016,-11.9918 -21.05416,-9.10501 -50.52326,-19.16089 -83.4431,-23.01906 -10.0764,-1.19029 -19.8232,-1.8949 -29.13949,-2.20273 -41.87291,-1.40919 -74.78603,4.91849 -88.16516,8.05155 -4.46645,1.05348 -6.49114,1.65546 -6.5046,1.67597 -8.10552,2.39427 -16.62135,-2.33951 -18.98911,-10.59629 -2.3812,-8.2636 2.26687,-16.91713 10.39255,-19.2977 1.02918,-0.3215 43.72944,-12.97003 104.25511,-10.95886 10.08987,0.33524 20.67748,1.08768 31.64852,2.38741 73.61559,8.76982 128.34295,43.84226 129.43267,44.46477 7.15034,4.58329 9.32975,14.18083 4.82967,21.45938 z m 36.18894,-68.55098 c -3.61215,5.84198 -9.88132,8.96136 -16.19757,8.7493 -3.12785,-0.1026 -6.28261,-1.02612 -9.1145,-2.84575 0,0 -0.65916,-0.42408 -2.36774,-1.4434 -1.69512,-0.99874 -4.27139,-2.49686 -7.66157,-4.34387 -6.75349,-3.65978 -16.68863,-8.72877 -29.11933,-14.10558 -24.82104,-10.71944 -59.53687,-22.5881 -98.3021,-27.13719 -11.89258,-1.39551 -23.38827,-2.2164 -34.35259,-2.57212 -57.55926,-1.95645 -100.74385,8.50303 -109.80454,10.94517 -1.29149,0.34202 -1.7489,0.47886 -1.7489,0.47886 -9.73335,2.89363 -19.93083,-2.79787 -22.78289,-12.68956 -2.85208,-9.90538 2.71752,-20.29646 12.47105,-23.19009 1.23769,-0.34201 51.63316,-15.28219 123.0626,-12.90162 11.91277,0.38992 24.39728,1.26554 37.34593,2.79786 86.92073,10.36371 151.44872,51.7433 152.76039,52.48895 8.58983,5.47258 11.19303,17.02658 5.81176,25.76904 z"
       inkscape:connector-curvature="0"
       style="opacity:0.2;fill:#000000;fill-opacity:1;stroke:none" />
    <path
       style="fill:#dcdbdb;fill-opacity:1;stroke:none"
       inkscape:connector-curvature="0"
       d="m 339.96587,367.65967 c -2.09869,-0.0619 -4.19065,-0.68413 -6.08755,-1.88121 -0.0204,0 -2.44847,-1.56653 -7.43285,-4.28229 -4.99111,-2.72262 -12.34325,-6.47133 -21.50485,-10.40476 -18.303,-7.92157 -43.92449,-16.69138 -72.55952,-20.05703 -8.79162,-1.0261 -17.25365,-1.65544 -25.3457,-1.92224 -36.39076,-1.21765 -64.99213,4.28914 -76.64928,7.01176 -3.90141,0.90979 -5.6974,1.46391 -5.70412,1.46391 -6.49114,1.93592 -13.28498,-1.86068 -15.19531,-8.45514 -1.89019,-6.60817 1.82288,-13.53097 8.3073,-15.46006 0.82735,-0.23944 37.7226,-11.17776 90.01497,-9.46074 8.71763,0.30098 17.88594,0.96458 27.35694,2.07958 63.53248,7.55901 110.82025,37.89766 111.6947,38.356 5.7445,3.65978 7.47995,11.34876 3.88796,17.17023 -2.3812,3.9129 -6.5584,5.98565 -10.78269,5.84199 z m 44.54335,-73.46263 c -3.00005,4.86375 -8.20643,7.47693 -13.48677,7.29222 -2.62336,-0.089 -5.24001,-0.86877 -7.60775,-2.37374 -0.0143,0.0204 -0.55154,-0.35574 -1.9978,-1.21079 -1.45966,-0.86192 -3.65252,-2.12748 -6.50458,-3.68033 -5.7445,-3.13306 -14.16617,-7.44272 -24.72016,-11.9918 -21.05416,-9.10501 -50.52326,-19.16089 -83.4431,-23.01906 -10.0764,-1.19029 -19.8232,-1.8949 -29.13949,-2.20273 -41.87291,-1.40919 -74.78603,4.91849 -88.16516,8.05155 -4.46645,1.05348 -6.49114,1.65546 -6.5046,1.67597 -8.10552,2.39427 -16.62135,-2.33951 -18.98911,-10.59629 -2.3812,-8.2636 2.26687,-16.91713 10.39255,-19.2977 1.02918,-0.3215 43.72944,-12.97003 104.25511,-10.95886 10.08987,0.33524 20.67748,1.08768 31.64852,2.38741 73.61559,8.76982 128.34295,43.84226 129.43267,44.46477 7.15034,4.58329 9.32975,14.18083 4.82967,21.45938 z m 36.18894,-68.55098 c -3.61215,5.84198 -9.88132,8.96136 -16.19757,8.7493 -3.12785,-0.1026 -6.28261,-1.02612 -9.1145,-2.84575 0,0 -0.65916,-0.42408 -2.36774,-1.4434 -1.69512,-0.99874 -4.27139,-2.49686 -7.66157,-4.34387 -6.75349,-3.65978 -16.68863,-8.72877 -29.11933,-14.10558 -24.82104,-10.71944 -59.53687,-22.5881 -98.3021,-27.13719 -11.89258,-1.39551 -23.38827,-2.2164 -34.35259,-2.57212 -57.55926,-1.95645 -100.74385,8.50303 -109.80454,10.94517 -1.29149,0.34202 -1.7489,0.47886 -1.7489,0.47886 -9.73335,2.89363 -19.930833,-2.79787 -22.782893,-12.68956 -2.85208,-9.90538 2.71752,-20.29646 12.471053,-23.19009 1.23769,-0.34201 51.63316,-15.28219 123.0626,-12.90162 11.91277,0.38992 24.39728,1.26554 37.34593,2.79786 86.92073,10.36371 151.44872,51.7433 152.76039,52.48895 8.58983,5.47258 11.19303,17.02658 5.81176,25.76904 z"
       id="path3044" />
  </g>
  <g
     id="g3167">
    <path
       id="rect3068"
       d="M 78.65625 6 C 63.792798 6 49.986224 10.429561 38.5 18.03125 L 38.5 493.96875 C 49.986224 501.57044 63.792798 506 78.65625 506 L 147.5 506 L 147.5 6 L 78.65625 6 z "
       style="opacity:0.05000000000000000;fill:url(#linearGradient3108);fill-opacity:1;stroke:none" />
    <path
       inkscape:connector-curvature="0"
       style="opacity:0.05;fill:url(#linearGradient3137);fill-opacity:1;stroke:none"
       d="m 147.50001,6 0,500 109,0 0,-500 -109,0 z"
       id="path3135" />
    <path
       id="path3139"
       d="m 256.50001,6 0,500 109,0 0,-500 -109,0 z"
       style="opacity:0.05;fill:url(#linearGradient3141);fill-opacity:1;stroke:none"
       inkscape:connector-curvature="0" />
    <path
       id="path3143"
       d="M 365.5 6 L 365.5 506 L 433.34375 506 C 448.1977 506 461.98692 501.56151 473.46875 493.96875 L 473.46875 18.03125 C 461.98692 10.438491 448.1977 6 433.34375 6 L 365.5 6 z "
       style="opacity:0.05000000000000000;fill:url(#linearGradient3145);fill-opacity:1;stroke:none" />
    <path
       id="path3151"
       d="M 38.5 18.03125 C 18.885717 31.012164 6 53.274894 6 78.65625 L 6 433.34375 C 6 458.72511 18.885717 480.98784 38.5 493.96875 L 38.5 18.03125 z "
       style="opacity:0.05000000000000000;fill:url(#linearGradient3153);fill-opacity:1;stroke:none" />
    <path
       id="path3147"
       d="M 473.46875 18.03125 L 473.46875 493.96875 C 493.09542 480.98993 506 458.73461 506 433.34375 L 506 78.65625 C 506 53.265388 493.09542 31.010071 473.46875 18.03125 z "
       style="opacity:0.05000000000000000;fill:url(#linearGradient3149);fill-opacity:1;stroke:none" />
  </g>
</svg>
