<?xml version="1.0" encoding="UTF-8" standalone="no"?>
<svg
   xmlns:dc="http://purl.org/dc/elements/1.1/"
   xmlns:cc="http://creativecommons.org/ns#"
   xmlns:rdf="http://www.w3.org/1999/02/22-rdf-syntax-ns#"
   xmlns:svg="http://www.w3.org/2000/svg"
   xmlns="http://www.w3.org/2000/svg"
   xmlns:xlink="http://www.w3.org/1999/xlink"
   xmlns:sodipodi="http://sodipodi.sourceforge.net/DTD/sodipodi-0.dtd"
   xmlns:inkscape="http://www.inkscape.org/namespaces/inkscape"
   viewBox="0 0 512 512"
   id="svg2"
   version="1.1"
   inkscape:version="0.48.4 r9939"
   width="100%"
   height="100%"
   sodipodi:docname="base.svg">
  <sodipodi:namedview
     pagecolor="#444444"
     bordercolor="#666666"
     borderopacity="1"
     objecttolerance="10"
     gridtolerance="10"
     guidetolerance="10"
     inkscape:pageopacity="0"
     inkscape:pageshadow="2"
     inkscape:window-width="1310"
     inkscape:window-height="718"
     id="namedview6"
     showgrid="false"
     showguides="true"
     inkscape:guide-bbox="true"
     inkscape:zoom="0.73271889"
     inkscape:cx="424.11701"
     inkscape:cy="291.40995"
     inkscape:window-x="54"
     inkscape:window-y="27"
     inkscape:window-maximized="1"
     inkscape:current-layer="svg2"
     inkscape:snap-midpoints="true"
     inkscape:snap-global="false">
    <sodipodi:guide
       id="guide2989"
       position="522.57628,433.35594"
       orientation="0,1" />
    <sodipodi:guide
       id="guide2995"
       position="473.05444,254.912"
       orientation="1,0" />
  </sodipodi:namedview>
  <metadata
     id="metadata10">
    <rdf:RDF>
      <cc:Work
         rdf:about="">
        <dc:format>image/svg+xml</dc:format>
        <dc:type
           rdf:resource="http://purl.org/dc/dcmitype/StillImage" />
        <dc:title></dc:title>
      </cc:Work>
    </rdf:RDF>
  </metadata>
  <defs
     id="defs8">
    <linearGradient
       id="linearGradient4996">
      <stop
         style="stop-color:#000000;stop-opacity:1;"
         offset="0"
         id="stop4998" />
      <stop
         style="stop-color:#ffffff;stop-opacity:1;"
         offset="1"
         id="stop5000" />
    </linearGradient>
    <linearGradient
       inkscape:collect="always"
       xlink:href="#linearGradient4996"
       id="linearGradient3108"
       gradientUnits="userSpaceOnUse"
       gradientTransform="matrix(1.0380952,0,0,1.4619252,-228.28943,-118.25286)"
       x1="257"
       y1="256"
       x2="362"
       y2="256" />
    <linearGradient
       inkscape:collect="always"
       xlink:href="#linearGradient4996"
       id="linearGradient3137"
       gradientUnits="userSpaceOnUse"
       gradientTransform="matrix(1.0380952,0,0,1.4619252,-119.28943,-118.25286)"
       x1="257"
       y1="256"
       x2="362"
       y2="256" />
    <linearGradient
       inkscape:collect="always"
       xlink:href="#linearGradient4996"
       id="linearGradient3141"
       gradientUnits="userSpaceOnUse"
       gradientTransform="matrix(1.0380952,0,0,1.4619252,-10.28943,-118.25286)"
       x1="257"
       y1="256"
       x2="362"
       y2="256" />
    <linearGradient
       inkscape:collect="always"
       xlink:href="#linearGradient4996"
       id="linearGradient3145"
       gradientUnits="userSpaceOnUse"
       gradientTransform="matrix(1.0283468,0,0,1.4619252,101.21591,-118.25286)"
       x1="257"
       y1="256"
       x2="362"
       y2="256" />
    <linearGradient
       inkscape:collect="always"
       xlink:href="#linearGradient4996"
       id="linearGradient3149"
       gradientUnits="userSpaceOnUse"
       gradientTransform="matrix(1.0283468,0,0,1.4619252,209.19233,-118.25286)"
       x1="257"
       y1="256"
       x2="362"
       y2="256" />
    <linearGradient
       inkscape:collect="always"
       xlink:href="#linearGradient4996"
       id="linearGradient3153"
       gradientUnits="userSpaceOnUse"
       gradientTransform="matrix(1.0380952,0,0,1.4619252,-337.28943,-118.25286)"
       x1="257"
       y1="256"
       x2="362"
       y2="256" />
  </defs>
  <rect
     style="opacity:0.2;fill:#000000;fill-opacity:1;stroke:none"
     id="rect5028"
     width="500"
     height="500"
     x="6"
     y="12"
     rx="72.644058"
     ry="72.644058" />
  <rect
     ry="72.644058"
     rx="72.644058"
     y="6"
     x="6"
     height="500"
     width="500"
     id="rect4979"
     style="fill:#f3f3f3;fill-opacity:1;stroke:none" />
  <rect
     style="fill:#6e6568;fill-opacity:1;stroke:none"
     id="rect4981"
     width="434.99997"
     height="434.99997"
     x="38.500011"
     y="38.500011"
     rx="63.200329"
     ry="63.200329" />
  <path
     style="fill:#000000;fill-opacity:1;stroke:none;opacity:0.2"
     d="M 101.6875 38.5 C 66.674518 38.5 38.5 66.674518 38.5 101.6875 L 38.5 116.6875 C 38.5 81.674518 66.674518 53.5 101.6875 53.5 L 410.3125 53.5 C 445.32548 53.5 473.5 81.674518 473.5 116.6875 L 473.5 101.6875 C 473.5 66.674518 445.32548 38.5 410.3125 38.5 L 101.6875 38.5 z "
     id="rect3187" />
  <g
     id="g3045"
     transform="translate(497.86818,74.371324)">
    <path
       id="path3043"
       d="m -277.82493,243.04186 c -0.95265,0.60718 -1.86866,1.32428 -2.71139,2.15131 -6.31784,6.20792 -6.31784,16.25261 0,22.43959 6.30738,6.22363 16.55097,6.22363 23.30849,0.0838 l 102.8442,-101.04882 c 12.62522,-12.40014 33.09146,-12.40014 45.71668,0 12.63568,12.40014 12.63568,32.52092 0,44.92105 l -97.54182,96.25941 c 12.63568,12.38444 33.10193,12.38444 45.71668,0 l 74.69394,-73.80935 c 25.239963,-24.80027 25.239963,-65.0209 0,-89.8107 -25.25042,-24.78981 -66.17768,-24.78981 -91.43858,0 l -100.5882,98.81376 z m 157.28651,-65.20934 c -6.31784,-6.19745 -16.5405,-6.19745 -22.86881,0 -0.83749,0.84797 -1.57553,1.72733 -2.17748,2.67998 l -100.20086,98.42119 c -12.63568,12.41061 -33.09146,12.41061 -45.71668,0 l -0.46062,-0.0733 c -6.2969,-6.19222 -16.53002,-6.19222 -22.84787,0 -6.31784,6.21839 -6.31784,16.26308 0,22.46053 0.79562,0.76944 1.66452,1.47608 2.5753,2.05709 25.37605,22.79029 64.74348,22.12553 89.30297,-1.98381 l 102.39405,-101.09591 c 6.30737,-6.21316 6.30737,-16.27355 0,-22.46577 z m -170.96383,56.20628 102.38882,-101.10639 c 6.30737,-6.20793 6.30737,-16.25261 0,-22.43959 -6.30738,-6.21839 -16.5405,-6.21839 -22.85834,0 -0.83749,0.81655 -1.56507,1.70639 -2.18795,2.66951 l -100.20086,98.42641 c -12.62522,12.40014 -33.09146,12.40014 -45.70621,0 -12.62521,-12.40013 -12.62521,-32.52091 0,-44.92105 l 97.52612,-96.254171 c -12.62522,-12.389672 -33.09146,-12.389672 -45.71668,0 l -74.67301,73.814581 c -25.25043,24.7898 -25.25043,65.01043 0,89.8107 25.23996,24.78457 66.18816,24.78457 91.42811,0 z m -57.59861,-56.20628 c -6.31784,6.19745 -6.31784,16.25261 0,22.46577 6.30737,6.19745 16.55097,6.19745 23.30849,0.0523 L -222.9377,99.327981 c 11.97092,-11.766783 31.02913,-12.3792 43.72763,-1.795377 l 1.51272,1.722096 c 6.31784,6.18698 16.56143,6.18698 22.86881,0 6.21838,-6.113702 6.50104,-16.174092 0.45015,-22.376778 -25.23996,-24.810745 -66.16722,-24.810745 -91.40718,0 l -100.6039,98.818998 c -0.95265,0.60194 -1.86343,1.30858 -2.71139,2.1356 z"
       inkscape:connector-curvature="0"
       style="opacity:0.2;fill:#000000;fill-opacity:1" />
    <path
       style="fill:#dcdbdb;fill-opacity:1"
       inkscape:connector-curvature="0"
       d="m -292.82493,228.04186 c -0.95265,0.60718 -1.86866,1.32428 -2.71139,2.15131 -6.31784,6.20792 -6.31784,16.25261 0,22.43959 6.30738,6.22363 16.55097,6.22363 23.30849,0.0838 l 102.8442,-101.04882 c 12.62522,-12.40014 33.09146,-12.40014 45.71668,0 12.63568,12.40014 12.63568,32.52092 0,44.92105 l -97.54182,96.25941 c 12.63568,12.38444 33.10193,12.38444 45.71668,0 l 74.69394,-73.80935 c 25.239963,-24.80027 25.239963,-65.0209 0,-89.8107 -25.25042,-24.78981 -66.17768,-24.78981 -91.43858,0 l -100.5882,98.81376 z m 157.28651,-65.20934 c -6.31784,-6.19745 -16.5405,-6.19745 -22.86881,0 -0.83749,0.84797 -1.57553,1.72733 -2.17748,2.67998 l -100.20086,98.42119 c -12.63568,12.41061 -33.09146,12.41061 -45.71668,0 l -0.46062,-0.0733 c -6.2969,-6.19222 -16.53002,-6.19222 -22.84787,0 -6.31784,6.21839 -6.31784,16.26308 0,22.46053 0.79562,0.76944 1.66452,1.47608 2.5753,2.05709 25.37605,22.79029 64.74348,22.12553 89.30297,-1.98381 l 102.39405,-101.09591 c 6.30737,-6.21316 6.30737,-16.27355 0,-22.46577 z m -170.96383,56.20628 102.38882,-101.10639 c 6.30737,-6.20793 6.30737,-16.25261 0,-22.439595 -6.30738,-6.218389 -16.5405,-6.218389 -22.85834,0 -0.83749,0.816556 -1.56507,1.706393 -2.18795,2.669511 l -100.20086,98.426414 c -12.62522,12.40014 -33.09146,12.40014 -45.70621,0 -12.62521,-12.40013 -12.62521,-32.52091 0,-44.92105 l 97.52612,-96.254171 c -12.62522,-12.389672 -33.09146,-12.389672 -45.71668,0 l -74.67301,73.814581 c -25.25043,24.7898 -25.25043,65.01043 0,89.8107 25.23996,24.78457 66.18816,24.78457 91.42811,0 z m -57.59861,-56.20628 c -6.31784,6.19745 -6.31784,16.25261 0,22.46577 6.30737,6.19745 16.55097,6.19745 23.30849,0.0523 L -237.9377,84.327981 c 11.97092,-11.766783 31.02913,-12.3792 43.72763,-1.795377 l 1.51272,1.722096 c 6.31784,6.186983 16.56143,6.186983 22.86881,0 6.21838,-6.113702 6.50104,-16.174092 0.45015,-22.376778 -25.23996,-24.810745 -66.16722,-24.810745 -91.40718,0 l -100.6039,98.818998 c -0.95265,0.60194 -1.86343,1.30858 -2.71139,2.1356 z"
       id="path3034" />
  </g>
  <g
     id="g3167">
    <path
       id="rect3068"
       d="M 78.65625 6 C 63.792798 6 49.986224 10.429561 38.5 18.03125 L 38.5 493.96875 C 49.986224 501.57044 63.792798 506 78.65625 506 L 147.5 506 L 147.5 6 L 78.65625 6 z "
       style="opacity:0.05000000000000000;fill:url(#linearGradient3108);fill-opacity:1;stroke:none" />
    <path
       inkscape:connector-curvature="0"
       style="opacity:0.05;fill:url(#linearGradient3137);fill-opacity:1;stroke:none"
       d="m 147.50001,6 0,500 109,0 0,-500 -109,0 z"
       id="path3135" />
    <path
       id="path3139"
       d="m 256.50001,6 0,500 109,0 0,-500 -109,0 z"
       style="opacity:0.05;fill:url(#linearGradient3141);fill-opacity:1;stroke:none"
       inkscape:connector-curvature="0" />
    <path
       id="path3143"
       d="M 365.5 6 L 365.5 506 L 433.34375 506 C 448.1977 506 461.98692 501.56151 473.46875 493.96875 L 473.46875 18.03125 C 461.98692 10.438491 448.1977 6 433.34375 6 L 365.5 6 z "
       style="opacity:0.05000000000000000;fill:url(#linearGradient3145);fill-opacity:1;stroke:none" />
    <path
       id="path3151"
       d="M 38.5 18.03125 C 18.885717 31.012164 6 53.274894 6 78.65625 L 6 433.34375 C 6 458.72511 18.885717 480.98784 38.5 493.96875 L 38.5 18.03125 z "
       style="opacity:0.05000000000000000;fill:url(#linearGradient3153);fill-opacity:1;stroke:none" />
    <path
       id="path3147"
       d="M 473.46875 18.03125 L 473.46875 493.96875 C 493.09542 480.98993 506 458.73461 506 433.34375 L 506 78.65625 C 506 53.265388 493.09542 31.010071 473.46875 18.03125 z "
       style="opacity:0.05000000000000000;fill:url(#linearGradient3149);fill-opacity:1;stroke:none" />
  </g>
</svg>
