<?xml version="1.0" encoding="UTF-8" standalone="no"?>
<!-- Created with Inkscape (http://www.inkscape.org/) -->

<svg
   xmlns:dc="http://purl.org/dc/elements/1.1/"
   xmlns:cc="http://creativecommons.org/ns#"
   xmlns:rdf="http://www.w3.org/1999/02/22-rdf-syntax-ns#"
   xmlns:svg="http://www.w3.org/2000/svg"
   xmlns="http://www.w3.org/2000/svg"
   xmlns:xlink="http://www.w3.org/1999/xlink"
   xmlns:inkscape="http://www.inkscape.org/namespaces/inkscape"
   version="1.1"
   width="100%"
   height="100%"
   viewBox="0 0 512 512"
   id="svg2">
  <metadata
     id="metadata199">
    <rdf:RDF>
      <cc:Work
         rdf:about="">
        <dc:format>image/svg+xml</dc:format>
        <dc:type
           rdf:resource="http://purl.org/dc/dcmitype/StillImage" />
      </cc:Work>
    </rdf:RDF>
  </metadata>
  <defs
     id="defs4">
    <filter
       color-interpolation-filters="sRGB"
       id="7">
      <feGaussianBlur
         id="feGaussianBlur7"
         stdDeviation="3.7725" />
    </filter>
    <linearGradient
       y1="19.563999"
       x2="0"
       y2="504.01999"
       id="8"
       gradientUnits="userSpaceOnUse">
      <stop
         id="stop10"
         style="stop-color:#f3f3f3;stop-opacity:1"
         offset="0" />
      <stop
         id="stop12"
         style="stop-color:#eeeeee;stop-opacity:1"
         offset="0.5" />
      <stop
         id="stop14"
         style="stop-color:#ebebeb;stop-opacity:1"
         offset="1" />
    </linearGradient>
    <linearGradient
       x1="257"
       x2="362"
       id="5"
       xlink:href="#0"
       gradientUnits="userSpaceOnUse"
       gradientTransform="matrix(1.02835,0,0,1.46193,209.19,-118.25)" />
    <linearGradient
       x1="257"
       x2="362"
       id="6"
       xlink:href="#0"
       gradientUnits="userSpaceOnUse"
       gradientTransform="matrix(1.0381,0,0,1.46193,-337.29,-118.25)" />
    <linearGradient
       x1="257"
       x2="362"
       id="4"
       xlink:href="#0"
       gradientUnits="userSpaceOnUse"
       gradientTransform="matrix(1.02835,0,0,1.46193,101.22,-118.25)" />
    <linearGradient
       x1="257"
       x2="362"
       id="3"
       xlink:href="#0"
       gradientUnits="userSpaceOnUse"
       gradientTransform="matrix(1.0381,0,0,1.46193,-10.289,-118.25)" />
    <linearGradient
       id="0">
      <stop
         id="stop21"
         style="stop-color:#000000;stop-opacity:1"
         offset="0" />
      <stop
         id="stop23"
         style="stop-color:#ffffff;stop-opacity:1"
         offset="1" />
    </linearGradient>
    <linearGradient
       x1="257"
       x2="362"
       id="2"
       xlink:href="#0"
       gradientUnits="userSpaceOnUse"
       gradientTransform="matrix(1.0381,0,0,1.46193,-119.29,-118.25)" />
    <linearGradient
       x1="257"
       x2="362"
       id="1"
       xlink:href="#0"
       gradientUnits="userSpaceOnUse"
       gradientTransform="matrix(1.0381,0,0,1.46193,-228.29,-118.25)" />
  </defs>
  <path
     d="m 78.66,6 c -0.929,0 -1.861,0.028 -2.781,0.063 -0.073,0.003 -0.146,-0.003 -0.219,0 -0.668,0.027 -1.337,0.08 -2,0.125 -0.376,0.025 -0.751,0.063 -1.125,0.094 -0.645,0.053 -1.297,0.086 -1.938,0.156 -0.965,0.106 -1.922,0.232 -2.875,0.375 -0.052,0.008 -0.104,0.023 -0.156,0.031 -1.082,0.165 -2.154,0.351 -3.219,0.563 -0.459,0.091 -0.919,0.182 -1.375,0.281 -0.39,0.085 -0.769,0.19 -1.156,0.281 -0.647,0.152 -1.297,0.299 -1.938,0.469 -0.898,0.238 -1.804,0.479 -2.688,0.75 -0.211,0.065 -0.414,0.152 -0.625,0.219 -0.991,0.314 -1.966,0.645 -2.938,1 -0.817,0.298 -1.635,0.611 -2.438,0.938 -0.29,0.118 -0.587,0.222 -0.875,0.344 -0.136,0.057 -0.27,0.129 -0.406,0.188 -0.082,0.035 -0.169,0.058 -0.25,0.094 -0.717,0.311 -1.42,0.636 -2.125,0.969 -0.147,0.069 -0.291,0.148 -0.438,0.219 -0.947,0.455 -1.889,0.943 -2.813,1.438 -0.271,0.145 -0.544,0.289 -0.813,0.438 -0.414,0.228 -0.81,0.483 -1.219,0.719 -0.52,0.3 -1.051,0.594 -1.563,0.906 -0.738,0.452 -1.467,0.898 -2.188,1.375 -0.031,0.021 -0.062,0.042 -0.094,0.063 -0.456,0.303 -0.895,0.625 -1.344,0.938 -0.123,0.086 -0.252,0.163 -0.375,0.25 -0.524,0.37 -1.049,0.742 -1.563,1.125 -1.835,1.371 -3.618,2.84 -5.313,4.375 -0.017,0.015 -0.046,0.016 -0.063,0.031 -0.526,0.477 -1.02,0.977 -1.531,1.469 -0.524,0.505 -1.054,1.011 -1.563,1.531 -0.512,0.523 -1,1.055 -1.5,1.594 -0.941,1.022 -1.837,2.05 -2.719,3.125 -0.631,0.769 -1.244,1.58 -1.844,2.375 -0.111,0.148 -0.233,0.289 -0.344,0.438 -0.526,0.71 -1.031,1.427 -1.531,2.156 -0.11,0.16 -0.235,0.308 -0.344,0.469 -0.013,0.019 -0.018,0.043 -0.031,0.063 -0.084,0.125 -0.167,0.249 -0.25,0.375 -0.47,0.708 -0.929,1.431 -1.375,2.156 -0.071,0.116 -0.148,0.227 -0.219,0.344 -0.575,0.948 -1.124,1.899 -1.656,2.875 -0.152,0.278 -0.289,0.564 -0.438,0.844 -0.18,0.341 -0.356,0.687 -0.531,1.031 -0.243,0.479 -0.486,0.952 -0.719,1.438 -0.426,0.885 -0.828,1.783 -1.219,2.688 -0.24,0.556 -0.461,1.124 -0.688,1.688 -0.038,0.095 -0.087,0.186 -0.125,0.281 -0.246,0.621 -0.489,1.245 -0.719,1.875 -0.332,0.909 -0.641,1.825 -0.938,2.75 -0.11,0.345 -0.238,0.684 -0.344,1.031 -0.301,0.99 -0.585,1.992 -0.844,3 -0.008,0.032 -0.023,0.062 -0.031,0.094 -0.267,1.046 -0.497,2.092 -0.719,3.156 -0.034,0.166 -0.06,0.334 -0.094,0.5 -0.426,2.117 -0.762,4.257 -1,6.438 -0.035,0.323 -0.063,0.645 -0.094,0.969 -0.09,0.938 -0.165,1.895 -0.219,2.844 -0.017,0.29 -0.018,0.584 -0.031,0.875 -0.051,1.119 -0.094,2.243 -0.094,3.375 v 354.69 6 c 0,40.24 32.411,72.66 72.66,72.66 h 354.69 c 40.24,0 72.66,-32.411 72.66,-72.66 v -354.69 -6 c 0,-1.259 -0.031,-2.507 -0.094,-3.75 -0.016,-0.323 -0.042,-0.647 -0.063,-0.969 -0.058,-0.917 -0.127,-1.843 -0.219,-2.75 -0.02,-0.2 -0.041,-0.394 -0.063,-0.594 -0.246,-2.245 -0.587,-4.447 -1.031,-6.625 -0.021,-0.104 -0.041,-0.209 -0.063,-0.313 -0.227,-1.087 -0.476,-2.15 -0.75,-3.219 -0.011,-0.042 -0.02,-0.083 -0.031,-0.125 -0.19,-0.732 -0.413,-1.464 -0.625,-2.188 -0.212,-0.724 -0.423,-1.442 -0.656,-2.156 -0.258,-0.789 -0.529,-1.567 -0.813,-2.344 -0.23,-0.63 -0.472,-1.254 -0.719,-1.875 -0.038,-0.096 -0.087,-0.186 -0.125,-0.281 -0.239,-0.594 -0.465,-1.195 -0.719,-1.781 -0.378,-0.871 -0.777,-1.741 -1.188,-2.594 -0.233,-0.485 -0.475,-0.958 -0.719,-1.438 -0.287,-0.564 -0.574,-1.132 -0.875,-1.688 -0.051,-0.094 -0.105,-0.188 -0.156,-0.281 -0.513,-0.936 -1.041,-1.871 -1.594,-2.781 -0.212,-0.35 -0.438,-0.685 -0.656,-1.031 -0.405,-0.642 -0.795,-1.278 -1.219,-1.906 -0.809,-1.199 -1.685,-2.354 -2.563,-3.5 -0.262,-0.341 -0.514,-0.695 -0.781,-1.031 -0.189,-0.238 -0.371,-0.483 -0.563,-0.719 -0.093,-0.114 -0.188,-0.231 -0.281,-0.344 -2.71,-3.286 -5.696,-6.301 -8.938,-9.06 -0.293,-0.249 -0.578,-0.505 -0.875,-0.75 -0.268,-0.221 -0.541,-0.439 -0.813,-0.656 -0.636,-0.509 -1.284,-1.012 -1.938,-1.5 -3.17,-2.368 -6.55,-4.481 -10.09,-6.313 -0.617,-0.319 -1.248,-0.636 -1.875,-0.938 -0.155,-0.074 -0.313,-0.145 -0.469,-0.219 -0.785,-0.371 -1.575,-0.719 -2.375,-1.063 -0.488,-0.209 -0.975,-0.426 -1.469,-0.625 -0.735,-0.296 -1.472,-0.571 -2.219,-0.844 -0.392,-0.143 -0.793,-0.27 -1.188,-0.406 -0.718,-0.248 -1.459,-0.524 -2.188,-0.75 -0.114,-0.035 -0.23,-0.059 -0.344,-0.094 -0.488,-0.149 -0.977,-0.267 -1.469,-0.406 -0.357,-0.1 -0.703,-0.217 -1.063,-0.313 -0.019,-0.005 -0.043,0.005 -0.063,0 -0.837,-0.221 -1.683,-0.433 -2.531,-0.625 -0.032,-0.007 -0.062,-0.024 -0.094,-0.031 -0.651,-0.146 -1.311,-0.278 -1.969,-0.406 -1,-0.197 -2.01,-0.376 -3.03,-0.531 -0.063,-0.01 -0.125,-0.022 -0.188,-0.031 -0.952,-0.143 -1.88,-0.269 -2.844,-0.375 -0.836,-0.091 -1.687,-0.156 -2.531,-0.219 -0.176,-0.013 -0.355,-0.019 -0.531,-0.031 -0.735,-0.049 -1.478,-0.097 -2.219,-0.125 -0.92,-0.034 -1.853,-0.063 -2.781,-0.063 H 147.503 78.659"
     inkscape:connector-curvature="0"
     id="path27"
     style="fill-opacity:0.17600002;filter:url(#7)" />
  <rect
     width="500"
     height="500"
     rx="72.639999"
     x="6"
     y="12"
     id="rect29"
     style="opacity:0.15" />
  <rect
     width="500"
     height="500"
     rx="72.639999"
     x="6"
     y="6"
     id="rect31"
     style="fill:url(#8)" />
  <rect
     width="435"
     height="435"
     rx="63.200001"
     x="38.5"
     y="38.5"
     id="rect33"
     style="fill:#ddb748" />
  <path
     d="M 101.69,38.5 C 66.68,38.5 38.5,66.67 38.5,101.69 v 15 C 38.5,81.68 66.67,53.5 101.69,53.5 h 308.63 c 35.01,0 63.19,28.17 63.19,63.19 v -15 C 473.51,66.68 445.34,38.5 410.32,38.5 H 101.7"
     inkscape:connector-curvature="0"
     id="path35"
     style="opacity:0.2" />
  <path
     d="M 78.66,6 C 38.42,6 6,38.411 6,78.66 v 7 C 6,45.42 38.411,13 78.66,13 h 354.69 c 40.24,0 72.66,32.411 72.66,72.66 v -7 C 506.01,38.42 473.599,6 433.35,6 H 78.66"
     inkscape:connector-curvature="0"
     id="path37"
     style="fill:#ffffff" />
  <text
     x="-338.70999"
     y="121.53"
     id="text39"
     style="font-size:129.22999573px;line-height:125%;letter-spacing:0;word-spacing:0;font-family:Gentium Book Basic">
    <tspan
       x="-338.70999"
       y="121.53"
       id="tspan41" />
  </text>
  <text
     x="112.67"
     y="138.53999"
     transform="scale(4.0128,0.2492)"
     id="text43"
     style="font-size:46.95399857px;text-anchor:middle;font-family:Arial" />
  <text
     x="242.56"
     y="41.535"
     id="text45"
     style="font-size:129.22999573px;line-height:125%;letter-spacing:0;word-spacing:0;font-family:Gentium Book Basic">
    <tspan
       x="242.56"
       y="41.535"
       id="tspan47" />
  </text>
  <text
     x="257.51999"
     y="-182.49001"
     transform="scale(4.0128,0.2492)"
     id="text49"
     style="font-size:46.95399857px;text-anchor:middle;font-family:Arial" />
  <text
     x="-829.02002"
     y="-139.73"
     id="text51"
     style="font-size:129.22999573px;line-height:125%;letter-spacing:0;word-spacing:0;font-family:Gentium Book Basic">
    <tspan
       x="-829.02002"
       y="-139.73"
       id="tspan53" />
  </text>
  <text
     x="-9.5150003"
     y="-909.84998"
     transform="scale(4.0128,0.2492)"
     id="text55"
     style="font-size:46.95399857px;text-anchor:middle;font-family:Arial" />
  <text
     x="269.03"
     y="-356.20001"
     id="text57"
     style="font-size:129.22999573px;line-height:125%;letter-spacing:0;word-spacing:0;font-family:Gentium Book Basic">
    <tspan
       x="269.03"
       y="-356.20001"
       id="tspan59" />
  </text>
  <text
     x="264.12"
     y="-1778.51"
     transform="scale(4.0128,0.2492)"
     id="text61"
     style="font-size:46.95399857px;text-anchor:middle;font-family:Arial" />
  <text
     x="850.29999"
     y="-436.20999"
     id="text63"
     style="font-size:129.22999573px;line-height:125%;letter-spacing:0;word-spacing:0;font-family:Gentium Book Basic">
    <tspan
       x="850.29999"
       y="-436.20999"
       id="tspan65" />
  </text>
  <text
     x="408.97"
     y="-2099.55"
     transform="scale(4.0128,0.2492)"
     id="text67"
     style="font-size:46.95399857px;text-anchor:middle;font-family:Arial" />
  <text
     x="461.17999"
     y="-908.60999"
     id="text69"
     style="font-size:129.22999573px;line-height:125%;letter-spacing:0;word-spacing:0;font-family:Gentium Book Basic">
    <tspan
       x="461.17999"
       y="-908.60999"
       id="tspan71" />
  </text>
  <text
     x="312"
     y="-3995.2"
     transform="scale(4.0128,0.2492)"
     id="text73"
     style="font-size:46.95399857px;text-anchor:middle;font-family:Arial" />
  <text
     x="1042.4399"
     y="-988.60999"
     id="text75"
     style="font-size:129.22999573px;line-height:125%;letter-spacing:0;word-spacing:0;font-family:Gentium Book Basic">
    <tspan
       x="1042.4399"
       y="-988.60999"
       id="tspan77" />
  </text>
  <text
     x="456.85001"
     y="-4316.23"
     transform="scale(4.0128,0.2492)"
     id="text79"
     style="font-size:46.95399857px;text-anchor:middle;font-family:Arial" />
  <g
     transform="translate(-1068.35,-109.83)"
     id="g81"
     style="line-height:125%;letter-spacing:0;word-spacing:0;font-family:Gentium Book Basic">
    <text
       x="277.98999"
       y="535.94"
       id="text83"
       style="font-size:208.33000183px">
      <tspan
         x="277.98999"
         y="535.94"
         id="tspan85" />
    </text>
    <text
       x="-51.852001"
       y="-99.889999"
       id="text87"
       style="font-size:129.22999573px">
      <tspan
         x="-51.852001"
         y="-99.889999"
         id="tspan89" />
    </text>
  </g>
  <text
     x="-82.07"
     y="-1190.6899"
     transform="scale(4.0128,0.2492)"
     id="text91"
     style="font-size:46.95399857px;text-anchor:middle;font-family:Arial" />
  <text
     x="-538.92999"
     y="-289.72"
     id="text93"
     style="font-size:129.22999573px;line-height:125%;letter-spacing:0;word-spacing:0;font-family:Gentium Book Basic">
    <tspan
       x="-538.92999"
       y="-289.72"
       id="tspan95" />
  </text>
  <text
     x="62.775002"
     y="-1511.72"
     transform="scale(4.0128,0.2492)"
     id="text97"
     style="font-size:46.95399857px;text-anchor:middle;font-family:Arial" />
  <text
     x="-1610.51"
     y="-470.98001"
     id="text99"
     style="font-size:129.22999573px;line-height:125%;letter-spacing:0;word-spacing:0;font-family:Gentium Book Basic">
    <tspan
       x="-1610.51"
       y="-470.98001"
       id="tspan101" />
  </text>
  <text
     x="-204.25999"
     y="-2239.0801"
     transform="scale(4.0128,0.2492)"
     id="text103"
     style="font-size:46.95399857px;text-anchor:middle;font-family:Arial" />
  <text
     x="-512.46002"
     y="-687.45001"
     id="text105"
     style="font-size:129.22999573px;line-height:125%;letter-spacing:0;word-spacing:0;font-family:Gentium Book Basic">
    <tspan
       x="-512.46002"
       y="-687.45001"
       id="tspan107" />
  </text>
  <text
     x="69.370003"
     y="-3107.75"
     transform="scale(4.0128,0.2492)"
     id="text109"
     style="font-size:46.95399857px;text-anchor:middle;font-family:Arial" />
  <text
     x="68.802002"
     y="-767.45001"
     id="text111"
     style="font-size:129.22999573px;line-height:125%;letter-spacing:0;word-spacing:0;font-family:Gentium Book Basic">
    <tspan
       x="68.802002"
       y="-767.45001"
       id="tspan113" />
  </text>
  <text
     x="214.22"
     y="-3428.78"
     transform="scale(4.0128,0.2492)"
     id="text115"
     style="font-size:46.95399857px;text-anchor:middle;font-family:Arial" />
  <text
     x="-320.32001"
     y="-1239.85"
     id="text117"
     style="font-size:129.22999573px;line-height:125%;letter-spacing:0;word-spacing:0;font-family:Gentium Book Basic">
    <tspan
       x="-320.32001"
       y="-1239.85"
       id="tspan119" />
  </text>
  <text
     x="117.25"
     y="-5324.4302"
     transform="scale(4.0128,0.2492)"
     id="text121"
     style="font-size:46.95399857px;text-anchor:middle;font-family:Arial" />
  <text
     x="260.95001"
     y="-1319.86"
     id="text123"
     style="font-size:129.22999573px;line-height:125%;letter-spacing:0;word-spacing:0;font-family:Gentium Book Basic">
    <tspan
       x="260.95001"
       y="-1319.86"
       id="tspan125" />
  </text>
  <text
     x="262.10001"
     y="-5645.46"
     transform="scale(4.0128,0.2492)"
     id="text127"
     style="font-size:46.95399857px;text-anchor:middle;font-family:Arial" />
  <g
     transform="translate(-1068.35,-109.83)"
     id="g129"
     style="line-height:125%;letter-spacing:0;word-spacing:0;font-family:Gentium Book Basic">
    <text
       x="-503.51001"
       y="204.69"
       id="text131"
       style="font-size:208.33000183px">
      <tspan
         x="-503.51001"
         y="204.69"
         id="tspan133" />
    </text>
    <text
       x="3052.29"
       y="-842.76001"
       id="text135"
       style="font-size:129.22999573px">
      <tspan
         x="3052.29"
         y="-842.76001"
         id="tspan137" />
    </text>
  </g>
  <text
     x="691.46997"
     y="-4171.71"
     transform="scale(4.0128,0.2492)"
     id="text139"
     style="font-size:46.95399857px;text-anchor:middle;font-family:Arial" />
  <text
     x="2565.2"
     y="-1032.6"
     id="text141"
     style="font-size:129.22999573px;line-height:125%;letter-spacing:0;word-spacing:0;font-family:Gentium Book Basic">
    <tspan
       x="2565.2"
       y="-1032.6"
       id="tspan143" />
  </text>
  <text
     x="836.32001"
     y="-4492.75"
     transform="scale(4.0128,0.2492)"
     id="text145"
     style="font-size:46.95399857px;text-anchor:middle;font-family:Arial" />
  <text
     x="1493.62"
     y="-1213.85"
     id="text147"
     style="font-size:129.22999573px;line-height:125%;letter-spacing:0;word-spacing:0;font-family:Gentium Book Basic">
    <tspan
       x="1493.62"
       y="-1213.85"
       id="tspan149" />
  </text>
  <text
     x="569.28003"
     y="-5220.0898"
     transform="scale(4.0128,0.2492)"
     id="text151"
     style="font-size:46.95399857px;text-anchor:middle;font-family:Arial" />
  <text
     x="2591.6699"
     y="-1430.33"
     id="text153"
     style="font-size:129.22999573px;line-height:125%;letter-spacing:0;word-spacing:0;font-family:Gentium Book Basic">
    <tspan
       x="2591.6699"
       y="-1430.33"
       id="tspan155" />
  </text>
  <text
     x="842.91998"
     y="-6088.7598"
     transform="scale(4.0128,0.2492)"
     id="text157"
     style="font-size:46.95399857px;text-anchor:middle;font-family:Arial" />
  <text
     x="3172.9399"
     y="-1510.33"
     id="text159"
     style="font-size:129.22999573px;line-height:125%;letter-spacing:0;word-spacing:0;font-family:Gentium Book Basic">
    <tspan
       x="3172.9399"
       y="-1510.33"
       id="tspan161" />
  </text>
  <text
     x="987.77002"
     y="-6409.7998"
     transform="scale(4.0128,0.2492)"
     id="text163"
     style="font-size:46.95399857px;text-anchor:middle;font-family:Arial" />
  <text
     x="2783.8201"
     y="-1982.73"
     id="text165"
     style="font-size:129.22999573px;line-height:125%;letter-spacing:0;word-spacing:0;font-family:Gentium Book Basic">
    <tspan
       x="2783.8201"
       y="-1982.73"
       id="tspan167" />
  </text>
  <text
     x="890.79999"
     y="-8305.4502"
     transform="scale(4.0128,0.2492)"
     id="text169"
     style="font-size:46.95399857px;text-anchor:middle;font-family:Arial" />
  <text
     x="3365.0901"
     y="-2062.73"
     id="text171"
     style="font-size:129.22999573px;line-height:125%;letter-spacing:0;word-spacing:0;font-family:Gentium Book Basic">
    <tspan
       x="3365.0901"
       y="-2062.73"
       id="tspan173" />
  </text>
  <text
     x="1035.65"
     y="-8626.4902"
     transform="scale(4.0128,0.2492)"
     id="text175"
     style="font-size:46.95399857px;text-anchor:middle;font-family:Arial" />
  <text
     x="1532.28"
     y="-648.02002"
     id="text177"
     style="font-size:208.33000183px;line-height:125%;letter-spacing:0;word-spacing:0;font-family:Gentium Book Basic">
    <tspan
       x="1532.28"
       y="-648.02002"
       id="tspan179" />
  </text>
  <path
     d="m -79.16,449.22 -105.97,112.94 32.961,151.32 -140.16,-65.882 -133.73,78.11 19.347,-153.66 -115.61,-103.05 152.11,-29.08 62.28,-141.8 74.67,135.68 z"
     inkscape:connector-curvature="0"
     transform="matrix(0.75594,0,0,0.75594,490.84,-123.48)"
     id="path181"
     style="opacity:0.2" />
  <path
     d="m -79.16,449.22 -105.97,112.94 32.961,151.32 -140.16,-65.882 -133.73,78.11 19.347,-153.66 -115.61,-103.05 152.11,-29.08 62.28,-141.8 74.67,135.68 z"
     inkscape:connector-curvature="0"
     transform="matrix(0.75594,0,0,0.75594,475.84,-138.48)"
     id="path183"
     style="fill:#dcdbdb" />
  <path
     d="M 78.66,6 C 63.797,6 49.99,10.43 38.5,18.03 V 493.97 C 49.986,501.572 63.793,506 78.66,506 h 68.844 V 6 H 78.66"
     inkscape:connector-curvature="0"
     id="path185"
     style="opacity:0.05;fill:url(#1)" />
  <path
     d="m 147.5,6 v 500 h 109 V 6 h -109"
     inkscape:connector-curvature="0"
     id="path187"
     style="opacity:0.05;fill:url(#2)" />
  <path
     d="m 256.5,6 v 500 h 109 V 6 h -109"
     inkscape:connector-curvature="0"
     id="path189"
     style="opacity:0.05;fill:url(#3)" />
  <path
     d="m 365.5,6 v 500 h 67.844 c 14.854,0 28.643,-4.438 40.13,-12.03 V 18.03 C 461.992,10.437 448.204,6 433.354,6 H 365.51"
     inkscape:connector-curvature="0"
     id="path191"
     style="opacity:0.05;fill:url(#4)" />
  <path
     d="M 38.5,18.03 C 18.886,31.011 6,53.27 6,78.66 v 354.69 c 0,25.381 12.886,47.644 32.5,60.63 V 18.04"
     inkscape:connector-curvature="0"
     id="path193"
     style="opacity:0.05;fill:url(#6)" />
  <path
     d="m 473.47,18.03 v 475.94 c 19.627,-12.979 32.531,-35.23 32.531,-60.62 V 78.66 c 0,-25.391 -12.905,-47.646 -32.531,-60.62"
     inkscape:connector-curvature="0"
     id="path195"
     style="opacity:0.05;fill:url(#5)" />
</svg>
