<?xml version="1.0" encoding="UTF-8" standalone="no"?>
<svg
   xmlns:dc="http://purl.org/dc/elements/1.1/"
   xmlns:cc="http://creativecommons.org/ns#"
   xmlns:rdf="http://www.w3.org/1999/02/22-rdf-syntax-ns#"
   xmlns:svg="http://www.w3.org/2000/svg"
   xmlns="http://www.w3.org/2000/svg"
   xmlns:xlink="http://www.w3.org/1999/xlink"
   xmlns:sodipodi="http://sodipodi.sourceforge.net/DTD/sodipodi-0.dtd"
   xmlns:inkscape="http://www.inkscape.org/namespaces/inkscape"
   viewBox="0 0 512 512"
   id="svg2"
   version="1.1"
   inkscape:version="0.48.4 r9939"
   width="100%"
   height="100%"
   sodipodi:docname="viddler.svg">
  <sodipodi:namedview
     pagecolor="#444444"
     bordercolor="#666666"
     borderopacity="1"
     objecttolerance="10"
     gridtolerance="10"
     guidetolerance="10"
     inkscape:pageopacity="0"
     inkscape:pageshadow="2"
     inkscape:window-width="1310"
     inkscape:window-height="718"
     id="namedview6"
     showgrid="false"
     showguides="true"
     inkscape:guide-bbox="true"
     inkscape:zoom="0.36635945"
     inkscape:cx="240.06162"
     inkscape:cy="383.8283"
     inkscape:window-x="54"
     inkscape:window-y="27"
     inkscape:window-maximized="1"
     inkscape:current-layer="svg2"
     inkscape:snap-midpoints="true"
     inkscape:snap-global="false">
    <sodipodi:guide
       id="guide2989"
       position="522.57628,433.35594"
       orientation="0,1" />
    <sodipodi:guide
       id="guide2995"
       position="473.05444,254.912"
       orientation="1,0" />
  </sodipodi:namedview>
  <metadata
     id="metadata10">
    <rdf:RDF>
      <cc:Work
         rdf:about="">
        <dc:format>image/svg+xml</dc:format>
        <dc:type
           rdf:resource="http://purl.org/dc/dcmitype/StillImage" />
        <dc:title />
      </cc:Work>
    </rdf:RDF>
  </metadata>
  <defs
     id="defs8">
    <linearGradient
       id="linearGradient4996">
      <stop
         style="stop-color:#000000;stop-opacity:1;"
         offset="0"
         id="stop4998" />
      <stop
         style="stop-color:#ffffff;stop-opacity:1;"
         offset="1"
         id="stop5000" />
    </linearGradient>
    <linearGradient
       inkscape:collect="always"
       xlink:href="#linearGradient4996"
       id="linearGradient3108"
       gradientUnits="userSpaceOnUse"
       gradientTransform="matrix(1.0380952,0,0,1.4619252,-228.28943,-118.25286)"
       x1="257"
       y1="256"
       x2="362"
       y2="256" />
    <linearGradient
       inkscape:collect="always"
       xlink:href="#linearGradient4996"
       id="linearGradient3137"
       gradientUnits="userSpaceOnUse"
       gradientTransform="matrix(1.0380952,0,0,1.4619252,-119.28943,-118.25286)"
       x1="257"
       y1="256"
       x2="362"
       y2="256" />
    <linearGradient
       inkscape:collect="always"
       xlink:href="#linearGradient4996"
       id="linearGradient3141"
       gradientUnits="userSpaceOnUse"
       gradientTransform="matrix(1.0380952,0,0,1.4619252,-10.28943,-118.25286)"
       x1="257"
       y1="256"
       x2="362"
       y2="256" />
    <linearGradient
       inkscape:collect="always"
       xlink:href="#linearGradient4996"
       id="linearGradient3145"
       gradientUnits="userSpaceOnUse"
       gradientTransform="matrix(1.0283468,0,0,1.4619252,101.21591,-118.25286)"
       x1="257"
       y1="256"
       x2="362"
       y2="256" />
    <linearGradient
       inkscape:collect="always"
       xlink:href="#linearGradient4996"
       id="linearGradient3149"
       gradientUnits="userSpaceOnUse"
       gradientTransform="matrix(1.0283468,0,0,1.4619252,209.19233,-118.25286)"
       x1="257"
       y1="256"
       x2="362"
       y2="256" />
    <linearGradient
       inkscape:collect="always"
       xlink:href="#linearGradient4996"
       id="linearGradient3153"
       gradientUnits="userSpaceOnUse"
       gradientTransform="matrix(1.0380952,0,0,1.4619252,-337.28943,-118.25286)"
       x1="257"
       y1="256"
       x2="362"
       y2="256" />
  </defs>
  <rect
     style="opacity:0.2;fill:#000000;fill-opacity:1;stroke:none"
     id="rect5028"
     width="500"
     height="500"
     x="6"
     y="12"
     rx="72.644058"
     ry="72.644058" />
  <rect
     ry="72.644058"
     rx="72.644058"
     y="6"
     x="6"
     height="500"
     width="500"
     id="rect4979"
     style="fill:#f3f3f3;fill-opacity:1;stroke:none" />
  <rect
     style="fill:#0078ad;fill-opacity:1;stroke:none"
     id="rect4981"
     width="434.99997"
     height="434.99997"
     x="38.500011"
     y="38.500011"
     rx="63.200329"
     ry="63.200329" />
  <path
     style="fill:#000000;fill-opacity:1;stroke:none;opacity:0.2"
     d="M 101.6875 38.5 C 66.674518 38.5 38.5 66.674518 38.5 101.6875 L 38.5 116.6875 C 38.5 81.674518 66.674518 53.5 101.6875 53.5 L 410.3125 53.5 C 445.32548 53.5 473.5 81.674518 473.5 116.6875 L 473.5 101.6875 C 473.5 66.674518 445.32548 38.5 410.3125 38.5 L 101.6875 38.5 z "
     id="rect3187" />
  <g
     id="g3048"
     transform="translate(213.48578,659.27026)">
    <path
       style="opacity:0.2;fill:#000000;fill-opacity:1"
       d="m -24.610414,-274.51492 c 0,-10.03795 -0.257285,-18.38567 -0.571744,-18.5505 -0.314459,-0.16483 -21.105238,5.83893 -46.201737,13.34168 -25.096485,7.50276 -45.767375,13.50399 -45.935305,13.33607 -0.16792,-0.16793 -0.21721,-24.157 -0.10952,-53.30904 l 0.1958,-53.00372 44.977185,12.08979 c 24.73745,6.64939 45.585617,12.09325 46.32925,12.09749 1.250602,0.007 1.336417,-0.97921 1.143488,-13.14241 l -0.20858,-13.15011 -7.242089,-0.58286 c -41.045674,-3.30343 -72.484354,-35.41922 -74.485764,-76.08999 -2.01578,-40.96275 27.003093,-76.52078 67.779865,-83.05349 8.523351,-1.3655 25.209527,-0.62906 33.387279,1.47353 8.074693,2.07609 21.662422,8.6295 28.20603,13.60387 15.101409,11.47992 26.515856,28.95073 30.296196,46.37098 0.980213,4.51695 1.507223,5.65546 2.617855,5.65546 0.957701,0 1.39058,-0.56673 1.39058,-1.82053 0,-3.67003 3.982693,-15.41374 7.636586,-22.51791 11.155127,-21.6886 31.426724,-37.12107 55.255239,-42.06498 9.28501,-1.92644 24.25729,-1.92644 33.54231,0 18.30941,3.79882 35.15274,14.14608 46.66645,28.66832 18.82213,23.74037 22.77863,56.26173 10.13012,83.26684 -11.33327,24.19702 -33.40149,41.01774 -59.75515,45.54624 -5.41265,0.93008 -13.93463,1.16336 -42.49963,1.16336 -21.312198,0 -35.729421,0.28379 -35.729421,0.7033 0,0.38681 8.890343,27.14442 19.756319,59.46136 l 19.756322,58.75806 -68.163969,0 -68.163965,0 0,-18.25081 z m 7.829162,-160.32958 c 4.97389,-2.09178 10.838419,-8.59769 12.355728,-13.70705 2.462211,-8.29115 0.450344,-16.57731 -5.459956,-22.48761 -8.833686,-8.83369 -21.968289,-9.18983 -31.100738,-0.84329 -5.441835,4.97353 -7.507843,9.42389 -7.553247,16.27032 -0.109859,16.56486 16.27475,27.27924 31.758213,20.76763 z m 163.061662,0.47294 c 1.95825,-0.61668 5.11217,-2.48711 7.0087,-4.15651 15.61969,-13.74899 5.80767,-39.11137 -15.14311,-39.14235 -9.31247,-0.0138 -16.71334,4.80603 -20.56769,13.39466 -5.85729,13.05178 2.25104,28.29499 16.54454,31.1028 3.73031,0.73278 7.0701,0.40351 12.15756,-1.1986 z"
       id="path3046"
       inkscape:connector-curvature="0" />
    <path
       inkscape:connector-curvature="0"
       id="path3044"
       d="m -39.610414,-289.51492 c 0,-10.03795 -0.257285,-18.38567 -0.571744,-18.5505 -0.314459,-0.16483 -21.105238,5.83893 -46.201737,13.34168 -25.096485,7.50276 -45.767375,13.50399 -45.935305,13.33607 -0.16792,-0.16793 -0.21721,-24.157 -0.10952,-53.30904 l 0.1958,-53.00372 44.977185,12.08979 c 24.73745,6.64939 45.585617,12.09325 46.32925,12.09749 1.250602,0.007 1.336417,-0.97921 1.143488,-13.14241 l -0.20858,-13.15011 -7.242089,-0.58286 c -41.045674,-3.30343 -72.484354,-35.41922 -74.485764,-76.08999 -2.01578,-40.96275 27.003093,-76.52078 67.779865,-83.05349 8.523351,-1.3655 25.209527,-0.62906 33.387279,1.47353 8.074693,2.07609 21.6624216,8.6295 28.20603,13.60387 15.101409,11.47992 26.515856,28.95073 30.296196,46.37098 0.980213,4.51695 1.507223,5.65546 2.617855,5.65546 0.957701,0 1.39058,-0.56673 1.39058,-1.82053 0,-3.67003 3.982693,-15.41374 7.636586,-22.51791 11.155127,-21.6886 31.426724,-37.12107 55.255239,-42.06498 9.28501,-1.92644 24.25729,-1.92644 33.54231,0 18.30941,3.79882 35.15274,14.14608 46.66645,28.66832 18.82213,23.74037 22.77863,56.26173 10.13012,83.26684 -11.33327,24.19702 -33.40149,41.01774 -59.75515,45.54624 -5.41265,0.93008 -13.93463,1.16336 -42.499626,1.16336 -21.312202,0 -35.729425,0.28379 -35.729425,0.7033 0,0.38681 8.890343,27.14442 19.756319,59.46136 l 19.756319,58.75806 -68.163966,0 -68.163965,0 0,-18.25081 z m 7.829162,-160.32958 c 4.97389,-2.09178 10.838419,-8.59769 12.355728,-13.70705 2.462211,-8.29115 0.450344,-16.57731 -5.459956,-22.48761 -8.833686,-8.83369 -21.968289,-9.18983 -31.100738,-0.84329 -5.441835,4.97353 -7.507843,9.42389 -7.553247,16.27032 -0.109859,16.56486 16.27475,27.27924 31.758213,20.76763 z m 163.061662,0.47294 c 1.95825,-0.61668 5.11217,-2.48711 7.0087,-4.15651 15.61969,-13.74899 5.80767,-39.11137 -15.14311,-39.14235 -9.31247,-0.0138 -16.71334,4.80603 -20.56769,13.39466 -5.857294,13.05178 2.25104,28.29499 16.54454,31.1028 3.73031,0.73278 7.0701,0.40351 12.15756,-1.1986 z"
       style="fill:#dcdbdb;fill-opacity:1" />
  </g>
  <g
     id="g3167">
    <path
       id="rect3068"
       d="M 78.65625 6 C 63.792798 6 49.986224 10.429561 38.5 18.03125 L 38.5 493.96875 C 49.986224 501.57044 63.792798 506 78.65625 506 L 147.5 506 L 147.5 6 L 78.65625 6 z "
       style="opacity:0.05000000000000000;fill:url(#linearGradient3108);fill-opacity:1;stroke:none" />
    <path
       inkscape:connector-curvature="0"
       style="opacity:0.05;fill:url(#linearGradient3137);fill-opacity:1;stroke:none"
       d="m 147.50001,6 0,500 109,0 0,-500 -109,0 z"
       id="path3135" />
    <path
       id="path3139"
       d="m 256.50001,6 0,500 109,0 0,-500 -109,0 z"
       style="opacity:0.05;fill:url(#linearGradient3141);fill-opacity:1;stroke:none"
       inkscape:connector-curvature="0" />
    <path
       id="path3143"
       d="M 365.5 6 L 365.5 506 L 433.34375 506 C 448.1977 506 461.98692 501.56151 473.46875 493.96875 L 473.46875 18.03125 C 461.98692 10.438491 448.1977 6 433.34375 6 L 365.5 6 z "
       style="opacity:0.05000000000000000;fill:url(#linearGradient3145);fill-opacity:1;stroke:none" />
    <path
       id="path3151"
       d="M 38.5 18.03125 C 18.885717 31.012164 6 53.274894 6 78.65625 L 6 433.34375 C 6 458.72511 18.885717 480.98784 38.5 493.96875 L 38.5 18.03125 z "
       style="opacity:0.05000000000000000;fill:url(#linearGradient3153);fill-opacity:1;stroke:none" />
    <path
       id="path3147"
       d="M 473.46875 18.03125 L 473.46875 493.96875 C 493.09542 480.98993 506 458.73461 506 433.34375 L 506 78.65625 C 506 53.265388 493.09542 31.010071 473.46875 18.03125 z "
       style="opacity:0.05000000000000000;fill:url(#linearGradient3149);fill-opacity:1;stroke:none" />
  </g>
</svg>
