<?xml version="1.0" encoding="UTF-8" standalone="no"?>
<svg
   xmlns:dc="http://purl.org/dc/elements/1.1/"
   xmlns:cc="http://creativecommons.org/ns#"
   xmlns:rdf="http://www.w3.org/1999/02/22-rdf-syntax-ns#"
   xmlns:svg="http://www.w3.org/2000/svg"
   xmlns="http://www.w3.org/2000/svg"
   xmlns:xlink="http://www.w3.org/1999/xlink"
   xmlns:sodipodi="http://sodipodi.sourceforge.net/DTD/sodipodi-0.dtd"
   xmlns:inkscape="http://www.inkscape.org/namespaces/inkscape"
   viewBox="0 0 512 512"
   id="svg2"
   version="1.1"
   inkscape:version="0.48.4 r9939"
   width="100%"
   height="100%"
   sodipodi:docname="base.svg">
  <sodipodi:namedview
     pagecolor="#444444"
     bordercolor="#666666"
     borderopacity="1"
     objecttolerance="10"
     gridtolerance="10"
     guidetolerance="10"
     inkscape:pageopacity="0"
     inkscape:pageshadow="2"
     inkscape:window-width="1310"
     inkscape:window-height="718"
     id="namedview6"
     showgrid="false"
     showguides="true"
     inkscape:guide-bbox="true"
     inkscape:zoom="0.5181105"
     inkscape:cx="328.82337"
     inkscape:cy="365.26884"
     inkscape:window-x="54"
     inkscape:window-y="27"
     inkscape:window-maximized="1"
     inkscape:current-layer="svg2"
     inkscape:snap-midpoints="true"
     inkscape:snap-global="false">
    <sodipodi:guide
       id="guide2989"
       position="522.57628,433.35594"
       orientation="0,1" />
    <sodipodi:guide
       id="guide2995"
       position="473.05444,254.912"
       orientation="1,0" />
  </sodipodi:namedview>
  <metadata
     id="metadata10">
    <rdf:RDF>
      <cc:Work
         rdf:about="">
        <dc:format>image/svg+xml</dc:format>
        <dc:type
           rdf:resource="http://purl.org/dc/dcmitype/StillImage" />
        <dc:title></dc:title>
      </cc:Work>
    </rdf:RDF>
  </metadata>
  <defs
     id="defs8">
    <linearGradient
       id="linearGradient4996">
      <stop
         style="stop-color:#000000;stop-opacity:1;"
         offset="0"
         id="stop4998" />
      <stop
         style="stop-color:#ffffff;stop-opacity:1;"
         offset="1"
         id="stop5000" />
    </linearGradient>
    <linearGradient
       inkscape:collect="always"
       xlink:href="#linearGradient4996"
       id="linearGradient3108"
       gradientUnits="userSpaceOnUse"
       gradientTransform="matrix(1.0380952,0,0,1.4619252,-228.28943,-118.25286)"
       x1="257"
       y1="256"
       x2="362"
       y2="256" />
    <linearGradient
       inkscape:collect="always"
       xlink:href="#linearGradient4996"
       id="linearGradient3137"
       gradientUnits="userSpaceOnUse"
       gradientTransform="matrix(1.0380952,0,0,1.4619252,-119.28943,-118.25286)"
       x1="257"
       y1="256"
       x2="362"
       y2="256" />
    <linearGradient
       inkscape:collect="always"
       xlink:href="#linearGradient4996"
       id="linearGradient3141"
       gradientUnits="userSpaceOnUse"
       gradientTransform="matrix(1.0380952,0,0,1.4619252,-10.28943,-118.25286)"
       x1="257"
       y1="256"
       x2="362"
       y2="256" />
    <linearGradient
       inkscape:collect="always"
       xlink:href="#linearGradient4996"
       id="linearGradient3145"
       gradientUnits="userSpaceOnUse"
       gradientTransform="matrix(1.0283468,0,0,1.4619252,101.21591,-118.25286)"
       x1="257"
       y1="256"
       x2="362"
       y2="256" />
    <linearGradient
       inkscape:collect="always"
       xlink:href="#linearGradient4996"
       id="linearGradient3149"
       gradientUnits="userSpaceOnUse"
       gradientTransform="matrix(1.0283468,0,0,1.4619252,209.19233,-118.25286)"
       x1="257"
       y1="256"
       x2="362"
       y2="256" />
    <linearGradient
       inkscape:collect="always"
       xlink:href="#linearGradient4996"
       id="linearGradient3153"
       gradientUnits="userSpaceOnUse"
       gradientTransform="matrix(1.0380952,0,0,1.4619252,-337.28943,-118.25286)"
       x1="257"
       y1="256"
       x2="362"
       y2="256" />
  </defs>
  <rect
     style="opacity:0.2;fill:#000000;fill-opacity:1;stroke:none"
     id="rect5028"
     width="500"
     height="500"
     x="6"
     y="12"
     rx="72.644058"
     ry="72.644058" />
  <rect
     ry="72.644058"
     rx="72.644058"
     y="6"
     x="6"
     height="500"
     width="500"
     id="rect4979"
     style="fill:#f3f3f3;fill-opacity:1;stroke:none" />
  <rect
     style="fill:#7fca9f;fill-opacity:1;stroke:none"
     id="rect4981"
     width="434.99997"
     height="434.99997"
     x="38.500011"
     y="38.500011"
     rx="63.200329"
     ry="63.200329" />
  <path
     style="fill:#000000;fill-opacity:1;stroke:none;opacity:0.2"
     d="M 101.6875 38.5 C 66.674518 38.5 38.5 66.674518 38.5 101.6875 L 38.5 116.6875 C 38.5 81.674518 66.674518 53.5 101.6875 53.5 L 410.3125 53.5 C 445.32548 53.5 473.5 81.674518 473.5 116.6875 L 473.5 101.6875 C 473.5 66.674518 445.32548 38.5 410.3125 38.5 L 101.6875 38.5 z "
     id="rect3187" />
  <g
     id="g3052"
     transform="translate(559.12967,254.11558)">
    <path
       style="opacity:0.2;fill:#000000;fill-opacity:1"
       d="m -284.65575,171.57771 c 8.60817,-5.17133 44.69996,-42.4276 57.80594,-59.67105 5.7998,-7.63072 16.85974,-24.45148 24.57766,-37.379454 12.36514,-20.712342 14.77633,-23.568986 20.2917,-24.04048 3.44252,-0.294294 12.26653,-1.091673 19.60893,-1.771979 l 13.3498,-1.236918 c -0.004,-11.634489 -0.009,-23.268977 -0.0128,-34.903466 l -22.95492,-4.69e-4 c -20.42995,-4.06e-4 -24.24818,-0.621632 -34.70343,-5.6461996 -28.057,-13.4835824 -42.74136,-38.7096744 -43.3393,-74.4521684 -0.16832,-10.066864 0.91716,-21.693226 2.43663,-26.095706 7.60528,-22.03554 33.97292,-25.54023 44.14597,-5.86772 5.02508,9.71742 5.995,28.968477 2.3637,46.915209 -2.82225,10.705791 -4.88498,14.491469 2.83537,21.670303 6.66162,6.194331 23.30511,10.723013 32.6657,8.888301 4.88297,-0.957085 6.41696,-2.98506 9.16482,-12.116092 12.4565,-41.392794 7.59576,-80.920931 -12.7154,-103.402941 -25.53512,-28.26432 -80.61156,-27.24392 -107.01602,1.98267 -33.54165,37.1266 -28.85233,109.860894 9.81031,152.163973 6.09926,6.673579 15.28696,14.593603 20.41711,17.600086 5.13015,3.006462 9.32754,6.625797 9.32754,8.04297 0,7.262104 -32.43558,56.008633 -50.95725,76.582241 -11.45142,12.7201 -12.37792,12.16687 -34.70743,-20.724877 -32.19862,-47.429127 -52.62765,-103.71266 -64.13966,-176.709657 l -4.65424,-29.512166 -25.5913,0 -25.5913,0 1.42552,12.28182 c 2.5848,22.269802 13.79294,73.984068 21.66319,99.953884 22.59313,74.551428 58.10206,135.167066 95.08489,162.314956 16.67311,12.23919 25.63805,13.40733 39.40828,5.13493 z"
       id="path3050"
       inkscape:connector-curvature="0"
       sodipodi:nodetypes="sssssccsssssccsssssssssscccssss" />
    <path
       sodipodi:nodetypes="sssssccsssssccsssssssssscccssss"
       inkscape:connector-curvature="0"
       id="path3044"
       d="m -299.65575,156.57771 c 8.60817,-5.17133 44.69996,-42.4276 57.80594,-59.671046 5.7998,-7.630728 16.85974,-24.451484 24.57766,-37.379458 12.36514,-20.712342 14.77633,-23.568986 20.2917,-24.04048 3.44252,-0.294294 12.26653,-1.091673 19.60893,-1.771979 l 13.3498,-1.236918 c -0.004,-11.634489 -0.009,-23.2689771 -0.0128,-34.9034656 l -22.95492,-4.699e-4 c -20.42995,-4.059e-4 -24.24818,-0.6216311 -34.70343,-5.6461991 -28.057,-13.4835824 -42.74136,-38.7096744 -43.3393,-74.4521684 -0.16832,-10.066864 0.91716,-21.693226 2.43663,-26.095706 7.60528,-22.03554 33.97292,-25.54023 44.14597,-5.86772 5.02508,9.71742 5.995,28.968477 2.3637,46.915209 -2.82225,10.705791 -4.88498,14.491469 2.83537,21.670303 6.66162,6.194331 23.30511,10.723013 32.6657,8.888301 4.88297,-0.957085 6.41696,-2.98506 9.16482,-12.116092 12.4565,-41.392794 7.59576,-80.920931 -12.7154,-103.402941 -25.53512,-28.26432 -80.61156,-27.24392 -107.01602,1.98267 -33.54165,37.1266 -28.85233,109.860894 9.81031,152.1639735 6.09926,6.6735788 15.28696,14.5936025 20.41711,17.6000855 5.13015,3.006462 9.32754,6.625797 9.32754,8.04297 0,7.262104 -32.43558,56.008633 -50.95725,76.582241 -11.45142,12.7201 -12.37792,12.16687 -34.70743,-20.724877 -32.19862,-47.429127 -52.62765,-103.71266 -64.13966,-176.709657 l -4.65424,-29.512166 -25.5913,0 -25.5913,0 1.42552,12.28182 c 2.5848,22.269802 13.79294,73.984068 21.66319,99.953884 22.59313,74.551428 58.10206,135.167066 95.08489,162.314956 16.67311,12.23919 25.63805,13.40733 39.40828,5.13493 z"
       style="fill:#dcdbdb;fill-opacity:1" />
  </g>
  <g
     id="g3167">
    <path
       id="rect3068"
       d="M 78.65625 6 C 63.792798 6 49.986224 10.429561 38.5 18.03125 L 38.5 493.96875 C 49.986224 501.57044 63.792798 506 78.65625 506 L 147.5 506 L 147.5 6 L 78.65625 6 z "
       style="opacity:0.05000000000000000;fill:url(#linearGradient3108);fill-opacity:1;stroke:none" />
    <path
       inkscape:connector-curvature="0"
       style="opacity:0.05;fill:url(#linearGradient3137);fill-opacity:1;stroke:none"
       d="m 147.50001,6 0,500 109,0 0,-500 -109,0 z"
       id="path3135" />
    <path
       id="path3139"
       d="m 256.50001,6 0,500 109,0 0,-500 -109,0 z"
       style="opacity:0.05;fill:url(#linearGradient3141);fill-opacity:1;stroke:none"
       inkscape:connector-curvature="0" />
    <path
       id="path3143"
       d="M 365.5 6 L 365.5 506 L 433.34375 506 C 448.1977 506 461.98692 501.56151 473.46875 493.96875 L 473.46875 18.03125 C 461.98692 10.438491 448.1977 6 433.34375 6 L 365.5 6 z "
       style="opacity:0.05000000000000000;fill:url(#linearGradient3145);fill-opacity:1;stroke:none" />
    <path
       id="path3151"
       d="M 38.5 18.03125 C 18.885717 31.012164 6 53.274894 6 78.65625 L 6 433.34375 C 6 458.72511 18.885717 480.98784 38.5 493.96875 L 38.5 18.03125 z "
       style="opacity:0.05000000000000000;fill:url(#linearGradient3153);fill-opacity:1;stroke:none" />
    <path
       id="path3147"
       d="M 473.46875 18.03125 L 473.46875 493.96875 C 493.09542 480.98993 506 458.73461 506 433.34375 L 506 78.65625 C 506 53.265388 493.09542 31.010071 473.46875 18.03125 z "
       style="opacity:0.05000000000000000;fill:url(#linearGradient3149);fill-opacity:1;stroke:none" />
  </g>
</svg>
