<?xml version="1.0" encoding="UTF-8" standalone="no"?>
<!-- Created with Inkscape (http://www.inkscape.org/) -->

<svg
   xmlns:dc="http://purl.org/dc/elements/1.1/"
   xmlns:cc="http://creativecommons.org/ns#"
   xmlns:rdf="http://www.w3.org/1999/02/22-rdf-syntax-ns#"
   xmlns:svg="http://www.w3.org/2000/svg"
   xmlns="http://www.w3.org/2000/svg"
   xmlns:xlink="http://www.w3.org/1999/xlink"
   xmlns:inkscape="http://www.inkscape.org/namespaces/inkscape"
   version="1.1"
   width="100%"
   height="100%"
   viewBox="0 0 512 512"
   id="svg2">
  <metadata
     id="metadata59">
    <rdf:RDF>
      <cc:Work
         rdf:about="">
        <dc:format>image/svg+xml</dc:format>
        <dc:type
           rdf:resource="http://purl.org/dc/dcmitype/StillImage" />
      </cc:Work>
    </rdf:RDF>
  </metadata>
  <defs
     id="defs4">
    <filter
       color-interpolation-filters="sRGB"
       id="7">
      <feGaussianBlur
         id="feGaussianBlur7"
         stdDeviation="3.7725" />
    </filter>
    <linearGradient
       y1="19.563999"
       x2="0"
       y2="504.01999"
       id="8"
       gradientUnits="userSpaceOnUse">
      <stop
         id="stop10"
         style="stop-color:#f3f3f3;stop-opacity:1"
         offset="0" />
      <stop
         id="stop12"
         style="stop-color:#eeeeee;stop-opacity:1"
         offset="0.5" />
      <stop
         id="stop14"
         style="stop-color:#ebebeb;stop-opacity:1"
         offset="1" />
    </linearGradient>
    <linearGradient
       x1="257"
       x2="362"
       id="5"
       xlink:href="#0"
       gradientUnits="userSpaceOnUse"
       gradientTransform="matrix(1.02835,0,0,1.46193,209.19,-118.25)" />
    <linearGradient
       x1="257"
       x2="362"
       id="6"
       xlink:href="#0"
       gradientUnits="userSpaceOnUse"
       gradientTransform="matrix(1.0381,0,0,1.46193,-337.29,-118.25)" />
    <linearGradient
       x1="257"
       x2="362"
       id="4"
       xlink:href="#0"
       gradientUnits="userSpaceOnUse"
       gradientTransform="matrix(1.02835,0,0,1.46193,101.22,-118.25)" />
    <linearGradient
       x1="257"
       x2="362"
       id="3"
       xlink:href="#0"
       gradientUnits="userSpaceOnUse"
       gradientTransform="matrix(1.0381,0,0,1.46193,-10.289,-118.25)" />
    <linearGradient
       id="0">
      <stop
         id="stop21"
         style="stop-color:#000000;stop-opacity:1"
         offset="0" />
      <stop
         id="stop23"
         style="stop-color:#ffffff;stop-opacity:1"
         offset="1" />
    </linearGradient>
    <linearGradient
       x1="257"
       x2="362"
       id="2"
       xlink:href="#0"
       gradientUnits="userSpaceOnUse"
       gradientTransform="matrix(1.0381,0,0,1.46193,-119.29,-118.25)" />
    <linearGradient
       x1="257"
       x2="362"
       id="1"
       xlink:href="#0"
       gradientUnits="userSpaceOnUse"
       gradientTransform="matrix(1.0381,0,0,1.46193,-228.29,-118.25)" />
  </defs>
  <path
     d="m 78.66,6 c -0.929,0 -1.861,0.028 -2.781,0.063 -0.073,0.003 -0.146,-0.003 -0.219,0 -0.668,0.027 -1.337,0.08 -2,0.125 -0.376,0.025 -0.751,0.063 -1.125,0.094 -0.645,0.053 -1.297,0.086 -1.938,0.156 -0.965,0.106 -1.922,0.232 -2.875,0.375 -0.052,0.008 -0.104,0.023 -0.156,0.031 -1.082,0.165 -2.154,0.351 -3.219,0.563 -0.459,0.091 -0.919,0.182 -1.375,0.281 -0.39,0.085 -0.769,0.19 -1.156,0.281 -0.647,0.152 -1.297,0.299 -1.938,0.469 -0.898,0.238 -1.804,0.479 -2.688,0.75 -0.211,0.065 -0.414,0.152 -0.625,0.219 -0.991,0.314 -1.966,0.645 -2.938,1 -0.817,0.298 -1.635,0.611 -2.438,0.938 -0.29,0.118 -0.587,0.222 -0.875,0.344 -0.136,0.057 -0.27,0.129 -0.406,0.188 -0.082,0.035 -0.169,0.058 -0.25,0.094 -0.717,0.311 -1.42,0.636 -2.125,0.969 -0.147,0.069 -0.291,0.148 -0.438,0.219 -0.947,0.455 -1.889,0.943 -2.813,1.438 -0.271,0.145 -0.544,0.289 -0.813,0.438 -0.414,0.228 -0.81,0.483 -1.219,0.719 -0.52,0.3 -1.051,0.594 -1.563,0.906 -0.738,0.452 -1.467,0.898 -2.188,1.375 -0.031,0.021 -0.062,0.042 -0.094,0.063 -0.456,0.303 -0.895,0.625 -1.344,0.938 -0.123,0.086 -0.252,0.163 -0.375,0.25 -0.524,0.37 -1.049,0.742 -1.563,1.125 -1.835,1.371 -3.618,2.84 -5.313,4.375 -0.017,0.015 -0.046,0.016 -0.063,0.031 -0.526,0.477 -1.02,0.977 -1.531,1.469 -0.524,0.505 -1.054,1.011 -1.563,1.531 -0.512,0.523 -1,1.055 -1.5,1.594 -0.941,1.022 -1.837,2.05 -2.719,3.125 -0.631,0.769 -1.244,1.58 -1.844,2.375 -0.111,0.148 -0.233,0.289 -0.344,0.438 -0.526,0.71 -1.031,1.427 -1.531,2.156 -0.11,0.16 -0.235,0.308 -0.344,0.469 -0.013,0.019 -0.018,0.043 -0.031,0.063 -0.084,0.125 -0.167,0.249 -0.25,0.375 -0.47,0.708 -0.929,1.431 -1.375,2.156 -0.071,0.116 -0.148,0.227 -0.219,0.344 -0.575,0.948 -1.124,1.899 -1.656,2.875 -0.152,0.278 -0.289,0.564 -0.438,0.844 -0.18,0.341 -0.356,0.687 -0.531,1.031 -0.243,0.479 -0.486,0.952 -0.719,1.438 -0.426,0.885 -0.828,1.783 -1.219,2.688 -0.24,0.556 -0.461,1.124 -0.688,1.688 -0.038,0.095 -0.087,0.186 -0.125,0.281 -0.246,0.621 -0.489,1.245 -0.719,1.875 -0.332,0.909 -0.641,1.825 -0.938,2.75 -0.11,0.345 -0.238,0.684 -0.344,1.031 -0.301,0.99 -0.585,1.992 -0.844,3 -0.008,0.032 -0.023,0.062 -0.031,0.094 -0.267,1.046 -0.497,2.092 -0.719,3.156 -0.034,0.166 -0.06,0.334 -0.094,0.5 -0.426,2.117 -0.762,4.257 -1,6.438 -0.035,0.323 -0.063,0.645 -0.094,0.969 -0.09,0.938 -0.165,1.895 -0.219,2.844 -0.017,0.29 -0.018,0.584 -0.031,0.875 -0.051,1.119 -0.094,2.243 -0.094,3.375 v 354.69 6 c 0,40.24 32.411,72.66 72.66,72.66 h 354.69 c 40.24,0 72.66,-32.411 72.66,-72.66 v -354.69 -6 c 0,-1.259 -0.031,-2.507 -0.094,-3.75 -0.016,-0.323 -0.042,-0.647 -0.063,-0.969 -0.058,-0.917 -0.127,-1.843 -0.219,-2.75 -0.02,-0.2 -0.041,-0.394 -0.063,-0.594 -0.246,-2.245 -0.587,-4.447 -1.031,-6.625 -0.021,-0.104 -0.041,-0.209 -0.063,-0.313 -0.227,-1.087 -0.476,-2.15 -0.75,-3.219 -0.011,-0.042 -0.02,-0.083 -0.031,-0.125 -0.19,-0.732 -0.413,-1.464 -0.625,-2.188 -0.212,-0.724 -0.423,-1.442 -0.656,-2.156 -0.258,-0.789 -0.529,-1.567 -0.813,-2.344 -0.23,-0.63 -0.472,-1.254 -0.719,-1.875 -0.038,-0.096 -0.087,-0.186 -0.125,-0.281 -0.239,-0.594 -0.465,-1.195 -0.719,-1.781 -0.378,-0.871 -0.777,-1.741 -1.188,-2.594 -0.233,-0.485 -0.475,-0.958 -0.719,-1.438 -0.287,-0.564 -0.574,-1.132 -0.875,-1.688 -0.051,-0.094 -0.105,-0.188 -0.156,-0.281 -0.513,-0.936 -1.041,-1.871 -1.594,-2.781 -0.212,-0.35 -0.438,-0.685 -0.656,-1.031 -0.405,-0.642 -0.795,-1.278 -1.219,-1.906 -0.809,-1.199 -1.685,-2.354 -2.563,-3.5 -0.262,-0.341 -0.514,-0.695 -0.781,-1.031 -0.189,-0.238 -0.371,-0.483 -0.563,-0.719 -0.093,-0.114 -0.188,-0.231 -0.281,-0.344 -2.71,-3.286 -5.696,-6.301 -8.938,-9.06 -0.293,-0.249 -0.578,-0.505 -0.875,-0.75 -0.268,-0.221 -0.541,-0.439 -0.813,-0.656 -0.636,-0.509 -1.284,-1.012 -1.938,-1.5 -3.17,-2.368 -6.55,-4.481 -10.09,-6.313 -0.617,-0.319 -1.248,-0.636 -1.875,-0.938 -0.155,-0.074 -0.313,-0.145 -0.469,-0.219 -0.785,-0.371 -1.575,-0.719 -2.375,-1.063 -0.488,-0.209 -0.975,-0.426 -1.469,-0.625 -0.735,-0.296 -1.472,-0.571 -2.219,-0.844 -0.392,-0.143 -0.793,-0.27 -1.188,-0.406 -0.718,-0.248 -1.459,-0.524 -2.188,-0.75 -0.114,-0.035 -0.23,-0.059 -0.344,-0.094 -0.488,-0.149 -0.977,-0.267 -1.469,-0.406 -0.357,-0.1 -0.703,-0.217 -1.063,-0.313 -0.019,-0.005 -0.043,0.005 -0.063,0 -0.837,-0.221 -1.683,-0.433 -2.531,-0.625 -0.032,-0.007 -0.062,-0.024 -0.094,-0.031 -0.651,-0.146 -1.311,-0.278 -1.969,-0.406 -1,-0.197 -2.01,-0.376 -3.03,-0.531 -0.063,-0.01 -0.125,-0.022 -0.188,-0.031 -0.952,-0.143 -1.88,-0.269 -2.844,-0.375 -0.836,-0.091 -1.687,-0.156 -2.531,-0.219 -0.176,-0.013 -0.355,-0.019 -0.531,-0.031 -0.735,-0.049 -1.478,-0.097 -2.219,-0.125 -0.92,-0.034 -1.853,-0.063 -2.781,-0.063 H 147.503 78.659"
     inkscape:connector-curvature="0"
     id="path27"
     style="fill-opacity:0.17600002;filter:url(#7)" />
  <rect
     width="500"
     height="500"
     rx="72.639999"
     x="6"
     y="12"
     id="rect29"
     style="opacity:0.15" />
  <rect
     width="500"
     height="500"
     rx="72.639999"
     x="6"
     y="6"
     id="rect31"
     style="fill:url(#8)" />
  <rect
     width="435"
     height="435"
     rx="63.200001"
     x="38.5"
     y="38.5"
     id="rect33"
     style="fill:#7fca9f" />
  <path
     d="M 101.69,38.5 C 66.68,38.5 38.5,66.67 38.5,101.69 v 15 C 38.5,81.68 66.67,53.5 101.69,53.5 h 308.63 c 35.01,0 63.19,28.17 63.19,63.19 v -15 C 473.51,66.68 445.34,38.5 410.32,38.5 H 101.7"
     inkscape:connector-curvature="0"
     id="path35"
     style="opacity:0.2" />
  <path
     d="M 78.66,6 C 38.42,6 6,38.411 6,78.66 v 7 C 6,45.42 38.411,13 78.66,13 h 354.69 c 40.24,0 72.66,32.411 72.66,72.66 v -7 C 506.01,38.42 473.599,6 433.35,6 H 78.66"
     inkscape:connector-curvature="0"
     id="path37"
     style="fill:#ffffff" />
  <g
     transform="translate(559.13,254.12)"
     id="g39">
    <path
       d="m -284.66,171.58 c 8.608,-5.171 44.7,-42.43 57.806,-59.671 5.8,-7.631 16.86,-24.451 24.578,-37.38 12.365,-20.712 14.776,-23.569 20.292,-24.04 3.443,-0.294 12.267,-1.092 19.609,-1.772 l 13.35,-1.237 c -0.004,-11.634 -0.009,-23.269 -0.013,-34.903 h -22.955 c -20.43,0 -24.25,-0.622 -34.703,-5.646 -28.06,-13.484 -42.741,-38.71 -43.34,-74.45 -0.168,-10.07 0.917,-21.693 2.437,-26.1 7.605,-22.04 33.973,-25.54 44.15,-5.868 5.03,9.717 5.995,28.968 2.364,46.915 -2.822,10.706 -4.885,14.491 2.835,21.67 6.662,6.194 23.305,10.723 32.666,8.888 4.883,-0.957 6.417,-2.985 9.165,-12.12 12.457,-41.39 7.596,-80.921 -12.715,-103.4 -25.535,-28.26 -80.61,-27.24 -107.02,1.983 -33.542,37.13 -28.852,109.86 9.81,152.16 6.099,6.674 15.287,14.594 20.417,17.6 5.13,3.01 9.328,6.626 9.328,8.04 0,7.262 -32.436,56.01 -50.957,76.58 -11.451,12.72 -12.378,12.167 -34.707,-20.725 -32.2,-47.43 -52.628,-103.71 -64.14,-176.71 l -4.654,-29.512 h -25.591 -25.591 l 1.426,12.282 c 2.585,22.27 13.793,73.984 21.663,99.95 22.593,74.55 58.1,135.17 95.08,162.31 16.673,12.239 25.638,13.407 39.41,5.135"
       inkscape:connector-curvature="0"
       id="path41"
       style="opacity:0.2" />
    <path
       d="m -299.66,156.58 c 8.608,-5.171 44.7,-42.43 57.806,-59.671 5.8,-7.631 16.86,-24.451 24.578,-37.38 12.365,-20.712 14.776,-23.569 20.292,-24.04 3.443,-0.294 12.267,-1.092 19.609,-1.772 l 13.35,-1.237 c -0.004,-11.634 -0.009,-23.269 -0.013,-34.903 h -22.955 c -20.43,0 -24.25,-0.622 -34.703,-5.646 -28.06,-13.484 -42.741,-38.71 -43.34,-74.45 -0.168,-10.07 0.917,-21.693 2.437,-26.1 7.605,-22.04 33.973,-25.54 44.15,-5.868 5.03,9.717 5.995,28.968 2.364,46.915 -2.822,10.706 -4.885,14.491 2.835,21.67 6.662,6.194 23.305,10.723 32.666,8.888 4.883,-0.957 6.417,-2.985 9.165,-12.12 12.457,-41.39 7.596,-80.921 -12.715,-103.4 -25.535,-28.26 -80.61,-27.24 -107.02,1.983 -33.542,37.13 -28.852,109.86 9.81,152.16 6.099,6.674 15.287,14.594 20.417,17.6 5.13,3.01 9.328,6.626 9.328,8.04 0,7.262 -32.436,56.01 -50.957,76.58 -11.451,12.72 -12.378,12.167 -34.707,-20.725 -32.2,-47.43 -52.628,-103.71 -64.14,-176.71 l -4.654,-29.512 h -25.591 -25.591 l 1.426,12.282 c 2.585,22.27 13.793,73.984 21.663,99.95 22.593,74.55 58.1,135.17 95.08,162.31 16.673,12.239 25.638,13.407 39.41,5.135"
       inkscape:connector-curvature="0"
       id="path43"
       style="fill:#dcdbdb" />
  </g>
  <path
     d="M 78.66,6 C 63.797,6 49.99,10.43 38.5,18.03 V 493.97 C 49.986,501.572 63.793,506 78.66,506 h 68.844 V 6 H 78.66"
     inkscape:connector-curvature="0"
     id="path45"
     style="opacity:0.05;fill:url(#1)" />
  <path
     d="m 147.5,6 v 500 h 109 V 6 h -109"
     inkscape:connector-curvature="0"
     id="path47"
     style="opacity:0.05;fill:url(#2)" />
  <path
     d="m 256.5,6 v 500 h 109 V 6 h -109"
     inkscape:connector-curvature="0"
     id="path49"
     style="opacity:0.05;fill:url(#3)" />
  <path
     d="m 365.5,6 v 500 h 67.844 c 14.854,0 28.643,-4.438 40.13,-12.03 V 18.03 C 461.992,10.437 448.204,6 433.354,6 H 365.51"
     inkscape:connector-curvature="0"
     id="path51"
     style="opacity:0.05;fill:url(#4)" />
  <path
     d="M 38.5,18.03 C 18.886,31.011 6,53.27 6,78.66 v 354.69 c 0,25.381 12.886,47.644 32.5,60.63 V 18.04"
     inkscape:connector-curvature="0"
     id="path53"
     style="opacity:0.05;fill:url(#6)" />
  <path
     d="m 473.47,18.03 v 475.94 c 19.627,-12.979 32.531,-35.23 32.531,-60.62 V 78.66 c 0,-25.391 -12.905,-47.646 -32.531,-60.62"
     inkscape:connector-curvature="0"
     id="path55"
     style="opacity:0.05;fill:url(#5)" />
</svg>
