<?xml version="1.0" encoding="UTF-8" standalone="no"?>
<svg
   xmlns:dc="http://purl.org/dc/elements/1.1/"
   xmlns:cc="http://creativecommons.org/ns#"
   xmlns:rdf="http://www.w3.org/1999/02/22-rdf-syntax-ns#"
   xmlns:svg="http://www.w3.org/2000/svg"
   xmlns="http://www.w3.org/2000/svg"
   xmlns:xlink="http://www.w3.org/1999/xlink"
   xmlns:sodipodi="http://sodipodi.sourceforge.net/DTD/sodipodi-0.dtd"
   xmlns:inkscape="http://www.inkscape.org/namespaces/inkscape"
   viewBox="0 0 512 512"
   id="svg2"
   version="1.1"
   inkscape:version="0.48.4 r9939"
   width="100%"
   height="100%"
   sodipodi:docname="base.svg">
  <sodipodi:namedview
     pagecolor="#444444"
     bordercolor="#666666"
     borderopacity="1"
     objecttolerance="10"
     gridtolerance="10"
     guidetolerance="10"
     inkscape:pageopacity="0"
     inkscape:pageshadow="2"
     inkscape:window-width="1310"
     inkscape:window-height="718"
     id="namedview6"
     showgrid="false"
     showguides="true"
     inkscape:guide-bbox="true"
     inkscape:zoom="0.5181105"
     inkscape:cx="398.50333"
     inkscape:cy="591.31447"
     inkscape:window-x="54"
     inkscape:window-y="27"
     inkscape:window-maximized="1"
     inkscape:current-layer="svg2"
     inkscape:snap-midpoints="true"
     inkscape:snap-global="false">
    <sodipodi:guide
       id="guide2989"
       position="522.57628,433.35594"
       orientation="0,1" />
    <sodipodi:guide
       id="guide2995"
       position="473.05444,254.912"
       orientation="1,0" />
  </sodipodi:namedview>
  <metadata
     id="metadata10">
    <rdf:RDF>
      <cc:Work
         rdf:about="">
        <dc:format>image/svg+xml</dc:format>
        <dc:type
           rdf:resource="http://purl.org/dc/dcmitype/StillImage" />
        <dc:title></dc:title>
      </cc:Work>
    </rdf:RDF>
  </metadata>
  <defs
     id="defs8">
    <linearGradient
       id="linearGradient4996">
      <stop
         style="stop-color:#000000;stop-opacity:1;"
         offset="0"
         id="stop4998" />
      <stop
         style="stop-color:#ffffff;stop-opacity:1;"
         offset="1"
         id="stop5000" />
    </linearGradient>
    <linearGradient
       inkscape:collect="always"
       xlink:href="#linearGradient4996"
       id="linearGradient3108"
       gradientUnits="userSpaceOnUse"
       gradientTransform="matrix(1.0380952,0,0,1.4619252,-228.28943,-118.25286)"
       x1="257"
       y1="256"
       x2="362"
       y2="256" />
    <linearGradient
       inkscape:collect="always"
       xlink:href="#linearGradient4996"
       id="linearGradient3137"
       gradientUnits="userSpaceOnUse"
       gradientTransform="matrix(1.0380952,0,0,1.4619252,-119.28943,-118.25286)"
       x1="257"
       y1="256"
       x2="362"
       y2="256" />
    <linearGradient
       inkscape:collect="always"
       xlink:href="#linearGradient4996"
       id="linearGradient3141"
       gradientUnits="userSpaceOnUse"
       gradientTransform="matrix(1.0380952,0,0,1.4619252,-10.28943,-118.25286)"
       x1="257"
       y1="256"
       x2="362"
       y2="256" />
    <linearGradient
       inkscape:collect="always"
       xlink:href="#linearGradient4996"
       id="linearGradient3145"
       gradientUnits="userSpaceOnUse"
       gradientTransform="matrix(1.0283468,0,0,1.4619252,101.21591,-118.25286)"
       x1="257"
       y1="256"
       x2="362"
       y2="256" />
    <linearGradient
       inkscape:collect="always"
       xlink:href="#linearGradient4996"
       id="linearGradient3149"
       gradientUnits="userSpaceOnUse"
       gradientTransform="matrix(1.0283468,0,0,1.4619252,209.19233,-118.25286)"
       x1="257"
       y1="256"
       x2="362"
       y2="256" />
    <linearGradient
       inkscape:collect="always"
       xlink:href="#linearGradient4996"
       id="linearGradient3153"
       gradientUnits="userSpaceOnUse"
       gradientTransform="matrix(1.0380952,0,0,1.4619252,-337.28943,-118.25286)"
       x1="257"
       y1="256"
       x2="362"
       y2="256" />
  </defs>
  <rect
     style="opacity:0.2;fill:#000000;fill-opacity:1;stroke:none"
     id="rect5028"
     width="500"
     height="500"
     x="6"
     y="12"
     rx="72.644058"
     ry="72.644058" />
  <rect
     ry="72.644058"
     rx="72.644058"
     y="6"
     x="6"
     height="500"
     width="500"
     id="rect4979"
     style="fill:#f3f3f3;fill-opacity:1;stroke:none" />
  <rect
     style="fill:#6e6568;fill-opacity:1;stroke:none"
     id="rect4981"
     width="434.99997"
     height="434.99997"
     x="38.500011"
     y="38.500011"
     rx="63.200329"
     ry="63.200329" />
  <path
     style="fill:#000000;fill-opacity:1;stroke:none;opacity:0.2"
     d="M 101.6875 38.5 C 66.674518 38.5 38.5 66.674518 38.5 101.6875 L 38.5 116.6875 C 38.5 81.674518 66.674518 53.5 101.6875 53.5 L 410.3125 53.5 C 445.32548 53.5 473.5 81.674518 473.5 116.6875 L 473.5 101.6875 C 473.5 66.674518 445.32548 38.5 410.3125 38.5 L 101.6875 38.5 z "
     id="rect3187" />
  <g
     id="g3074"
     transform="translate(687.79519,412.24449)">
    <path
       style="opacity:0.2;fill:#000000;fill-opacity:1"
       d="m -486.26688,-35.83051 c -1.37952,-3.920876 -6.7601,-16.905597 -11.95687,-28.854934 -5.19677,-11.949338 -23.81815,-55.333586 -41.38088,-96.409426 -17.56272,-41.07585 -34.05461,-78.51499 -36.64866,-83.19808 -3.50371,-6.32536 -6.00462,-9.11921 -9.72638,-10.86564 -4.41043,-2.0696 -5.05814,-3.00502 -5.41273,-7.81696 l -0.40277,-5.46603 40.86137,0.0371 40.86137,0.0371 -0.40116,4.67285 c -0.33576,3.91117 -1.37353,5.23996 -6.36656,8.15193 -3.28098,1.9135 -6.58585,4.46272 -7.34419,5.66491 -1.0425,1.65271 0.83692,7.77859 7.70555,25.11611 11.82305,29.84322 59.65493,141.744717 60.58824,141.744717 0.90089,0 28.52538,-55.207547 28.52538,-57.007947 0,-1.87796 -31.24309,-77.04615 -38.71448,-93.14372 -3.43557,-7.40214 -7.56054,-14.85717 -9.1666,-16.56676 -1.60606,-1.70957 -7.07151,-4.36926 -12.14544,-5.91041 -8.38447,-2.5467 -9.22342,-3.13041 -9.20453,-6.40402 0.0109,-1.98105 0.46971,-4.21295 1.01841,-4.95979 0.6314,-0.8594 18.07044,-1.35787 47.50506,-1.35787 l 46.50746,0 -9e-5,4.94676 c -10e-5,5.43547 -1.51855,6.59521 -8.63522,6.59521 -2.38666,0 -5.75836,0.99389 -7.49265,2.20863 -2.51678,1.76283 -2.98995,3.02525 -2.34414,6.25428 1.38634,6.93173 21.53225,55.5635 22.54036,54.41198 1.40386,-1.60356 19.55382,-40.74362 22.3966,-48.29788 2.28836,-6.08092 2.29664,-6.62277 0.13783,-9.00824 -1.26334,-1.39597 -5.16886,-3.31484 -8.67894,-4.26416 -3.51008,-0.94931 -7.14576,-2.31707 -8.0793,-3.03946 -2.08316,-1.61198 -2.24486,-8.62953 -0.22757,-9.87628 0.80838,-0.49961 16.39004,-0.46081 34.62592,0.0862 l 33.15614,0.99461 -0.0208,3.5678 c -0.0304,5.22455 -1.02083,6.01 -11.92689,9.45901 -15.46975,4.89227 -17.00299,6.81114 -36.48612,45.66342 l -17.19839,34.29613 18.12465,42.3079 c 9.96854,23.26935 18.57795,41.83777 19.13199,41.26314 0.55405,-0.57463 5.88833,-13.87673 11.85396,-29.56024 5.96562,-15.6835 17.83747,-46.23578 26.38187,-67.89396 17.7841,-45.07878 21.74672,-56.44216 21.13051,-60.59491 -0.3336,-2.2482 -2.06279,-3.4248 -7.22791,-4.91811 -3.73416,-1.07959 -7.5532,-2.59007 -8.48674,-3.35659 -1.8504,-1.51936 -2.25403,-7.64993 -0.65815,-9.99623 0.65929,-0.96931 9.61114,-1.42981 26.39581,-1.35788 24.924,0.10686 25.41206,0.16412 26.14139,3.06984 0.93855,3.73931 -1.34756,9.93886 -3.665,9.93886 -0.96537,0 -3.95221,1.49289 -6.63743,3.31754 -5.42818,3.68855 -4.31211,1.30615 -25.48066,54.39233 -7.44516,18.67084 -20.20974,50.13969 -28.36575,69.93078 -8.15602,19.79109 -20.26535,50.18635 -26.90965,67.545017 l -12.08052,31.561215 -8.86353,0.0095 -8.86351,0.0095 -3.61909,-8.486745 c -29.03567,-68.088717 -35.48706,-82.491227 -36.95069,-82.491227 -0.69089,0 -19.93087,36.810023 -35.3096,67.5545 l -11.71667,23.423418 -9.14271,0 -9.14271,0 -2.50822,-7.128866 z"
       id="path3072"
       inkscape:connector-curvature="0" />
    <path
       inkscape:connector-curvature="0"
       id="path3070"
       d="m -501.26688,-50.83051 c -1.37952,-3.920876 -6.7601,-16.905597 -11.95687,-28.854934 -5.19677,-11.949338 -23.81815,-55.333586 -41.38088,-96.409426 -17.56272,-41.07585 -34.05461,-78.51499 -36.64866,-83.19808 -3.50371,-6.32536 -6.00462,-9.11921 -9.72638,-10.86564 -4.41043,-2.0696 -5.05814,-3.00502 -5.41273,-7.81696 l -0.40277,-5.46603 40.86137,0.0371 40.86137,0.0371 -0.40116,4.67285 c -0.33576,3.91117 -1.37353,5.23996 -6.36656,8.15193 -3.28098,1.9135 -6.58585,4.46272 -7.34419,5.66491 -1.0425,1.65271 0.83692,7.77859 7.70555,25.11611 11.82305,29.84322 59.65493,141.744717 60.58824,141.744717 0.90089,0 28.52538,-55.207547 28.52538,-57.007947 0,-1.87796 -31.24309,-77.04615 -38.71448,-93.14372 -3.43557,-7.40214 -7.56054,-14.85717 -9.1666,-16.56676 -1.60606,-1.70957 -7.07151,-4.36926 -12.14544,-5.91041 -8.38447,-2.5467 -9.22342,-3.13041 -9.20453,-6.40402 0.0109,-1.98105 0.46971,-4.21295 1.01841,-4.95979 0.6314,-0.8594 18.07044,-1.35787 47.50506,-1.35787 l 46.50746,0 -9e-5,4.94676 c -10e-5,5.43547 -1.51855,6.59521 -8.63522,6.59521 -2.38666,0 -5.75836,0.99389 -7.49265,2.20863 -2.51678,1.76283 -2.98995,3.02525 -2.34414,6.25428 1.38634,6.93173 21.53225,55.5635 22.54036,54.41198 1.40386,-1.60356 19.55382,-40.74362 22.3966,-48.29788 2.28836,-6.08092 2.29664,-6.62277 0.13783,-9.00824 -1.26334,-1.39597 -5.16886,-3.31484 -8.67894,-4.26416 -3.51008,-0.94931 -7.14576,-2.31707 -8.0793,-3.03946 -2.08316,-1.61198 -2.24486,-8.62953 -0.22757,-9.87628 0.80838,-0.49961 16.39004,-0.46081 34.62592,0.0862 l 33.15614,0.99461 -0.0208,3.5678 c -0.0304,5.22455 -1.02083,6.01 -11.92689,9.45901 -15.46975,4.89227 -17.00299,6.81114 -36.48612,45.66342 l -17.19839,34.29613 18.12465,42.3079 c 9.96854,23.26935 18.57795,41.83777 19.13199,41.26314 0.55405,-0.57463 5.88833,-13.87673 11.85396,-29.56024 5.96562,-15.6835 17.83747,-46.23578 26.38187,-67.89396 17.7841,-45.07878 21.74672,-56.44216 21.13051,-60.59491 -0.3336,-2.2482 -2.06279,-3.4248 -7.22791,-4.91811 -3.73416,-1.07959 -7.5532,-2.59007 -8.48674,-3.35659 -1.8504,-1.51936 -2.25403,-7.64993 -0.65815,-9.99623 0.65929,-0.96931 9.61114,-1.42981 26.39581,-1.35788 24.924,0.10686 25.41206,0.16412 26.14139,3.06984 0.93855,3.73931 -1.34756,9.93886 -3.665,9.93886 -0.96537,0 -3.95221,1.49289 -6.63743,3.31754 -5.42818,3.68855 -4.31211,1.30615 -25.48066,54.39233 -7.44516,18.67084 -20.20974,50.13969 -28.36575,69.93078 -8.15602,19.79109 -20.26535,50.18635 -26.90965,67.545017 l -12.08052,31.561215 -8.86353,0.0095 -8.86351,0.0095 -3.61909,-8.486745 c -29.03567,-68.088717 -35.48706,-82.491227 -36.95069,-82.491227 -0.69089,0 -19.93087,36.810023 -35.3096,67.5545 l -11.71667,23.423418 -9.14271,0 -9.14271,0 -2.50822,-7.128866 z"
       style="fill:#dcdbdb;fill-opacity:1" />
  </g>
  <g
     id="g3167">
    <path
       id="rect3068"
       d="M 78.65625 6 C 63.792798 6 49.986224 10.429561 38.5 18.03125 L 38.5 493.96875 C 49.986224 501.57044 63.792798 506 78.65625 506 L 147.5 506 L 147.5 6 L 78.65625 6 z "
       style="opacity:0.05000000000000000;fill:url(#linearGradient3108);fill-opacity:1;stroke:none" />
    <path
       inkscape:connector-curvature="0"
       style="opacity:0.05;fill:url(#linearGradient3137);fill-opacity:1;stroke:none"
       d="m 147.50001,6 0,500 109,0 0,-500 -109,0 z"
       id="path3135" />
    <path
       id="path3139"
       d="m 256.50001,6 0,500 109,0 0,-500 -109,0 z"
       style="opacity:0.05;fill:url(#linearGradient3141);fill-opacity:1;stroke:none"
       inkscape:connector-curvature="0" />
    <path
       id="path3143"
       d="M 365.5 6 L 365.5 506 L 433.34375 506 C 448.1977 506 461.98692 501.56151 473.46875 493.96875 L 473.46875 18.03125 C 461.98692 10.438491 448.1977 6 433.34375 6 L 365.5 6 z "
       style="opacity:0.05000000000000000;fill:url(#linearGradient3145);fill-opacity:1;stroke:none" />
    <path
       id="path3151"
       d="M 38.5 18.03125 C 18.885717 31.012164 6 53.274894 6 78.65625 L 6 433.34375 C 6 458.72511 18.885717 480.98784 38.5 493.96875 L 38.5 18.03125 z "
       style="opacity:0.05000000000000000;fill:url(#linearGradient3153);fill-opacity:1;stroke:none" />
    <path
       id="path3147"
       d="M 473.46875 18.03125 L 473.46875 493.96875 C 493.09542 480.98993 506 458.73461 506 433.34375 L 506 78.65625 C 506 53.265388 493.09542 31.010071 473.46875 18.03125 z "
       style="opacity:0.05000000000000000;fill:url(#linearGradient3149);fill-opacity:1;stroke:none" />
  </g>
</svg>
