<?xml version="1.0" encoding="UTF-8" standalone="no"?>
<svg
   xmlns:dc="http://purl.org/dc/elements/1.1/"
   xmlns:cc="http://creativecommons.org/ns#"
   xmlns:rdf="http://www.w3.org/1999/02/22-rdf-syntax-ns#"
   xmlns:svg="http://www.w3.org/2000/svg"
   xmlns="http://www.w3.org/2000/svg"
   xmlns:xlink="http://www.w3.org/1999/xlink"
   xmlns:sodipodi="http://sodipodi.sourceforge.net/DTD/sodipodi-0.dtd"
   xmlns:inkscape="http://www.inkscape.org/namespaces/inkscape"
   viewBox="0 0 512 512"
   id="svg2"
   version="1.1"
   inkscape:version="0.48.4 r9939"
   width="100%"
   height="100%"
   sodipodi:docname="windows-old.svg">
  <sodipodi:namedview
     pagecolor="#444444"
     bordercolor="#666666"
     borderopacity="1"
     objecttolerance="10"
     gridtolerance="10"
     guidetolerance="10"
     inkscape:pageopacity="0"
     inkscape:pageshadow="2"
     inkscape:window-width="1310"
     inkscape:window-height="718"
     id="namedview6"
     showgrid="false"
     showguides="true"
     inkscape:guide-bbox="true"
     inkscape:zoom="0.25905525"
     inkscape:cx="86.481807"
     inkscape:cy="356.64919"
     inkscape:window-x="54"
     inkscape:window-y="27"
     inkscape:window-maximized="1"
     inkscape:current-layer="svg2"
     inkscape:snap-midpoints="true"
     inkscape:snap-global="false">
    <sodipodi:guide
       id="guide2989"
       position="522.57628,433.35594"
       orientation="0,1" />
    <sodipodi:guide
       id="guide2995"
       position="473.05444,254.912"
       orientation="1,0" />
    <sodipodi:guide
       orientation="0,1"
       position="-73.698114,616.88051"
       id="guide3052" />
  </sodipodi:namedview>
  <metadata
     id="metadata10">
    <rdf:RDF>
      <cc:Work
         rdf:about="">
        <dc:format>image/svg+xml</dc:format>
        <dc:type
           rdf:resource="http://purl.org/dc/dcmitype/StillImage" />
        <dc:title></dc:title>
      </cc:Work>
    </rdf:RDF>
  </metadata>
  <defs
     id="defs8">
    <linearGradient
       id="linearGradient4996">
      <stop
         style="stop-color:#000000;stop-opacity:1;"
         offset="0"
         id="stop4998" />
      <stop
         style="stop-color:#ffffff;stop-opacity:1;"
         offset="1"
         id="stop5000" />
    </linearGradient>
    <linearGradient
       inkscape:collect="always"
       xlink:href="#linearGradient4996"
       id="linearGradient3108"
       gradientUnits="userSpaceOnUse"
       gradientTransform="matrix(1.0380952,0,0,1.4619252,-228.28943,-118.25286)"
       x1="257"
       y1="256"
       x2="362"
       y2="256" />
    <linearGradient
       inkscape:collect="always"
       xlink:href="#linearGradient4996"
       id="linearGradient3137"
       gradientUnits="userSpaceOnUse"
       gradientTransform="matrix(1.0380952,0,0,1.4619252,-119.28943,-118.25286)"
       x1="257"
       y1="256"
       x2="362"
       y2="256" />
    <linearGradient
       inkscape:collect="always"
       xlink:href="#linearGradient4996"
       id="linearGradient3141"
       gradientUnits="userSpaceOnUse"
       gradientTransform="matrix(1.0380952,0,0,1.4619252,-10.28943,-118.25286)"
       x1="257"
       y1="256"
       x2="362"
       y2="256" />
    <linearGradient
       inkscape:collect="always"
       xlink:href="#linearGradient4996"
       id="linearGradient3145"
       gradientUnits="userSpaceOnUse"
       gradientTransform="matrix(1.0283468,0,0,1.4619252,101.21591,-118.25286)"
       x1="257"
       y1="256"
       x2="362"
       y2="256" />
    <linearGradient
       inkscape:collect="always"
       xlink:href="#linearGradient4996"
       id="linearGradient3149"
       gradientUnits="userSpaceOnUse"
       gradientTransform="matrix(1.0283468,0,0,1.4619252,209.19233,-118.25286)"
       x1="257"
       y1="256"
       x2="362"
       y2="256" />
    <linearGradient
       inkscape:collect="always"
       xlink:href="#linearGradient4996"
       id="linearGradient3153"
       gradientUnits="userSpaceOnUse"
       gradientTransform="matrix(1.0380952,0,0,1.4619252,-337.28943,-118.25286)"
       x1="257"
       y1="256"
       x2="362"
       y2="256" />
  </defs>
  <rect
     style="opacity:0.2;fill:#000000;fill-opacity:1;stroke:none"
     id="rect5028"
     width="500"
     height="500"
     x="6"
     y="12"
     rx="72.644058"
     ry="72.644058" />
  <rect
     ry="72.644058"
     rx="72.644058"
     y="6"
     x="6"
     height="500"
     width="500"
     id="rect4979"
     style="fill:#f3f3f3;fill-opacity:1;stroke:none" />
  <g
     id="g3132">
    <path
       id="rect3116"
       d="M 101.6875 38.5 C 66.674518 38.5 38.5 66.674518 38.5 101.6875 L 38.5 256 L 256 256 L 256 38.5 L 101.6875 38.5 z "
       style="fill:#e85831;fill-opacity:1;stroke:none" />
    <path
       inkscape:connector-curvature="0"
       style="fill:#54a74d;fill-opacity:1;stroke:none"
       d="m 410.31248,38.5 c 35.01298,0 63.1875,28.174518 63.1875,63.1875 l 0,154.3125 -217.5,0 0,-217.5 154.3125,0 z"
       id="path3126" />
    <path
       inkscape:connector-curvature="0"
       style="fill:#0271af;fill-opacity:1;stroke:none"
       d="m 101.6875,473.49998 c -35.012982,0 -63.1875,-28.17452 -63.1875,-63.1875 l 0,-154.3125 217.5,0 0,217.5 -154.3125,0 z"
       id="path3128" />
    <path
       id="path3130"
       d="m 410.31248,473.49998 c 35.01298,0 63.1875,-28.17452 63.1875,-63.1875 l 0,-154.3125 -217.5,0 0,217.5 154.3125,0 z"
       style="fill:#f9b312;fill-opacity:1;stroke:none"
       inkscape:connector-curvature="0" />
  </g>
  <path
     style="fill:#000000;fill-opacity:1;stroke:none;opacity:0.2"
     d="M 101.6875 38.5 C 66.674518 38.5 38.5 66.674518 38.5 101.6875 L 38.5 116.6875 C 38.5 81.674518 66.674518 53.5 101.6875 53.5 L 410.3125 53.5 C 445.32548 53.5 473.5 81.674518 473.5 116.6875 L 473.5 101.6875 C 473.5 66.674518 445.32548 38.5 410.3125 38.5 L 101.6875 38.5 z "
     id="rect3187" />
  <g
     id="g3070"
     transform="translate(413.99265,55.963334)">
    <g
       style="opacity:0.2;fill:#000000"
       id="g3060"
       transform="matrix(11.166667,0,0,11.166667,-17585.691,-10924.134)">
      <path
         style="fill:#000000"
         inkscape:connector-curvature="0"
         id="path3062"
         d="m 1546.361,1006.373 c 2.098,-0.846 3.791,-1.186 5.217,-1.186 2.35,0 3.979,0.908 5.516,1.932 0.57,-1.934 2.506,-8.545 2.873,-9.805 -0.416,-0.258 -0.832,-0.516 -1.277,-0.754 -1.031,-0.531 -2.475,-1.082 -4.053,-1.082 -0.178,0 -0.357,0.006 -0.537,0.02 -1.584,0.133 -3.025,0.537 -4.039,0.895 -0.299,0.107 -0.605,0.225 -0.924,0.354 l -2.776,9.626 z" />
      <path
         style="fill:#000000"
         inkscape:connector-curvature="0"
         id="path3064"
         d="m 1572.871,999.486 c -2.023,0.725 -3.768,0.998 -5.242,0.998 -3.209,0 -5.16,-1.279 -6.002,-1.953 l -2.768,9.613 c -0.01,0 3.234,1.994 5.666,1.994 1.539,0 3.379,-0.377 5.678,-1.326 l 2.668,-9.326 z" />
      <path
         style="fill:#000000"
         inkscape:connector-curvature="0"
         id="path3066"
         d="m 1563.313,985.393 c 0,0 -1.988,-1.191 -3.373,-1.545 -0.66,-0.156 -1.408,-0.254 -2.234,-0.254 -0.012,0 -0.021,0 -0.031,0 -1.408,0.027 -3.094,0.367 -5.166,1.213 l -2.736,9.605 c 2.131,-0.869 3.857,-1.254 5.309,-1.254 0.027,0 0.051,0 0.076,0 2.25,0.023 3.846,0.922 5.33,1.906 0.568,-1.926 2.256,-7.713 2.826,-9.664 v -0.007 z" />
      <path
         style="fill:#000000"
         inkscape:connector-curvature="0"
         id="path3068"
         d="m 1565.064,986.639 -2.807,9.707 c 0.01,0.01 0.02,0.016 0.029,0.021 1.543,1.031 3.551,1.865 5.971,1.865 1.598,0 3.375,-0.363 5.318,-1.279 0,-0.004 0,-0.01 0,-0.014 0,0 0.01,-0.004 0.018,-0.006 l 2.768,-9.529 c -2.045,0.891 -3.834,1.219 -5.363,1.219 -3.041,0 -5.049,-1.295 -5.934,-1.984 z" />
    </g>
    <g
       style="fill:#dcdbdb;fill-opacity:1"
       transform="matrix(11.166667,0,0,11.166667,-17600.691,-10939.134)"
       id="g2005">
      <path
         d="m 1546.361,1006.373 c 2.098,-0.846 3.791,-1.186 5.217,-1.186 2.35,0 3.979,0.908 5.516,1.932 0.57,-1.934 2.506,-8.545 2.873,-9.805 -0.416,-0.258 -0.832,-0.516 -1.277,-0.754 -1.031,-0.531 -2.475,-1.082 -4.053,-1.082 -0.178,0 -0.357,0.006 -0.537,0.02 -1.584,0.133 -3.025,0.537 -4.039,0.895 -0.299,0.107 -0.605,0.225 -0.924,0.354 l -2.776,9.626 z"
         id="path2007"
         inkscape:connector-curvature="0"
         style="fill:#dcdbdb;fill-opacity:1" />
      <path
         d="m 1572.871,999.486 c -2.023,0.725 -3.768,0.998 -5.242,0.998 -3.209,0 -5.16,-1.279 -6.002,-1.953 l -2.768,9.613 c -0.01,0 3.234,1.994 5.666,1.994 1.539,0 3.379,-0.377 5.678,-1.326 l 2.668,-9.326 z"
         id="path2009"
         inkscape:connector-curvature="0"
         style="fill:#dcdbdb;fill-opacity:1" />
      <path
         d="m 1563.313,985.393 c 0,0 -1.988,-1.191 -3.373,-1.545 -0.66,-0.156 -1.408,-0.254 -2.234,-0.254 -0.012,0 -0.021,0 -0.031,0 -1.408,0.027 -3.094,0.367 -5.166,1.213 l -2.736,9.605 c 2.131,-0.869 3.857,-1.254 5.309,-1.254 0.027,0 0.051,0 0.076,0 2.25,0.023 3.846,0.922 5.33,1.906 0.568,-1.926 2.256,-7.713 2.826,-9.664 v -0.007 z"
         id="path2011"
         inkscape:connector-curvature="0"
         style="fill:#dcdbdb;fill-opacity:1" />
      <path
         d="m 1565.064,986.639 -2.807,9.707 c 0.01,0.01 0.02,0.016 0.029,0.021 1.543,1.031 3.551,1.865 5.971,1.865 1.598,0 3.375,-0.363 5.318,-1.279 0,-0.004 0,-0.01 0,-0.014 0,0 0.01,-0.004 0.018,-0.006 l 2.768,-9.529 c -2.045,0.891 -3.834,1.219 -5.363,1.219 -3.041,0 -5.049,-1.295 -5.934,-1.984 z"
         id="path2013"
         inkscape:connector-curvature="0"
         style="fill:#dcdbdb;fill-opacity:1" />
    </g>
  </g>
  <g
     id="g3167">
    <path
       id="rect3068"
       d="M 78.65625 6 C 63.792798 6 49.986224 10.429561 38.5 18.03125 L 38.5 493.96875 C 49.986224 501.57044 63.792798 506 78.65625 506 L 147.5 506 L 147.5 6 L 78.65625 6 z "
       style="opacity:0.05000000000000000;fill:url(#linearGradient3108);fill-opacity:1;stroke:none" />
    <path
       inkscape:connector-curvature="0"
       style="opacity:0.05;fill:url(#linearGradient3137);fill-opacity:1;stroke:none"
       d="m 147.50001,6 0,500 109,0 0,-500 -109,0 z"
       id="path3135" />
    <path
       id="path3139"
       d="m 256.50001,6 0,500 109,0 0,-500 -109,0 z"
       style="opacity:0.05;fill:url(#linearGradient3141);fill-opacity:1;stroke:none"
       inkscape:connector-curvature="0" />
    <path
       id="path3143"
       d="M 365.5 6 L 365.5 506 L 433.34375 506 C 448.1977 506 461.98692 501.56151 473.46875 493.96875 L 473.46875 18.03125 C 461.98692 10.438491 448.1977 6 433.34375 6 L 365.5 6 z "
       style="opacity:0.05000000000000000;fill:url(#linearGradient3145);fill-opacity:1;stroke:none" />
    <path
       id="path3151"
       d="M 38.5 18.03125 C 18.885717 31.012164 6 53.274894 6 78.65625 L 6 433.34375 C 6 458.72511 18.885717 480.98784 38.5 493.96875 L 38.5 18.03125 z "
       style="opacity:0.05000000000000000;fill:url(#linearGradient3153);fill-opacity:1;stroke:none" />
    <path
       id="path3147"
       d="M 473.46875 18.03125 L 473.46875 493.96875 C 493.09542 480.98993 506 458.73461 506 433.34375 L 506 78.65625 C 506 53.265388 493.09542 31.010071 473.46875 18.03125 z "
       style="opacity:0.05000000000000000;fill:url(#linearGradient3149);fill-opacity:1;stroke:none" />
  </g>
</svg>
