<?xml version="1.0" encoding="UTF-8" standalone="no"?>
<svg
   xmlns:dc="http://purl.org/dc/elements/1.1/"
   xmlns:cc="http://creativecommons.org/ns#"
   xmlns:rdf="http://www.w3.org/1999/02/22-rdf-syntax-ns#"
   xmlns:svg="http://www.w3.org/2000/svg"
   xmlns="http://www.w3.org/2000/svg"
   xmlns:xlink="http://www.w3.org/1999/xlink"
   xmlns:sodipodi="http://sodipodi.sourceforge.net/DTD/sodipodi-0.dtd"
   xmlns:inkscape="http://www.inkscape.org/namespaces/inkscape"
   viewBox="0 0 512 512"
   id="svg2"
   version="1.1"
   inkscape:version="0.48.4 r9939"
   width="100%"
   height="100%"
   sodipodi:docname="base.svg">
  <sodipodi:namedview
     pagecolor="#444444"
     bordercolor="#666666"
     borderopacity="1"
     objecttolerance="10"
     gridtolerance="10"
     guidetolerance="10"
     inkscape:pageopacity="0"
     inkscape:pageshadow="2"
     inkscape:window-width="1310"
     inkscape:window-height="718"
     id="namedview6"
     showgrid="false"
     showguides="true"
     inkscape:guide-bbox="true"
     inkscape:zoom="0.73271889"
     inkscape:cx="289.0038"
     inkscape:cy="266.84391"
     inkscape:window-x="54"
     inkscape:window-y="27"
     inkscape:window-maximized="1"
     inkscape:current-layer="svg2"
     inkscape:snap-midpoints="true"
     inkscape:snap-global="false">
    <sodipodi:guide
       id="guide2989"
       position="522.57628,433.35594"
       orientation="0,1" />
    <sodipodi:guide
       id="guide2995"
       position="473.05444,254.912"
       orientation="1,0" />
  </sodipodi:namedview>
  <metadata
     id="metadata10">
    <rdf:RDF>
      <cc:Work
         rdf:about="">
        <dc:format>image/svg+xml</dc:format>
        <dc:type
           rdf:resource="http://purl.org/dc/dcmitype/StillImage" />
        <dc:title></dc:title>
      </cc:Work>
    </rdf:RDF>
  </metadata>
  <defs
     id="defs8">
    <linearGradient
       id="linearGradient4996">
      <stop
         style="stop-color:#000000;stop-opacity:1;"
         offset="0"
         id="stop4998" />
      <stop
         style="stop-color:#ffffff;stop-opacity:1;"
         offset="1"
         id="stop5000" />
    </linearGradient>
    <linearGradient
       inkscape:collect="always"
       xlink:href="#linearGradient4996"
       id="linearGradient3108"
       gradientUnits="userSpaceOnUse"
       gradientTransform="matrix(1.0380952,0,0,1.4619252,-228.28943,-118.25286)"
       x1="257"
       y1="256"
       x2="362"
       y2="256" />
    <linearGradient
       inkscape:collect="always"
       xlink:href="#linearGradient4996"
       id="linearGradient3137"
       gradientUnits="userSpaceOnUse"
       gradientTransform="matrix(1.0380952,0,0,1.4619252,-119.28943,-118.25286)"
       x1="257"
       y1="256"
       x2="362"
       y2="256" />
    <linearGradient
       inkscape:collect="always"
       xlink:href="#linearGradient4996"
       id="linearGradient3141"
       gradientUnits="userSpaceOnUse"
       gradientTransform="matrix(1.0380952,0,0,1.4619252,-10.28943,-118.25286)"
       x1="257"
       y1="256"
       x2="362"
       y2="256" />
    <linearGradient
       inkscape:collect="always"
       xlink:href="#linearGradient4996"
       id="linearGradient3145"
       gradientUnits="userSpaceOnUse"
       gradientTransform="matrix(1.0283468,0,0,1.4619252,101.21591,-118.25286)"
       x1="257"
       y1="256"
       x2="362"
       y2="256" />
    <linearGradient
       inkscape:collect="always"
       xlink:href="#linearGradient4996"
       id="linearGradient3149"
       gradientUnits="userSpaceOnUse"
       gradientTransform="matrix(1.0283468,0,0,1.4619252,209.19233,-118.25286)"
       x1="257"
       y1="256"
       x2="362"
       y2="256" />
    <linearGradient
       inkscape:collect="always"
       xlink:href="#linearGradient4996"
       id="linearGradient3153"
       gradientUnits="userSpaceOnUse"
       gradientTransform="matrix(1.0380952,0,0,1.4619252,-337.28943,-118.25286)"
       x1="257"
       y1="256"
       x2="362"
       y2="256" />
  </defs>
  <rect
     style="opacity:0.2;fill:#000000;fill-opacity:1;stroke:none"
     id="rect5028"
     width="500"
     height="500"
     x="6"
     y="12"
     rx="72.644058"
     ry="72.644058" />
  <rect
     ry="72.644058"
     rx="72.644058"
     y="6"
     x="6"
     height="500"
     width="500"
     id="rect4979"
     style="fill:#f3f3f3;fill-opacity:1;stroke:none" />
  <rect
     style="fill:#003366;fill-opacity:1;stroke:none"
     id="rect4981"
     width="434.99997"
     height="434.99997"
     x="38.500011"
     y="38.500011"
     rx="63.200329"
     ry="63.200329" />
  <path
     style="fill:#000000;fill-opacity:1;stroke:none;opacity:0.2"
     d="M 101.6875 38.5 C 66.674518 38.5 38.5 66.674518 38.5 101.6875 L 38.5 116.6875 C 38.5 81.674518 66.674518 53.5 101.6875 53.5 L 410.3125 53.5 C 445.32548 53.5 473.5 81.674518 473.5 116.6875 L 473.5 101.6875 C 473.5 66.674518 445.32548 38.5 410.3125 38.5 L 101.6875 38.5 z "
     id="rect3187" />
  <g
     id="g3045"
     transform="translate(581.1195,143.5912)">
    <path
       id="path3043"
       d="m -461.30309,119.9088 c 0,56.86625 33.03937,106.02227 80.98101,129.31 L -448.86622,61.430367 c -7.97719,17.870156 -12.43687,37.64039 -12.43687,58.478433 z m 240.68703,-7.24961 c 0,-17.765464 -6.38594,-30.061011 -11.84539,-39.629448 -7.29149,-11.834922 -14.11711,-21.848282 -14.11711,-33.698907 0,-13.195859 10.00812,-25.49664 24.1357,-25.49664 0.62813,0 1.22485,0.07851 1.85297,0.109922 -25.56469,-23.418594 -59.61429,-37.708433 -97.03484,-37.708433 -50.2029,0 -94.34961,25.742651 -120.06086,64.754448 3.3814,0.104688 6.55343,0.172735 9.26484,0.172735 15.01742,0 38.28422,-1.837266 38.28422,-1.837266 7.74164,-0.450156 8.66812,10.934609 0.92125,11.855859 0,0 -7.78352,0.905547 -16.45164,1.366172 l 52.33328,155.633668 31.44289,-94.30773 -22.37695,-61.331172 c -7.74164,-0.460625 -15.06977,-1.366172 -15.06977,-1.366172 -7.75211,-0.465859 -6.84656,-12.306016 0.91078,-11.855859 0,0 23.72219,1.837265 37.8393,1.837265 15.02789,0 38.29469,-1.837265 38.29469,-1.837265 7.74687,-0.450157 8.66289,10.934609 0.92125,11.855859 0,0 -7.79399,0.905547 -16.44117,1.366172 l 51.925,154.455932 14.33695,-47.88406 c 7.27055,-18.68148 10.93461,-34.14906 10.93461,-46.45508 z m -94.48047,19.80165 -43.11555,125.28476 c 12.87656,3.79492 26.49118,5.85203 40.58735,5.85203 16.73429,0 32.78289,-2.89461 47.71656,-8.13945 -0.38211,-0.61243 -0.73805,-1.26149 -1.0207,-1.98907 l -44.16766,-121.00827 z m 123.56789,-81.488755 c 0.60719,4.580078 0.96836,9.484688 0.96836,14.776641 0,14.582969 -2.72711,30.971797 -10.93461,51.464374 l -43.885,126.89172 c 42.7282,-24.91039 71.44922,-71.19273 71.44922,-124.20125 0,-24.983672 -6.39117,-48.459844 -17.59797,-68.931485 z M -485.1195,119.9088 c 0,92.36578 75.14469,167.5 167.49477,167.5 92.35531,0 167.50523,-75.13422 167.50523,-167.5 0,-92.360543 -75.14992,-167.499996 -167.50523,-167.499996 -92.35008,0 -167.49477,75.139453 -167.49477,167.499996 z m 7.68406,0 c 0,-88.115465 71.69524,-159.800226 159.81071,-159.800226 88.13117,0 159.8264,71.684761 159.8264,159.800226 0,88.1207 -71.69523,159.82117 -159.8264,159.82117 -88.11547,0 -159.81071,-71.70047 -159.81071,-159.82117 z"
       inkscape:connector-curvature="0"
       style="opacity:0.2;fill:#000000;fill-opacity:1" />
    <path
       style="fill:#dcdbdb;fill-opacity:1"
       inkscape:connector-curvature="0"
       d="m -476.30309,104.9088 c 0,56.86625 33.03937,106.02227 80.98101,129.31 L -463.86622,46.430367 c -7.97719,17.870156 -12.43687,37.64039 -12.43687,58.478433 z m 240.68703,-7.249605 c 0,-17.765469 -6.38594,-30.061016 -11.84539,-39.629453 -7.29149,-11.834922 -14.11711,-21.848282 -14.11711,-33.698907 0,-13.195859 10.00812,-25.4966399 24.1357,-25.4966399 0.62813,0 1.22485,0.07851 1.85297,0.109922 -25.56469,-23.4185941 -59.61429,-37.7084331 -97.03484,-37.7084331 -50.2029,0 -94.34961,25.742651 -120.06086,64.754448 3.3814,0.104688 6.55343,0.172735 9.26484,0.172735 15.01742,0 38.28422,-1.837266 38.28422,-1.837266 7.74164,-0.450156 8.66812,10.934609 0.92125,11.855859 0,0 -7.78352,0.905547 -16.45164,1.366172 l 52.33328,155.633668 31.44289,-94.30773 -22.37695,-61.331172 c -7.74164,-0.460625 -15.06977,-1.366172 -15.06977,-1.366172 -7.75211,-0.465859 -6.84656,-12.306016 0.91078,-11.855859 0,0 23.72219,1.837265 37.8393,1.837265 15.02789,0 38.29469,-1.837265 38.29469,-1.837265 7.74687,-0.450157 8.66289,10.934609 0.92125,11.855859 0,0 -7.79399,0.905547 -16.44117,1.366172 l 51.925,154.455932 14.33695,-47.88406 c 7.27055,-18.68148 10.93461,-34.14906 10.93461,-46.455075 z m -94.48047,19.801645 -43.11555,125.28476 c 12.87656,3.79492 26.49118,5.85203 40.58735,5.85203 16.73429,0 32.78289,-2.89461 47.71656,-8.13945 -0.38211,-0.61243 -0.73805,-1.26149 -1.0207,-1.98907 l -44.16766,-121.00827 z m 123.56789,-81.488755 c 0.60719,4.580078 0.96836,9.484688 0.96836,14.776641 0,14.582969 -2.72711,30.971797 -10.93461,51.464374 l -43.885,126.89172 c 42.7282,-24.91039 71.44922,-71.19273 71.44922,-124.20125 0,-24.983672 -6.39117,-48.459844 -17.59797,-68.931485 z M -500.1195,104.9088 c 0,92.36578 75.14469,167.5 167.49477,167.5 92.35531,0 167.50523,-75.13422 167.50523,-167.5 0,-92.360543 -75.14992,-167.499996 -167.50523,-167.499996 -92.35008,0 -167.49477,75.139453 -167.49477,167.499996 z m 7.68406,0 c 0,-88.115465 71.69524,-159.800226 159.81071,-159.800226 88.13117,0 159.8264,71.684761 159.8264,159.800226 0,88.1207 -71.69523,159.82117 -159.8264,159.82117 -88.11547,0 -159.81071,-71.70047 -159.81071,-159.82117 z"
       id="path3034" />
  </g>
  <g
     id="g3167">
    <path
       id="rect3068"
       d="M 78.65625 6 C 63.792798 6 49.986224 10.429561 38.5 18.03125 L 38.5 493.96875 C 49.986224 501.57044 63.792798 506 78.65625 506 L 147.5 506 L 147.5 6 L 78.65625 6 z "
       style="opacity:0.05000000000000000;fill:url(#linearGradient3108);fill-opacity:1;stroke:none" />
    <path
       inkscape:connector-curvature="0"
       style="opacity:0.05;fill:url(#linearGradient3137);fill-opacity:1;stroke:none"
       d="m 147.50001,6 0,500 109,0 0,-500 -109,0 z"
       id="path3135" />
    <path
       id="path3139"
       d="m 256.50001,6 0,500 109,0 0,-500 -109,0 z"
       style="opacity:0.05;fill:url(#linearGradient3141);fill-opacity:1;stroke:none"
       inkscape:connector-curvature="0" />
    <path
       id="path3143"
       d="M 365.5 6 L 365.5 506 L 433.34375 506 C 448.1977 506 461.98692 501.56151 473.46875 493.96875 L 473.46875 18.03125 C 461.98692 10.438491 448.1977 6 433.34375 6 L 365.5 6 z "
       style="opacity:0.05000000000000000;fill:url(#linearGradient3145);fill-opacity:1;stroke:none" />
    <path
       id="path3151"
       d="M 38.5 18.03125 C 18.885717 31.012164 6 53.274894 6 78.65625 L 6 433.34375 C 6 458.72511 18.885717 480.98784 38.5 493.96875 L 38.5 18.03125 z "
       style="opacity:0.05000000000000000;fill:url(#linearGradient3153);fill-opacity:1;stroke:none" />
    <path
       id="path3147"
       d="M 473.46875 18.03125 L 473.46875 493.96875 C 493.09542 480.98993 506 458.73461 506 433.34375 L 506 78.65625 C 506 53.265388 493.09542 31.010071 473.46875 18.03125 z "
       style="opacity:0.05000000000000000;fill:url(#linearGradient3149);fill-opacity:1;stroke:none" />
  </g>
</svg>
