<?xml version="1.0" encoding="UTF-8" standalone="no"?>
<svg
   xmlns:dc="http://purl.org/dc/elements/1.1/"
   xmlns:cc="http://creativecommons.org/ns#"
   xmlns:rdf="http://www.w3.org/1999/02/22-rdf-syntax-ns#"
   xmlns:svg="http://www.w3.org/2000/svg"
   xmlns="http://www.w3.org/2000/svg"
   xmlns:xlink="http://www.w3.org/1999/xlink"
   xmlns:sodipodi="http://sodipodi.sourceforge.net/DTD/sodipodi-0.dtd"
   xmlns:inkscape="http://www.inkscape.org/namespaces/inkscape"
   viewBox="0 0 512 512"
   id="svg2"
   version="1.1"
   inkscape:version="0.48.4 r9939"
   width="100%"
   height="100%"
   sodipodi:docname="yelp.svg">
  <sodipodi:namedview
     pagecolor="#444444"
     bordercolor="#666666"
     borderopacity="1"
     objecttolerance="10"
     gridtolerance="10"
     guidetolerance="10"
     inkscape:pageopacity="0"
     inkscape:pageshadow="2"
     inkscape:window-width="1310"
     inkscape:window-height="718"
     id="namedview6"
     showgrid="false"
     showguides="true"
     inkscape:guide-bbox="true"
     inkscape:zoom="0.73271889"
     inkscape:cx="264.43777"
     inkscape:cy="272.30303"
     inkscape:window-x="54"
     inkscape:window-y="27"
     inkscape:window-maximized="1"
     inkscape:current-layer="svg2"
     inkscape:snap-midpoints="true"
     inkscape:snap-global="false">
    <sodipodi:guide
       id="guide2989"
       position="522.57628,433.35594"
       orientation="0,1" />
    <sodipodi:guide
       id="guide2995"
       position="473.05444,254.912"
       orientation="1,0" />
    <sodipodi:guide
       orientation="0,1"
       position="-110.54717,646.90566"
       id="guide3054" />
  </sodipodi:namedview>
  <metadata
     id="metadata10">
    <rdf:RDF>
      <cc:Work
         rdf:about="">
        <dc:format>image/svg+xml</dc:format>
        <dc:type
           rdf:resource="http://purl.org/dc/dcmitype/StillImage" />
        <dc:title />
      </cc:Work>
    </rdf:RDF>
  </metadata>
  <defs
     id="defs8">
    <linearGradient
       id="linearGradient4996">
      <stop
         style="stop-color:#000000;stop-opacity:1;"
         offset="0"
         id="stop4998" />
      <stop
         style="stop-color:#ffffff;stop-opacity:1;"
         offset="1"
         id="stop5000" />
    </linearGradient>
    <linearGradient
       inkscape:collect="always"
       xlink:href="#linearGradient4996"
       id="linearGradient3108"
       gradientUnits="userSpaceOnUse"
       gradientTransform="matrix(1.0380952,0,0,1.4619252,-228.28943,-118.25286)"
       x1="257"
       y1="256"
       x2="362"
       y2="256" />
    <linearGradient
       inkscape:collect="always"
       xlink:href="#linearGradient4996"
       id="linearGradient3137"
       gradientUnits="userSpaceOnUse"
       gradientTransform="matrix(1.0380952,0,0,1.4619252,-119.28943,-118.25286)"
       x1="257"
       y1="256"
       x2="362"
       y2="256" />
    <linearGradient
       inkscape:collect="always"
       xlink:href="#linearGradient4996"
       id="linearGradient3141"
       gradientUnits="userSpaceOnUse"
       gradientTransform="matrix(1.0380952,0,0,1.4619252,-10.28943,-118.25286)"
       x1="257"
       y1="256"
       x2="362"
       y2="256" />
    <linearGradient
       inkscape:collect="always"
       xlink:href="#linearGradient4996"
       id="linearGradient3145"
       gradientUnits="userSpaceOnUse"
       gradientTransform="matrix(1.0283468,0,0,1.4619252,101.21591,-118.25286)"
       x1="257"
       y1="256"
       x2="362"
       y2="256" />
    <linearGradient
       inkscape:collect="always"
       xlink:href="#linearGradient4996"
       id="linearGradient3149"
       gradientUnits="userSpaceOnUse"
       gradientTransform="matrix(1.0283468,0,0,1.4619252,209.19233,-118.25286)"
       x1="257"
       y1="256"
       x2="362"
       y2="256" />
    <linearGradient
       inkscape:collect="always"
       xlink:href="#linearGradient4996"
       id="linearGradient3153"
       gradientUnits="userSpaceOnUse"
       gradientTransform="matrix(1.0380952,0,0,1.4619252,-337.28943,-118.25286)"
       x1="257"
       y1="256"
       x2="362"
       y2="256" />
  </defs>
  <rect
     style="opacity:0.2;fill:#000000;fill-opacity:1;stroke:none"
     id="rect5028"
     width="500"
     height="500"
     x="6"
     y="12"
     rx="72.644058"
     ry="72.644058" />
  <rect
     ry="72.644058"
     rx="72.644058"
     y="6"
     x="6"
     height="500"
     width="500"
     id="rect4979"
     style="fill:#f3f3f3;fill-opacity:1;stroke:none" />
  <rect
     style="fill:#cd1d31;fill-opacity:1;stroke:none"
     id="rect4981"
     width="434.99997"
     height="434.99997"
     x="38.500011"
     y="38.500011"
     rx="63.200329"
     ry="63.200329" />
  <path
     style="fill:#000000;fill-opacity:1;stroke:none;opacity:0.2"
     d="M 101.6875 38.5 C 66.674518 38.5 38.5 66.674518 38.5 101.6875 L 38.5 116.6875 C 38.5 81.674518 66.674518 53.5 101.6875 53.5 L 410.3125 53.5 C 445.32548 53.5 473.5 81.674518 473.5 116.6875 L 473.5 101.6875 C 473.5 66.674518 445.32548 38.5 410.3125 38.5 L 101.6875 38.5 z "
     id="rect3187" />
  <g
     id="g3075"
     transform="translate(306.53723,141.66201)">
    <g
       id="g3063"
       transform="matrix(11.166605,0,0,11.166605,-10727.458,-13920.743)"
       style="opacity:0.2;fill:#000000;fill-opacity:1">
      <path
         style="fill:#000000;fill-opacity:1"
         inkscape:connector-curvature="0"
         id="path3065"
         d="m 964.557,1270.34 c 0.545,0 1.084,-0.447 1.084,-0.447 l 3.012,-4.307 c 0,0 0.305,-0.543 0.311,-1.02 0.012,-0.676 -1.008,-0.863 -1.008,-0.863 l -7.135,-2.291 c 0,0 -0.699,-0.184 -1.164,0.285 -0.506,0.512 -0.078,1.439 -0.078,1.439 l 3.813,6.363 c -0.001,10e-4 0.624,0.841 1.165,0.841 z" />
      <path
         style="fill:#000000;fill-opacity:1"
         inkscape:connector-curvature="0"
         id="path3067"
         d="m 960.666,1258.928 7.119,-2.08 c 0,0 0.969,-0.393 1.107,-0.92 0.135,-0.525 -0.16,-1.16 -0.16,-1.16 l -3.402,-4.008 c 0,0 -0.293,-0.506 -0.906,-0.557 -0.674,-0.059 -1.088,0.758 -1.088,0.758 l -4.021,6.33 c 0,0 -0.355,0.629 -0.02,1.199 0.365,0.619 1.371,0.438 1.371,0.438 z" />
      <path
         style="fill:#000000;fill-opacity:1"
         inkscape:connector-curvature="0"
         id="path3069"
         d="m 955.932,1256.021 c 0.838,-0.205 0.973,-1.424 0.973,-1.424 l -0.059,-10.131 c 0,0 -0.125,-1.25 -0.688,-1.59 -0.881,-0.535 -1.141,-0.256 -1.395,-0.219 l -5.91,2.195 c 0,0 -0.578,0.193 -0.879,0.676 -0.43,0.684 0.438,1.686 0.438,1.686 l 6.143,8.373 c 0,10e-4 0.605,0.626 1.377,0.434 z" />
      <path
         style="fill:#000000;fill-opacity:1"
         inkscape:connector-curvature="0"
         id="path3071"
         d="m 945.785,1255.547 c -0.35,0.205 -0.66,0.58 -0.691,0.912 l -0.412,5.092 c 0,0 -0.063,0.881 0.166,1.283 0.324,0.57 1.389,0.172 1.389,0.172 l 7.416,-1.637 c 0.287,-0.195 0.793,-0.213 0.82,-1.246 0.021,-0.781 -0.938,-1.25 -0.938,-1.25 l -6.352,-3.209 c 10e-4,0 -0.941,-0.389 -1.398,-0.117 z" />
      <path
         style="fill:#000000;fill-opacity:1"
         inkscape:connector-curvature="0"
         id="path3073"
         d="m 950.234,1270.926 4.984,1.572 c 0,0 0.605,0.127 1.064,-0.01 0.648,-0.188 0.527,-1.207 0.527,-1.207 l 0.113,-7.4 c 0,0 -0.025,-0.711 -0.607,-1.014 -0.637,-0.326 -1.398,0.352 -1.398,0.352 l -4.963,5.465 c 0,0 -0.621,0.836 -0.463,1.35 0.15,0.48 0.394,0.72 0.743,0.888 z" />
    </g>
    <g
       style="fill:#dcdbdb;fill-opacity:1"
       transform="matrix(11.166605,0,0,11.166605,-10742.458,-13935.743)"
       id="g2544">
      <path
         d="m 964.557,1270.34 c 0.545,0 1.084,-0.447 1.084,-0.447 l 3.012,-4.307 c 0,0 0.305,-0.543 0.311,-1.02 0.012,-0.676 -1.008,-0.863 -1.008,-0.863 l -7.135,-2.291 c 0,0 -0.699,-0.184 -1.164,0.285 -0.506,0.512 -0.078,1.439 -0.078,1.439 l 3.813,6.363 c -0.001,10e-4 0.624,0.841 1.165,0.841 z"
         id="path2546"
         inkscape:connector-curvature="0"
         style="fill:#dcdbdb;fill-opacity:1" />
      <path
         d="m 960.666,1258.928 7.119,-2.08 c 0,0 0.969,-0.393 1.107,-0.92 0.135,-0.525 -0.16,-1.16 -0.16,-1.16 l -3.402,-4.008 c 0,0 -0.293,-0.506 -0.906,-0.557 -0.674,-0.059 -1.088,0.758 -1.088,0.758 l -4.021,6.33 c 0,0 -0.355,0.629 -0.02,1.199 0.365,0.619 1.371,0.438 1.371,0.438 z"
         id="path2548"
         inkscape:connector-curvature="0"
         style="fill:#dcdbdb;fill-opacity:1" />
      <path
         d="m 955.932,1256.021 c 0.838,-0.205 0.973,-1.424 0.973,-1.424 l -0.059,-10.131 c 0,0 -0.125,-1.25 -0.688,-1.59 -0.881,-0.535 -1.141,-0.256 -1.395,-0.219 l -5.91,2.195 c 0,0 -0.578,0.193 -0.879,0.676 -0.43,0.684 0.438,1.686 0.438,1.686 l 6.143,8.373 c 0,10e-4 0.605,0.626 1.377,0.434 z"
         id="path2550"
         inkscape:connector-curvature="0"
         style="fill:#dcdbdb;fill-opacity:1" />
      <path
         d="m 945.785,1255.547 c -0.35,0.205 -0.66,0.58 -0.691,0.912 l -0.412,5.092 c 0,0 -0.063,0.881 0.166,1.283 0.324,0.57 1.389,0.172 1.389,0.172 l 7.416,-1.637 c 0.287,-0.195 0.793,-0.213 0.82,-1.246 0.021,-0.781 -0.938,-1.25 -0.938,-1.25 l -6.352,-3.209 c 10e-4,0 -0.941,-0.389 -1.398,-0.117 z"
         id="path2552"
         inkscape:connector-curvature="0"
         style="fill:#dcdbdb;fill-opacity:1" />
      <path
         d="m 950.234,1270.926 4.984,1.572 c 0,0 0.605,0.127 1.064,-0.01 0.648,-0.188 0.527,-1.207 0.527,-1.207 l 0.113,-7.4 c 0,0 -0.025,-0.711 -0.607,-1.014 -0.637,-0.326 -1.398,0.352 -1.398,0.352 l -4.963,5.465 c 0,0 -0.621,0.836 -0.463,1.35 0.15,0.48 0.394,0.72 0.743,0.888 z"
         id="path2554"
         inkscape:connector-curvature="0"
         style="fill:#dcdbdb;fill-opacity:1" />
    </g>
  </g>
  <g
     id="g3167">
    <path
       id="rect3068"
       d="M 78.65625 6 C 63.792798 6 49.986224 10.429561 38.5 18.03125 L 38.5 493.96875 C 49.986224 501.57044 63.792798 506 78.65625 506 L 147.5 506 L 147.5 6 L 78.65625 6 z "
       style="opacity:0.05000000000000000;fill:url(#linearGradient3108);fill-opacity:1;stroke:none" />
    <path
       inkscape:connector-curvature="0"
       style="opacity:0.05;fill:url(#linearGradient3137);fill-opacity:1;stroke:none"
       d="m 147.50001,6 0,500 109,0 0,-500 -109,0 z"
       id="path3135" />
    <path
       id="path3139"
       d="m 256.50001,6 0,500 109,0 0,-500 -109,0 z"
       style="opacity:0.05;fill:url(#linearGradient3141);fill-opacity:1;stroke:none"
       inkscape:connector-curvature="0" />
    <path
       id="path3143"
       d="M 365.5 6 L 365.5 506 L 433.34375 506 C 448.1977 506 461.98692 501.56151 473.46875 493.96875 L 473.46875 18.03125 C 461.98692 10.438491 448.1977 6 433.34375 6 L 365.5 6 z "
       style="opacity:0.05000000000000000;fill:url(#linearGradient3145);fill-opacity:1;stroke:none" />
    <path
       id="path3151"
       d="M 38.5 18.03125 C 18.885717 31.012164 6 53.274894 6 78.65625 L 6 433.34375 C 6 458.72511 18.885717 480.98784 38.5 493.96875 L 38.5 18.03125 z "
       style="opacity:0.05000000000000000;fill:url(#linearGradient3153);fill-opacity:1;stroke:none" />
    <path
       id="path3147"
       d="M 473.46875 18.03125 L 473.46875 493.96875 C 493.09542 480.98993 506 458.73461 506 433.34375 L 506 78.65625 C 506 53.265388 493.09542 31.010071 473.46875 18.03125 z "
       style="opacity:0.05000000000000000;fill:url(#linearGradient3149);fill-opacity:1;stroke:none" />
  </g>
</svg>
