<svg xmlns="http://www.w3.org/2000/svg" xmlns:xlink="http://www.w3.org/1999/xlink" viewBox="0 0 512 512"><defs><filter id="7"><feGaussianBlur stdDeviation="3.7725"/></filter><linearGradient id="8" y1="19.564" x2="0" y2="504.02" gradientUnits="userSpaceOnUse"><stop stop-color="#f3f3f3"/><stop offset=".5" stop-color="#eee"/><stop offset="1" stop-color="#ebebeb"/></linearGradient><linearGradient xlink:href="#0" id="5" gradientUnits="userSpaceOnUse" gradientTransform="matrix(1.02835 0 0 1.46193 209.19-118.25)" x1="257" x2="362"/><linearGradient xlink:href="#0" id="6" gradientUnits="userSpaceOnUse" gradientTransform="matrix(1.0381 0 0 1.46193-337.29-118.25)" x1="257" x2="362"/><linearGradient xlink:href="#0" id="4" gradientUnits="userSpaceOnUse" gradientTransform="matrix(1.02835 0 0 1.46193 101.22-118.25)" x1="257" x2="362"/><linearGradient xlink:href="#0" id="3" gradientUnits="userSpaceOnUse" gradientTransform="matrix(1.0381 0 0 1.46193-10.289-118.25)" x1="257" x2="362"/><linearGradient id="0"><stop/><stop offset="1" stop-color="#fff"/></linearGradient><linearGradient xlink:href="#0" id="2" gradientUnits="userSpaceOnUse" gradientTransform="matrix(1.0381 0 0 1.46193-119.29-118.25)" x1="257" x2="362"/><linearGradient xlink:href="#0" id="1" gradientUnits="userSpaceOnUse" gradientTransform="matrix(1.0381 0 0 1.46193-228.29-118.25)" x1="257" x2="362"/></defs><path d="m78.66 6c-.929 0-1.861.028-2.781.063-.073.003-.146-.003-.219 0-.668.027-1.337.08-2 .125-.376.025-.751.063-1.125.094-.645.053-1.297.086-1.938.156-.965.106-1.922.232-2.875.375-.052.008-.104.023-.156.031-1.082.165-2.154.351-3.219.563-.459.091-.919.182-1.375.281-.39.085-.769.19-1.156.281-.647.152-1.297.299-1.938.469-.898.238-1.804.479-2.688.75-.211.065-.414.152-.625.219-.991.314-1.966.645-2.938 1-.817.298-1.635.611-2.438.938-.29.118-.587.222-.875.344-.136.057-.27.129-.406.188-.082.035-.169.058-.25.094-.717.311-1.42.636-2.125.969-.147.069-.291.148-.438.219-.947.455-1.889.943-2.813 1.438-.271.145-.544.289-.813.438-.414.228-.81.483-1.219.719-.52.3-1.051.594-1.563.906-.738.452-1.467.898-2.188 1.375-.031.021-.062.042-.094.063-.456.303-.895.625-1.344.938-.123.086-.252.163-.375.25-.524.37-1.049.742-1.563 1.125-1.835 1.371-3.618 2.84-5.313 4.375-.017.015-.046.016-.063.031-.526.477-1.02.977-1.531 1.469-.524.505-1.054 1.011-1.563 1.531-.512.523-1 1.055-1.5 1.594-.941 1.022-1.837 2.05-2.719 3.125-.631.769-1.244 1.58-1.844 2.375-.111.148-.233.289-.344.438-.526.71-1.031 1.427-1.531 2.156-.11.16-.235.308-.344.469-.013.019-.018.043-.031.063-.084.125-.167.249-.25.375-.47.708-.929 1.431-1.375 2.156-.071.116-.148.227-.219.344-.575.948-1.124 1.899-1.656 2.875-.152.278-.289.564-.438.844-.18.341-.356.687-.531 1.031-.243.479-.486.952-.719 1.438-.426.885-.828 1.783-1.219 2.688-.24.556-.461 1.124-.688 1.688-.038.095-.087.186-.125.281-.246.621-.489 1.245-.719 1.875-.332.909-.641 1.825-.938 2.75-.11.345-.238.684-.344 1.031-.301.99-.585 1.992-.844 3-.008.032-.023.062-.031.094-.267 1.046-.497 2.092-.719 3.156-.034.166-.06.334-.094.5-.426 2.117-.762 4.257-1 6.438-.035.323-.063.645-.094.969-.09.938-.165 1.895-.219 2.844-.017.29-.018.584-.031.875-.051 1.119-.094 2.243-.094 3.375v354.69 6c0 40.24 32.411 72.66 72.66 72.66h354.69c40.24 0 72.66-32.411 72.66-72.66v-354.69-6c0-1.259-.031-2.507-.094-3.75-.016-.323-.042-.647-.063-.969-.058-.917-.127-1.843-.219-2.75-.02-.2-.041-.394-.063-.594-.246-2.245-.587-4.447-1.031-6.625-.021-.104-.041-.209-.063-.313-.227-1.087-.476-2.15-.75-3.219-.011-.042-.02-.083-.031-.125-.19-.732-.413-1.464-.625-2.188-.212-.724-.423-1.442-.656-2.156-.258-.789-.529-1.567-.813-2.344-.23-.63-.472-1.254-.719-1.875-.038-.096-.087-.186-.125-.281-.239-.594-.465-1.195-.719-1.781-.378-.871-.777-1.741-1.188-2.594-.233-.485-.475-.958-.719-1.438-.287-.564-.574-1.132-.875-1.688-.051-.094-.105-.188-.156-.281-.513-.936-1.041-1.871-1.594-2.781-.212-.35-.438-.685-.656-1.031-.405-.642-.795-1.278-1.219-1.906-.809-1.199-1.685-2.354-2.563-3.5-.262-.341-.514-.695-.781-1.031-.189-.238-.371-.483-.563-.719-.093-.114-.188-.231-.281-.344-2.71-3.286-5.696-6.301-8.938-9.06-.293-.249-.578-.505-.875-.75-.268-.221-.541-.439-.813-.656-.636-.509-1.284-1.012-1.938-1.5-3.17-2.368-6.55-4.481-10.09-6.313-.617-.319-1.248-.636-1.875-.938-.155-.074-.313-.145-.469-.219-.785-.371-1.575-.719-2.375-1.063-.488-.209-.975-.426-1.469-.625-.735-.296-1.472-.571-2.219-.844-.392-.143-.793-.27-1.188-.406-.718-.248-1.459-.524-2.188-.75-.114-.035-.23-.059-.344-.094-.488-.149-.977-.267-1.469-.406-.357-.1-.703-.217-1.063-.313-.019-.005-.043.005-.063 0-.837-.221-1.683-.433-2.531-.625-.032-.007-.062-.024-.094-.031-.651-.146-1.311-.278-1.969-.406-1-.197-2.01-.376-3.03-.531-.063-.01-.125-.022-.188-.031-.952-.143-1.88-.269-2.844-.375-.836-.091-1.687-.156-2.531-.219-.176-.013-.355-.019-.531-.031-.735-.049-1.478-.097-2.219-.125-.92-.034-1.853-.063-2.781-.063h-285.84-68.844" filter="url(#7)" fill-opacity=".176"/><rect width="500" height="500" x="6" y="12" rx="72.64" opacity=".15"/><rect rx="72.64" y="6" x="6" height="500" width="500" fill="url(#8)"/><rect width="435" height="435" x="38.5" y="38.5" rx="63.2" fill="#cd1d31"/><path d="m101.69 38.5c-35.01 0-63.19 28.17-63.19 63.19v15c0-35.01 28.17-63.19 63.19-63.19h308.63c35.01 0 63.19 28.17 63.19 63.19v-15c0-35.01-28.17-63.19-63.19-63.19h-308.62" opacity=".2"/><path d="m78.66 6c-40.24 0-72.66 32.411-72.66 72.66v7c0-40.24 32.411-72.66 72.66-72.66h354.69c40.24 0 72.66 32.411 72.66 72.66v-7c0-40.24-32.411-72.66-72.66-72.66h-354.69" fill="#fff"/><g transform="translate(618.17 521.59)"><path d="m-402.05-90.89c-39.646-.852-57.02-1.66-61.76-2.873-13.698-3.503-23.929-13.08-28.677-26.848-1.497-4.339-2.141-11.593-3.298-37.13-1.27-28.04.095-79.15 2.405-90.03 3.061-14.424 14.913-26.575 29.645-30.392 14.698-3.809 203.67-3.809 218.37 0 13.07 3.386 24.07 13.455 28.443 26.04 1.444 4.153 1.848 7.136 2.719 20.11 2.062 30.703 1.136 94.99-1.554 107.78-2.899 13.792-13.664 25.583-27.299 29.902-5.332 1.689-14.951 2.273-52.778 3.203-24.349.599-83.27.73-106.22.237m149.42-30.692c4.226-1.068 8.492-3.528 11.07-6.387 4.845-5.363 6.787-11.275 7.473-22.752.595-9.959.933-9.659-10.832-9.646-4.963.005-9.351.228-9.751.495-.404.269-.93 3.707-1.185 7.742-.252 3.991-.622 7.911-.822 8.711-.433 1.731-4.129 3.159-6.582 2.543-2.871-.721-3.55-3.687-3.55-15.522v-10.577h15.81c14.956 0 15.847-.069 16.493-1.276.862-1.61.869-23.01.01-29.731-1.371-10.734-6.01-17.858-13.979-21.467-7.287-3.299-17.981-3.067-25.25.55-6.388 3.179-11.357 9.128-13.574 16.25-1.182 3.799-1.284 6.225-1.284 30.752 0 17.356.261 27.845.748 30.12 3.01 14.07 14.171 22.326 28.61 21.17 2.177-.174 5.141-.616 6.586-.981m-14.07-70.39c.184-5.285.466-6.794 1.484-7.917 1.436-1.585 5.387-1.894 7.202-.562 1.228.901 2.416 6.725 2.422 11.875l.004 3.134h-5.67-5.67l.227-6.53m-130.86 69.51c1.876-.557 5.344-2.336 7.707-3.954l4.296-2.941v2.02c0 4.428.339 4.57 10.886 4.57 8.737 0 9.576-.105 10.203-1.276.452-.845.683-16.884.683-47.45 0-41.1-.114-46.29-1.037-47.21-1.521-1.521-18.18-1.521-19.698 0-.917.917-1.037 5.12-1.037 36.28v35.24l-3.134 2.299c-4.091 3-6.445 3.092-7.01.27-.227-1.134-.412-18.15-.412-37.802 0-26.919-.195-35.936-.792-36.533-1.101-1.101-18.427-1.101-19.528 0-.599.599-.792 10.832-.792 42.01 0 46.754.016 46.933 4.713 51.631 3.818 3.818 8.614 4.732 14.951 2.85m89.19-.75c3.282-1.337 6.923-5.126 8.701-9.05l1.525-3.369v-34.636-34.636l-1.579-3.919c-2-4.97-6.555-9.644-10.549-10.831-1.591-.473-4.655-.851-6.81-.841-3.228.015-4.669.432-8.181 2.362-2.345 1.289-4.401 2.343-4.57 2.343-.169 0-.307-8.132-.307-18.07 0-15.871-.127-18.12-1.044-18.472-2.02-.775-18.443-.442-19.276.391-1.148 1.148-1.148 127.24 0 128.38.833.833 17.255 1.167 19.276.391.574-.22 1.044-1.089 1.044-1.931v-1.531l3.986 2.056c6.156 3.175 12.202 3.638 17.785 1.364m-19.297-18.529l-1.814-1.125v-28.556-28.556l2.239-1.068c2.917-1.391 5.372-.755 6.655 1.726 1.52 2.939 1.497 55.1-.025 57.27-1.257 1.795-4.431 1.933-7.05.306m-106.18 18.18c.603-.603.792-13.44.792-53.75v-52.959l9.731-.183 9.731-.183.182-10.506c.138-7.963-.022-10.635-.66-11.04-1.284-.815-59.717-.692-61.25.128-1.173.628-1.276 1.469-1.276 10.424 0 6.697.247 9.988.792 10.532.539.539 3.694.792 9.896.792h9.104v52.731c0 47.06.112 52.843 1.037 53.768.852.852 2.83 1.037 11.08 1.037 6.934 0 10.292-.245 10.838-.792m73.55-175.62c-6.241-2.032-11.271-6.164-13.961-11.468-2.589-5.104-2.817-8.506-2.6-38.741l.209-29.03 1.721-3.629c3.387-7.14 9.05-11.07 18.239-12.644 11.983-2.055 22.321 2.986 27.12 13.224l1.738 3.708.212 28.698c.151 20.452-.014 29.741-.574 32.33-1.718 7.934-6.554 14.05-13.13 16.6-4.612 1.79-14.824 2.302-18.972.951m12.885-16.779c1.128-1.054 2.178-2.849 2.411-4.123.227-1.241.324-14.232.216-28.869l-.197-26.612-1.817-1.562c-2.54-2.184-6.02-2.723-8.849-1.372-4.086 1.948-4.179 2.646-4.175 31.23.002 15.5.271 26.549.682 28.03 1.447 5.212 7.767 6.977 11.728 3.277m43.844 16.414c-3.246-.793-5.293-2.412-6.935-5.486l-1.493-2.794-.184-42.39-.184-42.39h8.239 8.239l.191 36.78c.105 20.229.435 37.27.733 37.874.298.602 1.373 1.438 2.388 1.859 2.339.969 5.135-.132 9.109-3.587l2.804-2.438v-35.24-35.24h8.576 8.576v46.18 46.18h-8.576-8.576v-5-5l-3.793 3.387c-6.351 5.67-13.94 8.572-19.12 7.307m-114.52-1.116c-.251-.251-.457-11.702-.457-25.445v-24.988l-11.215-36.869c-6.168-20.278-11.215-37.04-11.215-37.25 0-.208 4.258-.377 9.462-.377h9.462l6.207 24.467c6.112 24.09 6.765 26.324 7.489 25.6.278-.278 6.544-25.825 11.917-48.582.343-1.455.54-1.484 9.904-1.484 5.436 0 9.553.264 9.553.612 0 .337-4.824 16.15-10.721 35.13l-10.721 34.518-.33 27.379-.33 27.379-9.274.182c-5.101.1-9.48-.024-9.731-.275" opacity=".2"/><path d="m-417.05-105.89c-39.646-.852-57.02-1.66-61.76-2.873-13.698-3.503-23.929-13.08-28.677-26.848-1.497-4.339-2.141-11.593-3.298-37.13-1.27-28.04.095-79.15 2.405-90.03 3.061-14.424 14.913-26.575 29.645-30.392 14.698-3.809 203.67-3.809 218.37 0 13.07 3.386 24.07 13.455 28.443 26.04 1.444 4.153 1.848 7.136 2.719 20.11 2.062 30.703 1.136 94.99-1.554 107.78-2.899 13.792-13.664 25.583-27.299 29.902-5.332 1.689-14.951 2.273-52.778 3.203-24.349.599-83.27.73-106.22.237m149.42-30.692c4.226-1.068 8.492-3.528 11.07-6.387 4.845-5.363 6.787-11.275 7.473-22.752.595-9.959.933-9.659-10.832-9.646-4.963.005-9.351.228-9.751.495-.404.269-.93 3.707-1.185 7.742-.252 3.991-.622 7.911-.822 8.711-.433 1.731-4.129 3.159-6.582 2.543-2.871-.721-3.55-3.687-3.55-15.522v-10.577h15.81c14.956 0 15.847-.069 16.493-1.276.862-1.61.869-23.01.01-29.731-1.371-10.734-6.01-17.858-13.979-21.467-7.287-3.299-17.981-3.067-25.25.55-6.388 3.179-11.357 9.128-13.574 16.25-1.182 3.799-1.284 6.225-1.284 30.752 0 17.356.261 27.845.748 30.12 3.01 14.07 14.171 22.326 28.61 21.17 2.177-.174 5.141-.616 6.586-.981m-14.07-70.39c.184-5.285.466-6.794 1.484-7.917 1.436-1.585 5.387-1.894 7.202-.562 1.228.901 2.416 6.725 2.422 11.875l.004 3.134h-5.67-5.67l.227-6.53m-130.86 69.51c1.876-.557 5.344-2.336 7.707-3.954l4.296-2.941v2.02c0 4.428.339 4.57 10.886 4.57 8.737 0 9.576-.105 10.203-1.276.452-.845.683-16.884.683-47.45 0-41.1-.114-46.29-1.037-47.21-1.521-1.521-18.18-1.521-19.698 0-.917.917-1.037 5.12-1.037 36.28v35.24l-3.134 2.299c-4.091 3-6.445 3.092-7.01.27-.227-1.134-.412-18.15-.412-37.802 0-26.919-.195-35.936-.792-36.533-1.101-1.101-18.427-1.101-19.528 0-.599.599-.792 10.832-.792 42.01 0 46.754.016 46.933 4.713 51.631 3.818 3.818 8.614 4.732 14.951 2.85m89.19-.75c3.282-1.337 6.923-5.126 8.701-9.05l1.525-3.369v-34.636-34.636l-1.579-3.919c-2-4.97-6.555-9.644-10.549-10.831-1.591-.473-4.655-.851-6.81-.841-3.228.015-4.669.432-8.181 2.362-2.345 1.289-4.401 2.343-4.57 2.343-.169 0-.307-8.132-.307-18.07 0-15.871-.127-18.12-1.044-18.472-2.02-.775-18.443-.442-19.276.391-1.148 1.148-1.148 127.24 0 128.38.833.833 17.255 1.167 19.276.391.574-.22 1.044-1.089 1.044-1.931v-1.531l3.986 2.056c6.156 3.175 12.202 3.638 17.785 1.364m-19.297-18.529l-1.814-1.125v-28.556-28.556l2.239-1.068c2.917-1.391 5.372-.755 6.655 1.726 1.52 2.939 1.497 55.1-.025 57.27-1.257 1.795-4.431 1.933-7.05.306m-106.18 18.18c.603-.603.792-13.44.792-53.75v-52.959l9.731-.183 9.731-.183.182-10.506c.138-7.963-.022-10.635-.66-11.04-1.284-.815-59.717-.692-61.25.128-1.173.628-1.276 1.469-1.276 10.424 0 6.697.247 9.988.792 10.532.539.539 3.694.792 9.896.792h9.104v52.731c0 47.06.112 52.843 1.037 53.768.852.852 2.83 1.037 11.08 1.037 6.934 0 10.292-.245 10.838-.792m73.55-175.62c-6.241-2.032-11.271-6.164-13.961-11.468-2.589-5.104-2.817-8.506-2.6-38.741l.209-29.03 1.721-3.629c3.387-7.14 9.05-11.07 18.239-12.644 11.983-2.055 22.321 2.986 27.12 13.224l1.738 3.708.212 28.698c.151 20.452-.014 29.741-.574 32.33-1.718 7.934-6.554 14.05-13.13 16.6-4.612 1.79-14.824 2.302-18.972.951m12.885-16.779c1.128-1.054 2.178-2.849 2.411-4.123.227-1.241.324-14.232.216-28.869l-.197-26.612-1.817-1.562c-2.54-2.184-6.02-2.723-8.849-1.372-4.086 1.948-4.179 2.646-4.175 31.23.002 15.5.271 26.549.682 28.03 1.447 5.212 7.767 6.977 11.728 3.277m43.844 16.414c-3.246-.793-5.293-2.412-6.935-5.486l-1.493-2.794-.184-42.39-.184-42.39h8.239 8.239l.191 36.78c.105 20.229.435 37.27.733 37.874.298.602 1.373 1.438 2.388 1.859 2.339.969 5.135-.132 9.109-3.587l2.804-2.438v-35.24-35.24h8.576 8.576v46.18 46.18h-8.576-8.576v-5-5l-3.793 3.387c-6.351 5.67-13.94 8.572-19.12 7.307m-114.52-1.116c-.251-.251-.457-11.702-.457-25.445v-24.988l-11.215-36.869c-6.168-20.278-11.215-37.04-11.215-37.25 0-.208 4.258-.377 9.462-.377h9.462l6.207 24.467c6.112 24.09 6.765 26.324 7.489 25.6.278-.278 6.544-25.825 11.917-48.582.343-1.455.54-1.484 9.904-1.484 5.436 0 9.553.264 9.553.612 0 .337-4.824 16.15-10.721 35.13l-10.721 34.518-.33 27.379-.33 27.379-9.274.182c-5.101.1-9.48-.024-9.731-.275" fill="#dcdbdb"/></g><path d="m78.66 6c-14.863 0-28.67 4.43-40.16 12.03v475.94c11.486 7.602 25.293 12.03 40.16 12.03h68.844v-500h-68.844" opacity=".05" fill="url(#1)"/><path d="m147.5 6v500h109v-500h-109" opacity=".05" fill="url(#2)"/><path d="m256.5 6v500h109v-500h-109" opacity=".05" fill="url(#3)"/><path d="m365.5 6v500h67.844c14.854 0 28.643-4.438 40.13-12.03v-475.94c-11.482-7.593-25.27-12.03-40.12-12.03h-67.844" opacity=".05" fill="url(#4)"/><path d="m38.5 18.03c-19.614 12.981-32.5 35.24-32.5 60.63v354.69c0 25.381 12.886 47.644 32.5 60.63v-475.94" opacity=".05" fill="url(#6)"/><path d="m473.47 18.03v475.94c19.627-12.979 32.531-35.23 32.531-60.62v-354.69c0-25.391-12.905-47.646-32.531-60.62" opacity=".05" fill="url(#5)"/></svg>