<?xml version="1.0" encoding="UTF-8" standalone="no"?>
<svg
   xmlns:dc="http://purl.org/dc/elements/1.1/"
   xmlns:cc="http://creativecommons.org/ns#"
   xmlns:rdf="http://www.w3.org/1999/02/22-rdf-syntax-ns#"
   xmlns:svg="http://www.w3.org/2000/svg"
   xmlns="http://www.w3.org/2000/svg"
   xmlns:xlink="http://www.w3.org/1999/xlink"
   xmlns:sodipodi="http://sodipodi.sourceforge.net/DTD/sodipodi-0.dtd"
   xmlns:inkscape="http://www.inkscape.org/namespaces/inkscape"
   viewBox="0 0 512 512"
   id="svg2"
   version="1.1"
   inkscape:version="0.48.4 r9939"
   width="100%"
   height="100%"
   sodipodi:docname="yelp.svg">
  <sodipodi:namedview
     pagecolor="#444444"
     bordercolor="#666666"
     borderopacity="1"
     objecttolerance="10"
     gridtolerance="10"
     guidetolerance="10"
     inkscape:pageopacity="0"
     inkscape:pageshadow="2"
     inkscape:window-width="1310"
     inkscape:window-height="718"
     id="namedview6"
     showgrid="false"
     showguides="true"
     inkscape:guide-bbox="true"
     inkscape:zoom="0.5181105"
     inkscape:cx="-74.930126"
     inkscape:cy="267.49202"
     inkscape:window-x="54"
     inkscape:window-y="27"
     inkscape:window-maximized="1"
     inkscape:current-layer="svg2"
     inkscape:snap-midpoints="true"
     inkscape:snap-global="false">
    <sodipodi:guide
       id="guide2989"
       position="768.17591,433.35594"
       orientation="0,1" />
    <sodipodi:guide
       id="guide2995"
       position="473.05444,254.912"
       orientation="1,0" />
  </sodipodi:namedview>
  <metadata
     id="metadata10">
    <rdf:RDF>
      <cc:Work
         rdf:about="">
        <dc:format>image/svg+xml</dc:format>
        <dc:type
           rdf:resource="http://purl.org/dc/dcmitype/StillImage" />
        <dc:title></dc:title>
      </cc:Work>
    </rdf:RDF>
  </metadata>
  <defs
     id="defs8">
    <linearGradient
       id="linearGradient4379">
      <stop
         style="stop-color:#f3f3f3;stop-opacity:1;"
         offset="0"
         id="stop4381" />
      <stop
         id="stop4387"
         offset="0.5"
         style="stop-color:#eeeeee;stop-opacity:1;" />
      <stop
         style="stop-color:#ebebeb;stop-opacity:1;"
         offset="1"
         id="stop4383" />
    </linearGradient>
    <linearGradient
       id="linearGradient4996">
      <stop
         style="stop-color:#000000;stop-opacity:1;"
         offset="0"
         id="stop4998" />
      <stop
         style="stop-color:#ffffff;stop-opacity:1;"
         offset="1"
         id="stop5000" />
    </linearGradient>
    <linearGradient
       inkscape:collect="always"
       xlink:href="#linearGradient4996"
       id="linearGradient3108"
       gradientUnits="userSpaceOnUse"
       gradientTransform="matrix(1.0380952,0,0,1.4619252,-228.28943,-118.25286)"
       x1="257"
       y1="256"
       x2="362"
       y2="256" />
    <linearGradient
       inkscape:collect="always"
       xlink:href="#linearGradient4996"
       id="linearGradient3137"
       gradientUnits="userSpaceOnUse"
       gradientTransform="matrix(1.0380952,0,0,1.4619252,-119.28943,-118.25286)"
       x1="257"
       y1="256"
       x2="362"
       y2="256" />
    <linearGradient
       inkscape:collect="always"
       xlink:href="#linearGradient4996"
       id="linearGradient3141"
       gradientUnits="userSpaceOnUse"
       gradientTransform="matrix(1.0380952,0,0,1.4619252,-10.28943,-118.25286)"
       x1="257"
       y1="256"
       x2="362"
       y2="256" />
    <linearGradient
       inkscape:collect="always"
       xlink:href="#linearGradient4996"
       id="linearGradient3145"
       gradientUnits="userSpaceOnUse"
       gradientTransform="matrix(1.0283468,0,0,1.4619252,101.21591,-118.25286)"
       x1="257"
       y1="256"
       x2="362"
       y2="256" />
    <linearGradient
       inkscape:collect="always"
       xlink:href="#linearGradient4996"
       id="linearGradient3149"
       gradientUnits="userSpaceOnUse"
       gradientTransform="matrix(1.0283468,0,0,1.4619252,209.19233,-118.25286)"
       x1="257"
       y1="256"
       x2="362"
       y2="256" />
    <linearGradient
       inkscape:collect="always"
       xlink:href="#linearGradient4996"
       id="linearGradient3153"
       gradientUnits="userSpaceOnUse"
       gradientTransform="matrix(1.0380952,0,0,1.4619252,-337.28943,-118.25286)"
       x1="257"
       y1="256"
       x2="362"
       y2="256" />
    <filter
       inkscape:collect="always"
       id="filter4375">
      <feGaussianBlur
         inkscape:collect="always"
         stdDeviation="3.7725"
         id="feGaussianBlur4377" />
    </filter>
    <linearGradient
       inkscape:collect="always"
       xlink:href="#linearGradient4379"
       id="linearGradient4385"
       x1="243.40109"
       y1="19.563948"
       x2="243.40109"
       y2="504.01736"
       gradientUnits="userSpaceOnUse" />
    <linearGradient
       id="linearGradient4996-9">
      <stop
         id="stop4998-5"
         offset="0"
         style="stop-color:#000000;stop-opacity:1;" />
      <stop
         id="stop5000-0"
         offset="1"
         style="stop-color:#ffffff;stop-opacity:1;" />
    </linearGradient>
    <linearGradient
       y2="256"
       x2="362"
       y1="256"
       x1="257"
       gradientTransform="matrix(1.0380952,0,0,1.4619252,-337.28943,-118.25286)"
       gradientUnits="userSpaceOnUse"
       id="linearGradient3153-2"
       xlink:href="#linearGradient4996-2"
       inkscape:collect="always" />
    <linearGradient
       y2="256"
       x2="362"
       y1="256"
       x1="257"
       gradientTransform="matrix(1.0283468,0,0,1.4619252,209.19233,-118.25286)"
       gradientUnits="userSpaceOnUse"
       id="linearGradient3149-7"
       xlink:href="#linearGradient4996-2"
       inkscape:collect="always" />
    <linearGradient
       y2="256"
       x2="362"
       y1="256"
       x1="257"
       gradientTransform="matrix(1.0283468,0,0,1.4619252,101.21591,-118.25286)"
       gradientUnits="userSpaceOnUse"
       id="linearGradient3145-33"
       xlink:href="#linearGradient4996-2"
       inkscape:collect="always" />
    <linearGradient
       y2="256"
       x2="362"
       y1="256"
       x1="257"
       gradientTransform="matrix(1.0380952,0,0,1.4619252,-10.28943,-118.25286)"
       gradientUnits="userSpaceOnUse"
       id="linearGradient3141-6"
       xlink:href="#linearGradient4996-2"
       inkscape:collect="always" />
    <linearGradient
       y2="256"
       x2="362"
       y1="256"
       x1="257"
       gradientTransform="matrix(1.0380952,0,0,1.4619252,-119.28943,-118.25286)"
       gradientUnits="userSpaceOnUse"
       id="linearGradient3137-3"
       xlink:href="#linearGradient4996-2"
       inkscape:collect="always" />
    <linearGradient
       y2="256"
       x2="362"
       y1="256"
       x1="257"
       gradientTransform="matrix(1.0380952,0,0,1.4619252,-228.28943,-118.25286)"
       gradientUnits="userSpaceOnUse"
       id="linearGradient3108-8"
       xlink:href="#linearGradient4996-2"
       inkscape:collect="always" />
    <linearGradient
       id="linearGradient4996-2">
      <stop
         id="stop4998-6"
         offset="0"
         style="stop-color:#000000;stop-opacity:1;" />
      <stop
         id="stop5000-6"
         offset="1"
         style="stop-color:#ffffff;stop-opacity:1;" />
    </linearGradient>
  </defs>
  <path
     style="opacity:1;fill:#000000;fill-opacity:0.17647059000000001;stroke:none;filter:url(#filter4375)"
     d="M 78.65625 6 C 77.727284 6 76.7954 6.028201 75.875 6.0625 C 75.802369 6.0652118 75.728825 6.059577 75.65625 6.0625 C 74.988725 6.0893847 74.318909 6.1428818 73.65625 6.1875 C 73.280206 6.2128391 72.905683 6.2502503 72.53125 6.28125 C 71.885867 6.3345848 71.234134 6.3675421 70.59375 6.4375 C 69.628992 6.5431372 68.67162 6.6697176 67.71875 6.8125 C 67.666309 6.8203518 67.614904 6.835787 67.5625 6.84375 C 66.480857 7.0082531 65.408958 7.1949037 64.34375 7.40625 C 63.884894 7.4971842 63.424398 7.5880194 62.96875 7.6875 C 62.579098 7.7726525 62.199755 7.8774077 61.8125 7.96875 C 61.165363 8.1211825 60.515221 8.2679802 59.875 8.4375 C 58.977088 8.6758086 58.071221 8.9162011 57.1875 9.1875 C 56.976031 9.2523648 56.773131 9.3395193 56.5625 9.40625 C 55.571868 9.72038 54.596482 10.051502 53.625 10.40625 C 52.80836 10.704455 51.989948 11.0175 51.1875 11.34375 C 50.897854 11.461445 50.600246 11.566197 50.3125 11.6875 C 50.176196 11.744981 50.042123 11.816716 49.90625 11.875 C 49.824668 11.909989 49.737675 11.933472 49.65625 11.96875 C 48.938842 12.279643 48.236264 12.604441 47.53125 12.9375 C 47.384379 13.006849 47.240073 13.085948 47.09375 13.15625 C 46.146324 13.611669 45.205003 14.099116 44.28125 14.59375 C 44.010496 14.738777 43.737417 14.882905 43.46875 15.03125 C 43.054856 15.259696 42.65884 15.513784 42.25 15.75 C 41.730466 16.0502 41.198724 16.34365 40.6875 16.65625 C 39.949085 17.107771 39.220561 17.554376 38.5 18.03125 C 38.468637 18.052007 38.437579 18.072946 38.40625 18.09375 C 37.950536 18.396369 37.510847 18.718679 37.0625 19.03125 C 36.93921 19.117203 36.810226 19.194551 36.6875 19.28125 C 36.163693 19.651283 35.638368 20.022798 35.125 20.40625 C 33.290177 21.777117 31.50659 23.24624 29.8125 24.78125 C 29.795638 24.79654 29.766847 24.797194 29.75 24.8125 C 29.224497 25.289542 28.729955 25.789121 28.21875 26.28125 C 27.694886 26.785782 27.164727 27.292488 26.65625 27.8125 C 26.144503 28.335837 25.652037 28.867606 25.15625 29.40625 C 24.215559 30.427897 23.318806 31.456477 22.4375 32.53125 C 21.806506 33.300601 21.193184 34.110796 20.59375 34.90625 C 20.48231 35.054221 20.360329 35.194896 20.25 35.34375 C 19.723598 36.053613 19.21948 36.770435 18.71875 37.5 C 18.60915 37.659719 18.48335 37.808107 18.375 37.96875 C 18.362086 37.987892 18.356646 38.012094 18.34375 38.03125 C 18.259632 38.156225 18.177108 38.280721 18.09375 38.40625 C 17.623298 39.114511 17.164683 39.836916 16.71875 40.5625 C 16.647328 40.678799 16.570784 40.789515 16.5 40.90625 C 15.924756 41.854127 15.376169 42.805321 14.84375 43.78125 C 14.692065 44.059253 14.554393 44.344787 14.40625 44.625 C 14.225983 44.96599 14.049974 45.312036 13.875 45.65625 C 13.63151 46.13532 13.389361 46.608561 13.15625 47.09375 C 12.730634 47.978942 12.32789 48.876356 11.9375 49.78125 C 11.697576 50.33769 11.476337 50.90513 11.25 51.46875 C 11.211649 51.564217 11.162958 51.654331 11.125 51.75 C 10.878581 52.371259 10.635931 52.995354 10.40625 53.625 C 10.074634 54.533596 9.7648227 55.449625 9.46875 56.375 C 9.3582604 56.72046 9.2304578 57.058529 9.125 57.40625 C 8.8244173 58.396667 8.5403511 59.398152 8.28125 60.40625 C 8.2731511 60.437819 8.2580577 60.468414 8.25 60.5 C 7.9825799 61.546421 7.7529168 62.591906 7.53125 63.65625 C 7.4967817 63.821826 7.4708457 63.990255 7.4375 64.15625 C 7.011883 66.273722 6.6758491 68.412789 6.4375 70.59375 C 6.4022606 70.916326 6.3747851 71.238642 6.34375 71.5625 C 6.2537906 72.500662 6.1792302 73.457785 6.125 74.40625 C 6.1084109 74.696568 6.1069502 74.990008 6.09375 75.28125 C 6.0430557 76.400053 6 77.5245 6 78.65625 L 6 433.34375 L 6 439.34375 C 6 479.58856 38.411442 512 78.65625 512 L 433.34375 512 C 473.58856 512 506 479.58856 506 439.34375 L 506 84.65625 L 506 78.65625 C 506 77.397481 505.96893 76.148858 505.90625 74.90625 C 505.88997 74.583084 505.8642 74.259513 505.84375 73.9375 C 505.7854 73.020381 505.7168 72.094823 505.625 71.1875 C 505.60482 70.987629 505.58428 70.793129 505.5625 70.59375 C 505.31685 68.348594 504.97537 66.146302 504.53125 63.96875 C 504.51005 63.864628 504.49039 63.760207 504.46875 63.65625 C 504.24208 62.56918 503.99317 61.505818 503.71875 60.4375 C 503.70802 60.395586 503.69831 60.354385 503.6875 60.3125 C 503.49794 59.580022 503.27406 58.848167 503.0625 58.125 C 502.85099 57.400787 502.63943 56.683269 502.40625 55.96875 C 502.14838 55.179706 501.87757 54.401717 501.59375 53.625 C 501.36407 52.995354 501.12142 52.371259 500.875 51.75 C 500.837 51.654331 500.7884 51.564216 500.75 51.46875 C 500.51143 50.874675 500.28491 50.273592 500.03125 49.6875 C 499.6536 48.816464 499.2541 47.946468 498.84375 47.09375 C 498.61064 46.608561 498.36849 46.13532 498.125 45.65625 C 497.83796 45.092248 497.55122 44.524042 497.25 43.96875 C 497.19912 43.874852 497.14503 43.781145 497.09375 43.6875 C 496.58077 42.751755 496.05244 41.816114 495.5 40.90625 C 495.28765 40.556046 495.06183 40.221258 494.84375 39.875 C 494.43899 39.233117 494.04913 38.596743 493.625 37.96875 C 492.81616 36.769544 491.93973 35.615178 491.0625 34.46875 C 490.80093 34.127365 490.54872 33.774036 490.28125 33.4375 C 490.09255 33.199768 489.91036 32.954032 489.71875 32.71875 C 489.62597 32.604964 489.53096 32.488208 489.4375 32.375 C 486.72765 29.088725 483.7416 26.073745 480.5 23.3125 C 480.20738 23.063287 479.92162 22.807113 479.625 22.5625 C 479.35716 22.341642 479.08356 22.123311 478.8125 21.90625 C 478.17676 21.397149 477.52808 20.89412 476.875 20.40625 C 473.70458 18.038152 470.32509 15.925311 466.78125 14.09375 C 466.16445 13.77467 465.53332 13.458103 464.90625 13.15625 C 464.75142 13.08186 464.59295 13.010824 464.4375 12.9375 C 463.65263 12.56654 462.86266 12.218496 462.0625 11.875 C 461.57467 11.666006 461.08708 11.448572 460.59375 11.25 C 459.85871 10.953561 459.12187 10.67922 458.375 10.40625 C 457.98321 10.263334 457.58245 10.13635 457.1875 10 C 456.46909 9.7515393 455.72856 9.4764502 455 9.25 C 454.8864 9.2148134 454.77009 9.1908956 454.65625 9.15625 C 454.16839 9.007218 453.67972 8.8890238 453.1875 8.75 C 452.83049 8.6495592 452.48425 8.5326228 452.125 8.4375 C 452.10552 8.4323219 452.08198 8.4426624 452.0625 8.4375 C 451.22583 8.2167138 450.37964 8.0040441 449.53125 7.8125 C 449.49951 7.8053012 449.46926 7.7884074 449.4375 7.78125 C 448.78627 7.6351458 448.12658 7.5035858 447.46875 7.375 C 446.46573 7.1778899 445.45509 6.9992871 444.4375 6.84375 C 444.37488 6.8342345 444.31267 6.8218566 444.25 6.8125 C 443.29794 6.6695311 442.37023 6.5432958 441.40625 6.4375 C 440.57048 6.3461977 439.71923 6.2816821 438.875 6.21875 C 438.69908 6.2055933 438.52002 6.1994068 438.34375 6.1875 C 437.60905 6.1380308 436.86567 6.0901545 436.125 6.0625 C 435.20525 6.0281378 434.27212 6 433.34375 6 L 147.5 6 L 78.65625 6 z "
     id="path3492" />
  <rect
     style="opacity:0.15;fill:#000000;fill-opacity:1;stroke:none"
     id="rect5028"
     width="500"
     height="500"
     x="6"
     y="12"
     rx="72.644058"
     ry="72.644058" />
  <rect
     ry="72.644058"
     rx="72.644058"
     y="6"
     x="6"
     height="500"
     width="500"
     id="rect4979"
     style="fill:url(#linearGradient4385);fill-opacity:1;stroke:none" />
  <rect
     style="fill:#cd1d31;fill-opacity:1;stroke:none"
     id="rect4981"
     width="434.99997"
     height="434.99997"
     x="38.500011"
     y="38.500011"
     rx="63.200329"
     ry="63.200329" />
  <path
     style="fill:#000000;fill-opacity:1;stroke:none;opacity:0.2"
     d="M 101.6875 38.5 C 66.674518 38.5 38.5 66.674518 38.5 101.6875 L 38.5 116.6875 C 38.5 81.674518 66.674518 53.5 101.6875 53.5 L 410.3125 53.5 C 445.32548 53.5 473.5 81.674518 473.5 116.6875 L 473.5 101.6875 C 473.5 66.674518 445.32548 38.5 410.3125 38.5 L 101.6875 38.5 z "
     id="rect3187" />
  <path
     style="fill:#ffffff;fill-opacity:1;stroke:none"
     d="M 78.65625 6 C 38.411442 6 6 38.411442 6 78.65625 L 6 85.65625 C 6 45.411442 38.411442 13 78.65625 13 L 433.34375 13 C 473.58856 13 506 45.411442 506 85.65625 L 506 78.65625 C 506 38.411442 473.58856 6 433.34375 6 L 78.65625 6 z "
     id="rect4349" />
  <g
     id="g3109"
     transform="translate(618.17055,521.58684)">
    <path
       style="opacity:0.2;fill:#000000;fill-opacity:1"
       d="m -402.04569,-90.88939 c -39.64554,-0.85181 -57.01735,-1.65989 -61.76001,-2.87286 -13.69765,-3.50327 -23.9286,-13.08158 -28.67734,-26.84802 -1.49673,-4.33898 -2.14102,-11.59263 -3.29759,-37.12646 -1.27018,-28.04052 0.0951,-79.14658 2.40524,-90.03313 3.06062,-14.42359 14.91318,-26.57486 29.64501,-30.39217 14.69804,-3.80856 203.67236,-3.80856 218.37041,0 13.06842,3.38629 24.06544,13.45525 28.44287,26.04256 1.44433,4.15317 1.84774,7.13649 2.71893,20.10685 2.06227,30.70332 1.1355,94.98762 -1.55386,107.78148 -2.89909,13.79163 -13.66373,25.58288 -27.29889,29.90237 -5.33172,1.68905 -14.95083,2.27274 -52.77835,3.20264 -24.34856,0.59855 -83.26513,0.72987 -106.21642,0.23674 z m 149.41764,-30.69174 c 4.22591,-1.06771 8.49201,-3.52795 11.07481,-6.38681 4.84531,-5.36318 6.78704,-11.27464 7.4732,-22.75166 0.59543,-9.95936 0.9326,-9.65912 -10.83226,-9.64595 -4.96328,0.005 -9.35111,0.22821 -9.75073,0.4948 -0.40398,0.2695 -0.92998,3.70675 -1.18471,7.74172 -0.25199,3.99136 -0.6218,7.91147 -0.8218,8.71136 -0.43272,1.73058 -4.12894,3.15887 -6.58163,2.54328 -2.87147,-0.72069 -3.55001,-3.68744 -3.55001,-15.52169 l 0,-10.57686 15.8103,0 c 14.95596,0 15.84719,-0.069 16.49323,-1.27609 0.86155,-1.60981 0.86896,-23.00768 0.0103,-29.73119 -1.37083,-10.73395 -6.01019,-17.8583 -13.97896,-21.46655 -7.28668,-3.29939 -17.98141,-3.06657 -25.24871,0.54968 -6.38761,3.1785 -11.3567,9.12751 -13.57356,16.25031 -1.18239,3.79903 -1.28365,6.22493 -1.28365,30.75217 0,17.35595 0.26052,27.84512 0.74819,30.12384 3.01053,14.0671 14.1712,22.32564 28.60976,21.17033 2.17711,-0.17421 5.14092,-0.61552 6.58624,-0.98069 z m -14.07002,-70.39384 c 0.18355,-5.28532 0.46625,-6.79394 1.48354,-7.91675 1.43611,-1.58509 5.38721,-1.89366 7.2025,-0.56249 1.22807,0.90055 2.41615,6.7247 2.42243,11.87513 l 0.004,3.13372 -5.66952,0 -5.66952,0 0.22675,-6.52961 z m -130.85697,69.51049 c 1.87587,-0.55707 5.34385,-2.33637 7.70663,-3.95399 l 4.29595,-2.94113 0,2.01818 c 0,4.42809 0.33883,4.57034 10.88554,4.57034 8.73659,0 9.57582,-0.10497 10.20259,-1.27609 0.45211,-0.84477 0.68294,-16.88383 0.68294,-47.45338 0,-41.09973 -0.11399,-46.2913 -1.03672,-47.21402 -1.52148,-1.52149 -18.17614,-1.52149 -19.69763,0 -0.91659,0.91659 -1.03672,5.12017 -1.03672,36.2787 l 0,35.24199 -3.13371,2.2991 c -4.09059,3.00114 -6.44528,3.09189 -7.00963,0.27017 -0.22678,-1.13391 -0.41233,-18.14503 -0.41233,-37.80249 0,-26.91879 -0.19541,-35.93625 -0.79167,-36.53251 -1.10125,-1.10125 -18.42674,-1.10125 -19.52799,0 -0.59886,0.59885 -0.79168,10.83193 -0.79168,42.01446 0,46.75373 0.0164,46.93346 4.71349,51.63054 3.81788,3.81787 8.61365,4.73211 14.95094,2.85013 z m 89.19092,-0.7499 c 3.28166,-1.33677 6.92343,-5.12558 8.70064,-9.05192 l 1.52516,-3.3695 0,-34.63579 0,-34.63579 -1.57891,-3.91938 c -2.00213,-4.96995 -6.55455,-9.6438 -10.5494,-10.83078 -1.59064,-0.47263 -4.65523,-0.85089 -6.81018,-0.84058 -3.22784,0.0154 -4.6691,0.43155 -8.18108,2.36197 -2.34465,1.28878 -4.40122,2.34324 -4.57015,2.34324 -0.16893,0 -0.30715,-8.13239 -0.30715,-18.07198 0,-15.87068 -0.12711,-18.12075 -1.04356,-18.47242 -2.02066,-0.7754 -18.44278,-0.4421 -19.27611,0.39123 -1.14809,1.14809 -1.14809,127.23523 0,128.38333 0.83333,0.83333 17.25545,1.16663 19.27611,0.39122 0.57396,-0.22024 1.04356,-1.08937 1.04356,-1.93139 l 0,-1.53094 3.98575,2.05561 c 6.15584,3.17481 12.2015,3.63843 17.78532,1.36387 z m -19.29709,-18.52934 -1.81425,-1.12484 0,-28.5561 0,-28.5561 2.23943,-1.06791 c 2.91741,-1.39122 5.37225,-0.75462 6.65491,1.72579 1.51984,2.93903 1.4967,55.09975 -0.0254,57.27286 -1.25719,1.79489 -4.43145,1.93271 -7.05468,0.3063 z m -106.18343,18.18097 c 0.60259,-0.6026 0.79167,-13.4399 0.79167,-53.75031 l 0,-52.95862 9.73101,-0.18258 9.73101,-0.18256 0.18227,-10.50602 c 0.13815,-7.96302 -0.0216,-10.63536 -0.65973,-11.04037 -1.28393,-0.8148 -59.71711,-0.69231 -61.25061,0.12839 -1.17317,0.62787 -1.27609,1.46851 -1.27609,10.42373 0,6.69653 0.24742,9.9882 0.79168,10.53246 0.53926,0.53925 3.69448,0.79167 9.89594,0.79167 l 9.10426,0 0,52.73122 c 0,47.05784 0.11155,52.84277 1.03672,53.76794 0.8517,0.85171 2.8297,1.03672 11.08346,1.03672 6.93448,0 10.29197,-0.24524 10.83841,-0.79167 z m 73.55061,-175.61698 c -6.24092,-2.03227 -11.27115,-6.16415 -13.96089,-11.46762 -2.58863,-5.10412 -2.81693,-8.50617 -2.59972,-38.74075 l 0.20853,-29.0281 1.72148,-3.62851 c 3.38737,-7.13988 9.05476,-11.06866 18.2387,-12.64354 11.98263,-2.05479 22.32074,2.98598 27.12129,13.2241 l 1.7385,3.70768 0.21192,28.69823 c 0.15102,20.4521 -0.0138,29.74084 -0.57367,32.32674 -1.71779,7.93424 -6.55399,14.04658 -13.13463,16.60048 -4.61176,1.78978 -14.82402,2.30186 -18.97151,0.95129 z m 12.88503,-16.77916 c 1.12795,-1.05367 2.17775,-2.84906 2.41094,-4.12331 0.22719,-1.24135 0.32439,-14.23229 0.21601,-28.86875 l -0.19705,-26.61176 -1.81686,-1.56227 c -2.5397,-2.18382 -6.01567,-2.72265 -8.84868,-1.37169 -4.0856,1.94829 -4.1788,2.64554 -4.17469,31.2315 0.002,15.50027 0.27124,26.54907 0.68245,28.02967 1.44743,5.21157 7.76655,6.97705 11.72788,3.27661 z m 43.84444,16.41371 c -3.24571,-0.79279 -5.29311,-2.41229 -6.9352,-5.48577 l -1.49288,-2.79421 -0.18355,-42.38761 -0.18355,-42.38761 8.23914,0 8.23914,0 0.19103,36.77991 c 0.10506,20.22896 0.43502,37.27227 0.73323,37.87404 0.29821,0.60177 1.37301,1.43825 2.38843,1.85886 2.33948,0.96904 5.13491,-0.13171 9.10943,-3.58702 l 2.80385,-2.43757 0,-35.2441 0,-35.24412 8.57648,0 8.57648,0 0,46.18106 0,46.18105 -8.57648,0 -8.57648,0 0,-5.00074 0,-5.00074 -3.79345,3.38709 c -6.35067,5.67038 -13.94009,8.57165 -19.11562,7.30748 z m -114.5172,-1.11557 c -0.25144,-0.25144 -0.45716,-11.70173 -0.45716,-25.4451 l 0,-24.98794 -11.2154,-36.86924 c -6.16847,-20.27808 -11.2154,-37.03902 -11.2154,-37.24652 0,-0.20751 4.25781,-0.37729 9.4618,-0.37729 l 9.4618,0 6.20677,24.46681 c 6.11153,24.09138 6.76474,26.32415 7.4893,25.5996 0.27788,-0.27789 6.54424,-25.82471 11.91664,-48.58202 0.34346,-1.4549 0.54024,-1.48439 9.90393,-1.48439 5.43616,0 9.5535,0.2639 9.5535,0.61232 0,0.33679 -4.82427,16.14555 -10.7206,35.13059 l -10.7206,34.51826 -0.32986,27.37877 -0.32987,27.37877 -9.27385,0.18227 c -5.10061,0.10024 -9.47957,-0.0235 -9.731,-0.27489 z"
       id="path3107"
       inkscape:connector-curvature="0" />
    <path
       inkscape:connector-curvature="0"
       id="path3105"
       d="m -417.04569,-105.88939 c -39.64554,-0.85181 -57.01735,-1.65989 -61.76001,-2.87286 -13.69765,-3.50327 -23.9286,-13.08158 -28.67734,-26.84802 -1.49673,-4.33898 -2.14102,-11.59263 -3.29759,-37.12646 -1.27018,-28.04052 0.0951,-79.14658 2.40524,-90.03313 3.06062,-14.42359 14.91318,-26.57486 29.64501,-30.39217 14.69804,-3.80856 203.67236,-3.80856 218.37041,0 13.06842,3.38629 24.06544,13.45525 28.44287,26.04256 1.44433,4.15317 1.84774,7.13649 2.71893,20.10685 2.06227,30.70332 1.1355,94.98762 -1.55386,107.78148 -2.89909,13.79163 -13.66373,25.58288 -27.29889,29.90237 -5.33172,1.68905 -14.95083,2.27274 -52.77835,3.20264 -24.34856,0.59855 -83.26513,0.72987 -106.21642,0.23674 z m 149.41764,-30.69174 c 4.22591,-1.06771 8.49201,-3.52795 11.07481,-6.38681 4.84531,-5.36318 6.78704,-11.27464 7.4732,-22.75166 0.59543,-9.95936 0.9326,-9.65912 -10.83226,-9.64595 -4.96328,0.005 -9.35111,0.22821 -9.75073,0.4948 -0.40398,0.2695 -0.92998,3.70675 -1.18471,7.74172 -0.25199,3.99136 -0.6218,7.91147 -0.8218,8.71136 -0.43272,1.73058 -4.12894,3.15887 -6.58163,2.54328 -2.87147,-0.72069 -3.55001,-3.68744 -3.55001,-15.52169 l 0,-10.57686 15.8103,0 c 14.95596,0 15.84719,-0.069 16.49323,-1.27609 0.86155,-1.60981 0.86896,-23.00768 0.0103,-29.73119 -1.37083,-10.73395 -6.01019,-17.8583 -13.97896,-21.46655 -7.28668,-3.29939 -17.98141,-3.06657 -25.24871,0.54968 -6.38761,3.1785 -11.3567,9.12751 -13.57356,16.25031 -1.18239,3.79903 -1.28365,6.22493 -1.28365,30.75217 0,17.35595 0.26052,27.84512 0.74819,30.12384 3.01053,14.0671 14.1712,22.32564 28.60976,21.17033 2.17711,-0.17421 5.14092,-0.61552 6.58624,-0.98069 z m -14.07002,-70.39384 c 0.18355,-5.28532 0.46625,-6.79394 1.48354,-7.91675 1.43611,-1.58509 5.38721,-1.89366 7.2025,-0.56249 1.22807,0.90055 2.41615,6.7247 2.42243,11.87513 l 0.004,3.13372 -5.66952,0 -5.66952,0 0.22675,-6.52961 z m -130.85697,69.51049 c 1.87587,-0.55707 5.34385,-2.33637 7.70663,-3.95399 l 4.29595,-2.94113 0,2.01818 c 0,4.42809 0.33883,4.57034 10.88554,4.57034 8.73659,0 9.57582,-0.10497 10.20259,-1.27609 0.45211,-0.84477 0.68294,-16.88383 0.68294,-47.45338 0,-41.09973 -0.11399,-46.2913 -1.03672,-47.21402 -1.52148,-1.52149 -18.17614,-1.52149 -19.69763,0 -0.91659,0.91659 -1.03672,5.12017 -1.03672,36.2787 l 0,35.24199 -3.13371,2.2991 c -4.09059,3.00114 -6.44528,3.09189 -7.00963,0.27017 -0.22678,-1.13391 -0.41233,-18.14503 -0.41233,-37.80249 0,-26.91879 -0.19541,-35.93625 -0.79167,-36.53251 -1.10125,-1.10125 -18.42674,-1.10125 -19.52799,0 -0.59886,0.59885 -0.79168,10.83193 -0.79168,42.01446 0,46.75373 0.0164,46.93346 4.71349,51.63054 3.81788,3.81787 8.61365,4.73211 14.95094,2.85013 z m 89.19092,-0.7499 c 3.28166,-1.33677 6.92343,-5.12558 8.70064,-9.05192 l 1.52516,-3.3695 0,-34.63579 0,-34.63579 -1.57891,-3.91938 c -2.00213,-4.96995 -6.55455,-9.6438 -10.5494,-10.83078 -1.59064,-0.47263 -4.65523,-0.85089 -6.81018,-0.84058 -3.22784,0.0154 -4.6691,0.43155 -8.18108,2.36197 -2.34465,1.28878 -4.40122,2.34324 -4.57015,2.34324 -0.16893,0 -0.30715,-8.13239 -0.30715,-18.07198 0,-15.87068 -0.12711,-18.12075 -1.04356,-18.47242 -2.02066,-0.7754 -18.44278,-0.4421 -19.27611,0.39123 -1.14809,1.14809 -1.14809,127.23523 0,128.38333 0.83333,0.83333 17.25545,1.16663 19.27611,0.39122 0.57396,-0.22024 1.04356,-1.08937 1.04356,-1.93139 l 0,-1.53094 3.98575,2.05561 c 6.15584,3.17481 12.2015,3.63843 17.78532,1.36387 z m -19.29709,-18.52934 -1.81425,-1.12484 0,-28.5561 0,-28.5561 2.23943,-1.06791 c 2.91741,-1.39122 5.37225,-0.75462 6.65491,1.72579 1.51984,2.93903 1.4967,55.09975 -0.0254,57.27286 -1.25719,1.79489 -4.43145,1.93271 -7.05468,0.3063 z m -106.18343,18.18097 c 0.60259,-0.6026 0.79167,-13.4399 0.79167,-53.75031 l 0,-52.95862 9.73101,-0.18258 9.73101,-0.18256 0.18227,-10.50602 c 0.13815,-7.96302 -0.0216,-10.63536 -0.65973,-11.04037 -1.28393,-0.8148 -59.71711,-0.69231 -61.25061,0.12839 -1.17317,0.62787 -1.27609,1.46851 -1.27609,10.42373 0,6.69653 0.24742,9.9882 0.79168,10.53246 0.53926,0.53925 3.69448,0.79167 9.89594,0.79167 l 9.10426,0 0,52.73122 c 0,47.05784 0.11155,52.84277 1.03672,53.76794 0.8517,0.85171 2.8297,1.03672 11.08346,1.03672 6.93448,0 10.29197,-0.24524 10.83841,-0.79167 z m 73.55061,-175.61698 c -6.24092,-2.03227 -11.27115,-6.16415 -13.96089,-11.46762 -2.58863,-5.10412 -2.81693,-8.50617 -2.59972,-38.74075 l 0.20853,-29.0281 1.72148,-3.62851 c 3.38737,-7.13988 9.05476,-11.06866 18.2387,-12.64354 11.98263,-2.05479 22.32074,2.98598 27.12129,13.2241 l 1.7385,3.70768 0.21192,28.69823 c 0.15102,20.4521 -0.0138,29.74084 -0.57367,32.32674 -1.71779,7.93424 -6.55399,14.04658 -13.13463,16.60048 -4.61176,1.78978 -14.82402,2.30186 -18.97151,0.95129 z m 12.88503,-16.77916 c 1.12795,-1.05367 2.17775,-2.84906 2.41094,-4.12331 0.22719,-1.24135 0.32439,-14.23229 0.21601,-28.86875 l -0.19705,-26.61176 -1.81686,-1.56227 c -2.5397,-2.18382 -6.01567,-2.72265 -8.84868,-1.37169 -4.0856,1.94829 -4.1788,2.64554 -4.17469,31.2315 0.002,15.50027 0.27124,26.54907 0.68245,28.02967 1.44743,5.21157 7.76655,6.97705 11.72788,3.27661 z m 43.84444,16.41371 c -3.24571,-0.79279 -5.29311,-2.41229 -6.9352,-5.48577 l -1.49288,-2.79421 -0.18355,-42.38761 -0.18355,-42.38761 8.23914,0 8.23914,0 0.19103,36.77991 c 0.10506,20.22896 0.43502,37.27227 0.73323,37.87404 0.29821,0.60177 1.37301,1.43825 2.38843,1.85886 2.33948,0.96904 5.13491,-0.13171 9.10943,-3.58702 l 2.80385,-2.43757 0,-35.2441 0,-35.24412 8.57648,0 8.57648,0 0,46.18106 0,46.18105 -8.57648,0 -8.57648,0 0,-5.00074 0,-5.00074 -3.79345,3.38709 c -6.35067,5.67038 -13.94009,8.57165 -19.11562,7.30748 z m -114.5172,-1.11557 c -0.25144,-0.25144 -0.45716,-11.70173 -0.45716,-25.4451 l 0,-24.98794 -11.2154,-36.86924 c -6.16847,-20.27808 -11.2154,-37.03902 -11.2154,-37.24652 0,-0.20751 4.25781,-0.37729 9.4618,-0.37729 l 9.4618,0 6.20677,24.46681 c 6.11153,24.09138 6.76474,26.32415 7.4893,25.5996 0.27788,-0.27789 6.54424,-25.82471 11.91664,-48.58202 0.34346,-1.4549 0.54024,-1.48439 9.90393,-1.48439 5.43616,0 9.5535,0.2639 9.5535,0.61232 0,0.33679 -4.82427,16.14555 -10.7206,35.13059 l -10.7206,34.51826 -0.32986,27.37877 -0.32987,27.37877 -9.27385,0.18227 c -5.10061,0.10024 -9.47957,-0.0235 -9.731,-0.27489 z"
       style="fill:#dcdbdb;fill-opacity:1" />
  </g>
  <g
     id="g3167">
    <path
       id="rect3068"
       d="M 78.65625 6 C 63.792798 6 49.986224 10.429561 38.5 18.03125 L 38.5 493.96875 C 49.986224 501.57044 63.792798 506 78.65625 506 L 147.5 506 L 147.5 6 L 78.65625 6 z "
       style="opacity:0.05000000000000000;fill:url(#linearGradient3108);fill-opacity:1;stroke:none" />
    <path
       inkscape:connector-curvature="0"
       style="opacity:0.05;fill:url(#linearGradient3137);fill-opacity:1;stroke:none"
       d="m 147.50001,6 0,500 109,0 0,-500 -109,0 z"
       id="path3135" />
    <path
       id="path3139"
       d="m 256.50001,6 0,500 109,0 0,-500 -109,0 z"
       style="opacity:0.05;fill:url(#linearGradient3141);fill-opacity:1;stroke:none"
       inkscape:connector-curvature="0" />
    <path
       id="path3143"
       d="M 365.5 6 L 365.5 506 L 433.34375 506 C 448.1977 506 461.98692 501.56151 473.46875 493.96875 L 473.46875 18.03125 C 461.98692 10.438491 448.1977 6 433.34375 6 L 365.5 6 z "
       style="opacity:0.05000000000000000;fill:url(#linearGradient3145);fill-opacity:1;stroke:none" />
    <path
       id="path3151"
       d="M 38.5 18.03125 C 18.885717 31.012164 6 53.274894 6 78.65625 L 6 433.34375 C 6 458.72511 18.885717 480.98784 38.5 493.96875 L 38.5 18.03125 z "
       style="opacity:0.05000000000000000;fill:url(#linearGradient3153);fill-opacity:1;stroke:none" />
    <path
       id="path3147"
       d="M 473.46875 18.03125 L 473.46875 493.96875 C 493.09542 480.98993 506 458.73461 506 433.34375 L 506 78.65625 C 506 53.265388 493.09542 31.010071 473.46875 18.03125 z "
       style="opacity:0.05000000000000000;fill:url(#linearGradient3149);fill-opacity:1;stroke:none" />
  </g>
</svg>
