<?xml version="1.0" encoding="UTF-8" standalone="no"?>
<!-- Created with Inkscape (http://www.inkscape.org/) -->

<svg
   xmlns:dc="http://purl.org/dc/elements/1.1/"
   xmlns:cc="http://creativecommons.org/ns#"
   xmlns:rdf="http://www.w3.org/1999/02/22-rdf-syntax-ns#"
   xmlns:svg="http://www.w3.org/2000/svg"
   xmlns="http://www.w3.org/2000/svg"
   xmlns:xlink="http://www.w3.org/1999/xlink"
   xmlns:inkscape="http://www.inkscape.org/namespaces/inkscape"
   version="1.1"
   width="100%"
   height="100%"
   viewBox="0 0 512 512"
   id="svg2">
  <metadata
     id="metadata72">
    <rdf:RDF>
      <cc:Work
         rdf:about="">
        <dc:format>image/svg+xml</dc:format>
        <dc:type
           rdf:resource="http://purl.org/dc/dcmitype/StillImage" />
      </cc:Work>
    </rdf:RDF>
  </metadata>
  <defs
     id="defs70">
    <linearGradient
       x1="257"
       y1="256"
       x2="362"
       y2="256"
       id="linearGradient3153"
       xlink:href="#linearGradient4996-6"
       gradientUnits="userSpaceOnUse"
       gradientTransform="matrix(1.0380952,0,0,1.4619252,-337.28943,-118.25286)" />
    <linearGradient
       x1="257"
       y1="256"
       x2="362"
       y2="256"
       id="linearGradient3149"
       xlink:href="#linearGradient4996-6"
       gradientUnits="userSpaceOnUse"
       gradientTransform="matrix(1.0283468,0,0,1.4619252,209.19233,-118.25286)" />
    <linearGradient
       x1="257"
       y1="256"
       x2="362"
       y2="256"
       id="linearGradient3145"
       xlink:href="#linearGradient4996-6"
       gradientUnits="userSpaceOnUse"
       gradientTransform="matrix(1.0283468,0,0,1.4619252,101.21591,-118.25286)" />
    <linearGradient
       x1="257"
       y1="256"
       x2="362"
       y2="256"
       id="linearGradient3141"
       xlink:href="#linearGradient4996-6"
       gradientUnits="userSpaceOnUse"
       gradientTransform="matrix(1.0380952,0,0,1.4619252,-10.28943,-118.25286)" />
    <linearGradient
       x1="257"
       y1="256"
       x2="362"
       y2="256"
       id="linearGradient3137"
       xlink:href="#linearGradient4996-6"
       gradientUnits="userSpaceOnUse"
       gradientTransform="matrix(1.0380952,0,0,1.4619252,-119.28943,-118.25286)" />
    <linearGradient
       x1="257"
       y1="256"
       x2="362"
       y2="256"
       id="linearGradient3108"
       xlink:href="#linearGradient4996-6"
       gradientUnits="userSpaceOnUse"
       gradientTransform="matrix(1.0380952,0,0,1.4619252,-228.28943,-118.25286)" />
    <linearGradient
       id="linearGradient4996-6">
      <stop
         id="stop4998-9"
         style="stop-color:#000000;stop-opacity:1"
         offset="0" />
      <stop
         id="stop5000-7"
         style="stop-color:#ffffff;stop-opacity:1"
         offset="1" />
    </linearGradient>
  </defs>
  <text
     x="729.64001"
     y="231.36"
     id="text20"
     style="font-size:129.22999573px;line-height:125%;letter-spacing:0;word-spacing:0;font-family:Gentium Book Basic">
    <tspan
       x="729.64001"
       y="231.36"
       id="tspan22" />
  </text>
  <text
     x="378.91"
     y="579.25"
     transform="scale(4.0128,0.2492)"
     id="text24"
     style="font-size:46.95399857px;text-anchor:middle;font-family:Arial" />
  <text
     x="1310.91"
     y="151.36"
     id="text26"
     style="font-size:129.22999573px;line-height:125%;letter-spacing:0;word-spacing:0;font-family:Gentium Book Basic">
    <tspan
       x="1310.91"
       y="151.36"
       id="tspan28" />
  </text>
  <text
     x="523.76001"
     y="258.22"
     transform="scale(4.0128,0.2492)"
     id="text30"
     style="font-size:46.95399857px;text-anchor:middle;font-family:Arial" />
  <text
     x="239.33"
     y="-29.900999"
     id="text32"
     style="font-size:129.22999573px;line-height:125%;letter-spacing:0;word-spacing:0;font-family:Gentium Book Basic">
    <tspan
       x="239.33"
       y="-29.900999"
       id="tspan34" />
  </text>
  <text
     x="256.72"
     y="-469.14001"
     transform="scale(4.0128,0.2492)"
     id="text36"
     style="font-size:46.95399857px;text-anchor:middle;font-family:Arial" />
  <text
     x="1337.38"
     y="-246.37"
     id="text38"
     style="font-size:129.22999573px;line-height:125%;letter-spacing:0;word-spacing:0;font-family:Gentium Book Basic">
    <tspan
       x="1337.38"
       y="-246.37"
       id="tspan40" />
  </text>
  <text
     x="530.35999"
     y="-1337.8101"
     transform="scale(4.0128,0.2492)"
     id="text42"
     style="font-size:46.95399857px;text-anchor:middle;font-family:Arial" />
  <text
     x="1918.65"
     y="-326.38"
     id="text44"
     style="font-size:129.22999573px;line-height:125%;letter-spacing:0;word-spacing:0;font-family:Gentium Book Basic">
    <tspan
       x="1918.65"
       y="-326.38"
       id="tspan46" />
  </text>
  <text
     x="675.21002"
     y="-1658.85"
     transform="scale(4.0128,0.2492)"
     id="text48"
     style="font-size:46.95399857px;text-anchor:middle;font-family:Arial" />
  <text
     x="1529.53"
     y="-798.78003"
     id="text50"
     style="font-size:129.22999573px;line-height:125%;letter-spacing:0;word-spacing:0;font-family:Gentium Book Basic">
    <tspan
       x="1529.53"
       y="-798.78003"
       id="tspan52" />
  </text>
  <text
     x="578.23999"
     y="-3554.51"
     transform="scale(4.0128,0.2492)"
     id="text54"
     style="font-size:46.95399857px;text-anchor:middle;font-family:Arial" />
  <text
     x="2110.79"
     y="-878.78003"
     id="text56"
     style="font-size:129.22999573px;line-height:125%;letter-spacing:0;word-spacing:0;font-family:Gentium Book Basic">
    <tspan
       x="2110.79"
       y="-878.78003"
       id="tspan58" />
  </text>
  <text
     x="723.09003"
     y="-3875.54"
     transform="scale(4.0128,0.2492)"
     id="text60"
     style="font-size:46.95399857px;text-anchor:middle;font-family:Arial" />
  <text
     x="277.98999"
     y="535.94"
     id="text62"
     style="font-size:208.33000183px;line-height:125%;letter-spacing:0;word-spacing:0;font-family:Gentium Book Basic">
    <tspan
       x="277.98999"
       y="535.94"
       id="tspan64" />
  </text>
  <rect
     width="500"
     height="500"
     rx="72.644058"
     ry="72.644058"
     x="6"
     y="9"
     id="rect5028-9"
     style="opacity:0.2;fill:#000000;fill-opacity:1;stroke:none" />
  <rect
     width="500"
     height="500"
     rx="72.644058"
     ry="72.644058"
     x="6"
     y="3"
     id="rect4979-3"
     style="fill:#f3f3f3;fill-opacity:1;stroke:none" />
  <rect
     width="434.99997"
     height="434.99997"
     rx="63.200329"
     ry="63.200329"
     x="38.500011"
     y="35.500011"
     id="rect4981-0"
     style="fill:#f15a24;fill-opacity:1;stroke:none" />
  <path
     d="M 101.6875,35.5 C 66.674518,35.5 38.5,63.674518 38.5,98.6875 l 0,15 C 38.5,78.674518 66.674518,50.5 101.6875,50.5 l 308.625,0 c 35.01298,0 63.1875,28.174518 63.1875,63.1875 l 0,-15 C 473.5,63.674518 445.32548,35.5 410.3125,35.5 l -308.625,0 z"
     inkscape:connector-curvature="0"
     id="rect3187"
     style="opacity:0.2;fill:#000000;fill-opacity:1;stroke:none" />
  <g
     transform="translate(-7.5,-7.5)"
     id="g3330">
    <path
       d="m 376.21734,103.5 c -18.4013,0 -33.3277,14.89544 -33.3277,33.29667 0,18.40123 14.9264,33.32769 33.3277,33.32769 18.4012,0 33.3277,-14.92646 33.3277,-33.32769 0,-18.40123 -14.9265,-33.29667 -33.3277,-33.29667 m -77.9078,34.8312 c -21.5264,0 -41.8476,5.03435 -59.86581,13.95873 l 24.56561,42.55158 c 10.7298,-4.99856 22.6839,-7.80868 35.2953,-7.80868 43.4108,0 79.0893,33.05086 83.2883,75.35424 h 50.3316 c -2.1383,-33.95058 -17.2366,-64.41803 -40.43,-86.66633 -11.4385,4.48784 -24.7207,3.91508 -36.1915,-2.70511 -11.3563,-6.55695 -18.4669,-17.62562 -20.3809,-29.63814 -11.6378,-3.26595 -23.9247,-5.04271 -36.6175,-5.04271 m -73.54043,21.76741 c -27.20746,17.72227 -47.5036,44.99059 -55.98647,76.98899 9.95178,7.64402 16.38702,19.65536 16.38702,33.17378 0,13.61387 -6.49849,25.69322 -16.57197,33.32768 8.36474,32.39696 28.80525,60.00895 56.29791,77.87202 l 24.65744,-42.70431 c -21.14807,-15.19496 -34.96241,-39.98011 -34.96241,-68.00854 0,-27.98071 13.74513,-52.74201 34.83119,-67.9465 l -24.65748,-42.70432 m -81.41599,76.83389 c -18.40123,0 -33.32769,14.92645 -33.32769,33.32769 0,18.40123 14.92646,33.32769 33.32769,33.32769 18.40123,0 33.3277,-14.92646 33.3277,-33.32769 0,-18.40124 -14.92647,-33.32769 -33.3277,-33.32769 m 238.34139,41.19841 c -3.7397,42.77353 -39.64,76.33987 -83.3802,76.33987 -12.5709,0 -24.4737,-2.78387 -35.1724,-7.74782 l -24.56561,42.55158 c 17.98241,8.88738 38.26781,13.89668 59.73451,13.89668 12.4003,0 24.3926,-1.67653 35.787,-4.7969 1.976,-11.91349 9.0794,-22.88668 20.357,-29.39233 11.5483,-6.66792 24.9402,-7.17148 36.4325,-2.58221 23.7673,-22.51558 39.1818,-53.62262 41.1066,-88.26887 h -50.2959 m -6.3338,93.74235 c -18.4012,0 -33.3276,14.92646 -33.3276,33.32769 0,18.40123 14.9264,33.29667 33.3276,33.29667 18.4013,0 33.3277,-14.89544 33.3277,-33.29667 0,-18.40123 -14.9264,-33.32769 -33.3277,-33.32769"
       inkscape:connector-curvature="0"
       id="path3328"
       style="opacity:0.2;fill:#000000;fill-opacity:1" />
    <path
       d="m 361.21734,88.5 c -18.4013,0 -33.3277,14.89544 -33.3277,33.29667 0,18.40123 14.9264,33.32769 33.3277,33.32769 18.4012,0 33.3277,-14.92646 33.3277,-33.32769 0,-18.40123 -14.9265,-33.29667 -33.3277,-33.29667 m -77.9078,34.8312 c -21.5264,0 -41.8476,5.03435 -59.86581,13.95873 l 24.56561,42.55158 c 10.7298,-4.99856 22.6839,-7.80868 35.2953,-7.80868 43.4108,0 79.0893,33.05086 83.2883,75.35424 h 50.3316 c -2.1383,-33.95058 -17.2366,-64.41803 -40.43,-86.66633 -11.4385,4.48784 -24.7207,3.91508 -36.1915,-2.70511 -11.3563,-6.55695 -18.4669,-17.62562 -20.3809,-29.63814 -11.6378,-3.26595 -23.9247,-5.04271 -36.6175,-5.04271 m -73.54043,21.76741 c -27.20746,17.72227 -47.5036,44.99059 -55.98647,76.98899 9.95178,7.64402 16.38702,19.65536 16.38702,33.17378 0,13.61387 -6.49849,25.69322 -16.57197,33.32768 8.36474,32.39696 28.80525,60.00895 56.29791,77.87202 l 24.65744,-42.70431 c -21.14807,-15.19496 -34.96241,-39.98011 -34.96241,-68.00854 0,-27.98071 13.74513,-52.74201 34.83119,-67.9465 l -24.65748,-42.70432 m -81.41599,76.83389 c -18.40123,0 -33.32769,14.92645 -33.32769,33.32769 0,18.40123 14.92646,33.32769 33.32769,33.32769 18.40123,0 33.3277,-14.92646 33.3277,-33.32769 0,-18.40124 -14.92647,-33.32769 -33.3277,-33.32769 m 238.34139,41.19841 c -3.7397,42.77353 -39.64,76.33987 -83.3802,76.33987 -12.5709,0 -24.4737,-2.78387 -35.1724,-7.74782 l -24.56561,42.55158 c 17.98241,8.88738 38.26781,13.89668 59.73451,13.89668 12.4003,0 24.3926,-1.67653 35.787,-4.7969 1.976,-11.91349 9.0794,-22.88668 20.357,-29.39233 11.5483,-6.66792 24.9402,-7.17148 36.4325,-2.58221 23.7673,-22.51558 39.1818,-53.62262 41.1066,-88.26887 h -50.2959 m -6.3338,93.74235 c -18.4012,0 -33.3276,14.92646 -33.3276,33.32769 0,18.40123 14.9264,33.29667 33.3276,33.29667 18.4013,0 33.3277,-14.89544 33.3277,-33.29667 0,-18.40123 -14.9264,-33.32769 -33.3277,-33.32769"
       inkscape:connector-curvature="0"
       id="path66"
       style="fill:#dcdbdb;fill-opacity:1" />
  </g>
  <g
     transform="translate(0,-3)"
     id="g3167">
    <path
       d="M 78.65625,6 C 63.792798,6 49.986224,10.429561 38.5,18.03125 l 0,475.9375 C 49.986224,501.57044 63.792798,506 78.65625,506 L 147.5,506 147.5,6 78.65625,6 z"
       inkscape:connector-curvature="0"
       id="rect3068-0"
       style="opacity:0.05;fill:url(#linearGradient3108);fill-opacity:1;stroke:none" />
    <path
       d="m 147.50001,6 0,500 109,0 0,-500 -109,0 z"
       inkscape:connector-curvature="0"
       id="path3135"
       style="opacity:0.05;fill:url(#linearGradient3137);fill-opacity:1;stroke:none" />
    <path
       d="m 256.50001,6 0,500 109,0 0,-500 -109,0 z"
       inkscape:connector-curvature="0"
       id="path3139"
       style="opacity:0.05;fill:url(#linearGradient3141);fill-opacity:1;stroke:none" />
    <path
       d="m 365.5,6 0,500 67.84375,0 c 14.85395,0 28.64317,-4.43849 40.125,-12.03125 l 0,-475.9375 C 461.98692,10.438491 448.1977,6 433.34375,6 L 365.5,6 z"
       inkscape:connector-curvature="0"
       id="path3143"
       style="opacity:0.05;fill:url(#linearGradient3145);fill-opacity:1;stroke:none" />
    <path
       d="M 38.5,18.03125 C 18.885717,31.012164 6,53.274894 6,78.65625 l 0,354.6875 c 0,25.38136 12.885717,47.64409 32.5,60.625 l 0,-475.9375 z"
       inkscape:connector-curvature="0"
       id="path3151"
       style="opacity:0.05;fill:url(#linearGradient3153);fill-opacity:1;stroke:none" />
    <path
       d="m 473.46875,18.03125 0,475.9375 C 493.09542,480.98993 506,458.73461 506,433.34375 l 0,-354.6875 c 0,-25.390862 -12.90458,-47.646179 -32.53125,-60.625 z"
       inkscape:connector-curvature="0"
       id="path3147"
       style="opacity:0.05;fill:url(#linearGradient3149);fill-opacity:1;stroke:none" />
  </g>
</svg>
