<?xml version="1.0" encoding="UTF-8" standalone="no"?>
<!-- Created with Inkscape (http://www.inkscape.org/) -->

<svg
   xmlns:dc="http://purl.org/dc/elements/1.1/"
   xmlns:cc="http://creativecommons.org/ns#"
   xmlns:rdf="http://www.w3.org/1999/02/22-rdf-syntax-ns#"
   xmlns:svg="http://www.w3.org/2000/svg"
   xmlns="http://www.w3.org/2000/svg"
   xmlns:xlink="http://www.w3.org/1999/xlink"
   xmlns:inkscape="http://www.inkscape.org/namespaces/inkscape"
   version="1.1"
   width="100%"
   height="100%"
   viewBox="0 0 512 512"
   id="svg2">
  <metadata
     id="metadata72">
    <rdf:RDF>
      <cc:Work
         rdf:about="">
        <dc:format>image/svg+xml</dc:format>
        <dc:type
           rdf:resource="http://purl.org/dc/dcmitype/StillImage" />
      </cc:Work>
    </rdf:RDF>
  </metadata>
  <defs
     id="defs70">
    <linearGradient
       x1="257"
       y1="256"
       x2="362"
       y2="256"
       id="linearGradient3153"
       xlink:href="#linearGradient4996-4"
       gradientUnits="userSpaceOnUse"
       gradientTransform="matrix(1.0380952,0,0,1.4619252,-337.28943,-118.25286)" />
    <linearGradient
       x1="257"
       y1="256"
       x2="362"
       y2="256"
       id="linearGradient3149"
       xlink:href="#linearGradient4996-4"
       gradientUnits="userSpaceOnUse"
       gradientTransform="matrix(1.0283468,0,0,1.4619252,209.19233,-118.25286)" />
    <linearGradient
       x1="257"
       y1="256"
       x2="362"
       y2="256"
       id="linearGradient3145"
       xlink:href="#linearGradient4996-4"
       gradientUnits="userSpaceOnUse"
       gradientTransform="matrix(1.0283468,0,0,1.4619252,101.21591,-118.25286)" />
    <linearGradient
       x1="257"
       y1="256"
       x2="362"
       y2="256"
       id="linearGradient3141"
       xlink:href="#linearGradient4996-4"
       gradientUnits="userSpaceOnUse"
       gradientTransform="matrix(1.0380952,0,0,1.4619252,-10.28943,-118.25286)" />
    <linearGradient
       x1="257"
       y1="256"
       x2="362"
       y2="256"
       id="linearGradient3137"
       xlink:href="#linearGradient4996-4"
       gradientUnits="userSpaceOnUse"
       gradientTransform="matrix(1.0380952,0,0,1.4619252,-119.28943,-118.25286)" />
    <linearGradient
       x1="257"
       y1="256"
       x2="362"
       y2="256"
       id="linearGradient3108"
       xlink:href="#linearGradient4996-4"
       gradientUnits="userSpaceOnUse"
       gradientTransform="matrix(1.0380952,0,0,1.4619252,-228.28943,-118.25286)" />
    <linearGradient
       id="linearGradient4996-4">
      <stop
         id="stop4998-8"
         style="stop-color:#000000;stop-opacity:1"
         offset="0" />
      <stop
         id="stop5000-8"
         style="stop-color:#ffffff;stop-opacity:1"
         offset="1" />
    </linearGradient>
  </defs>
  <text
     x="729.64001"
     y="231.36"
     id="text20"
     style="font-size:129.22999573px;line-height:125%;letter-spacing:0;word-spacing:0;font-family:Gentium Book Basic">
    <tspan
       x="729.64001"
       y="231.36"
       id="tspan22" />
  </text>
  <text
     x="378.91"
     y="579.25"
     transform="scale(4.0128,0.2492)"
     id="text24"
     style="font-size:46.95399857px;text-anchor:middle;font-family:Arial" />
  <text
     x="1310.91"
     y="151.36"
     id="text26"
     style="font-size:129.22999573px;line-height:125%;letter-spacing:0;word-spacing:0;font-family:Gentium Book Basic">
    <tspan
       x="1310.91"
       y="151.36"
       id="tspan28" />
  </text>
  <text
     x="523.76001"
     y="258.22"
     transform="scale(4.0128,0.2492)"
     id="text30"
     style="font-size:46.95399857px;text-anchor:middle;font-family:Arial" />
  <text
     x="239.33"
     y="-29.900999"
     id="text32"
     style="font-size:129.22999573px;line-height:125%;letter-spacing:0;word-spacing:0;font-family:Gentium Book Basic">
    <tspan
       x="239.33"
       y="-29.900999"
       id="tspan34" />
  </text>
  <text
     x="256.72"
     y="-469.14001"
     transform="scale(4.0128,0.2492)"
     id="text36"
     style="font-size:46.95399857px;text-anchor:middle;font-family:Arial" />
  <text
     x="1337.38"
     y="-246.37"
     id="text38"
     style="font-size:129.22999573px;line-height:125%;letter-spacing:0;word-spacing:0;font-family:Gentium Book Basic">
    <tspan
       x="1337.38"
       y="-246.37"
       id="tspan40" />
  </text>
  <text
     x="530.35999"
     y="-1337.8101"
     transform="scale(4.0128,0.2492)"
     id="text42"
     style="font-size:46.95399857px;text-anchor:middle;font-family:Arial" />
  <text
     x="1918.65"
     y="-326.38"
     id="text44"
     style="font-size:129.22999573px;line-height:125%;letter-spacing:0;word-spacing:0;font-family:Gentium Book Basic">
    <tspan
       x="1918.65"
       y="-326.38"
       id="tspan46" />
  </text>
  <text
     x="675.21002"
     y="-1658.85"
     transform="scale(4.0128,0.2492)"
     id="text48"
     style="font-size:46.95399857px;text-anchor:middle;font-family:Arial" />
  <text
     x="1529.53"
     y="-798.78003"
     id="text50"
     style="font-size:129.22999573px;line-height:125%;letter-spacing:0;word-spacing:0;font-family:Gentium Book Basic">
    <tspan
       x="1529.53"
       y="-798.78003"
       id="tspan52" />
  </text>
  <text
     x="578.23999"
     y="-3554.51"
     transform="scale(4.0128,0.2492)"
     id="text54"
     style="font-size:46.95399857px;text-anchor:middle;font-family:Arial" />
  <text
     x="2110.79"
     y="-878.78003"
     id="text56"
     style="font-size:129.22999573px;line-height:125%;letter-spacing:0;word-spacing:0;font-family:Gentium Book Basic">
    <tspan
       x="2110.79"
       y="-878.78003"
       id="tspan58" />
  </text>
  <text
     x="723.09003"
     y="-3875.54"
     transform="scale(4.0128,0.2492)"
     id="text60"
     style="font-size:46.95399857px;text-anchor:middle;font-family:Arial" />
  <text
     x="277.98999"
     y="535.94"
     id="text62"
     style="font-size:208.33000183px;line-height:125%;letter-spacing:0;word-spacing:0;font-family:Gentium Book Basic">
    <tspan
       x="277.98999"
       y="535.94"
       id="tspan64" />
  </text>
  <rect
     width="500"
     height="500"
     rx="72.644058"
     ry="72.644058"
     x="6"
     y="9"
     id="rect5028-3"
     style="opacity:0.2;fill:#000000;fill-opacity:1;stroke:none" />
  <rect
     width="500"
     height="500"
     rx="72.644058"
     ry="72.644058"
     x="6"
     y="3"
     id="rect4979-2"
     style="fill:#f3f3f3;fill-opacity:1;stroke:none" />
  <rect
     width="434.99997"
     height="434.99997"
     rx="63.200329"
     ry="63.200329"
     x="38.500011"
     y="35.500011"
     id="rect4981-4"
     style="fill:#aad38d;fill-opacity:1;stroke:none" />
  <path
     d="M 101.6875,35.5 C 66.674518,35.5 38.5,63.674518 38.5,98.6875 l 0,15 C 38.5,78.674518 66.674518,50.5 101.6875,50.5 l 308.625,0 c 35.01298,0 63.1875,28.174518 63.1875,63.1875 l 0,-15 C 473.5,63.674518 445.32548,35.5 410.3125,35.5 l -308.625,0 z"
     inkscape:connector-curvature="0"
     id="rect3187"
     style="opacity:0.2;fill:#000000;fill-opacity:1;stroke:none" />
  <g
     transform="translate(-7.5,-7.5000015)"
     id="g3202">
    <path
       d="m 103.49975,111.0111 v 230.38346 c 0,24.44399 8.944,45.86087 26.3458,63.19112 14.8735,14.68154 32.7097,24.2548 52.8064,26.40322 h 56.8692 0.058 107.4068 c 25.226,0 47.2258,-9.4149 65.1111,-27.62247 h 0.1738 c 15.2098,-15.6275 24.0628,-34.3452 26.2294,-55.41872 v -25.64923 l -0.1163,-100.21729 c 0,-19.94677 -7.3968,-37.60497 -21.4127,-51.76236 -14.0284,-14.16861 -31.482,-21.47153 -51.1247,-21.47153 -19.2811,0 -36.1475,7.18241 -49.7891,20.30973 -13.6024,-13.1063 -30.3427,-20.30973 -49.6153,-20.30973 -19.6483,0 -37.1019,7.30573 -51.1247,21.47153 -14.0145,14.15459 -21.3553,31.81559 -21.3553,51.76236 v 100.85494 h 45.6689 V 222.08119 c 0,-7.64489 2.5492,-13.57719 8.0078,-19.09189 5.477,-5.53149 11.2676,-8.06671 18.8019,-8.06671 7.6882,0 13.4286,2.5212 18.9181,8.06671 5.4586,5.5147 7.9504,11.447 7.9504,19.09189 v 100.85494 h 45.6688 V 222.08119 c 0,-7.64489 2.5493,-13.57719 8.0079,-19.09189 5.488,-5.54411 11.1709,-8.06671 18.8592,-8.06671 7.53,0 13.3824,2.53381 18.8592,8.06671 5.4587,5.5147 7.8916,11.447 7.8916,19.09189 l 0.2326,117.80541 c 0,1.48134 -0.074,2.95285 -0.2326,4.41035 -0.014,0.0757 0.014,0.15556 0,0.23263 -0.063,0.55639 -0.1457,1.13238 -0.2326,1.68315 -0.192,1.18562 -0.4583,2.32499 -0.7541,3.48118 -5.2721,20.569 -26.6975,36.43755 -53.325,36.43755 l -98.7597,-0.34755 v 0.0575 l -48.8025,-0.23263 c -23.7278,0 -43.9871,-23.01172 -43.9871,-52.69151 V 111.0125 h -43.2319"
       inkscape:connector-curvature="0"
       id="path3200"
       style="opacity:0.2;fill:#000000;fill-opacity:1;fill-rule:evenodd" />
    <path
       d="M 88.49975,96.011103 V 326.39456 c 0,24.44399 8.944,45.86087 26.3458,63.19112 14.8735,14.68154 32.7097,24.2548 52.8064,26.40322 h 56.8692 0.058 107.4068 c 25.226,0 47.2258,-9.4149 65.1111,-27.62247 h 0.1738 c 15.2098,-15.6275 24.0628,-34.3452 26.2294,-55.41872 v -25.64923 l -0.1163,-100.21729 c 0,-19.94677 -7.3968,-37.60497 -21.4127,-51.76236 -14.0284,-14.16861 -31.482,-21.47153 -51.1247,-21.47153 -19.2811,0 -36.1475,7.18241 -49.7891,20.30973 -13.6024,-13.1063 -30.3427,-20.30973 -49.6153,-20.30973 -19.6483,0 -37.1019,7.30573 -51.1247,21.47153 -14.0145,14.15459 -21.3553,31.81559 -21.3553,51.76236 v 100.85494 h 45.6689 V 207.08119 c 0,-7.64489 2.5492,-13.57719 8.0078,-19.09189 5.477,-5.53149 11.2676,-8.06671 18.8019,-8.06671 7.6882,0 13.4286,2.5212 18.9181,8.06671 5.4586,5.5147 7.9504,11.447 7.9504,19.09189 v 100.85494 h 45.6688 V 207.08119 c 0,-7.64489 2.5493,-13.57719 8.0079,-19.09189 5.488,-5.54411 11.1709,-8.06671 18.8592,-8.06671 7.53,0 13.3824,2.53381 18.8592,8.06671 5.4587,5.5147 7.8916,11.447 7.8916,19.09189 l 0.2326,117.80541 c 0,1.48134 -0.074,2.95285 -0.2326,4.41035 -0.014,0.0757 0.014,0.15556 0,0.23263 -0.063,0.55639 -0.1457,1.13238 -0.2326,1.68315 -0.192,1.18562 -0.4583,2.32499 -0.7541,3.48118 -5.2721,20.569 -26.6975,36.43755 -53.325,36.43755 l -98.7597,-0.34755 v 0.0575 l -48.8025,-0.23263 c -23.7278,0 -43.9871,-23.01172 -43.9871,-52.69151 V 96.012504 h -43.2319"
       inkscape:connector-curvature="0"
       id="path66"
       style="fill:#dcdbdb;fill-opacity:1;fill-rule:evenodd" />
  </g>
  <g
     transform="translate(0,-3)"
     id="g3167">
    <path
       d="M 78.65625,6 C 63.792798,6 49.986224,10.429561 38.5,18.03125 l 0,475.9375 C 49.986224,501.57044 63.792798,506 78.65625,506 L 147.5,506 147.5,6 78.65625,6 z"
       inkscape:connector-curvature="0"
       id="rect3068-3"
       style="opacity:0.05;fill:url(#linearGradient3108);fill-opacity:1;stroke:none" />
    <path
       d="m 147.50001,6 0,500 109,0 0,-500 -109,0 z"
       inkscape:connector-curvature="0"
       id="path3135"
       style="opacity:0.05;fill:url(#linearGradient3137);fill-opacity:1;stroke:none" />
    <path
       d="m 256.50001,6 0,500 109,0 0,-500 -109,0 z"
       inkscape:connector-curvature="0"
       id="path3139"
       style="opacity:0.05;fill:url(#linearGradient3141);fill-opacity:1;stroke:none" />
    <path
       d="m 365.5,6 0,500 67.84375,0 c 14.85395,0 28.64317,-4.43849 40.125,-12.03125 l 0,-475.9375 C 461.98692,10.438491 448.1977,6 433.34375,6 L 365.5,6 z"
       inkscape:connector-curvature="0"
       id="path3143"
       style="opacity:0.05;fill:url(#linearGradient3145);fill-opacity:1;stroke:none" />
    <path
       d="M 38.5,18.03125 C 18.885717,31.012164 6,53.274894 6,78.65625 l 0,354.6875 c 0,25.38136 12.885717,47.64409 32.5,60.625 l 0,-475.9375 z"
       inkscape:connector-curvature="0"
       id="path3151"
       style="opacity:0.05;fill:url(#linearGradient3153);fill-opacity:1;stroke:none" />
    <path
       d="m 473.46875,18.03125 0,475.9375 C 493.09542,480.98993 506,458.73461 506,433.34375 l 0,-354.6875 c 0,-25.390862 -12.90458,-47.646179 -32.53125,-60.625 z"
       inkscape:connector-curvature="0"
       id="path3147"
       style="opacity:0.05;fill:url(#linearGradient3149);fill-opacity:1;stroke:none" />
  </g>
</svg>
