<?xml version="1.0" encoding="UTF-8" standalone="no"?>
<!-- Created with Inkscape (http://www.inkscape.org/) -->

<svg
   xmlns:dc="http://purl.org/dc/elements/1.1/"
   xmlns:cc="http://creativecommons.org/ns#"
   xmlns:rdf="http://www.w3.org/1999/02/22-rdf-syntax-ns#"
   xmlns:svg="http://www.w3.org/2000/svg"
   xmlns="http://www.w3.org/2000/svg"
   xmlns:xlink="http://www.w3.org/1999/xlink"
   xmlns:inkscape="http://www.inkscape.org/namespaces/inkscape"
   version="1.1"
   width="100%"
   height="100%"
   viewBox="0 0 512 512"
   id="svg2">
  <metadata
     id="metadata72">
    <rdf:RDF>
      <cc:Work
         rdf:about="">
        <dc:format>image/svg+xml</dc:format>
        <dc:type
           rdf:resource="http://purl.org/dc/dcmitype/StillImage" />
      </cc:Work>
    </rdf:RDF>
  </metadata>
  <defs
     id="defs70">
    <linearGradient
       x1="257"
       y1="256"
       x2="362"
       y2="256"
       id="linearGradient3153"
       xlink:href="#linearGradient4996-7"
       gradientUnits="userSpaceOnUse"
       gradientTransform="matrix(1.0380952,0,0,1.4619252,-337.28943,-118.25286)" />
    <linearGradient
       x1="257"
       y1="256"
       x2="362"
       y2="256"
       id="linearGradient3149"
       xlink:href="#linearGradient4996-7"
       gradientUnits="userSpaceOnUse"
       gradientTransform="matrix(1.0283468,0,0,1.4619252,209.19233,-118.25286)" />
    <linearGradient
       x1="257"
       y1="256"
       x2="362"
       y2="256"
       id="linearGradient3145"
       xlink:href="#linearGradient4996-7"
       gradientUnits="userSpaceOnUse"
       gradientTransform="matrix(1.0283468,0,0,1.4619252,101.21591,-118.25286)" />
    <linearGradient
       x1="257"
       y1="256"
       x2="362"
       y2="256"
       id="linearGradient3141"
       xlink:href="#linearGradient4996-7"
       gradientUnits="userSpaceOnUse"
       gradientTransform="matrix(1.0380952,0,0,1.4619252,-10.28943,-118.25286)" />
    <linearGradient
       x1="257"
       y1="256"
       x2="362"
       y2="256"
       id="linearGradient3137"
       xlink:href="#linearGradient4996-7"
       gradientUnits="userSpaceOnUse"
       gradientTransform="matrix(1.0380952,0,0,1.4619252,-119.28943,-118.25286)" />
    <linearGradient
       x1="257"
       y1="256"
       x2="362"
       y2="256"
       id="linearGradient3108"
       xlink:href="#linearGradient4996-7"
       gradientUnits="userSpaceOnUse"
       gradientTransform="matrix(1.0380952,0,0,1.4619252,-228.28943,-118.25286)" />
    <linearGradient
       id="linearGradient4996-7">
      <stop
         id="stop4998-7"
         style="stop-color:#000000;stop-opacity:1"
         offset="0" />
      <stop
         id="stop5000-9"
         style="stop-color:#ffffff;stop-opacity:1"
         offset="1" />
    </linearGradient>
  </defs>
  <text
     x="729.64001"
     y="231.36"
     id="text20"
     style="font-size:129.22999573px;line-height:125%;letter-spacing:0;word-spacing:0;font-family:Gentium Book Basic">
    <tspan
       x="729.64001"
       y="231.36"
       id="tspan22" />
  </text>
  <text
     x="378.91"
     y="579.25"
     transform="scale(4.0128,0.2492)"
     id="text24"
     style="font-size:46.95399857px;text-anchor:middle;font-family:Arial" />
  <text
     x="1310.91"
     y="151.36"
     id="text26"
     style="font-size:129.22999573px;line-height:125%;letter-spacing:0;word-spacing:0;font-family:Gentium Book Basic">
    <tspan
       x="1310.91"
       y="151.36"
       id="tspan28" />
  </text>
  <text
     x="523.76001"
     y="258.22"
     transform="scale(4.0128,0.2492)"
     id="text30"
     style="font-size:46.95399857px;text-anchor:middle;font-family:Arial" />
  <text
     x="239.33"
     y="-29.900999"
     id="text32"
     style="font-size:129.22999573px;line-height:125%;letter-spacing:0;word-spacing:0;font-family:Gentium Book Basic">
    <tspan
       x="239.33"
       y="-29.900999"
       id="tspan34" />
  </text>
  <text
     x="256.72"
     y="-469.14001"
     transform="scale(4.0128,0.2492)"
     id="text36"
     style="font-size:46.95399857px;text-anchor:middle;font-family:Arial" />
  <text
     x="1337.38"
     y="-246.37"
     id="text38"
     style="font-size:129.22999573px;line-height:125%;letter-spacing:0;word-spacing:0;font-family:Gentium Book Basic">
    <tspan
       x="1337.38"
       y="-246.37"
       id="tspan40" />
  </text>
  <text
     x="530.35999"
     y="-1337.8101"
     transform="scale(4.0128,0.2492)"
     id="text42"
     style="font-size:46.95399857px;text-anchor:middle;font-family:Arial" />
  <text
     x="1918.65"
     y="-326.38"
     id="text44"
     style="font-size:129.22999573px;line-height:125%;letter-spacing:0;word-spacing:0;font-family:Gentium Book Basic">
    <tspan
       x="1918.65"
       y="-326.38"
       id="tspan46" />
  </text>
  <text
     x="675.21002"
     y="-1658.85"
     transform="scale(4.0128,0.2492)"
     id="text48"
     style="font-size:46.95399857px;text-anchor:middle;font-family:Arial" />
  <text
     x="1529.53"
     y="-798.78003"
     id="text50"
     style="font-size:129.22999573px;line-height:125%;letter-spacing:0;word-spacing:0;font-family:Gentium Book Basic">
    <tspan
       x="1529.53"
       y="-798.78003"
       id="tspan52" />
  </text>
  <text
     x="578.23999"
     y="-3554.51"
     transform="scale(4.0128,0.2492)"
     id="text54"
     style="font-size:46.95399857px;text-anchor:middle;font-family:Arial" />
  <text
     x="2110.79"
     y="-878.78003"
     id="text56"
     style="font-size:129.22999573px;line-height:125%;letter-spacing:0;word-spacing:0;font-family:Gentium Book Basic">
    <tspan
       x="2110.79"
       y="-878.78003"
       id="tspan58" />
  </text>
  <text
     x="723.09003"
     y="-3875.54"
     transform="scale(4.0128,0.2492)"
     id="text60"
     style="font-size:46.95399857px;text-anchor:middle;font-family:Arial" />
  <text
     x="277.98999"
     y="535.94"
     id="text62"
     style="font-size:208.33000183px;line-height:125%;letter-spacing:0;word-spacing:0;font-family:Gentium Book Basic">
    <tspan
       x="277.98999"
       y="535.94"
       id="tspan64" />
  </text>
  <rect
     width="500"
     height="500"
     rx="72.644058"
     ry="72.644058"
     x="6"
     y="9"
     id="rect5028-2"
     style="opacity:0.2;fill:#000000;fill-opacity:1;stroke:none" />
  <rect
     width="500"
     height="500"
     rx="72.644058"
     ry="72.644058"
     x="6"
     y="3"
     id="rect4979-9"
     style="fill:#f3f3f3;fill-opacity:1;stroke:none" />
  <rect
     width="434.99997"
     height="434.99997"
     rx="63.200329"
     ry="63.200329"
     x="38.500011"
     y="35.500011"
     id="rect4981-0"
     style="fill:#1e91c3;fill-opacity:1;stroke:none" />
  <path
     d="M 101.6875,35.5 C 66.674518,35.5 38.5,63.674518 38.5,98.6875 l 0,15 C 38.5,78.674518 66.674518,50.5 101.6875,50.5 l 308.625,0 c 35.01298,0 63.1875,28.174518 63.1875,63.1875 l 0,-15 C 473.5,63.674518 445.32548,35.5 410.3125,35.5 l -308.625,0 z"
     inkscape:connector-curvature="0"
     id="rect3187"
     style="opacity:0.2;fill:#000000;fill-opacity:1;stroke:none" />
  <g
     transform="translate(-7.5000025,-7.5)"
     id="g3381">
    <path
       d="m 297.37777,103.50691 -55.83788,5.53425 v 229.07845 l 55.24108,-8.00582 V 232.1969 l 73.6206,108.39197 57.7161,-18.48206 -75.4953,-104.08257 76.0945,-98.50569 -58.8914,-13.57578 -73.0295,98.54025 0.5922,-100.98302 m -125.8024,56.00732 c -0.62454,0 -1.37349,0.37909 -1.84476,0.6614 l -21.47675,22.13814 c -0.91489,0.9529 -1.29745,2.60292 -0.62682,3.72406 l 25.16625,41.8727 c -4.51682,7.62097 -7.85488,15.94826 -10.43937,24.60971 l -46.64415,9.85057 c -1.30092,0.35259 -2.43704,1.1315 -2.43704,2.47158 v 30.80534 c 0,1.30435 1.18566,2.74582 2.43704,3.06269 l 45.4216,11.06964 c 2.41858,10.04068 6.07812,19.59974 11.03393,28.33493 l -26.38532,40.03025 c -0.73168,1.12805 -0.33992,2.74465 0.62681,3.6895 l 21.47676,21.54704 c 0.91489,0.88262 2.57297,1.36656 3.6895,0.66139 l 41.10874,-25.2711 c 8.08879,4.68043 16.57739,8.60729 25.79308,11.10421 l 9.816,46.15906 c 0.28115,1.34007 1.11192,2.47157 2.43701,2.47157 h 30.70159 c 1.2929,0 2.7539,-1.20064 3.0627,-2.47157 l 11.034,-46.15906 c 9.4991,-2.57412 18.7297,-6.80056 27.0121,-11.69532 l 40.51299,27.08129 c 1.1143,0.70518 2.7067,0.36065 3.655,-0.62682 l 21.4768,-21.54705 c 0.9206,-0.9529 1.3009,-2.60638 0.6268,-3.72406 l -14.7246,-24.60971 -4.9086,1.84475 c -0.7006,0.35259 -1.4334,-0.0265 -1.8447,-0.6614 0,0 -9.2756,-14.10928 -21.4768,-32.02443 -14.5817,28.63568 -44.3051,48.03607 -78.5603,48.03607 -48.67093,0 -88.37739,-39.18795 -88.37739,-88.03175 0,-35.92709 21.51822,-66.84191 52.17378,-80.69193 v -22.76497 c -5.58034,1.97495 -10.81846,3.9453 -15.94251,6.75333 h -0.62681 l -41.10876,-27.08129 c -0.55884,-0.35374 -1.21908,-0.66254 -1.84476,-0.59225 v -0.0345"
       inkscape:connector-curvature="0"
       id="path3379"
       style="opacity:0.2;fill:#000000;fill-opacity:1" />
    <path
       d="m 282.37777,88.506914 -55.83788,5.534248 V 323.11961 l 55.24108,-8.00582 V 217.1969 l 73.6206,108.39197 57.7161,-18.48206 -75.4953,-104.08257 76.0945,-98.50569 -58.8914,-13.575784 -73.0295,98.540254 L 282.38817,88.5 m -125.8024,56.00732 c -0.62454,0 -1.37349,0.37909 -1.84476,0.6614 l -21.47675,22.13814 c -0.91489,0.9529 -1.29745,2.60292 -0.62682,3.72406 l 25.16625,41.8727 c -4.51682,7.62097 -7.85488,15.94826 -10.43937,24.60971 l -46.64415,9.85057 c -1.300915,0.35259 -2.437035,1.1315 -2.437035,2.47158 v 30.80534 c 0,1.30435 1.18566,2.74582 2.437035,3.06269 l 45.4216,11.06964 c 2.41858,10.04068 6.07812,19.59974 11.03393,28.33493 l -26.38532,40.03025 c -0.73168,1.12805 -0.33992,2.74465 0.62681,3.6895 l 21.47676,21.54704 c 0.91489,0.88262 2.57297,1.36656 3.6895,0.66139 l 41.10874,-25.2711 c 8.08879,4.68043 16.57739,8.60729 25.79308,11.10421 l 9.816,46.15906 c 0.28115,1.34007 1.11192,2.47157 2.43701,2.47157 h 30.70159 c 1.2929,0 2.7539,-1.20064 3.0627,-2.47157 l 11.034,-46.15906 c 9.4991,-2.57412 18.7297,-6.80056 27.0121,-11.69532 l 40.51299,27.08129 c 1.1143,0.70518 2.7067,0.36065 3.655,-0.62682 l 21.4768,-21.54705 c 0.9206,-0.9529 1.3009,-2.60638 0.6268,-3.72406 l -14.7246,-24.60971 -4.9086,1.84475 c -0.7006,0.35259 -1.4334,-0.0265 -1.8447,-0.6614 0,0 -9.2756,-14.10928 -21.4768,-32.02443 -14.5817,28.63568 -44.3051,48.03607 -78.5603,48.03607 -48.67093,0 -88.37739,-39.18795 -88.37739,-88.03175 0,-35.92709 21.51822,-66.84191 52.17378,-80.69193 v -22.76497 c -5.58034,1.97495 -10.81846,3.9453 -15.94251,6.75333 h -0.62681 l -41.10876,-27.08129 c -0.55884,-0.35374 -1.21908,-0.66254 -1.84476,-0.59225 v -0.0345"
       inkscape:connector-curvature="0"
       id="path66"
       style="fill:#dcdbdb;fill-opacity:1" />
  </g>
  <g
     transform="translate(0,-3)"
     id="g3167">
    <path
       d="M 78.65625,6 C 63.792798,6 49.986224,10.429561 38.5,18.03125 l 0,475.9375 C 49.986224,501.57044 63.792798,506 78.65625,506 L 147.5,506 147.5,6 78.65625,6 z"
       inkscape:connector-curvature="0"
       id="rect3068-5"
       style="opacity:0.05;fill:url(#linearGradient3108);fill-opacity:1;stroke:none" />
    <path
       d="m 147.50001,6 0,500 109,0 0,-500 -109,0 z"
       inkscape:connector-curvature="0"
       id="path3135"
       style="opacity:0.05;fill:url(#linearGradient3137);fill-opacity:1;stroke:none" />
    <path
       d="m 256.50001,6 0,500 109,0 0,-500 -109,0 z"
       inkscape:connector-curvature="0"
       id="path3139"
       style="opacity:0.05;fill:url(#linearGradient3141);fill-opacity:1;stroke:none" />
    <path
       d="m 365.5,6 0,500 67.84375,0 c 14.85395,0 28.64317,-4.43849 40.125,-12.03125 l 0,-475.9375 C 461.98692,10.438491 448.1977,6 433.34375,6 L 365.5,6 z"
       inkscape:connector-curvature="0"
       id="path3143"
       style="opacity:0.05;fill:url(#linearGradient3145);fill-opacity:1;stroke:none" />
    <path
       d="M 38.5,18.03125 C 18.885717,31.012164 6,53.274894 6,78.65625 l 0,354.6875 c 0,25.38136 12.885717,47.64409 32.5,60.625 l 0,-475.9375 z"
       inkscape:connector-curvature="0"
       id="path3151"
       style="opacity:0.05;fill:url(#linearGradient3153);fill-opacity:1;stroke:none" />
    <path
       d="m 473.46875,18.03125 0,475.9375 C 493.09542,480.98993 506,458.73461 506,433.34375 l 0,-354.6875 c 0,-25.390862 -12.90458,-47.646179 -32.53125,-60.625 z"
       inkscape:connector-curvature="0"
       id="path3147"
       style="opacity:0.05;fill:url(#linearGradient3149);fill-opacity:1;stroke:none" />
  </g>
</svg>
