<?xml version="1.0" encoding="UTF-8" standalone="no"?>
<!-- Created with Inkscape (http://www.inkscape.org/) -->

<svg
   xmlns:dc="http://purl.org/dc/elements/1.1/"
   xmlns:cc="http://creativecommons.org/ns#"
   xmlns:rdf="http://www.w3.org/1999/02/22-rdf-syntax-ns#"
   xmlns:svg="http://www.w3.org/2000/svg"
   xmlns="http://www.w3.org/2000/svg"
   xmlns:xlink="http://www.w3.org/1999/xlink"
   xmlns:inkscape="http://www.inkscape.org/namespaces/inkscape"
   version="1.1"
   width="100%"
   height="100%"
   viewBox="0 0 512 512"
   id="svg2">
  <metadata
     id="metadata72">
    <rdf:RDF>
      <cc:Work
         rdf:about="">
        <dc:format>image/svg+xml</dc:format>
        <dc:type
           rdf:resource="http://purl.org/dc/dcmitype/StillImage" />
      </cc:Work>
    </rdf:RDF>
  </metadata>
  <defs
     id="defs70">
    <linearGradient
       x1="257"
       y1="256"
       x2="362"
       y2="256"
       id="linearGradient3153"
       xlink:href="#linearGradient4996-0"
       gradientUnits="userSpaceOnUse"
       gradientTransform="matrix(1.0380952,0,0,1.4619252,-337.28943,-118.25286)" />
    <linearGradient
       x1="257"
       y1="256"
       x2="362"
       y2="256"
       id="linearGradient3149"
       xlink:href="#linearGradient4996-0"
       gradientUnits="userSpaceOnUse"
       gradientTransform="matrix(1.0283468,0,0,1.4619252,209.19233,-118.25286)" />
    <linearGradient
       x1="257"
       y1="256"
       x2="362"
       y2="256"
       id="linearGradient3145"
       xlink:href="#linearGradient4996-0"
       gradientUnits="userSpaceOnUse"
       gradientTransform="matrix(1.0283468,0,0,1.4619252,101.21591,-118.25286)" />
    <linearGradient
       x1="257"
       y1="256"
       x2="362"
       y2="256"
       id="linearGradient3141"
       xlink:href="#linearGradient4996-0"
       gradientUnits="userSpaceOnUse"
       gradientTransform="matrix(1.0380952,0,0,1.4619252,-10.28943,-118.25286)" />
    <linearGradient
       x1="257"
       y1="256"
       x2="362"
       y2="256"
       id="linearGradient3137"
       xlink:href="#linearGradient4996-0"
       gradientUnits="userSpaceOnUse"
       gradientTransform="matrix(1.0380952,0,0,1.4619252,-119.28943,-118.25286)" />
    <linearGradient
       x1="257"
       y1="256"
       x2="362"
       y2="256"
       id="linearGradient3108"
       xlink:href="#linearGradient4996-0"
       gradientUnits="userSpaceOnUse"
       gradientTransform="matrix(1.0380952,0,0,1.4619252,-228.28943,-118.25286)" />
    <linearGradient
       id="linearGradient4996-0">
      <stop
         id="stop4998-2"
         style="stop-color:#000000;stop-opacity:1"
         offset="0" />
      <stop
         id="stop5000-5"
         style="stop-color:#ffffff;stop-opacity:1"
         offset="1" />
    </linearGradient>
  </defs>
  <text
     x="729.64001"
     y="231.36"
     id="text20"
     style="font-size:129.22999573px;line-height:125%;letter-spacing:0;word-spacing:0;font-family:Gentium Book Basic">
    <tspan
       x="729.64001"
       y="231.36"
       id="tspan22" />
  </text>
  <text
     x="378.91"
     y="579.25"
     transform="scale(4.0128,0.2492)"
     id="text24"
     style="font-size:46.95399857px;text-anchor:middle;font-family:Arial" />
  <text
     x="1310.91"
     y="151.36"
     id="text26"
     style="font-size:129.22999573px;line-height:125%;letter-spacing:0;word-spacing:0;font-family:Gentium Book Basic">
    <tspan
       x="1310.91"
       y="151.36"
       id="tspan28" />
  </text>
  <text
     x="523.76001"
     y="258.22"
     transform="scale(4.0128,0.2492)"
     id="text30"
     style="font-size:46.95399857px;text-anchor:middle;font-family:Arial" />
  <text
     x="239.33"
     y="-29.900999"
     id="text32"
     style="font-size:129.22999573px;line-height:125%;letter-spacing:0;word-spacing:0;font-family:Gentium Book Basic">
    <tspan
       x="239.33"
       y="-29.900999"
       id="tspan34" />
  </text>
  <text
     x="256.72"
     y="-469.14001"
     transform="scale(4.0128,0.2492)"
     id="text36"
     style="font-size:46.95399857px;text-anchor:middle;font-family:Arial" />
  <text
     x="1337.38"
     y="-246.37"
     id="text38"
     style="font-size:129.22999573px;line-height:125%;letter-spacing:0;word-spacing:0;font-family:Gentium Book Basic">
    <tspan
       x="1337.38"
       y="-246.37"
       id="tspan40" />
  </text>
  <text
     x="530.35999"
     y="-1337.8101"
     transform="scale(4.0128,0.2492)"
     id="text42"
     style="font-size:46.95399857px;text-anchor:middle;font-family:Arial" />
  <text
     x="1918.65"
     y="-326.38"
     id="text44"
     style="font-size:129.22999573px;line-height:125%;letter-spacing:0;word-spacing:0;font-family:Gentium Book Basic">
    <tspan
       x="1918.65"
       y="-326.38"
       id="tspan46" />
  </text>
  <text
     x="675.21002"
     y="-1658.85"
     transform="scale(4.0128,0.2492)"
     id="text48"
     style="font-size:46.95399857px;text-anchor:middle;font-family:Arial" />
  <text
     x="1529.53"
     y="-798.78003"
     id="text50"
     style="font-size:129.22999573px;line-height:125%;letter-spacing:0;word-spacing:0;font-family:Gentium Book Basic">
    <tspan
       x="1529.53"
       y="-798.78003"
       id="tspan52" />
  </text>
  <text
     x="578.23999"
     y="-3554.51"
     transform="scale(4.0128,0.2492)"
     id="text54"
     style="font-size:46.95399857px;text-anchor:middle;font-family:Arial" />
  <text
     x="2110.79"
     y="-878.78003"
     id="text56"
     style="font-size:129.22999573px;line-height:125%;letter-spacing:0;word-spacing:0;font-family:Gentium Book Basic">
    <tspan
       x="2110.79"
       y="-878.78003"
       id="tspan58" />
  </text>
  <text
     x="723.09003"
     y="-3875.54"
     transform="scale(4.0128,0.2492)"
     id="text60"
     style="font-size:46.95399857px;text-anchor:middle;font-family:Arial" />
  <text
     x="277.98999"
     y="535.94"
     id="text62"
     style="font-size:208.33000183px;line-height:125%;letter-spacing:0;word-spacing:0;font-family:Gentium Book Basic">
    <tspan
       x="277.98999"
       y="535.94"
       id="tspan64" />
  </text>
  <rect
     width="500"
     height="500"
     rx="72.644058"
     ry="72.644058"
     x="6"
     y="9"
     id="rect5028-8"
     style="opacity:0.2;fill:#000000;fill-opacity:1;stroke:none" />
  <rect
     width="500"
     height="500"
     rx="72.644058"
     ry="72.644058"
     x="6"
     y="3"
     id="rect4979-5"
     style="fill:#f3f3f3;fill-opacity:1;stroke:none" />
  <rect
     width="434.99997"
     height="434.99997"
     rx="63.200329"
     ry="63.200329"
     x="38.500011"
     y="35.500011"
     id="rect4981-1"
     style="fill:#6e6568;fill-opacity:1;stroke:none" />
  <path
     d="M 101.6875,35.5 C 66.674518,35.5 38.5,63.674518 38.5,98.6875 l 0,15 C 38.5,78.674518 66.674518,50.5 101.6875,50.5 l 308.625,0 c 35.01298,0 63.1875,28.174518 63.1875,63.1875 l 0,-15 C 473.5,63.674518 445.32548,35.5 410.3125,35.5 l -308.625,0 z"
     inkscape:connector-curvature="0"
     id="rect3187"
     style="opacity:0.2;fill:#000000;fill-opacity:1;stroke:none" />
  <g
     transform="translate(-7.4999985,-7.5000038)"
     id="g3269">
    <path
       d="m 351.36884,128.37613 a 4.3460567,4.3460567 0 0 0 -1.01424,0.13087 c -11.45862,2.87211 -26.08816,9.40021 -35.76009,13.7413 -1.38454,-0.23942 -2.60932,0.0786 -3.79522,0.32718 -1.92732,0.404 -4.04318,1.12043 -6.54348,2.12663 -5.0006,2.01239 -11.48076,5.18531 -19.17238,9.25902 -15.38324,8.14741 -35.58421,19.91765 -57.35356,33.07726 -43.53869,26.31921 -93.2756,58.13382 -122.29756,77.01671 a 4.3460567,4.3460567 0 0 0 3.92609,7.68858 c 17.28582,-6.60421 45.09309,-17.08895 69.26269,-24.96336 12.0848,-3.9372 23.2803,-7.23237 31.6377,-9.02999 4.1787,-0.89881 7.68547,-1.38943 10.01152,-1.47228 0.67492,-0.0241 0.9059,0.0872 1.30869,0.16358 -0.0549,0.20252 -0.012,0.21109 -0.0981,0.45805 -0.64228,1.84117 -2.16236,4.75394 -4.38413,8.31021 -4.44352,7.11254 -11.68465,16.93218 -20.54651,28.82401 -17.72371,23.78366 -41.95475,55.98124 -64.06062,93.37539 a 4.3460567,4.3460567 0 0 0 6.93608,5.16935 c 18.30874,-19.71365 44.52782,-51.77481 67.75769,-78.06366 11.61494,-13.14443 22.48115,-24.8327 31.04879,-32.68466 2.58089,-2.36531 4.85709,-4.24096 6.93608,-5.8237 -1.0774,1.8382 -1.81343,3.19994 -3.23902,5.52924 -5.5127,9.0073 -13.42345,21.46436 -22.44412,36.25086 -21.56282,35.33715 -37.69796,67.0182 -53.49291,97.26876 a 4.3460567,4.3460567 0 0 0 -0.42532,2.6501 c -0.18649,0.54038 -0.32884,1.0078 -0.68707,1.8649 -1.06712,2.55319 -2.72132,5.94816 -3.63163,7.52499 a 4.3460567,4.3460567 0 0 0 7.03424,5.03848 c 20.22298,-22.70732 68.7159,-91.88466 88.76224,-120.4981 9.28183,-13.24996 19.95132,-30.4459 30.39445,-44.20118 5.22155,-6.87764 10.38959,-12.88519 15.11542,-17.01303 4.72584,-4.12785 8.92081,-6.14684 11.71282,-6.18359 6.03043,-0.0807 13.05355,2.98815 20.90641,9.65163 7.85286,6.66348 16.34039,16.79201 25.15966,29.83825 17.63855,26.09247 36.59163,63.83143 55.94672,109.14517 6.49973,15.21921 5.49016,17.35573 9.2263,27.90792 a 4.3460567,4.3460567 0 0 0 1.43956,1.96304 c 1.54955,1.21544 4.68415,1.72164 6.57619,0.65435 1.89205,-1.06729 2.47361,-2.35424 2.97729,-3.36989 0.50368,-1.01565 0.81169,-1.94674 1.04695,-2.58467 0.17463,-0.47354 0.34622,-0.6875 0.13087,-0.42533 a 4.3460567,4.3460567 0 0 0 0.81788,-2.74826 C 438.02067,384.0151 433.01509,365.45653 424.62304,335.44442 406.48257,270.55394 387.86237,199.0277 341.91352,164.23438 l 2.35565,-14.98456 c 3.1484,-4.01651 7.75931,-9.41944 10.79673,-14.1339 a 4.3460567,4.3460567 0 0 0 0.58891,-1.40685 l 0,-0.0327 a 4.3460567,4.3460567 0 0 0 -4.28597,-5.30021 z"
       inkscape:connector-curvature="0"
       id="path3267"
       style="font-size:medium;font-style:normal;font-variant:normal;font-weight:normal;font-stretch:normal;text-indent:0;text-align:start;text-decoration:none;line-height:normal;letter-spacing:normal;word-spacing:normal;text-transform:none;direction:ltr;block-progression:tb;writing-mode:lr-tb;text-anchor:start;baseline-shift:baseline;opacity:0.2;color:#000000;fill:#000000;fill-opacity:1;fill-rule:evenodd;stroke:none;stroke-width:8.30144119;marker:none;visibility:visible;display:inline;overflow:visible;enable-background:accumulate;font-family:Sans;-inkscape-font-specification:Sans" />
    <path
       d="m 336.36884,113.37613 a 4.3460567,4.3460567 0 0 0 -1.01424,0.13087 c -11.45862,2.87211 -26.08816,9.40021 -35.76009,13.7413 -1.38454,-0.23942 -2.60932,0.0786 -3.79522,0.32718 -1.92732,0.404 -4.04318,1.12043 -6.54348,2.12663 -5.0006,2.01239 -11.48076,5.18531 -19.17238,9.25902 -15.38324,8.14741 -35.58421,19.91765 -57.35356,33.07726 -43.53869,26.31921 -93.2756,58.13382 -122.297556,77.01671 a 4.3460567,4.3460567 0 0 0 3.92609,7.68858 c 17.285816,-6.60421 45.093086,-17.08895 69.262686,-24.96336 12.0848,-3.9372 23.2803,-7.23237 31.6377,-9.02999 4.1787,-0.89881 7.68547,-1.38943 10.01152,-1.47228 0.67492,-0.0241 0.9059,0.0872 1.30869,0.16358 -0.0549,0.20252 -0.012,0.21109 -0.0981,0.45805 -0.64228,1.84117 -2.16236,4.75394 -4.38413,8.31021 -4.44352,7.11254 -11.68465,16.93218 -20.54651,28.82401 -17.72371,23.78366 -41.95475,55.98124 -64.06062,93.37539 a 4.3460567,4.3460567 0 0 0 6.93608,5.16935 c 18.30874,-19.71365 44.52782,-51.77481 67.75769,-78.06366 11.61494,-13.14443 22.48115,-24.8327 31.04879,-32.68466 2.58089,-2.36531 4.85709,-4.24096 6.93608,-5.8237 -1.0774,1.8382 -1.81343,3.19994 -3.23902,5.52924 -5.5127,9.0073 -13.42345,21.46436 -22.44412,36.25086 -21.56282,35.33715 -37.69796,67.0182 -53.49291,97.26876 a 4.3460567,4.3460567 0 0 0 -0.42532,2.6501 c -0.18649,0.54038 -0.32884,1.0078 -0.68707,1.8649 -1.06712,2.55319 -2.72132,5.94816 -3.63163,7.52499 a 4.3460567,4.3460567 0 0 0 7.03424,5.03848 c 20.22298,-22.70732 68.7159,-91.88466 88.76224,-120.4981 9.28183,-13.24996 19.95132,-30.4459 30.39445,-44.20118 5.22155,-6.87764 10.38959,-12.88519 15.11542,-17.01303 4.72584,-4.12785 8.92081,-6.14684 11.71282,-6.18359 6.03043,-0.0807 13.05355,2.98815 20.90641,9.65163 7.85286,6.66348 16.34039,16.79201 25.15966,29.83825 17.63855,26.09247 36.59163,63.83143 55.94672,109.14517 6.49973,15.21921 5.49016,17.35573 9.2263,27.90792 a 4.3460567,4.3460567 0 0 0 1.43956,1.96304 c 1.54955,1.21544 4.68415,1.72164 6.57619,0.65435 1.89205,-1.06729 2.47361,-2.35424 2.97729,-3.36989 0.50368,-1.01565 0.81169,-1.94674 1.04695,-2.58467 0.17463,-0.47354 0.34622,-0.6875 0.13087,-0.42533 a 4.3460567,4.3460567 0 0 0 0.81788,-2.74826 C 423.02067,369.0151 418.01509,350.45653 409.62304,320.44442 391.48257,255.55394 372.86237,184.0277 326.91352,149.23438 l 2.35565,-14.98456 c 3.1484,-4.01651 7.75931,-9.41944 10.79673,-14.1339 a 4.3460567,4.3460567 0 0 0 0.58891,-1.40685 l 0,-0.0327 a 4.3460567,4.3460567 0 0 0 -4.28597,-5.30021 z"
       inkscape:connector-curvature="0"
       id="path3144"
       style="font-size:medium;font-style:normal;font-variant:normal;font-weight:normal;font-stretch:normal;text-indent:0;text-align:start;text-decoration:none;line-height:normal;letter-spacing:normal;word-spacing:normal;text-transform:none;direction:ltr;block-progression:tb;writing-mode:lr-tb;text-anchor:start;baseline-shift:baseline;color:#000000;fill:#dcdbdb;fill-opacity:1;fill-rule:evenodd;stroke:none;stroke-width:8.30144119;marker:none;visibility:visible;display:inline;overflow:visible;enable-background:accumulate;font-family:Sans;-inkscape-font-specification:Sans" />
  </g>
  <g
     transform="translate(0,-3)"
     id="g3167">
    <path
       d="M 78.65625,6 C 63.792798,6 49.986224,10.429561 38.5,18.03125 l 0,475.9375 C 49.986224,501.57044 63.792798,506 78.65625,506 L 147.5,506 147.5,6 78.65625,6 z"
       inkscape:connector-curvature="0"
       id="rect3068-6"
       style="opacity:0.05;fill:url(#linearGradient3108);fill-opacity:1;stroke:none" />
    <path
       d="m 147.50001,6 0,500 109,0 0,-500 -109,0 z"
       inkscape:connector-curvature="0"
       id="path3135"
       style="opacity:0.05;fill:url(#linearGradient3137);fill-opacity:1;stroke:none" />
    <path
       d="m 256.50001,6 0,500 109,0 0,-500 -109,0 z"
       inkscape:connector-curvature="0"
       id="path3139"
       style="opacity:0.05;fill:url(#linearGradient3141);fill-opacity:1;stroke:none" />
    <path
       d="m 365.5,6 0,500 67.84375,0 c 14.85395,0 28.64317,-4.43849 40.125,-12.03125 l 0,-475.9375 C 461.98692,10.438491 448.1977,6 433.34375,6 L 365.5,6 z"
       inkscape:connector-curvature="0"
       id="path3143"
       style="opacity:0.05;fill:url(#linearGradient3145);fill-opacity:1;stroke:none" />
    <path
       d="M 38.5,18.03125 C 18.885717,31.012164 6,53.274894 6,78.65625 l 0,354.6875 c 0,25.38136 12.885717,47.64409 32.5,60.625 l 0,-475.9375 z"
       inkscape:connector-curvature="0"
       id="path3151"
       style="opacity:0.05;fill:url(#linearGradient3153);fill-opacity:1;stroke:none" />
    <path
       d="m 473.46875,18.03125 0,475.9375 C 493.09542,480.98993 506,458.73461 506,433.34375 l 0,-354.6875 c 0,-25.390862 -12.90458,-47.646179 -32.53125,-60.625 z"
       inkscape:connector-curvature="0"
       id="path3147-5"
       style="opacity:0.05;fill:url(#linearGradient3149);fill-opacity:1;stroke:none" />
  </g>
</svg>
