<?xml version="1.0" encoding="UTF-8" standalone="no"?>
<!-- Created with Inkscape (http://www.inkscape.org/) -->

<svg
   xmlns:dc="http://purl.org/dc/elements/1.1/"
   xmlns:cc="http://creativecommons.org/ns#"
   xmlns:rdf="http://www.w3.org/1999/02/22-rdf-syntax-ns#"
   xmlns:svg="http://www.w3.org/2000/svg"
   xmlns="http://www.w3.org/2000/svg"
   xmlns:xlink="http://www.w3.org/1999/xlink"
   xmlns:inkscape="http://www.inkscape.org/namespaces/inkscape"
   version="1.1"
   width="100%"
   height="100%"
   viewBox="0 0 512 512"
   id="svg2">
  <metadata
     id="metadata74">
    <rdf:RDF>
      <cc:Work
         rdf:about="">
        <dc:format>image/svg+xml</dc:format>
        <dc:type
           rdf:resource="http://purl.org/dc/dcmitype/StillImage" />
      </cc:Work>
    </rdf:RDF>
  </metadata>
  <defs
     id="defs72">
    <linearGradient
       x1="257"
       y1="256"
       x2="362"
       y2="256"
       id="linearGradient3153"
       xlink:href="#linearGradient4996-6"
       gradientUnits="userSpaceOnUse"
       gradientTransform="matrix(1.0380952,0,0,1.4619252,-337.28943,-118.25286)" />
    <linearGradient
       x1="257"
       y1="256"
       x2="362"
       y2="256"
       id="linearGradient3149"
       xlink:href="#linearGradient4996-6"
       gradientUnits="userSpaceOnUse"
       gradientTransform="matrix(1.0283468,0,0,1.4619252,209.19233,-118.25286)" />
    <linearGradient
       x1="257"
       y1="256"
       x2="362"
       y2="256"
       id="linearGradient3145"
       xlink:href="#linearGradient4996-6"
       gradientUnits="userSpaceOnUse"
       gradientTransform="matrix(1.0283468,0,0,1.4619252,101.21591,-118.25286)" />
    <linearGradient
       x1="257"
       y1="256"
       x2="362"
       y2="256"
       id="linearGradient3141"
       xlink:href="#linearGradient4996-6"
       gradientUnits="userSpaceOnUse"
       gradientTransform="matrix(1.0380952,0,0,1.4619252,-10.28943,-118.25286)" />
    <linearGradient
       x1="257"
       y1="256"
       x2="362"
       y2="256"
       id="linearGradient3137"
       xlink:href="#linearGradient4996-6"
       gradientUnits="userSpaceOnUse"
       gradientTransform="matrix(1.0380952,0,0,1.4619252,-119.28943,-118.25286)" />
    <linearGradient
       x1="257"
       y1="256"
       x2="362"
       y2="256"
       id="linearGradient3108"
       xlink:href="#linearGradient4996-6"
       gradientUnits="userSpaceOnUse"
       gradientTransform="matrix(1.0380952,0,0,1.4619252,-228.28943,-118.25286)" />
    <linearGradient
       id="linearGradient4996-6">
      <stop
         id="stop4998-2"
         style="stop-color:#000000;stop-opacity:1"
         offset="0" />
      <stop
         id="stop5000-2"
         style="stop-color:#ffffff;stop-opacity:1"
         offset="1" />
    </linearGradient>
  </defs>
  <text
     x="729.64001"
     y="231.36"
     id="text20"
     style="font-size:129.22999573px;line-height:125%;letter-spacing:0;word-spacing:0;font-family:Gentium Book Basic">
    <tspan
       x="729.64001"
       y="231.36"
       id="tspan22" />
  </text>
  <text
     x="378.91"
     y="579.25"
     transform="scale(4.0128,0.2492)"
     id="text24"
     style="font-size:46.95399857px;text-anchor:middle;font-family:Arial" />
  <text
     x="1310.91"
     y="151.36"
     id="text26"
     style="font-size:129.22999573px;line-height:125%;letter-spacing:0;word-spacing:0;font-family:Gentium Book Basic">
    <tspan
       x="1310.91"
       y="151.36"
       id="tspan28" />
  </text>
  <text
     x="523.76001"
     y="258.22"
     transform="scale(4.0128,0.2492)"
     id="text30"
     style="font-size:46.95399857px;text-anchor:middle;font-family:Arial" />
  <text
     x="239.33"
     y="-29.900999"
     id="text32"
     style="font-size:129.22999573px;line-height:125%;letter-spacing:0;word-spacing:0;font-family:Gentium Book Basic">
    <tspan
       x="239.33"
       y="-29.900999"
       id="tspan34" />
  </text>
  <text
     x="256.72"
     y="-469.14001"
     transform="scale(4.0128,0.2492)"
     id="text36"
     style="font-size:46.95399857px;text-anchor:middle;font-family:Arial" />
  <text
     x="1337.38"
     y="-246.37"
     id="text38"
     style="font-size:129.22999573px;line-height:125%;letter-spacing:0;word-spacing:0;font-family:Gentium Book Basic">
    <tspan
       x="1337.38"
       y="-246.37"
       id="tspan40" />
  </text>
  <text
     x="530.35999"
     y="-1337.8101"
     transform="scale(4.0128,0.2492)"
     id="text42"
     style="font-size:46.95399857px;text-anchor:middle;font-family:Arial" />
  <text
     x="1918.65"
     y="-326.38"
     id="text44"
     style="font-size:129.22999573px;line-height:125%;letter-spacing:0;word-spacing:0;font-family:Gentium Book Basic">
    <tspan
       x="1918.65"
       y="-326.38"
       id="tspan46" />
  </text>
  <text
     x="675.21002"
     y="-1658.85"
     transform="scale(4.0128,0.2492)"
     id="text48"
     style="font-size:46.95399857px;text-anchor:middle;font-family:Arial" />
  <text
     x="1529.53"
     y="-798.78003"
     id="text50"
     style="font-size:129.22999573px;line-height:125%;letter-spacing:0;word-spacing:0;font-family:Gentium Book Basic">
    <tspan
       x="1529.53"
       y="-798.78003"
       id="tspan52" />
  </text>
  <text
     x="578.23999"
     y="-3554.51"
     transform="scale(4.0128,0.2492)"
     id="text54"
     style="font-size:46.95399857px;text-anchor:middle;font-family:Arial" />
  <text
     x="2110.79"
     y="-878.78003"
     id="text56"
     style="font-size:129.22999573px;line-height:125%;letter-spacing:0;word-spacing:0;font-family:Gentium Book Basic">
    <tspan
       x="2110.79"
       y="-878.78003"
       id="tspan58" />
  </text>
  <text
     x="723.09003"
     y="-3875.54"
     transform="scale(4.0128,0.2492)"
     id="text60"
     style="font-size:46.95399857px;text-anchor:middle;font-family:Arial" />
  <text
     x="277.98999"
     y="535.94"
     id="text62"
     style="font-size:208.33000183px;line-height:125%;letter-spacing:0;word-spacing:0;font-family:Gentium Book Basic">
    <tspan
       x="277.98999"
       y="535.94"
       id="tspan64" />
  </text>
  <rect
     width="500"
     height="500"
     rx="72.644058"
     ry="72.644058"
     x="6"
     y="9"
     id="rect5028-9"
     style="opacity:0.2;fill:#000000;fill-opacity:1;stroke:none" />
  <rect
     width="500"
     height="500"
     rx="72.644058"
     ry="72.644058"
     x="6"
     y="3"
     id="rect4979-9"
     style="fill:#f3f3f3;fill-opacity:1;stroke:none" />
  <rect
     width="434.99997"
     height="434.99997"
     rx="63.200329"
     ry="63.200329"
     x="38.500011"
     y="35.500011"
     id="rect4981-4"
     style="fill:#1faac2;fill-opacity:1;stroke:none" />
  <path
     d="M 101.6875,35.5 C 66.674518,35.5 38.5,63.674518 38.5,98.6875 l 0,15 C 38.5,78.674518 66.674518,50.5 101.6875,50.5 l 308.625,0 c 35.01298,0 63.1875,28.174518 63.1875,63.1875 l 0,-15 C 473.5,63.674518 445.32548,35.5 410.3125,35.5 l -308.625,0 z"
     inkscape:connector-curvature="0"
     id="rect3187"
     style="opacity:0.2;fill:#000000;fill-opacity:1;stroke:none" />
  <g
     transform="translate(-7.4999964,-7.5)"
     id="g3253">
    <path
       d="m 378.55687,103.5 c -69.69229,0 -82.79101,99.28449 -43.58419,99.28449 39.19569,0 113.27659,-99.28449 43.58419,-99.28449 m -107.69309,12.14395 c -1.10664,-0.003 -2.26352,0.0849 -3.48964,0.24455 -39.21799,5.09098 -25.42023,73.29923 -4.53709,74.57336 20.22316,1.23506 42.33242,-74.69954 8.02673,-74.81791 m -67.9436,27.01261 c -2.07368,0.0457 -4.34279,0.51927 -6.80508,1.53546 -31.52402,13.00826 -4.78276,66.70184 12.87649,63.09271 16.29357,-3.32214 18.39293,-65.16976 -6.07252,-64.62817 m -51.26256,42.08565 c -2.44665,0.14182 -5.09097,1.09435 -7.8503,3.00164 -25.23485,17.43592 8.49909,59.54167 23.34542,53.00905 13.22267,-5.82016 4.42766,-57.16311 -15.494,-56.01293 m 141.04851,32.20967 c -53.5417,0.47459 -121.68519,27.61005 -133.54439,80.74752 C 145.98039,356.67823 213.41033,438.5 283.77266,438.5 c 34.61613,0 74.53651,-31.24261 82.00941,-70.84252 5.7051,-30.19516 -67.14633,-18.09476 -64.52323,1.88498 3.13565,23.94842 -17.55095,35.74509 -37.82771,20.3125 -64.55112,-49.14532 106.87794,-73.66438 95.57704,-140.80285 -3.6638,-21.7709 -31.98182,-32.40621 -66.29756,-32.10471"
       inkscape:connector-curvature="0"
       id="path3251"
       style="opacity:0.2;fill:#000000;fill-opacity:1" />
    <path
       d="m 363.55687,88.5 c -69.69229,0 -82.79101,99.28449 -43.58419,99.28449 39.19569,0 113.27659,-99.28449 43.58419,-99.28449 m -107.69309,12.14395 c -1.10664,-0.003 -2.26352,0.0849 -3.48964,0.24455 -39.21799,5.09098 -25.42023,73.29923 -4.53709,74.57336 20.22316,1.23506 42.33242,-74.69954 8.02673,-74.81791 m -67.9436,27.01261 c -2.07368,0.0457 -4.34279,0.51927 -6.80508,1.53546 -31.52402,13.00826 -4.78276,66.70184 12.87649,63.09271 16.29357,-3.32214 18.39293,-65.16976 -6.07252,-64.62817 m -51.26256,42.08565 c -2.44665,0.14182 -5.09097,1.09435 -7.8503,3.00164 -25.23485,17.43592 8.49909,59.54167 23.34542,53.00905 13.22267,-5.82016 4.42766,-57.16311 -15.494,-56.01293 m 141.04851,32.20967 c -53.5417,0.47459 -121.68519,27.61005 -133.54439,80.74752 C 130.98039,341.67823 198.41033,423.5 268.77266,423.5 c 34.61613,0 74.53651,-31.24261 82.00941,-70.84252 5.7051,-30.19516 -67.14633,-18.09476 -64.52323,1.88498 3.13565,23.94842 -17.55095,35.74509 -37.82771,20.3125 -64.55112,-49.14532 106.87794,-73.66438 95.57704,-140.80285 -3.6638,-21.7709 -31.98182,-32.40621 -66.29756,-32.10471"
       inkscape:connector-curvature="0"
       id="path68"
       style="fill:#dcdbdb;fill-opacity:1" />
  </g>
  <g
     transform="translate(0,-3)"
     id="g3167">
    <path
       d="M 78.65625,6 C 63.792798,6 49.986224,10.429561 38.5,18.03125 l 0,475.9375 C 49.986224,501.57044 63.792798,506 78.65625,506 L 147.5,506 147.5,6 78.65625,6 z"
       inkscape:connector-curvature="0"
       id="rect3068-8"
       style="opacity:0.05;fill:url(#linearGradient3108);fill-opacity:1;stroke:none" />
    <path
       d="m 147.50001,6 0,500 109,0 0,-500 -109,0 z"
       inkscape:connector-curvature="0"
       id="path3135"
       style="opacity:0.05;fill:url(#linearGradient3137);fill-opacity:1;stroke:none" />
    <path
       d="m 256.50001,6 0,500 109,0 0,-500 -109,0 z"
       inkscape:connector-curvature="0"
       id="path3139"
       style="opacity:0.05;fill:url(#linearGradient3141);fill-opacity:1;stroke:none" />
    <path
       d="m 365.5,6 0,500 67.84375,0 c 14.85395,0 28.64317,-4.43849 40.125,-12.03125 l 0,-475.9375 C 461.98692,10.438491 448.1977,6 433.34375,6 L 365.5,6 z"
       inkscape:connector-curvature="0"
       id="path3143"
       style="opacity:0.05;fill:url(#linearGradient3145);fill-opacity:1;stroke:none" />
    <path
       d="M 38.5,18.03125 C 18.885717,31.012164 6,53.274894 6,78.65625 l 0,354.6875 c 0,25.38136 12.885717,47.64409 32.5,60.625 l 0,-475.9375 z"
       inkscape:connector-curvature="0"
       id="path3151"
       style="opacity:0.05;fill:url(#linearGradient3153);fill-opacity:1;stroke:none" />
    <path
       d="m 473.46875,18.03125 0,475.9375 C 493.09542,480.98993 506,458.73461 506,433.34375 l 0,-354.6875 c 0,-25.390862 -12.90458,-47.646179 -32.53125,-60.625 z"
       inkscape:connector-curvature="0"
       id="path3147"
       style="opacity:0.05;fill:url(#linearGradient3149);fill-opacity:1;stroke:none" />
  </g>
</svg>
