<?xml version="1.0" encoding="UTF-8" standalone="no"?>
<!-- Created with Inkscape (http://www.inkscape.org/) -->

<svg
   xmlns:dc="http://purl.org/dc/elements/1.1/"
   xmlns:cc="http://creativecommons.org/ns#"
   xmlns:rdf="http://www.w3.org/1999/02/22-rdf-syntax-ns#"
   xmlns:svg="http://www.w3.org/2000/svg"
   xmlns="http://www.w3.org/2000/svg"
   xmlns:xlink="http://www.w3.org/1999/xlink"
   xmlns:inkscape="http://www.inkscape.org/namespaces/inkscape"
   version="1.1"
   width="100%"
   height="100%"
   viewBox="0 0 512 512"
   id="svg2">
  <metadata
     id="metadata10">
    <rdf:RDF>
      <cc:Work
         rdf:about="">
        <dc:format>image/svg+xml</dc:format>
        <dc:type
           rdf:resource="http://purl.org/dc/dcmitype/StillImage" />
        <dc:title />
      </cc:Work>
    </rdf:RDF>
  </metadata>
  <defs
     id="defs8">
    <linearGradient
       id="linearGradient4379">
      <stop
         id="stop4381"
         style="stop-color:#f3f3f3;stop-opacity:1"
         offset="0" />
      <stop
         id="stop4387"
         style="stop-color:#eeeeee;stop-opacity:1"
         offset="0.5" />
      <stop
         id="stop4383"
         style="stop-color:#ebebeb;stop-opacity:1"
         offset="1" />
    </linearGradient>
    <linearGradient
       id="linearGradient4996">
      <stop
         id="stop4998"
         style="stop-color:#000000;stop-opacity:1"
         offset="0" />
      <stop
         id="stop5000"
         style="stop-color:#ffffff;stop-opacity:1"
         offset="1" />
    </linearGradient>
    <linearGradient
       x1="257"
       y1="256"
       x2="362"
       y2="256"
       id="linearGradient3108"
       xlink:href="#linearGradient4996"
       gradientUnits="userSpaceOnUse"
       gradientTransform="matrix(1.0380952,0,0,1.4619252,-228.28943,-118.25286)" />
    <linearGradient
       x1="257"
       y1="256"
       x2="362"
       y2="256"
       id="linearGradient3137"
       xlink:href="#linearGradient4996"
       gradientUnits="userSpaceOnUse"
       gradientTransform="matrix(1.0380952,0,0,1.4619252,-119.28943,-118.25286)" />
    <linearGradient
       x1="257"
       y1="256"
       x2="362"
       y2="256"
       id="linearGradient3141"
       xlink:href="#linearGradient4996"
       gradientUnits="userSpaceOnUse"
       gradientTransform="matrix(1.0380952,0,0,1.4619252,-10.28943,-118.25286)" />
    <linearGradient
       x1="257"
       y1="256"
       x2="362"
       y2="256"
       id="linearGradient3145"
       xlink:href="#linearGradient4996"
       gradientUnits="userSpaceOnUse"
       gradientTransform="matrix(1.0283468,0,0,1.4619252,101.21591,-118.25286)" />
    <linearGradient
       x1="257"
       y1="256"
       x2="362"
       y2="256"
       id="linearGradient3149"
       xlink:href="#linearGradient4996"
       gradientUnits="userSpaceOnUse"
       gradientTransform="matrix(1.0283468,0,0,1.4619252,209.19233,-118.25286)" />
    <linearGradient
       x1="257"
       y1="256"
       x2="362"
       y2="256"
       id="linearGradient3153"
       xlink:href="#linearGradient4996"
       gradientUnits="userSpaceOnUse"
       gradientTransform="matrix(1.0380952,0,0,1.4619252,-337.28943,-118.25286)" />
    <filter
       color-interpolation-filters="sRGB"
       id="filter4375">
      <feGaussianBlur
         id="feGaussianBlur4377"
         stdDeviation="3.7725" />
    </filter>
    <linearGradient
       x1="243.40109"
       y1="19.563948"
       x2="243.40109"
       y2="504.01736"
       id="linearGradient4385"
       xlink:href="#linearGradient4379"
       gradientUnits="userSpaceOnUse" />
  </defs>
  <path
     d="M 78.65625,6 C 77.727284,6 76.7954,6.028201 75.875,6.0625 c -0.07263,0.00271 -0.146175,-0.00292 -0.21875,0 -0.667525,0.026885 -1.337341,0.080382 -2,0.125 -0.376044,0.025339 -0.750567,0.06275 -1.125,0.09375 -0.645383,0.053335 -1.297116,0.086292 -1.9375,0.15625 -0.964758,0.1056372 -1.92213,0.2322176 -2.875,0.375 -0.05244,0.00785 -0.103846,0.023287 -0.15625,0.03125 -1.081643,0.1645031 -2.153542,0.3511537 -3.21875,0.5625 -0.458856,0.090934 -0.919352,0.1817694 -1.375,0.28125 -0.389652,0.085153 -0.768995,0.1899077 -1.15625,0.28125 -0.647137,0.1524325 -1.297279,0.2992302 -1.9375,0.46875 -0.897912,0.2383086 -1.803779,0.4787011 -2.6875,0.75 -0.211469,0.064865 -0.414369,0.1520193 -0.625,0.21875 -0.990632,0.31413 -1.966018,0.645252 -2.9375,1 -0.81664,0.298205 -1.635052,0.61125 -2.4375,0.9375 -0.289646,0.117695 -0.587254,0.222447 -0.875,0.34375 -0.136304,0.05748 -0.270377,0.129216 -0.40625,0.1875 -0.08158,0.03499 -0.168575,0.05847 -0.25,0.09375 -0.717408,0.310893 -1.419986,0.635691 -2.125,0.96875 -0.146871,0.06935 -0.291177,0.148448 -0.4375,0.21875 -0.947426,0.455419 -1.888747,0.942866 -2.8125,1.4375 -0.270754,0.145027 -0.543833,0.289155 -0.8125,0.4375 -0.413894,0.228446 -0.80991,0.482534 -1.21875,0.71875 -0.519534,0.3002 -1.051276,0.59365 -1.5625,0.90625 -0.738415,0.451521 -1.466939,0.898126 -2.1875,1.375 -0.03136,0.02076 -0.06242,0.0417 -0.09375,0.0625 -0.455714,0.302619 -0.895403,0.624929 -1.34375,0.9375 -0.12329,0.08595 -0.252274,0.163301 -0.375,0.25 -0.523807,0.370033 -1.049132,0.741548 -1.5625,1.125 -1.834823,1.370867 -3.61841,2.83999 -5.3125,4.375 -0.01686,0.01529 -0.04565,0.01594 -0.0625,0.03125 -0.525503,0.477042 -1.020045,0.976621 -1.53125,1.46875 -0.523864,0.504532 -1.054023,1.011238 -1.5625,1.53125 -0.511747,0.523337 -1.004213,1.055106 -1.5,1.59375 -0.940691,1.021647 -1.837444,2.050227 -2.71875,3.125 -0.630994,0.769351 -1.244316,1.579546 -1.84375,2.375 -0.11144,0.147971 -0.233421,0.288646 -0.34375,0.4375 -0.526402,0.709863 -1.03052,1.426685 -1.53125,2.15625 -0.1096,0.159719 -0.2354,0.308107 -0.34375,0.46875 -0.01291,0.01914 -0.01835,0.04334 -0.03125,0.0625 -0.08412,0.124975 -0.166642,0.249471 -0.25,0.375 -0.470452,0.708261 -0.929067,1.430666 -1.375,2.15625 -0.07142,0.116299 -0.147966,0.227015 -0.21875,0.34375 -0.575244,0.947877 -1.123831,1.899071 -1.65625,2.875 -0.151685,0.278003 -0.289357,0.563537 -0.4375,0.84375 -0.180267,0.34099 -0.356276,0.687036 -0.53125,1.03125 -0.24349,0.47907 -0.485639,0.952311 -0.71875,1.4375 -0.425616,0.885192 -0.82836,1.782606 -1.21875,2.6875 -0.239924,0.55644 -0.461163,1.12388 -0.6875,1.6875 -0.03835,0.09547 -0.08704,0.185581 -0.125,0.28125 -0.246419,0.621259 -0.489069,1.245354 -0.71875,1.875 -0.331616,0.908596 -0.6414273,1.824625 -0.9375,2.75 -0.1104896,0.34546 -0.2382922,0.683529 -0.34375,1.03125 -0.3005827,0.990417 -0.5846489,1.991902 -0.84375,3 -0.0081,0.03157 -0.023192,0.06216 -0.03125,0.09375 -0.2674201,1.046421 -0.4970832,2.091906 -0.71875,3.15625 -0.034468,0.165576 -0.060404,0.334005 -0.09375,0.5 -0.425617,2.117472 -0.7616509,4.256539 -1,6.4375 -0.035239,0.322576 -0.062715,0.644892 -0.09375,0.96875 -0.089959,0.938162 -0.1645198,1.895285 -0.21875,2.84375 -0.016589,0.290318 -0.01805,0.583758 -0.03125,0.875 C 6.0430557,76.400053 6,77.5245 6,78.65625 l 0,354.6875 0,6 C 6,479.58856 38.411442,512 78.65625,512 l 354.6875,0 C 473.58856,512 506,479.58856 506,439.34375 l 0,-354.6875 0,-6 c 0,-1.258769 -0.0311,-2.507392 -0.0937,-3.75 -0.0163,-0.323166 -0.0421,-0.646737 -0.0625,-0.96875 -0.0584,-0.917119 -0.12695,-1.842677 -0.21875,-2.75 -0.0202,-0.199871 -0.0407,-0.394371 -0.0625,-0.59375 -0.24565,-2.245156 -0.58713,-4.447448 -1.03125,-6.625 -0.0212,-0.104122 -0.0409,-0.208543 -0.0625,-0.3125 -0.22667,-1.08707 -0.47558,-2.150432 -0.75,-3.21875 -0.0107,-0.04191 -0.0204,-0.08311 -0.0312,-0.125 -0.18956,-0.732478 -0.41344,-1.464333 -0.625,-2.1875 -0.21151,-0.724213 -0.42307,-1.441731 -0.65625,-2.15625 -0.25787,-0.789044 -0.52868,-1.567033 -0.8125,-2.34375 -0.22968,-0.629646 -0.47233,-1.253741 -0.71875,-1.875 -0.038,-0.09567 -0.0866,-0.185784 -0.125,-0.28125 -0.23857,-0.594075 -0.46509,-1.195158 -0.71875,-1.78125 -0.37765,-0.871036 -0.77715,-1.741032 -1.1875,-2.59375 -0.23311,-0.485189 -0.47526,-0.95843 -0.71875,-1.4375 -0.28704,-0.564002 -0.57378,-1.132208 -0.875,-1.6875 -0.0509,-0.0939 -0.10497,-0.187605 -0.15625,-0.28125 -0.51298,-0.935745 -1.04131,-1.871386 -1.59375,-2.78125 -0.21235,-0.350204 -0.43817,-0.684992 -0.65625,-1.03125 -0.40476,-0.641883 -0.79462,-1.278257 -1.21875,-1.90625 -0.80884,-1.199206 -1.68527,-2.353572 -2.5625,-3.5 -0.26157,-0.341385 -0.51378,-0.694714 -0.78125,-1.03125 -0.1887,-0.237732 -0.37089,-0.483468 -0.5625,-0.71875 -0.0928,-0.113786 -0.18779,-0.230542 -0.28125,-0.34375 -2.70985,-3.286275 -5.6959,-6.301255 -8.9375,-9.0625 -0.29262,-0.249213 -0.57838,-0.505387 -0.875,-0.75 -0.26784,-0.220858 -0.54144,-0.439189 -0.8125,-0.65625 -0.63574,-0.509101 -1.28442,-1.01213 -1.9375,-1.5 -3.17042,-2.368098 -6.54991,-4.480939 -10.09375,-6.3125 -0.6168,-0.31908 -1.24793,-0.635647 -1.875,-0.9375 -0.15483,-0.07439 -0.3133,-0.145426 -0.46875,-0.21875 -0.78487,-0.37096 -1.57484,-0.719004 -2.375,-1.0625 -0.48783,-0.208994 -0.97542,-0.426428 -1.46875,-0.625 -0.73504,-0.296439 -1.47188,-0.57078 -2.21875,-0.84375 C 457.98321,10.263334 457.58245,10.13635 457.1875,10 456.46909,9.7515393 455.72856,9.4764502 455,9.25 454.8864,9.2148134 454.77009,9.1908956 454.65625,9.15625 454.16839,9.007218 453.67972,8.8890238 453.1875,8.75 452.83049,8.6495592 452.48425,8.5326228 452.125,8.4375 c -0.0195,-0.00518 -0.043,0.00516 -0.0625,0 -0.83667,-0.2207862 -1.68286,-0.4334559 -2.53125,-0.625 -0.0317,-0.0072 -0.062,-0.024093 -0.0937,-0.03125 -0.65123,-0.1461042 -1.31092,-0.2776642 -1.96875,-0.40625 -1.00302,-0.1971101 -2.01366,-0.3757129 -3.03125,-0.53125 -0.0626,-0.00952 -0.12483,-0.021893 -0.1875,-0.03125 -0.95206,-0.1429689 -1.87977,-0.2692042 -2.84375,-0.375 -0.83577,-0.091302 -1.68702,-0.1558179 -2.53125,-0.21875 -0.17592,-0.013157 -0.35498,-0.019343 -0.53125,-0.03125 -0.7347,-0.049469 -1.47808,-0.097346 -2.21875,-0.125 C 435.20525,6.0281378 434.27212,6 433.34375,6 L 147.5,6 78.65625,6 z"
     inkscape:connector-curvature="0"
     id="path3492"
     style="fill:#000000;fill-opacity:0.17647059;stroke:none;filter:url(#filter4375)" />
  <rect
     width="500"
     height="500"
     rx="72.644058"
     ry="72.644058"
     x="6"
     y="12"
     id="rect5028"
     style="opacity:0.15;fill:#000000;fill-opacity:1;stroke:none" />
  <rect
     width="500"
     height="500"
     rx="72.644058"
     ry="72.644058"
     x="6"
     y="6"
     id="rect4979"
     style="fill:url(#linearGradient4385);fill-opacity:1;stroke:none" />
  <rect
     width="434.99997"
     height="434.99997"
     rx="63.200329"
     ry="63.200329"
     x="38.500011"
     y="38.500011"
     id="rect4981"
     style="fill:#cd1c30;fill-opacity:1;stroke:none" />
  <path
     d="M 101.6875,38.5 C 66.674518,38.5 38.5,66.674518 38.5,101.6875 l 0,15 C 38.5,81.674518 66.674518,53.5 101.6875,53.5 l 308.625,0 c 35.01298,0 63.1875,28.174518 63.1875,63.1875 l 0,-15 C 473.5,66.674518 445.32548,38.5 410.3125,38.5 l -308.625,0 z"
     inkscape:connector-curvature="0"
     id="rect3187"
     style="opacity:0.2;fill:#000000;fill-opacity:1;stroke:none" />
  <path
     d="M 78.65625,6 C 38.411442,6 6,38.411442 6,78.65625 l 0,7 C 6,45.411442 38.411442,13 78.65625,13 l 354.6875,0 C 473.58856,13 506,45.411442 506,85.65625 l 0,-7 C 506,38.411442 473.58856,6 433.34375,6 L 78.65625,6 z"
     inkscape:connector-curvature="0"
     id="rect4349"
     style="fill:#ffffff;fill-opacity:1;stroke:none" />
  <text
     x="-403.44125"
     y="144.81168"
     id="text8"
     style="font-size:129.22999573px;line-height:125%;letter-spacing:0;word-spacing:0;font-family:Gentium Book Basic">
    <tspan
       x="-403.44125"
       y="144.81168"
       id="tspan10" />
  </text>
  <text
     x="96.540924"
     y="231.9296"
     transform="scale(4.0128205,0.24920128)"
     id="text12"
     style="font-size:46.95375824px;text-anchor:middle;font-family:Arial" />
  <text
     x="177.82877"
     y="64.811676"
     id="text14"
     style="font-size:129.22999573px;line-height:125%;letter-spacing:0;word-spacing:0;font-family:Gentium Book Basic">
    <tspan
       x="177.82877"
       y="64.811676"
       id="tspan16" />
  </text>
  <text
     x="241.39017"
     y="-89.088753"
     transform="scale(4.0128205,0.24920128)"
     id="text18"
     style="font-size:46.95375824px;text-anchor:middle;font-family:Arial" />
  <text
     x="-893.75122"
     y="-116.44833"
     id="text20"
     style="font-size:129.22999573px;line-height:125%;letter-spacing:0;word-spacing:0;font-family:Gentium Book Basic">
    <tspan
       x="-893.75122"
       y="-116.44833"
       id="tspan22" />
  </text>
  <text
     x="-25.648455"
     y="-816.44501"
     transform="scale(4.0128205,0.24920128)"
     id="text24"
     style="font-size:46.95375824px;text-anchor:middle;font-family:Arial" />
  <text
     x="204.29874"
     y="-332.91833"
     id="text26"
     style="font-size:129.22999573px;line-height:125%;letter-spacing:0;word-spacing:0;font-family:Gentium Book Basic">
    <tspan
       x="204.29874"
       y="-332.91833"
       id="tspan28" />
  </text>
  <text
     x="247.99014"
     y="-1685.1106"
     transform="scale(4.0128205,0.24920128)"
     id="text30"
     style="font-size:46.95375824px;text-anchor:middle;font-family:Arial" />
  <text
     x="785.56879"
     y="-412.92834"
     id="text32"
     style="font-size:129.22999573px;line-height:125%;letter-spacing:0;word-spacing:0;font-family:Gentium Book Basic">
    <tspan
       x="785.56879"
       y="-412.92834"
       id="tspan34" />
  </text>
  <text
     x="392.83939"
     y="-2006.139"
     transform="scale(4.0128205,0.24920128)"
     id="text36"
     style="font-size:46.95375824px;text-anchor:middle;font-family:Arial" />
  <text
     x="396.44876"
     y="-885.32831"
     id="text38"
     style="font-size:129.22999573px;line-height:125%;letter-spacing:0;word-spacing:0;font-family:Gentium Book Basic">
    <tspan
       x="396.44876"
       y="-885.32831"
       id="tspan40" />
  </text>
  <text
     x="295.8699"
     y="-3901.7793"
     transform="scale(4.0128205,0.24920128)"
     id="text42"
     style="font-size:46.95375824px;text-anchor:middle;font-family:Arial" />
  <text
     x="977.7088"
     y="-965.32831"
     id="text44"
     style="font-size:129.22999573px;line-height:125%;letter-spacing:0;word-spacing:0;font-family:Gentium Book Basic">
    <tspan
       x="977.7088"
       y="-965.32831"
       id="tspan46" />
  </text>
  <text
     x="440.71915"
     y="-4222.8076"
     transform="scale(4.0128205,0.24920128)"
     id="text48"
     style="font-size:46.95375824px;text-anchor:middle;font-family:Arial" />
  <text
     x="-855.09125"
     y="449.39166"
     id="text50"
     style="font-size:208.33000183px;line-height:125%;letter-spacing:0;word-spacing:0;font-family:Gentium Book Basic">
    <tspan
       x="-855.09125"
       y="449.39166"
       id="tspan52" />
  </text>
  <g
     transform="translate(-7.4999991,-7.4999986)"
     id="g3529">
    <path
       d="m 229.63116,110.36463 c -10.2683,0 -18.9184,5.78178 -23.9065,13.94953 -4.5924,7.44645 -15.8628,26.96022 -25.5133,43.79615 -8.9017,15.53482 -3.5019,35.42464 12.0019,44.38042 l 12.562,7.23037 c 15.5071,8.95117 35.3365,3.6316 44.283,-11.88022 15.9754,-27.67832 38.8201,-67.27513 44.77,-77.51359 6.1338,-10.56514 16.209,-17.56479 27.9232,-19.45142 3.541,-0.57059 3.563,-0.51124 -0.025,-0.51124 l -92.0961,0 z m 98.3527,8.08245 c -11.2565,0.0138 -21.6701,6.17804 -27.1931,15.97014 -0.024,0.0184 -9.1726,15.79613 -18.3802,31.84288 l 18.5749,32.18372 -20.206,11.3203 c -3.1187,1.74858 -2.7954,3.61824 0.7546,4.0899 16.3885,2.21564 59.505,7.07106 73.3994,-0.94944 13.8737,-8.01704 31.2098,-47.75152 37.4908,-63.05282 1.3575,-3.31197 -0.093,-4.57335 -3.1892,-2.7753 l -19.9627,11.56374 c 0.015,0 -10.004,-17.47267 -13.9981,-24.39339 -5.653,-9.71963 -16.0512,-15.83194 -27.2906,-15.79973 z m 57.5509,102.7834 c -5.2262,0.13778 -10.4933,1.55758 -15.3371,4.3577 l -12.3185,7.08432 c -15.5072,8.95116 -20.8185,28.78502 -11.8559,44.28303 l 23.6875,41.04519 c 18.5097,0 36.7664,0 36.7848,0 11.2749,0.0851 21.7637,-5.94917 27.4121,-15.67799 5.6128,-9.73343 5.5413,-21.853 -0.1703,-31.55076 0,-0.0137 -8.7595,-15.17959 -19.2567,-33.35227 -6.1603,-10.65883 -17.4485,-16.49234 -28.9459,-16.18922 z m -234.4397,6.35396 c -16.1727,0.15993 -33.84988,2.23566 -43.06578,3.4813 -3.55469,0.48086 -3.88392,2.3833 -0.77903,4.16295 l 20.01136,11.4907 -19.93832,34.49647 c -4.87075,8.26898 -5.26874,18.81525 -0.14607,27.70428 l 46.08454,79.77764 c 1.7889,3.10491 1.7349,3.10418 0.4626,-0.24344 -4.2461,-11.25194 -3.299,-24.0285 2.897,-34.5695 l 39.0733,-67.65397 20.0114,11.61243 c 3.1003,1.79805 4.5756,0.55986 3.2135,-2.75096 -6.2684,-15.3013 -23.6103,-55.06471 -37.491,-63.07715 -6.0797,-3.50545 -17.7547,-4.55512 -30.3335,-4.43075 z m 174.7464,72.49858 c -0.6922,-0.0474 -1.5985,0.51218 -2.5561,1.75281 -10.1154,13.08106 -35.8841,47.98792 -35.8841,64.02662 0,16.02948 25.7629,50.9258 35.884,64.00226 2.1881,2.83569 4.0017,2.19349 3.9926,-1.38766 l -0.025,-23.05444 39.8037,0 c 9.6033,0.0678 18.9647,-4.86227 24.1011,-13.75476 l 46.0361,-79.77765 c 1.7886,-3.10489 1.8313,-3.06456 -0.4384,-0.29213 -7.6258,9.32388 -19.1632,14.86104 -31.3803,14.75289 0,0 -78.1222,0.006 -78.1222,0.0243 l 0.025,-23.12748 c 0.011,-2.01181 -0.5464,-3.10386 -1.4365,-3.16481 z m -144.1207,27.12001 c -9.2262,16.0249 -18.3665,31.84078 -18.3803,31.86724 -5.6978,9.68396 -5.7643,21.77572 -0.1217,31.5264 5.6266,9.75528 16.1208,15.76313 27.3634,15.678 l 38.5378,0 c 17.9069,0 32.4272,-14.49934 32.4272,-32.40283 l 0,-14.24165 c 0,-17.90347 -14.519,-32.42716 -32.4272,-32.42716 l -47.3992,0 z"
       inkscape:connector-curvature="0"
       id="path3527"
       style="opacity:0.2;fill:#000000;fill-opacity:1" />
    <path
       d="m 214.63116,95.364628 c -10.2683,0 -18.9184,5.781782 -23.9065,13.949532 -4.5924,7.44645 -15.8628,26.96022 -25.5133,43.79615 -8.9017,15.53482 -3.5019,35.42464 12.0019,44.38042 l 12.562,7.23037 c 15.5071,8.95117 35.3365,3.6316 44.283,-11.88022 15.9754,-27.67832 38.8201,-67.27513 44.77,-77.51359 6.1338,-10.56514 16.209,-17.564792 27.9232,-19.45142 3.541,-0.570589 3.563,-0.511242 -0.025,-0.511242 l -92.0961,0 z m 98.3527,8.082452 c -11.2565,0.0138 -21.6701,6.17804 -27.1931,15.97014 -0.024,0.0184 -9.1726,15.79613 -18.3802,31.84288 l 18.5749,32.18372 -20.206,11.3203 c -3.1187,1.74858 -2.7954,3.61824 0.7546,4.0899 16.3885,2.21564 59.505,7.07106 73.3994,-0.94944 13.8737,-8.01704 31.2098,-47.75152 37.4908,-63.05282 1.3575,-3.31197 -0.093,-4.57335 -3.1892,-2.7753 l -19.9627,11.56374 c 0.015,0 -10.004,-17.47267 -13.9981,-24.39339 -5.653,-9.71963 -16.0512,-15.83194 -27.2906,-15.79973 z m 57.5509,102.7834 c -5.2262,0.13778 -10.4933,1.55758 -15.3371,4.3577 l -12.3185,7.08432 c -15.5072,8.95116 -20.8185,28.78502 -11.8559,44.28303 l 23.6875,41.04519 c 18.5097,0 36.7664,0 36.7848,0 11.2749,0.0851 21.7637,-5.94917 27.4121,-15.67799 5.6128,-9.73343 5.5413,-21.853 -0.1703,-31.55076 0,-0.0137 -8.7595,-15.17959 -19.2567,-33.35227 -6.1603,-10.65883 -17.4485,-16.49234 -28.9459,-16.18922 z m -234.4397,6.35396 c -16.1727,0.15993 -33.84988,2.23566 -43.065778,3.4813 -3.55469,0.48086 -3.88392,2.3833 -0.77903,4.16295 l 20.011358,11.4907 -19.938318,34.49647 c -4.87075,8.26898 -5.26874,18.81525 -0.14607,27.70428 l 46.084538,79.77764 c 1.7889,3.10491 1.7349,3.10418 0.4626,-0.24344 -4.2461,-11.25194 -3.299,-24.0285 2.897,-34.5695 l 39.0733,-67.65397 20.0114,11.61243 c 3.1003,1.79805 4.5756,0.55986 3.2135,-2.75096 -6.2684,-15.3013 -23.6103,-55.06471 -37.491,-63.07715 -6.0797,-3.50545 -17.7547,-4.55512 -30.3335,-4.43075 z m 174.7464,72.49858 c -0.6922,-0.0474 -1.5985,0.51218 -2.5561,1.75281 -10.1154,13.08106 -35.8841,47.98792 -35.8841,64.02662 0,16.02948 25.7629,50.9258 35.884,64.00226 2.1881,2.83569 4.0017,2.19349 3.9926,-1.38766 l -0.025,-23.05444 39.8037,0 c 9.6033,0.0678 18.9647,-4.86227 24.1011,-13.75476 l 46.0361,-79.77765 c 1.7886,-3.10489 1.8313,-3.06456 -0.4384,-0.29213 -7.6258,9.32388 -19.1632,14.86104 -31.3803,14.75289 0,0 -78.1222,0.006 -78.1222,0.0243 l 0.025,-23.12748 c 0.011,-2.01181 -0.5464,-3.10386 -1.4365,-3.16481 z m -144.1207,27.12001 c -9.2262,16.0249 -18.3665,31.84078 -18.3803,31.86724 -5.6978,9.68396 -5.7643,21.77572 -0.1217,31.5264 5.6266,9.75528 16.1208,15.76313 27.3634,15.678 l 38.5378,0 c 17.9069,0 32.4272,-14.49934 32.4272,-32.40283 l 0,-14.24165 c 0,-17.90347 -14.519,-32.42716 -32.4272,-32.42716 l -47.3992,0 z"
       inkscape:connector-curvature="0"
       id="path56"
       style="fill:#dcdbdb;fill-opacity:1" />
  </g>
  <g
     id="g3167">
    <path
       d="M 78.65625,6 C 63.792798,6 49.986224,10.429561 38.5,18.03125 l 0,475.9375 C 49.986224,501.57044 63.792798,506 78.65625,506 L 147.5,506 147.5,6 78.65625,6 z"
       inkscape:connector-curvature="0"
       id="rect3068"
       style="opacity:0.05;fill:url(#linearGradient3108);fill-opacity:1;stroke:none" />
    <path
       d="m 147.50001,6 0,500 109,0 0,-500 -109,0 z"
       inkscape:connector-curvature="0"
       id="path3135"
       style="opacity:0.05;fill:url(#linearGradient3137);fill-opacity:1;stroke:none" />
    <path
       d="m 256.50001,6 0,500 109,0 0,-500 -109,0 z"
       inkscape:connector-curvature="0"
       id="path3139"
       style="opacity:0.05;fill:url(#linearGradient3141);fill-opacity:1;stroke:none" />
    <path
       d="m 365.5,6 0,500 67.84375,0 c 14.85395,0 28.64317,-4.43849 40.125,-12.03125 l 0,-475.9375 C 461.98692,10.438491 448.1977,6 433.34375,6 L 365.5,6 z"
       inkscape:connector-curvature="0"
       id="path3143"
       style="opacity:0.05;fill:url(#linearGradient3145);fill-opacity:1;stroke:none" />
    <path
       d="M 38.5,18.03125 C 18.885717,31.012164 6,53.274894 6,78.65625 l 0,354.6875 c 0,25.38136 12.885717,47.64409 32.5,60.625 l 0,-475.9375 z"
       inkscape:connector-curvature="0"
       id="path3151"
       style="opacity:0.05;fill:url(#linearGradient3153);fill-opacity:1;stroke:none" />
    <path
       d="m 473.46875,18.03125 0,475.9375 C 493.09542,480.98993 506,458.73461 506,433.34375 l 0,-354.6875 c 0,-25.390862 -12.90458,-47.646179 -32.53125,-60.625 z"
       inkscape:connector-curvature="0"
       id="path3147"
       style="opacity:0.05;fill:url(#linearGradient3149);fill-opacity:1;stroke:none" />
  </g>
</svg>
